<?xml version="1.0" encoding="UTF-8" standalone="no"?>
<!DOCTYPE svg PUBLIC "-//W3C//DTD SVG 1.1//EN"
 "http://www.w3.org/Graphics/SVG/1.1/DTD/svg11.dtd">
<!-- Generated by graphviz version 2.26.3 (20100126.1600)
 -->
<!-- Title: HConst2b_opt Pages: 1 -->
<svg width="1791pt" height="662pt"
 viewBox="0.00 0.00 1791.00 662.00" xmlns="http://www.w3.org/2000/svg" xmlns:xlink="http://www.w3.org/1999/xlink">
<g id="graph1" class="graph" transform="scale(1 1) rotate(0) translate(4 658)">
<title>HConst2b_opt</title>
<polygon fill="white" stroke="white" points="-4,5 -4,-658 1788,-658 1788,5 -4,5"/>
<!-- 0 &#45; Outport -->
<g id="node1" class="node"><title>0 &#45; Outport</title>
<ellipse fill="#eedd82" stroke="black" cx="99" cy="-475" rx="67.1751" ry="18.3848"/>
<text text-anchor="middle" x="99" y="-471.4" font-family="Times Roman,serif" font-size="14.00">0 &#45; Outport</text>
</g>
<!-- 12 &#45; __Block_Inport__ -->
<g id="node13" class="node"><title>12 &#45; __Block_Inport__</title>
<ellipse fill="#b94a62" stroke="black" cx="386" cy="-93" rx="118.794" ry="18.3848"/>
<text text-anchor="middle" x="386" y="-89.4" font-family="Times Roman,serif" font-size="14.00">12 &#45; __Block_Inport__</text>
</g>
<!-- 0 &#45; Outport&#45;&gt;12 &#45; __Block_Inport__ -->
<g id="edge32" class="edge"><title>0 &#45; Outport&#45;&gt;12 &#45; __Block_Inport__</title>
<path fill="none" stroke="black" d="M99,-456.279C99,-426.406 99,-366.111 99,-315 99,-315 99,-315 99,-241 99,-157.669 195.758,-121.211 276.912,-105.289"/>
<polygon fill="black" stroke="black" points="278.046,-108.637 287.231,-103.356 276.757,-101.757 278.046,-108.637"/>
</g>
<!-- 1 &#45; Inport -->
<g id="node2" class="node"><title>1 &#45; Inport</title>
<ellipse fill="#eedd82" stroke="black" cx="529" cy="-475" rx="58.1882" ry="18.3848"/>
<text text-anchor="middle" x="529" y="-471.4" font-family="Times Roman,serif" font-size="14.00">1 &#45; Inport</text>
</g>
<!-- 14 &#45; __Block_Outport__ -->
<g id="node15" class="node"><title>14 &#45; __Block_Outport__</title>
<ellipse fill="#b94a62" stroke="black" cx="529" cy="-389" rx="127.986" ry="18.3848"/>
<text text-anchor="middle" x="529" y="-385.4" font-family="Times Roman,serif" font-size="14.00">14 &#45; __Block_Outport__</text>
</g>
<!-- 1 &#45; Inport&#45;&gt;14 &#45; __Block_Outport__ -->
<g id="edge2" class="edge"><title>1 &#45; Inport&#45;&gt;14 &#45; __Block_Outport__</title>
<path fill="none" stroke="black" d="M529,-456.339C529,-445.07 529,-430.474 529,-417.754"/>
<polygon fill="black" stroke="black" points="532.5,-417.624 529,-407.624 525.5,-417.624 532.5,-417.624"/>
</g>
<!-- 2 &#45; Switch -->
<g id="node3" class="node"><title>2 &#45; Switch</title>
<ellipse fill="lightblue" stroke="black" cx="925" cy="-315" rx="61.0181" ry="18.3848"/>
<text text-anchor="middle" x="925" y="-311.4" font-family="Times Roman,serif" font-size="14.00">2 &#45; Switch</text>
</g>
<!-- 15 &#45; __Block_Inport__ -->
<g id="node16" class="node"><title>15 &#45; __Block_Inport__</title>
<ellipse fill="#b94a62" stroke="black" cx="670" cy="-241" rx="118.794" ry="18.3848"/>
<text text-anchor="middle" x="670" y="-237.4" font-family="Times Roman,serif" font-size="14.00">15 &#45; __Block_Inport__</text>
</g>
<!-- 2 &#45; Switch&#45;&gt;15 &#45; __Block_Inport__ -->
<g id="edge38" class="edge"><title>2 &#45; Switch&#45;&gt;15 &#45; __Block_Inport__</title>
<path fill="none" stroke="black" d="M880.874,-302.195C841.033,-290.633 781.851,-273.459 736.316,-260.245"/>
<polygon fill="black" stroke="black" points="737.105,-256.829 726.526,-257.404 735.154,-263.552 737.105,-256.829"/>
</g>
<!-- 16 &#45; __Block_Inport__ -->
<g id="node17" class="node"><title>16 &#45; __Block_Inport__</title>
<ellipse fill="#b94a62" stroke="black" cx="925" cy="-241" rx="118.087" ry="18.3848"/>
<text text-anchor="middle" x="925" y="-237.4" font-family="Times Roman,serif" font-size="14.00">16 &#45; __Block_Inport__</text>
</g>
<!-- 2 &#45; Switch&#45;&gt;16 &#45; __Block_Inport__ -->
<g id="edge40" class="edge"><title>2 &#45; Switch&#45;&gt;16 &#45; __Block_Inport__</title>
<path fill="none" stroke="black" d="M925,-296.327C925,-288.264 925,-278.648 925,-269.711"/>
<polygon fill="black" stroke="black" points="928.5,-269.667 925,-259.667 921.5,-269.667 928.5,-269.667"/>
</g>
<!-- 17 &#45; __Block_Inport__ -->
<g id="node18" class="node"><title>17 &#45; __Block_Inport__</title>
<ellipse fill="#b94a62" stroke="black" cx="1452" cy="-241" rx="119.001" ry="18.3848"/>
<text text-anchor="middle" x="1452" y="-237.4" font-family="Times Roman,serif" font-size="14.00">17 &#45; __Block_Inport__</text>
</g>
<!-- 2 &#45; Switch&#45;&gt;17 &#45; __Block_Inport__ -->
<g id="edge42" class="edge"><title>2 &#45; Switch&#45;&gt;17 &#45; __Block_Inport__</title>
<path fill="none" stroke="black" d="M980.864,-307.486C1058.05,-297.061 1201.65,-277.512 1324,-260 1334.47,-258.501 1345.42,-256.911 1356.32,-255.314"/>
<polygon fill="black" stroke="black" points="1356.91,-258.764 1366.3,-253.847 1355.89,-251.838 1356.91,-258.764"/>
</g>
<!-- 18 &#45; __Block_Outport__ -->
<g id="node19" class="node"><title>18 &#45; __Block_Outport__</title>
<ellipse fill="#b94a62" stroke="black" cx="1188" cy="-241" rx="126.78" ry="18.3848"/>
<text text-anchor="middle" x="1188" y="-237.4" font-family="Times Roman,serif" font-size="14.00">18 &#45; __Block_Outport__</text>
</g>
<!-- 2 &#45; Switch&#45;&gt;18 &#45; __Block_Outport__ -->
<g id="edge4" class="edge"><title>2 &#45; Switch&#45;&gt;18 &#45; __Block_Outport__</title>
<path fill="none" stroke="black" d="M969.912,-302.363C1011,-290.801 1072.4,-273.527 1119.59,-260.249"/>
<polygon fill="black" stroke="black" points="1120.75,-263.557 1129.43,-257.48 1118.86,-256.819 1120.75,-263.557"/>
</g>
<!-- 3 &#45; SubSystem -->
<g id="node4" class="node"><title>3 &#45; SubSystem</title>
<ellipse fill="lightgreen" stroke="black" cx="531" cy="-635" rx="84.1457" ry="18.3848"/>
<text text-anchor="middle" x="531" y="-631.4" font-family="Times Roman,serif" font-size="14.00">3 &#45; SubSystem</text>
</g>
<!-- 24 &#45; __Contains__ -->
<g id="node25" class="node"><title>24 &#45; __Contains__</title>
<ellipse fill="lightgray" stroke="black" cx="99" cy="-561" rx="99.201" ry="18.3848"/>
<text text-anchor="middle" x="99" y="-557.4" font-family="Times Roman,serif" font-size="14.00">24 &#45; __Contains__</text>
</g>
<!-- 3 &#45; SubSystem&#45;&gt;24 &#45; __Contains__ -->
<g id="edge14" class="edge"><title>3 &#45; SubSystem&#45;&gt;24 &#45; __Contains__</title>
<path fill="none" stroke="black" d="M463.963,-623.741C398.428,-612.705 295.829,-595.353 207,-580 198.549,-578.539 189.729,-577.005 180.93,-575.467"/>
<polygon fill="black" stroke="black" points="181.479,-572.01 171.026,-573.733 180.272,-578.905 181.479,-572.01"/>
</g>
<!-- 25 &#45; __Contains__ -->
<g id="node26" class="node"><title>25 &#45; __Contains__</title>
<ellipse fill="lightgray" stroke="black" cx="1014" cy="-561" rx="99.201" ry="18.3848"/>
<text text-anchor="middle" x="1014" y="-557.4" font-family="Times Roman,serif" font-size="14.00">25 &#45; __Contains__</text>
</g>
<!-- 3 &#45; SubSystem&#45;&gt;25 &#45; __Contains__ -->
<g id="edge12" class="edge"><title>3 &#45; SubSystem&#45;&gt;25 &#45; __Contains__</title>
<path fill="none" stroke="black" d="M600.202,-624.398C686.401,-611.191 833.709,-588.622 927.333,-574.278"/>
<polygon fill="black" stroke="black" points="927.994,-577.718 937.348,-572.744 926.934,-570.799 927.994,-577.718"/>
</g>
<!-- 26 &#45; __Contains__ -->
<g id="node27" class="node"><title>26 &#45; __Contains__</title>
<ellipse fill="lightgray" stroke="black" cx="531" cy="-561" rx="98.9949" ry="18.3848"/>
<text text-anchor="middle" x="531" y="-557.4" font-family="Times Roman,serif" font-size="14.00">26 &#45; __Contains__</text>
</g>
<!-- 3 &#45; SubSystem&#45;&gt;26 &#45; __Contains__ -->
<g id="edge10" class="edge"><title>3 &#45; SubSystem&#45;&gt;26 &#45; __Contains__</title>
<path fill="none" stroke="black" d="M531,-616.327C531,-608.264 531,-598.648 531,-589.711"/>
<polygon fill="black" stroke="black" points="534.5,-589.667 531,-579.667 527.5,-589.667 534.5,-589.667"/>
</g>
<!-- 27 &#45; __Contains__ -->
<g id="node28" class="node"><title>27 &#45; __Contains__</title>
<ellipse fill="lightgray" stroke="black" cx="781" cy="-561" rx="99.9096" ry="18.3848"/>
<text text-anchor="middle" x="781" y="-557.4" font-family="Times Roman,serif" font-size="14.00">27 &#45; __Contains__</text>
</g>
<!-- 3 &#45; SubSystem&#45;&gt;27 &#45; __Contains__ -->
<g id="edge8" class="edge"><title>3 &#45; SubSystem&#45;&gt;27 &#45; __Contains__</title>
<path fill="none" stroke="black" d="M581.29,-620.114C620.711,-608.446 675.788,-592.143 718.121,-579.612"/>
<polygon fill="black" stroke="black" points="719.172,-582.951 727.767,-576.757 717.185,-576.239 719.172,-582.951"/>
</g>
<!-- 28 &#45; __Contains__ -->
<g id="node29" class="node"><title>28 &#45; __Contains__</title>
<ellipse fill="lightgray" stroke="black" cx="315" cy="-561" rx="98.9949" ry="18.3848"/>
<text text-anchor="middle" x="315" y="-557.4" font-family="Times Roman,serif" font-size="14.00">28 &#45; __Contains__</text>
</g>
<!-- 3 &#45; SubSystem&#45;&gt;28 &#45; __Contains__ -->
<g id="edge6" class="edge"><title>3 &#45; SubSystem&#45;&gt;28 &#45; __Contains__</title>
<path fill="none" stroke="black" d="M485.456,-619.397C452.533,-608.118 407.813,-592.797 372.438,-580.678"/>
<polygon fill="black" stroke="black" points="373.321,-577.281 362.727,-577.351 371.052,-583.903 373.321,-577.281"/>
</g>
<!-- 4 &#45; Port_Input -->
<g id="node5" class="node"><title>4 &#45; Port_Input</title>
<ellipse fill="lightyellow" stroke="black" cx="575" cy="-19" rx="79.9031" ry="18.3848"/>
<text text-anchor="middle" x="575" y="-15.4" font-family="Times Roman,serif" font-size="14.00">4 &#45; Port_Input</text>
</g>
<!-- 5 &#45; Port_Output -->
<g id="node6" class="node"><title>5 &#45; Port_Output</title>
<ellipse fill="coral" stroke="black" cx="1389" cy="-315" rx="87.889" ry="18.3848"/>
<text text-anchor="middle" x="1389" y="-311.4" font-family="Times Roman,serif" font-size="14.00">5 &#45; Port_Output</text>
</g>
<!-- 22 &#45; __Relation__ -->
<g id="node23" class="node"><title>22 &#45; __Relation__</title>
<ellipse fill="#f78465" stroke="black" cx="1686" cy="-241" rx="96.8736" ry="18.3848"/>
<text text-anchor="middle" x="1686" y="-237.4" font-family="Times Roman,serif" font-size="14.00">22 &#45; __Relation__</text>
</g>
<!-- 5 &#45; Port_Output&#45;&gt;22 &#45; __Relation__ -->
<g id="edge18" class="edge"><title>5 &#45; Port_Output&#45;&gt;22 &#45; __Relation__</title>
<path fill="none" stroke="black" d="M1445.91,-300.82C1494.73,-288.657 1565.21,-271.096 1617.18,-258.146"/>
<polygon fill="black" stroke="black" points="1618.14,-261.516 1626.99,-255.702 1616.44,-254.724 1618.14,-261.516"/>
</g>
<!-- 6 &#45; Port_Output -->
<g id="node7" class="node"><title>6 &#45; Port_Output</title>
<ellipse fill="coral" stroke="black" cx="482" cy="-315" rx="87.889" ry="18.3848"/>
<text text-anchor="middle" x="482" y="-311.4" font-family="Times Roman,serif" font-size="14.00">6 &#45; Port_Output</text>
</g>
<!-- 20 &#45; __Relation__ -->
<g id="node21" class="node"><title>20 &#45; __Relation__</title>
<ellipse fill="#f78465" stroke="black" cx="436" cy="-241" rx="96.8736" ry="18.3848"/>
<text text-anchor="middle" x="436" y="-237.4" font-family="Times Roman,serif" font-size="14.00">20 &#45; __Relation__</text>
</g>
<!-- 6 &#45; Port_Output&#45;&gt;20 &#45; __Relation__ -->
<g id="edge20" class="edge"><title>6 &#45; Port_Output&#45;&gt;20 &#45; __Relation__</title>
<path fill="none" stroke="black" d="M470.392,-296.327C465.068,-287.761 458.653,-277.442 452.813,-268.047"/>
<polygon fill="black" stroke="black" points="455.697,-266.056 447.445,-259.411 449.752,-269.752 455.697,-266.056"/>
</g>
<!-- 7 &#45; Port_Input -->
<g id="node8" class="node"><title>7 &#45; Port_Input</title>
<ellipse fill="lightyellow" stroke="black" cx="311" cy="-167" rx="79.9031" ry="18.3848"/>
<text text-anchor="middle" x="311" y="-163.4" font-family="Times Roman,serif" font-size="14.00">7 &#45; Port_Input</text>
</g>
<!-- 8 &#45; Port_Input -->
<g id="node9" class="node"><title>8 &#45; Port_Input</title>
<ellipse fill="lightyellow" stroke="black" cx="576" cy="-167" rx="79.196" ry="18.3848"/>
<text text-anchor="middle" x="576" y="-163.4" font-family="Times Roman,serif" font-size="14.00">8 &#45; Port_Input</text>
</g>
<!-- 9 &#45; Port_Input -->
<g id="node10" class="node"><title>9 &#45; Port_Input</title>
<ellipse fill="lightyellow" stroke="black" cx="1569" cy="-167" rx="79.196" ry="18.3848"/>
<text text-anchor="middle" x="1569" y="-163.4" font-family="Times Roman,serif" font-size="14.00">9 &#45; Port_Input</text>
</g>
<!-- 10 &#45; Port_Output -->
<g id="node11" class="node"><title>10 &#45; Port_Output</title>
<ellipse fill="coral" stroke="black" cx="908" cy="-167" rx="94.7523" ry="18.3848"/>
<text text-anchor="middle" x="908" y="-163.4" font-family="Times Roman,serif" font-size="14.00">10 &#45; Port_Output</text>
</g>
<!-- 23 &#45; __Relation__ -->
<g id="node24" class="node"><title>23 &#45; __Relation__</title>
<ellipse fill="#f78465" stroke="black" cx="764" cy="-93" rx="96.8736" ry="18.3848"/>
<text text-anchor="middle" x="764" y="-89.4" font-family="Times Roman,serif" font-size="14.00">23 &#45; __Relation__</text>
</g>
<!-- 10 &#45; Port_Output&#45;&gt;23 &#45; __Relation__ -->
<g id="edge28" class="edge"><title>10 &#45; Port_Output&#45;&gt;23 &#45; __Relation__</title>
<path fill="none" stroke="black" d="M874.238,-149.65C854.163,-139.334 828.5,-126.146 806.986,-115.09"/>
<polygon fill="black" stroke="black" points="808.543,-111.955 798.049,-110.497 805.344,-118.181 808.543,-111.955"/>
</g>
<!-- 11 &#45; Port_Output -->
<g id="node12" class="node"><title>11 &#45; Port_Output</title>
<ellipse fill="coral" stroke="black" cx="229" cy="-315" rx="96.1665" ry="18.3848"/>
<text text-anchor="middle" x="229" y="-311.4" font-family="Times Roman,serif" font-size="14.00">11 &#45; Port_Output</text>
</g>
<!-- 21 &#45; __Relation__ -->
<g id="node22" class="node"><title>21 &#45; __Relation__</title>
<ellipse fill="#f78465" stroke="black" cx="224" cy="-241" rx="97.0803" ry="18.3848"/>
<text text-anchor="middle" x="224" y="-237.4" font-family="Times Roman,serif" font-size="14.00">21 &#45; __Relation__</text>
</g>
<!-- 11 &#45; Port_Output&#45;&gt;21 &#45; __Relation__ -->
<g id="edge30" class="edge"><title>11 &#45; Port_Output&#45;&gt;21 &#45; __Relation__</title>
<path fill="none" stroke="black" d="M227.738,-296.327C227.194,-288.264 226.544,-278.648 225.94,-269.711"/>
<polygon fill="black" stroke="black" points="229.428,-269.409 225.261,-259.667 222.444,-269.881 229.428,-269.409"/>
</g>
<!-- 12 &#45; __Block_Inport__&#45;&gt;4 &#45; Port_Input -->
<g id="edge16" class="edge"><title>12 &#45; __Block_Inport__&#45;&gt;4 &#45; Port_Input</title>
<path fill="none" stroke="black" d="M430.312,-75.6503C458.544,-64.5967 495.194,-50.247 524.543,-38.7557"/>
<polygon fill="black" stroke="black" points="526.158,-41.8822 534.193,-34.9772 523.606,-35.364 526.158,-41.8822"/>
</g>
<!-- 13 &#45; __Block_Outport__ -->
<g id="node14" class="node"><title>13 &#45; __Block_Outport__</title>
<ellipse fill="#b94a62" stroke="black" cx="1260" cy="-389" rx="126.78" ry="18.3848"/>
<text text-anchor="middle" x="1260" y="-385.4" font-family="Times Roman,serif" font-size="14.00">13 &#45; __Block_Outport__</text>
</g>
<!-- 13 &#45; __Block_Outport__&#45;&gt;5 &#45; Port_Output -->
<g id="edge34" class="edge"><title>13 &#45; __Block_Outport__&#45;&gt;5 &#45; Port_Output</title>
<path fill="none" stroke="black" d="M1291.56,-370.898C1309.12,-360.822 1331.14,-348.191 1349.8,-337.487"/>
<polygon fill="black" stroke="black" points="1351.72,-340.418 1358.66,-332.406 1348.24,-334.346 1351.72,-340.418"/>
</g>
<!-- 14 &#45; __Block_Outport__&#45;&gt;6 &#45; Port_Output -->
<g id="edge36" class="edge"><title>14 &#45; __Block_Outport__&#45;&gt;6 &#45; Port_Output</title>
<path fill="none" stroke="black" d="M517.14,-370.327C511.699,-361.761 505.145,-351.442 499.179,-342.047"/>
<polygon fill="black" stroke="black" points="502.009,-339.976 493.693,-333.411 496.1,-343.729 502.009,-339.976"/>
</g>
<!-- 15 &#45; __Block_Inport__&#45;&gt;7 &#45; Port_Input -->
<g id="edge22" class="edge"><title>15 &#45; __Block_Inport__&#45;&gt;7 &#45; Port_Input</title>
<path fill="none" stroke="black" d="M598.214,-226.203C534.895,-213.151 443.2,-194.25 380.559,-181.338"/>
<polygon fill="black" stroke="black" points="381.264,-177.91 370.763,-179.319 379.851,-184.766 381.264,-177.91"/>
</g>
<!-- 16 &#45; __Block_Inport__&#45;&gt;8 &#45; Port_Input -->
<g id="edge24" class="edge"><title>16 &#45; __Block_Inport__&#45;&gt;8 &#45; Port_Input</title>
<path fill="none" stroke="black" d="M854.794,-226.114C793.609,-213.141 705.402,-194.438 644.673,-181.561"/>
<polygon fill="black" stroke="black" points="645.304,-178.117 634.796,-179.467 643.852,-184.965 645.304,-178.117"/>
</g>
<!-- 17 &#45; __Block_Inport__&#45;&gt;9 &#45; Port_Input -->
<g id="edge26" class="edge"><title>17 &#45; __Block_Inport__&#45;&gt;9 &#45; Port_Input</title>
<path fill="none" stroke="black" d="M1480.62,-222.898C1496.41,-212.914 1516.16,-200.421 1532.98,-189.779"/>
<polygon fill="black" stroke="black" points="1534.9,-192.709 1541.48,-184.406 1531.16,-186.793 1534.9,-192.709"/>
</g>
<!-- 18 &#45; __Block_Outport__&#45;&gt;10 &#45; Port_Output -->
<g id="edge44" class="edge"><title>18 &#45; __Block_Outport__&#45;&gt;10 &#45; Port_Output</title>
<path fill="none" stroke="black" d="M1126.55,-224.76C1081.56,-212.869 1020.56,-196.749 974.441,-184.559"/>
<polygon fill="black" stroke="black" points="975.103,-181.114 964.541,-181.943 973.315,-187.882 975.103,-181.114"/>
</g>
<!-- 19 &#45; __Block_Outport__ -->
<g id="node20" class="node"><title>19 &#45; __Block_Outport__</title>
<ellipse fill="#b94a62" stroke="black" cx="255" cy="-389" rx="126.78" ry="18.3848"/>
<text text-anchor="middle" x="255" y="-385.4" font-family="Times Roman,serif" font-size="14.00">19 &#45; __Block_Outport__</text>
</g>
<!-- 19 &#45; __Block_Outport__&#45;&gt;11 &#45; Port_Output -->
<g id="edge46" class="edge"><title>19 &#45; __Block_Outport__&#45;&gt;11 &#45; Port_Output</title>
<path fill="none" stroke="black" d="M248.439,-370.327C245.545,-362.089 242.08,-352.229 238.883,-343.13"/>
<polygon fill="black" stroke="black" points="242.176,-341.942 235.559,-333.667 235.572,-344.262 242.176,-341.942"/>
</g>
<!-- 20 &#45; __Relation__&#45;&gt;8 &#45; Port_Input -->
<g id="edge48" class="edge"><title>20 &#45; __Relation__&#45;&gt;8 &#45; Port_Input</title>
<path fill="none" stroke="black" d="M469.178,-223.463C488.759,-213.113 513.714,-199.922 534.579,-188.894"/>
<polygon fill="black" stroke="black" points="536.338,-191.923 543.543,-184.156 533.067,-185.735 536.338,-191.923"/>
</g>
<!-- 21 &#45; __Relation__&#45;&gt;7 &#45; Port_Input -->
<g id="edge50" class="edge"><title>21 &#45; __Relation__&#45;&gt;7 &#45; Port_Input</title>
<path fill="none" stroke="black" d="M245.506,-222.708C256.463,-213.388 269.946,-201.92 281.825,-191.816"/>
<polygon fill="black" stroke="black" points="284.392,-194.227 289.742,-185.082 279.857,-188.895 284.392,-194.227"/>
</g>
<!-- 22 &#45; __Relation__&#45;&gt;9 &#45; Port_Input -->
<g id="edge52" class="edge"><title>22 &#45; __Relation__&#45;&gt;9 &#45; Port_Input</title>
<path fill="none" stroke="black" d="M1657.98,-223.275C1642.2,-213.298 1622.33,-200.728 1605.36,-189.999"/>
<polygon fill="black" stroke="black" points="1607.12,-186.968 1596.8,-184.58 1603.38,-192.884 1607.12,-186.968"/>
</g>
<!-- 23 &#45; __Relation__&#45;&gt;4 &#45; Port_Input -->
<g id="edge54" class="edge"><title>23 &#45; __Relation__&#45;&gt;4 &#45; Port_Input</title>
<path fill="none" stroke="black" d="M721.113,-76.2083C692.613,-65.0495 655.078,-50.3534 625.189,-38.6505"/>
<polygon fill="black" stroke="black" points="626.362,-35.3512 615.774,-34.9644 623.81,-41.8694 626.362,-35.3512"/>
</g>
<!-- 24 &#45; __Contains__&#45;&gt;0 &#45; Outport -->
<g id="edge56" class="edge"><title>24 &#45; __Contains__&#45;&gt;0 &#45; Outport</title>
<path fill="none" stroke="black" d="M99,-542.339C99,-531.07 99,-516.474 99,-503.754"/>
<polygon fill="black" stroke="black" points="102.5,-503.624 99,-493.624 95.5001,-503.624 102.5,-503.624"/>
</g>
<!-- 29 &#45; Constant\n Value = 439.304 -->
<g id="node30" class="node"><title>29 &#45; Constant\n Value = 439.304</title>
<ellipse fill="lightblue" stroke="black" cx="1079" cy="-475" rx="96.8736" ry="31.1127"/>
<text text-anchor="middle" x="1079" y="-480.4" font-family="Times Roman,serif" font-size="14.00">29 &#45; Constant</text>
<text text-anchor="middle" x="1079" y="-462.4" font-family="Times Roman,serif" font-size="14.00"> Value = 439.304</text>
</g>
<!-- 25 &#45; __Contains__&#45;&gt;29 &#45; Constant\n Value = 439.304 -->
<g id="edge58" class="edge"><title>25 &#45; __Contains__&#45;&gt;29 &#45; Constant\n Value = 439.304</title>
<path fill="none" stroke="black" d="M1028.1,-542.339C1034.46,-533.926 1042.22,-523.658 1049.75,-513.702"/>
<polygon fill="black" stroke="black" points="1052.74,-515.547 1055.98,-505.458 1047.16,-511.326 1052.74,-515.547"/>
</g>
<!-- 26 &#45; __Contains__&#45;&gt;1 &#45; Inport -->
<g id="edge60" class="edge"><title>26 &#45; __Contains__&#45;&gt;1 &#45; Inport</title>
<path fill="none" stroke="black" d="M530.566,-542.339C530.304,-531.07 529.965,-516.474 529.669,-503.754"/>
<polygon fill="black" stroke="black" points="533.165,-503.54 529.433,-493.624 526.167,-503.703 533.165,-503.54"/>
</g>
<!-- 27 &#45; __Contains__&#45;&gt;2 &#45; Switch -->
<g id="edge62" class="edge"><title>27 &#45; __Contains__&#45;&gt;2 &#45; Switch</title>
<path fill="none" stroke="black" d="M791.823,-542.51C817.008,-499.487 879.63,-392.507 909.139,-342.095"/>
<polygon fill="black" stroke="black" points="912.216,-343.767 914.247,-333.369 906.175,-340.231 912.216,-343.767"/>
</g>
<!-- 30 &#45; Constant\n Value = 249.0 -->
<g id="node31" class="node"><title>30 &#45; Constant\n Value = 249.0</title>
<ellipse fill="lightblue" stroke="black" cx="292" cy="-475" rx="85.0596" ry="31.1127"/>
<text text-anchor="middle" x="292" y="-480.4" font-family="Times Roman,serif" font-size="14.00">30 &#45; Constant</text>
<text text-anchor="middle" x="292" y="-462.4" font-family="Times Roman,serif" font-size="14.00"> Value = 249.0</text>
</g>
<!-- 28 &#45; __Contains__&#45;&gt;30 &#45; Constant\n Value = 249.0 -->
<g id="edge64" class="edge"><title>28 &#45; __Contains__&#45;&gt;30 &#45; Constant\n Value = 249.0</title>
<path fill="none" stroke="black" d="M310.009,-542.339C307.933,-534.576 305.435,-525.234 302.969,-516.014"/>
<polygon fill="black" stroke="black" points="306.292,-514.893 300.327,-506.137 299.53,-516.702 306.292,-514.893"/>
</g>
<!-- 29 &#45; Constant\n Value = 439.304&#45;&gt;13 &#45; __Block_Outport__ -->
<g id="edge66" class="edge"><title>29 &#45; Constant\n Value = 439.304&#45;&gt;13 &#45; __Block_Outport__</title>
<path fill="none" stroke="black" d="M1133.31,-449.197C1158.88,-437.045 1189.08,-422.698 1213.57,-411.06"/>
<polygon fill="black" stroke="black" points="1215.13,-414.195 1222.66,-406.742 1212.13,-407.872 1215.13,-414.195"/>
</g>
<!-- 30 &#45; Constant\n Value = 249.0&#45;&gt;19 &#45; __Block_Outport__ -->
<g id="edge68" class="edge"><title>30 &#45; Constant\n Value = 249.0&#45;&gt;19 &#45; __Block_Outport__</title>
<path fill="none" stroke="black" d="M278.642,-443.952C274.822,-435.073 270.684,-425.455 266.954,-416.785"/>
<polygon fill="black" stroke="black" points="270.122,-415.291 262.954,-407.489 263.692,-418.058 270.122,-415.291"/>
</g>
</g>
</svg>
