<?xml version="1.0" encoding="UTF-8" standalone="no"?>
<!DOCTYPE svg PUBLIC "-//W3C//DTD SVG 1.1//EN"
 "http://www.w3.org/Graphics/SVG/1.1/DTD/svg11.dtd">
<!-- Generated by graphviz version 2.26.3 (20100126.1600)
 -->
<!-- Title: HConstfolding_opt_real Pages: 1 -->
<svg width="1198pt" height="2486pt"
 viewBox="0.00 0.00 1198.00 2486.00" xmlns="http://www.w3.org/2000/svg" xmlns:xlink="http://www.w3.org/1999/xlink">
<g id="graph1" class="graph" transform="scale(1 1) rotate(0) translate(4 2482)">
<title>HConstfolding_opt_real</title>
<polygon fill="white" stroke="white" points="-4,5 -4,-2482 1195,-2482 1195,5 -4,5"/>
<!-- 0 &#45; Outport -->
<g id="node1" class="node"><title>0 &#45; Outport</title>
<ellipse fill="#eedd82" stroke="black" cx="172" cy="-19" rx="67.1751" ry="18.3848"/>
<text text-anchor="middle" x="172" y="-15.4" font-family="Times Roman,serif" font-size="14.00">0 &#45; Outport</text>
</g>
<!-- 1 &#45; Product -->
<g id="node2" class="node"><title>1 &#45; Product</title>
<ellipse fill="lightblue" stroke="black" cx="598" cy="-1399" rx="67.1751" ry="18.3848"/>
<text text-anchor="middle" x="598" y="-1395.4" font-family="Times Roman,serif" font-size="14.00">1 &#45; Product</text>
</g>
<!-- 34 &#45; __Block_Outport__ -->
<g id="node35" class="node"><title>34 &#45; __Block_Outport__</title>
<ellipse fill="#b94a62" stroke="black" cx="598" cy="-1325" rx="126.072" ry="18.3848"/>
<text text-anchor="middle" x="598" y="-1321.4" font-family="Times Roman,serif" font-size="14.00">34 &#45; __Block_Outport__</text>
</g>
<!-- 1 &#45; Product&#45;&gt;34 &#45; __Block_Outport__ -->
<g id="edge2" class="edge"><title>1 &#45; Product&#45;&gt;34 &#45; __Block_Outport__</title>
<path fill="none" stroke="black" d="M598,-1380.33C598,-1372.26 598,-1362.65 598,-1353.71"/>
<polygon fill="black" stroke="black" points="601.5,-1353.67 598,-1343.67 594.5,-1353.67 601.5,-1353.67"/>
</g>
<!-- 2 &#45; SubSystem -->
<g id="node3" class="node"><title>2 &#45; SubSystem</title>
<ellipse fill="lightgreen" stroke="black" cx="478" cy="-2459" rx="84.8528" ry="18.3848"/>
<text text-anchor="middle" x="478" y="-2455.4" font-family="Times Roman,serif" font-size="14.00">2 &#45; SubSystem</text>
</g>
<!-- 21 &#45; __Contains__ -->
<g id="node22" class="node"><title>21 &#45; __Contains__</title>
<ellipse fill="lightgray" stroke="black" cx="354" cy="-1325" rx="99.9096" ry="18.3848"/>
<text text-anchor="middle" x="354" y="-1321.4" font-family="Times Roman,serif" font-size="14.00">21 &#45; __Contains__</text>
</g>
<!-- 2 &#45; SubSystem&#45;&gt;21 &#45; __Contains__ -->
<g id="edge18" class="edge"><title>2 &#45; SubSystem&#45;&gt;21 &#45; __Contains__</title>
<path fill="none" stroke="black" d="M424.551,-2444.58C361.165,-2423.85 264,-2379.02 264,-2299 264,-2299 264,-2299 264,-1473 264,-1424.35 299.947,-1378.08 326.405,-1350.61"/>
<polygon fill="black" stroke="black" points="329.022,-1352.94 333.578,-1343.38 324.051,-1348.01 329.022,-1352.94"/>
</g>
<!-- 22 &#45; __Contains__ -->
<g id="node23" class="node"><title>22 &#45; __Contains__</title>
<ellipse fill="lightgray" stroke="black" cx="99" cy="-1399" rx="99.201" ry="18.3848"/>
<text text-anchor="middle" x="99" y="-1395.4" font-family="Times Roman,serif" font-size="14.00">22 &#45; __Contains__</text>
</g>
<!-- 2 &#45; SubSystem&#45;&gt;22 &#45; __Contains__ -->
<g id="edge16" class="edge"><title>2 &#45; SubSystem&#45;&gt;22 &#45; __Contains__</title>
<path fill="none" stroke="black" d="M403.456,-2450.11C335.974,-2440.9 242.601,-2424.94 212,-2404 166.113,-2372.61 144,-2354.6 144,-2299 144,-2299 144,-2299 144,-1547 144,-1503.57 126.042,-1455.95 112.815,-1426.76"/>
<polygon fill="black" stroke="black" points="115.942,-1425.19 108.543,-1417.61 109.599,-1428.15 115.942,-1425.19"/>
</g>
<!-- 23 &#45; __Contains__ -->
<g id="node24" class="node"><title>23 &#45; __Contains__</title>
<ellipse fill="lightgray" stroke="black" cx="391" cy="-2299" rx="98.9949" ry="18.3848"/>
<text text-anchor="middle" x="391" y="-2295.4" font-family="Times Roman,serif" font-size="14.00">23 &#45; __Contains__</text>
</g>
<!-- 2 &#45; SubSystem&#45;&gt;23 &#45; __Contains__ -->
<g id="edge14" class="edge"><title>2 &#45; SubSystem&#45;&gt;23 &#45; __Contains__</title>
<path fill="none" stroke="black" d="M466.981,-2440.53C460.713,-2429.91 452.784,-2416.28 446,-2404 431.675,-2378.07 416.069,-2348.1 405.153,-2326.83"/>
<polygon fill="black" stroke="black" points="408.16,-2325.03 400.489,-2317.72 401.929,-2328.22 408.16,-2325.03"/>
</g>
<!-- 24 &#45; __Contains__ -->
<g id="node25" class="node"><title>24 &#45; __Contains__</title>
<ellipse fill="lightgray" stroke="black" cx="226" cy="-1251" rx="99.201" ry="18.3848"/>
<text text-anchor="middle" x="226" y="-1247.4" font-family="Times Roman,serif" font-size="14.00">24 &#45; __Contains__</text>
</g>
<!-- 2 &#45; SubSystem&#45;&gt;24 &#45; __Contains__ -->
<g id="edge12" class="edge"><title>2 &#45; SubSystem&#45;&gt;24 &#45; __Contains__</title>
<path fill="none" stroke="black" d="M401.672,-2450.58C364.026,-2443.26 319.787,-2429.57 287,-2404 244.445,-2370.81 226,-2352.97 226,-2299 226,-2299 226,-2299 226,-1399 226,-1357.58 226,-1309.64 226,-1279.81"/>
<polygon fill="black" stroke="black" points="229.5,-1279.69 226,-1269.69 222.5,-1279.69 229.5,-1279.69"/>
</g>
<!-- 25 &#45; __Contains__ -->
<g id="node26" class="node"><title>25 &#45; __Contains__</title>
<ellipse fill="lightgray" stroke="black" cx="554" cy="-2385" rx="99.201" ry="18.3848"/>
<text text-anchor="middle" x="554" y="-2381.4" font-family="Times Roman,serif" font-size="14.00">25 &#45; __Contains__</text>
</g>
<!-- 2 &#45; SubSystem&#45;&gt;25 &#45; __Contains__ -->
<g id="edge10" class="edge"><title>2 &#45; SubSystem&#45;&gt;25 &#45; __Contains__</title>
<path fill="none" stroke="black" d="M496.787,-2440.71C506.195,-2431.55 517.737,-2420.31 527.983,-2410.33"/>
<polygon fill="black" stroke="black" points="530.443,-2412.82 535.166,-2403.34 525.56,-2407.81 530.443,-2412.82"/>
</g>
<!-- 26 &#45; __Contains__ -->
<g id="node27" class="node"><title>26 &#45; __Contains__</title>
<ellipse fill="lightgray" stroke="black" cx="719" cy="-2139" rx="98.9949" ry="18.3848"/>
<text text-anchor="middle" x="719" y="-2135.4" font-family="Times Roman,serif" font-size="14.00">26 &#45; __Contains__</text>
</g>
<!-- 2 &#45; SubSystem&#45;&gt;26 &#45; __Contains__ -->
<g id="edge8" class="edge"><title>2 &#45; SubSystem&#45;&gt;26 &#45; __Contains__</title>
<path fill="none" stroke="black" d="M543.004,-2446.86C589.133,-2436.93 645.649,-2421.69 662,-2404 678.075,-2386.61 704.112,-2232.72 714.506,-2167.75"/>
<polygon fill="black" stroke="black" points="717.98,-2168.19 716.092,-2157.76 711.067,-2167.09 717.98,-2168.19"/>
</g>
<!-- 27 &#45; __Contains__ -->
<g id="node28" class="node"><title>27 &#45; __Contains__</title>
<ellipse fill="lightgray" stroke="black" cx="831" cy="-2385" rx="99.9096" ry="18.3848"/>
<text text-anchor="middle" x="831" y="-2381.4" font-family="Times Roman,serif" font-size="14.00">27 &#45; __Contains__</text>
</g>
<!-- 2 &#45; SubSystem&#45;&gt;27 &#45; __Contains__ -->
<g id="edge6" class="edge"><title>2 &#45; SubSystem&#45;&gt;27 &#45; __Contains__</title>
<path fill="none" stroke="black" d="M539.488,-2446.11C599.301,-2433.57 690.326,-2414.49 754.725,-2400.99"/>
<polygon fill="black" stroke="black" points="755.754,-2404.35 764.824,-2398.87 754.318,-2397.5 755.754,-2404.35"/>
</g>
<!-- 28 &#45; __Contains__ -->
<g id="node29" class="node"><title>28 &#45; __Contains__</title>
<ellipse fill="lightgray" stroke="black" cx="1091" cy="-2213" rx="98.9949" ry="18.3848"/>
<text text-anchor="middle" x="1091" y="-2209.4" font-family="Times Roman,serif" font-size="14.00">28 &#45; __Contains__</text>
</g>
<!-- 2 &#45; SubSystem&#45;&gt;28 &#45; __Contains__ -->
<g id="edge4" class="edge"><title>2 &#45; SubSystem&#45;&gt;28 &#45; __Contains__</title>
<path fill="none" stroke="black" d="M562.575,-2456.59C677.853,-2452.02 877.176,-2439.15 940,-2404 1007.9,-2366 1056.23,-2283.9 1078.02,-2240.76"/>
<polygon fill="black" stroke="black" points="1081.22,-2242.19 1082.51,-2231.68 1074.94,-2239.09 1081.22,-2242.19"/>
</g>
<!-- 3 &#45; UnitDelay -->
<g id="node4" class="node"><title>3 &#45; UnitDelay</title>
<ellipse fill="lightblue" stroke="black" cx="598" cy="-1843" rx="77.7817" ry="18.3848"/>
<text text-anchor="middle" x="598" y="-1839.4" font-family="Times Roman,serif" font-size="14.00">3 &#45; UnitDelay</text>
</g>
<!-- 39 &#45; __Block_Outport__ -->
<g id="node40" class="node"><title>39 &#45; __Block_Outport__</title>
<ellipse fill="#b94a62" stroke="black" cx="598" cy="-1769" rx="126.072" ry="18.3848"/>
<text text-anchor="middle" x="598" y="-1765.4" font-family="Times Roman,serif" font-size="14.00">39 &#45; __Block_Outport__</text>
</g>
<!-- 3 &#45; UnitDelay&#45;&gt;39 &#45; __Block_Outport__ -->
<g id="edge20" class="edge"><title>3 &#45; UnitDelay&#45;&gt;39 &#45; __Block_Outport__</title>
<path fill="none" stroke="black" d="M598,-1824.33C598,-1816.26 598,-1806.65 598,-1797.71"/>
<polygon fill="black" stroke="black" points="601.5,-1797.67 598,-1787.67 594.5,-1797.67 601.5,-1797.67"/>
</g>
<!-- 4 &#45; UnitDelay -->
<g id="node5" class="node"><title>4 &#45; UnitDelay</title>
<ellipse fill="lightblue" stroke="black" cx="931" cy="-1843" rx="77.7817" ry="18.3848"/>
<text text-anchor="middle" x="931" y="-1839.4" font-family="Times Roman,serif" font-size="14.00">4 &#45; UnitDelay</text>
</g>
<!-- 42 &#45; __Block_Outport__ -->
<g id="node43" class="node"><title>42 &#45; __Block_Outport__</title>
<ellipse fill="#b94a62" stroke="black" cx="900" cy="-1769" rx="126.78" ry="18.3848"/>
<text text-anchor="middle" x="900" y="-1765.4" font-family="Times Roman,serif" font-size="14.00">42 &#45; __Block_Outport__</text>
</g>
<!-- 4 &#45; UnitDelay&#45;&gt;42 &#45; __Block_Outport__ -->
<g id="edge22" class="edge"><title>4 &#45; UnitDelay&#45;&gt;42 &#45; __Block_Outport__</title>
<path fill="none" stroke="black" d="M923.177,-1824.33C919.726,-1816.09 915.596,-1806.23 911.784,-1797.13"/>
<polygon fill="black" stroke="black" points="914.912,-1795.54 907.82,-1787.67 908.456,-1798.24 914.912,-1795.54"/>
</g>
<!-- 5 &#45; Gain\n Gain = 1.0 -->
<g id="node6" class="node"><title>5 &#45; Gain\n Gain = 1.0</title>
<ellipse fill="lightblue" stroke="black" cx="380" cy="-943" rx="68.0887" ry="31.1127"/>
<text text-anchor="middle" x="380" y="-948.4" font-family="Times Roman,serif" font-size="14.00">5 &#45; Gain</text>
<text text-anchor="middle" x="380" y="-930.4" font-family="Times Roman,serif" font-size="14.00"> Gain = 1.0</text>
</g>
<!-- 30 &#45; __Block_Outport__ -->
<g id="node31" class="node"><title>30 &#45; __Block_Outport__</title>
<ellipse fill="#b94a62" stroke="black" cx="380" cy="-857" rx="126.072" ry="18.3848"/>
<text text-anchor="middle" x="380" y="-853.4" font-family="Times Roman,serif" font-size="14.00">30 &#45; __Block_Outport__</text>
</g>
<!-- 5 &#45; Gain\n Gain = 1.0&#45;&gt;30 &#45; __Block_Outport__ -->
<g id="edge24" class="edge"><title>5 &#45; Gain\n Gain = 1.0&#45;&gt;30 &#45; __Block_Outport__</title>
<path fill="none" stroke="black" d="M380,-911.952C380,-903.427 380,-894.221 380,-885.827"/>
<polygon fill="black" stroke="black" points="383.5,-885.74 380,-875.74 376.5,-885.74 383.5,-885.74"/>
</g>
<!-- 6 &#45; Gain\n Gain = 1.0 -->
<g id="node7" class="node"><title>6 &#45; Gain\n Gain = 1.0</title>
<ellipse fill="lightblue" stroke="black" cx="253" cy="-475" rx="68.0887" ry="31.1127"/>
<text text-anchor="middle" x="253" y="-480.4" font-family="Times Roman,serif" font-size="14.00">6 &#45; Gain</text>
<text text-anchor="middle" x="253" y="-462.4" font-family="Times Roman,serif" font-size="14.00"> Gain = 1.0</text>
</g>
<!-- 36 &#45; __Block_Outport__ -->
<g id="node37" class="node"><title>36 &#45; __Block_Outport__</title>
<ellipse fill="#b94a62" stroke="black" cx="253" cy="-389" rx="126.072" ry="18.3848"/>
<text text-anchor="middle" x="253" y="-385.4" font-family="Times Roman,serif" font-size="14.00">36 &#45; __Block_Outport__</text>
</g>
<!-- 6 &#45; Gain\n Gain = 1.0&#45;&gt;36 &#45; __Block_Outport__ -->
<g id="edge26" class="edge"><title>6 &#45; Gain\n Gain = 1.0&#45;&gt;36 &#45; __Block_Outport__</title>
<path fill="none" stroke="black" d="M253,-443.952C253,-435.427 253,-426.221 253,-417.827"/>
<polygon fill="black" stroke="black" points="256.5,-417.74 253,-407.74 249.5,-417.74 256.5,-417.74"/>
</g>
<!-- 7 &#45; Port_Input -->
<g id="node8" class="node"><title>7 &#45; Port_Input</title>
<ellipse fill="lightyellow" stroke="black" cx="546" cy="-1103" rx="79.9031" ry="18.3848"/>
<text text-anchor="middle" x="546" y="-1099.4" font-family="Times Roman,serif" font-size="14.00">7 &#45; Port_Input</text>
</g>
<!-- 29 &#45; __Block_Inport__ -->
<g id="node30" class="node"><title>29 &#45; __Block_Inport__</title>
<ellipse fill="#b94a62" stroke="black" cx="528" cy="-1029" rx="118.087" ry="18.3848"/>
<text text-anchor="middle" x="528" y="-1025.4" font-family="Times Roman,serif" font-size="14.00">29 &#45; __Block_Inport__</text>
</g>
<!-- 7 &#45; Port_Input&#45;&gt;29 &#45; __Block_Inport__ -->
<g id="edge28" class="edge"><title>7 &#45; Port_Input&#45;&gt;29 &#45; __Block_Inport__</title>
<path fill="none" stroke="black" d="M541.458,-1084.33C539.475,-1076.18 537.107,-1066.44 534.913,-1057.42"/>
<polygon fill="black" stroke="black" points="538.305,-1056.56 532.541,-1047.67 531.503,-1058.21 538.305,-1056.56"/>
</g>
<!-- 8 &#45; Port_Output -->
<g id="node9" class="node"><title>8 &#45; Port_Output</title>
<ellipse fill="coral" stroke="black" cx="379" cy="-783" rx="87.889" ry="18.3848"/>
<text text-anchor="middle" x="379" y="-779.4" font-family="Times Roman,serif" font-size="14.00">8 &#45; Port_Output</text>
</g>
<!-- 48 &#45; __Relation__ -->
<g id="node49" class="node"><title>48 &#45; __Relation__</title>
<ellipse fill="#f78465" stroke="black" cx="375" cy="-709" rx="96.8736" ry="18.3848"/>
<text text-anchor="middle" x="375" y="-705.4" font-family="Times Roman,serif" font-size="14.00">48 &#45; __Relation__</text>
</g>
<!-- 8 &#45; Port_Output&#45;&gt;48 &#45; __Relation__ -->
<g id="edge30" class="edge"><title>8 &#45; Port_Output&#45;&gt;48 &#45; __Relation__</title>
<path fill="none" stroke="black" d="M377.991,-764.327C377.555,-756.264 377.035,-746.648 376.552,-737.711"/>
<polygon fill="black" stroke="black" points="380.044,-737.464 376.009,-727.667 373.054,-737.842 380.044,-737.464"/>
</g>
<!-- 9 &#45; Port_Input -->
<g id="node10" class="node"><title>9 &#45; Port_Input</title>
<ellipse fill="lightyellow" stroke="black" cx="246" cy="-167" rx="79.196" ry="18.3848"/>
<text text-anchor="middle" x="246" y="-163.4" font-family="Times Roman,serif" font-size="14.00">9 &#45; Port_Input</text>
</g>
<!-- 31 &#45; __Block_Inport__ -->
<g id="node32" class="node"><title>31 &#45; __Block_Inport__</title>
<ellipse fill="#b94a62" stroke="black" cx="245" cy="-93" rx="118.087" ry="18.3848"/>
<text text-anchor="middle" x="245" y="-89.4" font-family="Times Roman,serif" font-size="14.00">31 &#45; __Block_Inport__</text>
</g>
<!-- 9 &#45; Port_Input&#45;&gt;31 &#45; __Block_Inport__ -->
<g id="edge32" class="edge"><title>9 &#45; Port_Input&#45;&gt;31 &#45; __Block_Inport__</title>
<path fill="none" stroke="black" d="M245.748,-148.327C245.639,-140.264 245.509,-130.648 245.388,-121.711"/>
<polygon fill="black" stroke="black" points="248.887,-121.619 245.252,-111.667 241.888,-121.714 248.887,-121.619"/>
</g>
<!-- 10 &#45; Port_Input -->
<g id="node11" class="node"><title>10 &#45; Port_Input</title>
<ellipse fill="lightyellow" stroke="black" cx="860" cy="-1547" rx="85.7684" ry="18.3848"/>
<text text-anchor="middle" x="860" y="-1543.4" font-family="Times Roman,serif" font-size="14.00">10 &#45; Port_Input</text>
</g>
<!-- 32 &#45; __Block_Inport__ -->
<g id="node33" class="node"><title>32 &#45; __Block_Inport__</title>
<ellipse fill="#b94a62" stroke="black" cx="854" cy="-1473" rx="118.087" ry="18.3848"/>
<text text-anchor="middle" x="854" y="-1469.4" font-family="Times Roman,serif" font-size="14.00">32 &#45; __Block_Inport__</text>
</g>
<!-- 10 &#45; Port_Input&#45;&gt;32 &#45; __Block_Inport__ -->
<g id="edge34" class="edge"><title>10 &#45; Port_Input&#45;&gt;32 &#45; __Block_Inport__</title>
<path fill="none" stroke="black" d="M858.486,-1528.33C857.832,-1520.26 857.053,-1510.65 856.328,-1501.71"/>
<polygon fill="black" stroke="black" points="859.81,-1501.35 855.514,-1491.67 852.833,-1501.92 859.81,-1501.35"/>
</g>
<!-- 11 &#45; Port_Input -->
<g id="node12" class="node"><title>11 &#45; Port_Input</title>
<ellipse fill="lightyellow" stroke="black" cx="598" cy="-1547" rx="86.9741" ry="18.3848"/>
<text text-anchor="middle" x="598" y="-1543.4" font-family="Times Roman,serif" font-size="14.00">11 &#45; Port_Input</text>
</g>
<!-- 33 &#45; __Block_Inport__ -->
<g id="node34" class="node"><title>33 &#45; __Block_Inport__</title>
<ellipse fill="#b94a62" stroke="black" cx="598" cy="-1473" rx="116.88" ry="18.3848"/>
<text text-anchor="middle" x="598" y="-1469.4" font-family="Times Roman,serif" font-size="14.00">33 &#45; __Block_Inport__</text>
</g>
<!-- 11 &#45; Port_Input&#45;&gt;33 &#45; __Block_Inport__ -->
<g id="edge36" class="edge"><title>11 &#45; Port_Input&#45;&gt;33 &#45; __Block_Inport__</title>
<path fill="none" stroke="black" d="M598,-1528.33C598,-1520.26 598,-1510.65 598,-1501.71"/>
<polygon fill="black" stroke="black" points="601.5,-1501.67 598,-1491.67 594.5,-1501.67 601.5,-1501.67"/>
</g>
<!-- 12 &#45; Port_Output -->
<g id="node13" class="node"><title>12 &#45; Port_Output</title>
<ellipse fill="coral" stroke="black" cx="590" cy="-1251" rx="94.9596" ry="18.3848"/>
<text text-anchor="middle" x="590" y="-1247.4" font-family="Times Roman,serif" font-size="14.00">12 &#45; Port_Output</text>
</g>
<!-- 47 &#45; __Relation__ -->
<g id="node48" class="node"><title>47 &#45; __Relation__</title>
<ellipse fill="#f78465" stroke="black" cx="582" cy="-1177" rx="97.0803" ry="18.3848"/>
<text text-anchor="middle" x="582" y="-1173.4" font-family="Times Roman,serif" font-size="14.00">47 &#45; __Relation__</text>
</g>
<!-- 12 &#45; Port_Output&#45;&gt;47 &#45; __Relation__ -->
<g id="edge38" class="edge"><title>12 &#45; Port_Output&#45;&gt;47 &#45; __Relation__</title>
<path fill="none" stroke="black" d="M587.981,-1232.33C587.11,-1224.26 586.07,-1214.65 585.104,-1205.71"/>
<polygon fill="black" stroke="black" points="588.573,-1205.23 584.018,-1195.67 581.613,-1205.99 588.573,-1205.23"/>
</g>
<!-- 13 &#45; Port_Input -->
<g id="node14" class="node"><title>13 &#45; Port_Input</title>
<ellipse fill="lightyellow" stroke="black" cx="373" cy="-635" rx="85.7684" ry="18.3848"/>
<text text-anchor="middle" x="373" y="-631.4" font-family="Times Roman,serif" font-size="14.00">13 &#45; Port_Input</text>
</g>
<!-- 35 &#45; __Block_Inport__ -->
<g id="node36" class="node"><title>35 &#45; __Block_Inport__</title>
<ellipse fill="#b94a62" stroke="black" cx="372" cy="-561" rx="118.087" ry="18.3848"/>
<text text-anchor="middle" x="372" y="-557.4" font-family="Times Roman,serif" font-size="14.00">35 &#45; __Block_Inport__</text>
</g>
<!-- 13 &#45; Port_Input&#45;&gt;35 &#45; __Block_Inport__ -->
<g id="edge40" class="edge"><title>13 &#45; Port_Input&#45;&gt;35 &#45; __Block_Inport__</title>
<path fill="none" stroke="black" d="M372.748,-616.327C372.639,-608.264 372.509,-598.648 372.388,-589.711"/>
<polygon fill="black" stroke="black" points="375.887,-589.619 372.252,-579.667 368.888,-589.714 375.887,-589.619"/>
</g>
<!-- 14 &#45; Port_Output -->
<g id="node15" class="node"><title>14 &#45; Port_Output</title>
<ellipse fill="coral" stroke="black" cx="252" cy="-315" rx="94.9596" ry="18.3848"/>
<text text-anchor="middle" x="252" y="-311.4" font-family="Times Roman,serif" font-size="14.00">14 &#45; Port_Output</text>
</g>
<!-- 46 &#45; __Relation__ -->
<g id="node47" class="node"><title>46 &#45; __Relation__</title>
<ellipse fill="#f78465" stroke="black" cx="248" cy="-241" rx="96.8736" ry="18.3848"/>
<text text-anchor="middle" x="248" y="-237.4" font-family="Times Roman,serif" font-size="14.00">46 &#45; __Relation__</text>
</g>
<!-- 14 &#45; Port_Output&#45;&gt;46 &#45; __Relation__ -->
<g id="edge42" class="edge"><title>14 &#45; Port_Output&#45;&gt;46 &#45; __Relation__</title>
<path fill="none" stroke="black" d="M250.991,-296.327C250.555,-288.264 250.035,-278.648 249.552,-269.711"/>
<polygon fill="black" stroke="black" points="253.044,-269.464 249.009,-259.667 246.054,-269.842 253.044,-269.464"/>
</g>
<!-- 15 &#45; Port_Output -->
<g id="node16" class="node"><title>15 &#45; Port_Output</title>
<ellipse fill="coral" stroke="black" cx="507" cy="-2139" rx="94.9596" ry="18.3848"/>
<text text-anchor="middle" x="507" y="-2135.4" font-family="Times Roman,serif" font-size="14.00">15 &#45; Port_Output</text>
</g>
<!-- 45 &#45; __Relation__ -->
<g id="node46" class="node"><title>45 &#45; __Relation__</title>
<ellipse fill="#f78465" stroke="black" cx="514" cy="-2065" rx="96.8736" ry="18.3848"/>
<text text-anchor="middle" x="514" y="-2061.4" font-family="Times Roman,serif" font-size="14.00">45 &#45; __Relation__</text>
</g>
<!-- 15 &#45; Port_Output&#45;&gt;45 &#45; __Relation__ -->
<g id="edge44" class="edge"><title>15 &#45; Port_Output&#45;&gt;45 &#45; __Relation__</title>
<path fill="none" stroke="black" d="M508.766,-2120.33C509.529,-2112.26 510.439,-2102.65 511.284,-2093.71"/>
<polygon fill="black" stroke="black" points="514.777,-2093.95 512.234,-2083.67 507.808,-2093.29 514.777,-2093.95"/>
</g>
<!-- 16 &#45; Port_Input -->
<g id="node17" class="node"><title>16 &#45; Port_Input</title>
<ellipse fill="lightyellow" stroke="black" cx="530" cy="-1991" rx="85.7684" ry="18.3848"/>
<text text-anchor="middle" x="530" y="-1987.4" font-family="Times Roman,serif" font-size="14.00">16 &#45; Port_Input</text>
</g>
<!-- 38 &#45; __Block_Inport__ -->
<g id="node39" class="node"><title>38 &#45; __Block_Inport__</title>
<ellipse fill="#b94a62" stroke="black" cx="562" cy="-1917" rx="116.88" ry="18.3848"/>
<text text-anchor="middle" x="562" y="-1913.4" font-family="Times Roman,serif" font-size="14.00">38 &#45; __Block_Inport__</text>
</g>
<!-- 16 &#45; Port_Input&#45;&gt;38 &#45; __Block_Inport__ -->
<g id="edge46" class="edge"><title>16 &#45; Port_Input&#45;&gt;38 &#45; __Block_Inport__</title>
<path fill="none" stroke="black" d="M538.075,-1972.33C541.637,-1964.09 545.901,-1954.23 549.836,-1945.13"/>
<polygon fill="black" stroke="black" points="553.171,-1946.24 553.928,-1935.67 546.746,-1943.46 553.171,-1946.24"/>
</g>
<!-- 17 &#45; Port_Output -->
<g id="node18" class="node"><title>17 &#45; Port_Output</title>
<ellipse fill="coral" stroke="black" cx="598" cy="-1695" rx="96.1665" ry="18.3848"/>
<text text-anchor="middle" x="598" y="-1691.4" font-family="Times Roman,serif" font-size="14.00">17 &#45; Port_Output</text>
</g>
<!-- 44 &#45; __Relation__ -->
<g id="node45" class="node"><title>44 &#45; __Relation__</title>
<ellipse fill="#f78465" stroke="black" cx="598" cy="-1621" rx="96.8736" ry="18.3848"/>
<text text-anchor="middle" x="598" y="-1617.4" font-family="Times Roman,serif" font-size="14.00">44 &#45; __Relation__</text>
</g>
<!-- 17 &#45; Port_Output&#45;&gt;44 &#45; __Relation__ -->
<g id="edge48" class="edge"><title>17 &#45; Port_Output&#45;&gt;44 &#45; __Relation__</title>
<path fill="none" stroke="black" d="M598,-1676.33C598,-1668.26 598,-1658.65 598,-1649.71"/>
<polygon fill="black" stroke="black" points="601.5,-1649.67 598,-1639.67 594.5,-1649.67 601.5,-1649.67"/>
</g>
<!-- 18 &#45; Port_Output -->
<g id="node19" class="node"><title>18 &#45; Port_Output</title>
<ellipse fill="coral" stroke="black" cx="931" cy="-2139" rx="94.7523" ry="18.3848"/>
<text text-anchor="middle" x="931" y="-2135.4" font-family="Times Roman,serif" font-size="14.00">18 &#45; Port_Output</text>
</g>
<!-- 43 &#45; __Relation__ -->
<g id="node44" class="node"><title>43 &#45; __Relation__</title>
<ellipse fill="#f78465" stroke="black" cx="931" cy="-2065" rx="96.8736" ry="18.3848"/>
<text text-anchor="middle" x="931" y="-2061.4" font-family="Times Roman,serif" font-size="14.00">43 &#45; __Relation__</text>
</g>
<!-- 18 &#45; Port_Output&#45;&gt;43 &#45; __Relation__ -->
<g id="edge50" class="edge"><title>18 &#45; Port_Output&#45;&gt;43 &#45; __Relation__</title>
<path fill="none" stroke="black" d="M931,-2120.33C931,-2112.26 931,-2102.65 931,-2093.71"/>
<polygon fill="black" stroke="black" points="934.5,-2093.67 931,-2083.67 927.5,-2093.67 934.5,-2093.67"/>
</g>
<!-- 19 &#45; Port_Input -->
<g id="node20" class="node"><title>19 &#45; Port_Input</title>
<ellipse fill="lightyellow" stroke="black" cx="931" cy="-1991" rx="85.7684" ry="18.3848"/>
<text text-anchor="middle" x="931" y="-1987.4" font-family="Times Roman,serif" font-size="14.00">19 &#45; Port_Input</text>
</g>
<!-- 41 &#45; __Block_Inport__ -->
<g id="node42" class="node"><title>41 &#45; __Block_Inport__</title>
<ellipse fill="#b94a62" stroke="black" cx="931" cy="-1917" rx="118.794" ry="18.3848"/>
<text text-anchor="middle" x="931" y="-1913.4" font-family="Times Roman,serif" font-size="14.00">41 &#45; __Block_Inport__</text>
</g>
<!-- 19 &#45; Port_Input&#45;&gt;41 &#45; __Block_Inport__ -->
<g id="edge52" class="edge"><title>19 &#45; Port_Input&#45;&gt;41 &#45; __Block_Inport__</title>
<path fill="none" stroke="black" d="M931,-1972.33C931,-1964.26 931,-1954.65 931,-1945.71"/>
<polygon fill="black" stroke="black" points="934.5,-1945.67 931,-1935.67 927.5,-1945.67 934.5,-1945.67"/>
</g>
<!-- 20 &#45; Port_Output -->
<g id="node21" class="node"><title>20 &#45; Port_Output</title>
<ellipse fill="coral" stroke="black" cx="876" cy="-1695" rx="94.7523" ry="18.3848"/>
<text text-anchor="middle" x="876" y="-1691.4" font-family="Times Roman,serif" font-size="14.00">20 &#45; Port_Output</text>
</g>
<!-- 49 &#45; __Relation__ -->
<g id="node50" class="node"><title>49 &#45; __Relation__</title>
<ellipse fill="#f78465" stroke="black" cx="872" cy="-1621" rx="96.8736" ry="18.3848"/>
<text text-anchor="middle" x="872" y="-1617.4" font-family="Times Roman,serif" font-size="14.00">49 &#45; __Relation__</text>
</g>
<!-- 20 &#45; Port_Output&#45;&gt;49 &#45; __Relation__ -->
<g id="edge54" class="edge"><title>20 &#45; Port_Output&#45;&gt;49 &#45; __Relation__</title>
<path fill="none" stroke="black" d="M874.991,-1676.33C874.555,-1668.26 874.035,-1658.65 873.552,-1649.71"/>
<polygon fill="black" stroke="black" points="877.044,-1649.46 873.009,-1639.67 870.054,-1649.84 877.044,-1649.46"/>
</g>
<!-- 21 &#45; __Contains__&#45;&gt;5 &#45; Gain\n Gain = 1.0 -->
<g id="edge56" class="edge"><title>21 &#45; __Contains__&#45;&gt;5 &#45; Gain\n Gain = 1.0</title>
<path fill="none" stroke="black" d="M356.694,-1306.36C360.501,-1278.34 367,-1223.69 367,-1177 367,-1177 367,-1177 367,-1103 367,-1062.51 371.187,-1016.45 374.808,-984.179"/>
<polygon fill="black" stroke="black" points="378.289,-984.546 375.958,-974.211 371.335,-983.744 378.289,-984.546"/>
</g>
<!-- 22 &#45; __Contains__&#45;&gt;0 &#45; Outport -->
<g id="edge58" class="edge"><title>22 &#45; __Contains__&#45;&gt;0 &#45; Outport</title>
<path fill="none" stroke="black" d="M99,-1380.31C99,-1352.23 99,-1297.51 99,-1251 99,-1251 99,-1251 99,-167 99,-124.813 98.1875,-111.245 118,-74 123.99,-62.7397 133.005,-52.2402 141.962,-43.4958"/>
<polygon fill="black" stroke="black" points="144.458,-45.9543 149.405,-36.5851 139.695,-40.8245 144.458,-45.9543"/>
</g>
<!-- 23 &#45; __Contains__&#45;&gt;1 &#45; Product -->
<g id="edge60" class="edge"><title>23 &#45; __Contains__&#45;&gt;1 &#45; Product</title>
<path fill="none" stroke="black" d="M389.65,-2280.29C387.616,-2250.43 384,-2190.16 384,-2139 384,-2139 384,-2139 384,-1547 384,-1472.5 472.821,-1432.56 536.018,-1413.58"/>
<polygon fill="black" stroke="black" points="537.292,-1416.85 545.923,-1410.71 535.344,-1410.13 537.292,-1416.85"/>
</g>
<!-- 24 &#45; __Contains__&#45;&gt;6 &#45; Gain\n Gain = 1.0 -->
<g id="edge62" class="edge"><title>24 &#45; __Contains__&#45;&gt;6 &#45; Gain\n Gain = 1.0</title>
<path fill="none" stroke="black" d="M226,-1232.31C226,-1204.23 226,-1149.51 226,-1103 226,-1103 226,-1103 226,-635 226,-594.075 234.695,-548.072 242.217,-515.934"/>
<polygon fill="black" stroke="black" points="245.668,-516.552 244.605,-506.011 238.862,-514.914 245.668,-516.552"/>
</g>
<!-- 50 &#45; Constant\n Value = 36.6 -->
<g id="node51" class="node"><title>50 &#45; Constant\n Value = 36.6</title>
<ellipse fill="lightblue" stroke="black" cx="587" cy="-2299" rx="79.196" ry="31.1127"/>
<text text-anchor="middle" x="587" y="-2304.4" font-family="Times Roman,serif" font-size="14.00">50 &#45; Constant</text>
<text text-anchor="middle" x="587" y="-2286.4" font-family="Times Roman,serif" font-size="14.00"> Value = 36.6</text>
</g>
<!-- 25 &#45; __Contains__&#45;&gt;50 &#45; Constant\n Value = 36.6 -->
<g id="edge64" class="edge"><title>25 &#45; __Contains__&#45;&gt;50 &#45; Constant\n Value = 36.6</title>
<path fill="none" stroke="black" d="M561.161,-2366.34C564.231,-2358.34 567.946,-2348.66 571.589,-2339.16"/>
<polygon fill="black" stroke="black" points="574.867,-2340.39 575.182,-2329.8 568.332,-2337.88 574.867,-2340.39"/>
</g>
<!-- 26 &#45; __Contains__&#45;&gt;3 &#45; UnitDelay -->
<g id="edge66" class="edge"><title>26 &#45; __Contains__&#45;&gt;3 &#45; UnitDelay</title>
<path fill="none" stroke="black" d="M721.708,-2120.26C726.927,-2077.14 734.119,-1969.15 688,-1898 678.597,-1883.49 663.89,-1872.21 649.069,-1863.74"/>
<polygon fill="black" stroke="black" points="650.343,-1860.45 639.873,-1858.82 647.044,-1866.62 650.343,-1860.45"/>
</g>
<!-- 51 &#45; Constant\n Value = 16.253 -->
<g id="node52" class="node"><title>51 &#45; Constant\n Value = 16.253</title>
<ellipse fill="lightblue" stroke="black" cx="840" cy="-2299" rx="92.1303" ry="31.1127"/>
<text text-anchor="middle" x="840" y="-2304.4" font-family="Times Roman,serif" font-size="14.00">51 &#45; Constant</text>
<text text-anchor="middle" x="840" y="-2286.4" font-family="Times Roman,serif" font-size="14.00"> Value = 16.253</text>
</g>
<!-- 27 &#45; __Contains__&#45;&gt;51 &#45; Constant\n Value = 16.253 -->
<g id="edge68" class="edge"><title>27 &#45; __Contains__&#45;&gt;51 &#45; Constant\n Value = 16.253</title>
<path fill="none" stroke="black" d="M832.953,-2366.34C833.757,-2358.66 834.722,-2349.43 835.677,-2340.31"/>
<polygon fill="black" stroke="black" points="839.182,-2340.45 836.741,-2330.14 832.22,-2339.72 839.182,-2340.45"/>
</g>
<!-- 28 &#45; __Contains__&#45;&gt;4 &#45; UnitDelay -->
<g id="edge70" class="edge"><title>28 &#45; __Contains__&#45;&gt;4 &#45; UnitDelay</title>
<path fill="none" stroke="black" d="M1089.55,-2194.32C1087.5,-2166.26 1084,-2111.56 1084,-2065 1084,-2065 1084,-2065 1084,-1991 1084,-1948.2 1087.02,-1930.35 1059,-1898 1043.21,-1879.76 1020.29,-1867.39 998.197,-1859.08"/>
<polygon fill="black" stroke="black" points="999.064,-1855.67 988.469,-1855.65 996.737,-1862.27 999.064,-1855.67"/>
</g>
<!-- 29 &#45; __Block_Inport__&#45;&gt;5 &#45; Gain\n Gain = 1.0 -->
<g id="edge72" class="edge"><title>29 &#45; __Block_Inport__&#45;&gt;5 &#45; Gain\n Gain = 1.0</title>
<path fill="none" stroke="black" d="M496.974,-1010.97C477.903,-999.889 453.003,-985.421 431.081,-972.682"/>
<polygon fill="black" stroke="black" points="432.618,-969.527 422.213,-967.529 429.101,-975.579 432.618,-969.527"/>
</g>
<!-- 30 &#45; __Block_Outport__&#45;&gt;8 &#45; Port_Output -->
<g id="edge74" class="edge"><title>30 &#45; __Block_Outport__&#45;&gt;8 &#45; Port_Output</title>
<path fill="none" stroke="black" d="M379.748,-838.327C379.639,-830.264 379.509,-820.648 379.388,-811.711"/>
<polygon fill="black" stroke="black" points="382.887,-811.619 379.252,-801.667 375.888,-811.714 382.887,-811.619"/>
</g>
<!-- 31 &#45; __Block_Inport__&#45;&gt;0 &#45; Outport -->
<g id="edge76" class="edge"><title>31 &#45; __Block_Inport__&#45;&gt;0 &#45; Outport</title>
<path fill="none" stroke="black" d="M226.955,-74.7079C217.938,-65.5674 206.882,-54.3599 197.057,-44.4"/>
<polygon fill="black" stroke="black" points="199.352,-41.7428 189.837,-37.0817 194.369,-46.6587 199.352,-41.7428"/>
</g>
<!-- 32 &#45; __Block_Inport__&#45;&gt;1 &#45; Product -->
<g id="edge78" class="edge"><title>32 &#45; __Block_Inport__&#45;&gt;1 &#45; Product</title>
<path fill="none" stroke="black" d="M797.503,-1456.67C754.882,-1444.35 696.689,-1427.53 654.153,-1415.23"/>
<polygon fill="black" stroke="black" points="655.091,-1411.86 644.513,-1412.45 653.147,-1418.58 655.091,-1411.86"/>
</g>
<!-- 33 &#45; __Block_Inport__&#45;&gt;1 &#45; Product -->
<g id="edge80" class="edge"><title>33 &#45; __Block_Inport__&#45;&gt;1 &#45; Product</title>
<path fill="none" stroke="black" d="M598,-1454.33C598,-1446.26 598,-1436.65 598,-1427.71"/>
<polygon fill="black" stroke="black" points="601.5,-1427.67 598,-1417.67 594.5,-1427.67 601.5,-1427.67"/>
</g>
<!-- 34 &#45; __Block_Outport__&#45;&gt;12 &#45; Port_Output -->
<g id="edge82" class="edge"><title>34 &#45; __Block_Outport__&#45;&gt;12 &#45; Port_Output</title>
<path fill="none" stroke="black" d="M595.981,-1306.33C595.11,-1298.26 594.07,-1288.65 593.104,-1279.71"/>
<polygon fill="black" stroke="black" points="596.573,-1279.23 592.018,-1269.67 589.613,-1279.99 596.573,-1279.23"/>
</g>
<!-- 35 &#45; __Block_Inport__&#45;&gt;6 &#45; Gain\n Gain = 1.0 -->
<g id="edge84" class="edge"><title>35 &#45; __Block_Inport__&#45;&gt;6 &#45; Gain\n Gain = 1.0</title>
<path fill="none" stroke="black" d="M346.763,-542.762C332.587,-532.517 314.475,-519.427 297.956,-507.489"/>
<polygon fill="black" stroke="black" points="299.647,-504.393 289.492,-501.373 295.547,-510.067 299.647,-504.393"/>
</g>
<!-- 36 &#45; __Block_Outport__&#45;&gt;14 &#45; Port_Output -->
<g id="edge86" class="edge"><title>36 &#45; __Block_Outport__&#45;&gt;14 &#45; Port_Output</title>
<path fill="none" stroke="black" d="M252.748,-370.327C252.639,-362.264 252.509,-352.648 252.388,-343.711"/>
<polygon fill="black" stroke="black" points="255.887,-343.619 252.252,-333.667 248.888,-343.714 255.887,-343.619"/>
</g>
<!-- 37 &#45; __Block_Outport__ -->
<g id="node38" class="node"><title>37 &#45; __Block_Outport__</title>
<ellipse fill="#b94a62" stroke="black" cx="539" cy="-2213" rx="126.78" ry="18.3848"/>
<text text-anchor="middle" x="539" y="-2209.4" font-family="Times Roman,serif" font-size="14.00">37 &#45; __Block_Outport__</text>
</g>
<!-- 37 &#45; __Block_Outport__&#45;&gt;15 &#45; Port_Output -->
<g id="edge88" class="edge"><title>37 &#45; __Block_Outport__&#45;&gt;15 &#45; Port_Output</title>
<path fill="none" stroke="black" d="M530.925,-2194.33C527.363,-2186.09 523.099,-2176.23 519.164,-2167.13"/>
<polygon fill="black" stroke="black" points="522.254,-2165.46 515.072,-2157.67 515.829,-2168.24 522.254,-2165.46"/>
</g>
<!-- 38 &#45; __Block_Inport__&#45;&gt;3 &#45; UnitDelay -->
<g id="edge90" class="edge"><title>38 &#45; __Block_Inport__&#45;&gt;3 &#45; UnitDelay</title>
<path fill="none" stroke="black" d="M571.084,-1898.33C575.166,-1889.94 580.065,-1879.87 584.559,-1870.63"/>
<polygon fill="black" stroke="black" points="587.816,-1871.93 589.043,-1861.41 581.521,-1868.87 587.816,-1871.93"/>
</g>
<!-- 39 &#45; __Block_Outport__&#45;&gt;17 &#45; Port_Output -->
<g id="edge92" class="edge"><title>39 &#45; __Block_Outport__&#45;&gt;17 &#45; Port_Output</title>
<path fill="none" stroke="black" d="M598,-1750.33C598,-1742.26 598,-1732.65 598,-1723.71"/>
<polygon fill="black" stroke="black" points="601.5,-1723.67 598,-1713.67 594.5,-1723.67 601.5,-1723.67"/>
</g>
<!-- 40 &#45; __Block_Outport__ -->
<g id="node41" class="node"><title>40 &#45; __Block_Outport__</title>
<ellipse fill="#b94a62" stroke="black" cx="848" cy="-2213" rx="126.072" ry="18.3848"/>
<text text-anchor="middle" x="848" y="-2209.4" font-family="Times Roman,serif" font-size="14.00">40 &#45; __Block_Outport__</text>
</g>
<!-- 40 &#45; __Block_Outport__&#45;&gt;18 &#45; Port_Output -->
<g id="edge94" class="edge"><title>40 &#45; __Block_Outport__&#45;&gt;18 &#45; Port_Output</title>
<path fill="none" stroke="black" d="M868.517,-2194.71C878.97,-2185.39 891.833,-2173.92 903.166,-2163.82"/>
<polygon fill="black" stroke="black" points="905.584,-2166.35 910.719,-2157.08 900.926,-2161.12 905.584,-2166.35"/>
</g>
<!-- 41 &#45; __Block_Inport__&#45;&gt;4 &#45; UnitDelay -->
<g id="edge96" class="edge"><title>41 &#45; __Block_Inport__&#45;&gt;4 &#45; UnitDelay</title>
<path fill="none" stroke="black" d="M931,-1898.33C931,-1890.26 931,-1880.65 931,-1871.71"/>
<polygon fill="black" stroke="black" points="934.5,-1871.67 931,-1861.67 927.5,-1871.67 934.5,-1871.67"/>
</g>
<!-- 42 &#45; __Block_Outport__&#45;&gt;20 &#45; Port_Output -->
<g id="edge98" class="edge"><title>42 &#45; __Block_Outport__&#45;&gt;20 &#45; Port_Output</title>
<path fill="none" stroke="black" d="M893.944,-1750.33C891.3,-1742.18 888.142,-1732.44 885.217,-1723.42"/>
<polygon fill="black" stroke="black" points="888.469,-1722.1 882.054,-1713.67 881.81,-1724.26 888.469,-1722.1"/>
</g>
<!-- 43 &#45; __Relation__&#45;&gt;19 &#45; Port_Input -->
<g id="edge100" class="edge"><title>43 &#45; __Relation__&#45;&gt;19 &#45; Port_Input</title>
<path fill="none" stroke="black" d="M931,-2046.33C931,-2038.26 931,-2028.65 931,-2019.71"/>
<polygon fill="black" stroke="black" points="934.5,-2019.67 931,-2009.67 927.5,-2019.67 934.5,-2019.67"/>
</g>
<!-- 44 &#45; __Relation__&#45;&gt;11 &#45; Port_Input -->
<g id="edge102" class="edge"><title>44 &#45; __Relation__&#45;&gt;11 &#45; Port_Input</title>
<path fill="none" stroke="black" d="M598,-1602.33C598,-1594.26 598,-1584.65 598,-1575.71"/>
<polygon fill="black" stroke="black" points="601.5,-1575.67 598,-1565.67 594.5,-1575.67 601.5,-1575.67"/>
</g>
<!-- 45 &#45; __Relation__&#45;&gt;16 &#45; Port_Input -->
<g id="edge104" class="edge"><title>45 &#45; __Relation__&#45;&gt;16 &#45; Port_Input</title>
<path fill="none" stroke="black" d="M518.037,-2046.33C519.781,-2038.26 521.86,-2028.65 523.792,-2019.71"/>
<polygon fill="black" stroke="black" points="527.271,-2020.18 525.964,-2009.67 520.429,-2018.7 527.271,-2020.18"/>
</g>
<!-- 46 &#45; __Relation__&#45;&gt;9 &#45; Port_Input -->
<g id="edge106" class="edge"><title>46 &#45; __Relation__&#45;&gt;9 &#45; Port_Input</title>
<path fill="none" stroke="black" d="M247.495,-222.327C247.277,-214.264 247.018,-204.648 246.776,-195.711"/>
<polygon fill="black" stroke="black" points="250.274,-195.569 246.505,-185.667 243.276,-195.758 250.274,-195.569"/>
</g>
<!-- 47 &#45; __Relation__&#45;&gt;7 &#45; Port_Input -->
<g id="edge108" class="edge"><title>47 &#45; __Relation__&#45;&gt;7 &#45; Port_Input</title>
<path fill="none" stroke="black" d="M572.916,-1158.33C568.834,-1149.94 563.935,-1139.87 559.441,-1130.63"/>
<polygon fill="black" stroke="black" points="562.479,-1128.87 554.957,-1121.41 556.184,-1131.93 562.479,-1128.87"/>
</g>
<!-- 48 &#45; __Relation__&#45;&gt;13 &#45; Port_Input -->
<g id="edge110" class="edge"><title>48 &#45; __Relation__&#45;&gt;13 &#45; Port_Input</title>
<path fill="none" stroke="black" d="M374.495,-690.327C374.277,-682.264 374.018,-672.648 373.776,-663.711"/>
<polygon fill="black" stroke="black" points="377.274,-663.569 373.505,-653.667 370.276,-663.758 377.274,-663.569"/>
</g>
<!-- 49 &#45; __Relation__&#45;&gt;10 &#45; Port_Input -->
<g id="edge112" class="edge"><title>49 &#45; __Relation__&#45;&gt;10 &#45; Port_Input</title>
<path fill="none" stroke="black" d="M868.972,-1602.33C867.664,-1594.26 866.105,-1584.65 864.656,-1575.71"/>
<polygon fill="black" stroke="black" points="868.083,-1574.98 863.027,-1565.67 861.173,-1576.1 868.083,-1574.98"/>
</g>
<!-- 50 &#45; Constant\n Value = 36.6&#45;&gt;37 &#45; __Block_Outport__ -->
<g id="edge114" class="edge"><title>50 &#45; Constant\n Value = 36.6&#45;&gt;37 &#45; __Block_Outport__</title>
<path fill="none" stroke="black" d="M569.942,-2268.44C564.822,-2259.26 559.241,-2249.27 554.246,-2240.32"/>
<polygon fill="black" stroke="black" points="557.227,-2238.48 549.297,-2231.45 551.115,-2241.89 557.227,-2238.48"/>
</g>
<!-- 51 &#45; Constant\n Value = 16.253&#45;&gt;40 &#45; __Block_Outport__ -->
<g id="edge116" class="edge"><title>51 &#45; Constant\n Value = 16.253&#45;&gt;40 &#45; __Block_Outport__</title>
<path fill="none" stroke="black" d="M842.888,-2267.95C843.681,-2259.43 844.538,-2250.22 845.318,-2241.83"/>
<polygon fill="black" stroke="black" points="848.815,-2242.02 846.257,-2231.74 841.845,-2241.37 848.815,-2242.02"/>
</g>
</g>
</svg>
