<?xml version="1.0" encoding="UTF-8" standalone="no"?>
<!DOCTYPE svg PUBLIC "-//W3C//DTD SVG 1.1//EN"
 "http://www.w3.org/Graphics/SVG/1.1/DTD/svg11.dtd">
<!-- Generated by graphviz version 2.26.3 (20100126.1600)
 -->
<!-- Title: HConst1 Pages: 1 -->
<svg width="1117pt" height="2042pt"
 viewBox="0.00 0.00 1117.00 2042.00" xmlns="http://www.w3.org/2000/svg" xmlns:xlink="http://www.w3.org/1999/xlink">
<g id="graph1" class="graph" transform="scale(1 1) rotate(0) translate(4 2038)">
<title>HConst1</title>
<polygon fill="white" stroke="white" points="-4,5 -4,-2038 1114,-2038 1114,5 -4,5"/>
<!-- 0 &#45; Outport -->
<g id="node1" class="node"><title>0 &#45; Outport</title>
<ellipse fill="#eedd82" stroke="black" cx="188" cy="-19" rx="67.1751" ry="18.3848"/>
<text text-anchor="middle" x="188" y="-15.4" font-family="Times Roman,serif" font-size="14.00">0 &#45; Outport</text>
</g>
<!-- 1 &#45; Product -->
<g id="node2" class="node"><title>1 &#45; Product</title>
<ellipse fill="lightblue" stroke="black" cx="429" cy="-907" rx="67.1751" ry="18.3848"/>
<text text-anchor="middle" x="429" y="-903.4" font-family="Times Roman,serif" font-size="14.00">1 &#45; Product</text>
</g>
<!-- 23 &#45; __Block_Outport__ -->
<g id="node24" class="node"><title>23 &#45; __Block_Outport__</title>
<ellipse fill="#b94a62" stroke="black" cx="438" cy="-833" rx="126.072" ry="18.3848"/>
<text text-anchor="middle" x="438" y="-829.4" font-family="Times Roman,serif" font-size="14.00">23 &#45; __Block_Outport__</text>
</g>
<!-- 1 &#45; Product&#45;&gt;23 &#45; __Block_Outport__ -->
<g id="edge2" class="edge"><title>1 &#45; Product&#45;&gt;23 &#45; __Block_Outport__</title>
<path fill="none" stroke="black" d="M431.271,-888.327C432.252,-880.264 433.421,-870.648 434.508,-861.711"/>
<polygon fill="black" stroke="black" points="437.997,-862.017 435.73,-851.667 431.048,-861.172 437.997,-862.017"/>
</g>
<!-- 2 &#45; Sum -->
<g id="node3" class="node"><title>2 &#45; Sum</title>
<ellipse fill="lightblue" stroke="black" cx="788" cy="-463" rx="50.2046" ry="18.3848"/>
<text text-anchor="middle" x="788" y="-459.4" font-family="Times Roman,serif" font-size="14.00">2 &#45; Sum</text>
</g>
<!-- 27 &#45; __Block_Outport__ -->
<g id="node28" class="node"><title>27 &#45; __Block_Outport__</title>
<ellipse fill="#b94a62" stroke="black" cx="774" cy="-389" rx="127.986" ry="18.3848"/>
<text text-anchor="middle" x="774" y="-385.4" font-family="Times Roman,serif" font-size="14.00">27 &#45; __Block_Outport__</text>
</g>
<!-- 2 &#45; Sum&#45;&gt;27 &#45; __Block_Outport__ -->
<g id="edge10" class="edge"><title>2 &#45; Sum&#45;&gt;27 &#45; __Block_Outport__</title>
<path fill="none" stroke="black" d="M784.467,-444.327C782.942,-436.264 781.123,-426.648 779.432,-417.711"/>
<polygon fill="black" stroke="black" points="782.83,-416.842 777.532,-407.667 775.952,-418.144 782.83,-416.842"/>
</g>
<!-- 3 &#45; Inport -->
<g id="node4" class="node"><title>3 &#45; Inport</title>
<ellipse fill="#eedd82" stroke="black" cx="899" cy="-1757" rx="57.9828" ry="18.3848"/>
<text text-anchor="middle" x="899" y="-1753.4" font-family="Times Roman,serif" font-size="14.00">3 &#45; Inport</text>
</g>
<!-- 28 &#45; __Block_Outport__ -->
<g id="node29" class="node"><title>28 &#45; __Block_Outport__</title>
<ellipse fill="#b94a62" stroke="black" cx="901" cy="-1671" rx="126.072" ry="18.3848"/>
<text text-anchor="middle" x="901" y="-1667.4" font-family="Times Roman,serif" font-size="14.00">28 &#45; __Block_Outport__</text>
</g>
<!-- 3 &#45; Inport&#45;&gt;28 &#45; __Block_Outport__ -->
<g id="edge14" class="edge"><title>3 &#45; Inport&#45;&gt;28 &#45; __Block_Outport__</title>
<path fill="none" stroke="black" d="M899.434,-1738.34C899.696,-1727.07 900.035,-1712.47 900.331,-1699.75"/>
<polygon fill="black" stroke="black" points="903.833,-1699.7 900.567,-1689.62 896.835,-1699.54 903.833,-1699.7"/>
</g>
<!-- 4 &#45; Gain\n Gain = 5.0 -->
<g id="node5" class="node"><title>4 &#45; Gain\n Gain = 5.0</title>
<ellipse fill="lightblue" stroke="black" cx="614" cy="-1363" rx="67.8823" ry="31.1127"/>
<text text-anchor="middle" x="614" y="-1368.4" font-family="Times Roman,serif" font-size="14.00">4 &#45; Gain</text>
<text text-anchor="middle" x="614" y="-1350.4" font-family="Times Roman,serif" font-size="14.00"> Gain = 5.0</text>
</g>
<!-- 30 &#45; __Block_Outport__ -->
<g id="node31" class="node"><title>30 &#45; __Block_Outport__</title>
<ellipse fill="#b94a62" stroke="black" cx="614" cy="-1277" rx="126.072" ry="18.3848"/>
<text text-anchor="middle" x="614" y="-1273.4" font-family="Times Roman,serif" font-size="14.00">30 &#45; __Block_Outport__</text>
</g>
<!-- 4 &#45; Gain\n Gain = 5.0&#45;&gt;30 &#45; __Block_Outport__ -->
<g id="edge18" class="edge"><title>4 &#45; Gain\n Gain = 5.0&#45;&gt;30 &#45; __Block_Outport__</title>
<path fill="none" stroke="black" d="M614,-1331.95C614,-1323.43 614,-1314.22 614,-1305.83"/>
<polygon fill="black" stroke="black" points="617.5,-1305.74 614,-1295.74 610.5,-1305.74 617.5,-1305.74"/>
</g>
<!-- 5 &#45; SubSystem -->
<g id="node6" class="node"><title>5 &#45; SubSystem</title>
<ellipse fill="lightgreen" stroke="black" cx="508" cy="-2015" rx="84.8528" ry="18.3848"/>
<text text-anchor="middle" x="508" y="-2011.4" font-family="Times Roman,serif" font-size="14.00">5 &#45; SubSystem</text>
</g>
<!-- 38 &#45; __Contains__ -->
<g id="node39" class="node"><title>38 &#45; __Contains__</title>
<ellipse fill="lightgray" stroke="black" cx="99" cy="-1277" rx="98.9949" ry="18.3848"/>
<text text-anchor="middle" x="99" y="-1273.4" font-family="Times Roman,serif" font-size="14.00">38 &#45; __Contains__</text>
</g>
<!-- 5 &#45; SubSystem&#45;&gt;38 &#45; __Contains__ -->
<g id="edge26" class="edge"><title>5 &#45; SubSystem&#45;&gt;38 &#45; __Contains__</title>
<path fill="none" stroke="black" d="M430.06,-2007.53C354.69,-1999.08 246.911,-1983.37 212,-1960 165.798,-1929.07 144,-1910.6 144,-1855 144,-1855 144,-1855 144,-1449 144,-1396.97 124.49,-1338.89 111.163,-1305.28"/>
<polygon fill="black" stroke="black" points="114.264,-1303.61 107.254,-1295.67 107.78,-1306.25 114.264,-1303.61"/>
</g>
<!-- 39 &#45; __Contains__ -->
<g id="node40" class="node"><title>39 &#45; __Contains__</title>
<ellipse fill="lightgray" stroke="black" cx="228" cy="-1203" rx="98.9949" ry="18.3848"/>
<text text-anchor="middle" x="228" y="-1199.4" font-family="Times Roman,serif" font-size="14.00">39 &#45; __Contains__</text>
</g>
<!-- 5 &#45; SubSystem&#45;&gt;39 &#45; __Contains__ -->
<g id="edge30" class="edge"><title>5 &#45; SubSystem&#45;&gt;39 &#45; __Contains__</title>
<path fill="none" stroke="black" d="M434.644,-2005.5C351.089,-1990.08 226,-1950.97 226,-1855 226,-1855 226,-1855 226,-1363 226,-1317.08 226.834,-1263.74 227.425,-1231.72"/>
<polygon fill="black" stroke="black" points="230.924,-1231.78 227.614,-1221.72 223.925,-1231.65 230.924,-1231.78"/>
</g>
<!-- 40 &#45; __Contains__ -->
<g id="node41" class="node"><title>40 &#45; __Contains__</title>
<ellipse fill="lightgray" stroke="black" cx="724" cy="-1941" rx="98.9949" ry="18.3848"/>
<text text-anchor="middle" x="724" y="-1937.4" font-family="Times Roman,serif" font-size="14.00">40 &#45; __Contains__</text>
</g>
<!-- 5 &#45; SubSystem&#45;&gt;40 &#45; __Contains__ -->
<g id="edge34" class="edge"><title>5 &#45; SubSystem&#45;&gt;40 &#45; __Contains__</title>
<path fill="none" stroke="black" d="M553.808,-1999.31C586.748,-1988.02 631.396,-1972.73 666.698,-1960.63"/>
<polygon fill="black" stroke="black" points="668.063,-1963.86 676.389,-1957.31 665.794,-1957.24 668.063,-1963.86"/>
</g>
<!-- 41 &#45; __Contains__ -->
<g id="node42" class="node"><title>41 &#45; __Contains__</title>
<ellipse fill="lightgray" stroke="black" cx="1009" cy="-1055" rx="99.9096" ry="18.3848"/>
<text text-anchor="middle" x="1009" y="-1051.4" font-family="Times Roman,serif" font-size="14.00">41 &#45; __Contains__</text>
</g>
<!-- 5 &#45; SubSystem&#45;&gt;41 &#45; __Contains__ -->
<g id="edge38" class="edge"><title>5 &#45; SubSystem&#45;&gt;41 &#45; __Contains__</title>
<path fill="none" stroke="black" d="M587.538,-2008.39C739.248,-1993.59 1055,-1951.22 1055,-1855 1055,-1855 1055,-1855 1055,-1203 1055,-1159.49 1036.64,-1111.89 1023.12,-1082.73"/>
<polygon fill="black" stroke="black" points="1026.22,-1081.1 1018.76,-1073.58 1019.9,-1084.11 1026.22,-1081.1"/>
</g>
<!-- 42 &#45; __Contains__ -->
<g id="node43" class="node"><title>42 &#45; __Contains__</title>
<ellipse fill="lightgray" stroke="black" cx="898" cy="-1855" rx="99.201" ry="18.3848"/>
<text text-anchor="middle" x="898" y="-1851.4" font-family="Times Roman,serif" font-size="14.00">42 &#45; __Contains__</text>
</g>
<!-- 5 &#45; SubSystem&#45;&gt;42 &#45; __Contains__ -->
<g id="edge42" class="edge"><title>5 &#45; SubSystem&#45;&gt;42 &#45; __Contains__</title>
<path fill="none" stroke="black" d="M588.385,-2008.86C671.068,-2001.25 793.096,-1985.99 832,-1960 859.539,-1941.61 877.811,-1907.41 888.01,-1883.04"/>
<polygon fill="black" stroke="black" points="891.323,-1884.18 891.769,-1873.6 884.82,-1881.59 891.323,-1884.18"/>
</g>
<!-- 43 &#45; __Contains__ -->
<g id="node44" class="node"><title>43 &#45; __Contains__</title>
<ellipse fill="lightgray" stroke="black" cx="508" cy="-1941" rx="98.9949" ry="18.3848"/>
<text text-anchor="middle" x="508" y="-1937.4" font-family="Times Roman,serif" font-size="14.00">43 &#45; __Contains__</text>
</g>
<!-- 5 &#45; SubSystem&#45;&gt;43 &#45; __Contains__ -->
<g id="edge46" class="edge"><title>5 &#45; SubSystem&#45;&gt;43 &#45; __Contains__</title>
<path fill="none" stroke="black" d="M508,-1996.33C508,-1988.26 508,-1978.65 508,-1969.71"/>
<polygon fill="black" stroke="black" points="511.5,-1969.67 508,-1959.67 504.5,-1969.67 511.5,-1969.67"/>
</g>
<!-- 44 &#45; __Contains__ -->
<g id="node45" class="node"><title>44 &#45; __Contains__</title>
<ellipse fill="lightgray" stroke="black" cx="381" cy="-1855" rx="99.201" ry="18.3848"/>
<text text-anchor="middle" x="381" y="-1851.4" font-family="Times Roman,serif" font-size="14.00">44 &#45; __Contains__</text>
</g>
<!-- 5 &#45; SubSystem&#45;&gt;44 &#45; __Contains__ -->
<g id="edge50" class="edge"><title>5 &#45; SubSystem&#45;&gt;44 &#45; __Contains__</title>
<path fill="none" stroke="black" d="M456.719,-2000.09C436.092,-1991.57 413.937,-1978.74 400,-1960 383.682,-1938.06 379.865,-1906.5 379.559,-1883.72"/>
<polygon fill="black" stroke="black" points="383.059,-1883.66 379.641,-1873.63 376.059,-1883.6 383.059,-1883.66"/>
</g>
<!-- 6 &#45; Constant\n Value = 12.34 -->
<g id="node7" class="node"><title>6 &#45; Constant\n Value = 12.34</title>
<ellipse fill="lightblue" stroke="black" cx="694" cy="-1855" rx="85.7684" ry="31.1127"/>
<text text-anchor="middle" x="694" y="-1860.4" font-family="Times Roman,serif" font-size="14.00">6 &#45; Constant</text>
<text text-anchor="middle" x="694" y="-1842.4" font-family="Times Roman,serif" font-size="14.00"> Value = 12.34</text>
</g>
<!-- 24 &#45; __Block_Outport__ -->
<g id="node25" class="node"><title>24 &#45; __Block_Outport__</title>
<ellipse fill="#b94a62" stroke="black" cx="693" cy="-1757" rx="126.78" ry="18.3848"/>
<text text-anchor="middle" x="693" y="-1753.4" font-family="Times Roman,serif" font-size="14.00">24 &#45; __Block_Outport__</text>
</g>
<!-- 6 &#45; Constant\n Value = 12.34&#45;&gt;24 &#45; __Block_Outport__ -->
<g id="edge6" class="edge"><title>6 &#45; Constant\n Value = 12.34&#45;&gt;24 &#45; __Block_Outport__</title>
<path fill="none" stroke="black" d="M693.684,-1823.99C693.559,-1811.8 693.417,-1797.88 693.295,-1785.9"/>
<polygon fill="black" stroke="black" points="696.791,-1785.51 693.189,-1775.55 689.792,-1785.58 696.791,-1785.51"/>
</g>
<!-- 7 &#45; Constant\n Value = 7.12 -->
<g id="node8" class="node"><title>7 &#45; Constant\n Value = 7.12</title>
<ellipse fill="lightblue" stroke="black" cx="381" cy="-1757" rx="80.8184" ry="31.1127"/>
<text text-anchor="middle" x="381" y="-1762.4" font-family="Times Roman,serif" font-size="14.00">7 &#45; Constant</text>
<text text-anchor="middle" x="381" y="-1744.4" font-family="Times Roman,serif" font-size="14.00"> Value = 7.12</text>
</g>
<!-- 31 &#45; __Block_Outport__ -->
<g id="node32" class="node"><title>31 &#45; __Block_Outport__</title>
<ellipse fill="#b94a62" stroke="black" cx="381" cy="-1671" rx="126.78" ry="18.3848"/>
<text text-anchor="middle" x="381" y="-1667.4" font-family="Times Roman,serif" font-size="14.00">31 &#45; __Block_Outport__</text>
</g>
<!-- 7 &#45; Constant\n Value = 7.12&#45;&gt;31 &#45; __Block_Outport__ -->
<g id="edge22" class="edge"><title>7 &#45; Constant\n Value = 7.12&#45;&gt;31 &#45; __Block_Outport__</title>
<path fill="none" stroke="black" d="M381,-1725.95C381,-1717.43 381,-1708.22 381,-1699.83"/>
<polygon fill="black" stroke="black" points="384.5,-1699.74 381,-1689.74 377.5,-1699.74 384.5,-1699.74"/>
</g>
<!-- 8 &#45; Port_Input -->
<g id="node9" class="node"><title>8 &#45; Port_Input</title>
<ellipse fill="lightyellow" stroke="black" cx="334" cy="-167" rx="79.196" ry="18.3848"/>
<text text-anchor="middle" x="334" y="-163.4" font-family="Times Roman,serif" font-size="14.00">8 &#45; Port_Input</text>
</g>
<!-- 20 &#45; __Block_Inport__ -->
<g id="node21" class="node"><title>20 &#45; __Block_Inport__</title>
<ellipse fill="#b94a62" stroke="black" cx="276" cy="-93" rx="118.087" ry="18.3848"/>
<text text-anchor="middle" x="276" y="-89.4" font-family="Times Roman,serif" font-size="14.00">20 &#45; __Block_Inport__</text>
</g>
<!-- 8 &#45; Port_Input&#45;&gt;20 &#45; __Block_Inport__ -->
<g id="edge80" class="edge"><title>8 &#45; Port_Input&#45;&gt;20 &#45; __Block_Inport__</title>
<path fill="none" stroke="black" d="M319.663,-148.708C312.813,-139.969 304.483,-129.34 296.942,-119.719"/>
<polygon fill="black" stroke="black" points="299.499,-117.307 290.575,-111.596 293.989,-121.625 299.499,-117.307"/>
</g>
<!-- 9 &#45; Port_Input -->
<g id="node10" class="node"><title>9 &#45; Port_Input</title>
<ellipse fill="lightyellow" stroke="black" cx="381" cy="-1449" rx="79.196" ry="18.3848"/>
<text text-anchor="middle" x="381" y="-1445.4" font-family="Times Roman,serif" font-size="14.00">9 &#45; Port_Input</text>
</g>
<!-- 21 &#45; __Block_Inport__ -->
<g id="node22" class="node"><title>21 &#45; __Block_Inport__</title>
<ellipse fill="#b94a62" stroke="black" cx="381" cy="-1129" rx="118.794" ry="18.3848"/>
<text text-anchor="middle" x="381" y="-1125.4" font-family="Times Roman,serif" font-size="14.00">21 &#45; __Block_Inport__</text>
</g>
<!-- 9 &#45; Port_Input&#45;&gt;21 &#45; __Block_Inport__ -->
<g id="edge84" class="edge"><title>9 &#45; Port_Input&#45;&gt;21 &#45; __Block_Inport__</title>
<path fill="none" stroke="black" d="M381,-1430.41C381,-1376.95 381,-1222.48 381,-1157.91"/>
<polygon fill="black" stroke="black" points="384.5,-1157.64 381,-1147.64 377.5,-1157.64 384.5,-1157.64"/>
</g>
<!-- 10 &#45; Port_Input -->
<g id="node11" class="node"><title>10 &#45; Port_Input</title>
<ellipse fill="lightyellow" stroke="black" cx="603" cy="-1055" rx="85.7684" ry="18.3848"/>
<text text-anchor="middle" x="603" y="-1051.4" font-family="Times Roman,serif" font-size="14.00">10 &#45; Port_Input</text>
</g>
<!-- 22 &#45; __Block_Inport__ -->
<g id="node23" class="node"><title>22 &#45; __Block_Inport__</title>
<ellipse fill="#b94a62" stroke="black" cx="581" cy="-981" rx="118.087" ry="18.3848"/>
<text text-anchor="middle" x="581" y="-977.4" font-family="Times Roman,serif" font-size="14.00">22 &#45; __Block_Inport__</text>
</g>
<!-- 10 &#45; Port_Input&#45;&gt;22 &#45; __Block_Inport__ -->
<g id="edge88" class="edge"><title>10 &#45; Port_Input&#45;&gt;22 &#45; __Block_Inport__</title>
<path fill="none" stroke="black" d="M597.448,-1036.33C595.025,-1028.18 592.13,-1018.44 589.449,-1009.42"/>
<polygon fill="black" stroke="black" points="592.754,-1008.26 586.55,-999.667 586.045,-1010.25 592.754,-1008.26"/>
</g>
<!-- 11 &#45; Port_Output -->
<g id="node12" class="node"><title>11 &#45; Port_Output</title>
<ellipse fill="coral" stroke="black" cx="456" cy="-759" rx="96.1665" ry="18.3848"/>
<text text-anchor="middle" x="456" y="-755.4" font-family="Times Roman,serif" font-size="14.00">11 &#45; Port_Output</text>
</g>
<!-- 35 &#45; __Relation__ -->
<g id="node36" class="node"><title>35 &#45; __Relation__</title>
<ellipse fill="#f78465" stroke="black" cx="492" cy="-685" rx="96.8736" ry="18.3848"/>
<text text-anchor="middle" x="492" y="-681.4" font-family="Times Roman,serif" font-size="14.00">35 &#45; __Relation__</text>
</g>
<!-- 11 &#45; Port_Output&#45;&gt;35 &#45; __Relation__ -->
<g id="edge66" class="edge"><title>11 &#45; Port_Output&#45;&gt;35 &#45; __Relation__</title>
<path fill="none" stroke="black" d="M465.084,-740.327C469.135,-732.001 473.991,-722.019 478.456,-712.84"/>
<polygon fill="black" stroke="black" points="481.691,-714.191 482.919,-703.667 475.397,-711.129 481.691,-714.191"/>
</g>
<!-- 12 &#45; Port_Output -->
<g id="node13" class="node"><title>12 &#45; Port_Output</title>
<ellipse fill="coral" stroke="black" cx="662" cy="-1671" rx="94.9596" ry="18.3848"/>
<text text-anchor="middle" x="662" y="-1667.4" font-family="Times Roman,serif" font-size="14.00">12 &#45; Port_Output</text>
</g>
<!-- 34 &#45; __Relation__ -->
<g id="node35" class="node"><title>34 &#45; __Relation__</title>
<ellipse fill="#f78465" stroke="black" cx="667" cy="-1597" rx="96.8736" ry="18.3848"/>
<text text-anchor="middle" x="667" y="-1593.4" font-family="Times Roman,serif" font-size="14.00">34 &#45; __Relation__</text>
</g>
<!-- 12 &#45; Port_Output&#45;&gt;34 &#45; __Relation__ -->
<g id="edge62" class="edge"><title>12 &#45; Port_Output&#45;&gt;34 &#45; __Relation__</title>
<path fill="none" stroke="black" d="M663.262,-1652.33C663.806,-1644.26 664.456,-1634.65 665.06,-1625.71"/>
<polygon fill="black" stroke="black" points="668.556,-1625.88 665.739,-1615.67 661.572,-1625.41 668.556,-1625.88"/>
</g>
<!-- 13 &#45; Port_Input -->
<g id="node14" class="node"><title>13 &#45; Port_Input</title>
<ellipse fill="lightyellow" stroke="black" cx="904" cy="-1449" rx="85.7684" ry="18.3848"/>
<text text-anchor="middle" x="904" y="-1445.4" font-family="Times Roman,serif" font-size="14.00">13 &#45; Port_Input</text>
</g>
<!-- 25 &#45; __Block_Inport__ -->
<g id="node26" class="node"><title>25 &#45; __Block_Inport__</title>
<ellipse fill="#b94a62" stroke="black" cx="880" cy="-1363" rx="118.087" ry="18.3848"/>
<text text-anchor="middle" x="880" y="-1359.4" font-family="Times Roman,serif" font-size="14.00">25 &#45; __Block_Inport__</text>
</g>
<!-- 13 &#45; Port_Input&#45;&gt;25 &#45; __Block_Inport__ -->
<g id="edge92" class="edge"><title>13 &#45; Port_Input&#45;&gt;25 &#45; __Block_Inport__</title>
<path fill="none" stroke="black" d="M898.792,-1430.34C895.616,-1418.96 891.493,-1404.18 887.918,-1391.37"/>
<polygon fill="black" stroke="black" points="891.257,-1390.32 885.197,-1381.62 884.514,-1392.2 891.257,-1390.32"/>
</g>
<!-- 14 &#45; Port_Input -->
<g id="node15" class="node"><title>14 &#45; Port_Input</title>
<ellipse fill="lightyellow" stroke="black" cx="637" cy="-611" rx="85.7684" ry="18.3848"/>
<text text-anchor="middle" x="637" y="-607.4" font-family="Times Roman,serif" font-size="14.00">14 &#45; Port_Input</text>
</g>
<!-- 26 &#45; __Block_Inport__ -->
<g id="node27" class="node"><title>26 &#45; __Block_Inport__</title>
<ellipse fill="#b94a62" stroke="black" cx="709" cy="-537" rx="118.087" ry="18.3848"/>
<text text-anchor="middle" x="709" y="-533.4" font-family="Times Roman,serif" font-size="14.00">26 &#45; __Block_Inport__</text>
</g>
<!-- 14 &#45; Port_Input&#45;&gt;26 &#45; __Block_Inport__ -->
<g id="edge96" class="edge"><title>14 &#45; Port_Input&#45;&gt;26 &#45; __Block_Inport__</title>
<path fill="none" stroke="black" d="M654.798,-592.708C663.625,-583.636 674.433,-572.527 684.069,-562.623"/>
<polygon fill="black" stroke="black" points="686.692,-564.946 691.157,-555.338 681.675,-560.065 686.692,-564.946"/>
</g>
<!-- 15 &#45; Port_Output -->
<g id="node16" class="node"><title>15 &#45; Port_Output</title>
<ellipse fill="coral" stroke="black" cx="680" cy="-315" rx="94.9596" ry="18.3848"/>
<text text-anchor="middle" x="680" y="-311.4" font-family="Times Roman,serif" font-size="14.00">15 &#45; Port_Output</text>
</g>
<!-- 32 &#45; __Relation__ -->
<g id="node33" class="node"><title>32 &#45; __Relation__</title>
<ellipse fill="#f78465" stroke="black" cx="449" cy="-241" rx="96.8736" ry="18.3848"/>
<text text-anchor="middle" x="449" y="-237.4" font-family="Times Roman,serif" font-size="14.00">32 &#45; __Relation__</text>
</g>
<!-- 15 &#45; Port_Output&#45;&gt;32 &#45; __Relation__ -->
<g id="edge54" class="edge"><title>15 &#45; Port_Output&#45;&gt;32 &#45; __Relation__</title>
<path fill="none" stroke="black" d="M630.445,-299.125C594.788,-287.703 546.522,-272.241 508.734,-260.136"/>
<polygon fill="black" stroke="black" points="509.462,-256.694 498.871,-256.976 507.327,-263.36 509.462,-256.694"/>
</g>
<!-- 16 &#45; Port_Output -->
<g id="node17" class="node"><title>16 &#45; Port_Output</title>
<ellipse fill="coral" stroke="black" cx="901" cy="-1597" rx="94.7523" ry="18.3848"/>
<text text-anchor="middle" x="901" y="-1593.4" font-family="Times Roman,serif" font-size="14.00">16 &#45; Port_Output</text>
</g>
<!-- 36 &#45; __Relation__ -->
<g id="node37" class="node"><title>36 &#45; __Relation__</title>
<ellipse fill="#f78465" stroke="black" cx="903" cy="-1523" rx="96.1665" ry="18.3848"/>
<text text-anchor="middle" x="903" y="-1519.4" font-family="Times Roman,serif" font-size="14.00">36 &#45; __Relation__</text>
</g>
<!-- 16 &#45; Port_Output&#45;&gt;36 &#45; __Relation__ -->
<g id="edge70" class="edge"><title>16 &#45; Port_Output&#45;&gt;36 &#45; __Relation__</title>
<path fill="none" stroke="black" d="M901.505,-1578.33C901.723,-1570.26 901.982,-1560.65 902.224,-1551.71"/>
<polygon fill="black" stroke="black" points="905.724,-1551.76 902.495,-1541.67 898.726,-1551.57 905.724,-1551.76"/>
</g>
<!-- 17 &#45; Port_Input -->
<g id="node18" class="node"><title>17 &#45; Port_Input</title>
<ellipse fill="lightyellow" stroke="black" cx="676" cy="-1523" rx="86.9741" ry="18.3848"/>
<text text-anchor="middle" x="676" y="-1519.4" font-family="Times Roman,serif" font-size="14.00">17 &#45; Port_Input</text>
</g>
<!-- 29 &#45; __Block_Inport__ -->
<g id="node30" class="node"><title>29 &#45; __Block_Inport__</title>
<ellipse fill="#b94a62" stroke="black" cx="682" cy="-1449" rx="118.087" ry="18.3848"/>
<text text-anchor="middle" x="682" y="-1445.4" font-family="Times Roman,serif" font-size="14.00">29 &#45; __Block_Inport__</text>
</g>
<!-- 17 &#45; Port_Input&#45;&gt;29 &#45; __Block_Inport__ -->
<g id="edge100" class="edge"><title>17 &#45; Port_Input&#45;&gt;29 &#45; __Block_Inport__</title>
<path fill="none" stroke="black" d="M677.514,-1504.33C678.168,-1496.26 678.947,-1486.65 679.672,-1477.71"/>
<polygon fill="black" stroke="black" points="683.167,-1477.92 680.486,-1467.67 676.19,-1477.35 683.167,-1477.92"/>
</g>
<!-- 18 &#45; Port_Output -->
<g id="node19" class="node"><title>18 &#45; Port_Output</title>
<ellipse fill="coral" stroke="black" cx="614" cy="-1203" rx="94.7523" ry="18.3848"/>
<text text-anchor="middle" x="614" y="-1199.4" font-family="Times Roman,serif" font-size="14.00">18 &#45; Port_Output</text>
</g>
<!-- 33 &#45; __Relation__ -->
<g id="node34" class="node"><title>33 &#45; __Relation__</title>
<ellipse fill="#f78465" stroke="black" cx="614" cy="-1129" rx="96.1665" ry="18.3848"/>
<text text-anchor="middle" x="614" y="-1125.4" font-family="Times Roman,serif" font-size="14.00">33 &#45; __Relation__</text>
</g>
<!-- 18 &#45; Port_Output&#45;&gt;33 &#45; __Relation__ -->
<g id="edge58" class="edge"><title>18 &#45; Port_Output&#45;&gt;33 &#45; __Relation__</title>
<path fill="none" stroke="black" d="M614,-1184.33C614,-1176.26 614,-1166.65 614,-1157.71"/>
<polygon fill="black" stroke="black" points="617.5,-1157.67 614,-1147.67 610.5,-1157.67 617.5,-1157.67"/>
</g>
<!-- 19 &#45; Port_Output -->
<g id="node20" class="node"><title>19 &#45; Port_Output</title>
<ellipse fill="coral" stroke="black" cx="381" cy="-1597" rx="94.7523" ry="18.3848"/>
<text text-anchor="middle" x="381" y="-1593.4" font-family="Times Roman,serif" font-size="14.00">19 &#45; Port_Output</text>
</g>
<!-- 37 &#45; __Relation__ -->
<g id="node38" class="node"><title>37 &#45; __Relation__</title>
<ellipse fill="#f78465" stroke="black" cx="381" cy="-1523" rx="96.8736" ry="18.3848"/>
<text text-anchor="middle" x="381" y="-1519.4" font-family="Times Roman,serif" font-size="14.00">37 &#45; __Relation__</text>
</g>
<!-- 19 &#45; Port_Output&#45;&gt;37 &#45; __Relation__ -->
<g id="edge74" class="edge"><title>19 &#45; Port_Output&#45;&gt;37 &#45; __Relation__</title>
<path fill="none" stroke="black" d="M381,-1578.33C381,-1570.26 381,-1560.65 381,-1551.71"/>
<polygon fill="black" stroke="black" points="384.5,-1551.67 381,-1541.67 377.5,-1551.67 384.5,-1551.67"/>
</g>
<!-- 20 &#45; __Block_Inport__&#45;&gt;0 &#45; Outport -->
<g id="edge78" class="edge"><title>20 &#45; __Block_Inport__&#45;&gt;0 &#45; Outport</title>
<path fill="none" stroke="black" d="M254.247,-74.7079C242.974,-65.2284 229.057,-53.5256 216.894,-43.297"/>
<polygon fill="black" stroke="black" points="219.105,-40.5836 209.199,-36.8264 214.6,-45.9412 219.105,-40.5836"/>
</g>
<!-- 21 &#45; __Block_Inport__&#45;&gt;1 &#45; Product -->
<g id="edge82" class="edge"><title>21 &#45; __Block_Inport__&#45;&gt;1 &#45; Product</title>
<path fill="none" stroke="black" d="M385.01,-1110.45C393.392,-1071.69 412.818,-981.842 422.813,-935.613"/>
<polygon fill="black" stroke="black" points="426.275,-936.163 424.968,-925.649 419.433,-934.684 426.275,-936.163"/>
</g>
<!-- 22 &#45; __Block_Inport__&#45;&gt;1 &#45; Product -->
<g id="edge86" class="edge"><title>22 &#45; __Block_Inport__&#45;&gt;1 &#45; Product</title>
<path fill="none" stroke="black" d="M544.592,-963.275C522.592,-952.565 494.452,-938.865 471.444,-927.664"/>
<polygon fill="black" stroke="black" points="472.78,-924.421 462.256,-923.191 469.716,-930.715 472.78,-924.421"/>
</g>
<!-- 23 &#45; __Block_Outport__&#45;&gt;11 &#45; Port_Output -->
<g id="edge4" class="edge"><title>23 &#45; __Block_Outport__&#45;&gt;11 &#45; Port_Output</title>
<path fill="none" stroke="black" d="M442.542,-814.327C444.525,-806.176 446.893,-796.438 449.087,-787.42"/>
<polygon fill="black" stroke="black" points="452.497,-788.211 451.459,-777.667 445.695,-786.557 452.497,-788.211"/>
</g>
<!-- 24 &#45; __Block_Outport__&#45;&gt;12 &#45; Port_Output -->
<g id="edge8" class="edge"><title>24 &#45; __Block_Outport__&#45;&gt;12 &#45; Port_Output</title>
<path fill="none" stroke="black" d="M686.273,-1738.34C682.171,-1726.96 676.845,-1712.18 672.227,-1699.37"/>
<polygon fill="black" stroke="black" points="675.397,-1697.84 668.713,-1689.62 668.812,-1700.22 675.397,-1697.84"/>
</g>
<!-- 25 &#45; __Block_Inport__&#45;&gt;2 &#45; Sum -->
<g id="edge90" class="edge"><title>25 &#45; __Block_Inport__&#45;&gt;2 &#45; Sum</title>
<path fill="none" stroke="black" d="M877.686,-1344.31C874.199,-1314.49 868,-1254.25 868,-1203 868,-1203 868,-1203 868,-611 868,-567.288 857.889,-555.836 836,-518 829.815,-507.309 821.383,-496.788 813.312,-487.856"/>
<polygon fill="black" stroke="black" points="815.767,-485.357 806.376,-480.451 810.658,-490.142 815.767,-485.357"/>
</g>
<!-- 26 &#45; __Block_Inport__&#45;&gt;2 &#45; Sum -->
<g id="edge94" class="edge"><title>26 &#45; __Block_Inport__&#45;&gt;2 &#45; Sum</title>
<path fill="none" stroke="black" d="M728.528,-518.708C738.602,-509.271 751.029,-497.631 761.913,-487.436"/>
<polygon fill="black" stroke="black" points="764.605,-489.71 769.511,-480.319 759.82,-484.601 764.605,-489.71"/>
</g>
<!-- 27 &#45; __Block_Outport__&#45;&gt;15 &#45; Port_Output -->
<g id="edge12" class="edge"><title>27 &#45; __Block_Outport__&#45;&gt;15 &#45; Port_Output</title>
<path fill="none" stroke="black" d="M750.764,-370.708C738.812,-361.299 724.077,-349.699 711.153,-339.525"/>
<polygon fill="black" stroke="black" points="712.991,-336.517 702.969,-333.082 708.661,-342.017 712.991,-336.517"/>
</g>
<!-- 28 &#45; __Block_Outport__&#45;&gt;16 &#45; Port_Output -->
<g id="edge16" class="edge"><title>28 &#45; __Block_Outport__&#45;&gt;16 &#45; Port_Output</title>
<path fill="none" stroke="black" d="M901,-1652.33C901,-1644.26 901,-1634.65 901,-1625.71"/>
<polygon fill="black" stroke="black" points="904.5,-1625.67 901,-1615.67 897.5,-1625.67 904.5,-1625.67"/>
</g>
<!-- 29 &#45; __Block_Inport__&#45;&gt;4 &#45; Gain\n Gain = 5.0 -->
<g id="edge98" class="edge"><title>29 &#45; __Block_Inport__&#45;&gt;4 &#45; Gain\n Gain = 5.0</title>
<path fill="none" stroke="black" d="M667.245,-1430.34C660.341,-1421.61 651.858,-1410.88 643.71,-1400.57"/>
<polygon fill="black" stroke="black" points="646.231,-1398.12 637.283,-1392.45 640.74,-1402.46 646.231,-1398.12"/>
</g>
<!-- 30 &#45; __Block_Outport__&#45;&gt;18 &#45; Port_Output -->
<g id="edge20" class="edge"><title>30 &#45; __Block_Outport__&#45;&gt;18 &#45; Port_Output</title>
<path fill="none" stroke="black" d="M614,-1258.33C614,-1250.26 614,-1240.65 614,-1231.71"/>
<polygon fill="black" stroke="black" points="617.5,-1231.67 614,-1221.67 610.5,-1231.67 617.5,-1231.67"/>
</g>
<!-- 31 &#45; __Block_Outport__&#45;&gt;19 &#45; Port_Output -->
<g id="edge24" class="edge"><title>31 &#45; __Block_Outport__&#45;&gt;19 &#45; Port_Output</title>
<path fill="none" stroke="black" d="M381,-1652.33C381,-1644.26 381,-1634.65 381,-1625.71"/>
<polygon fill="black" stroke="black" points="384.5,-1625.67 381,-1615.67 377.5,-1625.67 384.5,-1625.67"/>
</g>
<!-- 32 &#45; __Relation__&#45;&gt;8 &#45; Port_Input -->
<g id="edge56" class="edge"><title>32 &#45; __Relation__&#45;&gt;8 &#45; Port_Input</title>
<path fill="none" stroke="black" d="M421.162,-223.087C405.794,-213.198 386.533,-200.804 370.029,-190.184"/>
<polygon fill="black" stroke="black" points="371.488,-186.961 361.185,-184.493 367.701,-192.848 371.488,-186.961"/>
</g>
<!-- 33 &#45; __Relation__&#45;&gt;10 &#45; Port_Input -->
<g id="edge60" class="edge"><title>33 &#45; __Relation__&#45;&gt;10 &#45; Port_Input</title>
<path fill="none" stroke="black" d="M611.224,-1110.33C610.026,-1102.26 608.596,-1092.65 607.268,-1083.71"/>
<polygon fill="black" stroke="black" points="610.707,-1083.04 605.775,-1073.67 603.783,-1084.07 610.707,-1083.04"/>
</g>
<!-- 34 &#45; __Relation__&#45;&gt;17 &#45; Port_Input -->
<g id="edge64" class="edge"><title>34 &#45; __Relation__&#45;&gt;17 &#45; Port_Input</title>
<path fill="none" stroke="black" d="M669.271,-1578.33C670.252,-1570.26 671.421,-1560.65 672.508,-1551.71"/>
<polygon fill="black" stroke="black" points="675.997,-1552.02 673.73,-1541.67 669.048,-1551.17 675.997,-1552.02"/>
</g>
<!-- 35 &#45; __Relation__&#45;&gt;14 &#45; Port_Input -->
<g id="edge68" class="edge"><title>35 &#45; __Relation__&#45;&gt;14 &#45; Port_Input</title>
<path fill="none" stroke="black" d="M525.996,-667.65C546.431,-657.221 572.615,-643.859 594.42,-632.731"/>
<polygon fill="black" stroke="black" points="596.151,-635.777 603.467,-628.113 592.969,-629.542 596.151,-635.777"/>
</g>
<!-- 36 &#45; __Relation__&#45;&gt;13 &#45; Port_Input -->
<g id="edge72" class="edge"><title>36 &#45; __Relation__&#45;&gt;13 &#45; Port_Input</title>
<path fill="none" stroke="black" d="M903.252,-1504.33C903.361,-1496.26 903.491,-1486.65 903.612,-1477.71"/>
<polygon fill="black" stroke="black" points="907.112,-1477.71 903.748,-1467.67 900.113,-1477.62 907.112,-1477.71"/>
</g>
<!-- 37 &#45; __Relation__&#45;&gt;9 &#45; Port_Input -->
<g id="edge76" class="edge"><title>37 &#45; __Relation__&#45;&gt;9 &#45; Port_Input</title>
<path fill="none" stroke="black" d="M381,-1504.33C381,-1496.26 381,-1486.65 381,-1477.71"/>
<polygon fill="black" stroke="black" points="384.5,-1477.67 381,-1467.67 377.5,-1477.67 384.5,-1477.67"/>
</g>
<!-- 38 &#45; __Contains__&#45;&gt;0 &#45; Outport -->
<g id="edge28" class="edge"><title>38 &#45; __Contains__&#45;&gt;0 &#45; Outport</title>
<path fill="none" stroke="black" d="M99.4144,-1258.31C100,-1230.24 101,-1175.51 101,-1129 101,-1129 101,-1129 101,-167 101,-118.506 136.142,-71.8714 161.757,-44.3208"/>
<polygon fill="black" stroke="black" points="164.309,-46.7164 168.692,-37.0706 159.25,-41.8778 164.309,-46.7164"/>
</g>
<!-- 39 &#45; __Contains__&#45;&gt;1 &#45; Product -->
<g id="edge32" class="edge"><title>39 &#45; __Contains__&#45;&gt;1 &#45; Product</title>
<path fill="none" stroke="black" d="M230.496,-1184.27C233.655,-1164.81 240.29,-1133.92 253,-1110 291.928,-1036.74 361.713,-967.297 400.692,-931.723"/>
<polygon fill="black" stroke="black" points="403.442,-933.956 408.52,-924.657 398.751,-928.759 403.442,-933.956"/>
</g>
<!-- 40 &#45; __Contains__&#45;&gt;6 &#45; Constant\n Value = 12.34 -->
<g id="edge36" class="edge"><title>40 &#45; __Contains__&#45;&gt;6 &#45; Constant\n Value = 12.34</title>
<path fill="none" stroke="black" d="M717.49,-1922.34C714.728,-1914.42 711.392,-1904.86 708.113,-1895.46"/>
<polygon fill="black" stroke="black" points="711.342,-1894.09 704.743,-1885.8 704.732,-1896.39 711.342,-1894.09"/>
</g>
<!-- 41 &#45; __Contains__&#45;&gt;2 &#45; Sum -->
<g id="edge40" class="edge"><title>41 &#45; __Contains__&#45;&gt;2 &#45; Sum</title>
<path fill="none" stroke="black" d="M996.415,-1036.29C979.357,-1009.07 951,-956.399 951,-907 951,-907 951,-907 951,-611 951,-546.677 880.567,-502.968 832.298,-480.565"/>
<polygon fill="black" stroke="black" points="833.523,-477.279 822.968,-476.369 830.652,-483.663 833.523,-477.279"/>
</g>
<!-- 42 &#45; __Contains__&#45;&gt;3 &#45; Inport -->
<g id="edge44" class="edge"><title>42 &#45; __Contains__&#45;&gt;3 &#45; Inport</title>
<path fill="none" stroke="black" d="M898.193,-1836.1C898.339,-1821.78 898.542,-1801.85 898.708,-1785.57"/>
<polygon fill="black" stroke="black" points="902.209,-1785.54 898.811,-1775.51 895.209,-1785.47 902.209,-1785.54"/>
</g>
<!-- 43 &#45; __Contains__&#45;&gt;4 &#45; Gain\n Gain = 5.0 -->
<g id="edge48" class="edge"><title>43 &#45; __Contains__&#45;&gt;4 &#45; Gain\n Gain = 5.0</title>
<path fill="none" stroke="black" d="M512.75,-1922.34C520.738,-1889.26 536,-1818.07 536,-1757 536,-1757 536,-1757 536,-1523 536,-1480.81 536.205,-1467.77 555,-1430 560.557,-1418.83 568.449,-1408.07 576.661,-1398.55"/>
<polygon fill="black" stroke="black" points="579.489,-1400.64 583.589,-1390.87 574.291,-1395.95 579.489,-1400.64"/>
</g>
<!-- 44 &#45; __Contains__&#45;&gt;7 &#45; Constant\n Value = 7.12 -->
<g id="edge52" class="edge"><title>44 &#45; __Contains__&#45;&gt;7 &#45; Constant\n Value = 7.12</title>
<path fill="none" stroke="black" d="M381,-1836.1C381,-1825.4 381,-1811.56 381,-1798.45"/>
<polygon fill="black" stroke="black" points="384.5,-1798.18 381,-1788.18 377.5,-1798.18 384.5,-1798.18"/>
</g>
</g>
</svg>
