<?xml version="1.0" encoding="UTF-8" standalone="no"?>
<!DOCTYPE svg PUBLIC "-//W3C//DTD SVG 1.1//EN"
 "http://www.w3.org/Graphics/SVG/1.1/DTD/svg11.dtd">
<!-- Generated by graphviz version 2.26.3 (20100126.1600)
 -->
<!-- Title: HConstfolding_hier_opt_real Pages: 1 -->
<svg width="1046pt" height="2462pt"
 viewBox="0.00 0.00 1046.00 2462.00" xmlns="http://www.w3.org/2000/svg" xmlns:xlink="http://www.w3.org/1999/xlink">
<g id="graph1" class="graph" transform="scale(1 1) rotate(0) translate(4 2458)">
<title>HConstfolding_hier_opt_real</title>
<polygon fill="white" stroke="white" points="-4,5 -4,-2458 1043,-2458 1043,5 -4,5"/>
<!-- 0 &#45; Constant\n Value = 1.0 -->
<g id="node1" class="node"><title>0 &#45; Constant\n Value = 1.0</title>
<ellipse fill="lightblue" stroke="black" cx="358" cy="-2275" rx="73.0388" ry="31.1127"/>
<text text-anchor="middle" x="358" y="-2280.4" font-family="Times Roman,serif" font-size="14.00">0 &#45; Constant</text>
<text text-anchor="middle" x="358" y="-2262.4" font-family="Times Roman,serif" font-size="14.00"> Value = 1.0</text>
</g>
<!-- 14 &#45; __Block_Outport__ -->
<g id="node15" class="node"><title>14 &#45; __Block_Outport__</title>
<ellipse fill="#b94a62" stroke="black" cx="344" cy="-2189" rx="127.986" ry="18.3848"/>
<text text-anchor="middle" x="344" y="-2185.4" font-family="Times Roman,serif" font-size="14.00">14 &#45; __Block_Outport__</text>
</g>
<!-- 0 &#45; Constant\n Value = 1.0&#45;&gt;14 &#45; __Block_Outport__ -->
<g id="edge2" class="edge"><title>0 &#45; Constant\n Value = 1.0&#45;&gt;14 &#45; __Block_Outport__</title>
<path fill="none" stroke="black" d="M352.946,-2243.95C351.558,-2235.43 350.059,-2226.22 348.693,-2217.83"/>
<polygon fill="black" stroke="black" points="352.112,-2217.05 347.051,-2207.74 345.203,-2218.17 352.112,-2217.05"/>
</g>
<!-- 1 &#45; Product -->
<g id="node2" class="node"><title>1 &#45; Product</title>
<ellipse fill="lightblue" stroke="black" cx="639" cy="-1351" rx="67.1751" ry="18.3848"/>
<text text-anchor="middle" x="639" y="-1347.4" font-family="Times Roman,serif" font-size="14.00">1 &#45; Product</text>
</g>
<!-- 15 &#45; __Block_Outport__ -->
<g id="node16" class="node"><title>15 &#45; __Block_Outport__</title>
<ellipse fill="#b94a62" stroke="black" cx="641" cy="-1277" rx="127.986" ry="18.3848"/>
<text text-anchor="middle" x="641" y="-1273.4" font-family="Times Roman,serif" font-size="14.00">15 &#45; __Block_Outport__</text>
</g>
<!-- 1 &#45; Product&#45;&gt;15 &#45; __Block_Outport__ -->
<g id="edge4" class="edge"><title>1 &#45; Product&#45;&gt;15 &#45; __Block_Outport__</title>
<path fill="none" stroke="black" d="M639.505,-1332.33C639.723,-1324.26 639.982,-1314.65 640.224,-1305.71"/>
<polygon fill="black" stroke="black" points="643.724,-1305.76 640.495,-1295.67 636.726,-1305.57 643.724,-1305.76"/>
</g>
<!-- 2 &#45; Sum -->
<g id="node3" class="node"><title>2 &#45; Sum</title>
<ellipse fill="lightblue" stroke="black" cx="699" cy="-907" rx="50.2046" ry="18.3848"/>
<text text-anchor="middle" x="699" y="-903.4" font-family="Times Roman,serif" font-size="14.00">2 &#45; Sum</text>
</g>
<!-- 16 &#45; __Block_Outport__ -->
<g id="node17" class="node"><title>16 &#45; __Block_Outport__</title>
<ellipse fill="#b94a62" stroke="black" cx="718" cy="-833" rx="126.78" ry="18.3848"/>
<text text-anchor="middle" x="718" y="-829.4" font-family="Times Roman,serif" font-size="14.00">16 &#45; __Block_Outport__</text>
</g>
<!-- 2 &#45; Sum&#45;&gt;16 &#45; __Block_Outport__ -->
<g id="edge6" class="edge"><title>2 &#45; Sum&#45;&gt;16 &#45; __Block_Outport__</title>
<path fill="none" stroke="black" d="M703.795,-888.327C705.887,-880.176 708.387,-870.438 710.703,-861.42"/>
<polygon fill="black" stroke="black" points="714.11,-862.224 713.207,-851.667 707.33,-860.483 714.11,-862.224"/>
</g>
<!-- 3 &#45; UnitDelay -->
<g id="node4" class="node"><title>3 &#45; UnitDelay</title>
<ellipse fill="lightblue" stroke="black" cx="732" cy="-463" rx="77.7817" ry="18.3848"/>
<text text-anchor="middle" x="732" y="-459.4" font-family="Times Roman,serif" font-size="14.00">3 &#45; UnitDelay</text>
</g>
<!-- 17 &#45; __Block_Outport__ -->
<g id="node18" class="node"><title>17 &#45; __Block_Outport__</title>
<ellipse fill="#b94a62" stroke="black" cx="732" cy="-389" rx="128.193" ry="18.3848"/>
<text text-anchor="middle" x="732" y="-385.4" font-family="Times Roman,serif" font-size="14.00">17 &#45; __Block_Outport__</text>
</g>
<!-- 3 &#45; UnitDelay&#45;&gt;17 &#45; __Block_Outport__ -->
<g id="edge8" class="edge"><title>3 &#45; UnitDelay&#45;&gt;17 &#45; __Block_Outport__</title>
<path fill="none" stroke="black" d="M732,-444.327C732,-436.264 732,-426.648 732,-417.711"/>
<polygon fill="black" stroke="black" points="735.5,-417.667 732,-407.667 728.5,-417.667 735.5,-417.667"/>
</g>
<!-- 4 &#45; Gain\n Gain = 0.01 -->
<g id="node5" class="node"><title>4 &#45; Gain\n Gain = 0.01</title>
<ellipse fill="lightblue" stroke="black" cx="328" cy="-1807" rx="74.2462" ry="31.1127"/>
<text text-anchor="middle" x="328" y="-1812.4" font-family="Times Roman,serif" font-size="14.00">4 &#45; Gain</text>
<text text-anchor="middle" x="328" y="-1794.4" font-family="Times Roman,serif" font-size="14.00"> Gain = 0.01</text>
</g>
<!-- 19 &#45; __Block_Outport__ -->
<g id="node20" class="node"><title>19 &#45; __Block_Outport__</title>
<ellipse fill="#b94a62" stroke="black" cx="328" cy="-1721" rx="126.78" ry="18.3848"/>
<text text-anchor="middle" x="328" y="-1717.4" font-family="Times Roman,serif" font-size="14.00">19 &#45; __Block_Outport__</text>
</g>
<!-- 4 &#45; Gain\n Gain = 0.01&#45;&gt;19 &#45; __Block_Outport__ -->
<g id="edge10" class="edge"><title>4 &#45; Gain\n Gain = 0.01&#45;&gt;19 &#45; __Block_Outport__</title>
<path fill="none" stroke="black" d="M328,-1775.95C328,-1767.43 328,-1758.22 328,-1749.83"/>
<polygon fill="black" stroke="black" points="331.5,-1749.74 328,-1739.74 324.5,-1749.74 331.5,-1749.74"/>
</g>
<!-- 5 &#45; Outport -->
<g id="node6" class="node"><title>5 &#45; Outport</title>
<ellipse fill="#eedd82" stroke="black" cx="490" cy="-19" rx="67.1751" ry="18.3848"/>
<text text-anchor="middle" x="490" y="-15.4" font-family="Times Roman,serif" font-size="14.00">5 &#45; Outport</text>
</g>
<!-- 6 &#45; SubSystem -->
<g id="node7" class="node"><title>6 &#45; SubSystem</title>
<ellipse fill="lightgreen" stroke="black" cx="617" cy="-2435" rx="84.1457" ry="18.3848"/>
<text text-anchor="middle" x="617" y="-2431.4" font-family="Times Roman,serif" font-size="14.00">6 &#45; SubSystem</text>
</g>
<!-- 41 &#45; __Contains__ -->
<g id="node42" class="node"><title>41 &#45; __Contains__</title>
<ellipse fill="lightgray" stroke="black" cx="696" cy="-1721" rx="99.9096" ry="18.3848"/>
<text text-anchor="middle" x="696" y="-1717.4" font-family="Times Roman,serif" font-size="14.00">41 &#45; __Contains__</text>
</g>
<!-- 6 &#45; SubSystem&#45;&gt;41 &#45; __Contains__ -->
<g id="edge12" class="edge"><title>6 &#45; SubSystem&#45;&gt;41 &#45; __Contains__</title>
<path fill="none" stroke="black" d="M663.48,-2419.51C684.427,-2410.64 708.179,-2397.69 725,-2380 760.235,-2342.95 772,-2326.13 772,-2275 772,-2275 772,-2275 772,-1893 772,-1837.79 738.839,-1780.47 716.326,-1747.92"/>
<polygon fill="black" stroke="black" points="718.935,-1745.55 710.295,-1739.42 713.226,-1749.6 718.935,-1745.55"/>
</g>
<!-- 42 &#45; __Contains__ -->
<g id="node43" class="node"><title>42 &#45; __Contains__</title>
<ellipse fill="lightgray" stroke="black" cx="823" cy="-1647" rx="99.201" ry="18.3848"/>
<text text-anchor="middle" x="823" y="-1643.4" font-family="Times Roman,serif" font-size="14.00">42 &#45; __Contains__</text>
</g>
<!-- 6 &#45; SubSystem&#45;&gt;42 &#45; __Contains__ -->
<g id="edge14" class="edge"><title>6 &#45; SubSystem&#45;&gt;42 &#45; __Contains__</title>
<path fill="none" stroke="black" d="M672.711,-2421.02C699.323,-2412.36 730.428,-2399.15 754,-2380 797.531,-2344.63 824,-2331.09 824,-2275 824,-2275 824,-2275 824,-1807 824,-1761.08 823.583,-1707.75 823.288,-1675.72"/>
<polygon fill="black" stroke="black" points="826.787,-1675.69 823.193,-1665.72 819.788,-1675.75 826.787,-1675.69"/>
</g>
<!-- 43 &#45; __Contains__ -->
<g id="node44" class="node"><title>43 &#45; __Contains__</title>
<ellipse fill="lightgray" stroke="black" cx="939" cy="-1573" rx="98.9949" ry="18.3848"/>
<text text-anchor="middle" x="939" y="-1569.4" font-family="Times Roman,serif" font-size="14.00">43 &#45; __Contains__</text>
</g>
<!-- 6 &#45; SubSystem&#45;&gt;43 &#45; __Contains__ -->
<g id="edge16" class="edge"><title>6 &#45; SubSystem&#45;&gt;43 &#45; __Contains__</title>
<path fill="none" stroke="black" d="M671.615,-2420.83C766.086,-2394.71 950,-2336.01 950,-2275 950,-2275 950,-2275 950,-1721 950,-1679.47 945.638,-1631.55 942.408,-1601.77"/>
<polygon fill="black" stroke="black" points="945.867,-1601.21 941.279,-1591.66 938.911,-1601.98 945.867,-1601.21"/>
</g>
<!-- 44 &#45; __Contains__ -->
<g id="node45" class="node"><title>44 &#45; __Contains__</title>
<ellipse fill="lightgray" stroke="black" cx="99" cy="-1807" rx="99.201" ry="18.3848"/>
<text text-anchor="middle" x="99" y="-1803.4" font-family="Times Roman,serif" font-size="14.00">44 &#45; __Contains__</text>
</g>
<!-- 6 &#45; SubSystem&#45;&gt;44 &#45; __Contains__ -->
<g id="edge24" class="edge"><title>6 &#45; SubSystem&#45;&gt;44 &#45; __Contains__</title>
<path fill="none" stroke="black" d="M537.59,-2428.87C436.035,-2420.25 266.326,-2402.98 208,-2380 132.965,-2350.43 60,-2355.65 60,-2275 60,-2275 60,-2275 60,-1967 60,-1919.79 76.2267,-1866.91 87.7466,-1835.32"/>
<polygon fill="black" stroke="black" points="91.0652,-1836.44 91.2949,-1825.85 84.5099,-1833.98 91.0652,-1836.44"/>
</g>
<!-- 45 &#45; __Contains__ -->
<g id="node46" class="node"><title>45 &#45; __Contains__</title>
<ellipse fill="lightgray" stroke="black" cx="373" cy="-2361" rx="99.201" ry="18.3848"/>
<text text-anchor="middle" x="373" y="-2357.4" font-family="Times Roman,serif" font-size="14.00">45 &#45; __Contains__</text>
</g>
<!-- 6 &#45; SubSystem&#45;&gt;45 &#45; __Contains__ -->
<g id="edge22" class="edge"><title>6 &#45; SubSystem&#45;&gt;45 &#45; __Contains__</title>
<path fill="none" stroke="black" d="M567.623,-2420.02C529.334,-2408.41 476.041,-2392.25 434.901,-2379.77"/>
<polygon fill="black" stroke="black" points="435.841,-2376.4 425.255,-2376.85 433.809,-2383.1 435.841,-2376.4"/>
</g>
<!-- 46 &#45; __Contains__ -->
<g id="node47" class="node"><title>46 &#45; __Contains__</title>
<ellipse fill="lightgray" stroke="black" cx="617" cy="-2361" rx="98.9949" ry="18.3848"/>
<text text-anchor="middle" x="617" y="-2357.4" font-family="Times Roman,serif" font-size="14.00">46 &#45; __Contains__</text>
</g>
<!-- 6 &#45; SubSystem&#45;&gt;46 &#45; __Contains__ -->
<g id="edge20" class="edge"><title>6 &#45; SubSystem&#45;&gt;46 &#45; __Contains__</title>
<path fill="none" stroke="black" d="M617,-2416.33C617,-2408.26 617,-2398.65 617,-2389.71"/>
<polygon fill="black" stroke="black" points="620.5,-2389.67 617,-2379.67 613.5,-2389.67 620.5,-2389.67"/>
</g>
<!-- 47 &#45; __Contains__ -->
<g id="node48" class="node"><title>47 &#45; __Contains__</title>
<ellipse fill="lightgray" stroke="black" cx="188" cy="-1893" rx="99.9096" ry="18.3848"/>
<text text-anchor="middle" x="188" y="-1889.4" font-family="Times Roman,serif" font-size="14.00">47 &#45; __Contains__</text>
</g>
<!-- 6 &#45; SubSystem&#45;&gt;47 &#45; __Contains__ -->
<g id="edge18" class="edge"><title>6 &#45; SubSystem&#45;&gt;47 &#45; __Contains__</title>
<path fill="none" stroke="black" d="M536.55,-2429.54C447.111,-2422.25 309.388,-2407 265,-2380 215.559,-2349.92 188,-2332.87 188,-2275 188,-2275 188,-2275 188,-2041 188,-1999.58 188,-1951.64 188,-1921.81"/>
<polygon fill="black" stroke="black" points="191.5,-1921.69 188,-1911.69 184.5,-1921.69 191.5,-1921.69"/>
</g>
<!-- 7 &#45; Inport -->
<g id="node8" class="node"><title>7 &#45; Inport</title>
<ellipse fill="#eedd82" stroke="black" cx="617" cy="-2275" rx="58.1882" ry="18.3848"/>
<text text-anchor="middle" x="617" y="-2271.4" font-family="Times Roman,serif" font-size="14.00">7 &#45; Inport</text>
</g>
<!-- 18 &#45; __Block_Outport__ -->
<g id="node19" class="node"><title>18 &#45; __Block_Outport__</title>
<ellipse fill="#b94a62" stroke="black" cx="617" cy="-2189" rx="126.78" ry="18.3848"/>
<text text-anchor="middle" x="617" y="-2185.4" font-family="Times Roman,serif" font-size="14.00">18 &#45; __Block_Outport__</text>
</g>
<!-- 7 &#45; Inport&#45;&gt;18 &#45; __Block_Outport__ -->
<g id="edge26" class="edge"><title>7 &#45; Inport&#45;&gt;18 &#45; __Block_Outport__</title>
<path fill="none" stroke="black" d="M617,-2256.34C617,-2245.07 617,-2230.47 617,-2217.75"/>
<polygon fill="black" stroke="black" points="620.5,-2217.62 617,-2207.62 613.5,-2217.62 620.5,-2217.62"/>
</g>
<!-- 8 &#45; Port_Output -->
<g id="node9" class="node"><title>8 &#45; Port_Output</title>
<ellipse fill="coral" stroke="black" cx="354" cy="-2115" rx="87.889" ry="18.3848"/>
<text text-anchor="middle" x="354" y="-2111.4" font-family="Times Roman,serif" font-size="14.00">8 &#45; Port_Output</text>
</g>
<!-- 40 &#45; __Relation__ -->
<g id="node41" class="node"><title>40 &#45; __Relation__</title>
<ellipse fill="#f78465" stroke="black" cx="371" cy="-2041" rx="96.8736" ry="18.3848"/>
<text text-anchor="middle" x="371" y="-2037.4" font-family="Times Roman,serif" font-size="14.00">40 &#45; __Relation__</text>
</g>
<!-- 8 &#45; Port_Output&#45;&gt;40 &#45; __Relation__ -->
<g id="edge28" class="edge"><title>8 &#45; Port_Output&#45;&gt;40 &#45; __Relation__</title>
<path fill="none" stroke="black" d="M358.29,-2096.33C360.162,-2088.18 362.399,-2078.44 364.471,-2069.42"/>
<polygon fill="black" stroke="black" points="367.884,-2070.2 366.712,-2059.67 361.061,-2068.63 367.884,-2070.2"/>
</g>
<!-- 9 &#45; Port_Output -->
<g id="node10" class="node"><title>9 &#45; Port_Output</title>
<ellipse fill="coral" stroke="black" cx="652" cy="-1203" rx="87.889" ry="18.3848"/>
<text text-anchor="middle" x="652" y="-1199.4" font-family="Times Roman,serif" font-size="14.00">9 &#45; Port_Output</text>
</g>
<!-- 37 &#45; __Relation__ -->
<g id="node38" class="node"><title>37 &#45; __Relation__</title>
<ellipse fill="#f78465" stroke="black" cx="654" cy="-1129" rx="96.8736" ry="18.3848"/>
<text text-anchor="middle" x="654" y="-1125.4" font-family="Times Roman,serif" font-size="14.00">37 &#45; __Relation__</text>
</g>
<!-- 9 &#45; Port_Output&#45;&gt;37 &#45; __Relation__ -->
<g id="edge30" class="edge"><title>9 &#45; Port_Output&#45;&gt;37 &#45; __Relation__</title>
<path fill="none" stroke="black" d="M652.505,-1184.33C652.723,-1176.26 652.982,-1166.65 653.224,-1157.71"/>
<polygon fill="black" stroke="black" points="656.724,-1157.76 653.495,-1147.67 649.726,-1157.57 656.724,-1157.76"/>
</g>
<!-- 10 &#45; Port_Output -->
<g id="node11" class="node"><title>10 &#45; Port_Output</title>
<ellipse fill="coral" stroke="black" cx="718" cy="-759" rx="94.7523" ry="18.3848"/>
<text text-anchor="middle" x="718" y="-755.4" font-family="Times Roman,serif" font-size="14.00">10 &#45; Port_Output</text>
</g>
<!-- 36 &#45; __Relation__ -->
<g id="node37" class="node"><title>36 &#45; __Relation__</title>
<ellipse fill="#f78465" stroke="black" cx="732" cy="-685" rx="96.1665" ry="18.3848"/>
<text text-anchor="middle" x="732" y="-681.4" font-family="Times Roman,serif" font-size="14.00">36 &#45; __Relation__</text>
</g>
<!-- 10 &#45; Port_Output&#45;&gt;36 &#45; __Relation__ -->
<g id="edge32" class="edge"><title>10 &#45; Port_Output&#45;&gt;36 &#45; __Relation__</title>
<path fill="none" stroke="black" d="M721.533,-740.327C723.058,-732.264 724.877,-722.648 726.568,-713.711"/>
<polygon fill="black" stroke="black" points="730.048,-714.144 728.468,-703.667 723.17,-712.842 730.048,-714.144"/>
</g>
<!-- 11 &#45; Port_Output -->
<g id="node12" class="node"><title>11 &#45; Port_Output</title>
<ellipse fill="coral" stroke="black" cx="732" cy="-315" rx="96.1665" ry="18.3848"/>
<text text-anchor="middle" x="732" y="-311.4" font-family="Times Roman,serif" font-size="14.00">11 &#45; Port_Output</text>
</g>
<!-- 34 &#45; __Relation__ -->
<g id="node35" class="node"><title>34 &#45; __Relation__</title>
<ellipse fill="#f78465" stroke="black" cx="688" cy="-241" rx="96.8736" ry="18.3848"/>
<text text-anchor="middle" x="688" y="-237.4" font-family="Times Roman,serif" font-size="14.00">34 &#45; __Relation__</text>
</g>
<!-- 11 &#45; Port_Output&#45;&gt;34 &#45; __Relation__ -->
<g id="edge36" class="edge"><title>11 &#45; Port_Output&#45;&gt;34 &#45; __Relation__</title>
<path fill="none" stroke="black" d="M720.897,-296.327C715.804,-287.761 709.668,-277.442 704.082,-268.047"/>
<polygon fill="black" stroke="black" points="707.066,-266.218 698.947,-259.411 701.05,-269.795 707.066,-266.218"/>
</g>
<!-- 35 &#45; __Relation__ -->
<g id="node36" class="node"><title>35 &#45; __Relation__</title>
<ellipse fill="#f78465" stroke="black" cx="900" cy="-241" rx="96.8736" ry="18.3848"/>
<text text-anchor="middle" x="900" y="-237.4" font-family="Times Roman,serif" font-size="14.00">35 &#45; __Relation__</text>
</g>
<!-- 11 &#45; Port_Output&#45;&gt;35 &#45; __Relation__ -->
<g id="edge34" class="edge"><title>11 &#45; Port_Output&#45;&gt;35 &#45; __Relation__</title>
<path fill="none" stroke="black" d="M770.543,-298.023C794.787,-287.344 826.26,-273.48 852.104,-262.097"/>
<polygon fill="black" stroke="black" points="853.606,-265.26 861.346,-258.026 850.784,-258.854 853.606,-265.26"/>
</g>
<!-- 12 &#45; Port_Output -->
<g id="node13" class="node"><title>12 &#45; Port_Output</title>
<ellipse fill="coral" stroke="black" cx="604" cy="-2115" rx="94.9596" ry="18.3848"/>
<text text-anchor="middle" x="604" y="-2111.4" font-family="Times Roman,serif" font-size="14.00">12 &#45; Port_Output</text>
</g>
<!-- 39 &#45; __Relation__ -->
<g id="node40" class="node"><title>39 &#45; __Relation__</title>
<ellipse fill="#f78465" stroke="black" cx="597" cy="-2041" rx="96.1665" ry="18.3848"/>
<text text-anchor="middle" x="597" y="-2037.4" font-family="Times Roman,serif" font-size="14.00">39 &#45; __Relation__</text>
</g>
<!-- 12 &#45; Port_Output&#45;&gt;39 &#45; __Relation__ -->
<g id="edge38" class="edge"><title>12 &#45; Port_Output&#45;&gt;39 &#45; __Relation__</title>
<path fill="none" stroke="black" d="M602.234,-2096.33C601.471,-2088.26 600.561,-2078.65 599.716,-2069.71"/>
<polygon fill="black" stroke="black" points="603.192,-2069.29 598.766,-2059.67 596.223,-2069.95 603.192,-2069.29"/>
</g>
<!-- 13 &#45; Port_Output -->
<g id="node14" class="node"><title>13 &#45; Port_Output</title>
<ellipse fill="coral" stroke="black" cx="328" cy="-1647" rx="94.7523" ry="18.3848"/>
<text text-anchor="middle" x="328" y="-1643.4" font-family="Times Roman,serif" font-size="14.00">13 &#45; Port_Output</text>
</g>
<!-- 38 &#45; __Relation__ -->
<g id="node39" class="node"><title>38 &#45; __Relation__</title>
<ellipse fill="#f78465" stroke="black" cx="328" cy="-1573" rx="96.1665" ry="18.3848"/>
<text text-anchor="middle" x="328" y="-1569.4" font-family="Times Roman,serif" font-size="14.00">38 &#45; __Relation__</text>
</g>
<!-- 13 &#45; Port_Output&#45;&gt;38 &#45; __Relation__ -->
<g id="edge40" class="edge"><title>13 &#45; Port_Output&#45;&gt;38 &#45; __Relation__</title>
<path fill="none" stroke="black" d="M328,-1628.33C328,-1620.26 328,-1610.65 328,-1601.71"/>
<polygon fill="black" stroke="black" points="331.5,-1601.67 328,-1591.67 324.5,-1601.67 331.5,-1601.67"/>
</g>
<!-- 14 &#45; __Block_Outport__&#45;&gt;8 &#45; Port_Output -->
<g id="edge42" class="edge"><title>14 &#45; __Block_Outport__&#45;&gt;8 &#45; Port_Output</title>
<path fill="none" stroke="black" d="M346.523,-2170.33C347.613,-2162.26 348.912,-2152.65 350.12,-2143.71"/>
<polygon fill="black" stroke="black" points="353.607,-2144.05 351.477,-2133.67 346.67,-2143.11 353.607,-2144.05"/>
</g>
<!-- 15 &#45; __Block_Outport__&#45;&gt;9 &#45; Port_Output -->
<g id="edge44" class="edge"><title>15 &#45; __Block_Outport__&#45;&gt;9 &#45; Port_Output</title>
<path fill="none" stroke="black" d="M643.776,-1258.33C644.974,-1250.26 646.404,-1240.65 647.732,-1231.71"/>
<polygon fill="black" stroke="black" points="651.217,-1232.07 649.225,-1221.67 644.293,-1231.04 651.217,-1232.07"/>
</g>
<!-- 16 &#45; __Block_Outport__&#45;&gt;10 &#45; Port_Output -->
<g id="edge46" class="edge"><title>16 &#45; __Block_Outport__&#45;&gt;10 &#45; Port_Output</title>
<path fill="none" stroke="black" d="M718,-814.327C718,-806.264 718,-796.648 718,-787.711"/>
<polygon fill="black" stroke="black" points="721.5,-787.667 718,-777.667 714.5,-787.667 721.5,-787.667"/>
</g>
<!-- 17 &#45; __Block_Outport__&#45;&gt;11 &#45; Port_Output -->
<g id="edge48" class="edge"><title>17 &#45; __Block_Outport__&#45;&gt;11 &#45; Port_Output</title>
<path fill="none" stroke="black" d="M732,-370.327C732,-362.264 732,-352.648 732,-343.711"/>
<polygon fill="black" stroke="black" points="735.5,-343.667 732,-333.667 728.5,-343.667 735.5,-343.667"/>
</g>
<!-- 18 &#45; __Block_Outport__&#45;&gt;12 &#45; Port_Output -->
<g id="edge50" class="edge"><title>18 &#45; __Block_Outport__&#45;&gt;12 &#45; Port_Output</title>
<path fill="none" stroke="black" d="M613.72,-2170.33C612.303,-2162.26 610.614,-2152.65 609.044,-2143.71"/>
<polygon fill="black" stroke="black" points="612.457,-2142.91 607.279,-2133.67 605.563,-2144.12 612.457,-2142.91"/>
</g>
<!-- 19 &#45; __Block_Outport__&#45;&gt;13 &#45; Port_Output -->
<g id="edge52" class="edge"><title>19 &#45; __Block_Outport__&#45;&gt;13 &#45; Port_Output</title>
<path fill="none" stroke="black" d="M328,-1702.33C328,-1694.26 328,-1684.65 328,-1675.71"/>
<polygon fill="black" stroke="black" points="331.5,-1675.67 328,-1665.67 324.5,-1675.67 331.5,-1675.67"/>
</g>
<!-- 20 &#45; Port_Input -->
<g id="node21" class="node"><title>20 &#45; Port_Input</title>
<ellipse fill="lightyellow" stroke="black" cx="885" cy="-167" rx="85.0596" ry="18.3848"/>
<text text-anchor="middle" x="885" y="-163.4" font-family="Times Roman,serif" font-size="14.00">20 &#45; Port_Input</text>
</g>
<!-- 27 &#45; __Block_Inport__ -->
<g id="node28" class="node"><title>27 &#45; __Block_Inport__</title>
<ellipse fill="#b94a62" stroke="black" cx="863" cy="-93" rx="118.794" ry="18.3848"/>
<text text-anchor="middle" x="863" y="-89.4" font-family="Times Roman,serif" font-size="14.00">27 &#45; __Block_Inport__</text>
</g>
<!-- 20 &#45; Port_Input&#45;&gt;27 &#45; __Block_Inport__ -->
<g id="edge54" class="edge"><title>20 &#45; Port_Input&#45;&gt;27 &#45; __Block_Inport__</title>
<path fill="none" stroke="black" d="M879.448,-148.327C877.025,-140.176 874.13,-130.438 871.449,-121.42"/>
<polygon fill="black" stroke="black" points="874.754,-120.255 868.55,-111.667 868.045,-122.25 874.754,-120.255"/>
</g>
<!-- 21 &#45; Port_Input -->
<g id="node22" class="node"><title>21 &#45; Port_Input</title>
<ellipse fill="lightyellow" stroke="black" cx="576" cy="-1967" rx="85.7684" ry="18.3848"/>
<text text-anchor="middle" x="576" y="-1963.4" font-family="Times Roman,serif" font-size="14.00">21 &#45; Port_Input</text>
</g>
<!-- 28 &#45; __Block_Inport__ -->
<g id="node29" class="node"><title>28 &#45; __Block_Inport__</title>
<ellipse fill="#b94a62" stroke="black" cx="550" cy="-1499" rx="118.087" ry="18.3848"/>
<text text-anchor="middle" x="550" y="-1495.4" font-family="Times Roman,serif" font-size="14.00">28 &#45; __Block_Inport__</text>
</g>
<!-- 21 &#45; Port_Input&#45;&gt;28 &#45; __Block_Inport__ -->
<g id="edge56" class="edge"><title>21 &#45; Port_Input&#45;&gt;28 &#45; __Block_Inport__</title>
<path fill="none" stroke="black" d="M574.458,-1948.29C572.133,-1918.44 568,-1858.17 568,-1807 568,-1807 568,-1807 568,-1647 568,-1605.27 560.863,-1557.41 555.577,-1527.69"/>
<polygon fill="black" stroke="black" points="558.974,-1526.81 553.73,-1517.6 552.088,-1528.07 558.974,-1526.81"/>
</g>
<!-- 22 &#45; Port_Input -->
<g id="node23" class="node"><title>22 &#45; Port_Input</title>
<ellipse fill="lightyellow" stroke="black" cx="328" cy="-1499" rx="85.7684" ry="18.3848"/>
<text text-anchor="middle" x="328" y="-1495.4" font-family="Times Roman,serif" font-size="14.00">22 &#45; Port_Input</text>
</g>
<!-- 29 &#45; __Block_Inport__ -->
<g id="node30" class="node"><title>29 &#45; __Block_Inport__</title>
<ellipse fill="#b94a62" stroke="black" cx="379" cy="-1425" rx="118.087" ry="18.3848"/>
<text text-anchor="middle" x="379" y="-1421.4" font-family="Times Roman,serif" font-size="14.00">29 &#45; __Block_Inport__</text>
</g>
<!-- 22 &#45; Port_Input&#45;&gt;29 &#45; __Block_Inport__ -->
<g id="edge58" class="edge"><title>22 &#45; Port_Input&#45;&gt;29 &#45; __Block_Inport__</title>
<path fill="none" stroke="black" d="M340.869,-1480.33C346.834,-1471.67 354.032,-1461.23 360.559,-1451.76"/>
<polygon fill="black" stroke="black" points="363.518,-1453.63 366.311,-1443.41 357.755,-1449.66 363.518,-1453.63"/>
</g>
<!-- 23 &#45; Port_Input -->
<g id="node24" class="node"><title>23 &#45; Port_Input</title>
<ellipse fill="lightyellow" stroke="black" cx="657" cy="-1055" rx="85.0596" ry="18.3848"/>
<text text-anchor="middle" x="657" y="-1051.4" font-family="Times Roman,serif" font-size="14.00">23 &#45; Port_Input</text>
</g>
<!-- 30 &#45; __Block_Inport__ -->
<g id="node31" class="node"><title>30 &#45; __Block_Inport__</title>
<ellipse fill="#b94a62" stroke="black" cx="662" cy="-981" rx="116.88" ry="18.3848"/>
<text text-anchor="middle" x="662" y="-977.4" font-family="Times Roman,serif" font-size="14.00">30 &#45; __Block_Inport__</text>
</g>
<!-- 23 &#45; Port_Input&#45;&gt;30 &#45; __Block_Inport__ -->
<g id="edge60" class="edge"><title>23 &#45; Port_Input&#45;&gt;30 &#45; __Block_Inport__</title>
<path fill="none" stroke="black" d="M658.262,-1036.33C658.806,-1028.26 659.456,-1018.65 660.06,-1009.71"/>
<polygon fill="black" stroke="black" points="663.556,-1009.88 660.739,-999.667 656.572,-1009.41 663.556,-1009.88"/>
</g>
<!-- 24 &#45; Port_Input -->
<g id="node25" class="node"><title>24 &#45; Port_Input</title>
<ellipse fill="lightyellow" stroke="black" cx="682" cy="-167" rx="85.7684" ry="18.3848"/>
<text text-anchor="middle" x="682" y="-163.4" font-family="Times Roman,serif" font-size="14.00">24 &#45; Port_Input</text>
</g>
<!-- 31 &#45; __Block_Inport__ -->
<g id="node32" class="node"><title>31 &#45; __Block_Inport__</title>
<ellipse fill="#b94a62" stroke="black" cx="587" cy="-93" rx="118.087" ry="18.3848"/>
<text text-anchor="middle" x="587" y="-89.4" font-family="Times Roman,serif" font-size="14.00">31 &#45; __Block_Inport__</text>
</g>
<!-- 24 &#45; Port_Input&#45;&gt;31 &#45; __Block_Inport__ -->
<g id="edge62" class="edge"><title>24 &#45; Port_Input&#45;&gt;31 &#45; __Block_Inport__</title>
<path fill="none" stroke="black" d="M659.003,-149.087C646.816,-139.593 631.665,-127.792 618.41,-117.467"/>
<polygon fill="black" stroke="black" points="620.485,-114.646 610.445,-111.262 616.183,-120.169 620.485,-114.646"/>
</g>
<!-- 25 &#45; Port_Input -->
<g id="node26" class="node"><title>25 &#45; Port_Input</title>
<ellipse fill="lightyellow" stroke="black" cx="732" cy="-611" rx="85.7684" ry="18.3848"/>
<text text-anchor="middle" x="732" y="-607.4" font-family="Times Roman,serif" font-size="14.00">25 &#45; Port_Input</text>
</g>
<!-- 32 &#45; __Block_Inport__ -->
<g id="node33" class="node"><title>32 &#45; __Block_Inport__</title>
<ellipse fill="#b94a62" stroke="black" cx="732" cy="-537" rx="118.087" ry="18.3848"/>
<text text-anchor="middle" x="732" y="-533.4" font-family="Times Roman,serif" font-size="14.00">32 &#45; __Block_Inport__</text>
</g>
<!-- 25 &#45; Port_Input&#45;&gt;32 &#45; __Block_Inport__ -->
<g id="edge64" class="edge"><title>25 &#45; Port_Input&#45;&gt;32 &#45; __Block_Inport__</title>
<path fill="none" stroke="black" d="M732,-592.327C732,-584.264 732,-574.648 732,-565.711"/>
<polygon fill="black" stroke="black" points="735.5,-565.667 732,-555.667 728.5,-565.667 735.5,-565.667"/>
</g>
<!-- 26 &#45; Port_Input -->
<g id="node27" class="node"><title>26 &#45; Port_Input</title>
<ellipse fill="lightyellow" stroke="black" cx="376" cy="-1967" rx="85.0596" ry="18.3848"/>
<text text-anchor="middle" x="376" y="-1963.4" font-family="Times Roman,serif" font-size="14.00">26 &#45; Port_Input</text>
</g>
<!-- 33 &#45; __Block_Inport__ -->
<g id="node34" class="node"><title>33 &#45; __Block_Inport__</title>
<ellipse fill="#b94a62" stroke="black" cx="423" cy="-1893" rx="116.88" ry="18.3848"/>
<text text-anchor="middle" x="423" y="-1889.4" font-family="Times Roman,serif" font-size="14.00">33 &#45; __Block_Inport__</text>
</g>
<!-- 26 &#45; Port_Input&#45;&gt;33 &#45; __Block_Inport__ -->
<g id="edge66" class="edge"><title>26 &#45; Port_Input&#45;&gt;33 &#45; __Block_Inport__</title>
<path fill="none" stroke="black" d="M387.86,-1948.33C393.301,-1939.76 399.855,-1929.44 405.821,-1920.05"/>
<polygon fill="black" stroke="black" points="408.9,-1921.73 411.307,-1911.41 402.991,-1917.98 408.9,-1921.73"/>
</g>
<!-- 27 &#45; __Block_Inport__&#45;&gt;5 &#45; Outport -->
<g id="edge68" class="edge"><title>27 &#45; __Block_Inport__&#45;&gt;5 &#45; Outport</title>
<path fill="none" stroke="black" d="M789.307,-78.38C720.888,-64.8061 620.023,-44.7954 554.66,-31.8281"/>
<polygon fill="black" stroke="black" points="554.975,-28.3224 544.485,-29.8094 553.613,-35.1886 554.975,-28.3224"/>
</g>
<!-- 28 &#45; __Block_Inport__&#45;&gt;1 &#45; Product -->
<g id="edge70" class="edge"><title>28 &#45; __Block_Inport__&#45;&gt;1 &#45; Product</title>
<path fill="none" stroke="black" d="M561.092,-1480.55C576.548,-1454.85 604.675,-1408.08 622.569,-1378.32"/>
<polygon fill="black" stroke="black" points="625.614,-1380.05 627.768,-1369.68 619.615,-1376.44 625.614,-1380.05"/>
</g>
<!-- 29 &#45; __Block_Inport__&#45;&gt;1 &#45; Product -->
<g id="edge72" class="edge"><title>29 &#45; __Block_Inport__&#45;&gt;1 &#45; Product</title>
<path fill="none" stroke="black" d="M436.058,-1408.76C479.465,-1396.41 538.914,-1379.49 582.246,-1367.15"/>
<polygon fill="black" stroke="black" points="583.403,-1370.46 592.063,-1364.36 581.487,-1363.73 583.403,-1370.46"/>
</g>
<!-- 30 &#45; __Block_Inport__&#45;&gt;2 &#45; Sum -->
<g id="edge74" class="edge"><title>30 &#45; __Block_Inport__&#45;&gt;2 &#45; Sum</title>
<path fill="none" stroke="black" d="M671.337,-962.327C675.531,-953.937 680.567,-943.866 685.185,-934.629"/>
<polygon fill="black" stroke="black" points="688.453,-935.921 689.794,-925.411 682.192,-932.79 688.453,-935.921"/>
</g>
<!-- 31 &#45; __Block_Inport__&#45;&gt;2 &#45; Sum -->
<g id="edge76" class="edge"><title>31 &#45; __Block_Inport__&#45;&gt;2 &#45; Sum</title>
<path fill="none" stroke="black" d="M582.027,-111.534C574.997,-139.41 563,-193.886 563,-241 563,-759 563,-759 563,-759 563,-801.187 555.92,-818.84 582,-852 598.087,-872.454 623.6,-885.662 646.701,-893.992"/>
<polygon fill="black" stroke="black" points="645.826,-897.391 656.42,-897.271 648.063,-890.758 645.826,-897.391"/>
</g>
<!-- 32 &#45; __Block_Inport__&#45;&gt;3 &#45; UnitDelay -->
<g id="edge78" class="edge"><title>32 &#45; __Block_Inport__&#45;&gt;3 &#45; UnitDelay</title>
<path fill="none" stroke="black" d="M732,-518.327C732,-510.264 732,-500.648 732,-491.711"/>
<polygon fill="black" stroke="black" points="735.5,-491.667 732,-481.667 728.5,-491.667 735.5,-491.667"/>
</g>
<!-- 33 &#45; __Block_Inport__&#45;&gt;4 &#45; Gain\n Gain = 0.01 -->
<g id="edge80" class="edge"><title>33 &#45; __Block_Inport__&#45;&gt;4 &#45; Gain\n Gain = 0.01</title>
<path fill="none" stroke="black" d="M402.853,-1874.76C392.389,-1865.29 379.238,-1853.38 366.89,-1842.21"/>
<polygon fill="black" stroke="black" points="369.099,-1839.48 359.337,-1835.37 364.402,-1844.67 369.099,-1839.48"/>
</g>
<!-- 34 &#45; __Relation__&#45;&gt;24 &#45; Port_Input -->
<g id="edge82" class="edge"><title>34 &#45; __Relation__&#45;&gt;24 &#45; Port_Input</title>
<path fill="none" stroke="black" d="M686.486,-222.327C685.832,-214.264 685.053,-204.648 684.328,-195.711"/>
<polygon fill="black" stroke="black" points="687.81,-195.352 683.514,-185.667 680.833,-195.918 687.81,-195.352"/>
</g>
<!-- 35 &#45; __Relation__&#45;&gt;20 &#45; Port_Input -->
<g id="edge84" class="edge"><title>35 &#45; __Relation__&#45;&gt;20 &#45; Port_Input</title>
<path fill="none" stroke="black" d="M896.215,-222.327C894.581,-214.264 892.631,-204.648 890.82,-195.711"/>
<polygon fill="black" stroke="black" points="894.201,-194.773 888.784,-185.667 887.34,-196.163 894.201,-194.773"/>
</g>
<!-- 36 &#45; __Relation__&#45;&gt;25 &#45; Port_Input -->
<g id="edge86" class="edge"><title>36 &#45; __Relation__&#45;&gt;25 &#45; Port_Input</title>
<path fill="none" stroke="black" d="M732,-666.327C732,-658.264 732,-648.648 732,-639.711"/>
<polygon fill="black" stroke="black" points="735.5,-639.667 732,-629.667 728.5,-639.667 735.5,-639.667"/>
</g>
<!-- 37 &#45; __Relation__&#45;&gt;23 &#45; Port_Input -->
<g id="edge88" class="edge"><title>37 &#45; __Relation__&#45;&gt;23 &#45; Port_Input</title>
<path fill="none" stroke="black" d="M654.757,-1110.33C655.084,-1102.26 655.474,-1092.65 655.836,-1083.71"/>
<polygon fill="black" stroke="black" points="659.335,-1083.8 656.243,-1073.67 652.341,-1083.52 659.335,-1083.8"/>
</g>
<!-- 38 &#45; __Relation__&#45;&gt;22 &#45; Port_Input -->
<g id="edge90" class="edge"><title>38 &#45; __Relation__&#45;&gt;22 &#45; Port_Input</title>
<path fill="none" stroke="black" d="M328,-1554.33C328,-1546.26 328,-1536.65 328,-1527.71"/>
<polygon fill="black" stroke="black" points="331.5,-1527.67 328,-1517.67 324.5,-1527.67 331.5,-1527.67"/>
</g>
<!-- 39 &#45; __Relation__&#45;&gt;21 &#45; Port_Input -->
<g id="edge92" class="edge"><title>39 &#45; __Relation__&#45;&gt;21 &#45; Port_Input</title>
<path fill="none" stroke="black" d="M591.701,-2022.33C589.388,-2014.18 586.624,-2004.44 584.065,-1995.42"/>
<polygon fill="black" stroke="black" points="587.395,-1994.33 581.297,-1985.67 580.661,-1996.24 587.395,-1994.33"/>
</g>
<!-- 40 &#45; __Relation__&#45;&gt;26 &#45; Port_Input -->
<g id="edge94" class="edge"><title>40 &#45; __Relation__&#45;&gt;26 &#45; Port_Input</title>
<path fill="none" stroke="black" d="M372.262,-2022.33C372.806,-2014.26 373.456,-2004.65 374.06,-1995.71"/>
<polygon fill="black" stroke="black" points="377.556,-1995.88 374.739,-1985.67 370.572,-1995.41 377.556,-1995.88"/>
</g>
<!-- 41 &#45; __Contains__&#45;&gt;1 &#45; Product -->
<g id="edge96" class="edge"><title>41 &#45; __Contains__&#45;&gt;1 &#45; Product</title>
<path fill="none" stroke="black" d="M696,-1702.31C696,-1674.23 696,-1619.51 696,-1573 696,-1573 696,-1573 696,-1499 696,-1454.28 673.055,-1406.73 656.281,-1377.94"/>
<polygon fill="black" stroke="black" points="659.233,-1376.06 651.088,-1369.28 653.229,-1379.66 659.233,-1376.06"/>
</g>
<!-- 42 &#45; __Contains__&#45;&gt;2 &#45; Sum -->
<g id="edge98" class="edge"><title>42 &#45; __Contains__&#45;&gt;2 &#45; Sum</title>
<path fill="none" stroke="black" d="M819.892,-1628.37C815.498,-1600.37 808,-1545.75 808,-1499 808,-1499 808,-1499 808,-1055 808,-1012.72 812.377,-996.543 788,-962 776.778,-946.098 759.357,-933.872 742.892,-925.03"/>
<polygon fill="black" stroke="black" points="744.391,-921.866 733.889,-920.465 741.225,-928.109 744.391,-921.866"/>
</g>
<!-- 43 &#45; __Contains__&#45;&gt;3 &#45; UnitDelay -->
<g id="edge100" class="edge"><title>43 &#45; __Contains__&#45;&gt;3 &#45; UnitDelay</title>
<path fill="none" stroke="black" d="M929.033,-1554.44C915.236,-1526.98 892,-1473.53 892,-1425 892,-1425 892,-1425 892,-611 892,-567.142 888.945,-550.044 859,-518 842.423,-500.261 819.146,-487.957 797.041,-479.56"/>
<polygon fill="black" stroke="black" points="797.924,-476.159 787.33,-476.085 795.565,-482.75 797.924,-476.159"/>
</g>
<!-- 44 &#45; __Contains__&#45;&gt;5 &#45; Outport -->
<g id="edge102" class="edge"><title>44 &#45; __Contains__&#45;&gt;5 &#45; Outport</title>
<path fill="none" stroke="black" d="M102.471,-1788.36C107.701,-1758.59 117,-1698.43 117,-1647 117,-1647 117,-1647 117,-167 117,-101.787 316.476,-52.8046 423.678,-31.1896"/>
<polygon fill="black" stroke="black" points="424.63,-34.5688 433.754,-29.1836 423.263,-27.7035 424.63,-34.5688"/>
</g>
<!-- 45 &#45; __Contains__&#45;&gt;0 &#45; Constant\n Value = 1.0 -->
<g id="edge104" class="edge"><title>45 &#45; __Contains__&#45;&gt;0 &#45; Constant\n Value = 1.0</title>
<path fill="none" stroke="black" d="M369.745,-2342.34C368.391,-2334.58 366.762,-2325.23 365.154,-2316.01"/>
<polygon fill="black" stroke="black" points="368.597,-2315.39 363.431,-2306.14 361.701,-2316.59 368.597,-2315.39"/>
</g>
<!-- 46 &#45; __Contains__&#45;&gt;7 &#45; Inport -->
<g id="edge106" class="edge"><title>46 &#45; __Contains__&#45;&gt;7 &#45; Inport</title>
<path fill="none" stroke="black" d="M617,-2342.34C617,-2331.07 617,-2316.47 617,-2303.75"/>
<polygon fill="black" stroke="black" points="620.5,-2303.62 617,-2293.62 613.5,-2303.62 620.5,-2303.62"/>
</g>
<!-- 47 &#45; __Contains__&#45;&gt;4 &#45; Gain\n Gain = 0.01 -->
<g id="edge108" class="edge"><title>47 &#45; __Contains__&#45;&gt;4 &#45; Gain\n Gain = 0.01</title>
<path fill="none" stroke="black" d="M217.008,-1875.18C234.528,-1864.42 257.338,-1850.41 277.719,-1837.89"/>
<polygon fill="black" stroke="black" points="279.594,-1840.84 286.283,-1832.63 275.93,-1834.88 279.594,-1840.84"/>
</g>
</g>
</svg>
