<?xml version="1.0" encoding="UTF-8" standalone="no"?>
<!DOCTYPE svg PUBLIC "-//W3C//DTD SVG 1.1//EN"
 "http://www.w3.org/Graphics/SVG/1.1/DTD/svg11.dtd">
<!-- Generated by graphviz version 2.36.0 (20140111.2315)
 -->
<!-- Title: HConstfolding_opt Pages: 1 -->
<svg width="975pt" height="2402pt"
 viewBox="0.00 0.00 975.00 2402.00" xmlns="http://www.w3.org/2000/svg" xmlns:xlink="http://www.w3.org/1999/xlink">
<g id="graph0" class="graph" transform="scale(1 1) rotate(0) translate(4 2398)">
<title>HConstfolding_opt</title>
<polygon fill="white" stroke="none" points="-4,4 -4,-2398 971,-2398 971,4 -4,4"/>
<!-- 0 &#45; Outport -->
<g id="node1" class="node"><title>0 &#45; Outport</title>
<ellipse fill="#eedd82" stroke="black" cx="136" cy="-18" rx="50.0684" ry="18"/>
<text text-anchor="middle" x="136" y="-14.3" font-family="Times,serif" font-size="14.00">0 &#45; Outport</text>
</g>
<!-- 1 &#45; Product -->
<g id="node2" class="node"><title>1 &#45; Product</title>
<ellipse fill="lightblue" stroke="black" cx="476" cy="-1350" rx="50.0684" ry="18"/>
<text text-anchor="middle" x="476" y="-1346.3" font-family="Times,serif" font-size="14.00">1 &#45; Product</text>
</g>
<!-- 34 &#45; __Block_Outport__ -->
<g id="node35" class="node"><title>34 &#45; __Block_Outport__</title>
<ellipse fill="#b94a62" stroke="black" cx="476" cy="-1278" rx="97.237" ry="18"/>
<text text-anchor="middle" x="476" y="-1274.3" font-family="Times,serif" font-size="14.00">34 &#45; __Block_Outport__</text>
</g>
<!-- 1 &#45; Product&#45;&gt;34 &#45; __Block_Outport__ -->
<g id="edge1" class="edge"><title>1 &#45; Product&#45;&gt;34 &#45; __Block_Outport__</title>
<path fill="none" stroke="black" d="M476,-1331.7C476,-1323.98 476,-1314.71 476,-1306.11"/>
<polygon fill="black" stroke="black" points="479.5,-1306.1 476,-1296.1 472.5,-1306.1 479.5,-1306.1"/>
</g>
<!-- 2 &#45; SubSystem -->
<g id="node3" class="node"><title>2 &#45; SubSystem</title>
<ellipse fill="lightgreen" stroke="black" cx="396" cy="-2376" rx="63.0666" ry="18"/>
<text text-anchor="middle" x="396" y="-2372.3" font-family="Times,serif" font-size="14.00">2 &#45; SubSystem</text>
</g>
<!-- 21 &#45; __Contains__ -->
<g id="node22" class="node"><title>21 &#45; __Contains__</title>
<ellipse fill="lightgray" stroke="black" cx="284" cy="-1278" rx="76.0649" ry="18"/>
<text text-anchor="middle" x="284" y="-1274.3" font-family="Times,serif" font-size="14.00">21 &#45; __Contains__</text>
</g>
<!-- 2 &#45; SubSystem&#45;&gt;21 &#45; __Contains__ -->
<g id="edge9" class="edge"><title>2 &#45; SubSystem&#45;&gt;21 &#45; __Contains__</title>
<path fill="none" stroke="black" d="M356.937,-2361.75C304.54,-2341.21 218,-2296.34 218,-2224 218,-2224 218,-2224 218,-1421 218,-1376.6 244.864,-1331.06 264.314,-1303.9"/>
<polygon fill="black" stroke="black" points="267.204,-1305.88 270.325,-1295.75 261.571,-1301.72 267.204,-1305.88"/>
</g>
<!-- 22 &#45; __Contains__ -->
<g id="node23" class="node"><title>22 &#45; __Contains__</title>
<ellipse fill="lightgray" stroke="black" cx="76" cy="-1350" rx="76.0649" ry="18"/>
<text text-anchor="middle" x="76" y="-1346.3" font-family="Times,serif" font-size="14.00">22 &#45; __Contains__</text>
</g>
<!-- 2 &#45; SubSystem&#45;&gt;22 &#45; __Contains__ -->
<g id="edge8" class="edge"><title>2 &#45; SubSystem&#45;&gt;22 &#45; __Contains__</title>
<path fill="none" stroke="black" d="M333.294,-2373.84C283.593,-2369.99 214.651,-2357.86 166,-2322 125.442,-2292.1 109,-2274.39 109,-2224 109,-2224 109,-2224 109,-1493 109,-1451.97 95.7698,-1405.97 86.0636,-1377.74"/>
<polygon fill="black" stroke="black" points="89.3172,-1376.45 82.678,-1368.19 82.7192,-1378.78 89.3172,-1376.45"/>
</g>
<!-- 23 &#45; __Contains__ -->
<g id="node24" class="node"><title>23 &#45; __Contains__</title>
<ellipse fill="lightgray" stroke="black" cx="322" cy="-2223" rx="76.0649" ry="18"/>
<text text-anchor="middle" x="322" y="-2219.3" font-family="Times,serif" font-size="14.00">23 &#45; __Contains__</text>
</g>
<!-- 2 &#45; SubSystem&#45;&gt;23 &#45; __Contains__ -->
<g id="edge7" class="edge"><title>2 &#45; SubSystem&#45;&gt;23 &#45; __Contains__</title>
<path fill="none" stroke="black" d="M387.655,-2357.97C374.831,-2331.8 350.172,-2281.49 334.995,-2250.52"/>
<polygon fill="black" stroke="black" points="337.972,-2248.64 330.428,-2241.2 331.686,-2251.72 337.972,-2248.64"/>
</g>
<!-- 24 &#45; __Contains__ -->
<g id="node25" class="node"><title>24 &#45; __Contains__</title>
<ellipse fill="lightgray" stroke="black" cx="180" cy="-1206" rx="76.0649" ry="18"/>
<text text-anchor="middle" x="180" y="-1202.3" font-family="Times,serif" font-size="14.00">24 &#45; __Contains__</text>
</g>
<!-- 2 &#45; SubSystem&#45;&gt;24 &#45; __Contains__ -->
<g id="edge6" class="edge"><title>2 &#45; SubSystem&#45;&gt;24 &#45; __Contains__</title>
<path fill="none" stroke="black" d="M342.412,-2366.34C310.044,-2358.93 269.49,-2345.58 240,-2322 200.112,-2290.11 180,-2275.07 180,-2224 180,-2224 180,-2224 180,-1349 180,-1309 180,-1262.65 180,-1234.08"/>
<polygon fill="black" stroke="black" points="183.5,-1234.05 180,-1224.05 176.5,-1234.05 183.5,-1234.05"/>
</g>
<!-- 25 &#45; __Contains__ -->
<g id="node26" class="node"><title>25 &#45; __Contains__</title>
<ellipse fill="lightgray" stroke="black" cx="459" cy="-2304" rx="76.0649" ry="18"/>
<text text-anchor="middle" x="459" y="-2300.3" font-family="Times,serif" font-size="14.00">25 &#45; __Contains__</text>
</g>
<!-- 2 &#45; SubSystem&#45;&gt;25 &#45; __Contains__ -->
<g id="edge5" class="edge"><title>2 &#45; SubSystem&#45;&gt;25 &#45; __Contains__</title>
<path fill="none" stroke="black" d="M410.93,-2358.41C418.662,-2349.82 428.257,-2339.16 436.835,-2329.63"/>
<polygon fill="black" stroke="black" points="439.651,-2331.73 443.739,-2321.96 434.448,-2327.05 439.651,-2331.73"/>
</g>
<!-- 26 &#45; __Contains__ -->
<g id="node27" class="node"><title>26 &#45; __Contains__</title>
<ellipse fill="lightgray" stroke="black" cx="586" cy="-2070" rx="76.0649" ry="18"/>
<text text-anchor="middle" x="586" y="-2066.3" font-family="Times,serif" font-size="14.00">26 &#45; __Contains__</text>
</g>
<!-- 2 &#45; SubSystem&#45;&gt;26 &#45; __Contains__ -->
<g id="edge4" class="edge"><title>2 &#45; SubSystem&#45;&gt;26 &#45; __Contains__</title>
<path fill="none" stroke="black" d="M453.562,-2368.52C484.881,-2361.95 521.68,-2348.7 544,-2322 598.389,-2256.95 594.834,-2148.37 589.646,-2098.08"/>
<polygon fill="black" stroke="black" points="593.107,-2097.53 588.5,-2087.99 586.152,-2098.32 593.107,-2097.53"/>
</g>
<!-- 27 &#45; __Contains__ -->
<g id="node28" class="node"><title>27 &#45; __Contains__</title>
<ellipse fill="lightgray" stroke="black" cx="686" cy="-2304" rx="76.0649" ry="18"/>
<text text-anchor="middle" x="686" y="-2300.3" font-family="Times,serif" font-size="14.00">27 &#45; __Contains__</text>
</g>
<!-- 2 &#45; SubSystem&#45;&gt;27 &#45; __Contains__ -->
<g id="edge3" class="edge"><title>2 &#45; SubSystem&#45;&gt;27 &#45; __Contains__</title>
<path fill="none" stroke="black" d="M442.594,-2363.75C492.032,-2351.82 570.37,-2332.91 624.768,-2319.78"/>
<polygon fill="black" stroke="black" points="625.734,-2323.15 634.634,-2317.4 624.092,-2316.34 625.734,-2323.15"/>
</g>
<!-- 28 &#45; __Contains__ -->
<g id="node29" class="node"><title>28 &#45; __Contains__</title>
<ellipse fill="lightgray" stroke="black" cx="891" cy="-2142" rx="76.0649" ry="18"/>
<text text-anchor="middle" x="891" y="-2138.3" font-family="Times,serif" font-size="14.00">28 &#45; __Contains__</text>
</g>
<!-- 2 &#45; SubSystem&#45;&gt;28 &#45; __Contains__ -->
<g id="edge2" class="edge"><title>2 &#45; SubSystem&#45;&gt;28 &#45; __Contains__</title>
<path fill="none" stroke="black" d="M458.036,-2372.31C550.773,-2367.28 720.107,-2353.93 771,-2322 828.995,-2285.61 865.394,-2209.79 881.438,-2169.49"/>
<polygon fill="black" stroke="black" points="884.743,-2170.65 885.079,-2160.06 878.213,-2168.13 884.743,-2170.65"/>
</g>
<!-- 3 &#45; UnitDelay -->
<g id="node4" class="node"><title>3 &#45; UnitDelay</title>
<ellipse fill="lightblue" stroke="black" cx="476" cy="-1782" rx="59.1941" ry="18"/>
<text text-anchor="middle" x="476" y="-1778.3" font-family="Times,serif" font-size="14.00">3 &#45; UnitDelay</text>
</g>
<!-- 39 &#45; __Block_Outport__ -->
<g id="node40" class="node"><title>39 &#45; __Block_Outport__</title>
<ellipse fill="#b94a62" stroke="black" cx="476" cy="-1710" rx="97.237" ry="18"/>
<text text-anchor="middle" x="476" y="-1706.3" font-family="Times,serif" font-size="14.00">39 &#45; __Block_Outport__</text>
</g>
<!-- 3 &#45; UnitDelay&#45;&gt;39 &#45; __Block_Outport__ -->
<g id="edge10" class="edge"><title>3 &#45; UnitDelay&#45;&gt;39 &#45; __Block_Outport__</title>
<path fill="none" stroke="black" d="M476,-1763.7C476,-1755.98 476,-1746.71 476,-1738.11"/>
<polygon fill="black" stroke="black" points="479.5,-1738.1 476,-1728.1 472.5,-1738.1 479.5,-1738.1"/>
</g>
<!-- 4 &#45; UnitDelay -->
<g id="node5" class="node"><title>4 &#45; UnitDelay</title>
<ellipse fill="lightblue" stroke="black" cx="751" cy="-1782" rx="59.1941" ry="18"/>
<text text-anchor="middle" x="751" y="-1778.3" font-family="Times,serif" font-size="14.00">4 &#45; UnitDelay</text>
</g>
<!-- 42 &#45; __Block_Outport__ -->
<g id="node43" class="node"><title>42 &#45; __Block_Outport__</title>
<ellipse fill="#b94a62" stroke="black" cx="720" cy="-1710" rx="97.237" ry="18"/>
<text text-anchor="middle" x="720" y="-1706.3" font-family="Times,serif" font-size="14.00">42 &#45; __Block_Outport__</text>
</g>
<!-- 4 &#45; UnitDelay&#45;&gt;42 &#45; __Block_Outport__ -->
<g id="edge11" class="edge"><title>4 &#45; UnitDelay&#45;&gt;42 &#45; __Block_Outport__</title>
<path fill="none" stroke="black" d="M743.496,-1764.05C739.969,-1756.09 735.682,-1746.41 731.74,-1737.51"/>
<polygon fill="black" stroke="black" points="734.9,-1736 727.65,-1728.28 728.5,-1738.84 734.9,-1736"/>
</g>
<!-- 5 &#45; Gain\n Gain = 1.0 -->
<g id="node6" class="node"><title>5 &#45; Gain\n Gain = 1.0</title>
<ellipse fill="lightblue" stroke="black" cx="305" cy="-909" rx="56.3526" ry="26.7407"/>
<text text-anchor="middle" x="305" y="-912.8" font-family="Times,serif" font-size="14.00">5 &#45; Gain</text>
<text text-anchor="middle" x="305" y="-897.8" font-family="Times,serif" font-size="14.00"> Gain = 1.0</text>
</g>
<!-- 30 &#45; __Block_Outport__ -->
<g id="node31" class="node"><title>30 &#45; __Block_Outport__</title>
<ellipse fill="#b94a62" stroke="black" cx="305" cy="-828" rx="97.237" ry="18"/>
<text text-anchor="middle" x="305" y="-824.3" font-family="Times,serif" font-size="14.00">30 &#45; __Block_Outport__</text>
</g>
<!-- 5 &#45; Gain\n Gain = 1.0&#45;&gt;30 &#45; __Block_Outport__ -->
<g id="edge12" class="edge"><title>5 &#45; Gain\n Gain = 1.0&#45;&gt;30 &#45; __Block_Outport__</title>
<path fill="none" stroke="black" d="M305,-881.694C305,-873.58 305,-864.626 305,-856.438"/>
<polygon fill="black" stroke="black" points="308.5,-856.248 305,-846.248 301.5,-856.248 308.5,-856.248"/>
</g>
<!-- 6 &#45; Gain\n Gain = 1.0 -->
<g id="node7" class="node"><title>6 &#45; Gain\n Gain = 1.0</title>
<ellipse fill="lightblue" stroke="black" cx="201" cy="-459" rx="56.3526" ry="26.7407"/>
<text text-anchor="middle" x="201" y="-462.8" font-family="Times,serif" font-size="14.00">6 &#45; Gain</text>
<text text-anchor="middle" x="201" y="-447.8" font-family="Times,serif" font-size="14.00"> Gain = 1.0</text>
</g>
<!-- 36 &#45; __Block_Outport__ -->
<g id="node37" class="node"><title>36 &#45; __Block_Outport__</title>
<ellipse fill="#b94a62" stroke="black" cx="201" cy="-378" rx="97.237" ry="18"/>
<text text-anchor="middle" x="201" y="-374.3" font-family="Times,serif" font-size="14.00">36 &#45; __Block_Outport__</text>
</g>
<!-- 6 &#45; Gain\n Gain = 1.0&#45;&gt;36 &#45; __Block_Outport__ -->
<g id="edge13" class="edge"><title>6 &#45; Gain\n Gain = 1.0&#45;&gt;36 &#45; __Block_Outport__</title>
<path fill="none" stroke="black" d="M201,-431.694C201,-423.58 201,-414.626 201,-406.438"/>
<polygon fill="black" stroke="black" points="204.5,-406.248 201,-396.248 197.5,-406.248 204.5,-406.248"/>
</g>
<!-- 7 &#45; Port_Input -->
<g id="node8" class="node"><title>7 &#45; Port_Input</title>
<ellipse fill="lightyellow" stroke="black" cx="439" cy="-1062" rx="60.1672" ry="18"/>
<text text-anchor="middle" x="439" y="-1058.3" font-family="Times,serif" font-size="14.00">7 &#45; Port_Input</text>
</g>
<!-- 29 &#45; __Block_Inport__ -->
<g id="node30" class="node"><title>29 &#45; __Block_Inport__</title>
<ellipse fill="#b94a62" stroke="black" cx="426" cy="-990" rx="91.4625" ry="18"/>
<text text-anchor="middle" x="426" y="-986.3" font-family="Times,serif" font-size="14.00">29 &#45; __Block_Inport__</text>
</g>
<!-- 7 &#45; Port_Input&#45;&gt;29 &#45; __Block_Inport__ -->
<g id="edge14" class="edge"><title>7 &#45; Port_Input&#45;&gt;29 &#45; __Block_Inport__</title>
<path fill="none" stroke="black" d="M435.787,-1043.7C434.354,-1035.98 432.632,-1026.71 431.035,-1018.11"/>
<polygon fill="black" stroke="black" points="434.444,-1017.3 429.177,-1008.1 427.561,-1018.58 434.444,-1017.3"/>
</g>
<!-- 8 &#45; Port_Output -->
<g id="node9" class="node"><title>8 &#45; Port_Output</title>
<ellipse fill="coral" stroke="black" cx="304" cy="-756" rx="65.9423" ry="18"/>
<text text-anchor="middle" x="304" y="-752.3" font-family="Times,serif" font-size="14.00">8 &#45; Port_Output</text>
</g>
<!-- 44 &#45; __Relation__ -->
<g id="node45" class="node"><title>44 &#45; __Relation__</title>
<ellipse fill="#f78465" stroke="black" cx="302" cy="-684" rx="74.6146" ry="18"/>
<text text-anchor="middle" x="302" y="-680.3" font-family="Times,serif" font-size="14.00">44 &#45; __Relation__</text>
</g>
<!-- 8 &#45; Port_Output&#45;&gt;44 &#45; __Relation__ -->
<g id="edge15" class="edge"><title>8 &#45; Port_Output&#45;&gt;44 &#45; __Relation__</title>
<path fill="none" stroke="black" d="M303.506,-737.697C303.285,-729.983 303.02,-720.712 302.775,-712.112"/>
<polygon fill="black" stroke="black" points="306.273,-712 302.489,-702.104 299.276,-712.2 306.273,-712"/>
</g>
<!-- 9 &#45; Port_Input -->
<g id="node10" class="node"><title>9 &#45; Port_Input</title>
<ellipse fill="lightyellow" stroke="black" cx="197" cy="-162" rx="60.1672" ry="18"/>
<text text-anchor="middle" x="197" y="-158.3" font-family="Times,serif" font-size="14.00">9 &#45; Port_Input</text>
</g>
<!-- 31 &#45; __Block_Inport__ -->
<g id="node32" class="node"><title>31 &#45; __Block_Inport__</title>
<ellipse fill="#b94a62" stroke="black" cx="196" cy="-90" rx="91.4625" ry="18"/>
<text text-anchor="middle" x="196" y="-86.3" font-family="Times,serif" font-size="14.00">31 &#45; __Block_Inport__</text>
</g>
<!-- 9 &#45; Port_Input&#45;&gt;31 &#45; __Block_Inport__ -->
<g id="edge16" class="edge"><title>9 &#45; Port_Input&#45;&gt;31 &#45; __Block_Inport__</title>
<path fill="none" stroke="black" d="M196.753,-143.697C196.643,-135.983 196.51,-126.712 196.387,-118.112"/>
<polygon fill="black" stroke="black" points="199.887,-118.053 196.244,-108.104 192.888,-118.153 199.887,-118.053"/>
</g>
<!-- 10 &#45; Port_Input -->
<g id="node11" class="node"><title>10 &#45; Port_Input</title>
<ellipse fill="lightyellow" stroke="black" cx="685" cy="-1494" rx="64.4914" ry="18"/>
<text text-anchor="middle" x="685" y="-1490.3" font-family="Times,serif" font-size="14.00">10 &#45; Port_Input</text>
</g>
<!-- 32 &#45; __Block_Inport__ -->
<g id="node33" class="node"><title>32 &#45; __Block_Inport__</title>
<ellipse fill="#b94a62" stroke="black" cx="680" cy="-1422" rx="91.4625" ry="18"/>
<text text-anchor="middle" x="680" y="-1418.3" font-family="Times,serif" font-size="14.00">32 &#45; __Block_Inport__</text>
</g>
<!-- 10 &#45; Port_Input&#45;&gt;32 &#45; __Block_Inport__ -->
<g id="edge17" class="edge"><title>10 &#45; Port_Input&#45;&gt;32 &#45; __Block_Inport__</title>
<path fill="none" stroke="black" d="M683.764,-1475.7C683.213,-1467.98 682.551,-1458.71 681.937,-1450.11"/>
<polygon fill="black" stroke="black" points="685.425,-1449.83 681.222,-1440.1 678.443,-1450.33 685.425,-1449.83"/>
</g>
<!-- 11 &#45; Port_Input -->
<g id="node12" class="node"><title>11 &#45; Port_Input</title>
<ellipse fill="lightyellow" stroke="black" cx="476" cy="-1494" rx="64.4914" ry="18"/>
<text text-anchor="middle" x="476" y="-1490.3" font-family="Times,serif" font-size="14.00">11 &#45; Port_Input</text>
</g>
<!-- 33 &#45; __Block_Inport__ -->
<g id="node34" class="node"><title>33 &#45; __Block_Inport__</title>
<ellipse fill="#b94a62" stroke="black" cx="476" cy="-1422" rx="91.4625" ry="18"/>
<text text-anchor="middle" x="476" y="-1418.3" font-family="Times,serif" font-size="14.00">33 &#45; __Block_Inport__</text>
</g>
<!-- 11 &#45; Port_Input&#45;&gt;33 &#45; __Block_Inport__ -->
<g id="edge18" class="edge"><title>11 &#45; Port_Input&#45;&gt;33 &#45; __Block_Inport__</title>
<path fill="none" stroke="black" d="M476,-1475.7C476,-1467.98 476,-1458.71 476,-1450.11"/>
<polygon fill="black" stroke="black" points="479.5,-1450.1 476,-1440.1 472.5,-1450.1 479.5,-1450.1"/>
</g>
<!-- 12 &#45; Port_Output -->
<g id="node13" class="node"><title>12 &#45; Port_Output</title>
<ellipse fill="coral" stroke="black" cx="470" cy="-1206" rx="70.2668" ry="18"/>
<text text-anchor="middle" x="470" y="-1202.3" font-family="Times,serif" font-size="14.00">12 &#45; Port_Output</text>
</g>
<!-- 45 &#45; __Relation__ -->
<g id="node46" class="node"><title>45 &#45; __Relation__</title>
<ellipse fill="#f78465" stroke="black" cx="464" cy="-1134" rx="74.6146" ry="18"/>
<text text-anchor="middle" x="464" y="-1130.3" font-family="Times,serif" font-size="14.00">45 &#45; __Relation__</text>
</g>
<!-- 12 &#45; Port_Output&#45;&gt;45 &#45; __Relation__ -->
<g id="edge19" class="edge"><title>12 &#45; Port_Output&#45;&gt;45 &#45; __Relation__</title>
<path fill="none" stroke="black" d="M468.517,-1187.7C467.856,-1179.98 467.061,-1170.71 466.324,-1162.11"/>
<polygon fill="black" stroke="black" points="469.807,-1161.77 465.466,-1152.1 462.833,-1162.37 469.807,-1161.77"/>
</g>
<!-- 13 &#45; Port_Input -->
<g id="node14" class="node"><title>13 &#45; Port_Input</title>
<ellipse fill="lightyellow" stroke="black" cx="301" cy="-612" rx="64.4914" ry="18"/>
<text text-anchor="middle" x="301" y="-608.3" font-family="Times,serif" font-size="14.00">13 &#45; Port_Input</text>
</g>
<!-- 35 &#45; __Block_Inport__ -->
<g id="node36" class="node"><title>35 &#45; __Block_Inport__</title>
<ellipse fill="#b94a62" stroke="black" cx="300" cy="-540" rx="91.4625" ry="18"/>
<text text-anchor="middle" x="300" y="-536.3" font-family="Times,serif" font-size="14.00">35 &#45; __Block_Inport__</text>
</g>
<!-- 13 &#45; Port_Input&#45;&gt;35 &#45; __Block_Inport__ -->
<g id="edge20" class="edge"><title>13 &#45; Port_Input&#45;&gt;35 &#45; __Block_Inport__</title>
<path fill="none" stroke="black" d="M300.753,-593.697C300.643,-585.983 300.51,-576.712 300.387,-568.112"/>
<polygon fill="black" stroke="black" points="303.887,-568.053 300.244,-558.104 296.888,-568.153 303.887,-568.053"/>
</g>
<!-- 14 &#45; Port_Output -->
<g id="node15" class="node"><title>14 &#45; Port_Output</title>
<ellipse fill="coral" stroke="black" cx="200" cy="-306" rx="70.2668" ry="18"/>
<text text-anchor="middle" x="200" y="-302.3" font-family="Times,serif" font-size="14.00">14 &#45; Port_Output</text>
</g>
<!-- 43 &#45; __Relation__ -->
<g id="node44" class="node"><title>43 &#45; __Relation__</title>
<ellipse fill="#f78465" stroke="black" cx="198" cy="-234" rx="74.6146" ry="18"/>
<text text-anchor="middle" x="198" y="-230.3" font-family="Times,serif" font-size="14.00">43 &#45; __Relation__</text>
</g>
<!-- 14 &#45; Port_Output&#45;&gt;43 &#45; __Relation__ -->
<g id="edge21" class="edge"><title>14 &#45; Port_Output&#45;&gt;43 &#45; __Relation__</title>
<path fill="none" stroke="black" d="M199.506,-287.697C199.285,-279.983 199.02,-270.712 198.775,-262.112"/>
<polygon fill="black" stroke="black" points="202.273,-262 198.489,-252.104 195.276,-262.2 202.273,-262"/>
</g>
<!-- 15 &#45; Port_Output -->
<g id="node16" class="node"><title>15 &#45; Port_Output</title>
<ellipse fill="coral" stroke="black" cx="421" cy="-2070" rx="70.2668" ry="18"/>
<text text-anchor="middle" x="421" y="-2066.3" font-family="Times,serif" font-size="14.00">15 &#45; Port_Output</text>
</g>
<!-- 48 &#45; __Relation__ -->
<g id="node49" class="node"><title>48 &#45; __Relation__</title>
<ellipse fill="#f78465" stroke="black" cx="428" cy="-1998" rx="74.6146" ry="18"/>
<text text-anchor="middle" x="428" y="-1994.3" font-family="Times,serif" font-size="14.00">48 &#45; __Relation__</text>
</g>
<!-- 15 &#45; Port_Output&#45;&gt;48 &#45; __Relation__ -->
<g id="edge22" class="edge"><title>15 &#45; Port_Output&#45;&gt;48 &#45; __Relation__</title>
<path fill="none" stroke="black" d="M422.73,-2051.7C423.502,-2043.98 424.429,-2034.71 425.289,-2026.11"/>
<polygon fill="black" stroke="black" points="428.777,-2026.4 426.29,-2016.1 421.812,-2025.71 428.777,-2026.4"/>
</g>
<!-- 16 &#45; Port_Input -->
<g id="node17" class="node"><title>16 &#45; Port_Input</title>
<ellipse fill="lightyellow" stroke="black" cx="438" cy="-1926" rx="64.4914" ry="18"/>
<text text-anchor="middle" x="438" y="-1922.3" font-family="Times,serif" font-size="14.00">16 &#45; Port_Input</text>
</g>
<!-- 38 &#45; __Block_Inport__ -->
<g id="node39" class="node"><title>38 &#45; __Block_Inport__</title>
<ellipse fill="#b94a62" stroke="black" cx="458" cy="-1854" rx="91.4625" ry="18"/>
<text text-anchor="middle" x="458" y="-1850.3" font-family="Times,serif" font-size="14.00">38 &#45; __Block_Inport__</text>
</g>
<!-- 16 &#45; Port_Input&#45;&gt;38 &#45; __Block_Inport__ -->
<g id="edge23" class="edge"><title>16 &#45; Port_Input&#45;&gt;38 &#45; __Block_Inport__</title>
<path fill="none" stroke="black" d="M442.944,-1907.7C445.172,-1899.9 447.855,-1890.51 450.335,-1881.83"/>
<polygon fill="black" stroke="black" points="453.731,-1882.68 453.113,-1872.1 447,-1880.76 453.731,-1882.68"/>
</g>
<!-- 17 &#45; Port_Output -->
<g id="node18" class="node"><title>17 &#45; Port_Output</title>
<ellipse fill="coral" stroke="black" cx="476" cy="-1638" rx="70.2668" ry="18"/>
<text text-anchor="middle" x="476" y="-1634.3" font-family="Times,serif" font-size="14.00">17 &#45; Port_Output</text>
</g>
<!-- 46 &#45; __Relation__ -->
<g id="node47" class="node"><title>46 &#45; __Relation__</title>
<ellipse fill="#f78465" stroke="black" cx="476" cy="-1566" rx="74.6146" ry="18"/>
<text text-anchor="middle" x="476" y="-1562.3" font-family="Times,serif" font-size="14.00">46 &#45; __Relation__</text>
</g>
<!-- 17 &#45; Port_Output&#45;&gt;46 &#45; __Relation__ -->
<g id="edge24" class="edge"><title>17 &#45; Port_Output&#45;&gt;46 &#45; __Relation__</title>
<path fill="none" stroke="black" d="M476,-1619.7C476,-1611.98 476,-1602.71 476,-1594.11"/>
<polygon fill="black" stroke="black" points="479.5,-1594.1 476,-1584.1 472.5,-1594.1 479.5,-1594.1"/>
</g>
<!-- 18 &#45; Port_Output -->
<g id="node19" class="node"><title>18 &#45; Port_Output</title>
<ellipse fill="coral" stroke="black" cx="751" cy="-2070" rx="70.2668" ry="18"/>
<text text-anchor="middle" x="751" y="-2066.3" font-family="Times,serif" font-size="14.00">18 &#45; Port_Output</text>
</g>
<!-- 49 &#45; __Relation__ -->
<g id="node50" class="node"><title>49 &#45; __Relation__</title>
<ellipse fill="#f78465" stroke="black" cx="751" cy="-1998" rx="74.6146" ry="18"/>
<text text-anchor="middle" x="751" y="-1994.3" font-family="Times,serif" font-size="14.00">49 &#45; __Relation__</text>
</g>
<!-- 18 &#45; Port_Output&#45;&gt;49 &#45; __Relation__ -->
<g id="edge25" class="edge"><title>18 &#45; Port_Output&#45;&gt;49 &#45; __Relation__</title>
<path fill="none" stroke="black" d="M751,-2051.7C751,-2043.98 751,-2034.71 751,-2026.11"/>
<polygon fill="black" stroke="black" points="754.5,-2026.1 751,-2016.1 747.5,-2026.1 754.5,-2026.1"/>
</g>
<!-- 19 &#45; Port_Input -->
<g id="node20" class="node"><title>19 &#45; Port_Input</title>
<ellipse fill="lightyellow" stroke="black" cx="751" cy="-1926" rx="64.4914" ry="18"/>
<text text-anchor="middle" x="751" y="-1922.3" font-family="Times,serif" font-size="14.00">19 &#45; Port_Input</text>
</g>
<!-- 41 &#45; __Block_Inport__ -->
<g id="node42" class="node"><title>41 &#45; __Block_Inport__</title>
<ellipse fill="#b94a62" stroke="black" cx="751" cy="-1854" rx="91.4625" ry="18"/>
<text text-anchor="middle" x="751" y="-1850.3" font-family="Times,serif" font-size="14.00">41 &#45; __Block_Inport__</text>
</g>
<!-- 19 &#45; Port_Input&#45;&gt;41 &#45; __Block_Inport__ -->
<g id="edge26" class="edge"><title>19 &#45; Port_Input&#45;&gt;41 &#45; __Block_Inport__</title>
<path fill="none" stroke="black" d="M751,-1907.7C751,-1899.98 751,-1890.71 751,-1882.11"/>
<polygon fill="black" stroke="black" points="754.5,-1882.1 751,-1872.1 747.5,-1882.1 754.5,-1882.1"/>
</g>
<!-- 20 &#45; Port_Output -->
<g id="node21" class="node"><title>20 &#45; Port_Output</title>
<ellipse fill="coral" stroke="black" cx="717" cy="-1638" rx="70.2668" ry="18"/>
<text text-anchor="middle" x="717" y="-1634.3" font-family="Times,serif" font-size="14.00">20 &#45; Port_Output</text>
</g>
<!-- 47 &#45; __Relation__ -->
<g id="node48" class="node"><title>47 &#45; __Relation__</title>
<ellipse fill="#f78465" stroke="black" cx="696" cy="-1566" rx="74.6146" ry="18"/>
<text text-anchor="middle" x="696" y="-1562.3" font-family="Times,serif" font-size="14.00">47 &#45; __Relation__</text>
</g>
<!-- 20 &#45; Port_Output&#45;&gt;47 &#45; __Relation__ -->
<g id="edge27" class="edge"><title>20 &#45; Port_Output&#45;&gt;47 &#45; __Relation__</title>
<path fill="none" stroke="black" d="M711.809,-1619.7C709.469,-1611.9 706.653,-1602.51 704.049,-1593.83"/>
<polygon fill="black" stroke="black" points="707.357,-1592.68 701.131,-1584.1 700.652,-1594.69 707.357,-1592.68"/>
</g>
<!-- 21 &#45; __Contains__&#45;&gt;5 &#45; Gain\n Gain = 1.0 -->
<g id="edge28" class="edge"><title>21 &#45; __Contains__&#45;&gt;5 &#45; Gain\n Gain = 1.0</title>
<path fill="none" stroke="black" d="M286.173,-1259.98C289.379,-1233.37 295,-1180.25 295,-1135 295,-1135 295,-1135 295,-1061 295,-1021.63 298.426,-976.622 301.267,-946.059"/>
<polygon fill="black" stroke="black" points="304.772,-946.171 302.241,-935.883 297.804,-945.504 304.772,-946.171"/>
</g>
<!-- 22 &#45; __Contains__&#45;&gt;0 &#45; Outport -->
<g id="edge29" class="edge"><title>22 &#45; __Contains__&#45;&gt;0 &#45; Outport</title>
<path fill="none" stroke="black" d="M76,-1331.95C76,-1305.29 76,-1252.11 76,-1207 76,-1207 76,-1207 76,-161 76,-120.553 77.9782,-108.691 95,-72 99.7489,-61.7637 106.785,-51.6754 113.694,-43.0925"/>
<polygon fill="black" stroke="black" points="116.434,-45.2723 120.2,-35.3692 111.081,-40.7625 116.434,-45.2723"/>
</g>
<!-- 23 &#45; __Contains__&#45;&gt;1 &#45; Product -->
<g id="edge30" class="edge"><title>23 &#45; __Contains__&#45;&gt;1 &#45; Product</title>
<path fill="none" stroke="black" d="M322,-2204.79C322,-2176.76 322,-2119.5 322,-2071 322,-2071 322,-2071 322,-1493 322,-1431.76 388.637,-1389.64 434.243,-1367.99"/>
<polygon fill="black" stroke="black" points="435.717,-1371.16 443.341,-1363.81 432.793,-1364.8 435.717,-1371.16"/>
</g>
<!-- 24 &#45; __Contains__&#45;&gt;6 &#45; Gain\n Gain = 1.0 -->
<g id="edge31" class="edge"><title>24 &#45; __Contains__&#45;&gt;6 &#45; Gain\n Gain = 1.0</title>
<path fill="none" stroke="black" d="M180,-1187.95C180,-1161.29 180,-1108.11 180,-1063 180,-1063 180,-1063 180,-611 180,-571.343 187.194,-526.38 193.161,-495.908"/>
<polygon fill="black" stroke="black" points="196.66,-496.261 195.206,-485.766 189.798,-494.877 196.66,-496.261"/>
</g>
<!-- 50 &#45; Constant\n Value = 36.6 -->
<g id="node51" class="node"><title>50 &#45; Constant\n Value = 36.6</title>
<ellipse fill="lightblue" stroke="black" cx="481" cy="-2223" rx="65.0808" ry="26.7407"/>
<text text-anchor="middle" x="481" y="-2226.8" font-family="Times,serif" font-size="14.00">50 &#45; Constant</text>
<text text-anchor="middle" x="481" y="-2211.8" font-family="Times,serif" font-size="14.00"> Value = 36.6</text>
</g>
<!-- 25 &#45; __Contains__&#45;&gt;50 &#45; Constant\n Value = 36.6 -->
<g id="edge32" class="edge"><title>25 &#45; __Contains__&#45;&gt;50 &#45; Constant\n Value = 36.6</title>
<path fill="none" stroke="black" d="M463.774,-2285.86C465.927,-2278.13 468.554,-2268.69 471.102,-2259.54"/>
<polygon fill="black" stroke="black" points="474.499,-2260.39 473.81,-2249.82 467.755,-2258.51 474.499,-2260.39"/>
</g>
<!-- 26 &#45; __Contains__&#45;&gt;3 &#45; UnitDelay -->
<g id="edge33" class="edge"><title>26 &#45; __Contains__&#45;&gt;3 &#45; UnitDelay</title>
<path fill="none" stroke="black" d="M588.569,-2051.89C593.787,-2011.04 601.706,-1905.98 558,-1836 548.853,-1821.36 534.004,-1809.97 519.437,-1801.58"/>
<polygon fill="black" stroke="black" points="520.92,-1798.4 510.458,-1796.73 517.596,-1804.56 520.92,-1798.4"/>
</g>
<!-- 51 &#45; Constant\n Value = 16.253 -->
<g id="node52" class="node"><title>51 &#45; Constant\n Value = 16.253</title>
<ellipse fill="lightblue" stroke="black" cx="692" cy="-2223" rx="74.4303" ry="26.7407"/>
<text text-anchor="middle" x="692" y="-2226.8" font-family="Times,serif" font-size="14.00">51 &#45; Constant</text>
<text text-anchor="middle" x="692" y="-2211.8" font-family="Times,serif" font-size="14.00"> Value = 16.253</text>
</g>
<!-- 27 &#45; __Contains__&#45;&gt;51 &#45; Constant\n Value = 16.253 -->
<g id="edge34" class="edge"><title>27 &#45; __Contains__&#45;&gt;51 &#45; Constant\n Value = 16.253</title>
<path fill="none" stroke="black" d="M687.302,-2285.86C687.872,-2278.36 688.563,-2269.25 689.239,-2260.36"/>
<polygon fill="black" stroke="black" points="692.748,-2260.36 690.016,-2250.13 685.768,-2259.83 692.748,-2260.36"/>
</g>
<!-- 28 &#45; __Contains__&#45;&gt;4 &#45; UnitDelay -->
<g id="edge35" class="edge"><title>28 &#45; __Contains__&#45;&gt;4 &#45; UnitDelay</title>
<path fill="none" stroke="black" d="M889.024,-2123.98C886.11,-2097.36 881,-2044.23 881,-1999 881,-1999 881,-1999 881,-1925 881,-1883.26 878.027,-1867.81 851,-1836 837.458,-1820.06 817.888,-1808.21 799.645,-1799.81"/>
<polygon fill="black" stroke="black" points="800.831,-1796.51 790.265,-1795.73 798.037,-1802.93 800.831,-1796.51"/>
</g>
<!-- 29 &#45; __Block_Inport__&#45;&gt;5 &#45; Gain\n Gain = 1.0 -->
<g id="edge36" class="edge"><title>29 &#45; __Block_Inport__&#45;&gt;5 &#45; Gain\n Gain = 1.0</title>
<path fill="none" stroke="black" d="M400.929,-972.631C385.105,-962.3 364.289,-948.709 346.092,-936.829"/>
<polygon fill="black" stroke="black" points="347.69,-933.692 337.403,-931.156 343.863,-939.554 347.69,-933.692"/>
</g>
<!-- 30 &#45; __Block_Outport__&#45;&gt;8 &#45; Port_Output -->
<g id="edge37" class="edge"><title>30 &#45; __Block_Outport__&#45;&gt;8 &#45; Port_Output</title>
<path fill="none" stroke="black" d="M304.753,-809.697C304.643,-801.983 304.51,-792.712 304.387,-784.112"/>
<polygon fill="black" stroke="black" points="307.887,-784.053 304.244,-774.104 300.888,-784.153 307.887,-784.053"/>
</g>
<!-- 31 &#45; __Block_Inport__&#45;&gt;0 &#45; Outport -->
<g id="edge38" class="edge"><title>31 &#45; __Block_Inport__&#45;&gt;0 &#45; Outport</title>
<path fill="none" stroke="black" d="M181.476,-72.055C173.997,-63.3303 164.752,-52.5444 156.555,-42.9808"/>
<polygon fill="black" stroke="black" points="159.143,-40.6218 149.977,-35.307 153.828,-45.1774 159.143,-40.6218"/>
</g>
<!-- 32 &#45; __Block_Inport__&#45;&gt;1 &#45; Product -->
<g id="edge39" class="edge"><title>32 &#45; __Block_Inport__&#45;&gt;1 &#45; Product</title>
<path fill="none" stroke="black" d="M636.487,-1406.07C602.406,-1394.37 555.167,-1378.17 520.768,-1366.36"/>
<polygon fill="black" stroke="black" points="521.577,-1362.94 510.982,-1363 519.305,-1369.56 521.577,-1362.94"/>
</g>
<!-- 33 &#45; __Block_Inport__&#45;&gt;1 &#45; Product -->
<g id="edge40" class="edge"><title>33 &#45; __Block_Inport__&#45;&gt;1 &#45; Product</title>
<path fill="none" stroke="black" d="M476,-1403.7C476,-1395.98 476,-1386.71 476,-1378.11"/>
<polygon fill="black" stroke="black" points="479.5,-1378.1 476,-1368.1 472.5,-1378.1 479.5,-1378.1"/>
</g>
<!-- 34 &#45; __Block_Outport__&#45;&gt;12 &#45; Port_Output -->
<g id="edge41" class="edge"><title>34 &#45; __Block_Outport__&#45;&gt;12 &#45; Port_Output</title>
<path fill="none" stroke="black" d="M474.517,-1259.7C473.856,-1251.98 473.061,-1242.71 472.324,-1234.11"/>
<polygon fill="black" stroke="black" points="475.807,-1233.77 471.466,-1224.1 468.833,-1234.37 475.807,-1233.77"/>
</g>
<!-- 35 &#45; __Block_Inport__&#45;&gt;6 &#45; Gain\n Gain = 1.0 -->
<g id="edge42" class="edge"><title>35 &#45; __Block_Inport__&#45;&gt;6 &#45; Gain\n Gain = 1.0</title>
<path fill="none" stroke="black" d="M279.005,-522.246C266.858,-512.554 251.238,-500.089 237.17,-488.863"/>
<polygon fill="black" stroke="black" points="239.104,-485.929 229.105,-482.427 234.738,-491.4 239.104,-485.929"/>
</g>
<!-- 36 &#45; __Block_Outport__&#45;&gt;14 &#45; Port_Output -->
<g id="edge43" class="edge"><title>36 &#45; __Block_Outport__&#45;&gt;14 &#45; Port_Output</title>
<path fill="none" stroke="black" d="M200.753,-359.697C200.643,-351.983 200.51,-342.712 200.387,-334.112"/>
<polygon fill="black" stroke="black" points="203.887,-334.053 200.244,-324.104 196.888,-334.153 203.887,-334.053"/>
</g>
<!-- 37 &#45; __Block_Outport__ -->
<g id="node38" class="node"><title>37 &#45; __Block_Outport__</title>
<ellipse fill="#b94a62" stroke="black" cx="448" cy="-2142" rx="97.237" ry="18"/>
<text text-anchor="middle" x="448" y="-2138.3" font-family="Times,serif" font-size="14.00">37 &#45; __Block_Outport__</text>
</g>
<!-- 37 &#45; __Block_Outport__&#45;&gt;15 &#45; Port_Output -->
<g id="edge44" class="edge"><title>37 &#45; __Block_Outport__&#45;&gt;15 &#45; Port_Output</title>
<path fill="none" stroke="black" d="M441.326,-2123.7C438.285,-2115.81 434.617,-2106.3 431.239,-2097.55"/>
<polygon fill="black" stroke="black" points="434.462,-2096.17 427.597,-2088.1 427.931,-2098.69 434.462,-2096.17"/>
</g>
<!-- 38 &#45; __Block_Inport__&#45;&gt;3 &#45; UnitDelay -->
<g id="edge45" class="edge"><title>38 &#45; __Block_Inport__&#45;&gt;3 &#45; UnitDelay</title>
<path fill="none" stroke="black" d="M462.449,-1835.7C464.455,-1827.9 466.869,-1818.51 469.101,-1809.83"/>
<polygon fill="black" stroke="black" points="472.501,-1810.66 471.602,-1800.1 465.722,-1808.92 472.501,-1810.66"/>
</g>
<!-- 39 &#45; __Block_Outport__&#45;&gt;17 &#45; Port_Output -->
<g id="edge46" class="edge"><title>39 &#45; __Block_Outport__&#45;&gt;17 &#45; Port_Output</title>
<path fill="none" stroke="black" d="M476,-1691.7C476,-1683.98 476,-1674.71 476,-1666.11"/>
<polygon fill="black" stroke="black" points="479.5,-1666.1 476,-1656.1 472.5,-1666.1 479.5,-1666.1"/>
</g>
<!-- 40 &#45; __Block_Outport__ -->
<g id="node41" class="node"><title>40 &#45; __Block_Outport__</title>
<ellipse fill="#b94a62" stroke="black" cx="699" cy="-2142" rx="97.237" ry="18"/>
<text text-anchor="middle" x="699" y="-2138.3" font-family="Times,serif" font-size="14.00">40 &#45; __Block_Outport__</text>
</g>
<!-- 40 &#45; __Block_Outport__&#45;&gt;18 &#45; Port_Output -->
<g id="edge47" class="edge"><title>40 &#45; __Block_Outport__&#45;&gt;18 &#45; Port_Output</title>
<path fill="none" stroke="black" d="M711.588,-2124.05C717.847,-2115.63 725.535,-2105.28 732.454,-2095.97"/>
<polygon fill="black" stroke="black" points="735.375,-2097.9 738.528,-2087.79 729.755,-2093.73 735.375,-2097.9"/>
</g>
<!-- 41 &#45; __Block_Inport__&#45;&gt;4 &#45; UnitDelay -->
<g id="edge48" class="edge"><title>41 &#45; __Block_Inport__&#45;&gt;4 &#45; UnitDelay</title>
<path fill="none" stroke="black" d="M751,-1835.7C751,-1827.98 751,-1818.71 751,-1810.11"/>
<polygon fill="black" stroke="black" points="754.5,-1810.1 751,-1800.1 747.5,-1810.1 754.5,-1810.1"/>
</g>
<!-- 42 &#45; __Block_Outport__&#45;&gt;20 &#45; Port_Output -->
<g id="edge49" class="edge"><title>42 &#45; __Block_Outport__&#45;&gt;20 &#45; Port_Output</title>
<path fill="none" stroke="black" d="M719.258,-1691.7C718.928,-1683.98 718.531,-1674.71 718.162,-1666.11"/>
<polygon fill="black" stroke="black" points="721.658,-1665.95 717.733,-1656.1 714.665,-1666.25 721.658,-1665.95"/>
</g>
<!-- 43 &#45; __Relation__&#45;&gt;9 &#45; Port_Input -->
<g id="edge50" class="edge"><title>43 &#45; __Relation__&#45;&gt;9 &#45; Port_Input</title>
<path fill="none" stroke="black" d="M197.753,-215.697C197.643,-207.983 197.51,-198.712 197.387,-190.112"/>
<polygon fill="black" stroke="black" points="200.887,-190.053 197.244,-180.104 193.888,-190.153 200.887,-190.053"/>
</g>
<!-- 44 &#45; __Relation__&#45;&gt;13 &#45; Port_Input -->
<g id="edge51" class="edge"><title>44 &#45; __Relation__&#45;&gt;13 &#45; Port_Input</title>
<path fill="none" stroke="black" d="M301.753,-665.697C301.643,-657.983 301.51,-648.712 301.387,-640.112"/>
<polygon fill="black" stroke="black" points="304.887,-640.053 301.244,-630.104 297.888,-640.153 304.887,-640.053"/>
</g>
<!-- 45 &#45; __Relation__&#45;&gt;7 &#45; Port_Input -->
<g id="edge52" class="edge"><title>45 &#45; __Relation__&#45;&gt;7 &#45; Port_Input</title>
<path fill="none" stroke="black" d="M457.948,-1116.05C455.134,-1108.18 451.72,-1098.62 448.569,-1089.79"/>
<polygon fill="black" stroke="black" points="451.829,-1088.52 445.17,-1080.28 445.237,-1090.87 451.829,-1088.52"/>
</g>
<!-- 46 &#45; __Relation__&#45;&gt;11 &#45; Port_Input -->
<g id="edge53" class="edge"><title>46 &#45; __Relation__&#45;&gt;11 &#45; Port_Input</title>
<path fill="none" stroke="black" d="M476,-1547.7C476,-1539.98 476,-1530.71 476,-1522.11"/>
<polygon fill="black" stroke="black" points="479.5,-1522.1 476,-1512.1 472.5,-1522.1 479.5,-1522.1"/>
</g>
<!-- 47 &#45; __Relation__&#45;&gt;10 &#45; Port_Input -->
<g id="edge54" class="edge"><title>47 &#45; __Relation__&#45;&gt;10 &#45; Port_Input</title>
<path fill="none" stroke="black" d="M693.281,-1547.7C692.069,-1539.98 690.612,-1530.71 689.261,-1522.11"/>
<polygon fill="black" stroke="black" points="692.698,-1521.44 687.688,-1512.1 685.783,-1522.53 692.698,-1521.44"/>
</g>
<!-- 48 &#45; __Relation__&#45;&gt;16 &#45; Port_Input -->
<g id="edge55" class="edge"><title>48 &#45; __Relation__&#45;&gt;16 &#45; Port_Input</title>
<path fill="none" stroke="black" d="M430.472,-1979.7C431.574,-1971.98 432.898,-1962.71 434.127,-1954.11"/>
<polygon fill="black" stroke="black" points="437.607,-1954.5 435.557,-1944.1 430.677,-1953.51 437.607,-1954.5"/>
</g>
<!-- 49 &#45; __Relation__&#45;&gt;19 &#45; Port_Input -->
<g id="edge56" class="edge"><title>49 &#45; __Relation__&#45;&gt;19 &#45; Port_Input</title>
<path fill="none" stroke="black" d="M751,-1979.7C751,-1971.98 751,-1962.71 751,-1954.11"/>
<polygon fill="black" stroke="black" points="754.5,-1954.1 751,-1944.1 747.5,-1954.1 754.5,-1954.1"/>
</g>
<!-- 50 &#45; Constant\n Value = 36.6&#45;&gt;37 &#45; __Block_Outport__ -->
<g id="edge57" class="edge"><title>50 &#45; Constant\n Value = 36.6&#45;&gt;37 &#45; __Block_Outport__</title>
<path fill="none" stroke="black" d="M470.195,-2196.13C466.589,-2187.5 462.57,-2177.88 458.953,-2169.22"/>
<polygon fill="black" stroke="black" points="462.168,-2167.84 455.084,-2159.96 455.709,-2170.54 462.168,-2167.84"/>
</g>
<!-- 51 &#45; Constant\n Value = 16.253&#45;&gt;40 &#45; __Block_Outport__ -->
<g id="edge58" class="edge"><title>51 &#45; Constant\n Value = 16.253&#45;&gt;40 &#45; __Block_Outport__</title>
<path fill="none" stroke="black" d="M694.292,-2196.13C695.021,-2187.91 695.83,-2178.78 696.568,-2170.45"/>
<polygon fill="black" stroke="black" points="700.058,-2170.71 697.455,-2160.44 693.086,-2170.09 700.058,-2170.71"/>
</g>
</g>
</svg>
