<?xml version="1.0" encoding="UTF-8" standalone="no"?>
<!DOCTYPE svg PUBLIC "-//W3C//DTD SVG 1.1//EN"
 "http://www.w3.org/Graphics/SVG/1.1/DTD/svg11.dtd">
<!-- Generated by graphviz version 2.36.0 (20140111.2315)
 -->
<!-- Title: HConstfolding_hier_opt Pages: 1 -->
<svg width="2079pt" height="638pt"
 viewBox="0.00 0.00 2079.00 638.00" xmlns="http://www.w3.org/2000/svg" xmlns:xlink="http://www.w3.org/1999/xlink">
<g id="graph0" class="graph" transform="scale(1 1) rotate(0) translate(4 634)">
<title>HConstfolding_hier_opt</title>
<polygon fill="white" stroke="none" points="-4,4 -4,-634 2075,-634 2075,4 -4,4"/>
<!-- 0 &#45; Constant\n Value = 1.0 -->
<g id="node1" class="node"><title>0 &#45; Constant\n Value = 1.0</title>
<ellipse fill="lightblue" stroke="black" cx="589" cy="-459" rx="60.2186" ry="26.7407"/>
<text text-anchor="middle" x="589" y="-462.8" font-family="Times,serif" font-size="14.00">0 &#45; Constant</text>
<text text-anchor="middle" x="589" y="-447.8" font-family="Times,serif" font-size="14.00"> Value = 1.0</text>
</g>
<!-- 15 &#45; __Block_Outport__ -->
<g id="node16" class="node"><title>15 &#45; __Block_Outport__</title>
<ellipse fill="#b94a62" stroke="black" cx="527" cy="-378" rx="97.237" ry="18"/>
<text text-anchor="middle" x="527" y="-374.3" font-family="Times,serif" font-size="14.00">15 &#45; __Block_Outport__</text>
</g>
<!-- 0 &#45; Constant\n Value = 1.0&#45;&gt;15 &#45; __Block_Outport__ -->
<g id="edge1" class="edge"><title>0 &#45; Constant\n Value = 1.0&#45;&gt;15 &#45; __Block_Outport__</title>
<path fill="none" stroke="black" d="M569.723,-433.437C562.354,-424.048 553.95,-413.339 546.556,-403.918"/>
<polygon fill="black" stroke="black" points="549.297,-401.741 540.37,-396.035 543.79,-406.063 549.297,-401.741"/>
</g>
<!-- 1 &#45; Product -->
<g id="node2" class="node"><title>1 &#45; Product</title>
<ellipse fill="lightblue" stroke="black" cx="719" cy="-306" rx="50.0684" ry="18"/>
<text text-anchor="middle" x="719" y="-302.3" font-family="Times,serif" font-size="14.00">1 &#45; Product</text>
</g>
<!-- 16 &#45; __Block_Outport__ -->
<g id="node17" class="node"><title>16 &#45; __Block_Outport__</title>
<ellipse fill="#b94a62" stroke="black" cx="719" cy="-234" rx="97.237" ry="18"/>
<text text-anchor="middle" x="719" y="-230.3" font-family="Times,serif" font-size="14.00">16 &#45; __Block_Outport__</text>
</g>
<!-- 1 &#45; Product&#45;&gt;16 &#45; __Block_Outport__ -->
<g id="edge2" class="edge"><title>1 &#45; Product&#45;&gt;16 &#45; __Block_Outport__</title>
<path fill="none" stroke="black" d="M719,-287.697C719,-279.983 719,-270.712 719,-262.112"/>
<polygon fill="black" stroke="black" points="722.5,-262.104 719,-252.104 715.5,-262.104 722.5,-262.104"/>
</g>
<!-- 33 &#45; __Block_Inport__ -->
<g id="node34" class="node"><title>33 &#45; __Block_Inport__</title>
<ellipse fill="#b94a62" stroke="black" cx="926" cy="-234" rx="91.4625" ry="18"/>
<text text-anchor="middle" x="926" y="-230.3" font-family="Times,serif" font-size="14.00">33 &#45; __Block_Inport__</text>
</g>
<!-- 1 &#45; Product&#45;&gt;33 &#45; __Block_Inport__ -->
<g id="edge43" class="edge"><title>1 &#45; Product&#45;&gt;33 &#45; __Block_Inport__</title>
<path fill="none" stroke="black" d="M754.115,-293.125C786.516,-282.169 835.101,-265.739 872.36,-253.139"/>
<polygon fill="black" stroke="black" points="873.705,-256.379 882.057,-249.86 871.463,-249.748 873.705,-256.379"/>
</g>
<!-- 34 &#45; __Block_Inport__ -->
<g id="node35" class="node"><title>34 &#45; __Block_Inport__</title>
<ellipse fill="#b94a62" stroke="black" cx="512" cy="-234" rx="91.4625" ry="18"/>
<text text-anchor="middle" x="512" y="-230.3" font-family="Times,serif" font-size="14.00">34 &#45; __Block_Inport__</text>
</g>
<!-- 1 &#45; Product&#45;&gt;34 &#45; __Block_Inport__ -->
<g id="edge44" class="edge"><title>1 &#45; Product&#45;&gt;34 &#45; __Block_Inport__</title>
<path fill="none" stroke="black" d="M683.885,-293.125C651.484,-282.169 602.899,-265.739 565.64,-253.139"/>
<polygon fill="black" stroke="black" points="566.537,-249.748 555.943,-249.86 564.295,-256.379 566.537,-249.748"/>
</g>
<!-- 2 &#45; Sum -->
<g id="node3" class="node"><title>2 &#45; Sum</title>
<ellipse fill="lightblue" stroke="black" cx="1467" cy="-306" rx="39.4691" ry="18"/>
<text text-anchor="middle" x="1467" y="-302.3" font-family="Times,serif" font-size="14.00">2 &#45; Sum</text>
</g>
<!-- 17 &#45; __Block_Outport__ -->
<g id="node18" class="node"><title>17 &#45; __Block_Outport__</title>
<ellipse fill="#b94a62" stroke="black" cx="1346" cy="-234" rx="97.237" ry="18"/>
<text text-anchor="middle" x="1346" y="-230.3" font-family="Times,serif" font-size="14.00">17 &#45; __Block_Outport__</text>
</g>
<!-- 2 &#45; Sum&#45;&gt;17 &#45; __Block_Outport__ -->
<g id="edge3" class="edge"><title>2 &#45; Sum&#45;&gt;17 &#45; __Block_Outport__</title>
<path fill="none" stroke="black" d="M1443.67,-291.503C1426.52,-281.581 1402.86,-267.894 1383.12,-256.477"/>
<polygon fill="black" stroke="black" points="1384.78,-253.39 1374.37,-251.412 1381.27,-259.449 1384.78,-253.39"/>
</g>
<!-- 35 &#45; __Block_Inport__ -->
<g id="node36" class="node"><title>35 &#45; __Block_Inport__</title>
<ellipse fill="#b94a62" stroke="black" cx="1021" cy="-90" rx="91.4625" ry="18"/>
<text text-anchor="middle" x="1021" y="-86.3" font-family="Times,serif" font-size="14.00">35 &#45; __Block_Inport__</text>
</g>
<!-- 2 &#45; Sum&#45;&gt;35 &#45; __Block_Inport__ -->
<g id="edge45" class="edge"><title>2 &#45; Sum&#45;&gt;35 &#45; __Block_Inport__</title>
<path fill="none" stroke="black" d="M1432.34,-297.132C1369.85,-282.914 1244.33,-254.204 1240,-252 1207.29,-235.343 1145.03,-165.119 1115,-144 1098.32,-132.269 1078.83,-120.932 1061.94,-111.775"/>
<polygon fill="black" stroke="black" points="1063.32,-108.547 1052.85,-106.924 1060.03,-114.722 1063.32,-108.547"/>
</g>
<!-- 36 &#45; __Block_Inport__ -->
<g id="node37" class="node"><title>36 &#45; __Block_Inport__</title>
<ellipse fill="#b94a62" stroke="black" cx="1492" cy="-162" rx="91.4625" ry="18"/>
<text text-anchor="middle" x="1492" y="-158.3" font-family="Times,serif" font-size="14.00">36 &#45; __Block_Inport__</text>
</g>
<!-- 2 &#45; Sum&#45;&gt;36 &#45; __Block_Inport__ -->
<g id="edge46" class="edge"><title>2 &#45; Sum&#45;&gt;36 &#45; __Block_Inport__</title>
<path fill="none" stroke="black" d="M1470.02,-287.871C1474.28,-263.67 1482.1,-219.211 1487.18,-190.393"/>
<polygon fill="black" stroke="black" points="1490.69,-190.645 1488.97,-180.189 1483.79,-189.431 1490.69,-190.645"/>
</g>
<!-- 3 &#45; UnitDelay -->
<g id="node4" class="node"><title>3 &#45; UnitDelay</title>
<ellipse fill="lightblue" stroke="black" cx="1675" cy="-306" rx="59.1941" ry="18"/>
<text text-anchor="middle" x="1675" y="-302.3" font-family="Times,serif" font-size="14.00">3 &#45; UnitDelay</text>
</g>
<!-- 18 &#45; __Block_Outport__ -->
<g id="node19" class="node"><title>18 &#45; __Block_Outport__</title>
<ellipse fill="#b94a62" stroke="black" cx="1737" cy="-234" rx="97.237" ry="18"/>
<text text-anchor="middle" x="1737" y="-230.3" font-family="Times,serif" font-size="14.00">18 &#45; __Block_Outport__</text>
</g>
<!-- 3 &#45; UnitDelay&#45;&gt;18 &#45; __Block_Outport__ -->
<g id="edge4" class="edge"><title>3 &#45; UnitDelay&#45;&gt;18 &#45; __Block_Outport__</title>
<path fill="none" stroke="black" d="M1689.69,-288.411C1697.3,-279.82 1706.74,-269.159 1715.19,-259.627"/>
<polygon fill="black" stroke="black" points="1717.97,-261.763 1721.98,-251.956 1712.73,-257.121 1717.97,-261.763"/>
</g>
<!-- 37 &#45; __Block_Inport__ -->
<g id="node38" class="node"><title>37 &#45; __Block_Inport__</title>
<ellipse fill="#b94a62" stroke="black" cx="1406" cy="-90" rx="91.4625" ry="18"/>
<text text-anchor="middle" x="1406" y="-86.3" font-family="Times,serif" font-size="14.00">37 &#45; __Block_Inport__</text>
</g>
<!-- 3 &#45; UnitDelay&#45;&gt;37 &#45; __Block_Inport__ -->
<g id="edge47" class="edge"><title>3 &#45; UnitDelay&#45;&gt;37 &#45; __Block_Inport__</title>
<path fill="none" stroke="black" d="M1658.7,-288.465C1649.6,-278.536 1638.6,-265.286 1631,-252 1605.66,-207.705 1629.31,-178.821 1592,-144 1566.75,-120.435 1531.76,-107.25 1498.94,-99.9086"/>
<polygon fill="black" stroke="black" points="1499.34,-96.4168 1488.84,-97.8127 1497.92,-103.271 1499.34,-96.4168"/>
</g>
<!-- 4 &#45; Gain\n Gain = 0.01 -->
<g id="node5" class="node"><title>4 &#45; Gain\n Gain = 0.01</title>
<ellipse fill="lightblue" stroke="black" cx="314" cy="-459" rx="60.2186" ry="26.7407"/>
<text text-anchor="middle" x="314" y="-462.8" font-family="Times,serif" font-size="14.00">4 &#45; Gain</text>
<text text-anchor="middle" x="314" y="-447.8" font-family="Times,serif" font-size="14.00"> Gain = 0.01</text>
</g>
<!-- 20 &#45; __Block_Outport__ -->
<g id="node21" class="node"><title>20 &#45; __Block_Outport__</title>
<ellipse fill="#b94a62" stroke="black" cx="314" cy="-378" rx="97.237" ry="18"/>
<text text-anchor="middle" x="314" y="-374.3" font-family="Times,serif" font-size="14.00">20 &#45; __Block_Outport__</text>
</g>
<!-- 4 &#45; Gain\n Gain = 0.01&#45;&gt;20 &#45; __Block_Outport__ -->
<g id="edge5" class="edge"><title>4 &#45; Gain\n Gain = 0.01&#45;&gt;20 &#45; __Block_Outport__</title>
<path fill="none" stroke="black" d="M314,-431.694C314,-423.58 314,-414.626 314,-406.438"/>
<polygon fill="black" stroke="black" points="317.5,-406.248 314,-396.248 310.5,-406.248 317.5,-406.248"/>
</g>
<!-- 38 &#45; __Block_Inport__ -->
<g id="node39" class="node"><title>38 &#45; __Block_Inport__</title>
<ellipse fill="#b94a62" stroke="black" cx="91" cy="-306" rx="91.4625" ry="18"/>
<text text-anchor="middle" x="91" y="-302.3" font-family="Times,serif" font-size="14.00">38 &#45; __Block_Inport__</text>
</g>
<!-- 4 &#45; Gain\n Gain = 0.01&#45;&gt;38 &#45; __Block_Inport__ -->
<g id="edge48" class="edge"><title>4 &#45; Gain\n Gain = 0.01&#45;&gt;38 &#45; __Block_Inport__</title>
<path fill="none" stroke="black" d="M276.535,-437.554C255.939,-425.951 230.147,-410.822 208,-396 176.831,-375.141 142.893,-348.903 119.635,-330.334"/>
<polygon fill="black" stroke="black" points="121.564,-327.394 111.575,-323.864 117.183,-332.853 121.564,-327.394"/>
</g>
<!-- 5 &#45; SubSystem -->
<g id="node6" class="node"><title>5 &#45; SubSystem</title>
<ellipse fill="lightgreen" stroke="black" cx="1148" cy="-459" rx="63.0666" ry="18"/>
<text text-anchor="middle" x="1148" y="-455.3" font-family="Times,serif" font-size="14.00">5 &#45; SubSystem</text>
</g>
<!-- 30 &#45; __Block_Inport__ -->
<g id="node31" class="node"><title>30 &#45; __Block_Inport__</title>
<ellipse fill="#b94a62" stroke="black" cx="1118" cy="-378" rx="91.4625" ry="18"/>
<text text-anchor="middle" x="1118" y="-374.3" font-family="Times,serif" font-size="14.00">30 &#45; __Block_Inport__</text>
</g>
<!-- 5 &#45; SubSystem&#45;&gt;30 &#45; __Block_Inport__ -->
<g id="edge40" class="edge"><title>5 &#45; SubSystem&#45;&gt;30 &#45; __Block_Inport__</title>
<path fill="none" stroke="black" d="M1141.49,-440.858C1137.6,-430.609 1132.57,-417.366 1128.16,-405.765"/>
<polygon fill="black" stroke="black" points="1131.32,-404.214 1124.5,-396.108 1124.78,-406.7 1131.32,-404.214"/>
</g>
<!-- 31 &#45; __Block_Inport__ -->
<g id="node32" class="node"><title>31 &#45; __Block_Inport__</title>
<ellipse fill="#b94a62" stroke="black" cx="1319" cy="-378" rx="91.4625" ry="18"/>
<text text-anchor="middle" x="1319" y="-374.3" font-family="Times,serif" font-size="14.00">31 &#45; __Block_Inport__</text>
</g>
<!-- 5 &#45; SubSystem&#45;&gt;31 &#45; __Block_Inport__ -->
<g id="edge41" class="edge"><title>5 &#45; SubSystem&#45;&gt;31 &#45; __Block_Inport__</title>
<path fill="none" stroke="black" d="M1179.76,-443.326C1206.69,-430.884 1245.59,-412.917 1275.42,-399.132"/>
<polygon fill="black" stroke="black" points="1277.16,-402.186 1284.77,-394.815 1274.22,-395.832 1277.16,-402.186"/>
</g>
<!-- 46 &#45; __Contains__ -->
<g id="node47" class="node"><title>46 &#45; __Contains__</title>
<ellipse fill="lightgray" stroke="black" cx="719" cy="-378" rx="76.0649" ry="18"/>
<text text-anchor="middle" x="719" y="-374.3" font-family="Times,serif" font-size="14.00">46 &#45; __Contains__</text>
</g>
<!-- 5 &#45; SubSystem&#45;&gt;46 &#45; __Contains__ -->
<g id="edge8" class="edge"><title>5 &#45; SubSystem&#45;&gt;46 &#45; __Contains__</title>
<path fill="none" stroke="black" d="M1095.65,-448.812C1028.34,-436.934 907.864,-415.462 805,-396 798.469,-394.764 791.664,-393.456 784.868,-392.135"/>
<polygon fill="black" stroke="black" points="785.436,-388.679 774.95,-390.197 784.094,-395.55 785.436,-388.679"/>
</g>
<!-- 47 &#45; __Contains__ -->
<g id="node48" class="node"><title>47 &#45; __Contains__</title>
<ellipse fill="lightgray" stroke="black" cx="1505" cy="-378" rx="76.0649" ry="18"/>
<text text-anchor="middle" x="1505" y="-374.3" font-family="Times,serif" font-size="14.00">47 &#45; __Contains__</text>
</g>
<!-- 5 &#45; SubSystem&#45;&gt;47 &#45; __Contains__ -->
<g id="edge7" class="edge"><title>5 &#45; SubSystem&#45;&gt;47 &#45; __Contains__</title>
<path fill="none" stroke="black" d="M1189,-445.193C1204.02,-440.722 1221.21,-435.86 1237,-432 1237.62,-431.848 1359.59,-407.737 1438.75,-392.092"/>
<polygon fill="black" stroke="black" points="1439.53,-395.506 1448.66,-390.134 1438.17,-388.639 1439.53,-395.506"/>
</g>
<!-- 48 &#45; __Contains__ -->
<g id="node49" class="node"><title>48 &#45; __Contains__</title>
<ellipse fill="lightgray" stroke="black" cx="1675" cy="-378" rx="76.0649" ry="18"/>
<text text-anchor="middle" x="1675" y="-374.3" font-family="Times,serif" font-size="14.00">48 &#45; __Contains__</text>
</g>
<!-- 5 &#45; SubSystem&#45;&gt;48 &#45; __Contains__ -->
<g id="edge6" class="edge"><title>5 &#45; SubSystem&#45;&gt;48 &#45; __Contains__</title>
<path fill="none" stroke="black" d="M1204.68,-451.119C1288.93,-440.648 1452.11,-419.439 1590,-396 1596.33,-394.924 1602.91,-393.735 1609.48,-392.5"/>
<polygon fill="black" stroke="black" points="1610.6,-395.849 1619.76,-390.531 1609.28,-388.974 1610.6,-395.849"/>
</g>
<!-- 6 &#45; Outport -->
<g id="node7" class="node"><title>6 &#45; Outport</title>
<ellipse fill="#eedd82" stroke="black" cx="1831" cy="-459" rx="50.0684" ry="18"/>
<text text-anchor="middle" x="1831" y="-455.3" font-family="Times,serif" font-size="14.00">6 &#45; Outport</text>
</g>
<!-- 32 &#45; __Block_Inport__ -->
<g id="node33" class="node"><title>32 &#45; __Block_Inport__</title>
<ellipse fill="#b94a62" stroke="black" cx="1980" cy="-90" rx="91.4625" ry="18"/>
<text text-anchor="middle" x="1980" y="-86.3" font-family="Times,serif" font-size="14.00">32 &#45; __Block_Inport__</text>
</g>
<!-- 6 &#45; Outport&#45;&gt;32 &#45; __Block_Inport__ -->
<g id="edge42" class="edge"><title>6 &#45; Outport&#45;&gt;32 &#45; __Block_Inport__</title>
<path fill="none" stroke="black" d="M1848.78,-441.791C1875.01,-416.013 1921,-362.849 1921,-307 1921,-307 1921,-307 1921,-233 1921,-189.588 1944.81,-144.03 1962.18,-116.57"/>
<polygon fill="black" stroke="black" points="1965.25,-118.269 1967.78,-107.981 1959.38,-114.446 1965.25,-118.269"/>
</g>
<!-- 7 &#45; SubSystem -->
<g id="node8" class="node"><title>7 &#45; SubSystem</title>
<ellipse fill="lightgreen" stroke="black" cx="1032" cy="-612" rx="63.0666" ry="18"/>
<text text-anchor="middle" x="1032" y="-608.3" font-family="Times,serif" font-size="14.00">7 &#45; SubSystem</text>
</g>
<!-- 7 &#45; SubSystem&#45;&gt;46 &#45; __Contains__ -->
<g id="edge9" class="edge"><title>7 &#45; SubSystem&#45;&gt;46 &#45; __Contains__</title>
<path fill="none" stroke="black" d="M976.575,-603.409C939.834,-596.296 891.958,-582.866 856,-558 797.545,-517.577 753.08,-444.423 732.174,-405.32"/>
<polygon fill="black" stroke="black" points="735.113,-403.388 727.372,-396.154 728.912,-406.636 735.113,-403.388"/>
</g>
<!-- 7 &#45; SubSystem&#45;&gt;47 &#45; __Contains__ -->
<g id="edge10" class="edge"><title>7 &#45; SubSystem&#45;&gt;47 &#45; __Contains__</title>
<path fill="none" stroke="black" d="M1083.58,-601.469C1122.36,-593.13 1176.11,-579.022 1220,-558 1307.09,-516.284 1314.05,-481.433 1397,-432 1417.6,-419.724 1441.45,-407.798 1461.48,-398.378"/>
<polygon fill="black" stroke="black" points="1463.1,-401.488 1470.69,-394.1 1460.14,-395.141 1463.1,-401.488"/>
</g>
<!-- 7 &#45; SubSystem&#45;&gt;48 &#45; __Contains__ -->
<g id="edge11" class="edge"><title>7 &#45; SubSystem&#45;&gt;48 &#45; __Contains__</title>
<path fill="none" stroke="black" d="M1084.36,-601.928C1131.88,-593.017 1203.56,-577.874 1264,-558 1404.63,-511.76 1563.18,-435.415 1635.38,-399.228"/>
<polygon fill="black" stroke="black" points="1637.22,-402.224 1644.58,-394.603 1634.07,-395.97 1637.22,-402.224"/>
</g>
<!-- 49 &#45; __Contains__ -->
<g id="node50" class="node"><title>49 &#45; __Contains__</title>
<ellipse fill="lightgray" stroke="black" cx="1135" cy="-540" rx="76.0649" ry="18"/>
<text text-anchor="middle" x="1135" y="-536.3" font-family="Times,serif" font-size="14.00">49 &#45; __Contains__</text>
</g>
<!-- 7 &#45; SubSystem&#45;&gt;49 &#45; __Contains__ -->
<g id="edge16" class="edge"><title>7 &#45; SubSystem&#45;&gt;49 &#45; __Contains__</title>
<path fill="none" stroke="black" d="M1055.37,-595.116C1069.26,-585.674 1087.1,-573.556 1102.36,-563.181"/>
<polygon fill="black" stroke="black" points="1104.7,-565.823 1111.01,-557.307 1100.77,-560.033 1104.7,-565.823"/>
</g>
<!-- 50 &#45; __Contains__ -->
<g id="node51" class="node"><title>50 &#45; __Contains__</title>
<ellipse fill="lightgray" stroke="black" cx="1770" cy="-540" rx="76.0649" ry="18"/>
<text text-anchor="middle" x="1770" y="-536.3" font-family="Times,serif" font-size="14.00">50 &#45; __Contains__</text>
</g>
<!-- 7 &#45; SubSystem&#45;&gt;50 &#45; __Contains__ -->
<g id="edge15" class="edge"><title>7 &#45; SubSystem&#45;&gt;50 &#45; __Contains__</title>
<path fill="none" stroke="black" d="M1090.84,-605.419C1222.69,-592.913 1541.94,-562.631 1690.95,-548.498"/>
<polygon fill="black" stroke="black" points="1691.32,-551.979 1700.94,-547.55 1690.66,-545.01 1691.32,-551.979"/>
</g>
<!-- 51 &#45; __Contains__ -->
<g id="node52" class="node"><title>51 &#45; __Contains__</title>
<ellipse fill="lightgray" stroke="black" cx="651" cy="-540" rx="76.0649" ry="18"/>
<text text-anchor="middle" x="651" y="-536.3" font-family="Times,serif" font-size="14.00">51 &#45; __Contains__</text>
</g>
<!-- 7 &#45; SubSystem&#45;&gt;51 &#45; __Contains__ -->
<g id="edge14" class="edge"><title>7 &#45; SubSystem&#45;&gt;51 &#45; __Contains__</title>
<path fill="none" stroke="black" d="M980.617,-601.559C913.107,-589.156 794.345,-567.336 719.32,-553.552"/>
<polygon fill="black" stroke="black" points="719.502,-550.027 709.034,-551.662 718.237,-556.912 719.502,-550.027"/>
</g>
<!-- 52 &#45; __Contains__ -->
<g id="node53" class="node"><title>52 &#45; __Contains__</title>
<ellipse fill="lightgray" stroke="black" cx="941" cy="-540" rx="76.0649" ry="18"/>
<text text-anchor="middle" x="941" y="-536.3" font-family="Times,serif" font-size="14.00">52 &#45; __Contains__</text>
</g>
<!-- 7 &#45; SubSystem&#45;&gt;52 &#45; __Contains__ -->
<g id="edge13" class="edge"><title>7 &#45; SubSystem&#45;&gt;52 &#45; __Contains__</title>
<path fill="none" stroke="black" d="M1010.89,-594.765C998.921,-585.554 983.747,-573.882 970.6,-563.769"/>
<polygon fill="black" stroke="black" points="972.367,-560.713 962.307,-557.39 968.099,-566.261 972.367,-560.713"/>
</g>
<!-- 53 &#45; __Contains__ -->
<g id="node54" class="node"><title>53 &#45; __Contains__</title>
<ellipse fill="lightgray" stroke="black" cx="372" cy="-540" rx="76.0649" ry="18"/>
<text text-anchor="middle" x="372" y="-536.3" font-family="Times,serif" font-size="14.00">53 &#45; __Contains__</text>
</g>
<!-- 7 &#45; SubSystem&#45;&gt;53 &#45; __Contains__ -->
<g id="edge12" class="edge"><title>7 &#45; SubSystem&#45;&gt;53 &#45; __Contains__</title>
<path fill="none" stroke="black" d="M974.008,-604.849C855.213,-592.25 584.127,-563.498 450.05,-549.278"/>
<polygon fill="black" stroke="black" points="450.168,-545.771 439.855,-548.197 449.43,-552.732 450.168,-545.771"/>
</g>
<!-- 8 &#45; Inport -->
<g id="node9" class="node"><title>8 &#45; Inport</title>
<ellipse fill="#eedd82" stroke="black" cx="935" cy="-459" rx="44.2946" ry="18"/>
<text text-anchor="middle" x="935" y="-455.3" font-family="Times,serif" font-size="14.00">8 &#45; Inport</text>
</g>
<!-- 19 &#45; __Block_Outport__ -->
<g id="node20" class="node"><title>19 &#45; __Block_Outport__</title>
<ellipse fill="#b94a62" stroke="black" cx="911" cy="-378" rx="97.237" ry="18"/>
<text text-anchor="middle" x="911" y="-374.3" font-family="Times,serif" font-size="14.00">19 &#45; __Block_Outport__</text>
</g>
<!-- 8 &#45; Inport&#45;&gt;19 &#45; __Block_Outport__ -->
<g id="edge17" class="edge"><title>8 &#45; Inport&#45;&gt;19 &#45; __Block_Outport__</title>
<path fill="none" stroke="black" d="M929.792,-440.858C926.679,-430.609 922.656,-417.366 919.131,-405.765"/>
<polygon fill="black" stroke="black" points="922.453,-404.659 916.197,-396.108 915.755,-406.694 922.453,-404.659"/>
</g>
<!-- 9 &#45; Port_Output -->
<g id="node10" class="node"><title>9 &#45; Port_Output</title>
<ellipse fill="coral" stroke="black" cx="498" cy="-306" rx="65.9423" ry="18"/>
<text text-anchor="middle" x="498" y="-302.3" font-family="Times,serif" font-size="14.00">9 &#45; Port_Output</text>
</g>
<!-- 45 &#45; __Relation__ -->
<g id="node46" class="node"><title>45 &#45; __Relation__</title>
<ellipse fill="#f78465" stroke="black" cx="161" cy="-234" rx="74.6146" ry="18"/>
<text text-anchor="middle" x="161" y="-230.3" font-family="Times,serif" font-size="14.00">45 &#45; __Relation__</text>
</g>
<!-- 9 &#45; Port_Output&#45;&gt;45 &#45; __Relation__ -->
<g id="edge18" class="edge"><title>9 &#45; Port_Output&#45;&gt;45 &#45; __Relation__</title>
<path fill="none" stroke="black" d="M447.183,-294.445C388.015,-282.154 290.178,-261.832 225.65,-248.429"/>
<polygon fill="black" stroke="black" points="226.093,-244.946 215.59,-246.339 224.67,-251.8 226.093,-244.946"/>
</g>
<!-- 10 &#45; Port_Output -->
<g id="node11" class="node"><title>10 &#45; Port_Output</title>
<ellipse fill="coral" stroke="black" cx="736" cy="-162" rx="70.2668" ry="18"/>
<text text-anchor="middle" x="736" y="-158.3" font-family="Times,serif" font-size="14.00">10 &#45; Port_Output</text>
</g>
<!-- 40 &#45; __Relation__ -->
<g id="node41" class="node"><title>40 &#45; __Relation__</title>
<ellipse fill="#f78465" stroke="black" cx="803" cy="-90" rx="74.6146" ry="18"/>
<text text-anchor="middle" x="803" y="-86.3" font-family="Times,serif" font-size="14.00">40 &#45; __Relation__</text>
</g>
<!-- 10 &#45; Port_Output&#45;&gt;40 &#45; __Relation__ -->
<g id="edge19" class="edge"><title>10 &#45; Port_Output&#45;&gt;40 &#45; __Relation__</title>
<path fill="none" stroke="black" d="M751.878,-144.411C760.183,-135.734 770.509,-124.946 779.701,-115.342"/>
<polygon fill="black" stroke="black" points="782.384,-117.601 786.77,-107.956 777.327,-112.76 782.384,-117.601"/>
</g>
<!-- 11 &#45; Port_Output -->
<g id="node12" class="node"><title>11 &#45; Port_Output</title>
<ellipse fill="coral" stroke="black" cx="1312" cy="-162" rx="70.2668" ry="18"/>
<text text-anchor="middle" x="1312" y="-158.3" font-family="Times,serif" font-size="14.00">11 &#45; Port_Output</text>
</g>
<!-- 39 &#45; __Relation__ -->
<g id="node40" class="node"><title>39 &#45; __Relation__</title>
<ellipse fill="#f78465" stroke="black" cx="1222" cy="-90" rx="74.6146" ry="18"/>
<text text-anchor="middle" x="1222" y="-86.3" font-family="Times,serif" font-size="14.00">39 &#45; __Relation__</text>
</g>
<!-- 11 &#45; Port_Output&#45;&gt;39 &#45; __Relation__ -->
<g id="edge20" class="edge"><title>11 &#45; Port_Output&#45;&gt;39 &#45; __Relation__</title>
<path fill="none" stroke="black" d="M1291.13,-144.765C1279.28,-135.554 1264.28,-123.882 1251.27,-113.769"/>
<polygon fill="black" stroke="black" points="1253.11,-110.766 1243.07,-107.39 1248.82,-116.292 1253.11,-110.766"/>
</g>
<!-- 12 &#45; Port_Output -->
<g id="node13" class="node"><title>12 &#45; Port_Output</title>
<ellipse fill="coral" stroke="black" cx="1737" cy="-162" rx="70.2668" ry="18"/>
<text text-anchor="middle" x="1737" y="-158.3" font-family="Times,serif" font-size="14.00">12 &#45; Port_Output</text>
</g>
<!-- 41 &#45; __Relation__ -->
<g id="node42" class="node"><title>41 &#45; __Relation__</title>
<ellipse fill="#f78465" stroke="black" cx="1629" cy="-90" rx="74.6146" ry="18"/>
<text text-anchor="middle" x="1629" y="-86.3" font-family="Times,serif" font-size="14.00">41 &#45; __Relation__</text>
</g>
<!-- 12 &#45; Port_Output&#45;&gt;41 &#45; __Relation__ -->
<g id="edge22" class="edge"><title>12 &#45; Port_Output&#45;&gt;41 &#45; __Relation__</title>
<path fill="none" stroke="black" d="M1712.49,-145.116C1697.68,-135.518 1678.61,-123.154 1662.43,-112.667"/>
<polygon fill="black" stroke="black" points="1664.08,-109.565 1653.78,-107.064 1660.27,-115.44 1664.08,-109.565"/>
</g>
<!-- 42 &#45; __Relation__ -->
<g id="node43" class="node"><title>42 &#45; __Relation__</title>
<ellipse fill="#f78465" stroke="black" cx="1796" cy="-90" rx="74.6146" ry="18"/>
<text text-anchor="middle" x="1796" y="-86.3" font-family="Times,serif" font-size="14.00">42 &#45; __Relation__</text>
</g>
<!-- 12 &#45; Port_Output&#45;&gt;42 &#45; __Relation__ -->
<g id="edge21" class="edge"><title>12 &#45; Port_Output&#45;&gt;42 &#45; __Relation__</title>
<path fill="none" stroke="black" d="M1751.28,-144.055C1758.46,-135.543 1767.29,-125.068 1775.2,-115.681"/>
<polygon fill="black" stroke="black" points="1778.08,-117.691 1781.85,-107.789 1772.73,-113.18 1778.08,-117.691"/>
</g>
<!-- 13 &#45; Port_Output -->
<g id="node14" class="node"><title>13 &#45; Port_Output</title>
<ellipse fill="coral" stroke="black" cx="937" cy="-306" rx="70.2668" ry="18"/>
<text text-anchor="middle" x="937" y="-302.3" font-family="Times,serif" font-size="14.00">13 &#45; Port_Output</text>
</g>
<!-- 43 &#45; __Relation__ -->
<g id="node44" class="node"><title>43 &#45; __Relation__</title>
<ellipse fill="#f78465" stroke="black" cx="1110" cy="-234" rx="74.6146" ry="18"/>
<text text-anchor="middle" x="1110" y="-230.3" font-family="Times,serif" font-size="14.00">43 &#45; __Relation__</text>
</g>
<!-- 13 &#45; Port_Output&#45;&gt;43 &#45; __Relation__ -->
<g id="edge23" class="edge"><title>13 &#45; Port_Output&#45;&gt;43 &#45; __Relation__</title>
<path fill="none" stroke="black" d="M972.846,-290.496C999.343,-279.774 1035.63,-265.091 1064.23,-253.521"/>
<polygon fill="black" stroke="black" points="1065.65,-256.722 1073.61,-249.726 1063.02,-250.233 1065.65,-256.722"/>
</g>
<!-- 14 &#45; Port_Output -->
<g id="node15" class="node"><title>14 &#45; Port_Output</title>
<ellipse fill="coral" stroke="black" cx="321" cy="-306" rx="70.2668" ry="18"/>
<text text-anchor="middle" x="321" y="-302.3" font-family="Times,serif" font-size="14.00">14 &#45; Port_Output</text>
</g>
<!-- 44 &#45; __Relation__ -->
<g id="node45" class="node"><title>44 &#45; __Relation__</title>
<ellipse fill="#f78465" stroke="black" cx="328" cy="-234" rx="74.6146" ry="18"/>
<text text-anchor="middle" x="328" y="-230.3" font-family="Times,serif" font-size="14.00">44 &#45; __Relation__</text>
</g>
<!-- 14 &#45; Port_Output&#45;&gt;44 &#45; __Relation__ -->
<g id="edge24" class="edge"><title>14 &#45; Port_Output&#45;&gt;44 &#45; __Relation__</title>
<path fill="none" stroke="black" d="M322.73,-287.697C323.502,-279.983 324.429,-270.712 325.289,-262.112"/>
<polygon fill="black" stroke="black" points="328.777,-262.403 326.29,-252.104 321.812,-261.706 328.777,-262.403"/>
</g>
<!-- 15 &#45; __Block_Outport__&#45;&gt;9 &#45; Port_Output -->
<g id="edge25" class="edge"><title>15 &#45; __Block_Outport__&#45;&gt;9 &#45; Port_Output</title>
<path fill="none" stroke="black" d="M519.831,-359.697C516.565,-351.813 512.626,-342.304 508.998,-333.546"/>
<polygon fill="black" stroke="black" points="512.147,-332.003 505.086,-324.104 505.68,-334.683 512.147,-332.003"/>
</g>
<!-- 16 &#45; __Block_Outport__&#45;&gt;10 &#45; Port_Output -->
<g id="edge26" class="edge"><title>16 &#45; __Block_Outport__&#45;&gt;10 &#45; Port_Output</title>
<path fill="none" stroke="black" d="M723.202,-215.697C725.096,-207.898 727.377,-198.509 729.484,-189.829"/>
<polygon fill="black" stroke="black" points="732.887,-190.648 731.846,-180.104 726.085,-188.996 732.887,-190.648"/>
</g>
<!-- 17 &#45; __Block_Outport__&#45;&gt;11 &#45; Port_Output -->
<g id="edge27" class="edge"><title>17 &#45; __Block_Outport__&#45;&gt;11 &#45; Port_Output</title>
<path fill="none" stroke="black" d="M1337.77,-216.055C1333.9,-208.091 1329.2,-198.411 1324.88,-189.51"/>
<polygon fill="black" stroke="black" points="1327.91,-187.741 1320.39,-180.275 1321.61,-190.8 1327.91,-187.741"/>
</g>
<!-- 18 &#45; __Block_Outport__&#45;&gt;12 &#45; Port_Output -->
<g id="edge28" class="edge"><title>18 &#45; __Block_Outport__&#45;&gt;12 &#45; Port_Output</title>
<path fill="none" stroke="black" d="M1737,-215.697C1737,-207.983 1737,-198.712 1737,-190.112"/>
<polygon fill="black" stroke="black" points="1740.5,-190.104 1737,-180.104 1733.5,-190.104 1740.5,-190.104"/>
</g>
<!-- 19 &#45; __Block_Outport__&#45;&gt;13 &#45; Port_Output -->
<g id="edge29" class="edge"><title>19 &#45; __Block_Outport__&#45;&gt;13 &#45; Port_Output</title>
<path fill="none" stroke="black" d="M917.427,-359.697C920.355,-351.813 923.887,-342.304 927.14,-333.546"/>
<polygon fill="black" stroke="black" points="930.446,-334.697 930.647,-324.104 923.884,-332.26 930.446,-334.697"/>
</g>
<!-- 20 &#45; __Block_Outport__&#45;&gt;14 &#45; Port_Output -->
<g id="edge30" class="edge"><title>20 &#45; __Block_Outport__&#45;&gt;14 &#45; Port_Output</title>
<path fill="none" stroke="black" d="M315.73,-359.697C316.502,-351.983 317.429,-342.712 318.289,-334.112"/>
<polygon fill="black" stroke="black" points="321.777,-334.403 319.29,-324.104 314.812,-333.706 321.777,-334.403"/>
</g>
<!-- 21 &#45; Port_Input -->
<g id="node22" class="node"><title>21 &#45; Port_Input</title>
<ellipse fill="lightyellow" stroke="black" cx="1118" cy="-306" rx="64.4914" ry="18"/>
<text text-anchor="middle" x="1118" y="-302.3" font-family="Times,serif" font-size="14.00">21 &#45; Port_Input</text>
</g>
<!-- 22 &#45; Port_Input -->
<g id="node23" class="node"><title>22 &#45; Port_Input</title>
<ellipse fill="lightyellow" stroke="black" cx="1319" cy="-306" rx="64.4914" ry="18"/>
<text text-anchor="middle" x="1319" y="-302.3" font-family="Times,serif" font-size="14.00">22 &#45; Port_Input</text>
</g>
<!-- 23 &#45; Port_Input -->
<g id="node24" class="node"><title>23 &#45; Port_Input</title>
<ellipse fill="lightyellow" stroke="black" cx="1888" cy="-18" rx="64.4914" ry="18"/>
<text text-anchor="middle" x="1888" y="-14.3" font-family="Times,serif" font-size="14.00">23 &#45; Port_Input</text>
</g>
<!-- 24 &#45; Port_Input -->
<g id="node25" class="node"><title>24 &#45; Port_Input</title>
<ellipse fill="lightyellow" stroke="black" cx="1042" cy="-162" rx="64.4914" ry="18"/>
<text text-anchor="middle" x="1042" y="-158.3" font-family="Times,serif" font-size="14.00">24 &#45; Port_Input</text>
</g>
<!-- 25 &#45; Port_Input -->
<g id="node26" class="node"><title>25 &#45; Port_Input</title>
<ellipse fill="lightyellow" stroke="black" cx="420" cy="-162" rx="64.4914" ry="18"/>
<text text-anchor="middle" x="420" y="-158.3" font-family="Times,serif" font-size="14.00">25 &#45; Port_Input</text>
</g>
<!-- 26 &#45; Port_Input -->
<g id="node27" class="node"><title>26 &#45; Port_Input</title>
<ellipse fill="lightyellow" stroke="black" cx="912" cy="-18" rx="64.4914" ry="18"/>
<text text-anchor="middle" x="912" y="-14.3" font-family="Times,serif" font-size="14.00">26 &#45; Port_Input</text>
</g>
<!-- 27 &#45; Port_Input -->
<g id="node28" class="node"><title>27 &#45; Port_Input</title>
<ellipse fill="lightyellow" stroke="black" cx="1577" cy="-18" rx="64.4914" ry="18"/>
<text text-anchor="middle" x="1577" y="-14.3" font-family="Times,serif" font-size="14.00">27 &#45; Port_Input</text>
</g>
<!-- 28 &#45; Port_Input -->
<g id="node29" class="node"><title>28 &#45; Port_Input</title>
<ellipse fill="lightyellow" stroke="black" cx="1314" cy="-18" rx="64.4914" ry="18"/>
<text text-anchor="middle" x="1314" y="-14.3" font-family="Times,serif" font-size="14.00">28 &#45; Port_Input</text>
</g>
<!-- 29 &#45; Port_Input -->
<g id="node30" class="node"><title>29 &#45; Port_Input</title>
<ellipse fill="lightyellow" stroke="black" cx="110" cy="-162" rx="64.4914" ry="18"/>
<text text-anchor="middle" x="110" y="-158.3" font-family="Times,serif" font-size="14.00">29 &#45; Port_Input</text>
</g>
<!-- 30 &#45; __Block_Inport__&#45;&gt;21 &#45; Port_Input -->
<g id="edge31" class="edge"><title>30 &#45; __Block_Inport__&#45;&gt;21 &#45; Port_Input</title>
<path fill="none" stroke="black" d="M1118,-359.697C1118,-351.983 1118,-342.712 1118,-334.112"/>
<polygon fill="black" stroke="black" points="1121.5,-334.104 1118,-324.104 1114.5,-334.104 1121.5,-334.104"/>
</g>
<!-- 31 &#45; __Block_Inport__&#45;&gt;22 &#45; Port_Input -->
<g id="edge32" class="edge"><title>31 &#45; __Block_Inport__&#45;&gt;22 &#45; Port_Input</title>
<path fill="none" stroke="black" d="M1319,-359.697C1319,-351.983 1319,-342.712 1319,-334.112"/>
<polygon fill="black" stroke="black" points="1322.5,-334.104 1319,-324.104 1315.5,-334.104 1322.5,-334.104"/>
</g>
<!-- 32 &#45; __Block_Inport__&#45;&gt;23 &#45; Port_Input -->
<g id="edge33" class="edge"><title>32 &#45; __Block_Inport__&#45;&gt;23 &#45; Port_Input</title>
<path fill="none" stroke="black" d="M1958.2,-72.411C1946.08,-63.1911 1930.83,-51.5885 1917.64,-41.5547"/>
<polygon fill="black" stroke="black" points="1919.41,-38.4983 1909.33,-35.2285 1915.17,-44.0691 1919.41,-38.4983"/>
</g>
<!-- 33 &#45; __Block_Inport__&#45;&gt;24 &#45; Port_Input -->
<g id="edge34" class="edge"><title>33 &#45; __Block_Inport__&#45;&gt;24 &#45; Port_Input</title>
<path fill="none" stroke="black" d="M952.904,-216.765C969.091,-206.997 989.864,-194.461 1007.28,-183.952"/>
<polygon fill="black" stroke="black" points="1009.29,-186.829 1016.04,-178.666 1005.67,-180.836 1009.29,-186.829"/>
</g>
<!-- 34 &#45; __Block_Inport__&#45;&gt;25 &#45; Port_Input -->
<g id="edge35" class="edge"><title>34 &#45; __Block_Inport__&#45;&gt;25 &#45; Port_Input</title>
<path fill="none" stroke="black" d="M490.197,-216.411C478.08,-207.191 462.831,-195.588 449.643,-185.555"/>
<polygon fill="black" stroke="black" points="451.406,-182.498 441.329,-179.228 447.168,-188.069 451.406,-182.498"/>
</g>
<!-- 35 &#45; __Block_Inport__&#45;&gt;26 &#45; Port_Input -->
<g id="edge36" class="edge"><title>35 &#45; __Block_Inport__&#45;&gt;26 &#45; Port_Input</title>
<path fill="none" stroke="black" d="M995.444,-72.5881C980.472,-62.9731 961.395,-50.7214 945.261,-40.3603"/>
<polygon fill="black" stroke="black" points="946.951,-37.2861 936.645,-34.8274 943.168,-43.1761 946.951,-37.2861"/>
</g>
<!-- 36 &#45; __Block_Inport__&#45;&gt;27 &#45; Port_Input -->
<g id="edge37" class="edge"><title>36 &#45; __Block_Inport__&#45;&gt;27 &#45; Port_Input</title>
<path fill="none" stroke="black" d="M1502.13,-143.92C1512.77,-125.989 1530.02,-96.9858 1545,-72 1550.33,-63.1058 1556.19,-53.3874 1561.42,-44.7295"/>
<polygon fill="black" stroke="black" points="1564.42,-46.5383 1566.6,-36.1698 1558.43,-42.9167 1564.42,-46.5383"/>
</g>
<!-- 37 &#45; __Block_Inport__&#45;&gt;28 &#45; Port_Input -->
<g id="edge38" class="edge"><title>37 &#45; __Block_Inport__&#45;&gt;28 &#45; Port_Input</title>
<path fill="none" stroke="black" d="M1384.2,-72.411C1372.08,-63.1911 1356.83,-51.5885 1343.64,-41.5547"/>
<polygon fill="black" stroke="black" points="1345.41,-38.4983 1335.33,-35.2285 1341.17,-44.0691 1345.41,-38.4983"/>
</g>
<!-- 38 &#45; __Block_Inport__&#45;&gt;29 &#45; Port_Input -->
<g id="edge39" class="edge"><title>38 &#45; __Block_Inport__&#45;&gt;29 &#45; Port_Input</title>
<path fill="none" stroke="black" d="M84.025,-288.002C77.5841,-269.892 69.9922,-240.513 77,-216 79.7568,-206.357 84.8321,-196.76 90.1896,-188.437"/>
<polygon fill="black" stroke="black" points="93.2348,-190.185 96.0175,-179.962 87.4671,-186.219 93.2348,-190.185"/>
</g>
<!-- 39 &#45; __Relation__&#45;&gt;28 &#45; Port_Input -->
<g id="edge49" class="edge"><title>39 &#45; __Relation__&#45;&gt;28 &#45; Port_Input</title>
<path fill="none" stroke="black" d="M1243.8,-72.411C1255.92,-63.1911 1271.17,-51.5885 1284.36,-41.5547"/>
<polygon fill="black" stroke="black" points="1286.83,-44.0691 1292.67,-35.2285 1282.59,-38.4983 1286.83,-44.0691"/>
</g>
<!-- 40 &#45; __Relation__&#45;&gt;26 &#45; Port_Input -->
<g id="edge50" class="edge"><title>40 &#45; __Relation__&#45;&gt;26 &#45; Port_Input</title>
<path fill="none" stroke="black" d="M828.007,-72.9406C843.068,-63.2684 862.429,-50.8345 878.767,-40.3426"/>
<polygon fill="black" stroke="black" points="880.962,-43.0922 887.485,-34.7434 877.18,-37.2022 880.962,-43.0922"/>
</g>
<!-- 41 &#45; __Relation__&#45;&gt;27 &#45; Port_Input -->
<g id="edge51" class="edge"><title>41 &#45; __Relation__&#45;&gt;27 &#45; Port_Input</title>
<path fill="none" stroke="black" d="M1616.41,-72.055C1610.15,-63.6287 1602.46,-53.2798 1595.55,-43.9663"/>
<polygon fill="black" stroke="black" points="1598.24,-41.7293 1589.47,-35.789 1592.63,-45.9036 1598.24,-41.7293"/>
</g>
<!-- 42 &#45; __Relation__&#45;&gt;23 &#45; Port_Input -->
<g id="edge52" class="edge"><title>42 &#45; __Relation__&#45;&gt;23 &#45; Port_Input</title>
<path fill="none" stroke="black" d="M1817.8,-72.411C1829.92,-63.1911 1845.17,-51.5885 1858.36,-41.5547"/>
<polygon fill="black" stroke="black" points="1860.83,-44.0691 1866.67,-35.2285 1856.59,-38.4983 1860.83,-44.0691"/>
</g>
<!-- 43 &#45; __Relation__&#45;&gt;24 &#45; Port_Input -->
<g id="edge53" class="edge"><title>43 &#45; __Relation__&#45;&gt;24 &#45; Port_Input</title>
<path fill="none" stroke="black" d="M1093.88,-216.411C1085.33,-207.606 1074.67,-196.628 1065.24,-186.919"/>
<polygon fill="black" stroke="black" points="1067.48,-184.204 1058,-179.47 1062.46,-189.082 1067.48,-184.204"/>
</g>
<!-- 44 &#45; __Relation__&#45;&gt;25 &#45; Port_Input -->
<g id="edge54" class="edge"><title>44 &#45; __Relation__&#45;&gt;25 &#45; Port_Input</title>
<path fill="none" stroke="black" d="M349.803,-216.411C361.92,-207.191 377.169,-195.588 390.357,-185.555"/>
<polygon fill="black" stroke="black" points="392.832,-188.069 398.671,-179.228 388.594,-182.498 392.832,-188.069"/>
</g>
<!-- 45 &#45; __Relation__&#45;&gt;29 &#45; Port_Input -->
<g id="edge55" class="edge"><title>45 &#45; __Relation__&#45;&gt;29 &#45; Port_Input</title>
<path fill="none" stroke="black" d="M148.654,-216.055C142.515,-207.629 134.975,-197.28 128.19,-187.966"/>
<polygon fill="black" stroke="black" points="130.949,-185.81 122.232,-179.789 125.292,-189.932 130.949,-185.81"/>
</g>
<!-- 46 &#45; __Contains__&#45;&gt;1 &#45; Product -->
<g id="edge56" class="edge"><title>46 &#45; __Contains__&#45;&gt;1 &#45; Product</title>
<path fill="none" stroke="black" d="M719,-359.697C719,-351.983 719,-342.712 719,-334.112"/>
<polygon fill="black" stroke="black" points="722.5,-334.104 719,-324.104 715.5,-334.104 722.5,-334.104"/>
</g>
<!-- 47 &#45; __Contains__&#45;&gt;2 &#45; Sum -->
<g id="edge57" class="edge"><title>47 &#45; __Contains__&#45;&gt;2 &#45; Sum</title>
<path fill="none" stroke="black" d="M1495.8,-360.055C1491.37,-351.887 1485.95,-341.912 1481.02,-332.824"/>
<polygon fill="black" stroke="black" points="1483.96,-330.908 1476.11,-323.789 1477.81,-334.247 1483.96,-330.908"/>
</g>
<!-- 48 &#45; __Contains__&#45;&gt;3 &#45; UnitDelay -->
<g id="edge58" class="edge"><title>48 &#45; __Contains__&#45;&gt;3 &#45; UnitDelay</title>
<path fill="none" stroke="black" d="M1675,-359.697C1675,-351.983 1675,-342.712 1675,-334.112"/>
<polygon fill="black" stroke="black" points="1678.5,-334.104 1675,-324.104 1671.5,-334.104 1678.5,-334.104"/>
</g>
<!-- 49 &#45; __Contains__&#45;&gt;5 &#45; SubSystem -->
<g id="edge59" class="edge"><title>49 &#45; __Contains__&#45;&gt;5 &#45; SubSystem</title>
<path fill="none" stroke="black" d="M1137.82,-521.858C1139.49,-511.713 1141.64,-498.634 1143.54,-487.117"/>
<polygon fill="black" stroke="black" points="1147.01,-487.544 1145.18,-477.108 1140.11,-486.407 1147.01,-487.544"/>
</g>
<!-- 50 &#45; __Contains__&#45;&gt;6 &#45; Outport -->
<g id="edge60" class="edge"><title>50 &#45; __Contains__&#45;&gt;6 &#45; Outport</title>
<path fill="none" stroke="black" d="M1782.94,-522.246C1791.4,-511.28 1802.61,-496.765 1812.07,-484.51"/>
<polygon fill="black" stroke="black" points="1814.95,-486.513 1818.29,-476.459 1809.41,-482.235 1814.95,-486.513"/>
</g>
<!-- 51 &#45; __Contains__&#45;&gt;0 &#45; Constant\n Value = 1.0 -->
<g id="edge61" class="edge"><title>51 &#45; __Contains__&#45;&gt;0 &#45; Constant\n Value = 1.0</title>
<path fill="none" stroke="black" d="M637.851,-522.246C631.064,-513.597 622.544,-502.742 614.528,-492.528"/>
<polygon fill="black" stroke="black" points="617.178,-490.235 608.251,-484.529 611.671,-494.557 617.178,-490.235"/>
</g>
<!-- 52 &#45; __Contains__&#45;&gt;8 &#45; Inport -->
<g id="edge62" class="edge"><title>52 &#45; __Contains__&#45;&gt;8 &#45; Inport</title>
<path fill="none" stroke="black" d="M939.698,-521.858C938.928,-511.713 937.934,-498.634 937.06,-487.117"/>
<polygon fill="black" stroke="black" points="940.547,-486.815 936.299,-477.108 933.567,-487.345 940.547,-486.815"/>
</g>
<!-- 53 &#45; __Contains__&#45;&gt;4 &#45; Gain\n Gain = 0.01 -->
<g id="edge63" class="edge"><title>53 &#45; __Contains__&#45;&gt;4 &#45; Gain\n Gain = 0.01</title>
<path fill="none" stroke="black" d="M359.415,-521.858C353.22,-513.42 345.535,-502.953 338.259,-493.043"/>
<polygon fill="black" stroke="black" points="341.025,-490.896 332.286,-484.906 335.382,-495.038 341.025,-490.896"/>
</g>
</g>
</svg>
