<?xml version="1.0" encoding="UTF-8" standalone="no"?>
<!DOCTYPE svg PUBLIC "-//W3C//DTD SVG 1.1//EN"
 "http://www.w3.org/Graphics/SVG/1.1/DTD/svg11.dtd">
<!-- Generated by graphviz version 2.26.3 (20100126.1600)
 -->
<!-- Title: HConst2_opt Pages: 1 -->
<svg width="457pt" height="514pt"
 viewBox="0.00 0.00 457.00 514.00" xmlns="http://www.w3.org/2000/svg" xmlns:xlink="http://www.w3.org/1999/xlink">
<g id="graph1" class="graph" transform="scale(1 1) rotate(0) translate(4 510)">
<title>HConst2_opt</title>
<polygon fill="white" stroke="white" points="-4,5 -4,-510 454,-510 454,5 -4,5"/>
<!-- 0 &#45; Outport -->
<g id="node1" class="node"><title>0 &#45; Outport</title>
<ellipse fill="#eedd82" stroke="black" cx="113" cy="-327" rx="67.1751" ry="18.3848"/>
<text text-anchor="middle" x="113" y="-323.4" font-family="Times Roman,serif" font-size="14.00">0 &#45; Outport</text>
</g>
<!-- 7 &#45; __Block_Inport__ -->
<g id="node8" class="node"><title>7 &#45; __Block_Inport__</title>
<ellipse fill="#b94a62" stroke="black" cx="112" cy="-167" rx="111.93" ry="18.3848"/>
<text text-anchor="middle" x="112" y="-163.4" font-family="Times Roman,serif" font-size="14.00">7 &#45; __Block_Inport__</text>
</g>
<!-- 0 &#45; Outport&#45;&gt;7 &#45; __Block_Inport__ -->
<g id="edge16" class="edge"><title>0 &#45; Outport&#45;&gt;7 &#45; __Block_Inport__</title>
<path fill="none" stroke="black" d="M112.883,-308.333C112.71,-280.634 112.384,-228.419 112.18,-195.797"/>
<polygon fill="black" stroke="black" points="115.678,-195.526 112.116,-185.548 108.679,-195.57 115.678,-195.526"/>
</g>
<!-- 1 &#45; SubSystem -->
<g id="node2" class="node"><title>1 &#45; SubSystem</title>
<ellipse fill="lightgreen" stroke="black" cx="223" cy="-487" rx="85.0596" ry="18.3848"/>
<text text-anchor="middle" x="223" y="-483.4" font-family="Times Roman,serif" font-size="14.00">1 &#45; SubSystem</text>
</g>
<!-- 5 &#45; __Contains__ -->
<g id="node6" class="node"><title>5 &#45; __Contains__</title>
<ellipse fill="lightgray" stroke="black" cx="120" cy="-413" rx="92.839" ry="18.3848"/>
<text text-anchor="middle" x="120" y="-409.4" font-family="Times Roman,serif" font-size="14.00">5 &#45; __Contains__</text>
</g>
<!-- 1 &#45; SubSystem&#45;&gt;5 &#45; __Contains__ -->
<g id="edge4" class="edge"><title>1 &#45; SubSystem&#45;&gt;5 &#45; __Contains__</title>
<path fill="none" stroke="black" d="M198.329,-469.275C184.797,-459.553 167.836,-447.367 153.16,-436.824"/>
<polygon fill="black" stroke="black" points="154.99,-433.829 144.827,-430.837 150.906,-439.514 154.99,-433.829"/>
</g>
<!-- 6 &#45; __Contains__ -->
<g id="node7" class="node"><title>6 &#45; __Contains__</title>
<ellipse fill="lightgray" stroke="black" cx="327" cy="-413" rx="92.1303" ry="18.3848"/>
<text text-anchor="middle" x="327" y="-409.4" font-family="Times Roman,serif" font-size="14.00">6 &#45; __Contains__</text>
</g>
<!-- 1 &#45; SubSystem&#45;&gt;6 &#45; __Contains__ -->
<g id="edge2" class="edge"><title>1 &#45; SubSystem&#45;&gt;6 &#45; __Contains__</title>
<path fill="none" stroke="black" d="M247.911,-469.275C261.574,-459.553 278.7,-447.367 293.518,-436.824"/>
<polygon fill="black" stroke="black" points="295.813,-439.486 301.932,-430.837 291.755,-433.783 295.813,-439.486"/>
</g>
<!-- 2 &#45; Port_Output -->
<g id="node3" class="node"><title>2 &#45; Port_Output</title>
<ellipse fill="coral" stroke="black" cx="330" cy="-167" rx="87.889" ry="18.3848"/>
<text text-anchor="middle" x="330" y="-163.4" font-family="Times Roman,serif" font-size="14.00">2 &#45; Port_Output</text>
</g>
<!-- 8 &#45; __Relation__ -->
<g id="node9" class="node"><title>8 &#45; __Relation__</title>
<ellipse fill="#f78465" stroke="black" cx="305" cy="-93" rx="90.0096" ry="18.3848"/>
<text text-anchor="middle" x="305" y="-89.4" font-family="Times Roman,serif" font-size="14.00">8 &#45; __Relation__</text>
</g>
<!-- 2 &#45; Port_Output&#45;&gt;8 &#45; __Relation__ -->
<g id="edge6" class="edge"><title>2 &#45; Port_Output&#45;&gt;8 &#45; __Relation__</title>
<path fill="none" stroke="black" d="M323.691,-148.327C320.938,-140.176 317.648,-130.438 314.601,-121.42"/>
<polygon fill="black" stroke="black" points="317.823,-120.021 311.307,-111.667 311.191,-122.262 317.823,-120.021"/>
</g>
<!-- 3 &#45; __Block_Outport__ -->
<g id="node4" class="node"><title>3 &#45; __Block_Outport__</title>
<ellipse fill="#b94a62" stroke="black" cx="329" cy="-241" rx="120.208" ry="18.3848"/>
<text text-anchor="middle" x="329" y="-237.4" font-family="Times Roman,serif" font-size="14.00">3 &#45; __Block_Outport__</text>
</g>
<!-- 3 &#45; __Block_Outport__&#45;&gt;2 &#45; Port_Output -->
<g id="edge8" class="edge"><title>3 &#45; __Block_Outport__&#45;&gt;2 &#45; Port_Output</title>
<path fill="none" stroke="black" d="M329.252,-222.327C329.361,-214.264 329.491,-204.648 329.612,-195.711"/>
<polygon fill="black" stroke="black" points="333.112,-195.714 329.748,-185.667 326.113,-195.619 333.112,-195.714"/>
</g>
<!-- 4 &#45; Port_Input -->
<g id="node5" class="node"><title>4 &#45; Port_Input</title>
<ellipse fill="lightyellow" stroke="black" cx="233" cy="-19" rx="79.9031" ry="18.3848"/>
<text text-anchor="middle" x="233" y="-15.4" font-family="Times Roman,serif" font-size="14.00">4 &#45; Port_Input</text>
</g>
<!-- 5 &#45; __Contains__&#45;&gt;0 &#45; Outport -->
<g id="edge12" class="edge"><title>5 &#45; __Contains__&#45;&gt;0 &#45; Outport</title>
<path fill="none" stroke="black" d="M118.481,-394.339C117.564,-383.07 116.376,-368.474 115.34,-355.754"/>
<polygon fill="black" stroke="black" points="118.816,-355.307 114.516,-345.624 111.839,-355.875 118.816,-355.307"/>
</g>
<!-- 9 &#45; Constant\n Value = 249.0 -->
<g id="node10" class="node"><title>9 &#45; Constant\n Value = 249.0</title>
<ellipse fill="lightblue" stroke="black" cx="329" cy="-327" rx="85.0596" ry="31.1127"/>
<text text-anchor="middle" x="329" y="-332.4" font-family="Times Roman,serif" font-size="14.00">9 &#45; Constant</text>
<text text-anchor="middle" x="329" y="-314.4" font-family="Times Roman,serif" font-size="14.00"> Value = 249.0</text>
</g>
<!-- 6 &#45; __Contains__&#45;&gt;9 &#45; Constant\n Value = 249.0 -->
<g id="edge14" class="edge"><title>6 &#45; __Contains__&#45;&gt;9 &#45; Constant\n Value = 249.0</title>
<path fill="none" stroke="black" d="M327.434,-394.339C327.613,-386.658 327.827,-377.432 328.039,-368.308"/>
<polygon fill="black" stroke="black" points="331.542,-368.216 328.276,-358.137 324.544,-368.053 331.542,-368.216"/>
</g>
<!-- 7 &#45; __Block_Inport__&#45;&gt;4 &#45; Port_Input -->
<g id="edge10" class="edge"><title>7 &#45; __Block_Inport__&#45;&gt;4 &#45; Port_Input</title>
<path fill="none" stroke="black" d="M127.08,-148.555C148.39,-122.49 187.417,-74.7541 211.684,-45.0725"/>
<polygon fill="black" stroke="black" points="214.49,-47.1699 218.11,-37.2126 209.071,-42.7392 214.49,-47.1699"/>
</g>
<!-- 8 &#45; __Relation__&#45;&gt;4 &#45; Port_Input -->
<g id="edge18" class="edge"><title>8 &#45; __Relation__&#45;&gt;4 &#45; Port_Input</title>
<path fill="none" stroke="black" d="M287.202,-74.7079C278.309,-65.5674 267.404,-54.3599 257.714,-44.4"/>
<polygon fill="black" stroke="black" points="260.075,-41.8083 250.593,-37.0817 255.058,-46.6898 260.075,-41.8083"/>
</g>
<!-- 9 &#45; Constant\n Value = 249.0&#45;&gt;3 &#45; __Block_Outport__ -->
<g id="edge20" class="edge"><title>9 &#45; Constant\n Value = 249.0&#45;&gt;3 &#45; __Block_Outport__</title>
<path fill="none" stroke="black" d="M329,-295.952C329,-287.427 329,-278.221 329,-269.827"/>
<polygon fill="black" stroke="black" points="332.5,-269.74 329,-259.74 325.5,-269.74 332.5,-269.74"/>
</g>
</g>
</svg>
