<?xml version="1.0" encoding="UTF-8" standalone="no"?>
<!DOCTYPE svg PUBLIC "-//W3C//DTD SVG 1.1//EN"
 "http://www.w3.org/Graphics/SVG/1.1/DTD/svg11.dtd">
<!-- Generated by graphviz version 2.26.3 (20100126.1600)
 -->
<!-- Title: HConst1_opt Pages: 1 -->
<svg width="1268pt" height="514pt"
 viewBox="0.00 0.00 1268.00 514.00" xmlns="http://www.w3.org/2000/svg" xmlns:xlink="http://www.w3.org/1999/xlink">
<g id="graph1" class="graph" transform="scale(1 1) rotate(0) translate(4 510)">
<title>HConst1_opt</title>
<polygon fill="white" stroke="white" points="-4,5 -4,-510 1265,-510 1265,5 -4,5"/>
<!-- 0 &#45; Outport -->
<g id="node1" class="node"><title>0 &#45; Outport</title>
<ellipse fill="#eedd82" stroke="black" cx="174" cy="-327" rx="67.1751" ry="18.3848"/>
<text text-anchor="middle" x="174" y="-323.4" font-family="Times Roman,serif" font-size="14.00">0 &#45; Outport</text>
</g>
<!-- 10 &#45; __Block_Inport__ -->
<g id="node11" class="node"><title>10 &#45; __Block_Inport__</title>
<ellipse fill="#b94a62" stroke="black" cx="118" cy="-167" rx="118.087" ry="18.3848"/>
<text text-anchor="middle" x="118" y="-163.4" font-family="Times Roman,serif" font-size="14.00">10 &#45; __Block_Inport__</text>
</g>
<!-- 0 &#45; Outport&#45;&gt;10 &#45; __Block_Inport__ -->
<g id="edge26" class="edge"><title>0 &#45; Outport&#45;&gt;10 &#45; __Block_Inport__</title>
<path fill="none" stroke="black" d="M164.045,-308.643C157.164,-295.406 148.172,-276.958 142,-260 134.289,-238.813 128.028,-214.062 123.837,-195.423"/>
<polygon fill="black" stroke="black" points="127.221,-194.517 121.669,-185.494 120.382,-196.01 127.221,-194.517"/>
</g>
<!-- 1 &#45; Sum -->
<g id="node2" class="node"><title>1 &#45; Sum</title>
<ellipse fill="lightblue" stroke="black" cx="813" cy="-327" rx="50.9117" ry="18.3848"/>
<text text-anchor="middle" x="813" y="-323.4" font-family="Times Roman,serif" font-size="14.00">1 &#45; Sum</text>
</g>
<!-- 12 &#45; __Block_Inport__ -->
<g id="node13" class="node"><title>12 &#45; __Block_Inport__</title>
<ellipse fill="#b94a62" stroke="black" cx="907" cy="-93" rx="118.794" ry="18.3848"/>
<text text-anchor="middle" x="907" y="-89.4" font-family="Times Roman,serif" font-size="14.00">12 &#45; __Block_Inport__</text>
</g>
<!-- 1 &#45; Sum&#45;&gt;12 &#45; __Block_Inport__ -->
<g id="edge30" class="edge"><title>1 &#45; Sum&#45;&gt;12 &#45; __Block_Inport__</title>
<path fill="none" stroke="black" d="M856.856,-317.285C887.104,-308.052 925.137,-290.834 944,-260 970.886,-216.05 944.336,-154.968 924.43,-120.162"/>
<polygon fill="black" stroke="black" points="927.402,-118.312 919.295,-111.491 921.379,-121.879 927.402,-118.312"/>
</g>
<!-- 13 &#45; __Block_Inport__ -->
<g id="node14" class="node"><title>13 &#45; __Block_Inport__</title>
<ellipse fill="#b94a62" stroke="black" cx="817" cy="-241" rx="118.087" ry="18.3848"/>
<text text-anchor="middle" x="817" y="-237.4" font-family="Times Roman,serif" font-size="14.00">13 &#45; __Block_Inport__</text>
</g>
<!-- 1 &#45; Sum&#45;&gt;13 &#45; __Block_Inport__ -->
<g id="edge32" class="edge"><title>1 &#45; Sum&#45;&gt;13 &#45; __Block_Inport__</title>
<path fill="none" stroke="black" d="M813.868,-308.339C814.392,-297.07 815.071,-282.474 815.663,-269.754"/>
<polygon fill="black" stroke="black" points="819.165,-269.776 816.134,-259.624 812.173,-269.451 819.165,-269.776"/>
</g>
<!-- 14 &#45; __Block_Outport__ -->
<g id="node15" class="node"><title>14 &#45; __Block_Outport__</title>
<ellipse fill="#b94a62" stroke="black" cx="553" cy="-241" rx="127.986" ry="18.3848"/>
<text text-anchor="middle" x="553" y="-237.4" font-family="Times Roman,serif" font-size="14.00">14 &#45; __Block_Outport__</text>
</g>
<!-- 1 &#45; Sum&#45;&gt;14 &#45; __Block_Outport__ -->
<g id="edge2" class="edge"><title>1 &#45; Sum&#45;&gt;14 &#45; __Block_Outport__</title>
<path fill="none" stroke="black" d="M775.194,-314.495C732.942,-300.519 663.92,-277.689 614.005,-261.178"/>
<polygon fill="black" stroke="black" points="614.883,-257.783 604.29,-257.965 612.685,-264.429 614.883,-257.783"/>
</g>
<!-- 2 &#45; Inport -->
<g id="node3" class="node"><title>2 &#45; Inport</title>
<ellipse fill="#eedd82" stroke="black" cx="985" cy="-327" rx="58.1882" ry="18.3848"/>
<text text-anchor="middle" x="985" y="-323.4" font-family="Times Roman,serif" font-size="14.00">2 &#45; Inport</text>
</g>
<!-- 15 &#45; __Block_Outport__ -->
<g id="node16" class="node"><title>15 &#45; __Block_Outport__</title>
<ellipse fill="#b94a62" stroke="black" cx="1132" cy="-241" rx="127.986" ry="18.3848"/>
<text text-anchor="middle" x="1132" y="-237.4" font-family="Times Roman,serif" font-size="14.00">15 &#45; __Block_Outport__</text>
</g>
<!-- 2 &#45; Inport&#45;&gt;15 &#45; __Block_Outport__ -->
<g id="edge4" class="edge"><title>2 &#45; Inport&#45;&gt;15 &#45; __Block_Outport__</title>
<path fill="none" stroke="black" d="M1013,-310.622C1035.4,-297.514 1067.11,-278.964 1092.16,-264.308"/>
<polygon fill="black" stroke="black" points="1094.2,-267.172 1101.06,-259.101 1090.66,-261.13 1094.2,-267.172"/>
</g>
<!-- 3 &#45; SubSystem -->
<g id="node4" class="node"><title>3 &#45; SubSystem</title>
<ellipse fill="lightgreen" stroke="black" cx="544" cy="-487" rx="84.1457" ry="18.3848"/>
<text text-anchor="middle" x="544" y="-483.4" font-family="Times Roman,serif" font-size="14.00">3 &#45; SubSystem</text>
</g>
<!-- 19 &#45; __Contains__ -->
<g id="node20" class="node"><title>19 &#45; __Contains__</title>
<ellipse fill="lightgray" stroke="black" cx="202" cy="-413" rx="99.201" ry="18.3848"/>
<text text-anchor="middle" x="202" y="-409.4" font-family="Times Roman,serif" font-size="14.00">19 &#45; __Contains__</text>
</g>
<!-- 3 &#45; SubSystem&#45;&gt;19 &#45; __Contains__ -->
<g id="edge12" class="edge"><title>3 &#45; SubSystem&#45;&gt;19 &#45; __Contains__</title>
<path fill="none" stroke="black" d="M484.037,-474.026C426.421,-461.559 339.175,-442.681 276.99,-429.226"/>
<polygon fill="black" stroke="black" points="277.361,-425.725 266.847,-427.031 275.881,-432.567 277.361,-425.725"/>
</g>
<!-- 20 &#45; __Contains__ -->
<g id="node21" class="node"><title>20 &#45; __Contains__</title>
<ellipse fill="lightgray" stroke="black" cx="432" cy="-413" rx="98.9949" ry="18.3848"/>
<text text-anchor="middle" x="432" y="-409.4" font-family="Times Roman,serif" font-size="14.00">20 &#45; __Contains__</text>
</g>
<!-- 3 &#45; SubSystem&#45;&gt;20 &#45; __Contains__ -->
<g id="edge10" class="edge"><title>3 &#45; SubSystem&#45;&gt;20 &#45; __Contains__</title>
<path fill="none" stroke="black" d="M517.173,-469.275C502.321,-459.462 483.671,-447.139 467.611,-436.529"/>
<polygon fill="black" stroke="black" points="469.269,-433.429 458.996,-430.837 465.41,-439.269 469.269,-433.429"/>
</g>
<!-- 21 &#45; __Contains__ -->
<g id="node22" class="node"><title>21 &#45; __Contains__</title>
<ellipse fill="lightgray" stroke="black" cx="656" cy="-413" rx="99.9096" ry="18.3848"/>
<text text-anchor="middle" x="656" y="-409.4" font-family="Times Roman,serif" font-size="14.00">21 &#45; __Contains__</text>
</g>
<!-- 3 &#45; SubSystem&#45;&gt;21 &#45; __Contains__ -->
<g id="edge8" class="edge"><title>3 &#45; SubSystem&#45;&gt;21 &#45; __Contains__</title>
<path fill="none" stroke="black" d="M570.827,-469.275C585.679,-459.462 604.329,-447.139 620.389,-436.529"/>
<polygon fill="black" stroke="black" points="622.59,-439.269 629.004,-430.837 618.731,-433.429 622.59,-439.269"/>
</g>
<!-- 22 &#45; __Contains__ -->
<g id="node23" class="node"><title>22 &#45; __Contains__</title>
<ellipse fill="lightgray" stroke="black" cx="877" cy="-413" rx="99.201" ry="18.3848"/>
<text text-anchor="middle" x="877" y="-409.4" font-family="Times Roman,serif" font-size="14.00">22 &#45; __Contains__</text>
</g>
<!-- 3 &#45; SubSystem&#45;&gt;22 &#45; __Contains__ -->
<g id="edge6" class="edge"><title>3 &#45; SubSystem&#45;&gt;22 &#45; __Contains__</title>
<path fill="none" stroke="black" d="M603.15,-473.856C659.006,-461.443 742.961,-442.786 803.18,-429.404"/>
<polygon fill="black" stroke="black" points="804.005,-432.807 813.008,-427.22 802.487,-425.973 804.005,-432.807"/>
</g>
<!-- 4 &#45; Port_Input -->
<g id="node5" class="node"><title>4 &#45; Port_Input</title>
<ellipse fill="lightyellow" stroke="black" cx="319" cy="-19" rx="79.9031" ry="18.3848"/>
<text text-anchor="middle" x="319" y="-15.4" font-family="Times Roman,serif" font-size="14.00">4 &#45; Port_Input</text>
</g>
<!-- 5 &#45; Port_Output -->
<g id="node6" class="node"><title>5 &#45; Port_Output</title>
<ellipse fill="coral" stroke="black" cx="342" cy="-167" rx="87.889" ry="18.3848"/>
<text text-anchor="middle" x="342" y="-163.4" font-family="Times Roman,serif" font-size="14.00">5 &#45; Port_Output</text>
</g>
<!-- 17 &#45; __Relation__ -->
<g id="node18" class="node"><title>17 &#45; __Relation__</title>
<ellipse fill="#f78465" stroke="black" cx="341" cy="-93" rx="97.7889" ry="18.3848"/>
<text text-anchor="middle" x="341" y="-89.4" font-family="Times Roman,serif" font-size="14.00">17 &#45; __Relation__</text>
</g>
<!-- 5 &#45; Port_Output&#45;&gt;17 &#45; __Relation__ -->
<g id="edge16" class="edge"><title>5 &#45; Port_Output&#45;&gt;17 &#45; __Relation__</title>
<path fill="none" stroke="black" d="M341.748,-148.327C341.639,-140.264 341.509,-130.648 341.388,-121.711"/>
<polygon fill="black" stroke="black" points="344.887,-121.619 341.252,-111.667 337.888,-121.714 344.887,-121.619"/>
</g>
<!-- 6 &#45; Port_Input -->
<g id="node7" class="node"><title>6 &#45; Port_Input</title>
<ellipse fill="lightyellow" stroke="black" cx="962" cy="-19" rx="79.196" ry="18.3848"/>
<text text-anchor="middle" x="962" y="-15.4" font-family="Times Roman,serif" font-size="14.00">6 &#45; Port_Input</text>
</g>
<!-- 7 &#45; Port_Input -->
<g id="node8" class="node"><title>7 &#45; Port_Input</title>
<ellipse fill="lightyellow" stroke="black" cx="689" cy="-19" rx="79.9031" ry="18.3848"/>
<text text-anchor="middle" x="689" y="-15.4" font-family="Times Roman,serif" font-size="14.00">7 &#45; Port_Input</text>
</g>
<!-- 8 &#45; Port_Output -->
<g id="node9" class="node"><title>8 &#45; Port_Output</title>
<ellipse fill="coral" stroke="black" cx="554" cy="-167" rx="87.889" ry="18.3848"/>
<text text-anchor="middle" x="554" y="-163.4" font-family="Times Roman,serif" font-size="14.00">8 &#45; Port_Output</text>
</g>
<!-- 16 &#45; __Relation__ -->
<g id="node17" class="node"><title>16 &#45; __Relation__</title>
<ellipse fill="#f78465" stroke="black" cx="554" cy="-93" rx="96.8736" ry="18.3848"/>
<text text-anchor="middle" x="554" y="-89.4" font-family="Times Roman,serif" font-size="14.00">16 &#45; __Relation__</text>
</g>
<!-- 8 &#45; Port_Output&#45;&gt;16 &#45; __Relation__ -->
<g id="edge22" class="edge"><title>8 &#45; Port_Output&#45;&gt;16 &#45; __Relation__</title>
<path fill="none" stroke="black" d="M554,-148.327C554,-140.264 554,-130.648 554,-121.711"/>
<polygon fill="black" stroke="black" points="557.5,-121.667 554,-111.667 550.5,-121.667 557.5,-121.667"/>
</g>
<!-- 9 &#45; Port_Output -->
<g id="node10" class="node"><title>9 &#45; Port_Output</title>
<ellipse fill="coral" stroke="black" cx="1138" cy="-167" rx="87.889" ry="18.3848"/>
<text text-anchor="middle" x="1138" y="-163.4" font-family="Times Roman,serif" font-size="14.00">9 &#45; Port_Output</text>
</g>
<!-- 18 &#45; __Relation__ -->
<g id="node19" class="node"><title>18 &#45; __Relation__</title>
<ellipse fill="#f78465" stroke="black" cx="1141" cy="-93" rx="96.8736" ry="18.3848"/>
<text text-anchor="middle" x="1141" y="-89.4" font-family="Times Roman,serif" font-size="14.00">18 &#45; __Relation__</text>
</g>
<!-- 9 &#45; Port_Output&#45;&gt;18 &#45; __Relation__ -->
<g id="edge24" class="edge"><title>9 &#45; Port_Output&#45;&gt;18 &#45; __Relation__</title>
<path fill="none" stroke="black" d="M1138.76,-148.327C1139.08,-140.264 1139.47,-130.648 1139.84,-121.711"/>
<polygon fill="black" stroke="black" points="1143.34,-121.801 1140.24,-111.667 1136.34,-121.517 1143.34,-121.801"/>
</g>
<!-- 10 &#45; __Block_Inport__&#45;&gt;4 &#45; Port_Input -->
<g id="edge14" class="edge"><title>10 &#45; __Block_Inport__&#45;&gt;4 &#45; Port_Input</title>
<path fill="none" stroke="black" d="M139.718,-148.488C162.645,-129.211 200.09,-98.4678 234,-74 249.371,-62.9093 266.874,-51.403 281.986,-41.7993"/>
<polygon fill="black" stroke="black" points="283.983,-44.6777 290.574,-36.3821 280.249,-38.7573 283.983,-44.6777"/>
</g>
<!-- 11 &#45; __Block_Outport__ -->
<g id="node12" class="node"><title>11 &#45; __Block_Outport__</title>
<ellipse fill="#b94a62" stroke="black" cx="279" cy="-241" rx="128.193" ry="18.3848"/>
<text text-anchor="middle" x="279" y="-237.4" font-family="Times Roman,serif" font-size="14.00">11 &#45; __Block_Outport__</text>
</g>
<!-- 11 &#45; __Block_Outport__&#45;&gt;5 &#45; Port_Output -->
<g id="edge28" class="edge"><title>11 &#45; __Block_Outport__&#45;&gt;5 &#45; Port_Output</title>
<path fill="none" stroke="black" d="M294.898,-222.327C302.416,-213.496 311.52,-202.802 319.713,-193.178"/>
<polygon fill="black" stroke="black" points="322.508,-195.294 326.326,-185.411 317.178,-190.756 322.508,-195.294"/>
</g>
<!-- 12 &#45; __Block_Inport__&#45;&gt;6 &#45; Port_Input -->
<g id="edge18" class="edge"><title>12 &#45; __Block_Inport__&#45;&gt;6 &#45; Port_Input</title>
<path fill="none" stroke="black" d="M920.879,-74.3267C927.377,-65.5841 935.232,-55.0153 942.328,-45.4673"/>
<polygon fill="black" stroke="black" points="945.16,-47.5248 948.316,-37.411 939.542,-43.3491 945.16,-47.5248"/>
</g>
<!-- 13 &#45; __Block_Inport__&#45;&gt;7 &#45; Port_Input -->
<g id="edge20" class="edge"><title>13 &#45; __Block_Inport__&#45;&gt;7 &#45; Port_Input</title>
<path fill="none" stroke="black" d="M806.307,-222.454C783.766,-183.359 731.277,-92.3248 704.83,-46.4547"/>
<polygon fill="black" stroke="black" points="707.78,-44.564 699.753,-37.6491 701.716,-48.0605 707.78,-44.564"/>
</g>
<!-- 14 &#45; __Block_Outport__&#45;&gt;8 &#45; Port_Output -->
<g id="edge34" class="edge"><title>14 &#45; __Block_Outport__&#45;&gt;8 &#45; Port_Output</title>
<path fill="none" stroke="black" d="M553.252,-222.327C553.361,-214.264 553.491,-204.648 553.612,-195.711"/>
<polygon fill="black" stroke="black" points="557.112,-195.714 553.748,-185.667 550.113,-195.619 557.112,-195.714"/>
</g>
<!-- 15 &#45; __Block_Outport__&#45;&gt;9 &#45; Port_Output -->
<g id="edge36" class="edge"><title>15 &#45; __Block_Outport__&#45;&gt;9 &#45; Port_Output</title>
<path fill="none" stroke="black" d="M1133.51,-222.327C1134.17,-214.264 1134.95,-204.648 1135.67,-195.711"/>
<polygon fill="black" stroke="black" points="1139.17,-195.918 1136.49,-185.667 1132.19,-195.352 1139.17,-195.918"/>
</g>
<!-- 16 &#45; __Relation__&#45;&gt;4 &#45; Port_Input -->
<g id="edge38" class="edge"><title>16 &#45; __Relation__&#45;&gt;4 &#45; Port_Input</title>
<path fill="none" stroke="black" d="M503.587,-77.1251C466.164,-65.3409 415.087,-49.2572 376.148,-36.9957"/>
<polygon fill="black" stroke="black" points="377.115,-33.6308 366.526,-33.9656 375.013,-40.3076 377.115,-33.6308"/>
</g>
<!-- 17 &#45; __Relation__&#45;&gt;7 &#45; Port_Input -->
<g id="edge40" class="edge"><title>17 &#45; __Relation__&#45;&gt;7 &#45; Port_Input</title>
<path fill="none" stroke="black" d="M406.456,-79.0812C467.35,-66.1324 557.776,-46.904 619.834,-33.7077"/>
<polygon fill="black" stroke="black" points="620.872,-37.0654 629.925,-31.5619 619.416,-30.2185 620.872,-37.0654"/>
</g>
<!-- 18 &#45; __Relation__&#45;&gt;6 &#45; Port_Input -->
<g id="edge42" class="edge"><title>18 &#45; __Relation__&#45;&gt;6 &#45; Port_Input</title>
<path fill="none" stroke="black" d="M1099.93,-76.0229C1073.34,-65.0299 1038.59,-50.6624 1010.62,-39.0996"/>
<polygon fill="black" stroke="black" points="1011.61,-35.7228 1001.03,-35.1368 1008.94,-42.1918 1011.61,-35.7228"/>
</g>
<!-- 19 &#45; __Contains__&#45;&gt;0 &#45; Outport -->
<g id="edge44" class="edge"><title>19 &#45; __Contains__&#45;&gt;0 &#45; Outport</title>
<path fill="none" stroke="black" d="M195.924,-394.339C192.219,-382.957 187.408,-368.182 183.238,-355.373"/>
<polygon fill="black" stroke="black" points="186.488,-354.049 180.064,-345.624 179.832,-356.217 186.488,-354.049"/>
</g>
<!-- 23 &#45; Constant\n Value = 439.304 -->
<g id="node24" class="node"><title>23 &#45; Constant\n Value = 439.304</title>
<ellipse fill="lightblue" stroke="black" cx="373" cy="-327" rx="96.8736" ry="31.1127"/>
<text text-anchor="middle" x="373" y="-332.4" font-family="Times Roman,serif" font-size="14.00">23 &#45; Constant</text>
<text text-anchor="middle" x="373" y="-314.4" font-family="Times Roman,serif" font-size="14.00"> Value = 439.304</text>
</g>
<!-- 20 &#45; __Contains__&#45;&gt;23 &#45; Constant\n Value = 439.304 -->
<g id="edge46" class="edge"><title>20 &#45; __Contains__&#45;&gt;23 &#45; Constant\n Value = 439.304</title>
<path fill="none" stroke="black" d="M419.198,-394.339C413.483,-386.01 406.523,-375.864 399.756,-366"/>
<polygon fill="black" stroke="black" points="402.439,-363.724 393.896,-357.458 396.667,-367.684 402.439,-363.724"/>
</g>
<!-- 21 &#45; __Contains__&#45;&gt;1 &#45; Sum -->
<g id="edge48" class="edge"><title>21 &#45; __Contains__&#45;&gt;1 &#45; Sum</title>
<path fill="none" stroke="black" d="M688.15,-395.389C713.589,-381.454 749.146,-361.977 775.811,-347.371"/>
<polygon fill="black" stroke="black" points="777.751,-350.299 784.84,-342.425 774.388,-344.16 777.751,-350.299"/>
</g>
<!-- 22 &#45; __Contains__&#45;&gt;2 &#45; Inport -->
<g id="edge50" class="edge"><title>22 &#45; __Contains__&#45;&gt;2 &#45; Inport</title>
<path fill="none" stroke="black" d="M899.64,-394.972C915.693,-382.189 937.405,-364.9 954.913,-350.958"/>
<polygon fill="black" stroke="black" points="957.485,-353.384 963.127,-344.417 953.124,-347.908 957.485,-353.384"/>
</g>
<!-- 23 &#45; Constant\n Value = 439.304&#45;&gt;11 &#45; __Block_Outport__ -->
<g id="edge52" class="edge"><title>23 &#45; Constant\n Value = 439.304&#45;&gt;11 &#45; __Block_Outport__</title>
<path fill="none" stroke="black" d="M340.913,-297.644C329.786,-287.464 317.414,-276.145 306.673,-266.318"/>
<polygon fill="black" stroke="black" points="308.922,-263.632 299.182,-259.464 304.197,-268.797 308.922,-263.632"/>
</g>
</g>
</svg>
