<?xml version="1.0" encoding="UTF-8" standalone="no"?>
<!DOCTYPE svg PUBLIC "-//W3C//DTD SVG 1.1//EN"
 "http://www.w3.org/Graphics/SVG/1.1/DTD/svg11.dtd">
<!-- Generated by graphviz version 2.26.3 (20100126.1600)
 -->
<!-- Title: HConstfolding_hier_opt Pages: 1 -->
<svg width="2662pt" height="514pt"
 viewBox="0.00 0.00 2662.00 514.00" xmlns="http://www.w3.org/2000/svg" xmlns:xlink="http://www.w3.org/1999/xlink">
<g id="graph1" class="graph" transform="scale(1 1) rotate(0) translate(4 510)">
<title>HConstfolding_hier_opt</title>
<polygon fill="white" stroke="white" points="-4,5 -4,-510 2659,-510 2659,5 -4,5"/>
<!-- 0 &#45; Constant\n Value = 1.0 -->
<g id="node1" class="node"><title>0 &#45; Constant\n Value = 1.0</title>
<ellipse fill="lightblue" stroke="black" cx="266" cy="-327" rx="73.0388" ry="31.1127"/>
<text text-anchor="middle" x="266" y="-332.4" font-family="Times Roman,serif" font-size="14.00">0 &#45; Constant</text>
<text text-anchor="middle" x="266" y="-314.4" font-family="Times Roman,serif" font-size="14.00"> Value = 1.0</text>
</g>
<!-- 14 &#45; __Block_Outport__ -->
<g id="node15" class="node"><title>14 &#45; __Block_Outport__</title>
<ellipse fill="#b94a62" stroke="black" cx="159" cy="-241" rx="127.986" ry="18.3848"/>
<text text-anchor="middle" x="159" y="-237.4" font-family="Times Roman,serif" font-size="14.00">14 &#45; __Block_Outport__</text>
</g>
<!-- 0 &#45; Constant\n Value = 1.0&#45;&gt;14 &#45; __Block_Outport__ -->
<g id="edge2" class="edge"><title>0 &#45; Constant\n Value = 1.0&#45;&gt;14 &#45; __Block_Outport__</title>
<path fill="none" stroke="black" d="M231.85,-299.553C218.276,-288.643 202.782,-276.189 189.582,-265.58"/>
<polygon fill="black" stroke="black" points="191.685,-262.78 181.698,-259.243 187.3,-268.236 191.685,-262.78"/>
</g>
<!-- 1 &#45; Product -->
<g id="node2" class="node"><title>1 &#45; Product</title>
<ellipse fill="lightblue" stroke="black" cx="1001" cy="-327" rx="67.1751" ry="18.3848"/>
<text text-anchor="middle" x="1001" y="-323.4" font-family="Times Roman,serif" font-size="14.00">1 &#45; Product</text>
</g>
<!-- 15 &#45; __Block_Outport__ -->
<g id="node16" class="node"><title>15 &#45; __Block_Outport__</title>
<ellipse fill="#b94a62" stroke="black" cx="1133" cy="-241" rx="127.986" ry="18.3848"/>
<text text-anchor="middle" x="1133" y="-237.4" font-family="Times Roman,serif" font-size="14.00">15 &#45; __Block_Outport__</text>
</g>
<!-- 1 &#45; Product&#45;&gt;15 &#45; __Block_Outport__ -->
<g id="edge4" class="edge"><title>1 &#45; Product&#45;&gt;15 &#45; __Block_Outport__</title>
<path fill="none" stroke="black" d="M1027.39,-309.803C1047.19,-296.908 1074.52,-279.099 1096.42,-264.831"/>
<polygon fill="black" stroke="black" points="1098.36,-267.747 1104.83,-259.356 1094.54,-261.882 1098.36,-267.747"/>
</g>
<!-- 28 &#45; __Block_Inport__ -->
<g id="node29" class="node"><title>28 &#45; __Block_Inport__</title>
<ellipse fill="#b94a62" stroke="black" cx="869" cy="-241" rx="118.087" ry="18.3848"/>
<text text-anchor="middle" x="869" y="-237.4" font-family="Times Roman,serif" font-size="14.00">28 &#45; __Block_Inport__</text>
</g>
<!-- 1 &#45; Product&#45;&gt;28 &#45; __Block_Inport__ -->
<g id="edge70" class="edge"><title>1 &#45; Product&#45;&gt;28 &#45; __Block_Inport__</title>
<path fill="none" stroke="black" d="M974.605,-309.803C954.679,-296.821 927.111,-278.86 905.138,-264.544"/>
<polygon fill="black" stroke="black" points="907.004,-261.583 896.714,-259.056 903.182,-267.448 907.004,-261.583"/>
</g>
<!-- 29 &#45; __Block_Inport__ -->
<g id="node30" class="node"><title>29 &#45; __Block_Inport__</title>
<ellipse fill="#b94a62" stroke="black" cx="772" cy="-167" rx="118.087" ry="18.3848"/>
<text text-anchor="middle" x="772" y="-163.4" font-family="Times Roman,serif" font-size="14.00">29 &#45; __Block_Inport__</text>
</g>
<!-- 1 &#45; Product&#45;&gt;29 &#45; __Block_Inport__ -->
<g id="edge72" class="edge"><title>1 &#45; Product&#45;&gt;29 &#45; __Block_Inport__</title>
<path fill="none" stroke="black" d="M939.307,-319.713C870.583,-310.177 765.955,-290.941 742,-260 727.072,-240.719 738.364,-213.773 751.138,-193.847"/>
<polygon fill="black" stroke="black" points="754.082,-195.742 756.827,-185.509 748.299,-191.797 754.082,-195.742"/>
</g>
<!-- 2 &#45; Sum -->
<g id="node3" class="node"><title>2 &#45; Sum</title>
<ellipse fill="lightblue" stroke="black" cx="1693" cy="-327" rx="50.2046" ry="18.3848"/>
<text text-anchor="middle" x="1693" y="-323.4" font-family="Times Roman,serif" font-size="14.00">2 &#45; Sum</text>
</g>
<!-- 16 &#45; __Block_Outport__ -->
<g id="node17" class="node"><title>16 &#45; __Block_Outport__</title>
<ellipse fill="#b94a62" stroke="black" cx="1716" cy="-241" rx="126.78" ry="18.3848"/>
<text text-anchor="middle" x="1716" y="-237.4" font-family="Times Roman,serif" font-size="14.00">16 &#45; __Block_Outport__</text>
</g>
<!-- 2 &#45; Sum&#45;&gt;16 &#45; __Block_Outport__ -->
<g id="edge6" class="edge"><title>2 &#45; Sum&#45;&gt;16 &#45; __Block_Outport__</title>
<path fill="none" stroke="black" d="M1697.99,-308.339C1701.03,-296.957 1704.99,-282.182 1708.41,-269.373"/>
<polygon fill="black" stroke="black" points="1711.82,-270.189 1711.02,-259.624 1705.05,-268.38 1711.82,-270.189"/>
</g>
<!-- 30 &#45; __Block_Inport__ -->
<g id="node31" class="node"><title>30 &#45; __Block_Inport__</title>
<ellipse fill="#b94a62" stroke="black" cx="1485" cy="-93" rx="116.88" ry="18.3848"/>
<text text-anchor="middle" x="1485" y="-89.4" font-family="Times Roman,serif" font-size="14.00">30 &#45; __Block_Inport__</text>
</g>
<!-- 2 &#45; Sum&#45;&gt;30 &#45; __Block_Inport__ -->
<g id="edge74" class="edge"><title>2 &#45; Sum&#45;&gt;30 &#45; __Block_Inport__</title>
<path fill="none" stroke="black" d="M1660,-313.083C1635.66,-301.574 1602.93,-283.35 1580,-260 1539.41,-218.671 1510.17,-156.558 1495.56,-120.883"/>
<polygon fill="black" stroke="black" points="1498.8,-119.545 1491.83,-111.561 1492.3,-122.145 1498.8,-119.545"/>
</g>
<!-- 31 &#45; __Block_Inport__ -->
<g id="node32" class="node"><title>31 &#45; __Block_Inport__</title>
<ellipse fill="#b94a62" stroke="black" cx="1986" cy="-93" rx="118.087" ry="18.3848"/>
<text text-anchor="middle" x="1986" y="-89.4" font-family="Times Roman,serif" font-size="14.00">31 &#45; __Block_Inport__</text>
</g>
<!-- 2 &#45; Sum&#45;&gt;31 &#45; __Block_Inport__ -->
<g id="edge76" class="edge"><title>2 &#45; Sum&#45;&gt;31 &#45; __Block_Inport__</title>
<path fill="none" stroke="black" d="M1737.89,-318.615C1773.37,-309.775 1821.8,-292.452 1852,-260 1887.81,-221.523 1856.59,-188.58 1890,-148 1901.23,-134.365 1916.77,-123.429 1932.09,-115.012"/>
<polygon fill="black" stroke="black" points="1933.79,-118.07 1941.05,-110.346 1930.56,-111.862 1933.79,-118.07"/>
</g>
<!-- 3 &#45; UnitDelay -->
<g id="node4" class="node"><title>3 &#45; UnitDelay</title>
<ellipse fill="lightblue" stroke="black" cx="2017" cy="-327" rx="77.7817" ry="18.3848"/>
<text text-anchor="middle" x="2017" y="-323.4" font-family="Times Roman,serif" font-size="14.00">3 &#45; UnitDelay</text>
</g>
<!-- 17 &#45; __Block_Outport__ -->
<g id="node18" class="node"><title>17 &#45; __Block_Outport__</title>
<ellipse fill="#b94a62" stroke="black" cx="2211" cy="-241" rx="128.193" ry="18.3848"/>
<text text-anchor="middle" x="2211" y="-237.4" font-family="Times Roman,serif" font-size="14.00">17 &#45; __Block_Outport__</text>
</g>
<!-- 3 &#45; UnitDelay&#45;&gt;17 &#45; __Block_Outport__ -->
<g id="edge8" class="edge"><title>3 &#45; UnitDelay&#45;&gt;17 &#45; __Block_Outport__</title>
<path fill="none" stroke="black" d="M2053.95,-310.622C2084.6,-297.035 2128.43,-277.602 2162.01,-262.718"/>
<polygon fill="black" stroke="black" points="2163.46,-265.902 2171.19,-258.65 2160.63,-259.502 2163.46,-265.902"/>
</g>
<!-- 32 &#45; __Block_Inport__ -->
<g id="node33" class="node"><title>32 &#45; __Block_Inport__</title>
<ellipse fill="#b94a62" stroke="black" cx="2017" cy="-167" rx="118.087" ry="18.3848"/>
<text text-anchor="middle" x="2017" y="-163.4" font-family="Times Roman,serif" font-size="14.00">32 &#45; __Block_Inport__</text>
</g>
<!-- 3 &#45; UnitDelay&#45;&gt;32 &#45; __Block_Inport__ -->
<g id="edge78" class="edge"><title>3 &#45; UnitDelay&#45;&gt;32 &#45; __Block_Inport__</title>
<path fill="none" stroke="black" d="M2017,-308.333C2017,-280.634 2017,-228.419 2017,-195.797"/>
<polygon fill="black" stroke="black" points="2020.5,-195.548 2017,-185.548 2013.5,-195.548 2020.5,-195.548"/>
</g>
<!-- 4 &#45; Gain\n Gain = 0.01 -->
<g id="node5" class="node"><title>4 &#45; Gain\n Gain = 0.01</title>
<ellipse fill="lightblue" stroke="black" cx="541" cy="-327" rx="74.2462" ry="31.1127"/>
<text text-anchor="middle" x="541" y="-332.4" font-family="Times Roman,serif" font-size="14.00">4 &#45; Gain</text>
<text text-anchor="middle" x="541" y="-314.4" font-family="Times Roman,serif" font-size="14.00"> Gain = 0.01</text>
</g>
<!-- 19 &#45; __Block_Outport__ -->
<g id="node20" class="node"><title>19 &#45; __Block_Outport__</title>
<ellipse fill="#b94a62" stroke="black" cx="541" cy="-241" rx="126.78" ry="18.3848"/>
<text text-anchor="middle" x="541" y="-237.4" font-family="Times Roman,serif" font-size="14.00">19 &#45; __Block_Outport__</text>
</g>
<!-- 4 &#45; Gain\n Gain = 0.01&#45;&gt;19 &#45; __Block_Outport__ -->
<g id="edge10" class="edge"><title>4 &#45; Gain\n Gain = 0.01&#45;&gt;19 &#45; __Block_Outport__</title>
<path fill="none" stroke="black" d="M541,-295.952C541,-287.427 541,-278.221 541,-269.827"/>
<polygon fill="black" stroke="black" points="544.5,-269.74 541,-259.74 537.5,-269.74 544.5,-269.74"/>
</g>
<!-- 33 &#45; __Block_Inport__ -->
<g id="node34" class="node"><title>33 &#45; __Block_Inport__</title>
<ellipse fill="#b94a62" stroke="black" cx="311" cy="-167" rx="116.88" ry="18.3848"/>
<text text-anchor="middle" x="311" y="-163.4" font-family="Times Roman,serif" font-size="14.00">33 &#45; __Block_Inport__</text>
</g>
<!-- 4 &#45; Gain\n Gain = 0.01&#45;&gt;33 &#45; __Block_Inport__ -->
<g id="edge80" class="edge"><title>4 &#45; Gain\n Gain = 0.01&#45;&gt;33 &#45; __Block_Inport__</title>
<path fill="none" stroke="black" d="M487.431,-305.438C461.431,-293.794 430.405,-278.095 405,-260 377.763,-240.6 351.088,-213.168 333.154,-193.124"/>
<polygon fill="black" stroke="black" points="335.732,-190.756 326.493,-185.569 330.481,-195.385 335.732,-190.756"/>
</g>
<!-- 5 &#45; Outport -->
<g id="node6" class="node"><title>5 &#45; Outport</title>
<ellipse fill="#eedd82" stroke="black" cx="2206" cy="-327" rx="67.1751" ry="18.3848"/>
<text text-anchor="middle" x="2206" y="-323.4" font-family="Times Roman,serif" font-size="14.00">5 &#45; Outport</text>
</g>
<!-- 27 &#45; __Block_Inport__ -->
<g id="node28" class="node"><title>27 &#45; __Block_Inport__</title>
<ellipse fill="#b94a62" stroke="black" cx="2535" cy="-241" rx="118.794" ry="18.3848"/>
<text text-anchor="middle" x="2535" y="-237.4" font-family="Times Roman,serif" font-size="14.00">27 &#45; __Block_Inport__</text>
</g>
<!-- 5 &#45; Outport&#45;&gt;27 &#45; __Block_Inport__ -->
<g id="edge68" class="edge"><title>5 &#45; Outport&#45;&gt;27 &#45; __Block_Inport__</title>
<path fill="none" stroke="black" d="M2254.9,-314.218C2310.29,-299.739 2401.04,-276.016 2464.18,-259.513"/>
<polygon fill="black" stroke="black" points="2465.27,-262.844 2474.06,-256.928 2463.5,-256.071 2465.27,-262.844"/>
</g>
<!-- 6 &#45; SubSystem -->
<g id="node7" class="node"><title>6 &#45; SubSystem</title>
<ellipse fill="lightgreen" stroke="black" cx="1406" cy="-487" rx="84.1457" ry="18.3848"/>
<text text-anchor="middle" x="1406" y="-483.4" font-family="Times Roman,serif" font-size="14.00">6 &#45; SubSystem</text>
</g>
<!-- 41 &#45; __Contains__ -->
<g id="node42" class="node"><title>41 &#45; __Contains__</title>
<ellipse fill="lightgray" stroke="black" cx="1128" cy="-413" rx="99.9096" ry="18.3848"/>
<text text-anchor="middle" x="1128" y="-409.4" font-family="Times Roman,serif" font-size="14.00">41 &#45; __Contains__</text>
</g>
<!-- 6 &#45; SubSystem&#45;&gt;41 &#45; __Contains__ -->
<g id="edge12" class="edge"><title>6 &#45; SubSystem&#45;&gt;41 &#45; __Contains__</title>
<path fill="none" stroke="black" d="M1352.4,-472.732C1307.53,-460.787 1243.26,-443.682 1195,-430.835"/>
<polygon fill="black" stroke="black" points="1195.83,-427.433 1185.26,-428.243 1194.03,-434.198 1195.83,-427.433"/>
</g>
<!-- 42 &#45; __Contains__ -->
<g id="node43" class="node"><title>42 &#45; __Contains__</title>
<ellipse fill="lightgray" stroke="black" cx="1646" cy="-413" rx="99.201" ry="18.3848"/>
<text text-anchor="middle" x="1646" y="-409.4" font-family="Times Roman,serif" font-size="14.00">42 &#45; __Contains__</text>
</g>
<!-- 6 &#45; SubSystem&#45;&gt;42 &#45; __Contains__ -->
<g id="edge14" class="edge"><title>6 &#45; SubSystem&#45;&gt;42 &#45; __Contains__</title>
<path fill="none" stroke="black" d="M1454.86,-471.936C1492.34,-460.38 1544.3,-444.356 1584.59,-431.934"/>
<polygon fill="black" stroke="black" points="1585.78,-435.23 1594.31,-428.939 1583.72,-428.541 1585.78,-435.23"/>
</g>
<!-- 43 &#45; __Contains__ -->
<g id="node44" class="node"><title>43 &#45; __Contains__</title>
<ellipse fill="lightgray" stroke="black" cx="1900" cy="-413" rx="98.9949" ry="18.3848"/>
<text text-anchor="middle" x="1900" y="-409.4" font-family="Times Roman,serif" font-size="14.00">43 &#45; __Contains__</text>
</g>
<!-- 6 &#45; SubSystem&#45;&gt;43 &#45; __Contains__ -->
<g id="edge16" class="edge"><title>6 &#45; SubSystem&#45;&gt;43 &#45; __Contains__</title>
<path fill="none" stroke="black" d="M1475.47,-476.594C1563.76,-463.368 1716.23,-440.528 1812.41,-426.121"/>
<polygon fill="black" stroke="black" points="1813.03,-429.567 1822.4,-424.624 1811.99,-422.644 1813.03,-429.567"/>
</g>
<!-- 44 &#45; __Contains__ -->
<g id="node45" class="node"><title>44 &#45; __Contains__</title>
<ellipse fill="lightgray" stroke="black" cx="2154" cy="-413" rx="99.201" ry="18.3848"/>
<text text-anchor="middle" x="2154" y="-409.4" font-family="Times Roman,serif" font-size="14.00">44 &#45; __Contains__</text>
</g>
<!-- 6 &#45; SubSystem&#45;&gt;44 &#45; __Contains__ -->
<g id="edge24" class="edge"><title>6 &#45; SubSystem&#45;&gt;44 &#45; __Contains__</title>
<path fill="none" stroke="black" d="M1485.47,-480.715C1600.74,-471.377 1821.02,-452.7 2008,-432 2026.11,-429.995 2045.46,-427.633 2063.95,-425.268"/>
<polygon fill="black" stroke="black" points="2064.65,-428.707 2074.12,-423.956 2063.76,-421.764 2064.65,-428.707"/>
</g>
<!-- 45 &#45; __Contains__ -->
<g id="node46" class="node"><title>45 &#45; __Contains__</title>
<ellipse fill="lightgray" stroke="black" cx="327" cy="-413" rx="99.201" ry="18.3848"/>
<text text-anchor="middle" x="327" y="-409.4" font-family="Times Roman,serif" font-size="14.00">45 &#45; __Contains__</text>
</g>
<!-- 6 &#45; SubSystem&#45;&gt;45 &#45; __Contains__ -->
<g id="edge22" class="edge"><title>6 &#45; SubSystem&#45;&gt;45 &#45; __Contains__</title>
<path fill="none" stroke="black" d="M1325.78,-481.498C1133.11,-468.285 644.417,-434.769 430.24,-420.08"/>
<polygon fill="black" stroke="black" points="430.467,-416.588 420.251,-419.395 429.988,-423.571 430.467,-416.588"/>
</g>
<!-- 46 &#45; __Contains__ -->
<g id="node47" class="node"><title>46 &#45; __Contains__</title>
<ellipse fill="lightgray" stroke="black" cx="1406" cy="-413" rx="98.9949" ry="18.3848"/>
<text text-anchor="middle" x="1406" y="-409.4" font-family="Times Roman,serif" font-size="14.00">46 &#45; __Contains__</text>
</g>
<!-- 6 &#45; SubSystem&#45;&gt;46 &#45; __Contains__ -->
<g id="edge20" class="edge"><title>6 &#45; SubSystem&#45;&gt;46 &#45; __Contains__</title>
<path fill="none" stroke="black" d="M1406,-468.327C1406,-460.264 1406,-450.648 1406,-441.711"/>
<polygon fill="black" stroke="black" points="1409.5,-441.667 1406,-431.667 1402.5,-441.667 1409.5,-441.667"/>
</g>
<!-- 47 &#45; __Contains__ -->
<g id="node48" class="node"><title>47 &#45; __Contains__</title>
<ellipse fill="lightgray" stroke="black" cx="788" cy="-413" rx="99.9096" ry="18.3848"/>
<text text-anchor="middle" x="788" y="-409.4" font-family="Times Roman,serif" font-size="14.00">47 &#45; __Contains__</text>
</g>
<!-- 6 &#45; SubSystem&#45;&gt;47 &#45; __Contains__ -->
<g id="edge18" class="edge"><title>6 &#45; SubSystem&#45;&gt;47 &#45; __Contains__</title>
<path fill="none" stroke="black" d="M1332.07,-478.147C1219.65,-464.686 1005.79,-439.078 882.322,-424.294"/>
<polygon fill="black" stroke="black" points="882.473,-420.787 872.128,-423.074 881.64,-427.738 882.473,-420.787"/>
</g>
<!-- 7 &#45; Inport -->
<g id="node8" class="node"><title>7 &#45; Inport</title>
<ellipse fill="#eedd82" stroke="black" cx="1406" cy="-327" rx="58.1882" ry="18.3848"/>
<text text-anchor="middle" x="1406" y="-323.4" font-family="Times Roman,serif" font-size="14.00">7 &#45; Inport</text>
</g>
<!-- 18 &#45; __Block_Outport__ -->
<g id="node19" class="node"><title>18 &#45; __Block_Outport__</title>
<ellipse fill="#b94a62" stroke="black" cx="1406" cy="-241" rx="126.78" ry="18.3848"/>
<text text-anchor="middle" x="1406" y="-237.4" font-family="Times Roman,serif" font-size="14.00">18 &#45; __Block_Outport__</text>
</g>
<!-- 7 &#45; Inport&#45;&gt;18 &#45; __Block_Outport__ -->
<g id="edge26" class="edge"><title>7 &#45; Inport&#45;&gt;18 &#45; __Block_Outport__</title>
<path fill="none" stroke="black" d="M1406,-308.339C1406,-297.07 1406,-282.474 1406,-269.754"/>
<polygon fill="black" stroke="black" points="1409.5,-269.624 1406,-259.624 1402.5,-269.624 1409.5,-269.624"/>
</g>
<!-- 8 &#45; Port_Output -->
<g id="node9" class="node"><title>8 &#45; Port_Output</title>
<ellipse fill="coral" stroke="black" cx="88" cy="-167" rx="87.889" ry="18.3848"/>
<text text-anchor="middle" x="88" y="-163.4" font-family="Times Roman,serif" font-size="14.00">8 &#45; Port_Output</text>
</g>
<!-- 40 &#45; __Relation__ -->
<g id="node41" class="node"><title>40 &#45; __Relation__</title>
<ellipse fill="#f78465" stroke="black" cx="113" cy="-93" rx="96.8736" ry="18.3848"/>
<text text-anchor="middle" x="113" y="-89.4" font-family="Times Roman,serif" font-size="14.00">40 &#45; __Relation__</text>
</g>
<!-- 8 &#45; Port_Output&#45;&gt;40 &#45; __Relation__ -->
<g id="edge28" class="edge"><title>8 &#45; Port_Output&#45;&gt;40 &#45; __Relation__</title>
<path fill="none" stroke="black" d="M94.3086,-148.327C97.0621,-140.176 100.352,-130.438 103.399,-121.42"/>
<polygon fill="black" stroke="black" points="106.809,-122.262 106.693,-111.667 100.177,-120.021 106.809,-122.262"/>
</g>
<!-- 9 &#45; Port_Output -->
<g id="node10" class="node"><title>9 &#45; Port_Output</title>
<ellipse fill="coral" stroke="black" cx="1151" cy="-167" rx="87.889" ry="18.3848"/>
<text text-anchor="middle" x="1151" y="-163.4" font-family="Times Roman,serif" font-size="14.00">9 &#45; Port_Output</text>
</g>
<!-- 37 &#45; __Relation__ -->
<g id="node38" class="node"><title>37 &#45; __Relation__</title>
<ellipse fill="#f78465" stroke="black" cx="1253" cy="-93" rx="96.8736" ry="18.3848"/>
<text text-anchor="middle" x="1253" y="-89.4" font-family="Times Roman,serif" font-size="14.00">37 &#45; __Relation__</text>
</g>
<!-- 9 &#45; Port_Output&#45;&gt;37 &#45; __Relation__ -->
<g id="edge30" class="edge"><title>9 &#45; Port_Output&#45;&gt;37 &#45; __Relation__</title>
<path fill="none" stroke="black" d="M1175.69,-149.087C1189,-139.432 1205.6,-127.391 1220,-116.942"/>
<polygon fill="black" stroke="black" points="1222.14,-119.71 1228.18,-111.005 1218.03,-114.044 1222.14,-119.71"/>
</g>
<!-- 10 &#45; Port_Output -->
<g id="node11" class="node"><title>10 &#45; Port_Output</title>
<ellipse fill="coral" stroke="black" cx="1716" cy="-167" rx="94.7523" ry="18.3848"/>
<text text-anchor="middle" x="1716" y="-163.4" font-family="Times Roman,serif" font-size="14.00">10 &#45; Port_Output</text>
</g>
<!-- 36 &#45; __Relation__ -->
<g id="node37" class="node"><title>36 &#45; __Relation__</title>
<ellipse fill="#f78465" stroke="black" cx="1716" cy="-93" rx="96.1665" ry="18.3848"/>
<text text-anchor="middle" x="1716" y="-89.4" font-family="Times Roman,serif" font-size="14.00">36 &#45; __Relation__</text>
</g>
<!-- 10 &#45; Port_Output&#45;&gt;36 &#45; __Relation__ -->
<g id="edge32" class="edge"><title>10 &#45; Port_Output&#45;&gt;36 &#45; __Relation__</title>
<path fill="none" stroke="black" d="M1716,-148.327C1716,-140.264 1716,-130.648 1716,-121.711"/>
<polygon fill="black" stroke="black" points="1719.5,-121.667 1716,-111.667 1712.5,-121.667 1719.5,-121.667"/>
</g>
<!-- 11 &#45; Port_Output -->
<g id="node12" class="node"><title>11 &#45; Port_Output</title>
<ellipse fill="coral" stroke="black" cx="2249" cy="-167" rx="96.1665" ry="18.3848"/>
<text text-anchor="middle" x="2249" y="-163.4" font-family="Times Roman,serif" font-size="14.00">11 &#45; Port_Output</text>
</g>
<!-- 34 &#45; __Relation__ -->
<g id="node35" class="node"><title>34 &#45; __Relation__</title>
<ellipse fill="#f78465" stroke="black" cx="2219" cy="-93" rx="96.8736" ry="18.3848"/>
<text text-anchor="middle" x="2219" y="-89.4" font-family="Times Roman,serif" font-size="14.00">34 &#45; __Relation__</text>
</g>
<!-- 11 &#45; Port_Output&#45;&gt;34 &#45; __Relation__ -->
<g id="edge36" class="edge"><title>11 &#45; Port_Output&#45;&gt;34 &#45; __Relation__</title>
<path fill="none" stroke="black" d="M2241.43,-148.327C2238.09,-140.089 2234.09,-130.229 2230.4,-121.13"/>
<polygon fill="black" stroke="black" points="2233.57,-119.62 2226.57,-111.667 2227.08,-122.25 2233.57,-119.62"/>
</g>
<!-- 35 &#45; __Relation__ -->
<g id="node36" class="node"><title>35 &#45; __Relation__</title>
<ellipse fill="#f78465" stroke="black" cx="2431" cy="-93" rx="96.8736" ry="18.3848"/>
<text text-anchor="middle" x="2431" y="-89.4" font-family="Times Roman,serif" font-size="14.00">35 &#45; __Relation__</text>
</g>
<!-- 11 &#45; Port_Output&#45;&gt;35 &#45; __Relation__ -->
<g id="edge34" class="edge"><title>11 &#45; Port_Output&#45;&gt;35 &#45; __Relation__</title>
<path fill="none" stroke="black" d="M2290.3,-150.208C2316.96,-139.366 2351.84,-125.184 2380.2,-113.653"/>
<polygon fill="black" stroke="black" points="2381.6,-116.862 2389.55,-109.853 2378.97,-110.378 2381.6,-116.862"/>
</g>
<!-- 12 &#45; Port_Output -->
<g id="node13" class="node"><title>12 &#45; Port_Output</title>
<ellipse fill="coral" stroke="black" cx="1370" cy="-167" rx="94.9596" ry="18.3848"/>
<text text-anchor="middle" x="1370" y="-163.4" font-family="Times Roman,serif" font-size="14.00">12 &#45; Port_Output</text>
</g>
<!-- 39 &#45; __Relation__ -->
<g id="node40" class="node"><title>39 &#45; __Relation__</title>
<ellipse fill="#f78465" stroke="black" cx="1042" cy="-93" rx="96.1665" ry="18.3848"/>
<text text-anchor="middle" x="1042" y="-89.4" font-family="Times Roman,serif" font-size="14.00">39 &#45; __Relation__</text>
</g>
<!-- 12 &#45; Port_Output&#45;&gt;39 &#45; __Relation__ -->
<g id="edge38" class="edge"><title>12 &#45; Port_Output&#45;&gt;39 &#45; __Relation__</title>
<path fill="none" stroke="black" d="M1307.92,-152.994C1252.79,-140.557 1172.21,-122.376 1114.21,-109.292"/>
<polygon fill="black" stroke="black" points="1114.91,-105.861 1104.38,-107.074 1113.37,-112.689 1114.91,-105.861"/>
</g>
<!-- 13 &#45; Port_Output -->
<g id="node14" class="node"><title>13 &#45; Port_Output</title>
<ellipse fill="coral" stroke="black" cx="541" cy="-167" rx="94.7523" ry="18.3848"/>
<text text-anchor="middle" x="541" y="-163.4" font-family="Times Roman,serif" font-size="14.00">13 &#45; Port_Output</text>
</g>
<!-- 38 &#45; __Relation__ -->
<g id="node39" class="node"><title>38 &#45; __Relation__</title>
<ellipse fill="#f78465" stroke="black" cx="568" cy="-93" rx="96.1665" ry="18.3848"/>
<text text-anchor="middle" x="568" y="-89.4" font-family="Times Roman,serif" font-size="14.00">38 &#45; __Relation__</text>
</g>
<!-- 13 &#45; Port_Output&#45;&gt;38 &#45; __Relation__ -->
<g id="edge40" class="edge"><title>13 &#45; Port_Output&#45;&gt;38 &#45; __Relation__</title>
<path fill="none" stroke="black" d="M547.813,-148.327C550.819,-140.089 554.417,-130.229 557.736,-121.13"/>
<polygon fill="black" stroke="black" points="561.049,-122.261 561.189,-111.667 554.473,-119.862 561.049,-122.261"/>
</g>
<!-- 14 &#45; __Block_Outport__&#45;&gt;8 &#45; Port_Output -->
<g id="edge42" class="edge"><title>14 &#45; __Block_Outport__&#45;&gt;8 &#45; Port_Output</title>
<path fill="none" stroke="black" d="M141.084,-222.327C132.376,-213.251 121.78,-202.207 112.351,-192.38"/>
<polygon fill="black" stroke="black" points="114.869,-189.948 105.42,-185.156 109.817,-194.795 114.869,-189.948"/>
</g>
<!-- 15 &#45; __Block_Outport__&#45;&gt;9 &#45; Port_Output -->
<g id="edge44" class="edge"><title>15 &#45; __Block_Outport__&#45;&gt;9 &#45; Port_Output</title>
<path fill="none" stroke="black" d="M1137.54,-222.327C1139.52,-214.176 1141.89,-204.438 1144.09,-195.42"/>
<polygon fill="black" stroke="black" points="1147.5,-196.211 1146.46,-185.667 1140.69,-194.557 1147.5,-196.211"/>
</g>
<!-- 16 &#45; __Block_Outport__&#45;&gt;10 &#45; Port_Output -->
<g id="edge46" class="edge"><title>16 &#45; __Block_Outport__&#45;&gt;10 &#45; Port_Output</title>
<path fill="none" stroke="black" d="M1716,-222.327C1716,-214.264 1716,-204.648 1716,-195.711"/>
<polygon fill="black" stroke="black" points="1719.5,-195.667 1716,-185.667 1712.5,-195.667 1719.5,-195.667"/>
</g>
<!-- 17 &#45; __Block_Outport__&#45;&gt;11 &#45; Port_Output -->
<g id="edge48" class="edge"><title>17 &#45; __Block_Outport__&#45;&gt;11 &#45; Port_Output</title>
<path fill="none" stroke="black" d="M2220.59,-222.327C2224.94,-213.849 2230.18,-203.654 2234.96,-194.338"/>
<polygon fill="black" stroke="black" points="2238.09,-195.906 2239.55,-185.411 2231.86,-192.708 2238.09,-195.906"/>
</g>
<!-- 18 &#45; __Block_Outport__&#45;&gt;12 &#45; Port_Output -->
<g id="edge50" class="edge"><title>18 &#45; __Block_Outport__&#45;&gt;12 &#45; Port_Output</title>
<path fill="none" stroke="black" d="M1396.92,-222.327C1392.87,-214.001 1388.01,-204.019 1383.54,-194.84"/>
<polygon fill="black" stroke="black" points="1386.6,-193.129 1379.08,-185.667 1380.31,-196.191 1386.6,-193.129"/>
</g>
<!-- 19 &#45; __Block_Outport__&#45;&gt;13 &#45; Port_Output -->
<g id="edge52" class="edge"><title>19 &#45; __Block_Outport__&#45;&gt;13 &#45; Port_Output</title>
<path fill="none" stroke="black" d="M541,-222.327C541,-214.264 541,-204.648 541,-195.711"/>
<polygon fill="black" stroke="black" points="544.5,-195.667 541,-185.667 537.5,-195.667 544.5,-195.667"/>
</g>
<!-- 20 &#45; Port_Input -->
<g id="node21" class="node"><title>20 &#45; Port_Input</title>
<ellipse fill="lightyellow" stroke="black" cx="2493" cy="-19" rx="85.0596" ry="18.3848"/>
<text text-anchor="middle" x="2493" y="-15.4" font-family="Times Roman,serif" font-size="14.00">20 &#45; Port_Input</text>
</g>
<!-- 21 &#45; Port_Input -->
<g id="node22" class="node"><title>21 &#45; Port_Input</title>
<ellipse fill="lightyellow" stroke="black" cx="980" cy="-19" rx="85.7684" ry="18.3848"/>
<text text-anchor="middle" x="980" y="-15.4" font-family="Times Roman,serif" font-size="14.00">21 &#45; Port_Input</text>
</g>
<!-- 22 &#45; Port_Input -->
<g id="node23" class="node"><title>22 &#45; Port_Input</title>
<ellipse fill="lightyellow" stroke="black" cx="643" cy="-19" rx="85.7684" ry="18.3848"/>
<text text-anchor="middle" x="643" y="-15.4" font-family="Times Roman,serif" font-size="14.00">22 &#45; Port_Input</text>
</g>
<!-- 23 &#45; Port_Input -->
<g id="node24" class="node"><title>23 &#45; Port_Input</title>
<ellipse fill="lightyellow" stroke="black" cx="1369" cy="-19" rx="85.0596" ry="18.3848"/>
<text text-anchor="middle" x="1369" y="-15.4" font-family="Times Roman,serif" font-size="14.00">23 &#45; Port_Input</text>
</g>
<!-- 24 &#45; Port_Input -->
<g id="node25" class="node"><title>24 &#45; Port_Input</title>
<ellipse fill="lightyellow" stroke="black" cx="2102" cy="-19" rx="85.7684" ry="18.3848"/>
<text text-anchor="middle" x="2102" y="-15.4" font-family="Times Roman,serif" font-size="14.00">24 &#45; Port_Input</text>
</g>
<!-- 25 &#45; Port_Input -->
<g id="node26" class="node"><title>25 &#45; Port_Input</title>
<ellipse fill="lightyellow" stroke="black" cx="1778" cy="-19" rx="85.7684" ry="18.3848"/>
<text text-anchor="middle" x="1778" y="-15.4" font-family="Times Roman,serif" font-size="14.00">25 &#45; Port_Input</text>
</g>
<!-- 26 &#45; Port_Input -->
<g id="node27" class="node"><title>26 &#45; Port_Input</title>
<ellipse fill="lightyellow" stroke="black" cx="200" cy="-19" rx="85.0596" ry="18.3848"/>
<text text-anchor="middle" x="200" y="-15.4" font-family="Times Roman,serif" font-size="14.00">26 &#45; Port_Input</text>
</g>
<!-- 27 &#45; __Block_Inport__&#45;&gt;20 &#45; Port_Input -->
<g id="edge54" class="edge"><title>27 &#45; __Block_Inport__&#45;&gt;20 &#45; Port_Input</title>
<path fill="none" stroke="black" d="M2539.27,-222.295C2545.61,-190.689 2554.95,-125.164 2537,-74 2533.32,-63.5068 2526.7,-53.5284 2519.7,-45.0231"/>
<polygon fill="black" stroke="black" points="2522.18,-42.5469 2512.95,-37.3511 2516.93,-47.1708 2522.18,-42.5469"/>
</g>
<!-- 28 &#45; __Block_Inport__&#45;&gt;21 &#45; Port_Input -->
<g id="edge56" class="edge"><title>28 &#45; __Block_Inport__&#45;&gt;21 &#45; Port_Input</title>
<path fill="none" stroke="black" d="M880.094,-222.565C886.143,-212.071 893.497,-198.551 899,-186 920.108,-137.859 912.015,-120.247 937,-74 942.414,-63.9794 949.647,-53.9047 956.634,-45.1657"/>
<polygon fill="black" stroke="black" points="959.512,-47.1776 963.19,-37.2418 954.119,-42.7151 959.512,-47.1776"/>
</g>
<!-- 29 &#45; __Block_Inport__&#45;&gt;22 &#45; Port_Input -->
<g id="edge58" class="edge"><title>29 &#45; __Block_Inport__&#45;&gt;22 &#45; Port_Input</title>
<path fill="none" stroke="black" d="M755.923,-148.555C733.204,-122.49 691.596,-74.7541 665.725,-45.0725"/>
<polygon fill="black" stroke="black" points="668.084,-42.4513 658.874,-37.2126 662.807,-47.0507 668.084,-42.4513"/>
</g>
<!-- 30 &#45; __Block_Inport__&#45;&gt;23 &#45; Port_Input -->
<g id="edge60" class="edge"><title>30 &#45; __Block_Inport__&#45;&gt;23 &#45; Port_Input</title>
<path fill="none" stroke="black" d="M1456.62,-74.8976C1441.23,-65.0777 1422.03,-52.8301 1405.53,-42.3044"/>
<polygon fill="black" stroke="black" points="1407,-39.0877 1396.68,-36.6602 1403.23,-44.9891 1407,-39.0877"/>
</g>
<!-- 31 &#45; __Block_Inport__&#45;&gt;24 &#45; Port_Input -->
<g id="edge62" class="edge"><title>31 &#45; __Block_Inport__&#45;&gt;24 &#45; Port_Input</title>
<path fill="none" stroke="black" d="M2014.38,-74.8976C2029.77,-65.0777 2048.97,-52.8301 2065.47,-42.3044"/>
<polygon fill="black" stroke="black" points="2067.77,-44.9891 2074.32,-36.6602 2064,-39.0877 2067.77,-44.9891"/>
</g>
<!-- 32 &#45; __Block_Inport__&#45;&gt;25 &#45; Port_Input -->
<g id="edge64" class="edge"><title>32 &#45; __Block_Inport__&#45;&gt;25 &#45; Port_Input</title>
<path fill="none" stroke="black" d="M1949.24,-151.784C1919.86,-143.143 1886.07,-130.305 1859,-112 1845.04,-102.558 1817.61,-69.5558 1798.57,-45.5429"/>
<polygon fill="black" stroke="black" points="1801.15,-43.168 1792.21,-37.4775 1795.65,-47.4991 1801.15,-43.168"/>
</g>
<!-- 33 &#45; __Block_Inport__&#45;&gt;26 &#45; Port_Input -->
<g id="edge66" class="edge"><title>33 &#45; __Block_Inport__&#45;&gt;26 &#45; Port_Input</title>
<path fill="none" stroke="black" d="M297.166,-148.555C277.807,-122.742 242.508,-75.6767 220.205,-45.94"/>
<polygon fill="black" stroke="black" points="222.808,-43.5775 214.008,-37.6775 217.208,-47.7775 222.808,-43.5775"/>
</g>
<!-- 34 &#45; __Relation__&#45;&gt;24 &#45; Port_Input -->
<g id="edge82" class="edge"><title>34 &#45; __Relation__&#45;&gt;24 &#45; Port_Input</title>
<path fill="none" stroke="black" d="M2190.98,-75.2752C2175.2,-65.2984 2155.33,-52.7277 2138.36,-41.9991"/>
<polygon fill="black" stroke="black" points="2140.12,-38.9676 2129.8,-36.5802 2136.38,-44.8836 2140.12,-38.9676"/>
</g>
<!-- 35 &#45; __Relation__&#45;&gt;20 &#45; Port_Input -->
<g id="edge84" class="edge"><title>35 &#45; __Relation__&#45;&gt;20 &#45; Port_Input</title>
<path fill="none" stroke="black" d="M2446.33,-74.7079C2453.78,-65.8135 2462.87,-54.9619 2471.04,-45.2071"/>
<polygon fill="black" stroke="black" points="2473.9,-47.2512 2477.64,-37.3382 2468.53,-42.7556 2473.9,-47.2512"/>
</g>
<!-- 36 &#45; __Relation__&#45;&gt;25 &#45; Port_Input -->
<g id="edge86" class="edge"><title>36 &#45; __Relation__&#45;&gt;25 &#45; Port_Input</title>
<path fill="none" stroke="black" d="M1731.33,-74.7079C1738.78,-65.8135 1747.87,-54.9619 1756.04,-45.2071"/>
<polygon fill="black" stroke="black" points="1758.9,-47.2512 1762.64,-37.3382 1753.53,-42.7556 1758.9,-47.2512"/>
</g>
<!-- 37 &#45; __Relation__&#45;&gt;23 &#45; Port_Input -->
<g id="edge88" class="edge"><title>37 &#45; __Relation__&#45;&gt;23 &#45; Port_Input</title>
<path fill="none" stroke="black" d="M1280.78,-75.2752C1296.42,-65.2984 1316.13,-52.7277 1332.95,-41.9991"/>
<polygon fill="black" stroke="black" points="1334.89,-44.9091 1341.44,-36.5802 1331.13,-39.0077 1334.89,-44.9091"/>
</g>
<!-- 38 &#45; __Relation__&#45;&gt;22 &#45; Port_Input -->
<g id="edge90" class="edge"><title>38 &#45; __Relation__&#45;&gt;22 &#45; Port_Input</title>
<path fill="none" stroke="black" d="M586.539,-74.7079C595.894,-65.4778 607.385,-54.1399 617.553,-44.1074"/>
<polygon fill="black" stroke="black" points="620.014,-46.5966 624.674,-37.0817 615.097,-41.6138 620.014,-46.5966"/>
</g>
<!-- 39 &#45; __Relation__&#45;&gt;21 &#45; Port_Input -->
<g id="edge92" class="edge"><title>39 &#45; __Relation__&#45;&gt;21 &#45; Port_Input</title>
<path fill="none" stroke="black" d="M1026.67,-74.7079C1019.22,-65.8135 1010.13,-54.9619 1001.96,-45.2071"/>
<polygon fill="black" stroke="black" points="1004.47,-42.7556 995.364,-37.3382 999.104,-47.2512 1004.47,-42.7556"/>
</g>
<!-- 40 &#45; __Relation__&#45;&gt;26 &#45; Port_Input -->
<g id="edge94" class="edge"><title>40 &#45; __Relation__&#45;&gt;26 &#45; Port_Input</title>
<path fill="none" stroke="black" d="M134.506,-74.7079C145.463,-65.3882 158.946,-53.9196 170.825,-43.8156"/>
<polygon fill="black" stroke="black" points="173.392,-46.2268 178.742,-37.0817 168.857,-40.8947 173.392,-46.2268"/>
</g>
<!-- 41 &#45; __Contains__&#45;&gt;1 &#45; Product -->
<g id="edge96" class="edge"><title>41 &#45; __Contains__&#45;&gt;1 &#45; Product</title>
<path fill="none" stroke="black" d="M1101.38,-394.972C1082.16,-381.956 1056.04,-364.27 1035.26,-350.201"/>
<polygon fill="black" stroke="black" points="1036.96,-347.126 1026.72,-344.417 1033.04,-352.922 1036.96,-347.126"/>
</g>
<!-- 42 &#45; __Contains__&#45;&gt;2 &#45; Sum -->
<g id="edge98" class="edge"><title>42 &#45; __Contains__&#45;&gt;2 &#45; Sum</title>
<path fill="none" stroke="black" d="M1656.2,-394.339C1662.59,-382.652 1670.93,-367.388 1678.05,-354.348"/>
<polygon fill="black" stroke="black" points="1681.26,-355.782 1682.98,-345.329 1675.12,-352.425 1681.26,-355.782"/>
</g>
<!-- 43 &#45; __Contains__&#45;&gt;3 &#45; UnitDelay -->
<g id="edge100" class="edge"><title>43 &#45; __Contains__&#45;&gt;3 &#45; UnitDelay</title>
<path fill="none" stroke="black" d="M1924.53,-394.972C1942.04,-382.1 1965.76,-364.66 1984.8,-350.669"/>
<polygon fill="black" stroke="black" points="1986.92,-353.453 1992.91,-344.71 1982.78,-347.813 1986.92,-353.453"/>
</g>
<!-- 44 &#45; __Contains__&#45;&gt;5 &#45; Outport -->
<g id="edge102" class="edge"><title>44 &#45; __Contains__&#45;&gt;5 &#45; Outport</title>
<path fill="none" stroke="black" d="M2165.28,-394.339C2172.42,-382.539 2181.76,-367.091 2189.69,-353.969"/>
<polygon fill="black" stroke="black" points="2192.74,-355.697 2194.92,-345.329 2186.75,-352.075 2192.74,-355.697"/>
</g>
<!-- 45 &#45; __Contains__&#45;&gt;0 &#45; Constant\n Value = 1.0 -->
<g id="edge104" class="edge"><title>45 &#45; __Contains__&#45;&gt;0 &#45; Constant\n Value = 1.0</title>
<path fill="none" stroke="black" d="M313.764,-394.339C307.687,-385.771 300.246,-375.281 293.063,-365.154"/>
<polygon fill="black" stroke="black" points="295.765,-362.914 287.125,-356.783 290.056,-366.964 295.765,-362.914"/>
</g>
<!-- 46 &#45; __Contains__&#45;&gt;7 &#45; Inport -->
<g id="edge106" class="edge"><title>46 &#45; __Contains__&#45;&gt;7 &#45; Inport</title>
<path fill="none" stroke="black" d="M1406,-394.339C1406,-383.07 1406,-368.474 1406,-355.754"/>
<polygon fill="black" stroke="black" points="1409.5,-355.624 1406,-345.624 1402.5,-355.624 1409.5,-355.624"/>
</g>
<!-- 47 &#45; __Contains__&#45;&gt;4 &#45; Gain\n Gain = 0.01 -->
<g id="edge108" class="edge"><title>47 &#45; __Contains__&#45;&gt;4 &#45; Gain\n Gain = 0.01</title>
<path fill="none" stroke="black" d="M740.96,-396.622C703.302,-383.51 650.007,-364.954 607.907,-350.295"/>
<polygon fill="black" stroke="black" points="608.88,-346.928 598.285,-346.945 606.578,-353.539 608.88,-346.928"/>
</g>
</g>
</svg>
