<?xml version="1.0" encoding="UTF-8" standalone="no"?>
<!DOCTYPE svg PUBLIC "-//W3C//DTD SVG 1.1//EN"
 "http://www.w3.org/Graphics/SVG/1.1/DTD/svg11.dtd">
<!-- Generated by graphviz version 2.26.3 (20100126.1600)
 -->
<!-- Title: HConst1_opt_real Pages: 1 -->
<svg width="701pt" height="1106pt"
 viewBox="0.00 0.00 701.00 1106.00" xmlns="http://www.w3.org/2000/svg" xmlns:xlink="http://www.w3.org/1999/xlink">
<g id="graph1" class="graph" transform="scale(1 1) rotate(0) translate(4 1102)">
<title>HConst1_opt_real</title>
<polygon fill="white" stroke="white" points="-4,5 -4,-1102 698,-1102 698,5 -4,5"/>
<!-- 0 &#45; Outport -->
<g id="node1" class="node"><title>0 &#45; Outport</title>
<ellipse fill="#eedd82" stroke="black" cx="215" cy="-19" rx="67.1751" ry="18.3848"/>
<text text-anchor="middle" x="215" y="-15.4" font-family="Times Roman,serif" font-size="14.00">0 &#45; Outport</text>
</g>
<!-- 1 &#45; Sum -->
<g id="node2" class="node"><title>1 &#45; Sum</title>
<ellipse fill="lightblue" stroke="black" cx="339" cy="-463" rx="50.9117" ry="18.3848"/>
<text text-anchor="middle" x="339" y="-459.4" font-family="Times Roman,serif" font-size="14.00">1 &#45; Sum</text>
</g>
<!-- 14 &#45; __Block_Outport__ -->
<g id="node15" class="node"><title>14 &#45; __Block_Outport__</title>
<ellipse fill="#b94a62" stroke="black" cx="318" cy="-389" rx="127.986" ry="18.3848"/>
<text text-anchor="middle" x="318" y="-385.4" font-family="Times Roman,serif" font-size="14.00">14 &#45; __Block_Outport__</text>
</g>
<!-- 1 &#45; Sum&#45;&gt;14 &#45; __Block_Outport__ -->
<g id="edge2" class="edge"><title>1 &#45; Sum&#45;&gt;14 &#45; __Block_Outport__</title>
<path fill="none" stroke="black" d="M333.701,-444.327C331.388,-436.176 328.624,-426.438 326.065,-417.42"/>
<polygon fill="black" stroke="black" points="329.395,-416.332 323.297,-407.667 322.661,-418.243 329.395,-416.332"/>
</g>
<!-- 2 &#45; Inport -->
<g id="node3" class="node"><title>2 &#45; Inport</title>
<ellipse fill="#eedd82" stroke="black" cx="579" cy="-919" rx="58.1882" ry="18.3848"/>
<text text-anchor="middle" x="579" y="-915.4" font-family="Times Roman,serif" font-size="14.00">2 &#45; Inport</text>
</g>
<!-- 15 &#45; __Block_Outport__ -->
<g id="node16" class="node"><title>15 &#45; __Block_Outport__</title>
<ellipse fill="#b94a62" stroke="black" cx="565" cy="-833" rx="127.986" ry="18.3848"/>
<text text-anchor="middle" x="565" y="-829.4" font-family="Times Roman,serif" font-size="14.00">15 &#45; __Block_Outport__</text>
</g>
<!-- 2 &#45; Inport&#45;&gt;15 &#45; __Block_Outport__ -->
<g id="edge4" class="edge"><title>2 &#45; Inport&#45;&gt;15 &#45; __Block_Outport__</title>
<path fill="none" stroke="black" d="M575.962,-900.339C574.128,-889.07 571.752,-874.474 569.681,-861.754"/>
<polygon fill="black" stroke="black" points="573.093,-860.932 568.032,-851.624 566.184,-862.057 573.093,-860.932"/>
</g>
<!-- 3 &#45; SubSystem -->
<g id="node4" class="node"><title>3 &#45; SubSystem</title>
<ellipse fill="lightgreen" stroke="black" cx="307" cy="-1079" rx="84.1457" ry="18.3848"/>
<text text-anchor="middle" x="307" y="-1075.4" font-family="Times Roman,serif" font-size="14.00">3 &#45; SubSystem</text>
</g>
<!-- 19 &#45; __Contains__ -->
<g id="node20" class="node"><title>19 &#45; __Contains__</title>
<ellipse fill="lightgray" stroke="black" cx="99" cy="-463" rx="99.201" ry="18.3848"/>
<text text-anchor="middle" x="99" y="-459.4" font-family="Times Roman,serif" font-size="14.00">19 &#45; __Contains__</text>
</g>
<!-- 3 &#45; SubSystem&#45;&gt;19 &#45; __Contains__ -->
<g id="edge12" class="edge"><title>3 &#45; SubSystem&#45;&gt;19 &#45; __Contains__</title>
<path fill="none" stroke="black" d="M234.308,-1069.73C198.447,-1062.18 156.289,-1048.56 125,-1024 82.3679,-990.54 63,-973.195 63,-919 63,-919 63,-919 63,-611 63,-568.422 77.2416,-520.855 87.8098,-491.419"/>
<polygon fill="black" stroke="black" points="91.1806,-492.395 91.3653,-481.802 84.6149,-489.968 91.1806,-492.395"/>
</g>
<!-- 20 &#45; __Contains__ -->
<g id="node21" class="node"><title>20 &#45; __Contains__</title>
<ellipse fill="lightgray" stroke="black" cx="233" cy="-1005" rx="98.9949" ry="18.3848"/>
<text text-anchor="middle" x="233" y="-1001.4" font-family="Times Roman,serif" font-size="14.00">20 &#45; __Contains__</text>
</g>
<!-- 3 &#45; SubSystem&#45;&gt;20 &#45; __Contains__ -->
<g id="edge10" class="edge"><title>3 &#45; SubSystem&#45;&gt;20 &#45; __Contains__</title>
<path fill="none" stroke="black" d="M288.708,-1060.71C279.636,-1051.64 268.527,-1040.53 258.623,-1030.62"/>
<polygon fill="black" stroke="black" points="260.884,-1027.93 251.338,-1023.34 255.934,-1032.88 260.884,-1027.93"/>
</g>
<!-- 21 &#45; __Contains__ -->
<g id="node22" class="node"><title>21 &#45; __Contains__</title>
<ellipse fill="lightgray" stroke="black" cx="403" cy="-919" rx="99.9096" ry="18.3848"/>
<text text-anchor="middle" x="403" y="-915.4" font-family="Times Roman,serif" font-size="14.00">21 &#45; __Contains__</text>
</g>
<!-- 3 &#45; SubSystem&#45;&gt;21 &#45; __Contains__ -->
<g id="edge8" class="edge"><title>3 &#45; SubSystem&#45;&gt;21 &#45; __Contains__</title>
<path fill="none" stroke="black" d="M318.583,-1060.47C325.202,-1049.83 333.627,-1036.2 341,-1024 356.831,-997.8 374.56,-967.697 386.991,-946.46"/>
<polygon fill="black" stroke="black" points="390.112,-948.055 392.138,-937.656 384.069,-944.522 390.112,-948.055"/>
</g>
<!-- 22 &#45; __Contains__ -->
<g id="node23" class="node"><title>22 &#45; __Contains__</title>
<ellipse fill="lightgray" stroke="black" cx="543" cy="-1005" rx="99.201" ry="18.3848"/>
<text text-anchor="middle" x="543" y="-1001.4" font-family="Times Roman,serif" font-size="14.00">22 &#45; __Contains__</text>
</g>
<!-- 3 &#45; SubSystem&#45;&gt;22 &#45; __Contains__ -->
<g id="edge6" class="edge"><title>3 &#45; SubSystem&#45;&gt;22 &#45; __Contains__</title>
<path fill="none" stroke="black" d="M355.328,-1063.85C392.126,-1052.31 443.008,-1036.35 482.509,-1023.97"/>
<polygon fill="black" stroke="black" points="483.796,-1027.23 492.291,-1020.9 481.701,-1020.55 483.796,-1027.23"/>
</g>
<!-- 4 &#45; Port_Input -->
<g id="node5" class="node"><title>4 &#45; Port_Input</title>
<ellipse fill="lightyellow" stroke="black" cx="293" cy="-167" rx="79.9031" ry="18.3848"/>
<text text-anchor="middle" x="293" y="-163.4" font-family="Times Roman,serif" font-size="14.00">4 &#45; Port_Input</text>
</g>
<!-- 10 &#45; __Block_Inport__ -->
<g id="node11" class="node"><title>10 &#45; __Block_Inport__</title>
<ellipse fill="#b94a62" stroke="black" cx="289" cy="-93" rx="118.087" ry="18.3848"/>
<text text-anchor="middle" x="289" y="-89.4" font-family="Times Roman,serif" font-size="14.00">10 &#45; __Block_Inport__</text>
</g>
<!-- 4 &#45; Port_Input&#45;&gt;10 &#45; __Block_Inport__ -->
<g id="edge14" class="edge"><title>4 &#45; Port_Input&#45;&gt;10 &#45; __Block_Inport__</title>
<path fill="none" stroke="black" d="M291.991,-148.327C291.555,-140.264 291.035,-130.648 290.552,-121.711"/>
<polygon fill="black" stroke="black" points="294.044,-121.464 290.009,-111.667 287.054,-121.842 294.044,-121.464"/>
</g>
<!-- 5 &#45; Port_Output -->
<g id="node6" class="node"><title>5 &#45; Port_Output</title>
<ellipse fill="coral" stroke="black" cx="234" cy="-759" rx="87.889" ry="18.3848"/>
<text text-anchor="middle" x="234" y="-755.4" font-family="Times Roman,serif" font-size="14.00">5 &#45; Port_Output</text>
</g>
<!-- 17 &#45; __Relation__ -->
<g id="node18" class="node"><title>17 &#45; __Relation__</title>
<ellipse fill="#f78465" stroke="black" cx="235" cy="-685" rx="97.7889" ry="18.3848"/>
<text text-anchor="middle" x="235" y="-681.4" font-family="Times Roman,serif" font-size="14.00">17 &#45; __Relation__</text>
</g>
<!-- 5 &#45; Port_Output&#45;&gt;17 &#45; __Relation__ -->
<g id="edge16" class="edge"><title>5 &#45; Port_Output&#45;&gt;17 &#45; __Relation__</title>
<path fill="none" stroke="black" d="M234.252,-740.327C234.361,-732.264 234.491,-722.648 234.612,-713.711"/>
<polygon fill="black" stroke="black" points="238.112,-713.714 234.748,-703.667 231.113,-713.619 238.112,-713.714"/>
</g>
<!-- 6 &#45; Port_Input -->
<g id="node7" class="node"><title>6 &#45; Port_Input</title>
<ellipse fill="lightyellow" stroke="black" cx="548" cy="-611" rx="79.196" ry="18.3848"/>
<text text-anchor="middle" x="548" y="-607.4" font-family="Times Roman,serif" font-size="14.00">6 &#45; Port_Input</text>
</g>
<!-- 12 &#45; __Block_Inport__ -->
<g id="node13" class="node"><title>12 &#45; __Block_Inport__</title>
<ellipse fill="#b94a62" stroke="black" cx="547" cy="-537" rx="118.794" ry="18.3848"/>
<text text-anchor="middle" x="547" y="-533.4" font-family="Times Roman,serif" font-size="14.00">12 &#45; __Block_Inport__</text>
</g>
<!-- 6 &#45; Port_Input&#45;&gt;12 &#45; __Block_Inport__ -->
<g id="edge18" class="edge"><title>6 &#45; Port_Input&#45;&gt;12 &#45; __Block_Inport__</title>
<path fill="none" stroke="black" d="M547.748,-592.327C547.639,-584.264 547.509,-574.648 547.388,-565.711"/>
<polygon fill="black" stroke="black" points="550.887,-565.619 547.252,-555.667 543.888,-565.714 550.887,-565.619"/>
</g>
<!-- 7 &#45; Port_Input -->
<g id="node8" class="node"><title>7 &#45; Port_Input</title>
<ellipse fill="lightyellow" stroke="black" cx="240" cy="-611" rx="79.9031" ry="18.3848"/>
<text text-anchor="middle" x="240" y="-607.4" font-family="Times Roman,serif" font-size="14.00">7 &#45; Port_Input</text>
</g>
<!-- 13 &#45; __Block_Inport__ -->
<g id="node14" class="node"><title>13 &#45; __Block_Inport__</title>
<ellipse fill="#b94a62" stroke="black" cx="242" cy="-537" rx="118.087" ry="18.3848"/>
<text text-anchor="middle" x="242" y="-533.4" font-family="Times Roman,serif" font-size="14.00">13 &#45; __Block_Inport__</text>
</g>
<!-- 7 &#45; Port_Input&#45;&gt;13 &#45; __Block_Inport__ -->
<g id="edge20" class="edge"><title>7 &#45; Port_Input&#45;&gt;13 &#45; __Block_Inport__</title>
<path fill="none" stroke="black" d="M240.505,-592.327C240.723,-584.264 240.982,-574.648 241.224,-565.711"/>
<polygon fill="black" stroke="black" points="244.724,-565.758 241.495,-555.667 237.726,-565.569 244.724,-565.758"/>
</g>
<!-- 8 &#45; Port_Output -->
<g id="node9" class="node"><title>8 &#45; Port_Output</title>
<ellipse fill="coral" stroke="black" cx="316" cy="-315" rx="87.889" ry="18.3848"/>
<text text-anchor="middle" x="316" y="-311.4" font-family="Times Roman,serif" font-size="14.00">8 &#45; Port_Output</text>
</g>
<!-- 16 &#45; __Relation__ -->
<g id="node17" class="node"><title>16 &#45; __Relation__</title>
<ellipse fill="#f78465" stroke="black" cx="301" cy="-241" rx="96.8736" ry="18.3848"/>
<text text-anchor="middle" x="301" y="-237.4" font-family="Times Roman,serif" font-size="14.00">16 &#45; __Relation__</text>
</g>
<!-- 8 &#45; Port_Output&#45;&gt;16 &#45; __Relation__ -->
<g id="edge22" class="edge"><title>8 &#45; Port_Output&#45;&gt;16 &#45; __Relation__</title>
<path fill="none" stroke="black" d="M312.215,-296.327C310.581,-288.264 308.631,-278.648 306.82,-269.711"/>
<polygon fill="black" stroke="black" points="310.201,-268.773 304.784,-259.667 303.34,-270.163 310.201,-268.773"/>
</g>
<!-- 9 &#45; Port_Output -->
<g id="node10" class="node"><title>9 &#45; Port_Output</title>
<ellipse fill="coral" stroke="black" cx="551" cy="-759" rx="87.889" ry="18.3848"/>
<text text-anchor="middle" x="551" y="-755.4" font-family="Times Roman,serif" font-size="14.00">9 &#45; Port_Output</text>
</g>
<!-- 18 &#45; __Relation__ -->
<g id="node19" class="node"><title>18 &#45; __Relation__</title>
<ellipse fill="#f78465" stroke="black" cx="550" cy="-685" rx="96.8736" ry="18.3848"/>
<text text-anchor="middle" x="550" y="-681.4" font-family="Times Roman,serif" font-size="14.00">18 &#45; __Relation__</text>
</g>
<!-- 9 &#45; Port_Output&#45;&gt;18 &#45; __Relation__ -->
<g id="edge24" class="edge"><title>9 &#45; Port_Output&#45;&gt;18 &#45; __Relation__</title>
<path fill="none" stroke="black" d="M550.748,-740.327C550.639,-732.264 550.509,-722.648 550.388,-713.711"/>
<polygon fill="black" stroke="black" points="553.887,-713.619 550.252,-703.667 546.888,-713.714 553.887,-713.619"/>
</g>
<!-- 10 &#45; __Block_Inport__&#45;&gt;0 &#45; Outport -->
<g id="edge26" class="edge"><title>10 &#45; __Block_Inport__&#45;&gt;0 &#45; Outport</title>
<path fill="none" stroke="black" d="M270.708,-74.7079C261.567,-65.5674 250.36,-54.3599 240.4,-44.4"/>
<polygon fill="black" stroke="black" points="242.628,-41.6779 233.082,-37.0817 237.678,-46.6277 242.628,-41.6779"/>
</g>
<!-- 11 &#45; __Block_Outport__ -->
<g id="node12" class="node"><title>11 &#45; __Block_Outport__</title>
<ellipse fill="#b94a62" stroke="black" cx="233" cy="-833" rx="128.193" ry="18.3848"/>
<text text-anchor="middle" x="233" y="-829.4" font-family="Times Roman,serif" font-size="14.00">11 &#45; __Block_Outport__</text>
</g>
<!-- 11 &#45; __Block_Outport__&#45;&gt;5 &#45; Port_Output -->
<g id="edge28" class="edge"><title>11 &#45; __Block_Outport__&#45;&gt;5 &#45; Port_Output</title>
<path fill="none" stroke="black" d="M233.252,-814.327C233.361,-806.264 233.491,-796.648 233.612,-787.711"/>
<polygon fill="black" stroke="black" points="237.112,-787.714 233.748,-777.667 230.113,-787.619 237.112,-787.714"/>
</g>
<!-- 12 &#45; __Block_Inport__&#45;&gt;1 &#45; Sum -->
<g id="edge30" class="edge"><title>12 &#45; __Block_Inport__&#45;&gt;1 &#45; Sum</title>
<path fill="none" stroke="black" d="M499.281,-520.023C465.003,-507.828 419.054,-491.481 385.142,-479.416"/>
<polygon fill="black" stroke="black" points="386.069,-476.031 375.474,-475.976 383.723,-482.626 386.069,-476.031"/>
</g>
<!-- 13 &#45; __Block_Inport__&#45;&gt;1 &#45; Sum -->
<g id="edge32" class="edge"><title>13 &#45; __Block_Inport__&#45;&gt;1 &#45; Sum</title>
<path fill="none" stroke="black" d="M265.978,-518.708C278.893,-508.855 294.958,-496.599 308.728,-486.094"/>
<polygon fill="black" stroke="black" points="311.129,-488.664 316.957,-479.816 306.884,-483.099 311.129,-488.664"/>
</g>
<!-- 14 &#45; __Block_Outport__&#45;&gt;8 &#45; Port_Output -->
<g id="edge34" class="edge"><title>14 &#45; __Block_Outport__&#45;&gt;8 &#45; Port_Output</title>
<path fill="none" stroke="black" d="M317.495,-370.327C317.277,-362.264 317.018,-352.648 316.776,-343.711"/>
<polygon fill="black" stroke="black" points="320.274,-343.569 316.505,-333.667 313.276,-343.758 320.274,-343.569"/>
</g>
<!-- 15 &#45; __Block_Outport__&#45;&gt;9 &#45; Port_Output -->
<g id="edge36" class="edge"><title>15 &#45; __Block_Outport__&#45;&gt;9 &#45; Port_Output</title>
<path fill="none" stroke="black" d="M561.467,-814.327C559.942,-806.264 558.123,-796.648 556.432,-787.711"/>
<polygon fill="black" stroke="black" points="559.83,-786.842 554.532,-777.667 552.952,-788.144 559.83,-786.842"/>
</g>
<!-- 16 &#45; __Relation__&#45;&gt;4 &#45; Port_Input -->
<g id="edge38" class="edge"><title>16 &#45; __Relation__&#45;&gt;4 &#45; Port_Input</title>
<path fill="none" stroke="black" d="M298.981,-222.327C298.11,-214.264 297.07,-204.648 296.104,-195.711"/>
<polygon fill="black" stroke="black" points="299.573,-195.233 295.018,-185.667 292.613,-195.986 299.573,-195.233"/>
</g>
<!-- 17 &#45; __Relation__&#45;&gt;7 &#45; Port_Input -->
<g id="edge40" class="edge"><title>17 &#45; __Relation__&#45;&gt;7 &#45; Port_Input</title>
<path fill="none" stroke="black" d="M236.262,-666.327C236.806,-658.264 237.456,-648.648 238.06,-639.711"/>
<polygon fill="black" stroke="black" points="241.556,-639.881 238.739,-629.667 234.572,-639.409 241.556,-639.881"/>
</g>
<!-- 18 &#45; __Relation__&#45;&gt;6 &#45; Port_Input -->
<g id="edge42" class="edge"><title>18 &#45; __Relation__&#45;&gt;6 &#45; Port_Input</title>
<path fill="none" stroke="black" d="M549.495,-666.327C549.277,-658.264 549.018,-648.648 548.776,-639.711"/>
<polygon fill="black" stroke="black" points="552.274,-639.569 548.505,-629.667 545.276,-639.758 552.274,-639.569"/>
</g>
<!-- 19 &#45; __Contains__&#45;&gt;0 &#45; Outport -->
<g id="edge44" class="edge"><title>19 &#45; __Contains__&#45;&gt;0 &#45; Outport</title>
<path fill="none" stroke="black" d="M107.907,-444.325C120.236,-416.714 141,-363.076 141,-315 141,-315 141,-315 141,-167 141,-124.626 141.89,-111.298 162,-74 167.998,-62.875 176.877,-52.41 185.659,-43.6557"/>
<polygon fill="black" stroke="black" points="188.112,-46.1536 192.949,-36.7275 183.289,-41.0797 188.112,-46.1536"/>
</g>
<!-- 23 &#45; Constant\n Value = 439.304 -->
<g id="node24" class="node"><title>23 &#45; Constant\n Value = 439.304</title>
<ellipse fill="lightblue" stroke="black" cx="188" cy="-919" rx="96.8736" ry="31.1127"/>
<text text-anchor="middle" x="188" y="-924.4" font-family="Times Roman,serif" font-size="14.00">23 &#45; Constant</text>
<text text-anchor="middle" x="188" y="-906.4" font-family="Times Roman,serif" font-size="14.00"> Value = 439.304</text>
</g>
<!-- 20 &#45; __Contains__&#45;&gt;23 &#45; Constant\n Value = 439.304 -->
<g id="edge46" class="edge"><title>20 &#45; __Contains__&#45;&gt;23 &#45; Constant\n Value = 439.304</title>
<path fill="none" stroke="black" d="M223.236,-986.339C219.004,-978.253 213.877,-968.454 208.859,-958.865"/>
<polygon fill="black" stroke="black" points="211.852,-957.035 204.115,-949.797 205.65,-960.281 211.852,-957.035"/>
</g>
<!-- 21 &#45; __Contains__&#45;&gt;1 &#45; Sum -->
<g id="edge48" class="edge"><title>21 &#45; __Contains__&#45;&gt;1 &#45; Sum</title>
<path fill="none" stroke="black" d="M401.65,-900.291C399.616,-870.434 396,-810.16 396,-759 396,-759 396,-759 396,-611 396,-566.278 373.055,-518.729 356.281,-489.942"/>
<polygon fill="black" stroke="black" points="359.233,-488.059 351.088,-481.283 353.229,-491.659 359.233,-488.059"/>
</g>
<!-- 22 &#45; __Contains__&#45;&gt;2 &#45; Inport -->
<g id="edge50" class="edge"><title>22 &#45; __Contains__&#45;&gt;2 &#45; Inport</title>
<path fill="none" stroke="black" d="M550.811,-986.339C555.623,-974.844 561.884,-959.889 567.282,-946.993"/>
<polygon fill="black" stroke="black" points="570.571,-948.2 571.204,-937.624 564.114,-945.497 570.571,-948.2"/>
</g>
<!-- 23 &#45; Constant\n Value = 439.304&#45;&gt;11 &#45; __Block_Outport__ -->
<g id="edge52" class="edge"><title>23 &#45; Constant\n Value = 439.304&#45;&gt;11 &#45; __Block_Outport__</title>
<path fill="none" stroke="black" d="M204.246,-887.952C208.942,-878.978 214.033,-869.248 218.607,-860.506"/>
<polygon fill="black" stroke="black" points="221.79,-861.972 223.326,-851.489 215.588,-858.726 221.79,-861.972"/>
</g>
</g>
</svg>
