<?xml version="1.0" encoding="UTF-8" standalone="no"?>
<!DOCTYPE svg PUBLIC "-//W3C//DTD SVG 1.1//EN"
 "http://www.w3.org/Graphics/SVG/1.1/DTD/svg11.dtd">
<!-- Generated by graphviz version 2.26.3 (20100126.1600)
 -->
<!-- Title: HConst2_opt_real Pages: 1 -->
<svg width="405pt" height="662pt"
 viewBox="0.00 0.00 405.00 662.00" xmlns="http://www.w3.org/2000/svg" xmlns:xlink="http://www.w3.org/1999/xlink">
<g id="graph1" class="graph" transform="scale(1 1) rotate(0) translate(4 658)">
<title>HConst2_opt_real</title>
<polygon fill="white" stroke="white" points="-4,5 -4,-658 402,-658 402,5 -4,5"/>
<!-- 0 &#45; Outport -->
<g id="node1" class="node"><title>0 &#45; Outport</title>
<ellipse fill="#eedd82" stroke="black" cx="175" cy="-19" rx="67.1751" ry="18.3848"/>
<text text-anchor="middle" x="175" y="-15.4" font-family="Times Roman,serif" font-size="14.00">0 &#45; Outport</text>
</g>
<!-- 1 &#45; SubSystem -->
<g id="node2" class="node"><title>1 &#45; SubSystem</title>
<ellipse fill="lightgreen" stroke="black" cx="200" cy="-635" rx="85.0596" ry="18.3848"/>
<text text-anchor="middle" x="200" y="-631.4" font-family="Times Roman,serif" font-size="14.00">1 &#45; SubSystem</text>
</g>
<!-- 5 &#45; __Contains__ -->
<g id="node6" class="node"><title>5 &#45; __Contains__</title>
<ellipse fill="lightgray" stroke="black" cx="93" cy="-475" rx="92.839" ry="18.3848"/>
<text text-anchor="middle" x="93" y="-471.4" font-family="Times Roman,serif" font-size="14.00">5 &#45; __Contains__</text>
</g>
<!-- 1 &#45; SubSystem&#45;&gt;5 &#45; __Contains__ -->
<g id="edge4" class="edge"><title>1 &#45; SubSystem&#45;&gt;5 &#45; __Contains__</title>
<path fill="none" stroke="black" d="M187.726,-616.646C168.96,-588.585 133.024,-534.848 111.212,-502.233"/>
<polygon fill="black" stroke="black" points="113.929,-500 105.461,-493.633 108.11,-503.891 113.929,-500"/>
</g>
<!-- 6 &#45; __Contains__ -->
<g id="node7" class="node"><title>6 &#45; __Contains__</title>
<ellipse fill="lightgray" stroke="black" cx="270" cy="-561" rx="92.1303" ry="18.3848"/>
<text text-anchor="middle" x="270" y="-557.4" font-family="Times Roman,serif" font-size="14.00">6 &#45; __Contains__</text>
</g>
<!-- 1 &#45; SubSystem&#45;&gt;6 &#45; __Contains__ -->
<g id="edge2" class="edge"><title>1 &#45; SubSystem&#45;&gt;6 &#45; __Contains__</title>
<path fill="none" stroke="black" d="M217.303,-616.708C225.885,-607.636 236.393,-596.527 245.762,-586.623"/>
<polygon fill="black" stroke="black" points="248.324,-589.008 252.653,-579.338 243.238,-584.198 248.324,-589.008"/>
</g>
<!-- 2 &#45; Port_Output -->
<g id="node3" class="node"><title>2 &#45; Port_Output</title>
<ellipse fill="coral" stroke="black" cx="252" cy="-315" rx="87.889" ry="18.3848"/>
<text text-anchor="middle" x="252" y="-311.4" font-family="Times Roman,serif" font-size="14.00">2 &#45; Port_Output</text>
</g>
<!-- 8 &#45; __Relation__ -->
<g id="node9" class="node"><title>8 &#45; __Relation__</title>
<ellipse fill="#f78465" stroke="black" cx="252" cy="-241" rx="90.0096" ry="18.3848"/>
<text text-anchor="middle" x="252" y="-237.4" font-family="Times Roman,serif" font-size="14.00">8 &#45; __Relation__</text>
</g>
<!-- 2 &#45; Port_Output&#45;&gt;8 &#45; __Relation__ -->
<g id="edge6" class="edge"><title>2 &#45; Port_Output&#45;&gt;8 &#45; __Relation__</title>
<path fill="none" stroke="black" d="M252,-296.327C252,-288.264 252,-278.648 252,-269.711"/>
<polygon fill="black" stroke="black" points="255.5,-269.667 252,-259.667 248.5,-269.667 255.5,-269.667"/>
</g>
<!-- 3 &#45; __Block_Outport__ -->
<g id="node4" class="node"><title>3 &#45; __Block_Outport__</title>
<ellipse fill="#b94a62" stroke="black" cx="277" cy="-389" rx="120.208" ry="18.3848"/>
<text text-anchor="middle" x="277" y="-385.4" font-family="Times Roman,serif" font-size="14.00">3 &#45; __Block_Outport__</text>
</g>
<!-- 3 &#45; __Block_Outport__&#45;&gt;2 &#45; Port_Output -->
<g id="edge8" class="edge"><title>3 &#45; __Block_Outport__&#45;&gt;2 &#45; Port_Output</title>
<path fill="none" stroke="black" d="M270.691,-370.327C267.938,-362.176 264.648,-352.438 261.601,-343.42"/>
<polygon fill="black" stroke="black" points="264.823,-342.021 258.307,-333.667 258.191,-344.262 264.823,-342.021"/>
</g>
<!-- 4 &#45; Port_Input -->
<g id="node5" class="node"><title>4 &#45; Port_Input</title>
<ellipse fill="lightyellow" stroke="black" cx="250" cy="-167" rx="79.9031" ry="18.3848"/>
<text text-anchor="middle" x="250" y="-163.4" font-family="Times Roman,serif" font-size="14.00">4 &#45; Port_Input</text>
</g>
<!-- 7 &#45; __Block_Inport__ -->
<g id="node8" class="node"><title>7 &#45; __Block_Inport__</title>
<ellipse fill="#b94a62" stroke="black" cx="249" cy="-93" rx="111.93" ry="18.3848"/>
<text text-anchor="middle" x="249" y="-89.4" font-family="Times Roman,serif" font-size="14.00">7 &#45; __Block_Inport__</text>
</g>
<!-- 4 &#45; Port_Input&#45;&gt;7 &#45; __Block_Inport__ -->
<g id="edge10" class="edge"><title>4 &#45; Port_Input&#45;&gt;7 &#45; __Block_Inport__</title>
<path fill="none" stroke="black" d="M249.748,-148.327C249.639,-140.264 249.509,-130.648 249.388,-121.711"/>
<polygon fill="black" stroke="black" points="252.887,-121.619 249.252,-111.667 245.888,-121.714 252.887,-121.619"/>
</g>
<!-- 5 &#45; __Contains__&#45;&gt;0 &#45; Outport -->
<g id="edge12" class="edge"><title>5 &#45; __Contains__&#45;&gt;0 &#45; Outport</title>
<path fill="none" stroke="black" d="M95.3137,-456.313C98.8008,-426.487 105,-366.255 105,-315 105,-315 105,-315 105,-167 105,-124.421 108.535,-111.869 128,-74 133.363,-63.5657 141.07,-53.4236 148.696,-44.7496"/>
<polygon fill="black" stroke="black" points="151.417,-46.9612 155.607,-37.2301 146.263,-42.2243 151.417,-46.9612"/>
</g>
<!-- 9 &#45; Constant\n Value = 249.0 -->
<g id="node10" class="node"><title>9 &#45; Constant\n Value = 249.0</title>
<ellipse fill="lightblue" stroke="black" cx="289" cy="-475" rx="85.0596" ry="31.1127"/>
<text text-anchor="middle" x="289" y="-480.4" font-family="Times Roman,serif" font-size="14.00">9 &#45; Constant</text>
<text text-anchor="middle" x="289" y="-462.4" font-family="Times Roman,serif" font-size="14.00"> Value = 249.0</text>
</g>
<!-- 6 &#45; __Contains__&#45;&gt;9 &#45; Constant\n Value = 249.0 -->
<g id="edge14" class="edge"><title>6 &#45; __Contains__&#45;&gt;9 &#45; Constant\n Value = 249.0</title>
<path fill="none" stroke="black" d="M274.123,-542.339C275.838,-534.576 277.902,-525.234 279.939,-516.014"/>
<polygon fill="black" stroke="black" points="283.381,-516.657 282.121,-506.137 276.546,-515.147 283.381,-516.657"/>
</g>
<!-- 7 &#45; __Block_Inport__&#45;&gt;0 &#45; Outport -->
<g id="edge16" class="edge"><title>7 &#45; __Block_Inport__&#45;&gt;0 &#45; Outport</title>
<path fill="none" stroke="black" d="M230.708,-74.7079C221.567,-65.5674 210.36,-54.3599 200.4,-44.4"/>
<polygon fill="black" stroke="black" points="202.628,-41.6779 193.082,-37.0817 197.678,-46.6277 202.628,-41.6779"/>
</g>
<!-- 8 &#45; __Relation__&#45;&gt;4 &#45; Port_Input -->
<g id="edge18" class="edge"><title>8 &#45; __Relation__&#45;&gt;4 &#45; Port_Input</title>
<path fill="none" stroke="black" d="M251.495,-222.327C251.277,-214.264 251.018,-204.648 250.776,-195.711"/>
<polygon fill="black" stroke="black" points="254.274,-195.569 250.505,-185.667 247.276,-195.758 254.274,-195.569"/>
</g>
<!-- 9 &#45; Constant\n Value = 249.0&#45;&gt;3 &#45; __Block_Outport__ -->
<g id="edge20" class="edge"><title>9 &#45; Constant\n Value = 249.0&#45;&gt;3 &#45; __Block_Outport__</title>
<path fill="none" stroke="black" d="M284.668,-443.952C283.478,-435.427 282.194,-426.221 281.022,-417.827"/>
<polygon fill="black" stroke="black" points="284.463,-417.161 279.615,-407.74 277.531,-418.128 284.463,-417.161"/>
</g>
</g>
</svg>
