<?xml version="1.0" encoding="UTF-8" standalone="no"?>
<!DOCTYPE svg PUBLIC "-//W3C//DTD SVG 1.1//EN"
 "http://www.w3.org/Graphics/SVG/1.1/DTD/svg11.dtd">
<!-- Generated by graphviz version 2.36.0 (20140111.2315)
 -->
<!-- Title: HConstfolding_hier_opt Pages: 1 -->
<svg width="2114pt" height="494pt"
 viewBox="0.00 0.00 2114.00 494.00" xmlns="http://www.w3.org/2000/svg" xmlns:xlink="http://www.w3.org/1999/xlink">
<g id="graph0" class="graph" transform="scale(1 1) rotate(0) translate(4 490)">
<title>HConstfolding_hier_opt</title>
<polygon fill="white" stroke="none" points="-4,4 -4,-490 2110,-490 2110,4 -4,4"/>
<!-- 0 &#45; Constant\n Value = 1.0 -->
<g id="node1" class="node"><title>0 &#45; Constant\n Value = 1.0</title>
<ellipse fill="lightblue" stroke="black" cx="201" cy="-315" rx="60.2186" ry="26.7407"/>
<text text-anchor="middle" x="201" y="-318.8" font-family="Times,serif" font-size="14.00">0 &#45; Constant</text>
<text text-anchor="middle" x="201" y="-303.8" font-family="Times,serif" font-size="14.00"> Value = 1.0</text>
</g>
<!-- 14 &#45; __Block_Outport__ -->
<g id="node15" class="node"><title>14 &#45; __Block_Outport__</title>
<ellipse fill="#b94a62" stroke="black" cx="119" cy="-234" rx="97.237" ry="18"/>
<text text-anchor="middle" x="119" y="-230.3" font-family="Times,serif" font-size="14.00">14 &#45; __Block_Outport__</text>
</g>
<!-- 0 &#45; Constant\n Value = 1.0&#45;&gt;14 &#45; __Block_Outport__ -->
<g id="edge1" class="edge"><title>0 &#45; Constant\n Value = 1.0&#45;&gt;14 &#45; __Block_Outport__</title>
<path fill="none" stroke="black" d="M176.397,-290.297C166.172,-280.446 154.318,-269.026 144.046,-259.13"/>
<polygon fill="black" stroke="black" points="146.183,-256.329 136.553,-251.911 141.327,-261.37 146.183,-256.329"/>
</g>
<!-- 1 &#45; Product -->
<g id="node2" class="node"><title>1 &#45; Product</title>
<ellipse fill="lightblue" stroke="black" cx="793" cy="-315" rx="50.0684" ry="18"/>
<text text-anchor="middle" x="793" y="-311.3" font-family="Times,serif" font-size="14.00">1 &#45; Product</text>
</g>
<!-- 15 &#45; __Block_Outport__ -->
<g id="node16" class="node"><title>15 &#45; __Block_Outport__</title>
<ellipse fill="#b94a62" stroke="black" cx="897" cy="-234" rx="97.237" ry="18"/>
<text text-anchor="middle" x="897" y="-230.3" font-family="Times,serif" font-size="14.00">15 &#45; __Block_Outport__</text>
</g>
<!-- 1 &#45; Product&#45;&gt;15 &#45; __Block_Outport__ -->
<g id="edge2" class="edge"><title>1 &#45; Product&#45;&gt;15 &#45; __Block_Outport__</title>
<path fill="none" stroke="black" d="M813.547,-298.392C828.809,-286.799 849.86,-270.808 867.001,-257.787"/>
<polygon fill="black" stroke="black" points="869.213,-260.502 875.059,-251.666 864.979,-254.928 869.213,-260.502"/>
</g>
<!-- 28 &#45; __Block_Inport__ -->
<g id="node29" class="node"><title>28 &#45; __Block_Inport__</title>
<ellipse fill="#b94a62" stroke="black" cx="690" cy="-234" rx="91.4625" ry="18"/>
<text text-anchor="middle" x="690" y="-230.3" font-family="Times,serif" font-size="14.00">28 &#45; __Block_Inport__</text>
</g>
<!-- 1 &#45; Product&#45;&gt;28 &#45; __Block_Inport__ -->
<g id="edge35" class="edge"><title>1 &#45; Product&#45;&gt;28 &#45; __Block_Inport__</title>
<path fill="none" stroke="black" d="M772.651,-298.392C757.536,-286.799 736.686,-270.808 719.71,-257.787"/>
<polygon fill="black" stroke="black" points="721.795,-254.975 711.73,-251.666 717.534,-260.53 721.795,-254.975"/>
</g>
<!-- 29 &#45; __Block_Inport__ -->
<g id="node30" class="node"><title>29 &#45; __Block_Inport__</title>
<ellipse fill="#b94a62" stroke="black" cx="602" cy="-162" rx="91.4625" ry="18"/>
<text text-anchor="middle" x="602" y="-158.3" font-family="Times,serif" font-size="14.00">29 &#45; __Block_Inport__</text>
</g>
<!-- 1 &#45; Product&#45;&gt;29 &#45; __Block_Inport__ -->
<g id="edge36" class="edge"><title>1 &#45; Product&#45;&gt;29 &#45; __Block_Inport__</title>
<path fill="none" stroke="black" d="M748.116,-306.701C694.027,-296.882 608.012,-277.649 589,-252 575.776,-234.16 581.256,-208.676 588.74,-189.546"/>
<polygon fill="black" stroke="black" points="592.025,-190.765 592.748,-180.195 585.591,-188.007 592.025,-190.765"/>
</g>
<!-- 2 &#45; Sum -->
<g id="node3" class="node"><title>2 &#45; Sum</title>
<ellipse fill="lightblue" stroke="black" cx="1340" cy="-315" rx="39.4691" ry="18"/>
<text text-anchor="middle" x="1340" y="-311.3" font-family="Times,serif" font-size="14.00">2 &#45; Sum</text>
</g>
<!-- 16 &#45; __Block_Outport__ -->
<g id="node17" class="node"><title>16 &#45; __Block_Outport__</title>
<ellipse fill="#b94a62" stroke="black" cx="1360" cy="-234" rx="97.237" ry="18"/>
<text text-anchor="middle" x="1360" y="-230.3" font-family="Times,serif" font-size="14.00">16 &#45; __Block_Outport__</text>
</g>
<!-- 2 &#45; Sum&#45;&gt;16 &#45; __Block_Outport__ -->
<g id="edge3" class="edge"><title>2 &#45; Sum&#45;&gt;16 &#45; __Block_Outport__</title>
<path fill="none" stroke="black" d="M1344.34,-296.858C1346.91,-286.713 1350.22,-273.634 1353.13,-262.117"/>
<polygon fill="black" stroke="black" points="1356.61,-262.662 1355.67,-252.108 1349.82,-260.944 1356.61,-262.662"/>
</g>
<!-- 30 &#45; __Block_Inport__ -->
<g id="node31" class="node"><title>30 &#45; __Block_Inport__</title>
<ellipse fill="#b94a62" stroke="black" cx="1176" cy="-90" rx="91.4625" ry="18"/>
<text text-anchor="middle" x="1176" y="-86.3" font-family="Times,serif" font-size="14.00">30 &#45; __Block_Inport__</text>
</g>
<!-- 2 &#45; Sum&#45;&gt;30 &#45; __Block_Inport__ -->
<g id="edge37" class="edge"><title>2 &#45; Sum&#45;&gt;30 &#45; __Block_Inport__</title>
<path fill="none" stroke="black" d="M1315.2,-300.665C1296.48,-289.612 1271.17,-272.436 1254,-252 1219.42,-210.835 1195.94,-151.732 1184.36,-117.768"/>
<polygon fill="black" stroke="black" points="1187.62,-116.473 1181.15,-108.082 1180.98,-118.676 1187.62,-116.473"/>
</g>
<!-- 31 &#45; __Block_Inport__ -->
<g id="node32" class="node"><title>31 &#45; __Block_Inport__</title>
<ellipse fill="#b94a62" stroke="black" cx="1583" cy="-90" rx="91.4625" ry="18"/>
<text text-anchor="middle" x="1583" y="-86.3" font-family="Times,serif" font-size="14.00">31 &#45; __Block_Inport__</text>
</g>
<!-- 2 &#45; Sum&#45;&gt;31 &#45; __Block_Inport__ -->
<g id="edge38" class="edge"><title>2 &#45; Sum&#45;&gt;31 &#45; __Block_Inport__</title>
<path fill="none" stroke="black" d="M1373.31,-305.339C1401.59,-296.376 1441.4,-279.715 1466,-252 1499.78,-213.944 1472.84,-184.226 1504,-144 1513.87,-131.255 1527.7,-120.523 1541.04,-112.122"/>
<polygon fill="black" stroke="black" points="1542.9,-115.084 1549.68,-106.941 1539.31,-109.08 1542.9,-115.084"/>
</g>
<!-- 3 &#45; UnitDelay -->
<g id="node4" class="node"><title>3 &#45; UnitDelay</title>
<ellipse fill="lightblue" stroke="black" cx="1605" cy="-315" rx="59.1941" ry="18"/>
<text text-anchor="middle" x="1605" y="-311.3" font-family="Times,serif" font-size="14.00">3 &#45; UnitDelay</text>
</g>
<!-- 17 &#45; __Block_Outport__ -->
<g id="node18" class="node"><title>17 &#45; __Block_Outport__</title>
<ellipse fill="#b94a62" stroke="black" cx="1758" cy="-234" rx="97.237" ry="18"/>
<text text-anchor="middle" x="1758" y="-230.3" font-family="Times,serif" font-size="14.00">17 &#45; __Block_Outport__</text>
</g>
<!-- 3 &#45; UnitDelay&#45;&gt;17 &#45; __Block_Outport__ -->
<g id="edge4" class="edge"><title>3 &#45; UnitDelay&#45;&gt;17 &#45; __Block_Outport__</title>
<path fill="none" stroke="black" d="M1633.78,-299.141C1657.47,-286.906 1691.34,-269.421 1717.73,-255.796"/>
<polygon fill="black" stroke="black" points="1719.44,-258.85 1726.72,-251.152 1716.23,-252.63 1719.44,-258.85"/>
</g>
<!-- 32 &#45; __Block_Inport__ -->
<g id="node33" class="node"><title>32 &#45; __Block_Inport__</title>
<ellipse fill="#b94a62" stroke="black" cx="1605" cy="-162" rx="91.4625" ry="18"/>
<text text-anchor="middle" x="1605" y="-158.3" font-family="Times,serif" font-size="14.00">32 &#45; __Block_Inport__</text>
</g>
<!-- 3 &#45; UnitDelay&#45;&gt;32 &#45; __Block_Inport__ -->
<g id="edge39" class="edge"><title>3 &#45; UnitDelay&#45;&gt;32 &#45; __Block_Inport__</title>
<path fill="none" stroke="black" d="M1605,-296.972C1605,-271.03 1605,-221.357 1605,-190.326"/>
<polygon fill="black" stroke="black" points="1608.5,-190.198 1605,-180.198 1601.5,-190.198 1608.5,-190.198"/>
</g>
<!-- 4 &#45; Gain\n Gain = 0.01 -->
<g id="node5" class="node"><title>4 &#45; Gain\n Gain = 0.01</title>
<ellipse fill="lightblue" stroke="black" cx="422" cy="-315" rx="60.2186" ry="26.7407"/>
<text text-anchor="middle" x="422" y="-318.8" font-family="Times,serif" font-size="14.00">4 &#45; Gain</text>
<text text-anchor="middle" x="422" y="-303.8" font-family="Times,serif" font-size="14.00"> Gain = 0.01</text>
</g>
<!-- 19 &#45; __Block_Outport__ -->
<g id="node20" class="node"><title>19 &#45; __Block_Outport__</title>
<ellipse fill="#b94a62" stroke="black" cx="422" cy="-234" rx="97.237" ry="18"/>
<text text-anchor="middle" x="422" y="-230.3" font-family="Times,serif" font-size="14.00">19 &#45; __Block_Outport__</text>
</g>
<!-- 4 &#45; Gain\n Gain = 0.01&#45;&gt;19 &#45; __Block_Outport__ -->
<g id="edge5" class="edge"><title>4 &#45; Gain\n Gain = 0.01&#45;&gt;19 &#45; __Block_Outport__</title>
<path fill="none" stroke="black" d="M422,-287.694C422,-279.58 422,-270.626 422,-262.438"/>
<polygon fill="black" stroke="black" points="425.5,-262.248 422,-252.248 418.5,-262.248 425.5,-262.248"/>
</g>
<!-- 33 &#45; __Block_Inport__ -->
<g id="node34" class="node"><title>33 &#45; __Block_Inport__</title>
<ellipse fill="#b94a62" stroke="black" cx="242" cy="-162" rx="91.4625" ry="18"/>
<text text-anchor="middle" x="242" y="-158.3" font-family="Times,serif" font-size="14.00">33 &#45; __Block_Inport__</text>
</g>
<!-- 4 &#45; Gain\n Gain = 0.01&#45;&gt;33 &#45; __Block_Inport__ -->
<g id="edge40" class="edge"><title>4 &#45; Gain\n Gain = 0.01&#45;&gt;33 &#45; __Block_Inport__</title>
<path fill="none" stroke="black" d="M381.838,-294.782C361.048,-283.811 335.921,-268.889 316,-252 293.802,-233.181 273.038,-207.172 259.189,-188.131"/>
<polygon fill="black" stroke="black" points="261.989,-186.03 253.332,-179.923 256.291,-190.096 261.989,-186.03"/>
</g>
<!-- 5 &#45; Outport -->
<g id="node6" class="node"><title>5 &#45; Outport</title>
<ellipse fill="#eedd82" stroke="black" cx="1754" cy="-315" rx="50.0684" ry="18"/>
<text text-anchor="middle" x="1754" y="-311.3" font-family="Times,serif" font-size="14.00">5 &#45; Outport</text>
</g>
<!-- 27 &#45; __Block_Inport__ -->
<g id="node28" class="node"><title>27 &#45; __Block_Inport__</title>
<ellipse fill="#b94a62" stroke="black" cx="2015" cy="-234" rx="91.4625" ry="18"/>
<text text-anchor="middle" x="2015" y="-230.3" font-family="Times,serif" font-size="14.00">27 &#45; __Block_Inport__</text>
</g>
<!-- 5 &#45; Outport&#45;&gt;27 &#45; __Block_Inport__ -->
<g id="edge34" class="edge"><title>5 &#45; Outport&#45;&gt;27 &#45; __Block_Inport__</title>
<path fill="none" stroke="black" d="M1791.12,-302.765C1834.53,-289.626 1906.88,-267.725 1957.56,-252.387"/>
<polygon fill="black" stroke="black" points="1958.83,-255.658 1967.39,-249.411 1956.8,-248.959 1958.83,-255.658"/>
</g>
<!-- 6 &#45; SubSystem -->
<g id="node7" class="node"><title>6 &#45; SubSystem</title>
<ellipse fill="lightgreen" stroke="black" cx="1110" cy="-468" rx="63.0666" ry="18"/>
<text text-anchor="middle" x="1110" y="-464.3" font-family="Times,serif" font-size="14.00">6 &#45; SubSystem</text>
</g>
<!-- 41 &#45; __Contains__ -->
<g id="node42" class="node"><title>41 &#45; __Contains__</title>
<ellipse fill="lightgray" stroke="black" cx="890" cy="-396" rx="76.0649" ry="18"/>
<text text-anchor="middle" x="890" y="-392.3" font-family="Times,serif" font-size="14.00">41 &#45; __Contains__</text>
</g>
<!-- 6 &#45; SubSystem&#45;&gt;41 &#45; __Contains__ -->
<g id="edge6" class="edge"><title>6 &#45; SubSystem&#45;&gt;41 &#45; __Contains__</title>
<path fill="none" stroke="black" d="M1069.65,-454.161C1034.08,-442.845 982.018,-426.279 943.083,-413.89"/>
<polygon fill="black" stroke="black" points="944.076,-410.533 933.485,-410.836 941.953,-417.204 944.076,-410.533"/>
</g>
<!-- 42 &#45; __Contains__ -->
<g id="node43" class="node"><title>42 &#45; __Contains__</title>
<ellipse fill="lightgray" stroke="black" cx="1300" cy="-396" rx="76.0649" ry="18"/>
<text text-anchor="middle" x="1300" y="-392.3" font-family="Times,serif" font-size="14.00">42 &#45; __Contains__</text>
</g>
<!-- 6 &#45; SubSystem&#45;&gt;42 &#45; __Contains__ -->
<g id="edge7" class="edge"><title>6 &#45; SubSystem&#45;&gt;42 &#45; __Contains__</title>
<path fill="none" stroke="black" d="M1147.08,-453.337C1176.74,-442.412 1218.57,-427.001 1250.99,-415.058"/>
<polygon fill="black" stroke="black" points="1252.55,-418.213 1260.72,-411.472 1250.13,-411.645 1252.55,-418.213"/>
</g>
<!-- 43 &#45; __Contains__ -->
<g id="node44" class="node"><title>43 &#45; __Contains__</title>
<ellipse fill="lightgray" stroke="black" cx="1504" cy="-396" rx="76.0649" ry="18"/>
<text text-anchor="middle" x="1504" y="-392.3" font-family="Times,serif" font-size="14.00">43 &#45; __Contains__</text>
</g>
<!-- 6 &#45; SubSystem&#45;&gt;43 &#45; __Contains__ -->
<g id="edge8" class="edge"><title>6 &#45; SubSystem&#45;&gt;43 &#45; __Contains__</title>
<path fill="none" stroke="black" d="M1161.91,-457.777C1232.01,-445.324 1357.09,-423.101 1435.02,-409.255"/>
<polygon fill="black" stroke="black" points="1435.99,-412.638 1445.23,-407.442 1434.77,-405.746 1435.99,-412.638"/>
</g>
<!-- 44 &#45; __Contains__ -->
<g id="node45" class="node"><title>44 &#45; __Contains__</title>
<ellipse fill="lightgray" stroke="black" cx="1707" cy="-396" rx="76.0649" ry="18"/>
<text text-anchor="middle" x="1707" y="-392.3" font-family="Times,serif" font-size="14.00">44 &#45; __Contains__</text>
</g>
<!-- 6 &#45; SubSystem&#45;&gt;44 &#45; __Contains__ -->
<g id="edge12" class="edge"><title>6 &#45; SubSystem&#45;&gt;44 &#45; __Contains__</title>
<path fill="none" stroke="black" d="M1168.32,-461.171C1258.59,-452.009 1437.53,-433.286 1589,-414 1603.68,-412.131 1619.37,-409.98 1634.35,-407.85"/>
<polygon fill="black" stroke="black" points="1635.19,-411.266 1644.59,-406.382 1634.19,-404.336 1635.19,-411.266"/>
</g>
<!-- 45 &#45; __Contains__ -->
<g id="node46" class="node"><title>45 &#45; __Contains__</title>
<ellipse fill="lightgray" stroke="black" cx="251" cy="-396" rx="76.0649" ry="18"/>
<text text-anchor="middle" x="251" y="-392.3" font-family="Times,serif" font-size="14.00">45 &#45; __Contains__</text>
</g>
<!-- 6 &#45; SubSystem&#45;&gt;45 &#45; __Contains__ -->
<g id="edge11" class="edge"><title>6 &#45; SubSystem&#45;&gt;45 &#45; __Contains__</title>
<path fill="none" stroke="black" d="M1050.28,-462.133C899.459,-449.843 503.071,-417.541 331.768,-403.582"/>
<polygon fill="black" stroke="black" points="331.807,-400.073 321.556,-402.75 331.238,-407.05 331.807,-400.073"/>
</g>
<!-- 46 &#45; __Contains__ -->
<g id="node47" class="node"><title>46 &#45; __Contains__</title>
<ellipse fill="lightgray" stroke="black" cx="1110" cy="-396" rx="76.0649" ry="18"/>
<text text-anchor="middle" x="1110" y="-392.3" font-family="Times,serif" font-size="14.00">46 &#45; __Contains__</text>
</g>
<!-- 6 &#45; SubSystem&#45;&gt;46 &#45; __Contains__ -->
<g id="edge10" class="edge"><title>6 &#45; SubSystem&#45;&gt;46 &#45; __Contains__</title>
<path fill="none" stroke="black" d="M1110,-449.697C1110,-441.983 1110,-432.712 1110,-424.112"/>
<polygon fill="black" stroke="black" points="1113.5,-424.104 1110,-414.104 1106.5,-424.104 1113.5,-424.104"/>
</g>
<!-- 47 &#45; __Contains__ -->
<g id="node48" class="node"><title>47 &#45; __Contains__</title>
<ellipse fill="lightgray" stroke="black" cx="620" cy="-396" rx="76.0649" ry="18"/>
<text text-anchor="middle" x="620" y="-392.3" font-family="Times,serif" font-size="14.00">47 &#45; __Contains__</text>
</g>
<!-- 6 &#45; SubSystem&#45;&gt;47 &#45; __Contains__ -->
<g id="edge9" class="edge"><title>6 &#45; SubSystem&#45;&gt;47 &#45; __Contains__</title>
<path fill="none" stroke="black" d="M1054.74,-459.106C966.179,-446.454 792.383,-421.626 693.465,-407.495"/>
<polygon fill="black" stroke="black" points="693.939,-404.027 683.545,-406.078 692.949,-410.957 693.939,-404.027"/>
</g>
<!-- 7 &#45; Inport -->
<g id="node8" class="node"><title>7 &#45; Inport</title>
<ellipse fill="#eedd82" stroke="black" cx="1110" cy="-315" rx="44.2946" ry="18"/>
<text text-anchor="middle" x="1110" y="-311.3" font-family="Times,serif" font-size="14.00">7 &#45; Inport</text>
</g>
<!-- 18 &#45; __Block_Outport__ -->
<g id="node19" class="node"><title>18 &#45; __Block_Outport__</title>
<ellipse fill="#b94a62" stroke="black" cx="1110" cy="-234" rx="97.237" ry="18"/>
<text text-anchor="middle" x="1110" y="-230.3" font-family="Times,serif" font-size="14.00">18 &#45; __Block_Outport__</text>
</g>
<!-- 7 &#45; Inport&#45;&gt;18 &#45; __Block_Outport__ -->
<g id="edge13" class="edge"><title>7 &#45; Inport&#45;&gt;18 &#45; __Block_Outport__</title>
<path fill="none" stroke="black" d="M1110,-296.858C1110,-286.713 1110,-273.634 1110,-262.117"/>
<polygon fill="black" stroke="black" points="1113.5,-262.108 1110,-252.108 1106.5,-262.108 1113.5,-262.108"/>
</g>
<!-- 8 &#45; Port_Output -->
<g id="node9" class="node"><title>8 &#45; Port_Output</title>
<ellipse fill="coral" stroke="black" cx="66" cy="-162" rx="65.9423" ry="18"/>
<text text-anchor="middle" x="66" y="-158.3" font-family="Times,serif" font-size="14.00">8 &#45; Port_Output</text>
</g>
<!-- 40 &#45; __Relation__ -->
<g id="node41" class="node"><title>40 &#45; __Relation__</title>
<ellipse fill="#f78465" stroke="black" cx="85" cy="-90" rx="74.6146" ry="18"/>
<text text-anchor="middle" x="85" y="-86.3" font-family="Times,serif" font-size="14.00">40 &#45; __Relation__</text>
</g>
<!-- 8 &#45; Port_Output&#45;&gt;40 &#45; __Relation__ -->
<g id="edge14" class="edge"><title>8 &#45; Port_Output&#45;&gt;40 &#45; __Relation__</title>
<path fill="none" stroke="black" d="M70.6966,-143.697C72.8134,-135.898 75.362,-126.509 77.7178,-117.829"/>
<polygon fill="black" stroke="black" points="81.1156,-118.672 80.3574,-108.104 74.36,-116.838 81.1156,-118.672"/>
</g>
<!-- 9 &#45; Port_Output -->
<g id="node10" class="node"><title>9 &#45; Port_Output</title>
<ellipse fill="coral" stroke="black" cx="912" cy="-162" rx="65.9423" ry="18"/>
<text text-anchor="middle" x="912" y="-158.3" font-family="Times,serif" font-size="14.00">9 &#45; Port_Output</text>
</g>
<!-- 35 &#45; __Relation__ -->
<g id="node36" class="node"><title>35 &#45; __Relation__</title>
<ellipse fill="#f78465" stroke="black" cx="992" cy="-90" rx="74.6146" ry="18"/>
<text text-anchor="middle" x="992" y="-86.3" font-family="Times,serif" font-size="14.00">35 &#45; __Relation__</text>
</g>
<!-- 9 &#45; Port_Output&#45;&gt;35 &#45; __Relation__ -->
<g id="edge15" class="edge"><title>9 &#45; Port_Output&#45;&gt;35 &#45; __Relation__</title>
<path fill="none" stroke="black" d="M930.959,-144.411C941.32,-135.345 954.315,-123.974 965.649,-114.057"/>
<polygon fill="black" stroke="black" points="967.956,-116.689 973.177,-107.47 963.347,-111.421 967.956,-116.689"/>
</g>
<!-- 10 &#45; Port_Output -->
<g id="node11" class="node"><title>10 &#45; Port_Output</title>
<ellipse fill="coral" stroke="black" cx="1360" cy="-162" rx="70.2668" ry="18"/>
<text text-anchor="middle" x="1360" y="-158.3" font-family="Times,serif" font-size="14.00">10 &#45; Port_Output</text>
</g>
<!-- 34 &#45; __Relation__ -->
<g id="node35" class="node"><title>34 &#45; __Relation__</title>
<ellipse fill="#f78465" stroke="black" cx="1360" cy="-90" rx="74.6146" ry="18"/>
<text text-anchor="middle" x="1360" y="-86.3" font-family="Times,serif" font-size="14.00">34 &#45; __Relation__</text>
</g>
<!-- 10 &#45; Port_Output&#45;&gt;34 &#45; __Relation__ -->
<g id="edge16" class="edge"><title>10 &#45; Port_Output&#45;&gt;34 &#45; __Relation__</title>
<path fill="none" stroke="black" d="M1360,-143.697C1360,-135.983 1360,-126.712 1360,-118.112"/>
<polygon fill="black" stroke="black" points="1363.5,-118.104 1360,-108.104 1356.5,-118.104 1363.5,-118.104"/>
</g>
<!-- 11 &#45; Port_Output -->
<g id="node12" class="node"><title>11 &#45; Port_Output</title>
<ellipse fill="coral" stroke="black" cx="1785" cy="-162" rx="70.2668" ry="18"/>
<text text-anchor="middle" x="1785" y="-158.3" font-family="Times,serif" font-size="14.00">11 &#45; Port_Output</text>
</g>
<!-- 36 &#45; __Relation__ -->
<g id="node37" class="node"><title>36 &#45; __Relation__</title>
<ellipse fill="#f78465" stroke="black" cx="1767" cy="-90" rx="74.6146" ry="18"/>
<text text-anchor="middle" x="1767" y="-86.3" font-family="Times,serif" font-size="14.00">36 &#45; __Relation__</text>
</g>
<!-- 11 &#45; Port_Output&#45;&gt;36 &#45; __Relation__ -->
<g id="edge18" class="edge"><title>11 &#45; Port_Output&#45;&gt;36 &#45; __Relation__</title>
<path fill="none" stroke="black" d="M1780.55,-143.697C1778.55,-135.898 1776.13,-126.509 1773.9,-117.829"/>
<polygon fill="black" stroke="black" points="1777.28,-116.918 1771.4,-108.104 1770.5,-118.661 1777.28,-116.918"/>
</g>
<!-- 37 &#45; __Relation__ -->
<g id="node38" class="node"><title>37 &#45; __Relation__</title>
<ellipse fill="#f78465" stroke="black" cx="1934" cy="-90" rx="74.6146" ry="18"/>
<text text-anchor="middle" x="1934" y="-86.3" font-family="Times,serif" font-size="14.00">37 &#45; __Relation__</text>
</g>
<!-- 11 &#45; Port_Output&#45;&gt;37 &#45; __Relation__ -->
<g id="edge17" class="edge"><title>11 &#45; Port_Output&#45;&gt;37 &#45; __Relation__</title>
<path fill="none" stroke="black" d="M1817.33,-145.811C1839.32,-135.481 1868.61,-121.718 1892.35,-110.568"/>
<polygon fill="black" stroke="black" points="1893.91,-113.7 1901.48,-106.28 1890.94,-107.364 1893.91,-113.7"/>
</g>
<!-- 12 &#45; Port_Output -->
<g id="node13" class="node"><title>12 &#45; Port_Output</title>
<ellipse fill="coral" stroke="black" cx="1096" cy="-162" rx="70.2668" ry="18"/>
<text text-anchor="middle" x="1096" y="-158.3" font-family="Times,serif" font-size="14.00">12 &#45; Port_Output</text>
</g>
<!-- 38 &#45; __Relation__ -->
<g id="node39" class="node"><title>38 &#45; __Relation__</title>
<ellipse fill="#f78465" stroke="black" cx="825" cy="-90" rx="74.6146" ry="18"/>
<text text-anchor="middle" x="825" y="-86.3" font-family="Times,serif" font-size="14.00">38 &#45; __Relation__</text>
</g>
<!-- 12 &#45; Port_Output&#45;&gt;38 &#45; __Relation__ -->
<g id="edge19" class="edge"><title>12 &#45; Port_Output&#45;&gt;38 &#45; __Relation__</title>
<path fill="none" stroke="black" d="M1048.17,-148.647C1002.4,-136.823 933.232,-118.956 884.044,-106.251"/>
<polygon fill="black" stroke="black" points="884.734,-102.815 874.177,-103.702 882.984,-109.592 884.734,-102.815"/>
</g>
<!-- 13 &#45; Port_Output -->
<g id="node14" class="node"><title>13 &#45; Port_Output</title>
<ellipse fill="coral" stroke="black" cx="422" cy="-162" rx="70.2668" ry="18"/>
<text text-anchor="middle" x="422" y="-158.3" font-family="Times,serif" font-size="14.00">13 &#45; Port_Output</text>
</g>
<!-- 39 &#45; __Relation__ -->
<g id="node40" class="node"><title>39 &#45; __Relation__</title>
<ellipse fill="#f78465" stroke="black" cx="441" cy="-90" rx="74.6146" ry="18"/>
<text text-anchor="middle" x="441" y="-86.3" font-family="Times,serif" font-size="14.00">39 &#45; __Relation__</text>
</g>
<!-- 13 &#45; Port_Output&#45;&gt;39 &#45; __Relation__ -->
<g id="edge20" class="edge"><title>13 &#45; Port_Output&#45;&gt;39 &#45; __Relation__</title>
<path fill="none" stroke="black" d="M426.697,-143.697C428.813,-135.898 431.362,-126.509 433.718,-117.829"/>
<polygon fill="black" stroke="black" points="437.116,-118.672 436.357,-108.104 430.36,-116.838 437.116,-118.672"/>
</g>
<!-- 14 &#45; __Block_Outport__&#45;&gt;8 &#45; Port_Output -->
<g id="edge21" class="edge"><title>14 &#45; __Block_Outport__&#45;&gt;8 &#45; Port_Output</title>
<path fill="none" stroke="black" d="M106.17,-216.055C99.7903,-207.629 91.9547,-197.28 84.903,-187.966"/>
<polygon fill="black" stroke="black" points="87.5385,-185.649 78.7117,-179.789 81.9577,-189.874 87.5385,-185.649"/>
</g>
<!-- 15 &#45; __Block_Outport__&#45;&gt;9 &#45; Port_Output -->
<g id="edge22" class="edge"><title>15 &#45; __Block_Outport__&#45;&gt;9 &#45; Port_Output</title>
<path fill="none" stroke="black" d="M900.708,-215.697C902.361,-207.983 904.347,-198.712 906.19,-190.112"/>
<polygon fill="black" stroke="black" points="909.662,-190.616 908.335,-180.104 902.817,-189.149 909.662,-190.616"/>
</g>
<!-- 16 &#45; __Block_Outport__&#45;&gt;10 &#45; Port_Output -->
<g id="edge23" class="edge"><title>16 &#45; __Block_Outport__&#45;&gt;10 &#45; Port_Output</title>
<path fill="none" stroke="black" d="M1360,-215.697C1360,-207.983 1360,-198.712 1360,-190.112"/>
<polygon fill="black" stroke="black" points="1363.5,-190.104 1360,-180.104 1356.5,-190.104 1363.5,-190.104"/>
</g>
<!-- 17 &#45; __Block_Outport__&#45;&gt;11 &#45; Port_Output -->
<g id="edge24" class="edge"><title>17 &#45; __Block_Outport__&#45;&gt;11 &#45; Port_Output</title>
<path fill="none" stroke="black" d="M1764.67,-215.697C1767.71,-207.813 1771.38,-198.304 1774.76,-189.546"/>
<polygon fill="black" stroke="black" points="1778.07,-190.694 1778.4,-180.104 1771.54,-188.175 1778.07,-190.694"/>
</g>
<!-- 18 &#45; __Block_Outport__&#45;&gt;12 &#45; Port_Output -->
<g id="edge25" class="edge"><title>18 &#45; __Block_Outport__&#45;&gt;12 &#45; Port_Output</title>
<path fill="none" stroke="black" d="M1106.54,-215.697C1105,-207.983 1103.14,-198.712 1101.42,-190.112"/>
<polygon fill="black" stroke="black" points="1104.81,-189.224 1099.42,-180.104 1097.95,-190.597 1104.81,-189.224"/>
</g>
<!-- 19 &#45; __Block_Outport__&#45;&gt;13 &#45; Port_Output -->
<g id="edge26" class="edge"><title>19 &#45; __Block_Outport__&#45;&gt;13 &#45; Port_Output</title>
<path fill="none" stroke="black" d="M422,-215.697C422,-207.983 422,-198.712 422,-190.112"/>
<polygon fill="black" stroke="black" points="425.5,-190.104 422,-180.104 418.5,-190.104 425.5,-190.104"/>
</g>
<!-- 20 &#45; Port_Input -->
<g id="node21" class="node"><title>20 &#45; Port_Input</title>
<ellipse fill="lightyellow" stroke="black" cx="1985" cy="-18" rx="64.4914" ry="18"/>
<text text-anchor="middle" x="1985" y="-14.3" font-family="Times,serif" font-size="14.00">20 &#45; Port_Input</text>
</g>
<!-- 21 &#45; Port_Input -->
<g id="node22" class="node"><title>21 &#45; Port_Input</title>
<ellipse fill="lightyellow" stroke="black" cx="774" cy="-18" rx="64.4914" ry="18"/>
<text text-anchor="middle" x="774" y="-14.3" font-family="Times,serif" font-size="14.00">21 &#45; Port_Input</text>
</g>
<!-- 22 &#45; Port_Input -->
<g id="node23" class="node"><title>22 &#45; Port_Input</title>
<ellipse fill="lightyellow" stroke="black" cx="502" cy="-18" rx="64.4914" ry="18"/>
<text text-anchor="middle" x="502" y="-14.3" font-family="Times,serif" font-size="14.00">22 &#45; Port_Input</text>
</g>
<!-- 23 &#45; Port_Input -->
<g id="node24" class="node"><title>23 &#45; Port_Input</title>
<ellipse fill="lightyellow" stroke="black" cx="1084" cy="-18" rx="64.4914" ry="18"/>
<text text-anchor="middle" x="1084" y="-14.3" font-family="Times,serif" font-size="14.00">23 &#45; Port_Input</text>
</g>
<!-- 24 &#45; Port_Input -->
<g id="node25" class="node"><title>24 &#45; Port_Input</title>
<ellipse fill="lightyellow" stroke="black" cx="1675" cy="-18" rx="64.4914" ry="18"/>
<text text-anchor="middle" x="1675" y="-14.3" font-family="Times,serif" font-size="14.00">24 &#45; Port_Input</text>
</g>
<!-- 25 &#45; Port_Input -->
<g id="node26" class="node"><title>25 &#45; Port_Input</title>
<ellipse fill="lightyellow" stroke="black" cx="1411" cy="-18" rx="64.4914" ry="18"/>
<text text-anchor="middle" x="1411" y="-14.3" font-family="Times,serif" font-size="14.00">25 &#45; Port_Input</text>
</g>
<!-- 26 &#45; Port_Input -->
<g id="node27" class="node"><title>26 &#45; Port_Input</title>
<ellipse fill="lightyellow" stroke="black" cx="155" cy="-18" rx="64.4914" ry="18"/>
<text text-anchor="middle" x="155" y="-14.3" font-family="Times,serif" font-size="14.00">26 &#45; Port_Input</text>
</g>
<!-- 27 &#45; __Block_Inport__&#45;&gt;20 &#45; Port_Input -->
<g id="edge27" class="edge"><title>27 &#45; __Block_Inport__&#45;&gt;20 &#45; Port_Input</title>
<path fill="none" stroke="black" d="M2018.33,-215.672C2023.41,-185.724 2031.1,-122.626 2017,-72 2014.33,-62.4189 2009.41,-52.8397 2004.22,-44.5128"/>
<polygon fill="black" stroke="black" points="2007.02,-42.41 1998.56,-36.0279 2001.2,-46.2908 2007.02,-42.41"/>
</g>
<!-- 28 &#45; __Block_Inport__&#45;&gt;21 &#45; Port_Input -->
<g id="edge28" class="edge"><title>28 &#45; __Block_Inport__&#45;&gt;21 &#45; Port_Input</title>
<path fill="none" stroke="black" d="M694,-215.553C701.239,-185.424 717.929,-122.062 741,-72 745.31,-62.648 750.965,-52.9383 756.374,-44.4242"/>
<polygon fill="black" stroke="black" points="759.308,-46.3336 761.855,-36.0496 753.451,-42.5004 759.308,-46.3336"/>
</g>
<!-- 29 &#45; __Block_Inport__&#45;&gt;22 &#45; Port_Input -->
<g id="edge29" class="edge"><title>29 &#45; __Block_Inport__&#45;&gt;22 &#45; Port_Input</title>
<path fill="none" stroke="black" d="M589.938,-143.871C572.425,-119.003 539.849,-72.7456 519.639,-44.0477"/>
<polygon fill="black" stroke="black" points="522.414,-41.9092 513.795,-35.7483 516.691,-45.9396 522.414,-41.9092"/>
</g>
<!-- 30 &#45; __Block_Inport__&#45;&gt;23 &#45; Port_Input -->
<g id="edge30" class="edge"><title>30 &#45; __Block_Inport__&#45;&gt;23 &#45; Port_Input</title>
<path fill="none" stroke="black" d="M1154.2,-72.411C1142.08,-63.1911 1126.83,-51.5885 1113.64,-41.5547"/>
<polygon fill="black" stroke="black" points="1115.41,-38.4983 1105.33,-35.2285 1111.17,-44.0691 1115.41,-38.4983"/>
</g>
<!-- 31 &#45; __Block_Inport__&#45;&gt;24 &#45; Port_Input -->
<g id="edge31" class="edge"><title>31 &#45; __Block_Inport__&#45;&gt;24 &#45; Port_Input</title>
<path fill="none" stroke="black" d="M1604.8,-72.411C1616.92,-63.1911 1632.17,-51.5885 1645.36,-41.5547"/>
<polygon fill="black" stroke="black" points="1647.83,-44.0691 1653.67,-35.2285 1643.59,-38.4983 1647.83,-44.0691"/>
</g>
<!-- 32 &#45; __Block_Inport__&#45;&gt;25 &#45; Port_Input -->
<g id="edge32" class="edge"><title>32 &#45; __Block_Inport__&#45;&gt;25 &#45; Port_Input</title>
<path fill="none" stroke="black" d="M1557.12,-146.574C1533.06,-137.849 1504.36,-125.075 1482,-108 1459.08,-90.4991 1439.22,-64.0397 1426.38,-44.5168"/>
<polygon fill="black" stroke="black" points="1429.16,-42.3657 1420.83,-35.8263 1423.27,-46.1367 1429.16,-42.3657"/>
</g>
<!-- 33 &#45; __Block_Inport__&#45;&gt;26 &#45; Port_Input -->
<g id="edge33" class="edge"><title>33 &#45; __Block_Inport__&#45;&gt;26 &#45; Port_Input</title>
<path fill="none" stroke="black" d="M231.506,-143.871C216.417,-119.244 188.475,-73.6377 170.859,-44.8845"/>
<polygon fill="black" stroke="black" points="173.74,-42.8877 165.531,-36.1893 167.771,-46.5446 173.74,-42.8877"/>
</g>
<!-- 34 &#45; __Relation__&#45;&gt;25 &#45; Port_Input -->
<g id="edge41" class="edge"><title>34 &#45; __Relation__&#45;&gt;25 &#45; Port_Input</title>
<path fill="none" stroke="black" d="M1372.35,-72.055C1378.48,-63.6287 1386.02,-53.2798 1392.81,-43.9663"/>
<polygon fill="black" stroke="black" points="1395.71,-45.9324 1398.77,-35.789 1390.05,-41.8104 1395.71,-45.9324"/>
</g>
<!-- 35 &#45; __Relation__&#45;&gt;23 &#45; Port_Input -->
<g id="edge42" class="edge"><title>35 &#45; __Relation__&#45;&gt;23 &#45; Port_Input</title>
<path fill="none" stroke="black" d="M1013.8,-72.411C1025.92,-63.1911 1041.17,-51.5885 1054.36,-41.5547"/>
<polygon fill="black" stroke="black" points="1056.83,-44.0691 1062.67,-35.2285 1052.59,-38.4983 1056.83,-44.0691"/>
</g>
<!-- 36 &#45; __Relation__&#45;&gt;24 &#45; Port_Input -->
<g id="edge43" class="edge"><title>36 &#45; __Relation__&#45;&gt;24 &#45; Port_Input</title>
<path fill="none" stroke="black" d="M1745.2,-72.411C1733.08,-63.1911 1717.83,-51.5885 1704.64,-41.5547"/>
<polygon fill="black" stroke="black" points="1706.41,-38.4983 1696.33,-35.2285 1702.17,-44.0691 1706.41,-38.4983"/>
</g>
<!-- 37 &#45; __Relation__&#45;&gt;20 &#45; Port_Input -->
<g id="edge44" class="edge"><title>37 &#45; __Relation__&#45;&gt;20 &#45; Port_Input</title>
<path fill="none" stroke="black" d="M1946.35,-72.055C1952.48,-63.6287 1960.02,-53.2798 1966.81,-43.9663"/>
<polygon fill="black" stroke="black" points="1969.71,-45.9324 1972.77,-35.789 1964.05,-41.8104 1969.71,-45.9324"/>
</g>
<!-- 38 &#45; __Relation__&#45;&gt;21 &#45; Port_Input -->
<g id="edge45" class="edge"><title>38 &#45; __Relation__&#45;&gt;21 &#45; Port_Input</title>
<path fill="none" stroke="black" d="M812.654,-72.055C806.515,-63.6287 798.975,-53.2798 792.19,-43.9663"/>
<polygon fill="black" stroke="black" points="794.949,-41.8104 786.232,-35.789 789.292,-45.9324 794.949,-41.8104"/>
</g>
<!-- 39 &#45; __Relation__&#45;&gt;22 &#45; Port_Input -->
<g id="edge46" class="edge"><title>39 &#45; __Relation__&#45;&gt;22 &#45; Port_Input</title>
<path fill="none" stroke="black" d="M455.766,-72.055C463.259,-63.4567 472.496,-52.8566 480.739,-43.3974"/>
<polygon fill="black" stroke="black" points="483.438,-45.6276 487.37,-35.789 478.161,-41.0287 483.438,-45.6276"/>
</g>
<!-- 40 &#45; __Relation__&#45;&gt;26 &#45; Port_Input -->
<g id="edge47" class="edge"><title>40 &#45; __Relation__&#45;&gt;26 &#45; Port_Input</title>
<path fill="none" stroke="black" d="M101.589,-72.411C110.481,-63.519 121.589,-52.4107 131.369,-42.6309"/>
<polygon fill="black" stroke="black" points="133.934,-45.0159 138.53,-35.4699 128.984,-40.0662 133.934,-45.0159"/>
</g>
<!-- 41 &#45; __Contains__&#45;&gt;1 &#45; Product -->
<g id="edge48" class="edge"><title>41 &#45; __Contains__&#45;&gt;1 &#45; Product</title>
<path fill="none" stroke="black" d="M869.902,-378.631C855.536,-366.931 836.038,-351.051 820.27,-338.209"/>
<polygon fill="black" stroke="black" points="822.375,-335.41 812.411,-331.809 817.954,-340.838 822.375,-335.41"/>
</g>
<!-- 42 &#45; __Contains__&#45;&gt;2 &#45; Sum -->
<g id="edge49" class="edge"><title>42 &#45; __Contains__&#45;&gt;2 &#45; Sum</title>
<path fill="none" stroke="black" d="M1308.68,-377.858C1314.01,-367.331 1320.94,-353.644 1326.93,-341.822"/>
<polygon fill="black" stroke="black" points="1330.08,-343.34 1331.47,-332.837 1323.84,-340.177 1330.08,-343.34"/>
</g>
<!-- 43 &#45; __Contains__&#45;&gt;3 &#45; UnitDelay -->
<g id="edge50" class="edge"><title>43 &#45; __Contains__&#45;&gt;3 &#45; UnitDelay</title>
<path fill="none" stroke="black" d="M1524.93,-378.631C1539.79,-367.008 1559.92,-351.26 1576.28,-338.463"/>
<polygon fill="black" stroke="black" points="1578.72,-340.995 1584.45,-332.078 1574.41,-335.482 1578.72,-340.995"/>
</g>
<!-- 44 &#45; __Contains__&#45;&gt;5 &#45; Outport -->
<g id="edge51" class="edge"><title>44 &#45; __Contains__&#45;&gt;5 &#45; Outport</title>
<path fill="none" stroke="black" d="M1717.2,-377.858C1723.52,-367.227 1731.77,-353.373 1738.85,-341.472"/>
<polygon fill="black" stroke="black" points="1741.88,-343.221 1743.98,-332.837 1735.86,-339.642 1741.88,-343.221"/>
</g>
<!-- 45 &#45; __Contains__&#45;&gt;0 &#45; Constant\n Value = 1.0 -->
<g id="edge52" class="edge"><title>45 &#45; __Contains__&#45;&gt;0 &#45; Constant\n Value = 1.0</title>
<path fill="none" stroke="black" d="M240.151,-377.858C234.961,-369.659 228.558,-359.542 222.445,-349.884"/>
<polygon fill="black" stroke="black" points="225.261,-347.788 216.956,-341.21 219.346,-351.532 225.261,-347.788"/>
</g>
<!-- 46 &#45; __Contains__&#45;&gt;7 &#45; Inport -->
<g id="edge53" class="edge"><title>46 &#45; __Contains__&#45;&gt;7 &#45; Inport</title>
<path fill="none" stroke="black" d="M1110,-377.858C1110,-367.713 1110,-354.634 1110,-343.117"/>
<polygon fill="black" stroke="black" points="1113.5,-343.108 1110,-333.108 1106.5,-343.108 1113.5,-343.108"/>
</g>
<!-- 47 &#45; __Contains__&#45;&gt;4 &#45; Gain\n Gain = 0.01 -->
<g id="edge54" class="edge"><title>47 &#45; __Contains__&#45;&gt;4 &#45; Gain\n Gain = 0.01</title>
<path fill="none" stroke="black" d="M582.758,-380.141C552.448,-368.048 509.281,-350.824 475.308,-337.27"/>
<polygon fill="black" stroke="black" points="476.574,-334.006 465.989,-333.551 473.98,-340.508 476.574,-334.006"/>
</g>
</g>
</svg>
