<?xml version="1.0" encoding="UTF-8" standalone="no"?>
<!DOCTYPE svg PUBLIC "-//W3C//DTD SVG 1.1//EN"
 "http://www.w3.org/Graphics/SVG/1.1/DTD/svg11.dtd">
<!-- Generated by graphviz version 2.26.3 (20100126.1600)
 -->
<!-- Title: HConst2 Pages: 1 -->
<svg width="1706pt" height="2018pt"
 viewBox="0.00 0.00 1706.00 2018.00" xmlns="http://www.w3.org/2000/svg" xmlns:xlink="http://www.w3.org/1999/xlink">
<g id="graph1" class="graph" transform="scale(1 1) rotate(0) translate(4 2014)">
<title>HConst2</title>
<polygon fill="white" stroke="white" points="-4,5 -4,-2014 1703,-2014 1703,5 -4,5"/>
<!-- 0 &#45; Outport -->
<g id="node1" class="node"><title>0 &#45; Outport</title>
<ellipse fill="#eedd82" stroke="black" cx="179" cy="-19" rx="67.1751" ry="18.3848"/>
<text text-anchor="middle" x="179" y="-15.4" font-family="Times Roman,serif" font-size="14.00">0 &#45; Outport</text>
</g>
<!-- 1 &#45; Switch -->
<g id="node2" class="node"><title>1 &#45; Switch</title>
<ellipse fill="lightblue" stroke="black" cx="411" cy="-463" rx="62.2254" ry="18.3848"/>
<text text-anchor="middle" x="411" y="-459.4" font-family="Times Roman,serif" font-size="14.00">1 &#45; Switch</text>
</g>
<!-- 20 &#45; __Block_Outport__ -->
<g id="node21" class="node"><title>20 &#45; __Block_Outport__</title>
<ellipse fill="#b94a62" stroke="black" cx="334" cy="-389" rx="126.072" ry="18.3848"/>
<text text-anchor="middle" x="334" y="-385.4" font-family="Times Roman,serif" font-size="14.00">20 &#45; __Block_Outport__</text>
</g>
<!-- 1 &#45; Switch&#45;&gt;20 &#45; __Block_Outport__ -->
<g id="edge10" class="edge"><title>1 &#45; Switch&#45;&gt;20 &#45; __Block_Outport__</title>
<path fill="none" stroke="black" d="M392.36,-445.087C382.834,-435.931 371.072,-424.628 360.61,-414.573"/>
<polygon fill="black" stroke="black" points="362.907,-411.927 353.272,-407.521 358.057,-416.974 362.907,-411.927"/>
</g>
<!-- 2 &#45; Gain\n Gain = 5.0 -->
<g id="node3" class="node"><title>2 &#45; Gain\n Gain = 5.0</title>
<ellipse fill="lightblue" stroke="black" cx="1348" cy="-1363" rx="67.8823" ry="31.1127"/>
<text text-anchor="middle" x="1348" y="-1368.4" font-family="Times Roman,serif" font-size="14.00">2 &#45; Gain</text>
<text text-anchor="middle" x="1348" y="-1350.4" font-family="Times Roman,serif" font-size="14.00"> Gain = 5.0</text>
</g>
<!-- 21 &#45; __Block_Outport__ -->
<g id="node22" class="node"><title>21 &#45; __Block_Outport__</title>
<ellipse fill="#b94a62" stroke="black" cx="1348" cy="-1277" rx="127.986" ry="18.3848"/>
<text text-anchor="middle" x="1348" y="-1273.4" font-family="Times Roman,serif" font-size="14.00">21 &#45; __Block_Outport__</text>
</g>
<!-- 2 &#45; Gain\n Gain = 5.0&#45;&gt;21 &#45; __Block_Outport__ -->
<g id="edge14" class="edge"><title>2 &#45; Gain\n Gain = 5.0&#45;&gt;21 &#45; __Block_Outport__</title>
<path fill="none" stroke="black" d="M1348,-1331.95C1348,-1323.43 1348,-1314.22 1348,-1305.83"/>
<polygon fill="black" stroke="black" points="1351.5,-1305.74 1348,-1295.74 1344.5,-1305.74 1351.5,-1305.74"/>
</g>
<!-- 3 &#45; SubSystem -->
<g id="node4" class="node"><title>3 &#45; SubSystem</title>
<ellipse fill="lightgreen" stroke="black" cx="775" cy="-1991" rx="84.1457" ry="18.3848"/>
<text text-anchor="middle" x="775" y="-1987.4" font-family="Times Roman,serif" font-size="14.00">3 &#45; SubSystem</text>
</g>
<!-- 35 &#45; __Contains__ -->
<g id="node36" class="node"><title>35 &#45; __Contains__</title>
<ellipse fill="lightgray" stroke="black" cx="99" cy="-907" rx="98.9949" ry="18.3848"/>
<text text-anchor="middle" x="99" y="-903.4" font-family="Times Roman,serif" font-size="14.00">35 &#45; __Contains__</text>
</g>
<!-- 3 &#45; SubSystem&#45;&gt;35 &#45; __Contains__ -->
<g id="edge34" class="edge"><title>3 &#45; SubSystem&#45;&gt;35 &#45; __Contains__</title>
<path fill="none" stroke="black" d="M692.882,-1986.88C546.55,-1978.98 252.192,-1960.28 212,-1936 164.203,-1907.13 143,-1886.84 143,-1831 143,-1831 143,-1831 143,-1055 143,-1011.65 125.441,-964.008 112.508,-934.797"/>
<polygon fill="black" stroke="black" points="115.662,-933.278 108.331,-925.629 109.292,-936.18 115.662,-933.278"/>
</g>
<!-- 36 &#45; __Contains__ -->
<g id="node37" class="node"><title>36 &#45; __Contains__</title>
<ellipse fill="lightgray" stroke="black" cx="939" cy="-1363" rx="98.9949" ry="18.3848"/>
<text text-anchor="middle" x="939" y="-1359.4" font-family="Times Roman,serif" font-size="14.00">36 &#45; __Contains__</text>
</g>
<!-- 3 &#45; SubSystem&#45;&gt;36 &#45; __Contains__ -->
<g id="edge38" class="edge"><title>3 &#45; SubSystem&#45;&gt;36 &#45; __Contains__</title>
<path fill="none" stroke="black" d="M826.162,-1976.32C846.896,-1967.83 869.167,-1954.95 883,-1936 947.176,-1848.09 942.688,-1495.03 939.919,-1391.61"/>
<polygon fill="black" stroke="black" points="943.417,-1391.48 939.634,-1381.59 936.42,-1391.68 943.417,-1391.48"/>
</g>
<!-- 37 &#45; __Contains__ -->
<g id="node38" class="node"><title>37 &#45; __Contains__</title>
<ellipse fill="lightgray" stroke="black" cx="1447" cy="-1917" rx="99.201" ry="18.3848"/>
<text text-anchor="middle" x="1447" y="-1913.4" font-family="Times Roman,serif" font-size="14.00">37 &#45; __Contains__</text>
</g>
<!-- 3 &#45; SubSystem&#45;&gt;37 &#45; __Contains__ -->
<g id="edge42" class="edge"><title>3 &#45; SubSystem&#45;&gt;37 &#45; __Contains__</title>
<path fill="none" stroke="black" d="M850.455,-1982.69C973.346,-1969.16 1216.51,-1942.38 1351.34,-1927.53"/>
<polygon fill="black" stroke="black" points="1352.1,-1930.97 1361.65,-1926.4 1351.33,-1924.01 1352.1,-1930.97"/>
</g>
<!-- 38 &#45; __Contains__ -->
<g id="node39" class="node"><title>38 &#45; __Contains__</title>
<ellipse fill="lightgray" stroke="black" cx="240" cy="-833" rx="98.9949" ry="18.3848"/>
<text text-anchor="middle" x="240" y="-829.4" font-family="Times Roman,serif" font-size="14.00">38 &#45; __Contains__</text>
</g>
<!-- 3 &#45; SubSystem&#45;&gt;38 &#45; __Contains__ -->
<g id="edge46" class="edge"><title>3 &#45; SubSystem&#45;&gt;38 &#45; __Contains__</title>
<path fill="none" stroke="black" d="M696.05,-1984.54C544.13,-1969.91 226,-1927.73 226,-1831 226,-1831 226,-1831 226,-981 226,-939.395 231.551,-891.502 235.663,-861.737"/>
<polygon fill="black" stroke="black" points="239.156,-862.03 237.099,-851.637 232.226,-861.045 239.156,-862.03"/>
</g>
<!-- 39 &#45; __Contains__ -->
<g id="node40" class="node"><title>39 &#45; __Contains__</title>
<ellipse fill="lightgray" stroke="black" cx="1327" cy="-1745" rx="98.9949" ry="18.3848"/>
<text text-anchor="middle" x="1327" y="-1741.4" font-family="Times Roman,serif" font-size="14.00">39 &#45; __Contains__</text>
</g>
<!-- 3 &#45; SubSystem&#45;&gt;39 &#45; __Contains__ -->
<g id="edge50" class="edge"><title>3 &#45; SubSystem&#45;&gt;39 &#45; __Contains__</title>
<path fill="none" stroke="black" d="M856.806,-1986.53C956.176,-1979.92 1116.99,-1965.04 1169,-1936 1238.17,-1897.38 1289.56,-1815.55 1312.97,-1772.61"/>
<polygon fill="black" stroke="black" points="1316.18,-1774.04 1317.8,-1763.57 1310,-1770.74 1316.18,-1774.04"/>
</g>
<!-- 40 &#45; __Contains__ -->
<g id="node41" class="node"><title>40 &#45; __Contains__</title>
<ellipse fill="lightgray" stroke="black" cx="354" cy="-1831" rx="98.9949" ry="18.3848"/>
<text text-anchor="middle" x="354" y="-1827.4" font-family="Times Roman,serif" font-size="14.00">40 &#45; __Contains__</text>
</g>
<!-- 3 &#45; SubSystem&#45;&gt;40 &#45; __Contains__ -->
<g id="edge54" class="edge"><title>3 &#45; SubSystem&#45;&gt;40 &#45; __Contains__</title>
<path fill="none" stroke="black" d="M697.458,-1983.73C615.231,-1975.01 491.582,-1958.66 450,-1936 416.195,-1917.58 387.969,-1882.67 371.058,-1858.18"/>
<polygon fill="black" stroke="black" points="373.83,-1856.02 365.351,-1849.67 368.018,-1859.93 373.83,-1856.02"/>
</g>
<!-- 41 &#45; __Contains__ -->
<g id="node42" class="node"><title>41 &#45; __Contains__</title>
<ellipse fill="lightgray" stroke="black" cx="1060" cy="-1917" rx="99.9096" ry="18.3848"/>
<text text-anchor="middle" x="1060" y="-1913.4" font-family="Times Roman,serif" font-size="14.00">41 &#45; __Contains__</text>
</g>
<!-- 3 &#45; SubSystem&#45;&gt;41 &#45; __Contains__ -->
<g id="edge58" class="edge"><title>3 &#45; SubSystem&#45;&gt;41 &#45; __Contains__</title>
<path fill="none" stroke="black" d="M829.614,-1976.82C875.83,-1964.82 942.28,-1947.57 991.95,-1934.67"/>
<polygon fill="black" stroke="black" points="992.85,-1938.05 1001.65,-1932.15 991.091,-1931.28 992.85,-1938.05"/>
</g>
<!-- 42 &#45; __Contains__ -->
<g id="node43" class="node"><title>42 &#45; __Contains__</title>
<ellipse fill="lightgray" stroke="black" cx="558" cy="-1917" rx="99.201" ry="18.3848"/>
<text text-anchor="middle" x="558" y="-1913.4" font-family="Times Roman,serif" font-size="14.00">42 &#45; __Contains__</text>
</g>
<!-- 3 &#45; SubSystem&#45;&gt;42 &#45; __Contains__ -->
<g id="edge62" class="edge"><title>3 &#45; SubSystem&#45;&gt;42 &#45; __Contains__</title>
<path fill="none" stroke="black" d="M729.245,-1975.4C696.17,-1964.12 651.242,-1948.8 615.704,-1936.68"/>
<polygon fill="black" stroke="black" points="616.542,-1933.27 605.947,-1933.35 614.283,-1939.89 616.542,-1933.27"/>
</g>
<!-- 43 &#45; __Contains__ -->
<g id="node44" class="node"><title>43 &#45; __Contains__</title>
<ellipse fill="lightgray" stroke="black" cx="775" cy="-1917" rx="98.9949" ry="18.3848"/>
<text text-anchor="middle" x="775" y="-1913.4" font-family="Times Roman,serif" font-size="14.00">43 &#45; __Contains__</text>
</g>
<!-- 3 &#45; SubSystem&#45;&gt;43 &#45; __Contains__ -->
<g id="edge66" class="edge"><title>3 &#45; SubSystem&#45;&gt;43 &#45; __Contains__</title>
<path fill="none" stroke="black" d="M775,-1972.33C775,-1964.26 775,-1954.65 775,-1945.71"/>
<polygon fill="black" stroke="black" points="778.5,-1945.67 775,-1935.67 771.5,-1945.67 778.5,-1945.67"/>
</g>
<!-- 4 &#45; Product -->
<g id="node5" class="node"><title>4 &#45; Product</title>
<ellipse fill="lightblue" stroke="black" cx="984" cy="-907" rx="65.9683" ry="18.3848"/>
<text text-anchor="middle" x="984" y="-903.4" font-family="Times Roman,serif" font-size="14.00">4 &#45; Product</text>
</g>
<!-- 18 &#45; __Block_Outport__ -->
<g id="node19" class="node"><title>18 &#45; __Block_Outport__</title>
<ellipse fill="#b94a62" stroke="black" cx="903" cy="-833" rx="126.78" ry="18.3848"/>
<text text-anchor="middle" x="903" y="-829.4" font-family="Times Roman,serif" font-size="14.00">18 &#45; __Block_Outport__</text>
</g>
<!-- 4 &#45; Product&#45;&gt;18 &#45; __Block_Outport__ -->
<g id="edge2" class="edge"><title>4 &#45; Product&#45;&gt;18 &#45; __Block_Outport__</title>
<path fill="none" stroke="black" d="M964.392,-889.087C954.273,-879.842 941.758,-868.408 930.672,-858.281"/>
<polygon fill="black" stroke="black" points="933.017,-855.682 923.273,-851.521 928.295,-860.85 933.017,-855.682"/>
</g>
<!-- 5 &#45; Product -->
<g id="node6" class="node"><title>5 &#45; Product</title>
<ellipse fill="lightblue" stroke="black" cx="411" cy="-1363" rx="65.9683" ry="18.3848"/>
<text text-anchor="middle" x="411" y="-1359.4" font-family="Times Roman,serif" font-size="14.00">5 &#45; Product</text>
</g>
<!-- 22 &#45; __Block_Outport__ -->
<g id="node23" class="node"><title>22 &#45; __Block_Outport__</title>
<ellipse fill="#b94a62" stroke="black" cx="411" cy="-1203" rx="126.78" ry="18.3848"/>
<text text-anchor="middle" x="411" y="-1199.4" font-family="Times Roman,serif" font-size="14.00">22 &#45; __Block_Outport__</text>
</g>
<!-- 5 &#45; Product&#45;&gt;22 &#45; __Block_Outport__ -->
<g id="edge18" class="edge"><title>5 &#45; Product&#45;&gt;22 &#45; __Block_Outport__</title>
<path fill="none" stroke="black" d="M411,-1344.33C411,-1316.63 411,-1264.42 411,-1231.8"/>
<polygon fill="black" stroke="black" points="414.5,-1231.55 411,-1221.55 407.5,-1231.55 414.5,-1231.55"/>
</g>
<!-- 6 &#45; Constant\n Value = 12.34 -->
<g id="node7" class="node"><title>6 &#45; Constant\n Value = 12.34</title>
<ellipse fill="lightblue" stroke="black" cx="1509" cy="-1831" rx="85.7684" ry="31.1127"/>
<text text-anchor="middle" x="1509" y="-1836.4" font-family="Times Roman,serif" font-size="14.00">6 &#45; Constant</text>
<text text-anchor="middle" x="1509" y="-1818.4" font-family="Times Roman,serif" font-size="14.00"> Value = 12.34</text>
</g>
<!-- 19 &#45; __Block_Outport__ -->
<g id="node20" class="node"><title>19 &#45; __Block_Outport__</title>
<ellipse fill="#b94a62" stroke="black" cx="1571" cy="-1745" rx="126.78" ry="18.3848"/>
<text text-anchor="middle" x="1571" y="-1741.4" font-family="Times Roman,serif" font-size="14.00">19 &#45; __Block_Outport__</text>
</g>
<!-- 6 &#45; Constant\n Value = 12.34&#45;&gt;19 &#45; __Block_Outport__ -->
<g id="edge6" class="edge"><title>6 &#45; Constant\n Value = 12.34&#45;&gt;19 &#45; __Block_Outport__</title>
<path fill="none" stroke="black" d="M1530.68,-1800.92C1537.58,-1791.35 1545.16,-1780.84 1551.86,-1771.55"/>
<polygon fill="black" stroke="black" points="1554.72,-1773.56 1557.73,-1763.41 1549.04,-1769.47 1554.72,-1773.56"/>
</g>
<!-- 7 &#45; Constant\n Value = 7.12 -->
<g id="node8" class="node"><title>7 &#45; Constant\n Value = 7.12</title>
<ellipse fill="lightblue" stroke="black" cx="1071" cy="-1831" rx="80.8184" ry="31.1127"/>
<text text-anchor="middle" x="1071" y="-1836.4" font-family="Times Roman,serif" font-size="14.00">7 &#45; Constant</text>
<text text-anchor="middle" x="1071" y="-1818.4" font-family="Times Roman,serif" font-size="14.00"> Value = 7.12</text>
</g>
<!-- 23 &#45; __Block_Outport__ -->
<g id="node24" class="node"><title>23 &#45; __Block_Outport__</title>
<ellipse fill="#b94a62" stroke="black" cx="1084" cy="-1745" rx="126.072" ry="18.3848"/>
<text text-anchor="middle" x="1084" y="-1741.4" font-family="Times Roman,serif" font-size="14.00">23 &#45; __Block_Outport__</text>
</g>
<!-- 7 &#45; Constant\n Value = 7.12&#45;&gt;23 &#45; __Block_Outport__ -->
<g id="edge22" class="edge"><title>7 &#45; Constant\n Value = 7.12&#45;&gt;23 &#45; __Block_Outport__</title>
<path fill="none" stroke="black" d="M1075.69,-1799.95C1076.98,-1791.43 1078.37,-1782.22 1079.64,-1773.83"/>
<polygon fill="black" stroke="black" points="1083.13,-1774.15 1081.17,-1763.74 1076.21,-1773.1 1083.13,-1774.15"/>
</g>
<!-- 8 &#45; Constant\n Value = 124.5 -->
<g id="node9" class="node"><title>8 &#45; Constant\n Value = 124.5</title>
<ellipse fill="lightblue" stroke="black" cx="558" cy="-1831" rx="86.9741" ry="31.1127"/>
<text text-anchor="middle" x="558" y="-1836.4" font-family="Times Roman,serif" font-size="14.00">8 &#45; Constant</text>
<text text-anchor="middle" x="558" y="-1818.4" font-family="Times Roman,serif" font-size="14.00"> Value = 124.5</text>
</g>
<!-- 24 &#45; __Block_Outport__ -->
<g id="node25" class="node"><title>24 &#45; __Block_Outport__</title>
<ellipse fill="#b94a62" stroke="black" cx="461" cy="-1745" rx="126.78" ry="18.3848"/>
<text text-anchor="middle" x="461" y="-1741.4" font-family="Times Roman,serif" font-size="14.00">24 &#45; __Block_Outport__</text>
</g>
<!-- 8 &#45; Constant\n Value = 124.5&#45;&gt;24 &#45; __Block_Outport__ -->
<g id="edge26" class="edge"><title>8 &#45; Constant\n Value = 124.5&#45;&gt;24 &#45; __Block_Outport__</title>
<path fill="none" stroke="black" d="M525.431,-1802.12C513.714,-1791.74 500.603,-1780.11 489.282,-1770.07"/>
<polygon fill="black" stroke="black" points="491.573,-1767.43 481.769,-1763.41 486.93,-1772.67 491.573,-1767.43"/>
</g>
<!-- 9 &#45; Constant\n Value = 2.0 -->
<g id="node10" class="node"><title>9 &#45; Constant\n Value = 2.0</title>
<ellipse fill="lightblue" stroke="black" cx="775" cy="-1831" rx="73.0388" ry="31.1127"/>
<text text-anchor="middle" x="775" y="-1836.4" font-family="Times Roman,serif" font-size="14.00">9 &#45; Constant</text>
<text text-anchor="middle" x="775" y="-1818.4" font-family="Times Roman,serif" font-size="14.00"> Value = 2.0</text>
</g>
<!-- 25 &#45; __Block_Outport__ -->
<g id="node26" class="node"><title>25 &#45; __Block_Outport__</title>
<ellipse fill="#b94a62" stroke="black" cx="775" cy="-1745" rx="126.78" ry="18.3848"/>
<text text-anchor="middle" x="775" y="-1741.4" font-family="Times Roman,serif" font-size="14.00">25 &#45; __Block_Outport__</text>
</g>
<!-- 9 &#45; Constant\n Value = 2.0&#45;&gt;25 &#45; __Block_Outport__ -->
<g id="edge30" class="edge"><title>9 &#45; Constant\n Value = 2.0&#45;&gt;25 &#45; __Block_Outport__</title>
<path fill="none" stroke="black" d="M775,-1799.95C775,-1791.43 775,-1782.22 775,-1773.83"/>
<polygon fill="black" stroke="black" points="778.5,-1773.74 775,-1763.74 771.5,-1773.74 778.5,-1773.74"/>
</g>
<!-- 10 &#45; Port_Output -->
<g id="node11" class="node"><title>10 &#45; Port_Output</title>
<ellipse fill="coral" stroke="black" cx="894" cy="-759" rx="94.7523" ry="18.3848"/>
<text text-anchor="middle" x="894" y="-755.4" font-family="Times Roman,serif" font-size="14.00">10 &#45; Port_Output</text>
</g>
<!-- 57 &#45; __Relation__ -->
<g id="node58" class="node"><title>57 &#45; __Relation__</title>
<ellipse fill="#f78465" stroke="black" cx="877" cy="-685" rx="97.0803" ry="18.3848"/>
<text text-anchor="middle" x="877" y="-681.4" font-family="Times Roman,serif" font-size="14.00">57 &#45; __Relation__</text>
</g>
<!-- 10 &#45; Port_Output&#45;&gt;57 &#45; __Relation__ -->
<g id="edge86" class="edge"><title>10 &#45; Port_Output&#45;&gt;57 &#45; __Relation__</title>
<path fill="none" stroke="black" d="M889.71,-740.327C887.838,-732.176 885.601,-722.438 883.529,-713.42"/>
<polygon fill="black" stroke="black" points="886.939,-712.63 881.288,-703.667 880.116,-714.197 886.939,-712.63"/>
</g>
<!-- 11 &#45; Port_Output -->
<g id="node12" class="node"><title>11 &#45; Port_Output</title>
<ellipse fill="coral" stroke="black" cx="1556" cy="-1671" rx="96.1665" ry="18.3848"/>
<text text-anchor="middle" x="1556" y="-1667.4" font-family="Times Roman,serif" font-size="14.00">11 &#45; Port_Output</text>
</g>
<!-- 60 &#45; __Relation__ -->
<g id="node61" class="node"><title>60 &#45; __Relation__</title>
<ellipse fill="#f78465" stroke="black" cx="1518" cy="-1597" rx="96.1665" ry="18.3848"/>
<text text-anchor="middle" x="1518" y="-1593.4" font-family="Times Roman,serif" font-size="14.00">60 &#45; __Relation__</text>
</g>
<!-- 11 &#45; Port_Output&#45;&gt;60 &#45; __Relation__ -->
<g id="edge98" class="edge"><title>11 &#45; Port_Output&#45;&gt;60 &#45; __Relation__</title>
<path fill="none" stroke="black" d="M1546.41,-1652.33C1542.06,-1643.85 1536.82,-1633.65 1532.04,-1624.34"/>
<polygon fill="black" stroke="black" points="1535.14,-1622.71 1527.45,-1615.41 1528.91,-1625.91 1535.14,-1622.71"/>
</g>
<!-- 12 &#45; Port_Output -->
<g id="node13" class="node"><title>12 &#45; Port_Output</title>
<ellipse fill="coral" stroke="black" cx="328" cy="-315" rx="94.9596" ry="18.3848"/>
<text text-anchor="middle" x="328" y="-311.4" font-family="Times Roman,serif" font-size="14.00">12 &#45; Port_Output</text>
</g>
<!-- 58 &#45; __Relation__ -->
<g id="node59" class="node"><title>58 &#45; __Relation__</title>
<ellipse fill="#f78465" stroke="black" cx="286" cy="-241" rx="96.8736" ry="18.3848"/>
<text text-anchor="middle" x="286" y="-237.4" font-family="Times Roman,serif" font-size="14.00">58 &#45; __Relation__</text>
</g>
<!-- 12 &#45; Port_Output&#45;&gt;58 &#45; __Relation__ -->
<g id="edge90" class="edge"><title>12 &#45; Port_Output&#45;&gt;58 &#45; __Relation__</title>
<path fill="none" stroke="black" d="M317.402,-296.327C312.59,-287.849 306.804,-277.654 301.516,-268.338"/>
<polygon fill="black" stroke="black" points="304.429,-266.38 296.449,-259.411 298.342,-269.836 304.429,-266.38"/>
</g>
<!-- 13 &#45; Port_Output -->
<g id="node14" class="node"><title>13 &#45; Port_Output</title>
<ellipse fill="coral" stroke="black" cx="1337" cy="-1203" rx="94.7523" ry="18.3848"/>
<text text-anchor="middle" x="1337" y="-1199.4" font-family="Times Roman,serif" font-size="14.00">13 &#45; Port_Output</text>
</g>
<!-- 59 &#45; __Relation__ -->
<g id="node60" class="node"><title>59 &#45; __Relation__</title>
<ellipse fill="#f78465" stroke="black" cx="1251" cy="-1129" rx="96.8736" ry="18.3848"/>
<text text-anchor="middle" x="1251" y="-1125.4" font-family="Times Roman,serif" font-size="14.00">59 &#45; __Relation__</text>
</g>
<!-- 13 &#45; Port_Output&#45;&gt;59 &#45; __Relation__ -->
<g id="edge94" class="edge"><title>13 &#45; Port_Output&#45;&gt;59 &#45; __Relation__</title>
<path fill="none" stroke="black" d="M1315.74,-1184.71C1304.91,-1175.39 1291.58,-1163.92 1279.84,-1153.82"/>
<polygon fill="black" stroke="black" points="1281.88,-1150.95 1272.01,-1147.08 1277.31,-1156.26 1281.88,-1150.95"/>
</g>
<!-- 14 &#45; Port_Output -->
<g id="node15" class="node"><title>14 &#45; Port_Output</title>
<ellipse fill="coral" stroke="black" cx="411" cy="-1129" rx="94.9596" ry="18.3848"/>
<text text-anchor="middle" x="411" y="-1125.4" font-family="Times Roman,serif" font-size="14.00">14 &#45; Port_Output</text>
</g>
<!-- 53 &#45; __Relation__ -->
<g id="node54" class="node"><title>53 &#45; __Relation__</title>
<ellipse fill="#f78465" stroke="black" cx="411" cy="-1055" rx="96.8736" ry="18.3848"/>
<text text-anchor="middle" x="411" y="-1051.4" font-family="Times Roman,serif" font-size="14.00">53 &#45; __Relation__</text>
</g>
<!-- 14 &#45; Port_Output&#45;&gt;53 &#45; __Relation__ -->
<g id="edge70" class="edge"><title>14 &#45; Port_Output&#45;&gt;53 &#45; __Relation__</title>
<path fill="none" stroke="black" d="M411,-1110.33C411,-1102.26 411,-1092.65 411,-1083.71"/>
<polygon fill="black" stroke="black" points="414.5,-1083.67 411,-1073.67 407.5,-1083.67 414.5,-1083.67"/>
</g>
<!-- 15 &#45; Port_Output -->
<g id="node16" class="node"><title>15 &#45; Port_Output</title>
<ellipse fill="coral" stroke="black" cx="1084" cy="-1671" rx="94.9596" ry="18.3848"/>
<text text-anchor="middle" x="1084" y="-1667.4" font-family="Times Roman,serif" font-size="14.00">15 &#45; Port_Output</text>
</g>
<!-- 61 &#45; __Relation__ -->
<g id="node62" class="node"><title>61 &#45; __Relation__</title>
<ellipse fill="#f78465" stroke="black" cx="1084" cy="-1523" rx="96.8736" ry="18.3848"/>
<text text-anchor="middle" x="1084" y="-1519.4" font-family="Times Roman,serif" font-size="14.00">61 &#45; __Relation__</text>
</g>
<!-- 15 &#45; Port_Output&#45;&gt;61 &#45; __Relation__ -->
<g id="edge102" class="edge"><title>15 &#45; Port_Output&#45;&gt;61 &#45; __Relation__</title>
<path fill="none" stroke="black" d="M1084,-1652.26C1084,-1626.9 1084,-1581.44 1084,-1551.75"/>
<polygon fill="black" stroke="black" points="1087.5,-1551.59 1084,-1541.59 1080.5,-1551.59 1087.5,-1551.59"/>
</g>
<!-- 16 &#45; Port_Output -->
<g id="node17" class="node"><title>16 &#45; Port_Output</title>
<ellipse fill="coral" stroke="black" cx="425" cy="-1671" rx="94.7523" ry="18.3848"/>
<text text-anchor="middle" x="425" y="-1667.4" font-family="Times Roman,serif" font-size="14.00">16 &#45; Port_Output</text>
</g>
<!-- 54 &#45; __Relation__ -->
<g id="node55" class="node"><title>54 &#45; __Relation__</title>
<ellipse fill="#f78465" stroke="black" cx="389" cy="-1597" rx="96.8736" ry="18.3848"/>
<text text-anchor="middle" x="389" y="-1593.4" font-family="Times Roman,serif" font-size="14.00">54 &#45; __Relation__</text>
</g>
<!-- 16 &#45; Port_Output&#45;&gt;54 &#45; __Relation__ -->
<g id="edge74" class="edge"><title>16 &#45; Port_Output&#45;&gt;54 &#45; __Relation__</title>
<path fill="none" stroke="black" d="M415.916,-1652.33C411.865,-1644 407.009,-1634.02 402.544,-1624.84"/>
<polygon fill="black" stroke="black" points="405.603,-1623.13 398.081,-1615.67 399.309,-1626.19 405.603,-1623.13"/>
</g>
<!-- 17 &#45; Port_Output -->
<g id="node18" class="node"><title>17 &#45; Port_Output</title>
<ellipse fill="coral" stroke="black" cx="775" cy="-1671" rx="96.1665" ry="18.3848"/>
<text text-anchor="middle" x="775" y="-1667.4" font-family="Times Roman,serif" font-size="14.00">17 &#45; Port_Output</text>
</g>
<!-- 55 &#45; __Relation__ -->
<g id="node56" class="node"><title>55 &#45; __Relation__</title>
<ellipse fill="#f78465" stroke="black" cx="813" cy="-1597" rx="96.8736" ry="18.3848"/>
<text text-anchor="middle" x="813" y="-1593.4" font-family="Times Roman,serif" font-size="14.00">55 &#45; __Relation__</text>
</g>
<!-- 17 &#45; Port_Output&#45;&gt;55 &#45; __Relation__ -->
<g id="edge78" class="edge"><title>17 &#45; Port_Output&#45;&gt;55 &#45; __Relation__</title>
<path fill="none" stroke="black" d="M784.589,-1652.33C788.864,-1644 793.99,-1634.02 798.704,-1624.84"/>
<polygon fill="black" stroke="black" points="801.959,-1626.16 803.414,-1615.67 795.732,-1622.96 801.959,-1626.16"/>
</g>
<!-- 56 &#45; __Relation__ -->
<g id="node57" class="node"><title>56 &#45; __Relation__</title>
<ellipse fill="#f78465" stroke="black" cx="601" cy="-1597" rx="96.8736" ry="18.3848"/>
<text text-anchor="middle" x="601" y="-1593.4" font-family="Times Roman,serif" font-size="14.00">56 &#45; __Relation__</text>
</g>
<!-- 17 &#45; Port_Output&#45;&gt;56 &#45; __Relation__ -->
<g id="edge82" class="edge"><title>17 &#45; Port_Output&#45;&gt;56 &#45; __Relation__</title>
<path fill="none" stroke="black" d="M735.081,-1654.02C709.771,-1643.26 676.854,-1629.26 649.969,-1617.83"/>
<polygon fill="black" stroke="black" points="651.306,-1614.59 640.733,-1613.9 648.566,-1621.03 651.306,-1614.59"/>
</g>
<!-- 18 &#45; __Block_Outport__&#45;&gt;10 &#45; Port_Output -->
<g id="edge4" class="edge"><title>18 &#45; __Block_Outport__&#45;&gt;10 &#45; Port_Output</title>
<path fill="none" stroke="black" d="M900.729,-814.327C899.748,-806.264 898.579,-796.648 897.492,-787.711"/>
<polygon fill="black" stroke="black" points="900.952,-787.172 896.27,-777.667 894.003,-788.017 900.952,-787.172"/>
</g>
<!-- 19 &#45; __Block_Outport__&#45;&gt;11 &#45; Port_Output -->
<g id="edge8" class="edge"><title>19 &#45; __Block_Outport__&#45;&gt;11 &#45; Port_Output</title>
<path fill="none" stroke="black" d="M1567.21,-1726.33C1565.58,-1718.26 1563.63,-1708.65 1561.82,-1699.71"/>
<polygon fill="black" stroke="black" points="1565.2,-1698.77 1559.78,-1689.67 1558.34,-1700.16 1565.2,-1698.77"/>
</g>
<!-- 20 &#45; __Block_Outport__&#45;&gt;12 &#45; Port_Output -->
<g id="edge12" class="edge"><title>20 &#45; __Block_Outport__&#45;&gt;12 &#45; Port_Output</title>
<path fill="none" stroke="black" d="M332.486,-370.327C331.832,-362.264 331.053,-352.648 330.328,-343.711"/>
<polygon fill="black" stroke="black" points="333.81,-343.352 329.514,-333.667 326.833,-343.918 333.81,-343.352"/>
</g>
<!-- 21 &#45; __Block_Outport__&#45;&gt;13 &#45; Port_Output -->
<g id="edge16" class="edge"><title>21 &#45; __Block_Outport__&#45;&gt;13 &#45; Port_Output</title>
<path fill="none" stroke="black" d="M1345.22,-1258.33C1344.03,-1250.26 1342.6,-1240.65 1341.27,-1231.71"/>
<polygon fill="black" stroke="black" points="1344.71,-1231.04 1339.77,-1221.67 1337.78,-1232.07 1344.71,-1231.04"/>
</g>
<!-- 22 &#45; __Block_Outport__&#45;&gt;14 &#45; Port_Output -->
<g id="edge20" class="edge"><title>22 &#45; __Block_Outport__&#45;&gt;14 &#45; Port_Output</title>
<path fill="none" stroke="black" d="M411,-1184.33C411,-1176.26 411,-1166.65 411,-1157.71"/>
<polygon fill="black" stroke="black" points="414.5,-1157.67 411,-1147.67 407.5,-1157.67 414.5,-1157.67"/>
</g>
<!-- 23 &#45; __Block_Outport__&#45;&gt;15 &#45; Port_Output -->
<g id="edge24" class="edge"><title>23 &#45; __Block_Outport__&#45;&gt;15 &#45; Port_Output</title>
<path fill="none" stroke="black" d="M1084,-1726.33C1084,-1718.26 1084,-1708.65 1084,-1699.71"/>
<polygon fill="black" stroke="black" points="1087.5,-1699.67 1084,-1689.67 1080.5,-1699.67 1087.5,-1699.67"/>
</g>
<!-- 24 &#45; __Block_Outport__&#45;&gt;16 &#45; Port_Output -->
<g id="edge28" class="edge"><title>24 &#45; __Block_Outport__&#45;&gt;16 &#45; Port_Output</title>
<path fill="none" stroke="black" d="M451.916,-1726.33C447.865,-1718 443.009,-1708.02 438.544,-1698.84"/>
<polygon fill="black" stroke="black" points="441.603,-1697.13 434.081,-1689.67 435.309,-1700.19 441.603,-1697.13"/>
</g>
<!-- 25 &#45; __Block_Outport__&#45;&gt;17 &#45; Port_Output -->
<g id="edge32" class="edge"><title>25 &#45; __Block_Outport__&#45;&gt;17 &#45; Port_Output</title>
<path fill="none" stroke="black" d="M775,-1726.33C775,-1718.26 775,-1708.65 775,-1699.71"/>
<polygon fill="black" stroke="black" points="778.5,-1699.67 775,-1689.67 771.5,-1699.67 778.5,-1699.67"/>
</g>
<!-- 26 &#45; Port_Input -->
<g id="node27" class="node"><title>26 &#45; Port_Input</title>
<ellipse fill="lightyellow" stroke="black" cx="265" cy="-167" rx="85.0596" ry="18.3848"/>
<text text-anchor="middle" x="265" y="-163.4" font-family="Times Roman,serif" font-size="14.00">26 &#45; Port_Input</text>
</g>
<!-- 44 &#45; __Block_Inport__ -->
<g id="node45" class="node"><title>44 &#45; __Block_Inport__</title>
<ellipse fill="#b94a62" stroke="black" cx="255" cy="-93" rx="118.087" ry="18.3848"/>
<text text-anchor="middle" x="255" y="-89.4" font-family="Times Roman,serif" font-size="14.00">44 &#45; __Block_Inport__</text>
</g>
<!-- 26 &#45; Port_Input&#45;&gt;44 &#45; __Block_Inport__ -->
<g id="edge108" class="edge"><title>26 &#45; Port_Input&#45;&gt;44 &#45; __Block_Inport__</title>
<path fill="none" stroke="black" d="M262.477,-148.327C261.387,-140.264 260.088,-130.648 258.88,-121.711"/>
<polygon fill="black" stroke="black" points="262.33,-121.109 257.523,-111.667 255.393,-122.046 262.33,-121.109"/>
</g>
<!-- 27 &#45; Port_Input -->
<g id="node28" class="node"><title>27 &#45; Port_Input</title>
<ellipse fill="lightyellow" stroke="black" cx="1084" cy="-1449" rx="85.7684" ry="18.3848"/>
<text text-anchor="middle" x="1084" y="-1445.4" font-family="Times Roman,serif" font-size="14.00">27 &#45; Port_Input</text>
</g>
<!-- 45 &#45; __Block_Inport__ -->
<g id="node46" class="node"><title>45 &#45; __Block_Inport__</title>
<ellipse fill="#b94a62" stroke="black" cx="1084" cy="-1277" rx="118.087" ry="18.3848"/>
<text text-anchor="middle" x="1084" y="-1273.4" font-family="Times Roman,serif" font-size="14.00">45 &#45; __Block_Inport__</text>
</g>
<!-- 27 &#45; Port_Input&#45;&gt;45 &#45; __Block_Inport__ -->
<g id="edge112" class="edge"><title>27 &#45; Port_Input&#45;&gt;45 &#45; __Block_Inport__</title>
<path fill="none" stroke="black" d="M1084,-1430.27C1084,-1400.28 1084,-1341.3 1084,-1305.89"/>
<polygon fill="black" stroke="black" points="1087.5,-1305.71 1084,-1295.71 1080.5,-1305.71 1087.5,-1305.71"/>
</g>
<!-- 28 &#45; Port_Input -->
<g id="node29" class="node"><title>28 &#45; Port_Input</title>
<ellipse fill="lightyellow" stroke="black" cx="1208" cy="-1055" rx="85.0596" ry="18.3848"/>
<text text-anchor="middle" x="1208" y="-1051.4" font-family="Times Roman,serif" font-size="14.00">28 &#45; Port_Input</text>
</g>
<!-- 46 &#45; __Block_Inport__ -->
<g id="node47" class="node"><title>46 &#45; __Block_Inport__</title>
<ellipse fill="#b94a62" stroke="black" cx="1187" cy="-981" rx="118.087" ry="18.3848"/>
<text text-anchor="middle" x="1187" y="-977.4" font-family="Times Roman,serif" font-size="14.00">46 &#45; __Block_Inport__</text>
</g>
<!-- 28 &#45; Port_Input&#45;&gt;46 &#45; __Block_Inport__ -->
<g id="edge116" class="edge"><title>28 &#45; Port_Input&#45;&gt;46 &#45; __Block_Inport__</title>
<path fill="none" stroke="black" d="M1202.7,-1036.33C1200.39,-1028.18 1197.62,-1018.44 1195.07,-1009.42"/>
<polygon fill="black" stroke="black" points="1198.39,-1008.33 1192.3,-999.667 1191.66,-1010.24 1198.39,-1008.33"/>
</g>
<!-- 29 &#45; Port_Input -->
<g id="node30" class="node"><title>29 &#45; Port_Input</title>
<ellipse fill="lightyellow" stroke="black" cx="411" cy="-981" rx="85.0596" ry="18.3848"/>
<text text-anchor="middle" x="411" y="-977.4" font-family="Times Roman,serif" font-size="14.00">29 &#45; Port_Input</text>
</g>
<!-- 47 &#45; __Block_Inport__ -->
<g id="node48" class="node"><title>47 &#45; __Block_Inport__</title>
<ellipse fill="#b94a62" stroke="black" cx="411" cy="-759" rx="118.794" ry="18.3848"/>
<text text-anchor="middle" x="411" y="-755.4" font-family="Times Roman,serif" font-size="14.00">47 &#45; __Block_Inport__</text>
</g>
<!-- 29 &#45; Port_Input&#45;&gt;47 &#45; __Block_Inport__ -->
<g id="edge120" class="edge"><title>29 &#45; Port_Input&#45;&gt;47 &#45; __Block_Inport__</title>
<path fill="none" stroke="black" d="M411,-962.454C411,-923.768 411,-834.22 411,-787.906"/>
<polygon fill="black" stroke="black" points="414.5,-787.649 411,-777.649 407.5,-787.649 414.5,-787.649"/>
</g>
<!-- 30 &#45; Port_Input -->
<g id="node31" class="node"><title>30 &#45; Port_Input</title>
<ellipse fill="lightyellow" stroke="black" cx="812" cy="-1523" rx="84.8528" ry="18.3848"/>
<text text-anchor="middle" x="812" y="-1519.4" font-family="Times Roman,serif" font-size="14.00">30 &#45; Port_Input</text>
</g>
<!-- 48 &#45; __Block_Inport__ -->
<g id="node49" class="node"><title>48 &#45; __Block_Inport__</title>
<ellipse fill="#b94a62" stroke="black" cx="679" cy="-1277" rx="118.087" ry="18.3848"/>
<text text-anchor="middle" x="679" y="-1273.4" font-family="Times Roman,serif" font-size="14.00">48 &#45; __Block_Inport__</text>
</g>
<!-- 30 &#45; Port_Input&#45;&gt;48 &#45; __Block_Inport__ -->
<g id="edge124" class="edge"><title>30 &#45; Port_Input&#45;&gt;48 &#45; __Block_Inport__</title>
<path fill="none" stroke="black" d="M810.609,-1504.45C808.62,-1485.14 803.909,-1454.37 793,-1430 770.853,-1380.53 730.448,-1331.8 704.171,-1303.07"/>
<polygon fill="black" stroke="black" points="706.527,-1300.46 697.16,-1295.51 701.395,-1305.22 706.527,-1300.46"/>
</g>
<!-- 31 &#45; Port_Input -->
<g id="node32" class="node"><title>31 &#45; Port_Input</title>
<ellipse fill="lightyellow" stroke="black" cx="810" cy="-611" rx="85.7684" ry="18.3848"/>
<text text-anchor="middle" x="810" y="-607.4" font-family="Times Roman,serif" font-size="14.00">31 &#45; Port_Input</text>
</g>
<!-- 49 &#45; __Block_Inport__ -->
<g id="node50" class="node"><title>49 &#45; __Block_Inport__</title>
<ellipse fill="#b94a62" stroke="black" cx="776" cy="-537" rx="118.087" ry="18.3848"/>
<text text-anchor="middle" x="776" y="-533.4" font-family="Times Roman,serif" font-size="14.00">49 &#45; __Block_Inport__</text>
</g>
<!-- 31 &#45; Port_Input&#45;&gt;49 &#45; __Block_Inport__ -->
<g id="edge128" class="edge"><title>31 &#45; Port_Input&#45;&gt;49 &#45; __Block_Inport__</title>
<path fill="none" stroke="black" d="M801.42,-592.327C797.595,-584.001 793.009,-574.019 788.791,-564.84"/>
<polygon fill="black" stroke="black" points="791.932,-563.293 784.577,-555.667 785.572,-566.215 791.932,-563.293"/>
</g>
<!-- 32 &#45; Port_Input -->
<g id="node33" class="node"><title>32 &#45; Port_Input</title>
<ellipse fill="lightyellow" stroke="black" cx="1499" cy="-1523" rx="85.0596" ry="18.3848"/>
<text text-anchor="middle" x="1499" y="-1519.4" font-family="Times Roman,serif" font-size="14.00">32 &#45; Port_Input</text>
</g>
<!-- 50 &#45; __Block_Inport__ -->
<g id="node51" class="node"><title>50 &#45; __Block_Inport__</title>
<ellipse fill="#b94a62" stroke="black" cx="1489" cy="-1449" rx="118.087" ry="18.3848"/>
<text text-anchor="middle" x="1489" y="-1445.4" font-family="Times Roman,serif" font-size="14.00">50 &#45; __Block_Inport__</text>
</g>
<!-- 32 &#45; Port_Input&#45;&gt;50 &#45; __Block_Inport__ -->
<g id="edge132" class="edge"><title>32 &#45; Port_Input&#45;&gt;50 &#45; __Block_Inport__</title>
<path fill="none" stroke="black" d="M1496.48,-1504.33C1495.39,-1496.26 1494.09,-1486.65 1492.88,-1477.71"/>
<polygon fill="black" stroke="black" points="1496.33,-1477.11 1491.52,-1467.67 1489.39,-1478.05 1496.33,-1477.11"/>
</g>
<!-- 33 &#45; Port_Input -->
<g id="node34" class="node"><title>33 &#45; Port_Input</title>
<ellipse fill="lightyellow" stroke="black" cx="400" cy="-1523" rx="84.8528" ry="18.3848"/>
<text text-anchor="middle" x="400" y="-1519.4" font-family="Times Roman,serif" font-size="14.00">33 &#45; Port_Input</text>
</g>
<!-- 51 &#45; __Block_Inport__ -->
<g id="node52" class="node"><title>51 &#45; __Block_Inport__</title>
<ellipse fill="#b94a62" stroke="black" cx="411" cy="-1449" rx="118.794" ry="18.3848"/>
<text text-anchor="middle" x="411" y="-1445.4" font-family="Times Roman,serif" font-size="14.00">51 &#45; __Block_Inport__</text>
</g>
<!-- 33 &#45; Port_Input&#45;&gt;51 &#45; __Block_Inport__ -->
<g id="edge136" class="edge"><title>33 &#45; Port_Input&#45;&gt;51 &#45; __Block_Inport__</title>
<path fill="none" stroke="black" d="M402.776,-1504.33C403.974,-1496.26 405.404,-1486.65 406.732,-1477.71"/>
<polygon fill="black" stroke="black" points="410.217,-1478.07 408.225,-1467.67 403.293,-1477.04 410.217,-1478.07"/>
</g>
<!-- 34 &#45; Port_Input -->
<g id="node35" class="node"><title>34 &#45; Port_Input</title>
<ellipse fill="lightyellow" stroke="black" cx="612" cy="-1523" rx="85.0596" ry="18.3848"/>
<text text-anchor="middle" x="612" y="-1519.4" font-family="Times Roman,serif" font-size="14.00">34 &#45; Port_Input</text>
</g>
<!-- 52 &#45; __Block_Inport__ -->
<g id="node53" class="node"><title>52 &#45; __Block_Inport__</title>
<ellipse fill="#b94a62" stroke="black" cx="666" cy="-1449" rx="118.087" ry="18.3848"/>
<text text-anchor="middle" x="666" y="-1445.4" font-family="Times Roman,serif" font-size="14.00">52 &#45; __Block_Inport__</text>
</g>
<!-- 34 &#45; Port_Input&#45;&gt;52 &#45; __Block_Inport__ -->
<g id="edge140" class="edge"><title>34 &#45; Port_Input&#45;&gt;52 &#45; __Block_Inport__</title>
<path fill="none" stroke="black" d="M625.348,-1504.71C631.726,-1495.97 639.482,-1485.34 646.503,-1475.72"/>
<polygon fill="black" stroke="black" points="649.363,-1477.74 652.43,-1467.6 643.708,-1473.61 649.363,-1477.74"/>
</g>
<!-- 35 &#45; __Contains__&#45;&gt;0 &#45; Outport -->
<g id="edge36" class="edge"><title>35 &#45; __Contains__&#45;&gt;0 &#45; Outport</title>
<path fill="none" stroke="black" d="M100.036,-888.316C101.501,-860.25 104,-805.533 104,-759 104,-759 104,-759 104,-167 104,-124.313 107.53,-111.459 128,-74 133.94,-63.129 142.509,-52.7424 150.931,-43.9813"/>
<polygon fill="black" stroke="black" points="153.602,-46.2618 158.226,-36.7293 148.667,-41.2976 153.602,-46.2618"/>
</g>
<!-- 36 &#45; __Contains__&#45;&gt;4 &#45; Product -->
<g id="edge40" class="edge"><title>36 &#45; __Contains__&#45;&gt;4 &#45; Product</title>
<path fill="none" stroke="black" d="M938.807,-1344.28C938.517,-1314.41 938,-1254.11 938,-1203 938,-1203 938,-1203 938,-1055 938,-1011.49 956.357,-963.888 969.878,-934.73"/>
<polygon fill="black" stroke="black" points="973.096,-936.114 974.245,-925.581 966.778,-933.098 973.096,-936.114"/>
</g>
<!-- 37 &#45; __Contains__&#45;&gt;6 &#45; Constant\n Value = 12.34 -->
<g id="edge44" class="edge"><title>37 &#45; __Contains__&#45;&gt;6 &#45; Constant\n Value = 12.34</title>
<path fill="none" stroke="black" d="M1460.45,-1898.34C1466.57,-1889.85 1474.06,-1879.47 1481.3,-1869.43"/>
<polygon fill="black" stroke="black" points="1484.28,-1871.28 1487.29,-1861.12 1478.6,-1867.19 1484.28,-1871.28"/>
</g>
<!-- 38 &#45; __Contains__&#45;&gt;1 &#45; Switch -->
<g id="edge48" class="edge"><title>38 &#45; __Contains__&#45;&gt;1 &#45; Switch</title>
<path fill="none" stroke="black" d="M243.937,-814.408C249.502,-786.458 259,-731.889 259,-685 259,-685 259,-685 259,-611 259,-550.354 321.881,-506.495 366.754,-482.918"/>
<polygon fill="black" stroke="black" points="368.426,-485.994 375.746,-478.335 365.247,-479.758 368.426,-485.994"/>
</g>
<!-- 39 &#45; __Contains__&#45;&gt;2 &#45; Gain\n Gain = 5.0 -->
<g id="edge52" class="edge"><title>39 &#45; __Contains__&#45;&gt;2 &#45; Gain\n Gain = 5.0</title>
<path fill="none" stroke="black" d="M1329.28,-1726.34C1332.5,-1698.31 1338,-1643.64 1338,-1597 1338,-1597 1338,-1597 1338,-1523 1338,-1482.57 1341.22,-1436.5 1344.01,-1404.21"/>
<polygon fill="black" stroke="black" points="1347.49,-1404.51 1344.89,-1394.24 1340.52,-1403.89 1347.49,-1404.51"/>
</g>
<!-- 40 &#45; __Contains__&#45;&gt;5 &#45; Product -->
<g id="edge56" class="edge"><title>40 &#45; __Contains__&#45;&gt;5 &#45; Product</title>
<path fill="none" stroke="black" d="M335.352,-1812.7C308.99,-1784.78 264,-1728.69 264,-1671 264,-1671 264,-1671 264,-1523 264,-1480.81 257.635,-1463.71 283,-1430 300.718,-1406.45 329.134,-1390.41 354.696,-1379.94"/>
<polygon fill="black" stroke="black" points="356.273,-1383.08 364.325,-1376.19 353.736,-1376.55 356.273,-1383.08"/>
</g>
<!-- 41 &#45; __Contains__&#45;&gt;7 &#45; Constant\n Value = 7.12 -->
<g id="edge60" class="edge"><title>41 &#45; __Contains__&#45;&gt;7 &#45; Constant\n Value = 7.12</title>
<path fill="none" stroke="black" d="M1062.39,-1898.34C1063.37,-1890.66 1064.55,-1881.43 1065.72,-1872.31"/>
<polygon fill="black" stroke="black" points="1069.22,-1872.5 1067.02,-1862.14 1062.28,-1871.61 1069.22,-1872.5"/>
</g>
<!-- 42 &#45; __Contains__&#45;&gt;8 &#45; Constant\n Value = 124.5 -->
<g id="edge64" class="edge"><title>42 &#45; __Contains__&#45;&gt;8 &#45; Constant\n Value = 124.5</title>
<path fill="none" stroke="black" d="M558,-1898.34C558,-1890.66 558,-1881.43 558,-1872.31"/>
<polygon fill="black" stroke="black" points="561.5,-1872.14 558,-1862.14 554.5,-1872.14 561.5,-1872.14"/>
</g>
<!-- 43 &#45; __Contains__&#45;&gt;9 &#45; Constant\n Value = 2.0 -->
<g id="edge68" class="edge"><title>43 &#45; __Contains__&#45;&gt;9 &#45; Constant\n Value = 2.0</title>
<path fill="none" stroke="black" d="M775,-1898.34C775,-1890.66 775,-1881.43 775,-1872.31"/>
<polygon fill="black" stroke="black" points="778.5,-1872.14 775,-1862.14 771.5,-1872.14 778.5,-1872.14"/>
</g>
<!-- 44 &#45; __Block_Inport__&#45;&gt;0 &#45; Outport -->
<g id="edge106" class="edge"><title>44 &#45; __Block_Inport__&#45;&gt;0 &#45; Outport</title>
<path fill="none" stroke="black" d="M236.213,-74.7079C226.663,-65.4089 214.916,-53.9706 204.556,-43.8831"/>
<polygon fill="black" stroke="black" points="206.915,-41.2949 197.308,-36.8264 202.031,-46.3102 206.915,-41.2949"/>
</g>
<!-- 45 &#45; __Block_Inport__&#45;&gt;4 &#45; Product -->
<g id="edge110" class="edge"><title>45 &#45; __Block_Inport__&#45;&gt;4 &#45; Product</title>
<path fill="none" stroke="black" d="M1072.28,-1258.17C1056.4,-1230.81 1030,-1177.96 1030,-1129 1030,-1129 1030,-1129 1030,-1055 1030,-1011.49 1011.64,-963.888 998.122,-934.73"/>
<polygon fill="black" stroke="black" points="1001.22,-933.098 993.755,-925.581 994.904,-936.114 1001.22,-933.098"/>
</g>
<!-- 46 &#45; __Block_Inport__&#45;&gt;4 &#45; Product -->
<g id="edge114" class="edge"><title>46 &#45; __Block_Inport__&#45;&gt;4 &#45; Product</title>
<path fill="none" stroke="black" d="M1140.17,-963.93C1108.44,-952.364 1066.56,-937.095 1034.15,-925.282"/>
<polygon fill="black" stroke="black" points="1035.01,-921.871 1024.42,-921.734 1032.62,-928.448 1035.01,-921.871"/>
</g>
<!-- 47 &#45; __Block_Inport__&#45;&gt;1 &#45; Switch -->
<g id="edge118" class="edge"><title>47 &#45; __Block_Inport__&#45;&gt;1 &#45; Switch</title>
<path fill="none" stroke="black" d="M411,-740.484C411,-690.441 411,-552.207 411,-491.837"/>
<polygon fill="black" stroke="black" points="414.5,-491.509 411,-481.509 407.5,-491.509 414.5,-491.509"/>
</g>
<!-- 48 &#45; __Block_Inport__&#45;&gt;1 &#45; Switch -->
<g id="edge122" class="edge"><title>48 &#45; __Block_Inport__&#45;&gt;1 &#45; Switch</title>
<path fill="none" stroke="black" d="M666.632,-1258.26C649.868,-1231.01 622,-1178.29 622,-1129 622,-1129 622,-1129 622,-611 622,-536.354 532.396,-496.146 469.971,-477.191"/>
<polygon fill="black" stroke="black" points="470.785,-473.782 460.204,-474.33 468.816,-480.5 470.785,-473.782"/>
</g>
<!-- 49 &#45; __Block_Inport__&#45;&gt;1 &#45; Switch -->
<g id="edge126" class="edge"><title>49 &#45; __Block_Inport__&#45;&gt;1 &#45; Switch</title>
<path fill="none" stroke="black" d="M703.451,-522.292C635.861,-508.588 536.193,-488.382 472.436,-475.455"/>
<polygon fill="black" stroke="black" points="473.018,-472.002 462.522,-473.446 471.627,-478.863 473.018,-472.002"/>
</g>
<!-- 50 &#45; __Block_Inport__&#45;&gt;2 &#45; Gain\n Gain = 5.0 -->
<g id="edge130" class="edge"><title>50 &#45; __Block_Inport__&#45;&gt;2 &#45; Gain\n Gain = 5.0</title>
<path fill="none" stroke="black" d="M1459.44,-1430.97C1441.49,-1420.02 1418.13,-1405.77 1397.43,-1393.15"/>
<polygon fill="black" stroke="black" points="1399.11,-1390.07 1388.75,-1387.85 1395.46,-1396.05 1399.11,-1390.07"/>
</g>
<!-- 51 &#45; __Block_Inport__&#45;&gt;5 &#45; Product -->
<g id="edge134" class="edge"><title>51 &#45; __Block_Inport__&#45;&gt;5 &#45; Product</title>
<path fill="none" stroke="black" d="M411,-1430.34C411,-1419.07 411,-1404.47 411,-1391.75"/>
<polygon fill="black" stroke="black" points="414.5,-1391.62 411,-1381.62 407.5,-1391.62 414.5,-1391.62"/>
</g>
<!-- 52 &#45; __Block_Inport__&#45;&gt;5 &#45; Product -->
<g id="edge138" class="edge"><title>52 &#45; __Block_Inport__&#45;&gt;5 &#45; Product</title>
<path fill="none" stroke="black" d="M616.228,-1432.21C572.072,-1417.32 507.804,-1395.65 462.991,-1380.53"/>
<polygon fill="black" stroke="black" points="464.05,-1377.2 453.456,-1377.32 461.813,-1383.83 464.05,-1377.2"/>
</g>
<!-- 53 &#45; __Relation__&#45;&gt;29 &#45; Port_Input -->
<g id="edge72" class="edge"><title>53 &#45; __Relation__&#45;&gt;29 &#45; Port_Input</title>
<path fill="none" stroke="black" d="M411,-1036.33C411,-1028.26 411,-1018.65 411,-1009.71"/>
<polygon fill="black" stroke="black" points="414.5,-1009.67 411,-999.667 407.5,-1009.67 414.5,-1009.67"/>
</g>
<!-- 54 &#45; __Relation__&#45;&gt;33 &#45; Port_Input -->
<g id="edge76" class="edge"><title>54 &#45; __Relation__&#45;&gt;33 &#45; Port_Input</title>
<path fill="none" stroke="black" d="M391.776,-1578.33C392.974,-1570.26 394.404,-1560.65 395.732,-1551.71"/>
<polygon fill="black" stroke="black" points="399.217,-1552.07 397.225,-1541.67 392.293,-1551.04 399.217,-1552.07"/>
</g>
<!-- 55 &#45; __Relation__&#45;&gt;30 &#45; Port_Input -->
<g id="edge80" class="edge"><title>55 &#45; __Relation__&#45;&gt;30 &#45; Port_Input</title>
<path fill="none" stroke="black" d="M812.748,-1578.33C812.639,-1570.26 812.509,-1560.65 812.388,-1551.71"/>
<polygon fill="black" stroke="black" points="815.887,-1551.62 812.252,-1541.67 808.888,-1551.71 815.887,-1551.62"/>
</g>
<!-- 56 &#45; __Relation__&#45;&gt;34 &#45; Port_Input -->
<g id="edge84" class="edge"><title>56 &#45; __Relation__&#45;&gt;34 &#45; Port_Input</title>
<path fill="none" stroke="black" d="M603.776,-1578.33C604.974,-1570.26 606.404,-1560.65 607.732,-1551.71"/>
<polygon fill="black" stroke="black" points="611.217,-1552.07 609.225,-1541.67 604.293,-1551.04 611.217,-1552.07"/>
</g>
<!-- 57 &#45; __Relation__&#45;&gt;31 &#45; Port_Input -->
<g id="edge88" class="edge"><title>57 &#45; __Relation__&#45;&gt;31 &#45; Port_Input</title>
<path fill="none" stroke="black" d="M860.438,-666.708C852.305,-657.725 842.363,-646.745 833.463,-636.915"/>
<polygon fill="black" stroke="black" points="835.91,-634.402 826.603,-629.338 830.721,-639.1 835.91,-634.402"/>
</g>
<!-- 58 &#45; __Relation__&#45;&gt;26 &#45; Port_Input -->
<g id="edge92" class="edge"><title>58 &#45; __Relation__&#45;&gt;26 &#45; Port_Input</title>
<path fill="none" stroke="black" d="M280.701,-222.327C278.388,-214.176 275.624,-204.438 273.065,-195.42"/>
<polygon fill="black" stroke="black" points="276.395,-194.332 270.297,-185.667 269.661,-196.243 276.395,-194.332"/>
</g>
<!-- 59 &#45; __Relation__&#45;&gt;28 &#45; Port_Input -->
<g id="edge96" class="edge"><title>59 &#45; __Relation__&#45;&gt;28 &#45; Port_Input</title>
<path fill="none" stroke="black" d="M1240.15,-1110.33C1235.22,-1101.85 1229.3,-1091.65 1223.89,-1082.34"/>
<polygon fill="black" stroke="black" points="1226.75,-1080.3 1218.7,-1073.41 1220.7,-1083.82 1226.75,-1080.3"/>
</g>
<!-- 60 &#45; __Relation__&#45;&gt;32 &#45; Port_Input -->
<g id="edge100" class="edge"><title>60 &#45; __Relation__&#45;&gt;32 &#45; Port_Input</title>
<path fill="none" stroke="black" d="M1513.21,-1578.33C1511.11,-1570.18 1508.61,-1560.44 1506.3,-1551.42"/>
<polygon fill="black" stroke="black" points="1509.67,-1550.48 1503.79,-1541.67 1502.89,-1552.22 1509.67,-1550.48"/>
</g>
<!-- 61 &#45; __Relation__&#45;&gt;27 &#45; Port_Input -->
<g id="edge104" class="edge"><title>61 &#45; __Relation__&#45;&gt;27 &#45; Port_Input</title>
<path fill="none" stroke="black" d="M1084,-1504.33C1084,-1496.26 1084,-1486.65 1084,-1477.71"/>
<polygon fill="black" stroke="black" points="1087.5,-1477.67 1084,-1467.67 1080.5,-1477.67 1087.5,-1477.67"/>
</g>
</g>
</svg>
