<?xml version="1.0" encoding="UTF-8" standalone="no"?>
<!DOCTYPE svg PUBLIC "-//W3C//DTD SVG 1.1//EN"
 "http://www.w3.org/Graphics/SVG/1.1/DTD/svg11.dtd">
<!-- Generated by graphviz version 2.26.3 (20100126.1600)
 -->
<!-- Title: HConstfolding_opt Pages: 1 -->
<svg width="2838pt" height="514pt"
 viewBox="0.00 0.00 2838.00 514.00" xmlns="http://www.w3.org/2000/svg" xmlns:xlink="http://www.w3.org/1999/xlink">
<g id="graph1" class="graph" transform="scale(1 1) rotate(0) translate(4 510)">
<title>HConstfolding_opt</title>
<polygon fill="white" stroke="white" points="-4,5 -4,-510 2835,-510 2835,5 -4,5"/>
<!-- 0 &#45; Outport -->
<g id="node1" class="node"><title>0 &#45; Outport</title>
<ellipse fill="#eedd82" stroke="black" cx="245" cy="-327" rx="67.1751" ry="18.3848"/>
<text text-anchor="middle" x="245" y="-323.4" font-family="Times Roman,serif" font-size="14.00">0 &#45; Outport</text>
</g>
<!-- 31 &#45; __Block_Inport__ -->
<g id="node32" class="node"><title>31 &#45; __Block_Inport__</title>
<ellipse fill="#b94a62" stroke="black" cx="118" cy="-167" rx="118.087" ry="18.3848"/>
<text text-anchor="middle" x="118" y="-163.4" font-family="Times Roman,serif" font-size="14.00">31 &#45; __Block_Inport__</text>
</g>
<!-- 0 &#45; Outport&#45;&gt;31 &#45; __Block_Inport__ -->
<g id="edge76" class="edge"><title>0 &#45; Outport&#45;&gt;31 &#45; __Block_Inport__</title>
<path fill="none" stroke="black" d="M230.431,-308.646C208.063,-280.465 165.14,-226.389 139.285,-193.816"/>
<polygon fill="black" stroke="black" points="141.748,-191.289 132.79,-185.633 136.266,-195.641 141.748,-191.289"/>
</g>
<!-- 1 &#45; Product -->
<g id="node2" class="node"><title>1 &#45; Product</title>
<ellipse fill="lightblue" stroke="black" cx="1218" cy="-327" rx="67.1751" ry="18.3848"/>
<text text-anchor="middle" x="1218" y="-323.4" font-family="Times Roman,serif" font-size="14.00">1 &#45; Product</text>
</g>
<!-- 32 &#45; __Block_Inport__ -->
<g id="node33" class="node"><title>32 &#45; __Block_Inport__</title>
<ellipse fill="#b94a62" stroke="black" cx="1223" cy="-93" rx="118.087" ry="18.3848"/>
<text text-anchor="middle" x="1223" y="-89.4" font-family="Times Roman,serif" font-size="14.00">32 &#45; __Block_Inport__</text>
</g>
<!-- 1 &#45; Product&#45;&gt;32 &#45; __Block_Inport__ -->
<g id="edge78" class="edge"><title>1 &#45; Product&#45;&gt;32 &#45; __Block_Inport__</title>
<path fill="none" stroke="black" d="M1216.23,-308.249C1215.05,-294.827 1213.61,-276.319 1213,-260 1211.19,-211.497 1216.01,-155.156 1219.57,-121.878"/>
<polygon fill="black" stroke="black" points="1223.09,-121.846 1220.71,-111.521 1216.13,-121.075 1223.09,-121.846"/>
</g>
<!-- 33 &#45; __Block_Inport__ -->
<g id="node34" class="node"><title>33 &#45; __Block_Inport__</title>
<ellipse fill="#b94a62" stroke="black" cx="1339" cy="-241" rx="116.88" ry="18.3848"/>
<text text-anchor="middle" x="1339" y="-237.4" font-family="Times Roman,serif" font-size="14.00">33 &#45; __Block_Inport__</text>
</g>
<!-- 1 &#45; Product&#45;&gt;33 &#45; __Block_Inport__ -->
<g id="edge80" class="edge"><title>1 &#45; Product&#45;&gt;33 &#45; __Block_Inport__</title>
<path fill="none" stroke="black" d="M1242.49,-309.597C1260.49,-296.799 1285.19,-279.245 1305.09,-265.098"/>
<polygon fill="black" stroke="black" points="1307.17,-267.914 1313.3,-259.268 1303.12,-262.208 1307.17,-267.914"/>
</g>
<!-- 34 &#45; __Block_Outport__ -->
<g id="node35" class="node"><title>34 &#45; __Block_Outport__</title>
<ellipse fill="#b94a62" stroke="black" cx="1040" cy="-241" rx="126.072" ry="18.3848"/>
<text text-anchor="middle" x="1040" y="-237.4" font-family="Times Roman,serif" font-size="14.00">34 &#45; __Block_Outport__</text>
</g>
<!-- 1 &#45; Product&#45;&gt;34 &#45; __Block_Outport__ -->
<g id="edge2" class="edge"><title>1 &#45; Product&#45;&gt;34 &#45; __Block_Outport__</title>
<path fill="none" stroke="black" d="M1184.52,-310.824C1156.68,-297.375 1116.78,-278.097 1085.96,-263.204"/>
<polygon fill="black" stroke="black" points="1087.23,-259.933 1076.7,-258.734 1084.19,-266.236 1087.23,-259.933"/>
</g>
<!-- 2 &#45; SubSystem -->
<g id="node3" class="node"><title>2 &#45; SubSystem</title>
<ellipse fill="lightgreen" stroke="black" cx="1445" cy="-487" rx="84.8528" ry="18.3848"/>
<text text-anchor="middle" x="1445" y="-483.4" font-family="Times Roman,serif" font-size="14.00">2 &#45; SubSystem</text>
</g>
<!-- 21 &#45; __Contains__ -->
<g id="node22" class="node"><title>21 &#45; __Contains__</title>
<ellipse fill="lightgray" stroke="black" cx="1060" cy="-413" rx="99.9096" ry="18.3848"/>
<text text-anchor="middle" x="1060" y="-409.4" font-family="Times Roman,serif" font-size="14.00">21 &#45; __Contains__</text>
</g>
<!-- 2 &#45; SubSystem&#45;&gt;21 &#45; __Contains__ -->
<g id="edge18" class="edge"><title>2 &#45; SubSystem&#45;&gt;21 &#45; __Contains__</title>
<path fill="none" stroke="black" d="M1380.99,-474.697C1314.62,-461.94 1210.75,-441.975 1139.24,-428.23"/>
<polygon fill="black" stroke="black" points="1139.85,-424.784 1129.37,-426.333 1138.53,-431.658 1139.85,-424.784"/>
</g>
<!-- 22 &#45; __Contains__ -->
<g id="node23" class="node"><title>22 &#45; __Contains__</title>
<ellipse fill="lightgray" stroke="black" cx="408" cy="-413" rx="99.201" ry="18.3848"/>
<text text-anchor="middle" x="408" y="-409.4" font-family="Times Roman,serif" font-size="14.00">22 &#45; __Contains__</text>
</g>
<!-- 2 &#45; SubSystem&#45;&gt;22 &#45; __Contains__ -->
<g id="edge16" class="edge"><title>2 &#45; SubSystem&#45;&gt;22 &#45; __Contains__</title>
<path fill="none" stroke="black" d="M1363.83,-481.42C1221.63,-471.618 918.201,-450.58 662,-432 611.973,-428.372 556.414,-424.229 510.045,-420.739"/>
<polygon fill="black" stroke="black" points="510.227,-417.243 499.992,-419.982 509.701,-424.224 510.227,-417.243"/>
</g>
<!-- 23 &#45; __Contains__ -->
<g id="node24" class="node"><title>23 &#45; __Contains__</title>
<ellipse fill="lightgray" stroke="black" cx="1313" cy="-413" rx="98.9949" ry="18.3848"/>
<text text-anchor="middle" x="1313" y="-409.4" font-family="Times Roman,serif" font-size="14.00">23 &#45; __Contains__</text>
</g>
<!-- 2 &#45; SubSystem&#45;&gt;23 &#45; __Contains__ -->
<g id="edge14" class="edge"><title>2 &#45; SubSystem&#45;&gt;23 &#45; __Contains__</title>
<path fill="none" stroke="black" d="M1414.05,-469.65C1396.03,-459.546 1373.09,-446.686 1353.62,-435.774"/>
<polygon fill="black" stroke="black" points="1355.11,-432.592 1344.67,-430.755 1351.68,-438.698 1355.11,-432.592"/>
</g>
<!-- 24 &#45; __Contains__ -->
<g id="node25" class="node"><title>24 &#45; __Contains__</title>
<ellipse fill="lightgray" stroke="black" cx="770" cy="-413" rx="99.201" ry="18.3848"/>
<text text-anchor="middle" x="770" y="-409.4" font-family="Times Roman,serif" font-size="14.00">24 &#45; __Contains__</text>
</g>
<!-- 2 &#45; SubSystem&#45;&gt;24 &#45; __Contains__ -->
<g id="edge12" class="edge"><title>2 &#45; SubSystem&#45;&gt;24 &#45; __Contains__</title>
<path fill="none" stroke="black" d="M1368.88,-478.655C1245.18,-465.094 1000.78,-438.3 865.574,-423.478"/>
<polygon fill="black" stroke="black" points="865.954,-419.998 855.632,-422.388 865.191,-426.957 865.954,-419.998"/>
</g>
<!-- 25 &#45; __Contains__ -->
<g id="node26" class="node"><title>25 &#45; __Contains__</title>
<ellipse fill="lightgray" stroke="black" cx="2501" cy="-413" rx="99.201" ry="18.3848"/>
<text text-anchor="middle" x="2501" y="-409.4" font-family="Times Roman,serif" font-size="14.00">25 &#45; __Contains__</text>
</g>
<!-- 2 &#45; SubSystem&#45;&gt;25 &#45; __Contains__ -->
<g id="edge10" class="edge"><title>2 &#45; SubSystem&#45;&gt;25 &#45; __Contains__</title>
<path fill="none" stroke="black" d="M1527.51,-482.372C1679.17,-473.704 2012.44,-453.909 2293,-432 2328.86,-429.199 2368.17,-425.716 2402.86,-422.5"/>
<polygon fill="black" stroke="black" points="2403.36,-425.968 2412.99,-421.556 2402.71,-418.999 2403.36,-425.968"/>
</g>
<!-- 26 &#45; __Contains__ -->
<g id="node27" class="node"><title>26 &#45; __Contains__</title>
<ellipse fill="lightgray" stroke="black" cx="1863" cy="-413" rx="98.9949" ry="18.3848"/>
<text text-anchor="middle" x="1863" y="-409.4" font-family="Times Roman,serif" font-size="14.00">26 &#45; __Contains__</text>
</g>
<!-- 2 &#45; SubSystem&#45;&gt;26 &#45; __Contains__ -->
<g id="edge8" class="edge"><title>2 &#45; SubSystem&#45;&gt;26 &#45; __Contains__</title>
<path fill="none" stroke="black" d="M1511.23,-475.274C1584.42,-462.319 1702.33,-441.443 1781.22,-427.478"/>
<polygon fill="black" stroke="black" points="1781.89,-430.915 1791.12,-425.725 1780.66,-424.022 1781.89,-430.915"/>
</g>
<!-- 27 &#45; __Contains__ -->
<g id="node28" class="node"><title>27 &#45; __Contains__</title>
<ellipse fill="lightgray" stroke="black" cx="2184" cy="-413" rx="99.9096" ry="18.3848"/>
<text text-anchor="middle" x="2184" y="-409.4" font-family="Times Roman,serif" font-size="14.00">27 &#45; __Contains__</text>
</g>
<!-- 2 &#45; SubSystem&#45;&gt;27 &#45; __Contains__ -->
<g id="edge6" class="edge"><title>2 &#45; SubSystem&#45;&gt;27 &#45; __Contains__</title>
<path fill="none" stroke="black" d="M1522.34,-479.255C1657.66,-465.705 1937.1,-437.724 2085.84,-422.83"/>
<polygon fill="black" stroke="black" points="2086.28,-426.303 2095.88,-421.824 2085.58,-419.338 2086.28,-426.303"/>
</g>
<!-- 28 &#45; __Contains__ -->
<g id="node29" class="node"><title>28 &#45; __Contains__</title>
<ellipse fill="lightgray" stroke="black" cx="1577" cy="-413" rx="98.9949" ry="18.3848"/>
<text text-anchor="middle" x="1577" y="-409.4" font-family="Times Roman,serif" font-size="14.00">28 &#45; __Contains__</text>
</g>
<!-- 2 &#45; SubSystem&#45;&gt;28 &#45; __Contains__ -->
<g id="edge4" class="edge"><title>2 &#45; SubSystem&#45;&gt;28 &#45; __Contains__</title>
<path fill="none" stroke="black" d="M1475.95,-469.65C1493.97,-459.546 1516.91,-446.686 1536.38,-435.774"/>
<polygon fill="black" stroke="black" points="1538.32,-438.698 1545.33,-430.755 1534.89,-432.592 1538.32,-438.698"/>
</g>
<!-- 3 &#45; UnitDelay -->
<g id="node4" class="node"><title>3 &#45; UnitDelay</title>
<ellipse fill="lightblue" stroke="black" cx="1910" cy="-327" rx="77.7817" ry="18.3848"/>
<text text-anchor="middle" x="1910" y="-323.4" font-family="Times Roman,serif" font-size="14.00">3 &#45; UnitDelay</text>
</g>
<!-- 38 &#45; __Block_Inport__ -->
<g id="node39" class="node"><title>38 &#45; __Block_Inport__</title>
<ellipse fill="#b94a62" stroke="black" cx="2171" cy="-241" rx="116.88" ry="18.3848"/>
<text text-anchor="middle" x="2171" y="-237.4" font-family="Times Roman,serif" font-size="14.00">38 &#45; __Block_Inport__</text>
</g>
<!-- 3 &#45; UnitDelay&#45;&gt;38 &#45; __Block_Inport__ -->
<g id="edge90" class="edge"><title>3 &#45; UnitDelay&#45;&gt;38 &#45; __Block_Inport__</title>
<path fill="none" stroke="black" d="M1955.76,-311.922C1998.85,-297.725 2063.64,-276.375 2110.88,-260.81"/>
<polygon fill="black" stroke="black" points="2111.98,-264.133 2120.38,-257.679 2109.79,-257.485 2111.98,-264.133"/>
</g>
<!-- 39 &#45; __Block_Outport__ -->
<g id="node40" class="node"><title>39 &#45; __Block_Outport__</title>
<ellipse fill="#b94a62" stroke="black" cx="1910" cy="-241" rx="126.072" ry="18.3848"/>
<text text-anchor="middle" x="1910" y="-237.4" font-family="Times Roman,serif" font-size="14.00">39 &#45; __Block_Outport__</text>
</g>
<!-- 3 &#45; UnitDelay&#45;&gt;39 &#45; __Block_Outport__ -->
<g id="edge20" class="edge"><title>3 &#45; UnitDelay&#45;&gt;39 &#45; __Block_Outport__</title>
<path fill="none" stroke="black" d="M1910,-308.339C1910,-297.07 1910,-282.474 1910,-269.754"/>
<polygon fill="black" stroke="black" points="1913.5,-269.624 1910,-259.624 1906.5,-269.624 1913.5,-269.624"/>
</g>
<!-- 4 &#45; UnitDelay -->
<g id="node5" class="node"><title>4 &#45; UnitDelay</title>
<ellipse fill="lightblue" stroke="black" cx="1601" cy="-327" rx="77.7817" ry="18.3848"/>
<text text-anchor="middle" x="1601" y="-323.4" font-family="Times Roman,serif" font-size="14.00">4 &#45; UnitDelay</text>
</g>
<!-- 41 &#45; __Block_Inport__ -->
<g id="node42" class="node"><title>41 &#45; __Block_Inport__</title>
<ellipse fill="#b94a62" stroke="black" cx="1755" cy="-167" rx="118.794" ry="18.3848"/>
<text text-anchor="middle" x="1755" y="-163.4" font-family="Times Roman,serif" font-size="14.00">41 &#45; __Block_Inport__</text>
</g>
<!-- 4 &#45; UnitDelay&#45;&gt;41 &#45; __Block_Inport__ -->
<g id="edge96" class="edge"><title>4 &#45; UnitDelay&#45;&gt;41 &#45; __Block_Inport__</title>
<path fill="none" stroke="black" d="M1654.34,-313.346C1683.08,-303.265 1716.71,-286.568 1737,-260 1750.96,-241.719 1755.04,-215.654 1755.87,-195.767"/>
<polygon fill="black" stroke="black" points="1759.37,-195.782 1756.04,-185.724 1752.37,-195.663 1759.37,-195.782"/>
</g>
<!-- 42 &#45; __Block_Outport__ -->
<g id="node43" class="node"><title>42 &#45; __Block_Outport__</title>
<ellipse fill="#b94a62" stroke="black" cx="1601" cy="-241" rx="126.78" ry="18.3848"/>
<text text-anchor="middle" x="1601" y="-237.4" font-family="Times Roman,serif" font-size="14.00">42 &#45; __Block_Outport__</text>
</g>
<!-- 4 &#45; UnitDelay&#45;&gt;42 &#45; __Block_Outport__ -->
<g id="edge22" class="edge"><title>4 &#45; UnitDelay&#45;&gt;42 &#45; __Block_Outport__</title>
<path fill="none" stroke="black" d="M1601,-308.339C1601,-297.07 1601,-282.474 1601,-269.754"/>
<polygon fill="black" stroke="black" points="1604.5,-269.624 1601,-259.624 1597.5,-269.624 1604.5,-269.624"/>
</g>
<!-- 5 &#45; Gain\n Gain = 1.0 -->
<g id="node6" class="node"><title>5 &#45; Gain\n Gain = 1.0</title>
<ellipse fill="lightblue" stroke="black" cx="840" cy="-327" rx="68.0887" ry="31.1127"/>
<text text-anchor="middle" x="840" y="-332.4" font-family="Times Roman,serif" font-size="14.00">5 &#45; Gain</text>
<text text-anchor="middle" x="840" y="-314.4" font-family="Times Roman,serif" font-size="14.00"> Gain = 1.0</text>
</g>
<!-- 29 &#45; __Block_Inport__ -->
<g id="node30" class="node"><title>29 &#45; __Block_Inport__</title>
<ellipse fill="#b94a62" stroke="black" cx="840" cy="-167" rx="118.087" ry="18.3848"/>
<text text-anchor="middle" x="840" y="-163.4" font-family="Times Roman,serif" font-size="14.00">29 &#45; __Block_Inport__</text>
</g>
<!-- 5 &#45; Gain\n Gain = 1.0&#45;&gt;29 &#45; __Block_Inport__ -->
<g id="edge72" class="edge"><title>5 &#45; Gain\n Gain = 1.0&#45;&gt;29 &#45; __Block_Inport__</title>
<path fill="none" stroke="black" d="M840,-295.771C840,-266.74 840,-223.853 840,-195.673"/>
<polygon fill="black" stroke="black" points="843.5,-195.652 840,-185.652 836.5,-195.652 843.5,-195.652"/>
</g>
<!-- 30 &#45; __Block_Outport__ -->
<g id="node31" class="node"><title>30 &#45; __Block_Outport__</title>
<ellipse fill="#b94a62" stroke="black" cx="670" cy="-241" rx="126.072" ry="18.3848"/>
<text text-anchor="middle" x="670" y="-237.4" font-family="Times Roman,serif" font-size="14.00">30 &#45; __Block_Outport__</text>
</g>
<!-- 5 &#45; Gain\n Gain = 1.0&#45;&gt;30 &#45; __Block_Outport__ -->
<g id="edge24" class="edge"><title>5 &#45; Gain\n Gain = 1.0&#45;&gt;30 &#45; __Block_Outport__</title>
<path fill="none" stroke="black" d="M794.443,-303.954C769.588,-291.38 738.952,-275.882 714.296,-263.409"/>
<polygon fill="black" stroke="black" points="715.668,-260.18 705.164,-258.789 712.508,-266.426 715.668,-260.18"/>
</g>
<!-- 6 &#45; Gain\n Gain = 1.0 -->
<g id="node7" class="node"><title>6 &#45; Gain\n Gain = 1.0</title>
<ellipse fill="lightblue" stroke="black" cx="500" cy="-327" rx="68.0887" ry="31.1127"/>
<text text-anchor="middle" x="500" y="-332.4" font-family="Times Roman,serif" font-size="14.00">6 &#45; Gain</text>
<text text-anchor="middle" x="500" y="-314.4" font-family="Times Roman,serif" font-size="14.00"> Gain = 1.0</text>
</g>
<!-- 35 &#45; __Block_Inport__ -->
<g id="node36" class="node"><title>35 &#45; __Block_Inport__</title>
<ellipse fill="#b94a62" stroke="black" cx="491" cy="-93" rx="118.087" ry="18.3848"/>
<text text-anchor="middle" x="491" y="-89.4" font-family="Times Roman,serif" font-size="14.00">35 &#45; __Block_Inport__</text>
</g>
<!-- 6 &#45; Gain\n Gain = 1.0&#45;&gt;35 &#45; __Block_Inport__ -->
<g id="edge84" class="edge"><title>6 &#45; Gain\n Gain = 1.0&#45;&gt;35 &#45; __Block_Inport__</title>
<path fill="none" stroke="black" d="M498.805,-295.927C497.051,-250.331 493.805,-165.931 492.104,-121.717"/>
<polygon fill="black" stroke="black" points="495.599,-121.502 491.717,-111.644 488.604,-121.771 495.599,-121.502"/>
</g>
<!-- 36 &#45; __Block_Outport__ -->
<g id="node37" class="node"><title>36 &#45; __Block_Outport__</title>
<ellipse fill="#b94a62" stroke="black" cx="346" cy="-241" rx="126.072" ry="18.3848"/>
<text text-anchor="middle" x="346" y="-237.4" font-family="Times Roman,serif" font-size="14.00">36 &#45; __Block_Outport__</text>
</g>
<!-- 6 &#45; Gain\n Gain = 1.0&#45;&gt;36 &#45; __Block_Outport__ -->
<g id="edge26" class="edge"><title>6 &#45; Gain\n Gain = 1.0&#45;&gt;36 &#45; __Block_Outport__</title>
<path fill="none" stroke="black" d="M456.693,-302.815C434.897,-290.644 408.614,-275.966 387.129,-263.968"/>
<polygon fill="black" stroke="black" points="388.68,-260.825 378.242,-259.006 385.267,-266.937 388.68,-260.825"/>
</g>
<!-- 7 &#45; Port_Input -->
<g id="node8" class="node"><title>7 &#45; Port_Input</title>
<ellipse fill="lightyellow" stroke="black" cx="923" cy="-19" rx="79.9031" ry="18.3848"/>
<text text-anchor="middle" x="923" y="-15.4" font-family="Times Roman,serif" font-size="14.00">7 &#45; Port_Input</text>
</g>
<!-- 8 &#45; Port_Output -->
<g id="node9" class="node"><title>8 &#45; Port_Output</title>
<ellipse fill="coral" stroke="black" cx="616" cy="-167" rx="87.889" ry="18.3848"/>
<text text-anchor="middle" x="616" y="-163.4" font-family="Times Roman,serif" font-size="14.00">8 &#45; Port_Output</text>
</g>
<!-- 48 &#45; __Relation__ -->
<g id="node49" class="node"><title>48 &#45; __Relation__</title>
<ellipse fill="#f78465" stroke="black" cx="724" cy="-93" rx="96.8736" ry="18.3848"/>
<text text-anchor="middle" x="724" y="-89.4" font-family="Times Roman,serif" font-size="14.00">48 &#45; __Relation__</text>
</g>
<!-- 8 &#45; Port_Output&#45;&gt;48 &#45; __Relation__ -->
<g id="edge30" class="edge"><title>8 &#45; Port_Output&#45;&gt;48 &#45; __Relation__</title>
<path fill="none" stroke="black" d="M641.869,-149.275C656.19,-139.462 674.175,-127.139 689.661,-116.529"/>
<polygon fill="black" stroke="black" points="691.697,-119.376 697.968,-110.837 687.74,-113.602 691.697,-119.376"/>
</g>
<!-- 9 &#45; Port_Input -->
<g id="node10" class="node"><title>9 &#45; Port_Input</title>
<ellipse fill="lightyellow" stroke="black" cx="192" cy="-19" rx="79.196" ry="18.3848"/>
<text text-anchor="middle" x="192" y="-15.4" font-family="Times Roman,serif" font-size="14.00">9 &#45; Port_Input</text>
</g>
<!-- 10 &#45; Port_Input -->
<g id="node11" class="node"><title>10 &#45; Port_Input</title>
<ellipse fill="lightyellow" stroke="black" cx="1359" cy="-19" rx="85.7684" ry="18.3848"/>
<text text-anchor="middle" x="1359" y="-15.4" font-family="Times Roman,serif" font-size="14.00">10 &#45; Port_Input</text>
</g>
<!-- 11 &#45; Port_Input -->
<g id="node12" class="node"><title>11 &#45; Port_Input</title>
<ellipse fill="lightyellow" stroke="black" cx="1718" cy="-19" rx="86.9741" ry="18.3848"/>
<text text-anchor="middle" x="1718" y="-15.4" font-family="Times Roman,serif" font-size="14.00">11 &#45; Port_Input</text>
</g>
<!-- 12 &#45; Port_Output -->
<g id="node13" class="node"><title>12 &#45; Port_Output</title>
<ellipse fill="coral" stroke="black" cx="1071" cy="-167" rx="94.9596" ry="18.3848"/>
<text text-anchor="middle" x="1071" y="-163.4" font-family="Times Roman,serif" font-size="14.00">12 &#45; Port_Output</text>
</g>
<!-- 47 &#45; __Relation__ -->
<g id="node48" class="node"><title>47 &#45; __Relation__</title>
<ellipse fill="#f78465" stroke="black" cx="988" cy="-93" rx="97.0803" ry="18.3848"/>
<text text-anchor="middle" x="988" y="-89.4" font-family="Times Roman,serif" font-size="14.00">47 &#45; __Relation__</text>
</g>
<!-- 12 &#45; Port_Output&#45;&gt;47 &#45; __Relation__ -->
<g id="edge38" class="edge"><title>12 &#45; Port_Output&#45;&gt;47 &#45; __Relation__</title>
<path fill="none" stroke="black" d="M1050.48,-148.708C1040.11,-139.458 1027.36,-128.091 1016.09,-118.042"/>
<polygon fill="black" stroke="black" points="1018.36,-115.381 1008.57,-111.338 1013.7,-120.605 1018.36,-115.381"/>
</g>
<!-- 13 &#45; Port_Input -->
<g id="node14" class="node"><title>13 &#45; Port_Input</title>
<ellipse fill="lightyellow" stroke="black" cx="607" cy="-19" rx="85.7684" ry="18.3848"/>
<text text-anchor="middle" x="607" y="-15.4" font-family="Times Roman,serif" font-size="14.00">13 &#45; Port_Input</text>
</g>
<!-- 14 &#45; Port_Output -->
<g id="node15" class="node"><title>14 &#45; Port_Output</title>
<ellipse fill="coral" stroke="black" cx="349" cy="-167" rx="94.9596" ry="18.3848"/>
<text text-anchor="middle" x="349" y="-163.4" font-family="Times Roman,serif" font-size="14.00">14 &#45; Port_Output</text>
</g>
<!-- 46 &#45; __Relation__ -->
<g id="node47" class="node"><title>46 &#45; __Relation__</title>
<ellipse fill="#f78465" stroke="black" cx="256" cy="-93" rx="96.8736" ry="18.3848"/>
<text text-anchor="middle" x="256" y="-89.4" font-family="Times Roman,serif" font-size="14.00">46 &#45; __Relation__</text>
</g>
<!-- 14 &#45; Port_Output&#45;&gt;46 &#45; __Relation__ -->
<g id="edge42" class="edge"><title>14 &#45; Port_Output&#45;&gt;46 &#45; __Relation__</title>
<path fill="none" stroke="black" d="M326.011,-148.708C314.186,-139.299 299.608,-127.699 286.821,-117.525"/>
<polygon fill="black" stroke="black" points="288.729,-114.569 278.724,-111.082 284.37,-120.047 288.729,-114.569"/>
</g>
<!-- 15 &#45; Port_Output -->
<g id="node16" class="node"><title>15 &#45; Port_Output</title>
<ellipse fill="coral" stroke="black" cx="2662" cy="-167" rx="94.9596" ry="18.3848"/>
<text text-anchor="middle" x="2662" y="-163.4" font-family="Times Roman,serif" font-size="14.00">15 &#45; Port_Output</text>
</g>
<!-- 45 &#45; __Relation__ -->
<g id="node46" class="node"><title>45 &#45; __Relation__</title>
<ellipse fill="#f78465" stroke="black" cx="2596" cy="-93" rx="96.8736" ry="18.3848"/>
<text text-anchor="middle" x="2596" y="-89.4" font-family="Times Roman,serif" font-size="14.00">45 &#45; __Relation__</text>
</g>
<!-- 15 &#45; Port_Output&#45;&gt;45 &#45; __Relation__ -->
<g id="edge44" class="edge"><title>15 &#45; Port_Output&#45;&gt;45 &#45; __Relation__</title>
<path fill="none" stroke="black" d="M2645.69,-148.708C2637.67,-139.725 2627.88,-128.745 2619.11,-118.915"/>
<polygon fill="black" stroke="black" points="2621.62,-116.471 2612.36,-111.338 2616.4,-121.131 2621.62,-116.471"/>
</g>
<!-- 16 &#45; Port_Input -->
<g id="node17" class="node"><title>16 &#45; Port_Input</title>
<ellipse fill="lightyellow" stroke="black" cx="2408" cy="-19" rx="85.7684" ry="18.3848"/>
<text text-anchor="middle" x="2408" y="-15.4" font-family="Times Roman,serif" font-size="14.00">16 &#45; Port_Input</text>
</g>
<!-- 17 &#45; Port_Output -->
<g id="node18" class="node"><title>17 &#45; Port_Output</title>
<ellipse fill="coral" stroke="black" cx="1988" cy="-167" rx="96.1665" ry="18.3848"/>
<text text-anchor="middle" x="1988" y="-163.4" font-family="Times Roman,serif" font-size="14.00">17 &#45; Port_Output</text>
</g>
<!-- 44 &#45; __Relation__ -->
<g id="node45" class="node"><title>44 &#45; __Relation__</title>
<ellipse fill="#f78465" stroke="black" cx="1934" cy="-93" rx="96.8736" ry="18.3848"/>
<text text-anchor="middle" x="1934" y="-89.4" font-family="Times Roman,serif" font-size="14.00">44 &#45; __Relation__</text>
</g>
<!-- 17 &#45; Port_Output&#45;&gt;44 &#45; __Relation__ -->
<g id="edge48" class="edge"><title>17 &#45; Port_Output&#45;&gt;44 &#45; __Relation__</title>
<path fill="none" stroke="black" d="M1974.37,-148.327C1968.06,-139.672 1960.44,-129.229 1953.53,-119.757"/>
<polygon fill="black" stroke="black" points="1956.16,-117.426 1947.44,-111.411 1950.5,-121.552 1956.16,-117.426"/>
</g>
<!-- 18 &#45; Port_Output -->
<g id="node19" class="node"><title>18 &#45; Port_Output</title>
<ellipse fill="coral" stroke="black" cx="2419" cy="-167" rx="94.7523" ry="18.3848"/>
<text text-anchor="middle" x="2419" y="-163.4" font-family="Times Roman,serif" font-size="14.00">18 &#45; Port_Output</text>
</g>
<!-- 43 &#45; __Relation__ -->
<g id="node44" class="node"><title>43 &#45; __Relation__</title>
<ellipse fill="#f78465" stroke="black" cx="2371" cy="-93" rx="96.8736" ry="18.3848"/>
<text text-anchor="middle" x="2371" y="-89.4" font-family="Times Roman,serif" font-size="14.00">43 &#45; __Relation__</text>
</g>
<!-- 18 &#45; Port_Output&#45;&gt;43 &#45; __Relation__ -->
<g id="edge50" class="edge"><title>18 &#45; Port_Output&#45;&gt;43 &#45; __Relation__</title>
<path fill="none" stroke="black" d="M2406.89,-148.327C2401.33,-139.761 2394.64,-129.442 2388.54,-120.047"/>
<polygon fill="black" stroke="black" points="2391.32,-117.896 2382.94,-111.411 2385.45,-121.705 2391.32,-117.896"/>
</g>
<!-- 19 &#45; Port_Input -->
<g id="node20" class="node"><title>19 &#45; Port_Input</title>
<ellipse fill="lightyellow" stroke="black" cx="1997" cy="-19" rx="85.7684" ry="18.3848"/>
<text text-anchor="middle" x="1997" y="-15.4" font-family="Times Roman,serif" font-size="14.00">19 &#45; Port_Input</text>
</g>
<!-- 20 &#45; Port_Output -->
<g id="node21" class="node"><title>20 &#45; Port_Output</title>
<ellipse fill="coral" stroke="black" cx="1505" cy="-167" rx="94.7523" ry="18.3848"/>
<text text-anchor="middle" x="1505" y="-163.4" font-family="Times Roman,serif" font-size="14.00">20 &#45; Port_Output</text>
</g>
<!-- 49 &#45; __Relation__ -->
<g id="node50" class="node"><title>49 &#45; __Relation__</title>
<ellipse fill="#f78465" stroke="black" cx="1496" cy="-93" rx="96.8736" ry="18.3848"/>
<text text-anchor="middle" x="1496" y="-89.4" font-family="Times Roman,serif" font-size="14.00">49 &#45; __Relation__</text>
</g>
<!-- 20 &#45; Port_Output&#45;&gt;49 &#45; __Relation__ -->
<g id="edge54" class="edge"><title>20 &#45; Port_Output&#45;&gt;49 &#45; __Relation__</title>
<path fill="none" stroke="black" d="M1502.73,-148.327C1501.75,-140.264 1500.58,-130.648 1499.49,-121.711"/>
<polygon fill="black" stroke="black" points="1502.95,-121.172 1498.27,-111.667 1496,-122.017 1502.95,-121.172"/>
</g>
<!-- 21 &#45; __Contains__&#45;&gt;5 &#45; Gain\n Gain = 1.0 -->
<g id="edge56" class="edge"><title>21 &#45; __Contains__&#45;&gt;5 &#45; Gain\n Gain = 1.0</title>
<path fill="none" stroke="black" d="M1017.06,-396.214C984.115,-383.336 938.193,-365.385 901.373,-350.991"/>
<polygon fill="black" stroke="black" points="902.324,-347.605 891.736,-347.224 899.775,-354.125 902.324,-347.605"/>
</g>
<!-- 22 &#45; __Contains__&#45;&gt;0 &#45; Outport -->
<g id="edge58" class="edge"><title>22 &#45; __Contains__&#45;&gt;0 &#45; Outport</title>
<path fill="none" stroke="black" d="M374.621,-395.389C348.68,-381.702 312.606,-362.669 285.098,-348.156"/>
<polygon fill="black" stroke="black" points="286.603,-344.993 276.125,-343.422 283.337,-351.184 286.603,-344.993"/>
</g>
<!-- 23 &#45; __Contains__&#45;&gt;1 &#45; Product -->
<g id="edge60" class="edge"><title>23 &#45; __Contains__&#45;&gt;1 &#45; Product</title>
<path fill="none" stroke="black" d="M1292.85,-394.762C1279.03,-382.25 1260.52,-365.494 1245.37,-351.776"/>
<polygon fill="black" stroke="black" points="1247.55,-349.034 1237.79,-344.917 1242.86,-354.223 1247.55,-349.034"/>
</g>
<!-- 24 &#45; __Contains__&#45;&gt;6 &#45; Gain\n Gain = 1.0 -->
<g id="edge62" class="edge"><title>24 &#45; __Contains__&#45;&gt;6 &#45; Gain\n Gain = 1.0</title>
<path fill="none" stroke="black" d="M719.848,-397.026C676.332,-383.165 613.037,-363.004 565.524,-347.871"/>
<polygon fill="black" stroke="black" points="566.531,-344.518 555.94,-344.818 564.406,-351.188 566.531,-344.518"/>
</g>
<!-- 50 &#45; Constant\n Value = 36.6 -->
<g id="node51" class="node"><title>50 &#45; Constant\n Value = 36.6</title>
<ellipse fill="lightblue" stroke="black" cx="2578" cy="-327" rx="79.196" ry="31.1127"/>
<text text-anchor="middle" x="2578" y="-332.4" font-family="Times Roman,serif" font-size="14.00">50 &#45; Constant</text>
<text text-anchor="middle" x="2578" y="-314.4" font-family="Times Roman,serif" font-size="14.00"> Value = 36.6</text>
</g>
<!-- 25 &#45; __Contains__&#45;&gt;50 &#45; Constant\n Value = 36.6 -->
<g id="edge64" class="edge"><title>25 &#45; __Contains__&#45;&gt;50 &#45; Constant\n Value = 36.6</title>
<path fill="none" stroke="black" d="M2517.71,-394.339C2525.68,-385.435 2535.51,-374.454 2544.91,-363.962"/>
<polygon fill="black" stroke="black" points="2547.57,-366.231 2551.64,-356.446 2542.36,-361.561 2547.57,-366.231"/>
</g>
<!-- 26 &#45; __Contains__&#45;&gt;3 &#45; UnitDelay -->
<g id="edge66" class="edge"><title>26 &#45; __Contains__&#45;&gt;3 &#45; UnitDelay</title>
<path fill="none" stroke="black" d="M1873.2,-394.339C1879.54,-382.732 1887.81,-367.596 1894.91,-354.614"/>
<polygon fill="black" stroke="black" points="1898.1,-356.078 1899.82,-345.624 1891.95,-352.721 1898.1,-356.078"/>
</g>
<!-- 51 &#45; Constant\n Value = 16.253 -->
<g id="node52" class="node"><title>51 &#45; Constant\n Value = 16.253</title>
<ellipse fill="lightblue" stroke="black" cx="2265" cy="-327" rx="92.1303" ry="31.1127"/>
<text text-anchor="middle" x="2265" y="-332.4" font-family="Times Roman,serif" font-size="14.00">51 &#45; Constant</text>
<text text-anchor="middle" x="2265" y="-314.4" font-family="Times Roman,serif" font-size="14.00"> Value = 16.253</text>
</g>
<!-- 27 &#45; __Contains__&#45;&gt;51 &#45; Constant\n Value = 16.253 -->
<g id="edge68" class="edge"><title>27 &#45; __Contains__&#45;&gt;51 &#45; Constant\n Value = 16.253</title>
<path fill="none" stroke="black" d="M2201.18,-394.762C2209.55,-385.874 2219.94,-374.846 2229.88,-364.286"/>
<polygon fill="black" stroke="black" points="2232.7,-366.396 2237.01,-356.717 2227.61,-361.597 2232.7,-366.396"/>
</g>
<!-- 28 &#45; __Contains__&#45;&gt;4 &#45; UnitDelay -->
<g id="edge70" class="edge"><title>28 &#45; __Contains__&#45;&gt;4 &#45; UnitDelay</title>
<path fill="none" stroke="black" d="M1582.21,-394.339C1585.38,-382.957 1589.51,-368.182 1593.08,-355.373"/>
<polygon fill="black" stroke="black" points="1596.49,-356.197 1595.8,-345.624 1589.74,-354.315 1596.49,-356.197"/>
</g>
<!-- 29 &#45; __Block_Inport__&#45;&gt;7 &#45; Port_Input -->
<g id="edge28" class="edge"><title>29 &#45; __Block_Inport__&#45;&gt;7 &#45; Port_Input</title>
<path fill="none" stroke="black" d="M847.078,-148.237C854.643,-129.023 867.522,-98.5751 882,-74 887.681,-64.3575 894.715,-54.3833 901.344,-45.6201"/>
<polygon fill="black" stroke="black" points="904.168,-47.6908 907.518,-37.6398 898.631,-43.4074 904.168,-47.6908"/>
</g>
<!-- 30 &#45; __Block_Outport__&#45;&gt;8 &#45; Port_Output -->
<g id="edge74" class="edge"><title>30 &#45; __Block_Outport__&#45;&gt;8 &#45; Port_Output</title>
<path fill="none" stroke="black" d="M656.374,-222.327C650.058,-213.672 642.437,-203.229 635.525,-193.757"/>
<polygon fill="black" stroke="black" points="638.157,-191.426 629.435,-185.411 632.503,-195.552 638.157,-191.426"/>
</g>
<!-- 31 &#45; __Block_Inport__&#45;&gt;9 &#45; Port_Input -->
<g id="edge32" class="edge"><title>31 &#45; __Block_Inport__&#45;&gt;9 &#45; Port_Input</title>
<path fill="none" stroke="black" d="M122.492,-148.454C127.593,-129.148 136.938,-98.3832 150,-74 155.331,-64.0482 162.407,-53.9918 169.229,-45.2484"/>
<polygon fill="black" stroke="black" points="172.075,-47.2958 175.627,-37.3142 166.625,-42.9019 172.075,-47.2958"/>
</g>
<!-- 32 &#45; __Block_Inport__&#45;&gt;10 &#45; Port_Input -->
<g id="edge34" class="edge"><title>32 &#45; __Block_Inport__&#45;&gt;10 &#45; Port_Input</title>
<path fill="none" stroke="black" d="M1255.92,-75.0867C1274.74,-64.8489 1298.49,-51.9263 1318.45,-41.0664"/>
<polygon fill="black" stroke="black" points="1320.21,-44.0927 1327.32,-36.2388 1316.86,-37.944 1320.21,-44.0927"/>
</g>
<!-- 33 &#45; __Block_Inport__&#45;&gt;11 &#45; Port_Input -->
<g id="edge36" class="edge"><title>33 &#45; __Block_Inport__&#45;&gt;11 &#45; Port_Input</title>
<path fill="none" stroke="black" d="M1338.76,-222.377C1339.4,-187.523 1346.14,-112.491 1390,-74 1423.94,-44.2195 1538.82,-30.2988 1623.09,-23.9745"/>
<polygon fill="black" stroke="black" points="1623.48,-27.4551 1633.2,-23.2404 1622.97,-20.4734 1623.48,-27.4551"/>
</g>
<!-- 34 &#45; __Block_Outport__&#45;&gt;12 &#45; Port_Output -->
<g id="edge82" class="edge"><title>34 &#45; __Block_Outport__&#45;&gt;12 &#45; Port_Output</title>
<path fill="none" stroke="black" d="M1047.82,-222.327C1051.27,-214.089 1055.4,-204.229 1059.22,-195.13"/>
<polygon fill="black" stroke="black" points="1062.54,-196.243 1063.18,-185.667 1056.09,-193.538 1062.54,-196.243"/>
</g>
<!-- 35 &#45; __Block_Inport__&#45;&gt;13 &#45; Port_Input -->
<g id="edge40" class="edge"><title>35 &#45; __Block_Inport__&#45;&gt;13 &#45; Port_Input</title>
<path fill="none" stroke="black" d="M519.377,-74.8976C534.77,-65.0777 553.969,-52.8301 570.469,-42.3044"/>
<polygon fill="black" stroke="black" points="572.768,-44.9891 579.316,-36.6602 569.003,-39.0877 572.768,-44.9891"/>
</g>
<!-- 36 &#45; __Block_Outport__&#45;&gt;14 &#45; Port_Output -->
<g id="edge86" class="edge"><title>36 &#45; __Block_Outport__&#45;&gt;14 &#45; Port_Output</title>
<path fill="none" stroke="black" d="M346.757,-222.327C347.084,-214.264 347.474,-204.648 347.836,-195.711"/>
<polygon fill="black" stroke="black" points="351.335,-195.801 348.243,-185.667 344.341,-195.517 351.335,-195.801"/>
</g>
<!-- 37 &#45; __Block_Outport__ -->
<g id="node38" class="node"><title>37 &#45; __Block_Outport__</title>
<ellipse fill="#b94a62" stroke="black" cx="2703" cy="-241" rx="126.78" ry="18.3848"/>
<text text-anchor="middle" x="2703" y="-237.4" font-family="Times Roman,serif" font-size="14.00">37 &#45; __Block_Outport__</text>
</g>
<!-- 37 &#45; __Block_Outport__&#45;&gt;15 &#45; Port_Output -->
<g id="edge88" class="edge"><title>37 &#45; __Block_Outport__&#45;&gt;15 &#45; Port_Output</title>
<path fill="none" stroke="black" d="M2692.65,-222.327C2687.96,-213.849 2682.31,-203.654 2677.15,-194.338"/>
<polygon fill="black" stroke="black" points="2680.11,-192.462 2672.2,-185.411 2673.99,-195.854 2680.11,-192.462"/>
</g>
<!-- 38 &#45; __Block_Inport__&#45;&gt;16 &#45; Port_Input -->
<g id="edge46" class="edge"><title>38 &#45; __Block_Inport__&#45;&gt;16 &#45; Port_Input</title>
<path fill="none" stroke="black" d="M2176.71,-222.472C2188.11,-188.441 2216.79,-115.658 2265,-74 2285.61,-56.1898 2312.61,-43.8276 2337.6,-35.4046"/>
<polygon fill="black" stroke="black" points="2338.97,-38.6412 2347.42,-32.2551 2336.83,-31.9754 2338.97,-38.6412"/>
</g>
<!-- 39 &#45; __Block_Outport__&#45;&gt;17 &#45; Port_Output -->
<g id="edge92" class="edge"><title>39 &#45; __Block_Outport__&#45;&gt;17 &#45; Port_Output</title>
<path fill="none" stroke="black" d="M1929.28,-222.708C1938.94,-213.547 1950.78,-202.309 1961.3,-192.332"/>
<polygon fill="black" stroke="black" points="1963.82,-194.76 1968.67,-185.338 1959.01,-189.682 1963.82,-194.76"/>
</g>
<!-- 40 &#45; __Block_Outport__ -->
<g id="node41" class="node"><title>40 &#45; __Block_Outport__</title>
<ellipse fill="#b94a62" stroke="black" cx="2432" cy="-241" rx="126.072" ry="18.3848"/>
<text text-anchor="middle" x="2432" y="-237.4" font-family="Times Roman,serif" font-size="14.00">40 &#45; __Block_Outport__</text>
</g>
<!-- 40 &#45; __Block_Outport__&#45;&gt;18 &#45; Port_Output -->
<g id="edge94" class="edge"><title>40 &#45; __Block_Outport__&#45;&gt;18 &#45; Port_Output</title>
<path fill="none" stroke="black" d="M2428.72,-222.327C2427.3,-214.264 2425.61,-204.648 2424.04,-195.711"/>
<polygon fill="black" stroke="black" points="2427.46,-194.911 2422.28,-185.667 2420.56,-196.122 2427.46,-194.911"/>
</g>
<!-- 41 &#45; __Block_Inport__&#45;&gt;19 &#45; Port_Input -->
<g id="edge52" class="edge"><title>41 &#45; __Block_Inport__&#45;&gt;19 &#45; Port_Input</title>
<path fill="none" stroke="black" d="M1765.15,-148.214C1777.4,-127.229 1799.9,-93.6359 1828,-74 1855.61,-54.7018 1890.41,-41.8604 1921.25,-33.4785"/>
<polygon fill="black" stroke="black" points="1922.31,-36.8186 1931.11,-30.9112 1920.55,-30.0445 1922.31,-36.8186"/>
</g>
<!-- 42 &#45; __Block_Outport__&#45;&gt;20 &#45; Port_Output -->
<g id="edge98" class="edge"><title>42 &#45; __Block_Outport__&#45;&gt;20 &#45; Port_Output</title>
<path fill="none" stroke="black" d="M1577.27,-222.708C1564.95,-213.209 1549.73,-201.478 1536.44,-191.234"/>
<polygon fill="black" stroke="black" points="1538.51,-188.415 1528.46,-185.082 1534.24,-193.959 1538.51,-188.415"/>
</g>
<!-- 43 &#45; __Relation__&#45;&gt;19 &#45; Port_Input -->
<g id="edge100" class="edge"><title>43 &#45; __Relation__&#45;&gt;19 &#45; Port_Input</title>
<path fill="none" stroke="black" d="M2303.27,-79.5992C2237.6,-66.605 2138.24,-46.9462 2070.64,-33.5696"/>
<polygon fill="black" stroke="black" points="2070.97,-30.0686 2060.48,-31.5609 2069.61,-36.9354 2070.97,-30.0686"/>
</g>
<!-- 44 &#45; __Relation__&#45;&gt;11 &#45; Port_Input -->
<g id="edge102" class="edge"><title>44 &#45; __Relation__&#45;&gt;11 &#45; Port_Input</title>
<path fill="none" stroke="black" d="M1886.6,-76.7604C1853.34,-65.3659 1808.74,-50.0877 1773.77,-38.1065"/>
<polygon fill="black" stroke="black" points="1774.77,-34.7506 1764.18,-34.8206 1772.5,-41.3727 1774.77,-34.7506"/>
</g>
<!-- 45 &#45; __Relation__&#45;&gt;16 &#45; Port_Input -->
<g id="edge104" class="edge"><title>45 &#45; __Relation__&#45;&gt;16 &#45; Port_Input</title>
<path fill="none" stroke="black" d="M2553.34,-76.2083C2525.28,-65.1649 2488.43,-50.657 2458.85,-39.0147"/>
<polygon fill="black" stroke="black" points="2460.11,-35.7493 2449.52,-35.3434 2457.54,-42.2629 2460.11,-35.7493"/>
</g>
<!-- 46 &#45; __Relation__&#45;&gt;9 &#45; Port_Input -->
<g id="edge106" class="edge"><title>46 &#45; __Relation__&#45;&gt;9 &#45; Port_Input</title>
<path fill="none" stroke="black" d="M240.18,-74.7079C232.41,-65.7246 222.914,-54.7447 214.413,-44.9148"/>
<polygon fill="black" stroke="black" points="217.049,-42.6123 207.86,-37.3382 211.754,-47.1914 217.049,-42.6123"/>
</g>
<!-- 47 &#45; __Relation__&#45;&gt;7 &#45; Port_Input -->
<g id="edge108" class="edge"><title>47 &#45; __Relation__&#45;&gt;7 &#45; Port_Input</title>
<path fill="none" stroke="black" d="M971.933,-74.7079C964.042,-65.7246 954.397,-54.7447 945.763,-44.9148"/>
<polygon fill="black" stroke="black" points="948.337,-42.5416 939.108,-37.3382 943.078,-47.1612 948.337,-42.5416"/>
</g>
<!-- 48 &#45; __Relation__&#45;&gt;13 &#45; Port_Input -->
<g id="edge110" class="edge"><title>48 &#45; __Relation__&#45;&gt;13 &#45; Port_Input</title>
<path fill="none" stroke="black" d="M695.976,-75.2752C680.202,-65.2984 660.326,-52.7277 643.363,-41.9991"/>
<polygon fill="black" stroke="black" points="645.118,-38.9676 634.796,-36.5802 641.376,-44.8836 645.118,-38.9676"/>
</g>
<!-- 49 &#45; __Relation__&#45;&gt;10 &#45; Port_Input -->
<g id="edge112" class="edge"><title>49 &#45; __Relation__&#45;&gt;10 &#45; Port_Input</title>
<path fill="none" stroke="black" d="M1463.53,-75.463C1444.59,-65.2335 1420.52,-52.2293 1400.25,-41.2799"/>
<polygon fill="black" stroke="black" points="1401.7,-38.0841 1391.23,-36.4111 1398.37,-44.2431 1401.7,-38.0841"/>
</g>
<!-- 50 &#45; Constant\n Value = 36.6&#45;&gt;37 &#45; __Block_Outport__ -->
<g id="edge114" class="edge"><title>50 &#45; Constant\n Value = 36.6&#45;&gt;37 &#45; __Block_Outport__</title>
<path fill="none" stroke="black" d="M2617.21,-300.025C2633.52,-288.803 2652.3,-275.882 2668.12,-264.995"/>
<polygon fill="black" stroke="black" points="2670.32,-267.732 2676.58,-259.18 2666.35,-261.965 2670.32,-267.732"/>
</g>
<!-- 51 &#45; Constant\n Value = 16.253&#45;&gt;40 &#45; __Block_Outport__ -->
<g id="edge116" class="edge"><title>51 &#45; Constant\n Value = 16.253&#45;&gt;40 &#45; __Block_Outport__</title>
<path fill="none" stroke="black" d="M2315.56,-300.964C2338.76,-289.015 2366.01,-274.984 2388.31,-263.501"/>
<polygon fill="black" stroke="black" points="2389.93,-266.601 2397.22,-258.911 2386.73,-260.378 2389.93,-266.601"/>
</g>
</g>
</svg>
