<?xml version="1.0" encoding="UTF-8" standalone="no"?>
<!DOCTYPE svg PUBLIC "-//W3C//DTD SVG 1.1//EN"
 "http://www.w3.org/Graphics/SVG/1.1/DTD/svg11.dtd">
<!-- Generated by graphviz version 2.26.3 (20100126.1600)
 -->
<!-- Title: HDead_opt Pages: 1 -->
<svg width="812pt" height="514pt"
 viewBox="0.00 0.00 812.00 514.00" xmlns="http://www.w3.org/2000/svg" xmlns:xlink="http://www.w3.org/1999/xlink">
<g id="graph1" class="graph" transform="scale(1 1) rotate(0) translate(4 510)">
<title>HDead_opt</title>
<polygon fill="white" stroke="white" points="-4,5 -4,-510 809,-510 809,5 -4,5"/>
<!-- 0 &#45; Gain\n Gain = 1.0 -->
<g id="node1" class="node"><title>0 &#45; Gain\n Gain = 1.0</title>
<ellipse fill="lightblue" stroke="black" cx="338" cy="-327" rx="68.0887" ry="31.1127"/>
<text text-anchor="middle" x="338" y="-332.4" font-family="Times Roman,serif" font-size="14.00">0 &#45; Gain</text>
<text text-anchor="middle" x="338" y="-314.4" font-family="Times Roman,serif" font-size="14.00"> Gain = 1.0</text>
</g>
<!-- 6 &#45; __Block_Outport__ -->
<g id="node7" class="node"><title>6 &#45; __Block_Outport__</title>
<ellipse fill="#b94a62" stroke="black" cx="337" cy="-241" rx="119.001" ry="18.3848"/>
<text text-anchor="middle" x="337" y="-237.4" font-family="Times Roman,serif" font-size="14.00">6 &#45; __Block_Outport__</text>
</g>
<!-- 0 &#45; Gain\n Gain = 1.0&#45;&gt;6 &#45; __Block_Outport__ -->
<g id="edge2" class="edge"><title>0 &#45; Gain\n Gain = 1.0&#45;&gt;6 &#45; __Block_Outport__</title>
<path fill="none" stroke="black" d="M337.639,-295.952C337.54,-287.427 337.433,-278.221 337.335,-269.827"/>
<polygon fill="black" stroke="black" points="340.834,-269.699 337.218,-259.74 333.835,-269.78 340.834,-269.699"/>
</g>
<!-- 11 &#45; __Block_Inport__ -->
<g id="node12" class="node"><title>11 &#45; __Block_Inport__</title>
<ellipse fill="#b94a62" stroke="black" cx="480" cy="-93" rx="116.172" ry="18.3848"/>
<text text-anchor="middle" x="480" y="-89.4" font-family="Times Roman,serif" font-size="14.00">11 &#45; __Block_Inport__</text>
</g>
<!-- 0 &#45; Gain\n Gain = 1.0&#45;&gt;11 &#45; __Block_Inport__ -->
<g id="edge26" class="edge"><title>0 &#45; Gain\n Gain = 1.0&#45;&gt;11 &#45; __Block_Inport__</title>
<path fill="none" stroke="black" d="M395.695,-310.531C421.156,-300.22 448.903,-284.173 465,-260 492.708,-218.39 489.991,-157.453 485.201,-121.845"/>
<polygon fill="black" stroke="black" points="488.618,-121.03 483.679,-111.657 481.695,-122.065 488.618,-121.03"/>
</g>
<!-- 1 &#45; SubSystem -->
<g id="node2" class="node"><title>1 &#45; SubSystem</title>
<ellipse fill="lightgreen" stroke="black" cx="338" cy="-487" rx="82.2301" ry="18.3848"/>
<text text-anchor="middle" x="338" y="-483.4" font-family="Times Roman,serif" font-size="14.00">1 &#45; SubSystem</text>
</g>
<!-- 14 &#45; __Contains__ -->
<g id="node15" class="node"><title>14 &#45; __Contains__</title>
<ellipse fill="lightgray" stroke="black" cx="121" cy="-413" rx="98.9949" ry="18.3848"/>
<text text-anchor="middle" x="121" y="-409.4" font-family="Times Roman,serif" font-size="14.00">14 &#45; __Contains__</text>
</g>
<!-- 1 &#45; SubSystem&#45;&gt;14 &#45; __Contains__ -->
<g id="edge8" class="edge"><title>1 &#45; SubSystem&#45;&gt;14 &#45; __Contains__</title>
<path fill="none" stroke="black" d="M292.51,-471.487C259.339,-460.175 214.143,-444.763 178.474,-432.6"/>
<polygon fill="black" stroke="black" points="179.279,-429.176 168.684,-429.261 177.02,-435.801 179.279,-429.176"/>
</g>
<!-- 15 &#45; __Contains__ -->
<g id="node16" class="node"><title>15 &#45; __Contains__</title>
<ellipse fill="lightgray" stroke="black" cx="338" cy="-413" rx="98.9949" ry="18.3848"/>
<text text-anchor="middle" x="338" y="-409.4" font-family="Times Roman,serif" font-size="14.00">15 &#45; __Contains__</text>
</g>
<!-- 1 &#45; SubSystem&#45;&gt;15 &#45; __Contains__ -->
<g id="edge6" class="edge"><title>1 &#45; SubSystem&#45;&gt;15 &#45; __Contains__</title>
<path fill="none" stroke="black" d="M338,-468.327C338,-460.264 338,-450.648 338,-441.711"/>
<polygon fill="black" stroke="black" points="341.5,-441.667 338,-431.667 334.5,-441.667 341.5,-441.667"/>
</g>
<!-- 16 &#45; __Contains__ -->
<g id="node17" class="node"><title>16 &#45; __Contains__</title>
<ellipse fill="lightgray" stroke="black" cx="582" cy="-413" rx="98.9949" ry="18.3848"/>
<text text-anchor="middle" x="582" y="-409.4" font-family="Times Roman,serif" font-size="14.00">16 &#45; __Contains__</text>
</g>
<!-- 1 &#45; SubSystem&#45;&gt;16 &#45; __Contains__ -->
<g id="edge4" class="edge"><title>1 &#45; SubSystem&#45;&gt;16 &#45; __Contains__</title>
<path fill="none" stroke="black" d="M387.084,-472.114C425.476,-460.47 479.087,-444.211 520.369,-431.692"/>
<polygon fill="black" stroke="black" points="521.491,-435.009 530.045,-428.757 519.46,-428.31 521.491,-435.009"/>
</g>
<!-- 2 &#45; Scope -->
<g id="node3" class="node"><title>2 &#45; Scope</title>
<ellipse fill="lightblue" stroke="black" cx="120" cy="-327" rx="56.0679" ry="18.3848"/>
<text text-anchor="middle" x="120" y="-323.4" font-family="Times Roman,serif" font-size="14.00">2 &#45; Scope</text>
</g>
<!-- 10 &#45; __Block_Inport__ -->
<g id="node11" class="node"><title>10 &#45; __Block_Inport__</title>
<ellipse fill="#b94a62" stroke="black" cx="116" cy="-167" rx="116.172" ry="18.3848"/>
<text text-anchor="middle" x="116" y="-163.4" font-family="Times Roman,serif" font-size="14.00">10 &#45; __Block_Inport__</text>
</g>
<!-- 2 &#45; Scope&#45;&gt;10 &#45; __Block_Inport__ -->
<g id="edge24" class="edge"><title>2 &#45; Scope&#45;&gt;10 &#45; __Block_Inport__</title>
<path fill="none" stroke="black" d="M119.533,-308.333C118.841,-280.634 117.535,-228.419 116.72,-195.797"/>
<polygon fill="black" stroke="black" points="120.213,-195.458 116.464,-185.548 113.215,-195.633 120.213,-195.458"/>
</g>
<!-- 3 &#45; Constant\n Value = 1.0 -->
<g id="node4" class="node"><title>3 &#45; Constant\n Value = 1.0</title>
<ellipse fill="lightblue" stroke="black" cx="638" cy="-327" rx="72.832" ry="31.1127"/>
<text text-anchor="middle" x="638" y="-332.4" font-family="Times Roman,serif" font-size="14.00">3 &#45; Constant</text>
<text text-anchor="middle" x="638" y="-314.4" font-family="Times Roman,serif" font-size="14.00"> Value = 1.0</text>
</g>
<!-- 7 &#45; __Block_Outport__ -->
<g id="node8" class="node"><title>7 &#45; __Block_Outport__</title>
<ellipse fill="#b94a62" stroke="black" cx="666" cy="-241" rx="119.001" ry="18.3848"/>
<text text-anchor="middle" x="666" y="-237.4" font-family="Times Roman,serif" font-size="14.00">7 &#45; __Block_Outport__</text>
</g>
<!-- 3 &#45; Constant\n Value = 1.0&#45;&gt;7 &#45; __Block_Outport__ -->
<g id="edge10" class="edge"><title>3 &#45; Constant\n Value = 1.0&#45;&gt;7 &#45; __Block_Outport__</title>
<path fill="none" stroke="black" d="M648.109,-295.952C650.968,-287.168 654.063,-277.662 656.862,-269.065"/>
<polygon fill="black" stroke="black" points="660.213,-270.081 659.98,-259.489 653.556,-267.914 660.213,-270.081"/>
</g>
<!-- 4 &#45; Port_Output -->
<g id="node5" class="node"><title>4 &#45; Port_Output</title>
<ellipse fill="coral" stroke="black" cx="338" cy="-167" rx="87.889" ry="18.3848"/>
<text text-anchor="middle" x="338" y="-163.4" font-family="Times Roman,serif" font-size="14.00">4 &#45; Port_Output</text>
</g>
<!-- 12 &#45; __Relation__ -->
<g id="node13" class="node"><title>12 &#45; __Relation__</title>
<ellipse fill="#f78465" stroke="black" cx="249" cy="-93" rx="94.9596" ry="18.3848"/>
<text text-anchor="middle" x="249" y="-89.4" font-family="Times Roman,serif" font-size="14.00">12 &#45; __Relation__</text>
</g>
<!-- 4 &#45; Port_Output&#45;&gt;12 &#45; __Relation__ -->
<g id="edge12" class="edge"><title>4 &#45; Port_Output&#45;&gt;12 &#45; __Relation__</title>
<path fill="none" stroke="black" d="M316,-148.708C304.683,-139.299 290.732,-127.699 278.496,-117.525"/>
<polygon fill="black" stroke="black" points="280.674,-114.784 270.747,-111.082 276.199,-120.166 280.674,-114.784"/>
</g>
<!-- 5 &#45; Port_Output -->
<g id="node6" class="node"><title>5 &#45; Port_Output</title>
<ellipse fill="coral" stroke="black" cx="682" cy="-167" rx="87.889" ry="18.3848"/>
<text text-anchor="middle" x="682" y="-163.4" font-family="Times Roman,serif" font-size="14.00">5 &#45; Port_Output</text>
</g>
<!-- 13 &#45; __Relation__ -->
<g id="node14" class="node"><title>13 &#45; __Relation__</title>
<ellipse fill="#f78465" stroke="black" cx="709" cy="-93" rx="94.9596" ry="18.3848"/>
<text text-anchor="middle" x="709" y="-89.4" font-family="Times Roman,serif" font-size="14.00">13 &#45; __Relation__</text>
</g>
<!-- 5 &#45; Port_Output&#45;&gt;13 &#45; __Relation__ -->
<g id="edge14" class="edge"><title>5 &#45; Port_Output&#45;&gt;13 &#45; __Relation__</title>
<path fill="none" stroke="black" d="M688.813,-148.327C691.819,-140.089 695.417,-130.229 698.736,-121.13"/>
<polygon fill="black" stroke="black" points="702.049,-122.261 702.189,-111.667 695.473,-119.862 702.049,-122.261"/>
</g>
<!-- 6 &#45; __Block_Outport__&#45;&gt;4 &#45; Port_Output -->
<g id="edge16" class="edge"><title>6 &#45; __Block_Outport__&#45;&gt;4 &#45; Port_Output</title>
<path fill="none" stroke="black" d="M337.252,-222.327C337.361,-214.264 337.491,-204.648 337.612,-195.711"/>
<polygon fill="black" stroke="black" points="341.112,-195.714 337.748,-185.667 334.113,-195.619 341.112,-195.714"/>
</g>
<!-- 7 &#45; __Block_Outport__&#45;&gt;5 &#45; Port_Output -->
<g id="edge18" class="edge"><title>7 &#45; __Block_Outport__&#45;&gt;5 &#45; Port_Output</title>
<path fill="none" stroke="black" d="M670.037,-222.327C671.781,-214.264 673.86,-204.648 675.792,-195.711"/>
<polygon fill="black" stroke="black" points="679.271,-196.181 677.964,-185.667 672.429,-194.702 679.271,-196.181"/>
</g>
<!-- 8 &#45; Port_Input -->
<g id="node9" class="node"><title>8 &#45; Port_Input</title>
<ellipse fill="lightyellow" stroke="black" cx="186" cy="-19" rx="79.9031" ry="18.3848"/>
<text text-anchor="middle" x="186" y="-15.4" font-family="Times Roman,serif" font-size="14.00">8 &#45; Port_Input</text>
</g>
<!-- 9 &#45; Port_Input -->
<g id="node10" class="node"><title>9 &#45; Port_Input</title>
<ellipse fill="lightyellow" stroke="black" cx="594" cy="-19" rx="79.9031" ry="18.3848"/>
<text text-anchor="middle" x="594" y="-15.4" font-family="Times Roman,serif" font-size="14.00">9 &#45; Port_Input</text>
</g>
<!-- 10 &#45; __Block_Inport__&#45;&gt;8 &#45; Port_Input -->
<g id="edge20" class="edge"><title>10 &#45; __Block_Inport__&#45;&gt;8 &#45; Port_Input</title>
<path fill="none" stroke="black" d="M119.825,-148.465C124.249,-129.168 132.557,-98.4098 145,-74 150.083,-64.0293 156.958,-53.9679 163.626,-45.2257"/>
<polygon fill="black" stroke="black" points="166.438,-47.3115 169.889,-37.2944 160.945,-42.9732 166.438,-47.3115"/>
</g>
<!-- 11 &#45; __Block_Inport__&#45;&gt;9 &#45; Port_Input -->
<g id="edge22" class="edge"><title>11 &#45; __Block_Inport__&#45;&gt;9 &#45; Port_Input</title>
<path fill="none" stroke="black" d="M507.888,-74.8976C523.016,-65.0777 541.883,-52.8301 558.099,-42.3044"/>
<polygon fill="black" stroke="black" points="560.312,-45.0407 566.794,-36.6602 556.5,-39.1692 560.312,-45.0407"/>
</g>
<!-- 12 &#45; __Relation__&#45;&gt;8 &#45; Port_Input -->
<g id="edge28" class="edge"><title>12 &#45; __Relation__&#45;&gt;8 &#45; Port_Input</title>
<path fill="none" stroke="black" d="M233.427,-74.7079C225.855,-65.8135 216.616,-54.9619 208.311,-45.2071"/>
<polygon fill="black" stroke="black" points="210.76,-42.6836 201.612,-37.3382 205.43,-47.2214 210.76,-42.6836"/>
</g>
<!-- 13 &#45; __Relation__&#45;&gt;9 &#45; Port_Input -->
<g id="edge30" class="edge"><title>13 &#45; __Relation__&#45;&gt;9 &#45; Port_Input</title>
<path fill="none" stroke="black" d="M681.455,-75.2752C665.95,-65.2984 646.415,-52.7277 629.742,-41.9991"/>
<polygon fill="black" stroke="black" points="631.624,-39.0482 621.321,-36.5802 627.836,-44.9348 631.624,-39.0482"/>
</g>
<!-- 14 &#45; __Contains__&#45;&gt;2 &#45; Scope -->
<g id="edge32" class="edge"><title>14 &#45; __Contains__&#45;&gt;2 &#45; Scope</title>
<path fill="none" stroke="black" d="M120.783,-394.339C120.652,-383.07 120.482,-368.474 120.334,-355.754"/>
<polygon fill="black" stroke="black" points="123.833,-355.583 120.217,-345.624 116.833,-355.664 123.833,-355.583"/>
</g>
<!-- 15 &#45; __Contains__&#45;&gt;0 &#45; Gain\n Gain = 1.0 -->
<g id="edge34" class="edge"><title>15 &#45; __Contains__&#45;&gt;0 &#45; Gain\n Gain = 1.0</title>
<path fill="none" stroke="black" d="M338,-394.339C338,-386.658 338,-377.432 338,-368.308"/>
<polygon fill="black" stroke="black" points="341.5,-368.137 338,-358.137 334.5,-368.137 341.5,-368.137"/>
</g>
<!-- 16 &#45; __Contains__&#45;&gt;3 &#45; Constant\n Value = 1.0 -->
<g id="edge36" class="edge"><title>16 &#45; __Contains__&#45;&gt;3 &#45; Constant\n Value = 1.0</title>
<path fill="none" stroke="black" d="M594.151,-394.339C599.625,-385.933 606.303,-375.677 612.781,-365.729"/>
<polygon fill="black" stroke="black" points="615.863,-367.41 618.387,-357.12 609.997,-363.59 615.863,-367.41"/>
</g>
</g>
</svg>
