<?xml version="1.0" encoding="UTF-8" standalone="no"?>
<!DOCTYPE svg PUBLIC "-//W3C//DTD SVG 1.1//EN"
 "http://www.w3.org/Graphics/SVG/1.1/DTD/svg11.dtd">
<!-- Generated by graphviz version 2.26.3 (20100126.1600)
 -->
<!-- Title: HDead Pages: 1 -->
<svg width="1141pt" height="1154pt"
 viewBox="0.00 0.00 1141.00 1154.00" xmlns="http://www.w3.org/2000/svg" xmlns:xlink="http://www.w3.org/1999/xlink">
<g id="graph1" class="graph" transform="scale(1 1) rotate(0) translate(4 1150)">
<title>HDead</title>
<polygon fill="white" stroke="white" points="-4,5 -4,-1150 1138,-1150 1138,5 -4,5"/>
<!-- 0 &#45; Product -->
<g id="node1" class="node"><title>0 &#45; Product</title>
<ellipse fill="lightblue" stroke="black" cx="302" cy="-499" rx="65.7609" ry="18.3848"/>
<text text-anchor="middle" x="302" y="-495.4" font-family="Times Roman,serif" font-size="14.00">0 &#45; Product</text>
</g>
<!-- 11 &#45; __Block_Outport__ -->
<g id="node12" class="node"><title>11 &#45; __Block_Outport__</title>
<ellipse fill="#b94a62" stroke="black" cx="300" cy="-413" rx="125.865" ry="18.3848"/>
<text text-anchor="middle" x="300" y="-409.4" font-family="Times Roman,serif" font-size="14.00">11 &#45; __Block_Outport__</text>
</g>
<!-- 0 &#45; Product&#45;&gt;11 &#45; __Block_Outport__ -->
<g id="edge2" class="edge"><title>0 &#45; Product&#45;&gt;11 &#45; __Block_Outport__</title>
<path fill="none" stroke="black" d="M301.566,-480.339C301.304,-469.07 300.965,-454.474 300.669,-441.754"/>
<polygon fill="black" stroke="black" points="304.165,-441.54 300.433,-431.624 297.167,-441.703 304.165,-441.54"/>
</g>
<!-- 1 &#45; Gain\n Gain = 1.0 -->
<g id="node2" class="node"><title>1 &#45; Gain\n Gain = 1.0</title>
<ellipse fill="lightblue" stroke="black" cx="880" cy="-499" rx="68.0887" ry="31.1127"/>
<text text-anchor="middle" x="880" y="-504.4" font-family="Times Roman,serif" font-size="14.00">1 &#45; Gain</text>
<text text-anchor="middle" x="880" y="-486.4" font-family="Times Roman,serif" font-size="14.00"> Gain = 1.0</text>
</g>
<!-- 13 &#45; __Block_Outport__ -->
<g id="node14" class="node"><title>13 &#45; __Block_Outport__</title>
<ellipse fill="#b94a62" stroke="black" cx="880" cy="-413" rx="125.865" ry="18.3848"/>
<text text-anchor="middle" x="880" y="-409.4" font-family="Times Roman,serif" font-size="14.00">13 &#45; __Block_Outport__</text>
</g>
<!-- 1 &#45; Gain\n Gain = 1.0&#45;&gt;13 &#45; __Block_Outport__ -->
<g id="edge10" class="edge"><title>1 &#45; Gain\n Gain = 1.0&#45;&gt;13 &#45; __Block_Outport__</title>
<path fill="none" stroke="black" d="M880,-467.952C880,-459.427 880,-450.221 880,-441.827"/>
<polygon fill="black" stroke="black" points="883.5,-441.74 880,-431.74 876.5,-441.74 883.5,-441.74"/>
</g>
<!-- 2 &#45; SubSystem -->
<g id="node3" class="node"><title>2 &#45; SubSystem</title>
<ellipse fill="lightgreen" stroke="black" cx="577" cy="-1127" rx="82.2301" ry="18.3848"/>
<text text-anchor="middle" x="577" y="-1123.4" font-family="Times Roman,serif" font-size="14.00">2 &#45; SubSystem</text>
</g>
<!-- 30 &#45; __Contains__ -->
<g id="node31" class="node"><title>30 &#45; __Contains__</title>
<ellipse fill="lightgray" stroke="black" cx="478" cy="-881" rx="98.9949" ry="18.3848"/>
<text text-anchor="middle" x="478" y="-877.4" font-family="Times Roman,serif" font-size="14.00">30 &#45; __Contains__</text>
</g>
<!-- 2 &#45; SubSystem&#45;&gt;30 &#45; __Contains__ -->
<g id="edge18" class="edge"><title>2 &#45; SubSystem&#45;&gt;30 &#45; __Contains__</title>
<path fill="none" stroke="black" d="M562.615,-1108.45C555.122,-1098.14 546.246,-1084.83 540,-1072 513.22,-1016.99 494.019,-947.637 484.592,-909.462"/>
<polygon fill="black" stroke="black" points="487.949,-908.454 482.194,-899.559 481.146,-910.102 487.949,-908.454"/>
</g>
<!-- 31 &#45; __Contains__ -->
<g id="node32" class="node"><title>31 &#45; __Contains__</title>
<ellipse fill="lightgray" stroke="black" cx="1034" cy="-807" rx="98.9949" ry="18.3848"/>
<text text-anchor="middle" x="1034" y="-803.4" font-family="Times Roman,serif" font-size="14.00">31 &#45; __Contains__</text>
</g>
<!-- 2 &#45; SubSystem&#45;&gt;31 &#45; __Contains__ -->
<g id="edge22" class="edge"><title>2 &#45; SubSystem&#45;&gt;31 &#45; __Contains__</title>
<path fill="none" stroke="black" d="M655.713,-1121.65C769.591,-1113.15 969.337,-1095.15 993,-1072 1057.27,-1009.13 1047.9,-890.303 1039.43,-835.727"/>
<polygon fill="black" stroke="black" points="1042.85,-834.996 1037.76,-825.703 1035.95,-836.141 1042.85,-834.996"/>
</g>
<!-- 32 &#45; __Contains__ -->
<g id="node33" class="node"><title>32 &#45; __Contains__</title>
<ellipse fill="lightgray" stroke="black" cx="346" cy="-1053" rx="98.9949" ry="18.3848"/>
<text text-anchor="middle" x="346" y="-1049.4" font-family="Times Roman,serif" font-size="14.00">32 &#45; __Contains__</text>
</g>
<!-- 2 &#45; SubSystem&#45;&gt;32 &#45; __Contains__ -->
<g id="edge26" class="edge"><title>2 &#45; SubSystem&#45;&gt;32 &#45; __Contains__</title>
<path fill="none" stroke="black" d="M529.696,-1111.85C493.799,-1100.35 444.21,-1084.46 405.602,-1072.09"/>
<polygon fill="black" stroke="black" points="406.629,-1068.75 396.038,-1069.03 404.493,-1075.41 406.629,-1068.75"/>
</g>
<!-- 33 &#45; __Contains__ -->
<g id="node34" class="node"><title>33 &#45; __Contains__</title>
<ellipse fill="lightgray" stroke="black" cx="885" cy="-1053" rx="98.9949" ry="18.3848"/>
<text text-anchor="middle" x="885" y="-1049.4" font-family="Times Roman,serif" font-size="14.00">33 &#45; __Contains__</text>
</g>
<!-- 2 &#45; SubSystem&#45;&gt;33 &#45; __Contains__ -->
<g id="edge30" class="edge"><title>2 &#45; SubSystem&#45;&gt;33 &#45; __Contains__</title>
<path fill="none" stroke="black" d="M633.134,-1113.51C683.934,-1101.31 758.994,-1083.27 813.957,-1070.07"/>
<polygon fill="black" stroke="black" points="815.07,-1073.4 823.976,-1067.66 813.435,-1066.59 815.07,-1073.4"/>
</g>
<!-- 34 &#45; __Contains__ -->
<g id="node35" class="node"><title>34 &#45; __Contains__</title>
<ellipse fill="lightgray" stroke="black" cx="99" cy="-967" rx="98.9949" ry="18.3848"/>
<text text-anchor="middle" x="99" y="-963.4" font-family="Times Roman,serif" font-size="14.00">34 &#45; __Contains__</text>
</g>
<!-- 2 &#45; SubSystem&#45;&gt;34 &#45; __Contains__ -->
<g id="edge34" class="edge"><title>2 &#45; SubSystem&#45;&gt;34 &#45; __Contains__</title>
<path fill="none" stroke="black" d="M502.583,-1119.16C417.62,-1109.48 284.397,-1091.83 238,-1072 193.643,-1053.04 150.601,-1016.95 124.454,-992.43"/>
<polygon fill="black" stroke="black" points="126.551,-989.594 116.899,-985.225 121.72,-994.659 126.551,-989.594"/>
</g>
<!-- 35 &#45; __Contains__ -->
<g id="node36" class="node"><title>35 &#45; __Contains__</title>
<ellipse fill="lightgray" stroke="black" cx="648" cy="-1053" rx="98.9949" ry="18.3848"/>
<text text-anchor="middle" x="648" y="-1049.4" font-family="Times Roman,serif" font-size="14.00">35 &#45; __Contains__</text>
</g>
<!-- 2 &#45; SubSystem&#45;&gt;35 &#45; __Contains__ -->
<g id="edge38" class="edge"><title>2 &#45; SubSystem&#45;&gt;35 &#45; __Contains__</title>
<path fill="none" stroke="black" d="M594.551,-1108.71C603.255,-1099.64 613.913,-1088.53 623.416,-1078.62"/>
<polygon fill="black" stroke="black" points="626.007,-1080.98 630.405,-1071.34 620.956,-1076.13 626.007,-1080.98"/>
</g>
<!-- 3 &#45; Scope -->
<g id="node4" class="node"><title>3 &#45; Scope</title>
<ellipse fill="lightblue" stroke="black" cx="961" cy="-31" rx="56.0679" ry="18.3848"/>
<text text-anchor="middle" x="961" y="-27.4" font-family="Times Roman,serif" font-size="14.00">3 &#45; Scope</text>
</g>
<!-- 4 &#45; Constant\n Value = 1.0 -->
<g id="node5" class="node"><title>4 &#45; Constant\n Value = 1.0</title>
<ellipse fill="lightblue" stroke="black" cx="329" cy="-967" rx="72.832" ry="31.1127"/>
<text text-anchor="middle" x="329" y="-972.4" font-family="Times Roman,serif" font-size="14.00">4 &#45; Constant</text>
<text text-anchor="middle" x="329" y="-954.4" font-family="Times Roman,serif" font-size="14.00"> Value = 1.0</text>
</g>
<!-- 12 &#45; __Block_Outport__ -->
<g id="node13" class="node"><title>12 &#45; __Block_Outport__</title>
<ellipse fill="#b94a62" stroke="black" cx="235" cy="-881" rx="125.865" ry="18.3848"/>
<text text-anchor="middle" x="235" y="-877.4" font-family="Times Roman,serif" font-size="14.00">12 &#45; __Block_Outport__</text>
</g>
<!-- 4 &#45; Constant\n Value = 1.0&#45;&gt;12 &#45; __Block_Outport__ -->
<g id="edge6" class="edge"><title>4 &#45; Constant\n Value = 1.0&#45;&gt;12 &#45; __Block_Outport__</title>
<path fill="none" stroke="black" d="M298.221,-938.84C286.736,-928.333 273.778,-916.477 262.597,-906.248"/>
<polygon fill="black" stroke="black" points="264.92,-903.63 255.18,-899.462 260.195,-908.795 264.92,-903.63"/>
</g>
<!-- 5 &#45; Gain\n Gain = 1.0 -->
<g id="node6" class="node"><title>5 &#45; Gain\n Gain = 1.0</title>
<ellipse fill="lightblue" stroke="black" cx="155" cy="-31" rx="68.0887" ry="31.1127"/>
<text text-anchor="middle" x="155" y="-36.4" font-family="Times Roman,serif" font-size="14.00">5 &#45; Gain</text>
<text text-anchor="middle" x="155" y="-18.4" font-family="Times Roman,serif" font-size="14.00"> Gain = 1.0</text>
</g>
<!-- 6 &#45; Constant\n Value = 1.0 -->
<g id="node7" class="node"><title>6 &#45; Constant\n Value = 1.0</title>
<ellipse fill="lightblue" stroke="black" cx="663" cy="-967" rx="72.832" ry="31.1127"/>
<text text-anchor="middle" x="663" y="-972.4" font-family="Times Roman,serif" font-size="14.00">6 &#45; Constant</text>
<text text-anchor="middle" x="663" y="-954.4" font-family="Times Roman,serif" font-size="14.00"> Value = 1.0</text>
</g>
<!-- 14 &#45; __Block_Outport__ -->
<g id="node15" class="node"><title>14 &#45; __Block_Outport__</title>
<ellipse fill="#b94a62" stroke="black" cx="721" cy="-881" rx="125.865" ry="18.3848"/>
<text text-anchor="middle" x="721" y="-877.4" font-family="Times Roman,serif" font-size="14.00">14 &#45; __Block_Outport__</text>
</g>
<!-- 6 &#45; Constant\n Value = 1.0&#45;&gt;14 &#45; __Block_Outport__ -->
<g id="edge14" class="edge"><title>6 &#45; Constant\n Value = 1.0&#45;&gt;14 &#45; __Block_Outport__</title>
<path fill="none" stroke="black" d="M683.286,-936.921C689.623,-927.525 696.572,-917.22 702.76,-908.045"/>
<polygon fill="black" stroke="black" points="705.725,-909.908 708.415,-899.661 699.922,-905.994 705.725,-909.908"/>
</g>
<!-- 7 &#45; Port_Output -->
<g id="node8" class="node"><title>7 &#45; Port_Output</title>
<ellipse fill="coral" stroke="black" cx="295" cy="-339" rx="87.889" ry="18.3848"/>
<text text-anchor="middle" x="295" y="-335.4" font-family="Times Roman,serif" font-size="14.00">7 &#45; Port_Output</text>
</g>
<!-- 26 &#45; __Relation__ -->
<g id="node27" class="node"><title>26 &#45; __Relation__</title>
<ellipse fill="#f78465" stroke="black" cx="276" cy="-265" rx="94.9596" ry="18.3848"/>
<text text-anchor="middle" x="276" y="-261.4" font-family="Times Roman,serif" font-size="14.00">26 &#45; __Relation__</text>
</g>
<!-- 7 &#45; Port_Output&#45;&gt;26 &#45; __Relation__ -->
<g id="edge46" class="edge"><title>7 &#45; Port_Output&#45;&gt;26 &#45; __Relation__</title>
<path fill="none" stroke="black" d="M290.205,-320.327C288.113,-312.176 285.613,-302.438 283.297,-293.42"/>
<polygon fill="black" stroke="black" points="286.67,-292.483 280.793,-283.667 279.89,-294.224 286.67,-292.483"/>
</g>
<!-- 8 &#45; Port_Output -->
<g id="node9" class="node"><title>8 &#45; Port_Output</title>
<ellipse fill="coral" stroke="black" cx="230" cy="-807" rx="87.889" ry="18.3848"/>
<text text-anchor="middle" x="230" y="-803.4" font-family="Times Roman,serif" font-size="14.00">8 &#45; Port_Output</text>
</g>
<!-- 29 &#45; __Relation__ -->
<g id="node30" class="node"><title>29 &#45; __Relation__</title>
<ellipse fill="#f78465" stroke="black" cx="228" cy="-733" rx="94.9596" ry="18.3848"/>
<text text-anchor="middle" x="228" y="-729.4" font-family="Times Roman,serif" font-size="14.00">29 &#45; __Relation__</text>
</g>
<!-- 8 &#45; Port_Output&#45;&gt;29 &#45; __Relation__ -->
<g id="edge58" class="edge"><title>8 &#45; Port_Output&#45;&gt;29 &#45; __Relation__</title>
<path fill="none" stroke="black" d="M229.495,-788.327C229.277,-780.264 229.018,-770.648 228.776,-761.711"/>
<polygon fill="black" stroke="black" points="232.274,-761.569 228.505,-751.667 225.276,-761.758 232.274,-761.569"/>
</g>
<!-- 9 &#45; Port_Output -->
<g id="node10" class="node"><title>9 &#45; Port_Output</title>
<ellipse fill="coral" stroke="black" cx="882" cy="-339" rx="87.889" ry="18.3848"/>
<text text-anchor="middle" x="882" y="-335.4" font-family="Times Roman,serif" font-size="14.00">9 &#45; Port_Output</text>
</g>
<!-- 25 &#45; __Relation__ -->
<g id="node26" class="node"><title>25 &#45; __Relation__</title>
<ellipse fill="#f78465" stroke="black" cx="883" cy="-265" rx="94.9596" ry="18.3848"/>
<text text-anchor="middle" x="883" y="-261.4" font-family="Times Roman,serif" font-size="14.00">25 &#45; __Relation__</text>
</g>
<!-- 9 &#45; Port_Output&#45;&gt;25 &#45; __Relation__ -->
<g id="edge42" class="edge"><title>9 &#45; Port_Output&#45;&gt;25 &#45; __Relation__</title>
<path fill="none" stroke="black" d="M882.252,-320.327C882.361,-312.264 882.491,-302.648 882.612,-293.711"/>
<polygon fill="black" stroke="black" points="886.112,-293.714 882.748,-283.667 879.113,-293.619 886.112,-293.714"/>
</g>
<!-- 10 &#45; Port_Output -->
<g id="node11" class="node"><title>10 &#45; Port_Output</title>
<ellipse fill="coral" stroke="black" cx="721" cy="-807" rx="94.7523" ry="18.3848"/>
<text text-anchor="middle" x="721" y="-803.4" font-family="Times Roman,serif" font-size="14.00">10 &#45; Port_Output</text>
</g>
<!-- 27 &#45; __Relation__ -->
<g id="node28" class="node"><title>27 &#45; __Relation__</title>
<ellipse fill="#f78465" stroke="black" cx="521" cy="-733" rx="94.9596" ry="18.3848"/>
<text text-anchor="middle" x="521" y="-729.4" font-family="Times Roman,serif" font-size="14.00">27 &#45; __Relation__</text>
</g>
<!-- 10 &#45; Port_Output&#45;&gt;27 &#45; __Relation__ -->
<g id="edge50" class="edge"><title>10 &#45; Port_Output&#45;&gt;27 &#45; __Relation__</title>
<path fill="none" stroke="black" d="M676.614,-790.577C646.577,-779.464 606.726,-764.719 574.872,-752.933"/>
<polygon fill="black" stroke="black" points="575.856,-749.565 565.262,-749.377 573.426,-756.13 575.856,-749.565"/>
</g>
<!-- 28 &#45; __Relation__ -->
<g id="node29" class="node"><title>28 &#45; __Relation__</title>
<ellipse fill="#f78465" stroke="black" cx="732" cy="-733" rx="94.9596" ry="18.3848"/>
<text text-anchor="middle" x="732" y="-729.4" font-family="Times Roman,serif" font-size="14.00">28 &#45; __Relation__</text>
</g>
<!-- 10 &#45; Port_Output&#45;&gt;28 &#45; __Relation__ -->
<g id="edge54" class="edge"><title>10 &#45; Port_Output&#45;&gt;28 &#45; __Relation__</title>
<path fill="none" stroke="black" d="M723.776,-788.327C724.974,-780.264 726.404,-770.648 727.732,-761.711"/>
<polygon fill="black" stroke="black" points="731.217,-762.073 729.225,-751.667 724.293,-761.044 731.217,-762.073"/>
</g>
<!-- 11 &#45; __Block_Outport__&#45;&gt;7 &#45; Port_Output -->
<g id="edge4" class="edge"><title>11 &#45; __Block_Outport__&#45;&gt;7 &#45; Port_Output</title>
<path fill="none" stroke="black" d="M298.738,-394.327C298.194,-386.264 297.544,-376.648 296.94,-367.711"/>
<polygon fill="black" stroke="black" points="300.428,-367.409 296.261,-357.667 293.444,-367.881 300.428,-367.409"/>
</g>
<!-- 12 &#45; __Block_Outport__&#45;&gt;8 &#45; Port_Output -->
<g id="edge8" class="edge"><title>12 &#45; __Block_Outport__&#45;&gt;8 &#45; Port_Output</title>
<path fill="none" stroke="black" d="M233.738,-862.327C233.194,-854.264 232.544,-844.648 231.94,-835.711"/>
<polygon fill="black" stroke="black" points="235.428,-835.409 231.261,-825.667 228.444,-835.881 235.428,-835.409"/>
</g>
<!-- 13 &#45; __Block_Outport__&#45;&gt;9 &#45; Port_Output -->
<g id="edge12" class="edge"><title>13 &#45; __Block_Outport__&#45;&gt;9 &#45; Port_Output</title>
<path fill="none" stroke="black" d="M880.505,-394.327C880.723,-386.264 880.982,-376.648 881.224,-367.711"/>
<polygon fill="black" stroke="black" points="884.724,-367.758 881.495,-357.667 877.726,-367.569 884.724,-367.758"/>
</g>
<!-- 14 &#45; __Block_Outport__&#45;&gt;10 &#45; Port_Output -->
<g id="edge16" class="edge"><title>14 &#45; __Block_Outport__&#45;&gt;10 &#45; Port_Output</title>
<path fill="none" stroke="black" d="M721,-862.327C721,-854.264 721,-844.648 721,-835.711"/>
<polygon fill="black" stroke="black" points="724.5,-835.667 721,-825.667 717.5,-835.667 724.5,-835.667"/>
</g>
<!-- 15 &#45; Port_Input -->
<g id="node16" class="node"><title>15 &#45; Port_Input</title>
<ellipse fill="lightyellow" stroke="black" cx="227" cy="-659" rx="85.7684" ry="18.3848"/>
<text text-anchor="middle" x="227" y="-655.4" font-family="Times Roman,serif" font-size="14.00">15 &#45; Port_Input</text>
</g>
<!-- 20 &#45; __Block_Inport__ -->
<g id="node21" class="node"><title>20 &#45; __Block_Inport__</title>
<ellipse fill="#b94a62" stroke="black" cx="225" cy="-585" rx="116.172" ry="18.3848"/>
<text text-anchor="middle" x="225" y="-581.4" font-family="Times Roman,serif" font-size="14.00">20 &#45; __Block_Inport__</text>
</g>
<!-- 15 &#45; Port_Input&#45;&gt;20 &#45; __Block_Inport__ -->
<g id="edge64" class="edge"><title>15 &#45; Port_Input&#45;&gt;20 &#45; __Block_Inport__</title>
<path fill="none" stroke="black" d="M226.495,-640.327C226.277,-632.264 226.018,-622.648 225.776,-613.711"/>
<polygon fill="black" stroke="black" points="229.274,-613.569 225.505,-603.667 222.276,-613.758 229.274,-613.569"/>
</g>
<!-- 16 &#45; Port_Input -->
<g id="node17" class="node"><title>16 &#45; Port_Input</title>
<ellipse fill="lightyellow" stroke="black" cx="518" cy="-659" rx="85.7684" ry="18.3848"/>
<text text-anchor="middle" x="518" y="-655.4" font-family="Times Roman,serif" font-size="14.00">16 &#45; Port_Input</text>
</g>
<!-- 21 &#45; __Block_Inport__ -->
<g id="node22" class="node"><title>21 &#45; __Block_Inport__</title>
<ellipse fill="#b94a62" stroke="black" cx="513" cy="-585" rx="116.172" ry="18.3848"/>
<text text-anchor="middle" x="513" y="-581.4" font-family="Times Roman,serif" font-size="14.00">21 &#45; __Block_Inport__</text>
</g>
<!-- 16 &#45; Port_Input&#45;&gt;21 &#45; __Block_Inport__ -->
<g id="edge68" class="edge"><title>16 &#45; Port_Input&#45;&gt;21 &#45; __Block_Inport__</title>
<path fill="none" stroke="black" d="M516.738,-640.327C516.194,-632.264 515.544,-622.648 514.94,-613.711"/>
<polygon fill="black" stroke="black" points="518.428,-613.409 514.261,-603.667 511.444,-613.881 518.428,-613.409"/>
</g>
<!-- 17 &#45; Port_Input -->
<g id="node18" class="node"><title>17 &#45; Port_Input</title>
<ellipse fill="lightyellow" stroke="black" cx="884" cy="-191" rx="85.7684" ry="18.3848"/>
<text text-anchor="middle" x="884" y="-187.4" font-family="Times Roman,serif" font-size="14.00">17 &#45; Port_Input</text>
</g>
<!-- 22 &#45; __Block_Inport__ -->
<g id="node23" class="node"><title>22 &#45; __Block_Inport__</title>
<ellipse fill="#b94a62" stroke="black" cx="889" cy="-117" rx="116.172" ry="18.3848"/>
<text text-anchor="middle" x="889" y="-113.4" font-family="Times Roman,serif" font-size="14.00">22 &#45; __Block_Inport__</text>
</g>
<!-- 17 &#45; Port_Input&#45;&gt;22 &#45; __Block_Inport__ -->
<g id="edge72" class="edge"><title>17 &#45; Port_Input&#45;&gt;22 &#45; __Block_Inport__</title>
<path fill="none" stroke="black" d="M885.262,-172.327C885.806,-164.264 886.456,-154.648 887.06,-145.711"/>
<polygon fill="black" stroke="black" points="890.556,-145.881 887.739,-135.667 883.572,-145.409 890.556,-145.881"/>
</g>
<!-- 18 &#45; Port_Input -->
<g id="node19" class="node"><title>18 &#45; Port_Input</title>
<ellipse fill="lightyellow" stroke="black" cx="742" cy="-659" rx="85.7684" ry="18.3848"/>
<text text-anchor="middle" x="742" y="-655.4" font-family="Times Roman,serif" font-size="14.00">18 &#45; Port_Input</text>
</g>
<!-- 23 &#45; __Block_Inport__ -->
<g id="node24" class="node"><title>23 &#45; __Block_Inport__</title>
<ellipse fill="#b94a62" stroke="black" cx="763" cy="-585" rx="116.172" ry="18.3848"/>
<text text-anchor="middle" x="763" y="-581.4" font-family="Times Roman,serif" font-size="14.00">23 &#45; __Block_Inport__</text>
</g>
<!-- 18 &#45; Port_Input&#45;&gt;23 &#45; __Block_Inport__ -->
<g id="edge76" class="edge"><title>18 &#45; Port_Input&#45;&gt;23 &#45; __Block_Inport__</title>
<path fill="none" stroke="black" d="M747.299,-640.327C749.612,-632.176 752.376,-622.438 754.935,-613.42"/>
<polygon fill="black" stroke="black" points="758.339,-614.243 757.703,-603.667 751.605,-612.332 758.339,-614.243"/>
</g>
<!-- 19 &#45; Port_Input -->
<g id="node20" class="node"><title>19 &#45; Port_Input</title>
<ellipse fill="lightyellow" stroke="black" cx="266" cy="-191" rx="85.7684" ry="18.3848"/>
<text text-anchor="middle" x="266" y="-187.4" font-family="Times Roman,serif" font-size="14.00">19 &#45; Port_Input</text>
</g>
<!-- 24 &#45; __Block_Inport__ -->
<g id="node25" class="node"><title>24 &#45; __Block_Inport__</title>
<ellipse fill="#b94a62" stroke="black" cx="228" cy="-117" rx="116.172" ry="18.3848"/>
<text text-anchor="middle" x="228" y="-113.4" font-family="Times Roman,serif" font-size="14.00">24 &#45; __Block_Inport__</text>
</g>
<!-- 19 &#45; Port_Input&#45;&gt;24 &#45; __Block_Inport__ -->
<g id="edge80" class="edge"><title>19 &#45; Port_Input&#45;&gt;24 &#45; __Block_Inport__</title>
<path fill="none" stroke="black" d="M256.411,-172.327C252.136,-164.001 247.01,-154.019 242.296,-144.84"/>
<polygon fill="black" stroke="black" points="245.268,-142.964 237.586,-135.667 239.041,-146.162 245.268,-142.964"/>
</g>
<!-- 20 &#45; __Block_Inport__&#45;&gt;0 &#45; Product -->
<g id="edge62" class="edge"><title>20 &#45; __Block_Inport__&#45;&gt;0 &#45; Product</title>
<path fill="none" stroke="black" d="M241.708,-566.339C252.652,-554.116 267.1,-537.979 279.109,-524.567"/>
<polygon fill="black" stroke="black" points="281.789,-526.82 285.852,-517.035 276.574,-522.15 281.789,-526.82"/>
</g>
<!-- 21 &#45; __Block_Inport__&#45;&gt;0 &#45; Product -->
<g id="edge66" class="edge"><title>21 &#45; __Block_Inport__&#45;&gt;0 &#45; Product</title>
<path fill="none" stroke="black" d="M470.555,-567.7C435.315,-553.337 385.248,-532.931 348.843,-518.092"/>
<polygon fill="black" stroke="black" points="350.012,-514.789 339.431,-514.256 347.37,-521.272 350.012,-514.789"/>
</g>
<!-- 22 &#45; __Block_Inport__&#45;&gt;3 &#45; Scope -->
<g id="edge70" class="edge"><title>22 &#45; __Block_Inport__&#45;&gt;3 &#45; Scope</title>
<path fill="none" stroke="black" d="M904.623,-98.3393C914.761,-86.2299 928.114,-70.2806 939.28,-56.9437"/>
<polygon fill="black" stroke="black" points="942.165,-58.9494 945.901,-49.035 936.798,-54.4558 942.165,-58.9494"/>
</g>
<!-- 23 &#45; __Block_Inport__&#45;&gt;1 &#45; Gain\n Gain = 1.0 -->
<g id="edge74" class="edge"><title>23 &#45; __Block_Inport__&#45;&gt;1 &#45; Gain\n Gain = 1.0</title>
<path fill="none" stroke="black" d="M787.813,-566.762C801.75,-556.517 819.558,-543.427 835.799,-531.489"/>
<polygon fill="black" stroke="black" points="838.136,-534.115 844.121,-525.373 833.991,-528.475 838.136,-534.115"/>
</g>
<!-- 24 &#45; __Block_Inport__&#45;&gt;5 &#45; Gain\n Gain = 1.0 -->
<g id="edge78" class="edge"><title>24 &#45; __Block_Inport__&#45;&gt;5 &#45; Gain\n Gain = 1.0</title>
<path fill="none" stroke="black" d="M212.16,-98.3393C204.608,-89.4425 195.297,-78.4729 186.398,-67.9896"/>
<polygon fill="black" stroke="black" points="188.849,-65.4689 179.71,-60.1101 183.513,-69.9988 188.849,-65.4689"/>
</g>
<!-- 25 &#45; __Relation__&#45;&gt;17 &#45; Port_Input -->
<g id="edge44" class="edge"><title>25 &#45; __Relation__&#45;&gt;17 &#45; Port_Input</title>
<path fill="none" stroke="black" d="M883.252,-246.327C883.361,-238.264 883.491,-228.648 883.612,-219.711"/>
<polygon fill="black" stroke="black" points="887.112,-219.714 883.748,-209.667 880.113,-219.619 887.112,-219.714"/>
</g>
<!-- 26 &#45; __Relation__&#45;&gt;19 &#45; Port_Input -->
<g id="edge48" class="edge"><title>26 &#45; __Relation__&#45;&gt;19 &#45; Port_Input</title>
<path fill="none" stroke="black" d="M273.477,-246.327C272.387,-238.264 271.088,-228.648 269.88,-219.711"/>
<polygon fill="black" stroke="black" points="273.33,-219.109 268.523,-209.667 266.393,-220.046 273.33,-219.109"/>
</g>
<!-- 27 &#45; __Relation__&#45;&gt;16 &#45; Port_Input -->
<g id="edge52" class="edge"><title>27 &#45; __Relation__&#45;&gt;16 &#45; Port_Input</title>
<path fill="none" stroke="black" d="M520.243,-714.327C519.916,-706.264 519.526,-696.648 519.164,-687.711"/>
<polygon fill="black" stroke="black" points="522.659,-687.517 518.757,-677.667 515.665,-687.801 522.659,-687.517"/>
</g>
<!-- 28 &#45; __Relation__&#45;&gt;18 &#45; Port_Input -->
<g id="edge56" class="edge"><title>28 &#45; __Relation__&#45;&gt;18 &#45; Port_Input</title>
<path fill="none" stroke="black" d="M734.523,-714.327C735.613,-706.264 736.912,-696.648 738.12,-687.711"/>
<polygon fill="black" stroke="black" points="741.607,-688.046 739.477,-677.667 734.67,-687.109 741.607,-688.046"/>
</g>
<!-- 29 &#45; __Relation__&#45;&gt;15 &#45; Port_Input -->
<g id="edge60" class="edge"><title>29 &#45; __Relation__&#45;&gt;15 &#45; Port_Input</title>
<path fill="none" stroke="black" d="M227.748,-714.327C227.639,-706.264 227.509,-696.648 227.388,-687.711"/>
<polygon fill="black" stroke="black" points="230.887,-687.619 227.252,-677.667 223.888,-687.714 230.887,-687.619"/>
</g>
<!-- 30 &#45; __Contains__&#45;&gt;0 &#45; Product -->
<g id="edge20" class="edge"><title>30 &#45; __Contains__&#45;&gt;0 &#45; Product</title>
<path fill="none" stroke="black" d="M452.444,-862.914C420.227,-837.777 369,-789.004 369,-733 369,-733 369,-733 369,-659 369,-616.813 366.878,-604.664 350,-566 343.643,-551.437 333.769,-536.902 324.626,-525.11"/>
<polygon fill="black" stroke="black" points="327.146,-522.657 318.158,-517.047 321.685,-527.038 327.146,-522.657"/>
</g>
<!-- 31 &#45; __Contains__&#45;&gt;3 &#45; Scope -->
<g id="edge24" class="edge"><title>31 &#45; __Contains__&#45;&gt;3 &#45; Scope</title>
<path fill="none" stroke="black" d="M1034,-788.309C1034,-760.234 1034,-705.507 1034,-659 1034,-659 1034,-659 1034,-191 1034,-148.722 1032.03,-136.242 1014,-98 1006.91,-82.9582 995.862,-68.2398 985.685,-56.447"/>
<polygon fill="black" stroke="black" points="988.11,-53.9081 978.838,-48.7822 982.89,-58.5716 988.11,-53.9081"/>
</g>
<!-- 32 &#45; __Contains__&#45;&gt;4 &#45; Constant\n Value = 1.0 -->
<g id="edge28" class="edge"><title>32 &#45; __Contains__&#45;&gt;4 &#45; Constant\n Value = 1.0</title>
<path fill="none" stroke="black" d="M342.311,-1034.34C340.777,-1026.58 338.93,-1017.23 337.107,-1008.01"/>
<polygon fill="black" stroke="black" points="340.528,-1007.27 335.155,-998.137 333.661,-1008.63 340.528,-1007.27"/>
</g>
<!-- 33 &#45; __Contains__&#45;&gt;1 &#45; Gain\n Gain = 1.0 -->
<g id="edge32" class="edge"><title>33 &#45; __Contains__&#45;&gt;1 &#45; Gain\n Gain = 1.0</title>
<path fill="none" stroke="black" d="M888.984,-1034.27C895.324,-1002.77 907,-937.145 907,-881 907,-881 907,-881 907,-659 907,-618.075 898.305,-572.072 890.783,-539.934"/>
<polygon fill="black" stroke="black" points="894.138,-538.914 888.395,-530.011 887.332,-540.552 894.138,-538.914"/>
</g>
<!-- 34 &#45; __Contains__&#45;&gt;5 &#45; Gain\n Gain = 1.0 -->
<g id="edge36" class="edge"><title>34 &#45; __Contains__&#45;&gt;5 &#45; Gain\n Gain = 1.0</title>
<path fill="none" stroke="black" d="M95.5294,-948.356C90.2988,-918.588 81,-858.434 81,-807 81,-807 81,-807 81,-191 81,-148.526 84.6726,-136.317 103,-98 108.012,-87.521 114.874,-77.1378 121.968,-67.7865"/>
<polygon fill="black" stroke="black" points="124.777,-69.8769 128.223,-59.8578 119.281,-65.5415 124.777,-69.8769"/>
</g>
<!-- 35 &#45; __Contains__&#45;&gt;6 &#45; Constant\n Value = 1.0 -->
<g id="edge40" class="edge"><title>35 &#45; __Contains__&#45;&gt;6 &#45; Constant\n Value = 1.0</title>
<path fill="none" stroke="black" d="M651.255,-1034.34C652.609,-1026.58 654.238,-1017.23 655.846,-1008.01"/>
<polygon fill="black" stroke="black" points="659.299,-1008.59 657.569,-998.137 652.403,-1007.39 659.299,-1008.59"/>
</g>
</g>
</svg>
