<?xml version="1.0" encoding="UTF-8" standalone="no"?>
<!DOCTYPE svg PUBLIC "-//W3C//DTD SVG 1.1//EN"
 "http://www.w3.org/Graphics/SVG/1.1/DTD/svg11.dtd">
<!-- Generated by graphviz version 2.26.3 (20100126.1600)
 -->
<!-- Title: HDeadBlock1 Pages: 1 -->
<svg width="1315pt" height="1550pt"
 viewBox="0.00 0.00 1315.00 1550.00" xmlns="http://www.w3.org/2000/svg" xmlns:xlink="http://www.w3.org/1999/xlink">
<g id="graph1" class="graph" transform="scale(1 1) rotate(0) translate(4 1546)">
<title>HDeadBlock1</title>
<polygon fill="white" stroke="white" points="-4,5 -4,-1546 1312,-1546 1312,5 -4,5"/>
<!-- 0 &#45; Outport -->
<g id="node1" class="node"><title>0 &#45; Outport</title>
<ellipse fill="#eedd82" stroke="black" cx="593" cy="-19" rx="67.1751" ry="18.3848"/>
<text text-anchor="middle" x="593" y="-15.4" font-family="Times Roman,serif" font-size="14.00">0 &#45; Outport</text>
</g>
<!-- 1 &#45; Product -->
<g id="node2" class="node"><title>1 &#45; Product</title>
<ellipse fill="lightblue" stroke="black" cx="861" cy="-463" rx="67.1751" ry="18.3848"/>
<text text-anchor="middle" x="861" y="-459.4" font-family="Times Roman,serif" font-size="14.00">1 &#45; Product</text>
</g>
<!-- 15 &#45; __Block_Outport__ -->
<g id="node16" class="node"><title>15 &#45; __Block_Outport__</title>
<ellipse fill="#b94a62" stroke="black" cx="861" cy="-389" rx="127.986" ry="18.3848"/>
<text text-anchor="middle" x="861" y="-385.4" font-family="Times Roman,serif" font-size="14.00">15 &#45; __Block_Outport__</text>
</g>
<!-- 1 &#45; Product&#45;&gt;15 &#45; __Block_Outport__ -->
<g id="edge2" class="edge"><title>1 &#45; Product&#45;&gt;15 &#45; __Block_Outport__</title>
<path fill="none" stroke="black" d="M861,-444.327C861,-436.264 861,-426.648 861,-417.711"/>
<polygon fill="black" stroke="black" points="864.5,-417.667 861,-407.667 857.5,-417.667 864.5,-417.667"/>
</g>
<!-- 2 &#45; Switch -->
<g id="node3" class="node"><title>2 &#45; Switch</title>
<ellipse fill="lightblue" stroke="black" cx="480" cy="-907" rx="61.0181" ry="18.3848"/>
<text text-anchor="middle" x="480" y="-903.4" font-family="Times Roman,serif" font-size="14.00">2 &#45; Switch</text>
</g>
<!-- 19 &#45; __Block_Outport__ -->
<g id="node20" class="node"><title>19 &#45; __Block_Outport__</title>
<ellipse fill="#b94a62" stroke="black" cx="549" cy="-833" rx="126.78" ry="18.3848"/>
<text text-anchor="middle" x="549" y="-829.4" font-family="Times Roman,serif" font-size="14.00">19 &#45; __Block_Outport__</text>
</g>
<!-- 2 &#45; Switch&#45;&gt;19 &#45; __Block_Outport__ -->
<g id="edge18" class="edge"><title>2 &#45; Switch&#45;&gt;19 &#45; __Block_Outport__</title>
<path fill="none" stroke="black" d="M496.703,-889.087C505.157,-880.02 515.575,-868.847 524.881,-858.867"/>
<polygon fill="black" stroke="black" points="527.47,-861.222 531.73,-851.521 522.351,-856.448 527.47,-861.222"/>
</g>
<!-- 3 &#45; Scope -->
<g id="node4" class="node"><title>3 &#45; Scope</title>
<ellipse fill="lightblue" stroke="black" cx="1087" cy="-19" rx="57.9828" ry="18.3848"/>
<text text-anchor="middle" x="1087" y="-15.4" font-family="Times Roman,serif" font-size="14.00">3 &#45; Scope</text>
</g>
<!-- 4 &#45; SubSystem -->
<g id="node5" class="node"><title>4 &#45; SubSystem</title>
<ellipse fill="lightgreen" stroke="black" cx="657" cy="-1523" rx="84.8528" ry="18.3848"/>
<text text-anchor="middle" x="657" y="-1519.4" font-family="Times Roman,serif" font-size="14.00">4 &#45; SubSystem</text>
</g>
<!-- 42 &#45; __Contains__ -->
<g id="node43" class="node"><title>42 &#45; __Contains__</title>
<ellipse fill="lightgray" stroke="black" cx="99" cy="-833" rx="99.201" ry="18.3848"/>
<text text-anchor="middle" x="99" y="-829.4" font-family="Times Roman,serif" font-size="14.00">42 &#45; __Contains__</text>
</g>
<!-- 4 &#45; SubSystem&#45;&gt;42 &#45; __Contains__ -->
<g id="edge26" class="edge"><title>4 &#45; SubSystem&#45;&gt;42 &#45; __Contains__</title>
<path fill="none" stroke="black" d="M573.079,-1519.76C398.017,-1510.7 10,-1477.7 10,-1363 10,-1363 10,-1363 10,-981 10,-932.492 45.5474,-886.184 71.7112,-858.67"/>
<polygon fill="black" stroke="black" points="74.3116,-861.017 78.8045,-851.422 69.3087,-856.121 74.3116,-861.017"/>
</g>
<!-- 43 &#45; __Contains__ -->
<g id="node44" class="node"><title>43 &#45; __Contains__</title>
<ellipse fill="lightgray" stroke="black" cx="870" cy="-759" rx="98.9949" ry="18.3848"/>
<text text-anchor="middle" x="870" y="-755.4" font-family="Times Roman,serif" font-size="14.00">43 &#45; __Contains__</text>
</g>
<!-- 4 &#45; SubSystem&#45;&gt;43 &#45; __Contains__ -->
<g id="edge30" class="edge"><title>4 &#45; SubSystem&#45;&gt;43 &#45; __Contains__</title>
<path fill="none" stroke="black" d="M730.308,-1513.53C785.451,-1504.79 854.554,-1489.84 873,-1468 970.386,-1352.69 893,-1279.93 893,-1129 893,-1129 893,-1129 893,-907 893,-865.083 883.88,-817.271 877.126,-787.609"/>
<polygon fill="black" stroke="black" points="880.457,-786.483 874.766,-777.547 873.642,-788.082 880.457,-786.483"/>
</g>
<!-- 44 &#45; __Contains__ -->
<g id="node45" class="node"><title>44 &#45; __Contains__</title>
<ellipse fill="lightgray" stroke="black" cx="333" cy="-1449" rx="99.201" ry="18.3848"/>
<text text-anchor="middle" x="333" y="-1445.4" font-family="Times Roman,serif" font-size="14.00">44 &#45; __Contains__</text>
</g>
<!-- 4 &#45; SubSystem&#45;&gt;44 &#45; __Contains__ -->
<g id="edge34" class="edge"><title>4 &#45; SubSystem&#45;&gt;44 &#45; __Contains__</title>
<path fill="none" stroke="black" d="M598.326,-1509.6C544.283,-1497.26 463.91,-1478.9 405.793,-1465.63"/>
<polygon fill="black" stroke="black" points="406.468,-1462.19 395.94,-1463.38 404.909,-1469.01 406.468,-1462.19"/>
</g>
<!-- 45 &#45; __Contains__ -->
<g id="node46" class="node"><title>45 &#45; __Contains__</title>
<ellipse fill="lightgray" stroke="black" cx="1048" cy="-1449" rx="99.201" ry="18.3848"/>
<text text-anchor="middle" x="1048" y="-1445.4" font-family="Times Roman,serif" font-size="14.00">45 &#45; __Contains__</text>
</g>
<!-- 4 &#45; SubSystem&#45;&gt;45 &#45; __Contains__ -->
<g id="edge38" class="edge"><title>4 &#45; SubSystem&#45;&gt;45 &#45; __Contains__</title>
<path fill="none" stroke="black" d="M721.566,-1510.78C789.204,-1497.98 895.54,-1477.85 968.346,-1464.08"/>
<polygon fill="black" stroke="black" points="969.215,-1467.47 978.389,-1462.17 967.913,-1460.6 969.215,-1467.47"/>
</g>
<!-- 46 &#45; __Contains__ -->
<g id="node47" class="node"><title>46 &#45; __Contains__</title>
<ellipse fill="lightgray" stroke="black" cx="765" cy="-1449" rx="98.9949" ry="18.3848"/>
<text text-anchor="middle" x="765" y="-1445.4" font-family="Times Roman,serif" font-size="14.00">46 &#45; __Contains__</text>
</g>
<!-- 4 &#45; SubSystem&#45;&gt;46 &#45; __Contains__ -->
<g id="edge42" class="edge"><title>4 &#45; SubSystem&#45;&gt;46 &#45; __Contains__</title>
<path fill="none" stroke="black" d="M682.869,-1505.28C697.085,-1495.53 714.911,-1483.32 730.319,-1472.76"/>
<polygon fill="black" stroke="black" points="732.321,-1475.63 738.592,-1467.09 728.364,-1469.86 732.321,-1475.63"/>
</g>
<!-- 47 &#45; __Contains__ -->
<g id="node48" class="node"><title>47 &#45; __Contains__</title>
<ellipse fill="lightgray" stroke="black" cx="138" cy="-1363" rx="99.9096" ry="18.3848"/>
<text text-anchor="middle" x="138" y="-1359.4" font-family="Times Roman,serif" font-size="14.00">47 &#45; __Contains__</text>
</g>
<!-- 4 &#45; SubSystem&#45;&gt;47 &#45; __Contains__ -->
<g id="edge46" class="edge"><title>4 &#45; SubSystem&#45;&gt;47 &#45; __Contains__</title>
<path fill="none" stroke="black" d="M573.423,-1519.61C465.107,-1513.99 283.217,-1500.01 225,-1468 192.626,-1450.2 167.391,-1415.08 152.623,-1390.37"/>
<polygon fill="black" stroke="black" points="155.514,-1388.38 147.482,-1381.47 149.452,-1391.88 155.514,-1388.38"/>
</g>
<!-- 48 &#45; __Contains__ -->
<g id="node49" class="node"><title>48 &#45; __Contains__</title>
<ellipse fill="lightgray" stroke="black" cx="1208" cy="-907" rx="98.9949" ry="18.3848"/>
<text text-anchor="middle" x="1208" y="-903.4" font-family="Times Roman,serif" font-size="14.00">48 &#45; __Contains__</text>
</g>
<!-- 4 &#45; SubSystem&#45;&gt;48 &#45; __Contains__ -->
<g id="edge50" class="edge"><title>4 &#45; SubSystem&#45;&gt;48 &#45; __Contains__</title>
<path fill="none" stroke="black" d="M739.221,-1518.27C872.127,-1509.98 1122.72,-1491.47 1156,-1468 1198.4,-1438.1 1207,-1414.88 1207,-1363 1207,-1363 1207,-1363 1207,-1055 1207,-1013.58 1207.4,-965.638 1207.69,-935.813"/>
<polygon fill="black" stroke="black" points="1211.19,-935.725 1207.79,-925.69 1204.19,-935.654 1211.19,-935.725"/>
</g>
<!-- 49 &#45; __Contains__ -->
<g id="node50" class="node"><title>49 &#45; __Contains__</title>
<ellipse fill="lightgray" stroke="black" cx="549" cy="-1449" rx="98.9949" ry="18.3848"/>
<text text-anchor="middle" x="549" y="-1445.4" font-family="Times Roman,serif" font-size="14.00">49 &#45; __Contains__</text>
</g>
<!-- 4 &#45; SubSystem&#45;&gt;49 &#45; __Contains__ -->
<g id="edge54" class="edge"><title>4 &#45; SubSystem&#45;&gt;49 &#45; __Contains__</title>
<path fill="none" stroke="black" d="M631.131,-1505.28C616.915,-1495.53 599.089,-1483.32 583.681,-1472.76"/>
<polygon fill="black" stroke="black" points="585.636,-1469.86 575.408,-1467.09 581.679,-1475.63 585.636,-1469.86"/>
</g>
<!-- 5 &#45; Constant\n Value = 10.0 -->
<g id="node6" class="node"><title>5 &#45; Constant\n Value = 10.0</title>
<ellipse fill="lightblue" stroke="black" cx="336" cy="-1363" rx="79.9031" ry="31.1127"/>
<text text-anchor="middle" x="336" y="-1368.4" font-family="Times Roman,serif" font-size="14.00">5 &#45; Constant</text>
<text text-anchor="middle" x="336" y="-1350.4" font-family="Times Roman,serif" font-size="14.00"> Value = 10.0</text>
</g>
<!-- 16 &#45; __Block_Outport__ -->
<g id="node17" class="node"><title>16 &#45; __Block_Outport__</title>
<ellipse fill="#b94a62" stroke="black" cx="209" cy="-1277" rx="126.78" ry="18.3848"/>
<text text-anchor="middle" x="209" y="-1273.4" font-family="Times Roman,serif" font-size="14.00">16 &#45; __Block_Outport__</text>
</g>
<!-- 5 &#45; Constant\n Value = 10.0&#45;&gt;16 &#45; __Block_Outport__ -->
<g id="edge6" class="edge"><title>5 &#45; Constant\n Value = 10.0&#45;&gt;16 &#45; __Block_Outport__</title>
<path fill="none" stroke="black" d="M296.165,-1336.03C279.593,-1324.8 260.512,-1311.88 244.435,-1301"/>
<polygon fill="black" stroke="black" points="246.09,-1297.89 235.847,-1295.18 242.165,-1303.69 246.09,-1297.89"/>
</g>
<!-- 6 &#45; Inport -->
<g id="node7" class="node"><title>6 &#45; Inport</title>
<ellipse fill="#eedd82" stroke="black" cx="1049" cy="-1277" rx="57.9828" ry="18.3848"/>
<text text-anchor="middle" x="1049" y="-1273.4" font-family="Times Roman,serif" font-size="14.00">6 &#45; Inport</text>
</g>
<!-- 17 &#45; __Block_Outport__ -->
<g id="node18" class="node"><title>17 &#45; __Block_Outport__</title>
<ellipse fill="#b94a62" stroke="black" cx="1049" cy="-1203" rx="128.193" ry="18.3848"/>
<text text-anchor="middle" x="1049" y="-1199.4" font-family="Times Roman,serif" font-size="14.00">17 &#45; __Block_Outport__</text>
</g>
<!-- 6 &#45; Inport&#45;&gt;17 &#45; __Block_Outport__ -->
<g id="edge10" class="edge"><title>6 &#45; Inport&#45;&gt;17 &#45; __Block_Outport__</title>
<path fill="none" stroke="black" d="M1049,-1258.33C1049,-1250.26 1049,-1240.65 1049,-1231.71"/>
<polygon fill="black" stroke="black" points="1052.5,-1231.67 1049,-1221.67 1045.5,-1231.67 1052.5,-1231.67"/>
</g>
<!-- 7 &#45; Inport -->
<g id="node8" class="node"><title>7 &#45; Inport</title>
<ellipse fill="#eedd82" stroke="black" cx="754" cy="-1363" rx="58.1882" ry="18.3848"/>
<text text-anchor="middle" x="754" y="-1359.4" font-family="Times Roman,serif" font-size="14.00">7 &#45; Inport</text>
</g>
<!-- 18 &#45; __Block_Outport__ -->
<g id="node19" class="node"><title>18 &#45; __Block_Outport__</title>
<ellipse fill="#b94a62" stroke="black" cx="751" cy="-1277" rx="126.78" ry="18.3848"/>
<text text-anchor="middle" x="751" y="-1273.4" font-family="Times Roman,serif" font-size="14.00">18 &#45; __Block_Outport__</text>
</g>
<!-- 7 &#45; Inport&#45;&gt;18 &#45; __Block_Outport__ -->
<g id="edge14" class="edge"><title>7 &#45; Inport&#45;&gt;18 &#45; __Block_Outport__</title>
<path fill="none" stroke="black" d="M753.349,-1344.34C752.956,-1333.07 752.447,-1318.47 752.003,-1305.75"/>
<polygon fill="black" stroke="black" points="755.496,-1305.5 751.65,-1295.62 748.501,-1305.74 755.496,-1305.5"/>
</g>
<!-- 8 &#45; Constant\n Value = 123.7 -->
<g id="node9" class="node"><title>8 &#45; Constant\n Value = 123.7</title>
<ellipse fill="lightblue" stroke="black" cx="525" cy="-1363" rx="86.9741" ry="31.1127"/>
<text text-anchor="middle" x="525" y="-1368.4" font-family="Times Roman,serif" font-size="14.00">8 &#45; Constant</text>
<text text-anchor="middle" x="525" y="-1350.4" font-family="Times Roman,serif" font-size="14.00"> Value = 123.7</text>
</g>
<!-- 20 &#45; __Block_Outport__ -->
<g id="node21" class="node"><title>20 &#45; __Block_Outport__</title>
<ellipse fill="#b94a62" stroke="black" cx="480" cy="-1277" rx="126.072" ry="18.3848"/>
<text text-anchor="middle" x="480" y="-1273.4" font-family="Times Roman,serif" font-size="14.00">20 &#45; __Block_Outport__</text>
</g>
<!-- 8 &#45; Constant\n Value = 123.7&#45;&gt;20 &#45; __Block_Outport__ -->
<g id="edge22" class="edge"><title>8 &#45; Constant\n Value = 123.7&#45;&gt;20 &#45; __Block_Outport__</title>
<path fill="none" stroke="black" d="M509.008,-1332.44C504.208,-1323.26 498.976,-1313.27 494.293,-1304.32"/>
<polygon fill="black" stroke="black" points="497.391,-1302.69 489.654,-1295.45 491.189,-1305.93 497.391,-1302.69"/>
</g>
<!-- 9 &#45; Port_Output -->
<g id="node10" class="node"><title>9 &#45; Port_Output</title>
<ellipse fill="coral" stroke="black" cx="861" cy="-315" rx="87.889" ry="18.3848"/>
<text text-anchor="middle" x="861" y="-311.4" font-family="Times Roman,serif" font-size="14.00">9 &#45; Port_Output</text>
</g>
<!-- 39 &#45; __Relation__ -->
<g id="node40" class="node"><title>39 &#45; __Relation__</title>
<ellipse fill="#f78465" stroke="black" cx="725" cy="-241" rx="96.1665" ry="18.3848"/>
<text text-anchor="middle" x="725" y="-237.4" font-family="Times Roman,serif" font-size="14.00">39 &#45; __Relation__</text>
</g>
<!-- 9 &#45; Port_Output&#45;&gt;39 &#45; __Relation__ -->
<g id="edge74" class="edge"><title>9 &#45; Port_Output&#45;&gt;39 &#45; __Relation__</title>
<path fill="none" stroke="black" d="M829.114,-297.65C810.323,-287.426 786.349,-274.381 766.143,-263.387"/>
<polygon fill="black" stroke="black" points="767.614,-260.203 757.157,-258.497 764.268,-266.351 767.614,-260.203"/>
</g>
<!-- 40 &#45; __Relation__ -->
<g id="node41" class="node"><title>40 &#45; __Relation__</title>
<ellipse fill="#f78465" stroke="black" cx="980" cy="-241" rx="96.8736" ry="18.3848"/>
<text text-anchor="middle" x="980" y="-237.4" font-family="Times Roman,serif" font-size="14.00">40 &#45; __Relation__</text>
</g>
<!-- 9 &#45; Port_Output&#45;&gt;40 &#45; __Relation__ -->
<g id="edge78" class="edge"><title>9 &#45; Port_Output&#45;&gt;40 &#45; __Relation__</title>
<path fill="none" stroke="black" d="M889.201,-297.463C905.121,-287.563 925.22,-275.065 942.458,-264.346"/>
<polygon fill="black" stroke="black" points="944.531,-267.178 951.174,-258.925 940.834,-261.234 944.531,-267.178"/>
</g>
<!-- 10 &#45; Port_Output -->
<g id="node11" class="node"><title>10 &#45; Port_Output</title>
<ellipse fill="coral" stroke="black" cx="218" cy="-1203" rx="94.7523" ry="18.3848"/>
<text text-anchor="middle" x="218" y="-1199.4" font-family="Times Roman,serif" font-size="14.00">10 &#45; Port_Output</text>
</g>
<!-- 37 &#45; __Relation__ -->
<g id="node38" class="node"><title>37 &#45; __Relation__</title>
<ellipse fill="#f78465" stroke="black" cx="220" cy="-1129" rx="96.8736" ry="18.3848"/>
<text text-anchor="middle" x="220" y="-1125.4" font-family="Times Roman,serif" font-size="14.00">37 &#45; __Relation__</text>
</g>
<!-- 10 &#45; Port_Output&#45;&gt;37 &#45; __Relation__ -->
<g id="edge66" class="edge"><title>10 &#45; Port_Output&#45;&gt;37 &#45; __Relation__</title>
<path fill="none" stroke="black" d="M218.505,-1184.33C218.723,-1176.26 218.982,-1166.65 219.224,-1157.71"/>
<polygon fill="black" stroke="black" points="222.724,-1157.76 219.495,-1147.67 215.726,-1157.57 222.724,-1157.76"/>
</g>
<!-- 11 &#45; Port_Output -->
<g id="node12" class="node"><title>11 &#45; Port_Output</title>
<ellipse fill="coral" stroke="black" cx="1041" cy="-1129" rx="96.1665" ry="18.3848"/>
<text text-anchor="middle" x="1041" y="-1125.4" font-family="Times Roman,serif" font-size="14.00">11 &#45; Port_Output</text>
</g>
<!-- 41 &#45; __Relation__ -->
<g id="node42" class="node"><title>41 &#45; __Relation__</title>
<ellipse fill="#f78465" stroke="black" cx="1026" cy="-1055" rx="97.0803" ry="18.3848"/>
<text text-anchor="middle" x="1026" y="-1051.4" font-family="Times Roman,serif" font-size="14.00">41 &#45; __Relation__</text>
</g>
<!-- 11 &#45; Port_Output&#45;&gt;41 &#45; __Relation__ -->
<g id="edge82" class="edge"><title>11 &#45; Port_Output&#45;&gt;41 &#45; __Relation__</title>
<path fill="none" stroke="black" d="M1037.21,-1110.33C1035.58,-1102.26 1033.63,-1092.65 1031.82,-1083.71"/>
<polygon fill="black" stroke="black" points="1035.2,-1082.77 1029.78,-1073.67 1028.34,-1084.16 1035.2,-1082.77"/>
</g>
<!-- 12 &#45; Port_Output -->
<g id="node13" class="node"><title>12 &#45; Port_Output</title>
<ellipse fill="coral" stroke="black" cx="742" cy="-1203" rx="94.9596" ry="18.3848"/>
<text text-anchor="middle" x="742" y="-1199.4" font-family="Times Roman,serif" font-size="14.00">12 &#45; Port_Output</text>
</g>
<!-- 36 &#45; __Relation__ -->
<g id="node37" class="node"><title>36 &#45; __Relation__</title>
<ellipse fill="#f78465" stroke="black" cx="738" cy="-1129" rx="96.1665" ry="18.3848"/>
<text text-anchor="middle" x="738" y="-1125.4" font-family="Times Roman,serif" font-size="14.00">36 &#45; __Relation__</text>
</g>
<!-- 12 &#45; Port_Output&#45;&gt;36 &#45; __Relation__ -->
<g id="edge62" class="edge"><title>12 &#45; Port_Output&#45;&gt;36 &#45; __Relation__</title>
<path fill="none" stroke="black" d="M740.991,-1184.33C740.555,-1176.26 740.035,-1166.65 739.552,-1157.71"/>
<polygon fill="black" stroke="black" points="743.044,-1157.46 739.009,-1147.67 736.054,-1157.84 743.044,-1157.46"/>
</g>
<!-- 13 &#45; Port_Output -->
<g id="node14" class="node"><title>13 &#45; Port_Output</title>
<ellipse fill="coral" stroke="black" cx="617" cy="-759" rx="94.7523" ry="18.3848"/>
<text text-anchor="middle" x="617" y="-755.4" font-family="Times Roman,serif" font-size="14.00">13 &#45; Port_Output</text>
</g>
<!-- 38 &#45; __Relation__ -->
<g id="node39" class="node"><title>38 &#45; __Relation__</title>
<ellipse fill="#f78465" stroke="black" cx="629" cy="-685" rx="96.1665" ry="18.3848"/>
<text text-anchor="middle" x="629" y="-681.4" font-family="Times Roman,serif" font-size="14.00">38 &#45; __Relation__</text>
</g>
<!-- 13 &#45; Port_Output&#45;&gt;38 &#45; __Relation__ -->
<g id="edge70" class="edge"><title>13 &#45; Port_Output&#45;&gt;38 &#45; __Relation__</title>
<path fill="none" stroke="black" d="M620.028,-740.327C621.336,-732.264 622.895,-722.648 624.344,-713.711"/>
<polygon fill="black" stroke="black" points="627.827,-714.099 625.973,-703.667 620.917,-712.978 627.827,-714.099"/>
</g>
<!-- 14 &#45; Port_Output -->
<g id="node15" class="node"><title>14 &#45; Port_Output</title>
<ellipse fill="coral" stroke="black" cx="480" cy="-1203" rx="94.9596" ry="18.3848"/>
<text text-anchor="middle" x="480" y="-1199.4" font-family="Times Roman,serif" font-size="14.00">14 &#45; Port_Output</text>
</g>
<!-- 35 &#45; __Relation__ -->
<g id="node36" class="node"><title>35 &#45; __Relation__</title>
<ellipse fill="#f78465" stroke="black" cx="480" cy="-1129" rx="96.8736" ry="18.3848"/>
<text text-anchor="middle" x="480" y="-1125.4" font-family="Times Roman,serif" font-size="14.00">35 &#45; __Relation__</text>
</g>
<!-- 14 &#45; Port_Output&#45;&gt;35 &#45; __Relation__ -->
<g id="edge58" class="edge"><title>14 &#45; Port_Output&#45;&gt;35 &#45; __Relation__</title>
<path fill="none" stroke="black" d="M480,-1184.33C480,-1176.26 480,-1166.65 480,-1157.71"/>
<polygon fill="black" stroke="black" points="483.5,-1157.67 480,-1147.67 476.5,-1157.67 483.5,-1157.67"/>
</g>
<!-- 15 &#45; __Block_Outport__&#45;&gt;9 &#45; Port_Output -->
<g id="edge4" class="edge"><title>15 &#45; __Block_Outport__&#45;&gt;9 &#45; Port_Output</title>
<path fill="none" stroke="black" d="M861,-370.327C861,-362.264 861,-352.648 861,-343.711"/>
<polygon fill="black" stroke="black" points="864.5,-343.667 861,-333.667 857.5,-343.667 864.5,-343.667"/>
</g>
<!-- 16 &#45; __Block_Outport__&#45;&gt;10 &#45; Port_Output -->
<g id="edge8" class="edge"><title>16 &#45; __Block_Outport__&#45;&gt;10 &#45; Port_Output</title>
<path fill="none" stroke="black" d="M211.271,-1258.33C212.252,-1250.26 213.421,-1240.65 214.508,-1231.71"/>
<polygon fill="black" stroke="black" points="217.997,-1232.02 215.73,-1221.67 211.048,-1231.17 217.997,-1232.02"/>
</g>
<!-- 17 &#45; __Block_Outport__&#45;&gt;11 &#45; Port_Output -->
<g id="edge12" class="edge"><title>17 &#45; __Block_Outport__&#45;&gt;11 &#45; Port_Output</title>
<path fill="none" stroke="black" d="M1046.98,-1184.33C1046.11,-1176.26 1045.07,-1166.65 1044.1,-1157.71"/>
<polygon fill="black" stroke="black" points="1047.57,-1157.23 1043.02,-1147.67 1040.61,-1157.99 1047.57,-1157.23"/>
</g>
<!-- 18 &#45; __Block_Outport__&#45;&gt;12 &#45; Port_Output -->
<g id="edge16" class="edge"><title>18 &#45; __Block_Outport__&#45;&gt;12 &#45; Port_Output</title>
<path fill="none" stroke="black" d="M748.729,-1258.33C747.748,-1250.26 746.579,-1240.65 745.492,-1231.71"/>
<polygon fill="black" stroke="black" points="748.952,-1231.17 744.27,-1221.67 742.003,-1232.02 748.952,-1231.17"/>
</g>
<!-- 19 &#45; __Block_Outport__&#45;&gt;13 &#45; Port_Output -->
<g id="edge20" class="edge"><title>19 &#45; __Block_Outport__&#45;&gt;13 &#45; Port_Output</title>
<path fill="none" stroke="black" d="M566.159,-814.327C574.355,-805.408 584.298,-794.588 593.209,-784.89"/>
<polygon fill="black" stroke="black" points="595.893,-787.143 600.082,-777.411 590.738,-782.406 595.893,-787.143"/>
</g>
<!-- 20 &#45; __Block_Outport__&#45;&gt;14 &#45; Port_Output -->
<g id="edge24" class="edge"><title>20 &#45; __Block_Outport__&#45;&gt;14 &#45; Port_Output</title>
<path fill="none" stroke="black" d="M480,-1258.33C480,-1250.26 480,-1240.65 480,-1231.71"/>
<polygon fill="black" stroke="black" points="483.5,-1231.67 480,-1221.67 476.5,-1231.67 483.5,-1231.67"/>
</g>
<!-- 21 &#45; Port_Input -->
<g id="node22" class="node"><title>21 &#45; Port_Input</title>
<ellipse fill="lightyellow" stroke="black" cx="709" cy="-167" rx="85.7684" ry="18.3848"/>
<text text-anchor="middle" x="709" y="-163.4" font-family="Times Roman,serif" font-size="14.00">21 &#45; Port_Input</text>
</g>
<!-- 28 &#45; __Block_Inport__ -->
<g id="node29" class="node"><title>28 &#45; __Block_Inport__</title>
<ellipse fill="#b94a62" stroke="black" cx="703" cy="-93" rx="118.087" ry="18.3848"/>
<text text-anchor="middle" x="703" y="-89.4" font-family="Times Roman,serif" font-size="14.00">28 &#45; __Block_Inport__</text>
</g>
<!-- 21 &#45; Port_Input&#45;&gt;28 &#45; __Block_Inport__ -->
<g id="edge88" class="edge"><title>21 &#45; Port_Input&#45;&gt;28 &#45; __Block_Inport__</title>
<path fill="none" stroke="black" d="M707.486,-148.327C706.832,-140.264 706.053,-130.648 705.328,-121.711"/>
<polygon fill="black" stroke="black" points="708.81,-121.352 704.514,-111.667 701.833,-121.918 708.81,-121.352"/>
</g>
<!-- 22 &#45; Port_Input -->
<g id="node23" class="node"><title>22 &#45; Port_Input</title>
<ellipse fill="lightyellow" stroke="black" cx="672" cy="-611" rx="85.7684" ry="18.3848"/>
<text text-anchor="middle" x="672" y="-607.4" font-family="Times Roman,serif" font-size="14.00">22 &#45; Port_Input</text>
</g>
<!-- 29 &#45; __Block_Inport__ -->
<g id="node30" class="node"><title>29 &#45; __Block_Inport__</title>
<ellipse fill="#b94a62" stroke="black" cx="694" cy="-537" rx="118.087" ry="18.3848"/>
<text text-anchor="middle" x="694" y="-533.4" font-family="Times Roman,serif" font-size="14.00">29 &#45; __Block_Inport__</text>
</g>
<!-- 22 &#45; Port_Input&#45;&gt;29 &#45; __Block_Inport__ -->
<g id="edge92" class="edge"><title>22 &#45; Port_Input&#45;&gt;29 &#45; __Block_Inport__</title>
<path fill="none" stroke="black" d="M677.552,-592.327C679.975,-584.176 682.87,-574.438 685.551,-565.42"/>
<polygon fill="black" stroke="black" points="688.955,-566.25 688.45,-555.667 682.246,-564.255 688.955,-566.25"/>
</g>
<!-- 23 &#45; Port_Input -->
<g id="node24" class="node"><title>23 &#45; Port_Input</title>
<ellipse fill="lightyellow" stroke="black" cx="1006" cy="-907" rx="85.0596" ry="18.3848"/>
<text text-anchor="middle" x="1006" y="-903.4" font-family="Times Roman,serif" font-size="14.00">23 &#45; Port_Input</text>
</g>
<!-- 30 &#45; __Block_Inport__ -->
<g id="node31" class="node"><title>30 &#45; __Block_Inport__</title>
<ellipse fill="#b94a62" stroke="black" cx="1006" cy="-685" rx="116.88" ry="18.3848"/>
<text text-anchor="middle" x="1006" y="-681.4" font-family="Times Roman,serif" font-size="14.00">30 &#45; __Block_Inport__</text>
</g>
<!-- 23 &#45; Port_Input&#45;&gt;30 &#45; __Block_Inport__ -->
<g id="edge96" class="edge"><title>23 &#45; Port_Input&#45;&gt;30 &#45; __Block_Inport__</title>
<path fill="none" stroke="black" d="M1006,-888.454C1006,-849.768 1006,-760.22 1006,-713.906"/>
<polygon fill="black" stroke="black" points="1009.5,-713.649 1006,-703.649 1002.5,-713.649 1009.5,-713.649"/>
</g>
<!-- 24 &#45; Port_Input -->
<g id="node25" class="node"><title>24 &#45; Port_Input</title>
<ellipse fill="lightyellow" stroke="black" cx="736" cy="-1055" rx="85.7684" ry="18.3848"/>
<text text-anchor="middle" x="736" y="-1051.4" font-family="Times Roman,serif" font-size="14.00">24 &#45; Port_Input</text>
</g>
<!-- 31 &#45; __Block_Inport__ -->
<g id="node32" class="node"><title>31 &#45; __Block_Inport__</title>
<ellipse fill="#b94a62" stroke="black" cx="734" cy="-981" rx="118.087" ry="18.3848"/>
<text text-anchor="middle" x="734" y="-977.4" font-family="Times Roman,serif" font-size="14.00">31 &#45; __Block_Inport__</text>
</g>
<!-- 24 &#45; Port_Input&#45;&gt;31 &#45; __Block_Inport__ -->
<g id="edge100" class="edge"><title>24 &#45; Port_Input&#45;&gt;31 &#45; __Block_Inport__</title>
<path fill="none" stroke="black" d="M735.495,-1036.33C735.277,-1028.26 735.018,-1018.65 734.776,-1009.71"/>
<polygon fill="black" stroke="black" points="738.274,-1009.57 734.505,-999.667 731.276,-1009.76 738.274,-1009.57"/>
</g>
<!-- 25 &#45; Port_Input -->
<g id="node26" class="node"><title>25 &#45; Port_Input</title>
<ellipse fill="lightyellow" stroke="black" cx="222" cy="-1055" rx="85.7684" ry="18.3848"/>
<text text-anchor="middle" x="222" y="-1051.4" font-family="Times Roman,serif" font-size="14.00">25 &#45; Port_Input</text>
</g>
<!-- 32 &#45; __Block_Inport__ -->
<g id="node33" class="node"><title>32 &#45; __Block_Inport__</title>
<ellipse fill="#b94a62" stroke="black" cx="226" cy="-981" rx="118.087" ry="18.3848"/>
<text text-anchor="middle" x="226" y="-977.4" font-family="Times Roman,serif" font-size="14.00">32 &#45; __Block_Inport__</text>
</g>
<!-- 25 &#45; Port_Input&#45;&gt;32 &#45; __Block_Inport__ -->
<g id="edge104" class="edge"><title>25 &#45; Port_Input&#45;&gt;32 &#45; __Block_Inport__</title>
<path fill="none" stroke="black" d="M223.009,-1036.33C223.445,-1028.26 223.965,-1018.65 224.448,-1009.71"/>
<polygon fill="black" stroke="black" points="227.946,-1009.84 224.991,-999.667 220.956,-1009.46 227.946,-1009.84"/>
</g>
<!-- 26 &#45; Port_Input -->
<g id="node27" class="node"><title>26 &#45; Port_Input</title>
<ellipse fill="lightyellow" stroke="black" cx="480" cy="-1055" rx="85.0596" ry="18.3848"/>
<text text-anchor="middle" x="480" y="-1051.4" font-family="Times Roman,serif" font-size="14.00">26 &#45; Port_Input</text>
</g>
<!-- 33 &#45; __Block_Inport__ -->
<g id="node34" class="node"><title>33 &#45; __Block_Inport__</title>
<ellipse fill="#b94a62" stroke="black" cx="480" cy="-981" rx="116.88" ry="18.3848"/>
<text text-anchor="middle" x="480" y="-977.4" font-family="Times Roman,serif" font-size="14.00">33 &#45; __Block_Inport__</text>
</g>
<!-- 26 &#45; Port_Input&#45;&gt;33 &#45; __Block_Inport__ -->
<g id="edge108" class="edge"><title>26 &#45; Port_Input&#45;&gt;33 &#45; __Block_Inport__</title>
<path fill="none" stroke="black" d="M480,-1036.33C480,-1028.26 480,-1018.65 480,-1009.71"/>
<polygon fill="black" stroke="black" points="483.5,-1009.67 480,-999.667 476.5,-1009.67 483.5,-1009.67"/>
</g>
<!-- 27 &#45; Port_Input -->
<g id="node28" class="node"><title>27 &#45; Port_Input</title>
<ellipse fill="lightyellow" stroke="black" cx="985" cy="-167" rx="85.7684" ry="18.3848"/>
<text text-anchor="middle" x="985" y="-163.4" font-family="Times Roman,serif" font-size="14.00">27 &#45; Port_Input</text>
</g>
<!-- 34 &#45; __Block_Inport__ -->
<g id="node35" class="node"><title>34 &#45; __Block_Inport__</title>
<ellipse fill="#b94a62" stroke="black" cx="995" cy="-93" rx="118.087" ry="18.3848"/>
<text text-anchor="middle" x="995" y="-89.4" font-family="Times Roman,serif" font-size="14.00">34 &#45; __Block_Inport__</text>
</g>
<!-- 27 &#45; Port_Input&#45;&gt;34 &#45; __Block_Inport__ -->
<g id="edge112" class="edge"><title>27 &#45; Port_Input&#45;&gt;34 &#45; __Block_Inport__</title>
<path fill="none" stroke="black" d="M987.523,-148.327C988.613,-140.264 989.912,-130.648 991.12,-121.711"/>
<polygon fill="black" stroke="black" points="994.607,-122.046 992.477,-111.667 987.67,-121.109 994.607,-122.046"/>
</g>
<!-- 28 &#45; __Block_Inport__&#45;&gt;0 &#45; Outport -->
<g id="edge86" class="edge"><title>28 &#45; __Block_Inport__&#45;&gt;0 &#45; Outport</title>
<path fill="none" stroke="black" d="M676.091,-74.8976C661.279,-64.9332 642.752,-52.4694 626.953,-41.8411"/>
<polygon fill="black" stroke="black" points="628.748,-38.8307 618.498,-36.1529 624.841,-44.6387 628.748,-38.8307"/>
</g>
<!-- 29 &#45; __Block_Inport__&#45;&gt;1 &#45; Product -->
<g id="edge90" class="edge"><title>29 &#45; __Block_Inport__&#45;&gt;1 &#45; Product</title>
<path fill="none" stroke="black" d="M733.577,-519.463C758.403,-508.462 790.471,-494.252 816.225,-482.84"/>
<polygon fill="black" stroke="black" points="817.678,-486.025 825.403,-478.773 814.843,-479.625 817.678,-486.025"/>
</g>
<!-- 30 &#45; __Block_Inport__&#45;&gt;1 &#45; Product -->
<g id="edge94" class="edge"><title>30 &#45; __Block_Inport__&#45;&gt;1 &#45; Product</title>
<path fill="none" stroke="black" d="M993.887,-666.454C968.235,-627.18 908.346,-535.489 878.522,-489.826"/>
<polygon fill="black" stroke="black" points="881.376,-487.795 872.977,-481.337 875.515,-491.623 881.376,-487.795"/>
</g>
<!-- 31 &#45; __Block_Inport__&#45;&gt;2 &#45; Switch -->
<g id="edge98" class="edge"><title>31 &#45; __Block_Inport__&#45;&gt;2 &#45; Switch</title>
<path fill="none" stroke="black" d="M677.944,-964.669C635.069,-952.178 576.312,-935.059 533.965,-922.722"/>
<polygon fill="black" stroke="black" points="534.694,-919.289 524.114,-919.852 532.735,-926.009 534.694,-919.289"/>
</g>
<!-- 32 &#45; __Block_Inport__&#45;&gt;2 &#45; Switch -->
<g id="edge102" class="edge"><title>32 &#45; __Block_Inport__&#45;&gt;2 &#45; Switch</title>
<path fill="none" stroke="black" d="M282.056,-964.669C324.931,-952.178 383.688,-935.059 426.035,-922.722"/>
<polygon fill="black" stroke="black" points="427.265,-926.009 435.886,-919.852 425.306,-919.289 427.265,-926.009"/>
</g>
<!-- 33 &#45; __Block_Inport__&#45;&gt;2 &#45; Switch -->
<g id="edge106" class="edge"><title>33 &#45; __Block_Inport__&#45;&gt;2 &#45; Switch</title>
<path fill="none" stroke="black" d="M480,-962.327C480,-954.264 480,-944.648 480,-935.711"/>
<polygon fill="black" stroke="black" points="483.5,-935.667 480,-925.667 476.5,-935.667 483.5,-935.667"/>
</g>
<!-- 34 &#45; __Block_Inport__&#45;&gt;3 &#45; Scope -->
<g id="edge110" class="edge"><title>34 &#45; __Block_Inport__&#45;&gt;3 &#45; Scope</title>
<path fill="none" stroke="black" d="M1017.74,-74.7079C1029.7,-65.0879 1044.51,-53.1784 1057.36,-42.8434"/>
<polygon fill="black" stroke="black" points="1059.87,-45.3139 1065.47,-36.3191 1055.48,-39.8594 1059.87,-45.3139"/>
</g>
<!-- 35 &#45; __Relation__&#45;&gt;26 &#45; Port_Input -->
<g id="edge60" class="edge"><title>35 &#45; __Relation__&#45;&gt;26 &#45; Port_Input</title>
<path fill="none" stroke="black" d="M480,-1110.33C480,-1102.26 480,-1092.65 480,-1083.71"/>
<polygon fill="black" stroke="black" points="483.5,-1083.67 480,-1073.67 476.5,-1083.67 483.5,-1083.67"/>
</g>
<!-- 36 &#45; __Relation__&#45;&gt;24 &#45; Port_Input -->
<g id="edge64" class="edge"><title>36 &#45; __Relation__&#45;&gt;24 &#45; Port_Input</title>
<path fill="none" stroke="black" d="M737.495,-1110.33C737.277,-1102.26 737.018,-1092.65 736.776,-1083.71"/>
<polygon fill="black" stroke="black" points="740.274,-1083.57 736.505,-1073.67 733.276,-1083.76 740.274,-1083.57"/>
</g>
<!-- 37 &#45; __Relation__&#45;&gt;25 &#45; Port_Input -->
<g id="edge68" class="edge"><title>37 &#45; __Relation__&#45;&gt;25 &#45; Port_Input</title>
<path fill="none" stroke="black" d="M220.505,-1110.33C220.723,-1102.26 220.982,-1092.65 221.224,-1083.71"/>
<polygon fill="black" stroke="black" points="224.724,-1083.76 221.495,-1073.67 217.726,-1083.57 224.724,-1083.76"/>
</g>
<!-- 38 &#45; __Relation__&#45;&gt;22 &#45; Port_Input -->
<g id="edge72" class="edge"><title>38 &#45; __Relation__&#45;&gt;22 &#45; Port_Input</title>
<path fill="none" stroke="black" d="M639.851,-666.327C644.777,-657.849 650.701,-647.654 656.114,-638.338"/>
<polygon fill="black" stroke="black" points="659.304,-639.816 661.302,-629.411 653.251,-636.299 659.304,-639.816"/>
</g>
<!-- 39 &#45; __Relation__&#45;&gt;21 &#45; Port_Input -->
<g id="edge76" class="edge"><title>39 &#45; __Relation__&#45;&gt;21 &#45; Port_Input</title>
<path fill="none" stroke="black" d="M720.963,-222.327C719.219,-214.264 717.14,-204.648 715.208,-195.711"/>
<polygon fill="black" stroke="black" points="718.571,-194.702 713.036,-185.667 711.729,-196.181 718.571,-194.702"/>
</g>
<!-- 40 &#45; __Relation__&#45;&gt;27 &#45; Port_Input -->
<g id="edge80" class="edge"><title>40 &#45; __Relation__&#45;&gt;27 &#45; Port_Input</title>
<path fill="none" stroke="black" d="M981.262,-222.327C981.806,-214.264 982.456,-204.648 983.06,-195.711"/>
<polygon fill="black" stroke="black" points="986.556,-195.881 983.739,-185.667 979.572,-195.409 986.556,-195.881"/>
</g>
<!-- 41 &#45; __Relation__&#45;&gt;23 &#45; Port_Input -->
<g id="edge84" class="edge"><title>41 &#45; __Relation__&#45;&gt;23 &#45; Port_Input</title>
<path fill="none" stroke="black" d="M1023.47,-1036.26C1020.04,-1010.9 1013.9,-965.439 1009.89,-935.75"/>
<polygon fill="black" stroke="black" points="1013.32,-935.033 1008.51,-925.592 1006.38,-935.971 1013.32,-935.033"/>
</g>
<!-- 42 &#45; __Contains__&#45;&gt;0 &#45; Outport -->
<g id="edge28" class="edge"><title>42 &#45; __Contains__&#45;&gt;0 &#45; Outport</title>
<path fill="none" stroke="black" d="M171.49,-820.291C282.525,-798.736 482,-750.849 482,-685 482,-685 482,-685 482,-167 482,-114.592 527.096,-68.8656 559.8,-42.5944"/>
<polygon fill="black" stroke="black" points="562.082,-45.2534 567.812,-36.3423 557.775,-39.7347 562.082,-45.2534"/>
</g>
<!-- 43 &#45; __Contains__&#45;&gt;1 &#45; Product -->
<g id="edge32" class="edge"><title>43 &#45; __Contains__&#45;&gt;1 &#45; Product</title>
<path fill="none" stroke="black" d="M869.437,-740.484C867.915,-690.441 863.712,-552.207 861.877,-491.837"/>
<polygon fill="black" stroke="black" points="865.365,-491.398 861.563,-481.509 858.368,-491.611 865.365,-491.398"/>
</g>
<!-- 44 &#45; __Contains__&#45;&gt;5 &#45; Constant\n Value = 10.0 -->
<g id="edge36" class="edge"><title>44 &#45; __Contains__&#45;&gt;5 &#45; Constant\n Value = 10.0</title>
<path fill="none" stroke="black" d="M333.651,-1430.34C333.919,-1422.66 334.241,-1413.43 334.559,-1404.31"/>
<polygon fill="black" stroke="black" points="338.063,-1404.25 334.914,-1394.14 331.067,-1404.01 338.063,-1404.25"/>
</g>
<!-- 45 &#45; __Contains__&#45;&gt;6 &#45; Inport -->
<g id="edge40" class="edge"><title>45 &#45; __Contains__&#45;&gt;6 &#45; Inport</title>
<path fill="none" stroke="black" d="M1048.11,-1430.27C1048.28,-1400.28 1048.63,-1341.3 1048.83,-1305.89"/>
<polygon fill="black" stroke="black" points="1052.33,-1305.73 1048.89,-1295.71 1045.33,-1305.69 1052.33,-1305.73"/>
</g>
<!-- 46 &#45; __Contains__&#45;&gt;7 &#45; Inport -->
<g id="edge44" class="edge"><title>46 &#45; __Contains__&#45;&gt;7 &#45; Inport</title>
<path fill="none" stroke="black" d="M762.613,-1430.34C761.172,-1419.07 759.305,-1404.47 757.678,-1391.75"/>
<polygon fill="black" stroke="black" points="761.123,-1391.1 756.382,-1381.62 754.179,-1391.99 761.123,-1391.1"/>
</g>
<!-- 47 &#45; __Contains__&#45;&gt;2 &#45; Switch -->
<g id="edge48" class="edge"><title>47 &#45; __Contains__&#45;&gt;2 &#45; Switch</title>
<path fill="none" stroke="black" d="M114.693,-1344.94C100.475,-1332.66 83.1415,-1315.2 73,-1296 53.2989,-1258.7 54,-1245.19 54,-1203 54,-1203 54,-1203 54,-1055 54,-1009.08 61.9446,-989.117 99,-962 147.004,-926.871 312.474,-914.003 408.834,-909.422"/>
<polygon fill="black" stroke="black" points="409.253,-912.907 419.083,-908.954 408.934,-905.914 409.253,-912.907"/>
</g>
<!-- 48 &#45; __Contains__&#45;&gt;3 &#45; Scope -->
<g id="edge52" class="edge"><title>48 &#45; __Contains__&#45;&gt;3 &#45; Scope</title>
<path fill="none" stroke="black" d="M1201.85,-888.074C1193.34,-860.152 1179,-806.13 1179,-759 1179,-759 1179,-759 1179,-167 1179,-117.499 1141.42,-70.817 1114.3,-43.5712"/>
<polygon fill="black" stroke="black" points="1116.56,-40.8946 1106.96,-36.4157 1111.68,-45.9046 1116.56,-40.8946"/>
</g>
<!-- 49 &#45; __Contains__&#45;&gt;8 &#45; Constant\n Value = 123.7 -->
<g id="edge56" class="edge"><title>49 &#45; __Contains__&#45;&gt;8 &#45; Constant\n Value = 123.7</title>
<path fill="none" stroke="black" d="M543.792,-1430.34C541.626,-1422.58 539.019,-1413.23 536.446,-1404.01"/>
<polygon fill="black" stroke="black" points="539.749,-1402.83 533.689,-1394.14 533.006,-1404.71 539.749,-1402.83"/>
</g>
</g>
</svg>
