<?xml version="1.0" encoding="UTF-8" standalone="no"?>
<!DOCTYPE svg PUBLIC "-//W3C//DTD SVG 1.1//EN"
 "http://www.w3.org/Graphics/SVG/1.1/DTD/svg11.dtd">
<!-- Generated by graphviz version 2.26.3 (20100126.1600)
 -->
<!-- Title: HDeadBlock1_opt Pages: 1 -->
<svg width="2636pt" height="662pt"
 viewBox="0.00 0.00 2636.00 662.00" xmlns="http://www.w3.org/2000/svg" xmlns:xlink="http://www.w3.org/1999/xlink">
<g id="graph1" class="graph" transform="scale(1 1) rotate(0) translate(4 658)">
<title>HDeadBlock1_opt</title>
<polygon fill="white" stroke="white" points="-4,5 -4,-658 2633,-658 2633,5 -4,5"/>
<!-- 0 &#45; Outport -->
<g id="node1" class="node"><title>0 &#45; Outport</title>
<ellipse fill="#eedd82" stroke="black" cx="191" cy="-475" rx="67.1751" ry="18.3848"/>
<text text-anchor="middle" x="191" y="-471.4" font-family="Times Roman,serif" font-size="14.00">0 &#45; Outport</text>
</g>
<!-- 28 &#45; __Block_Inport__ -->
<g id="node29" class="node"><title>28 &#45; __Block_Inport__</title>
<ellipse fill="#b94a62" stroke="black" cx="146" cy="-315" rx="118.087" ry="18.3848"/>
<text text-anchor="middle" x="146" y="-311.4" font-family="Times Roman,serif" font-size="14.00">28 &#45; __Block_Inport__</text>
</g>
<!-- 0 &#45; Outport&#45;&gt;28 &#45; __Block_Inport__ -->
<g id="edge70" class="edge"><title>0 &#45; Outport&#45;&gt;28 &#45; __Block_Inport__</title>
<path fill="none" stroke="black" d="M185.75,-456.333C177.926,-428.513 163.146,-375.964 153.98,-343.372"/>
<polygon fill="black" stroke="black" points="157.294,-342.227 151.217,-333.548 150.555,-344.122 157.294,-342.227"/>
</g>
<!-- 1 &#45; Product -->
<g id="node2" class="node"><title>1 &#45; Product</title>
<ellipse fill="lightblue" stroke="black" cx="379" cy="-475" rx="67.1751" ry="18.3848"/>
<text text-anchor="middle" x="379" y="-471.4" font-family="Times Roman,serif" font-size="14.00">1 &#45; Product</text>
</g>
<!-- 15 &#45; __Block_Outport__ -->
<g id="node16" class="node"><title>15 &#45; __Block_Outport__</title>
<ellipse fill="#b94a62" stroke="black" cx="371" cy="-389" rx="127.986" ry="18.3848"/>
<text text-anchor="middle" x="371" y="-385.4" font-family="Times Roman,serif" font-size="14.00">15 &#45; __Block_Outport__</text>
</g>
<!-- 1 &#45; Product&#45;&gt;15 &#45; __Block_Outport__ -->
<g id="edge2" class="edge"><title>1 &#45; Product&#45;&gt;15 &#45; __Block_Outport__</title>
<path fill="none" stroke="black" d="M377.264,-456.339C376.216,-445.07 374.858,-430.474 373.675,-417.754"/>
<polygon fill="black" stroke="black" points="377.144,-417.257 372.732,-407.624 370.174,-417.906 377.144,-417.257"/>
</g>
<!-- 29 &#45; __Block_Inport__ -->
<g id="node30" class="node"><title>29 &#45; __Block_Inport__</title>
<ellipse fill="#b94a62" stroke="black" cx="596" cy="-93" rx="118.087" ry="18.3848"/>
<text text-anchor="middle" x="596" y="-89.4" font-family="Times Roman,serif" font-size="14.00">29 &#45; __Block_Inport__</text>
</g>
<!-- 1 &#45; Product&#45;&gt;29 &#45; __Block_Inport__ -->
<g id="edge72" class="edge"><title>1 &#45; Product&#45;&gt;29 &#45; __Block_Inport__</title>
<path fill="none" stroke="black" d="M334.409,-461.106C234.224,-429.251 0,-350.934 0,-315 0,-315 0,-315 0,-241 0,-177.992 49.3091,-173.332 107,-148 170.292,-120.208 348.966,-105.575 471.858,-98.5699"/>
<polygon fill="black" stroke="black" points="472.297,-102.051 482.086,-97.9971 471.906,-95.0618 472.297,-102.051"/>
</g>
<!-- 30 &#45; __Block_Inport__ -->
<g id="node31" class="node"><title>30 &#45; __Block_Inport__</title>
<ellipse fill="#b94a62" stroke="black" cx="676" cy="-389" rx="116.88" ry="18.3848"/>
<text text-anchor="middle" x="676" y="-385.4" font-family="Times Roman,serif" font-size="14.00">30 &#45; __Block_Inport__</text>
</g>
<!-- 1 &#45; Product&#45;&gt;30 &#45; __Block_Inport__ -->
<g id="edge74" class="edge"><title>1 &#45; Product&#45;&gt;30 &#45; __Block_Inport__</title>
<path fill="none" stroke="black" d="M425.406,-461.562C474.964,-447.212 553.924,-424.349 609.954,-408.124"/>
<polygon fill="black" stroke="black" points="611.155,-411.42 619.787,-405.277 609.208,-404.697 611.155,-411.42"/>
</g>
<!-- 2 &#45; Switch -->
<g id="node3" class="node"><title>2 &#45; Switch</title>
<ellipse fill="lightblue" stroke="black" cx="1573" cy="-315" rx="61.0181" ry="18.3848"/>
<text text-anchor="middle" x="1573" y="-311.4" font-family="Times Roman,serif" font-size="14.00">2 &#45; Switch</text>
</g>
<!-- 19 &#45; __Block_Outport__ -->
<g id="node20" class="node"><title>19 &#45; __Block_Outport__</title>
<ellipse fill="#b94a62" stroke="black" cx="1573" cy="-241" rx="126.78" ry="18.3848"/>
<text text-anchor="middle" x="1573" y="-237.4" font-family="Times Roman,serif" font-size="14.00">19 &#45; __Block_Outport__</text>
</g>
<!-- 2 &#45; Switch&#45;&gt;19 &#45; __Block_Outport__ -->
<g id="edge4" class="edge"><title>2 &#45; Switch&#45;&gt;19 &#45; __Block_Outport__</title>
<path fill="none" stroke="black" d="M1573,-296.327C1573,-288.264 1573,-278.648 1573,-269.711"/>
<polygon fill="black" stroke="black" points="1576.5,-269.667 1573,-259.667 1569.5,-269.667 1576.5,-269.667"/>
</g>
<!-- 31 &#45; __Block_Inport__ -->
<g id="node32" class="node"><title>31 &#45; __Block_Inport__</title>
<ellipse fill="#b94a62" stroke="black" cx="1836" cy="-241" rx="118.087" ry="18.3848"/>
<text text-anchor="middle" x="1836" y="-237.4" font-family="Times Roman,serif" font-size="14.00">31 &#45; __Block_Inport__</text>
</g>
<!-- 2 &#45; Switch&#45;&gt;31 &#45; __Block_Inport__ -->
<g id="edge76" class="edge"><title>2 &#45; Switch&#45;&gt;31 &#45; __Block_Inport__</title>
<path fill="none" stroke="black" d="M1617.91,-302.363C1659.28,-290.724 1721.22,-273.296 1768.53,-259.984"/>
<polygon fill="black" stroke="black" points="1769.71,-263.287 1778.39,-257.209 1767.82,-256.549 1769.71,-263.287"/>
</g>
<!-- 32 &#45; __Block_Inport__ -->
<g id="node33" class="node"><title>32 &#45; __Block_Inport__</title>
<ellipse fill="#b94a62" stroke="black" cx="1310" cy="-241" rx="118.087" ry="18.3848"/>
<text text-anchor="middle" x="1310" y="-237.4" font-family="Times Roman,serif" font-size="14.00">32 &#45; __Block_Inport__</text>
</g>
<!-- 2 &#45; Switch&#45;&gt;32 &#45; __Block_Inport__ -->
<g id="edge78" class="edge"><title>2 &#45; Switch&#45;&gt;32 &#45; __Block_Inport__</title>
<path fill="none" stroke="black" d="M1528.09,-302.363C1486.72,-290.724 1424.78,-273.296 1377.47,-259.984"/>
<polygon fill="black" stroke="black" points="1378.18,-256.549 1367.61,-257.209 1376.29,-263.287 1378.18,-256.549"/>
</g>
<!-- 33 &#45; __Block_Inport__ -->
<g id="node34" class="node"><title>33 &#45; __Block_Inport__</title>
<ellipse fill="#b94a62" stroke="black" cx="2299" cy="-241" rx="116.88" ry="18.3848"/>
<text text-anchor="middle" x="2299" y="-237.4" font-family="Times Roman,serif" font-size="14.00">33 &#45; __Block_Inport__</text>
</g>
<!-- 2 &#45; Switch&#45;&gt;33 &#45; __Block_Inport__ -->
<g id="edge80" class="edge"><title>2 &#45; Switch&#45;&gt;33 &#45; __Block_Inport__</title>
<path fill="none" stroke="black" d="M1626.97,-306.264C1650.3,-302.708 1677.95,-298.787 1703,-296 1911.22,-272.838 1964.84,-283.635 2173,-260 2184.05,-258.745 2195.62,-257.251 2207.08,-255.659"/>
<polygon fill="black" stroke="black" points="2207.69,-259.107 2217.1,-254.238 2206.71,-252.176 2207.69,-259.107"/>
</g>
<!-- 3 &#45; Scope -->
<g id="node4" class="node"><title>3 &#45; Scope</title>
<ellipse fill="lightblue" stroke="black" cx="626" cy="-475" rx="57.9828" ry="18.3848"/>
<text text-anchor="middle" x="626" y="-471.4" font-family="Times Roman,serif" font-size="14.00">3 &#45; Scope</text>
</g>
<!-- 34 &#45; __Block_Inport__ -->
<g id="node35" class="node"><title>34 &#45; __Block_Inport__</title>
<ellipse fill="#b94a62" stroke="black" cx="594" cy="-315" rx="118.087" ry="18.3848"/>
<text text-anchor="middle" x="594" y="-311.4" font-family="Times Roman,serif" font-size="14.00">34 &#45; __Block_Inport__</text>
</g>
<!-- 3 &#45; Scope&#45;&gt;34 &#45; __Block_Inport__ -->
<g id="edge82" class="edge"><title>3 &#45; Scope&#45;&gt;34 &#45; __Block_Inport__</title>
<path fill="none" stroke="black" d="M597.663,-458.75C580.373,-447.091 559.772,-429.642 550,-408 543.05,-392.607 544.41,-385.937 550,-370 553.681,-359.507 560.299,-349.528 567.303,-341.023"/>
<polygon fill="black" stroke="black" points="570.075,-343.171 574.053,-333.351 564.819,-338.547 570.075,-343.171"/>
</g>
<!-- 4 &#45; SubSystem -->
<g id="node5" class="node"><title>4 &#45; SubSystem</title>
<ellipse fill="lightgreen" stroke="black" cx="1068" cy="-635" rx="84.8528" ry="18.3848"/>
<text text-anchor="middle" x="1068" y="-631.4" font-family="Times Roman,serif" font-size="14.00">4 &#45; SubSystem</text>
</g>
<!-- 42 &#45; __Contains__ -->
<g id="node43" class="node"><title>42 &#45; __Contains__</title>
<ellipse fill="lightgray" stroke="black" cx="203" cy="-561" rx="99.201" ry="18.3848"/>
<text text-anchor="middle" x="203" y="-557.4" font-family="Times Roman,serif" font-size="14.00">42 &#45; __Contains__</text>
</g>
<!-- 4 &#45; SubSystem&#45;&gt;42 &#45; __Contains__ -->
<g id="edge20" class="edge"><title>4 &#45; SubSystem&#45;&gt;42 &#45; __Contains__</title>
<path fill="none" stroke="black" d="M986.754,-629.456C856.793,-620.39 594.163,-601.261 372,-580 347.589,-577.664 321.229,-574.844 296.753,-572.099"/>
<polygon fill="black" stroke="black" points="297.084,-568.615 286.754,-570.971 296.299,-575.57 297.084,-568.615"/>
</g>
<!-- 43 &#45; __Contains__ -->
<g id="node44" class="node"><title>43 &#45; __Contains__</title>
<ellipse fill="lightgray" stroke="black" cx="480" cy="-561" rx="98.9949" ry="18.3848"/>
<text text-anchor="middle" x="480" y="-557.4" font-family="Times Roman,serif" font-size="14.00">43 &#45; __Contains__</text>
</g>
<!-- 4 &#45; SubSystem&#45;&gt;43 &#45; __Contains__ -->
<g id="edge18" class="edge"><title>4 &#45; SubSystem&#45;&gt;43 &#45; __Contains__</title>
<path fill="none" stroke="black" d="M993.111,-626.2C903.767,-615.619 749.905,-597.14 618,-580 602.31,-577.961 585.627,-575.724 569.483,-573.522"/>
<polygon fill="black" stroke="black" points="569.896,-570.046 559.514,-572.158 568.947,-576.981 569.896,-570.046"/>
</g>
<!-- 44 &#45; __Contains__ -->
<g id="node45" class="node"><title>44 &#45; __Contains__</title>
<ellipse fill="lightgray" stroke="black" cx="1180" cy="-561" rx="99.201" ry="18.3848"/>
<text text-anchor="middle" x="1180" y="-557.4" font-family="Times Roman,serif" font-size="14.00">44 &#45; __Contains__</text>
</g>
<!-- 4 &#45; SubSystem&#45;&gt;44 &#45; __Contains__ -->
<g id="edge16" class="edge"><title>4 &#45; SubSystem&#45;&gt;44 &#45; __Contains__</title>
<path fill="none" stroke="black" d="M1094.83,-617.275C1109.68,-607.462 1128.33,-595.139 1144.39,-584.529"/>
<polygon fill="black" stroke="black" points="1146.59,-587.269 1153,-578.837 1142.73,-581.429 1146.59,-587.269"/>
</g>
<!-- 45 &#45; __Contains__ -->
<g id="node46" class="node"><title>45 &#45; __Contains__</title>
<ellipse fill="lightgray" stroke="black" cx="957" cy="-561" rx="99.201" ry="18.3848"/>
<text text-anchor="middle" x="957" y="-557.4" font-family="Times Roman,serif" font-size="14.00">45 &#45; __Contains__</text>
</g>
<!-- 4 &#45; SubSystem&#45;&gt;45 &#45; __Contains__ -->
<g id="edge14" class="edge"><title>4 &#45; SubSystem&#45;&gt;45 &#45; __Contains__</title>
<path fill="none" stroke="black" d="M1041.41,-617.275C1026.69,-607.462 1008.21,-595.139 992.293,-584.529"/>
<polygon fill="black" stroke="black" points="994.017,-581.472 983.755,-578.837 990.134,-587.296 994.017,-581.472"/>
</g>
<!-- 46 &#45; __Contains__ -->
<g id="node47" class="node"><title>46 &#45; __Contains__</title>
<ellipse fill="lightgray" stroke="black" cx="1677" cy="-561" rx="98.9949" ry="18.3848"/>
<text text-anchor="middle" x="1677" y="-557.4" font-family="Times Roman,serif" font-size="14.00">46 &#45; __Contains__</text>
</g>
<!-- 4 &#45; SubSystem&#45;&gt;46 &#45; __Contains__ -->
<g id="edge12" class="edge"><title>4 &#45; SubSystem&#45;&gt;46 &#45; __Contains__</title>
<path fill="none" stroke="black" d="M1144.99,-626.949C1239.88,-616.849 1405.99,-598.589 1548,-580 1561.64,-578.215 1576.07,-576.207 1590.14,-574.183"/>
<polygon fill="black" stroke="black" points="1590.92,-577.607 1600.32,-572.709 1589.92,-570.679 1590.92,-577.607"/>
</g>
<!-- 47 &#45; __Contains__ -->
<g id="node48" class="node"><title>47 &#45; __Contains__</title>
<ellipse fill="lightgray" stroke="black" cx="1439" cy="-561" rx="99.9096" ry="18.3848"/>
<text text-anchor="middle" x="1439" y="-557.4" font-family="Times Roman,serif" font-size="14.00">47 &#45; __Contains__</text>
</g>
<!-- 4 &#45; SubSystem&#45;&gt;47 &#45; __Contains__ -->
<g id="edge10" class="edge"><title>4 &#45; SubSystem&#45;&gt;47 &#45; __Contains__</title>
<path fill="none" stroke="black" d="M1130.94,-622.447C1194.38,-609.792 1292.46,-590.229 1360.85,-576.588"/>
<polygon fill="black" stroke="black" points="1361.59,-580.008 1370.72,-574.62 1360.23,-573.144 1361.59,-580.008"/>
</g>
<!-- 48 &#45; __Contains__ -->
<g id="node49" class="node"><title>48 &#45; __Contains__</title>
<ellipse fill="lightgray" stroke="black" cx="726" cy="-561" rx="98.9949" ry="18.3848"/>
<text text-anchor="middle" x="726" y="-557.4" font-family="Times Roman,serif" font-size="14.00">48 &#45; __Contains__</text>
</g>
<!-- 4 &#45; SubSystem&#45;&gt;48 &#45; __Contains__ -->
<g id="edge8" class="edge"><title>4 &#45; SubSystem&#45;&gt;48 &#45; __Contains__</title>
<path fill="none" stroke="black" d="M1007.64,-621.941C950.062,-609.481 863.145,-590.675 801.109,-577.252"/>
<polygon fill="black" stroke="black" points="801.503,-573.756 790.989,-575.062 800.023,-580.598 801.503,-573.756"/>
</g>
<!-- 49 &#45; __Contains__ -->
<g id="node50" class="node"><title>49 &#45; __Contains__</title>
<ellipse fill="lightgray" stroke="black" cx="1903" cy="-561" rx="98.9949" ry="18.3848"/>
<text text-anchor="middle" x="1903" y="-557.4" font-family="Times Roman,serif" font-size="14.00">49 &#45; __Contains__</text>
</g>
<!-- 4 &#45; SubSystem&#45;&gt;49 &#45; __Contains__ -->
<g id="edge6" class="edge"><title>4 &#45; SubSystem&#45;&gt;49 &#45; __Contains__</title>
<path fill="none" stroke="black" d="M1151.02,-630.877C1284.81,-623.728 1556.27,-607.14 1785,-580 1796.51,-578.634 1808.62,-576.96 1820.51,-575.177"/>
<polygon fill="black" stroke="black" points="1821.07,-578.631 1830.43,-573.658 1820.02,-571.711 1821.07,-578.631"/>
</g>
<!-- 5 &#45; Constant\n Value = 10.0 -->
<g id="node6" class="node"><title>5 &#45; Constant\n Value = 10.0</title>
<ellipse fill="lightblue" stroke="black" cx="1208" cy="-475" rx="79.9031" ry="31.1127"/>
<text text-anchor="middle" x="1208" y="-480.4" font-family="Times Roman,serif" font-size="14.00">5 &#45; Constant</text>
<text text-anchor="middle" x="1208" y="-462.4" font-family="Times Roman,serif" font-size="14.00"> Value = 10.0</text>
</g>
<!-- 16 &#45; __Block_Outport__ -->
<g id="node17" class="node"><title>16 &#45; __Block_Outport__</title>
<ellipse fill="#b94a62" stroke="black" cx="1212" cy="-389" rx="126.78" ry="18.3848"/>
<text text-anchor="middle" x="1212" y="-385.4" font-family="Times Roman,serif" font-size="14.00">16 &#45; __Block_Outport__</text>
</g>
<!-- 5 &#45; Constant\n Value = 10.0&#45;&gt;16 &#45; __Block_Outport__ -->
<g id="edge22" class="edge"><title>5 &#45; Constant\n Value = 10.0&#45;&gt;16 &#45; __Block_Outport__</title>
<path fill="none" stroke="black" d="M1209.44,-443.952C1209.84,-435.427 1210.27,-426.221 1210.66,-417.827"/>
<polygon fill="black" stroke="black" points="1214.16,-417.892 1211.13,-407.74 1207.17,-417.567 1214.16,-417.892"/>
</g>
<!-- 6 &#45; Inport -->
<g id="node7" class="node"><title>6 &#45; Inport</title>
<ellipse fill="#eedd82" stroke="black" cx="943" cy="-475" rx="57.9828" ry="18.3848"/>
<text text-anchor="middle" x="943" y="-471.4" font-family="Times Roman,serif" font-size="14.00">6 &#45; Inport</text>
</g>
<!-- 17 &#45; __Block_Outport__ -->
<g id="node18" class="node"><title>17 &#45; __Block_Outport__</title>
<ellipse fill="#b94a62" stroke="black" cx="939" cy="-389" rx="128.193" ry="18.3848"/>
<text text-anchor="middle" x="939" y="-385.4" font-family="Times Roman,serif" font-size="14.00">17 &#45; __Block_Outport__</text>
</g>
<!-- 6 &#45; Inport&#45;&gt;17 &#45; __Block_Outport__ -->
<g id="edge24" class="edge"><title>6 &#45; Inport&#45;&gt;17 &#45; __Block_Outport__</title>
<path fill="none" stroke="black" d="M942.132,-456.339C941.608,-445.07 940.929,-430.474 940.337,-417.754"/>
<polygon fill="black" stroke="black" points="943.827,-417.451 939.866,-407.624 936.835,-417.776 943.827,-417.451"/>
</g>
<!-- 7 &#45; Inport -->
<g id="node8" class="node"><title>7 &#45; Inport</title>
<ellipse fill="#eedd82" stroke="black" cx="1758" cy="-475" rx="58.1882" ry="18.3848"/>
<text text-anchor="middle" x="1758" y="-471.4" font-family="Times Roman,serif" font-size="14.00">7 &#45; Inport</text>
</g>
<!-- 18 &#45; __Block_Outport__ -->
<g id="node19" class="node"><title>18 &#45; __Block_Outport__</title>
<ellipse fill="#b94a62" stroke="black" cx="1765" cy="-389" rx="126.78" ry="18.3848"/>
<text text-anchor="middle" x="1765" y="-385.4" font-family="Times Roman,serif" font-size="14.00">18 &#45; __Block_Outport__</text>
</g>
<!-- 7 &#45; Inport&#45;&gt;18 &#45; __Block_Outport__ -->
<g id="edge26" class="edge"><title>7 &#45; Inport&#45;&gt;18 &#45; __Block_Outport__</title>
<path fill="none" stroke="black" d="M1759.52,-456.339C1760.44,-445.07 1761.62,-430.474 1762.66,-417.754"/>
<polygon fill="black" stroke="black" points="1766.16,-417.875 1763.48,-407.624 1759.18,-417.307 1766.16,-417.875"/>
</g>
<!-- 8 &#45; Constant\n Value = 123.7 -->
<g id="node9" class="node"><title>8 &#45; Constant\n Value = 123.7</title>
<ellipse fill="lightblue" stroke="black" cx="1932" cy="-475" rx="86.9741" ry="31.1127"/>
<text text-anchor="middle" x="1932" y="-480.4" font-family="Times Roman,serif" font-size="14.00">8 &#45; Constant</text>
<text text-anchor="middle" x="1932" y="-462.4" font-family="Times Roman,serif" font-size="14.00"> Value = 123.7</text>
</g>
<!-- 20 &#45; __Block_Outport__ -->
<g id="node21" class="node"><title>20 &#45; __Block_Outport__</title>
<ellipse fill="#b94a62" stroke="black" cx="2038" cy="-389" rx="126.072" ry="18.3848"/>
<text text-anchor="middle" x="2038" y="-385.4" font-family="Times Roman,serif" font-size="14.00">20 &#45; __Block_Outport__</text>
</g>
<!-- 8 &#45; Constant\n Value = 123.7&#45;&gt;20 &#45; __Block_Outport__ -->
<g id="edge28" class="edge"><title>8 &#45; Constant\n Value = 123.7&#45;&gt;20 &#45; __Block_Outport__</title>
<path fill="none" stroke="black" d="M1967,-446.602C1980.06,-436.007 1994.78,-424.069 2007.41,-413.82"/>
<polygon fill="black" stroke="black" points="2009.81,-416.379 2015.37,-407.36 2005.4,-410.943 2009.81,-416.379"/>
</g>
<!-- 9 &#45; Port_Output -->
<g id="node10" class="node"><title>9 &#45; Port_Output</title>
<ellipse fill="coral" stroke="black" cx="370" cy="-315" rx="87.889" ry="18.3848"/>
<text text-anchor="middle" x="370" y="-311.4" font-family="Times Roman,serif" font-size="14.00">9 &#45; Port_Output</text>
</g>
<!-- 39 &#45; __Relation__ -->
<g id="node40" class="node"><title>39 &#45; __Relation__</title>
<ellipse fill="#f78465" stroke="black" cx="264" cy="-241" rx="96.1665" ry="18.3848"/>
<text text-anchor="middle" x="264" y="-237.4" font-family="Times Roman,serif" font-size="14.00">39 &#45; __Relation__</text>
</g>
<!-- 9 &#45; Port_Output&#45;&gt;39 &#45; __Relation__ -->
<g id="edge32" class="edge"><title>9 &#45; Port_Output&#45;&gt;39 &#45; __Relation__</title>
<path fill="none" stroke="black" d="M344.61,-297.275C330.684,-287.553 313.229,-275.367 298.126,-264.824"/>
<polygon fill="black" stroke="black" points="299.753,-261.691 289.55,-258.837 295.746,-267.431 299.753,-261.691"/>
</g>
<!-- 40 &#45; __Relation__ -->
<g id="node41" class="node"><title>40 &#45; __Relation__</title>
<ellipse fill="#f78465" stroke="black" cx="475" cy="-241" rx="96.8736" ry="18.3848"/>
<text text-anchor="middle" x="475" y="-237.4" font-family="Times Roman,serif" font-size="14.00">40 &#45; __Relation__</text>
</g>
<!-- 9 &#45; Port_Output&#45;&gt;40 &#45; __Relation__ -->
<g id="edge30" class="edge"><title>9 &#45; Port_Output&#45;&gt;40 &#45; __Relation__</title>
<path fill="none" stroke="black" d="M395.418,-297.087C409.116,-287.432 426.203,-275.391 441.028,-264.942"/>
<polygon fill="black" stroke="black" points="443.295,-267.627 449.453,-259.005 439.262,-261.905 443.295,-267.627"/>
</g>
<!-- 10 &#45; Port_Output -->
<g id="node11" class="node"><title>10 &#45; Port_Output</title>
<ellipse fill="coral" stroke="black" cx="1110" cy="-315" rx="94.7523" ry="18.3848"/>
<text text-anchor="middle" x="1110" y="-311.4" font-family="Times Roman,serif" font-size="14.00">10 &#45; Port_Output</text>
</g>
<!-- 37 &#45; __Relation__ -->
<g id="node38" class="node"><title>37 &#45; __Relation__</title>
<ellipse fill="#f78465" stroke="black" cx="1077" cy="-241" rx="96.8736" ry="18.3848"/>
<text text-anchor="middle" x="1077" y="-237.4" font-family="Times Roman,serif" font-size="14.00">37 &#45; __Relation__</text>
</g>
<!-- 10 &#45; Port_Output&#45;&gt;37 &#45; __Relation__ -->
<g id="edge34" class="edge"><title>10 &#45; Port_Output&#45;&gt;37 &#45; __Relation__</title>
<path fill="none" stroke="black" d="M1101.67,-296.327C1097.96,-288.001 1093.51,-278.019 1089.41,-268.84"/>
<polygon fill="black" stroke="black" points="1092.59,-267.375 1085.32,-259.667 1086.2,-270.226 1092.59,-267.375"/>
</g>
<!-- 11 &#45; Port_Output -->
<g id="node12" class="node"><title>11 &#45; Port_Output</title>
<ellipse fill="coral" stroke="black" cx="883" cy="-315" rx="96.1665" ry="18.3848"/>
<text text-anchor="middle" x="883" y="-311.4" font-family="Times Roman,serif" font-size="14.00">11 &#45; Port_Output</text>
</g>
<!-- 41 &#45; __Relation__ -->
<g id="node42" class="node"><title>41 &#45; __Relation__</title>
<ellipse fill="#f78465" stroke="black" cx="865" cy="-241" rx="97.0803" ry="18.3848"/>
<text text-anchor="middle" x="865" y="-237.4" font-family="Times Roman,serif" font-size="14.00">41 &#45; __Relation__</text>
</g>
<!-- 11 &#45; Port_Output&#45;&gt;41 &#45; __Relation__ -->
<g id="edge36" class="edge"><title>11 &#45; Port_Output&#45;&gt;41 &#45; __Relation__</title>
<path fill="none" stroke="black" d="M878.458,-296.327C876.475,-288.176 874.107,-278.438 871.913,-269.42"/>
<polygon fill="black" stroke="black" points="875.305,-268.557 869.541,-259.667 868.503,-270.211 875.305,-268.557"/>
</g>
<!-- 12 &#45; Port_Output -->
<g id="node13" class="node"><title>12 &#45; Port_Output</title>
<ellipse fill="coral" stroke="black" cx="1807" cy="-315" rx="94.9596" ry="18.3848"/>
<text text-anchor="middle" x="1807" y="-311.4" font-family="Times Roman,serif" font-size="14.00">12 &#45; Port_Output</text>
</g>
<!-- 36 &#45; __Relation__ -->
<g id="node37" class="node"><title>36 &#45; __Relation__</title>
<ellipse fill="#f78465" stroke="black" cx="2068" cy="-241" rx="96.1665" ry="18.3848"/>
<text text-anchor="middle" x="2068" y="-237.4" font-family="Times Roman,serif" font-size="14.00">36 &#45; __Relation__</text>
</g>
<!-- 12 &#45; Port_Output&#45;&gt;36 &#45; __Relation__ -->
<g id="edge38" class="edge"><title>12 &#45; Port_Output&#45;&gt;36 &#45; __Relation__</title>
<path fill="none" stroke="black" d="M1861.08,-299.667C1902.72,-287.86 1960.4,-271.507 2004.28,-259.065"/>
<polygon fill="black" stroke="black" points="2005.32,-262.408 2013.99,-256.313 2003.41,-255.674 2005.32,-262.408"/>
</g>
<!-- 13 &#45; Port_Output -->
<g id="node14" class="node"><title>13 &#45; Port_Output</title>
<ellipse fill="coral" stroke="black" cx="1425" cy="-167" rx="94.7523" ry="18.3848"/>
<text text-anchor="middle" x="1425" y="-163.4" font-family="Times Roman,serif" font-size="14.00">13 &#45; Port_Output</text>
</g>
<!-- 38 &#45; __Relation__ -->
<g id="node39" class="node"><title>38 &#45; __Relation__</title>
<ellipse fill="#f78465" stroke="black" cx="1126" cy="-93" rx="96.1665" ry="18.3848"/>
<text text-anchor="middle" x="1126" y="-89.4" font-family="Times Roman,serif" font-size="14.00">38 &#45; __Relation__</text>
</g>
<!-- 13 &#45; Port_Output&#45;&gt;38 &#45; __Relation__ -->
<g id="edge40" class="edge"><title>13 &#45; Port_Output&#45;&gt;38 &#45; __Relation__</title>
<path fill="none" stroke="black" d="M1365.93,-152.38C1316.76,-140.212 1246.7,-122.872 1194.97,-110.069"/>
<polygon fill="black" stroke="black" points="1195.75,-106.658 1185.21,-107.653 1194.07,-113.453 1195.75,-106.658"/>
</g>
<!-- 14 &#45; Port_Output -->
<g id="node15" class="node"><title>14 &#45; Port_Output</title>
<ellipse fill="coral" stroke="black" cx="2045" cy="-315" rx="94.9596" ry="18.3848"/>
<text text-anchor="middle" x="2045" y="-311.4" font-family="Times Roman,serif" font-size="14.00">14 &#45; Port_Output</text>
</g>
<!-- 35 &#45; __Relation__ -->
<g id="node36" class="node"><title>35 &#45; __Relation__</title>
<ellipse fill="#f78465" stroke="black" cx="2531" cy="-241" rx="96.8736" ry="18.3848"/>
<text text-anchor="middle" x="2531" y="-237.4" font-family="Times Roman,serif" font-size="14.00">35 &#45; __Relation__</text>
</g>
<!-- 14 &#45; Port_Output&#45;&gt;35 &#45; __Relation__ -->
<g id="edge42" class="edge"><title>14 &#45; Port_Output&#45;&gt;35 &#45; __Relation__</title>
<path fill="none" stroke="black" d="M2123.35,-304.443C2200.27,-293.895 2320.87,-276.864 2425,-260 2433.51,-258.621 2442.4,-257.122 2451.25,-255.591"/>
<polygon fill="black" stroke="black" points="2451.96,-259.021 2461.21,-253.854 2450.76,-252.125 2451.96,-259.021"/>
</g>
<!-- 15 &#45; __Block_Outport__&#45;&gt;9 &#45; Port_Output -->
<g id="edge44" class="edge"><title>15 &#45; __Block_Outport__&#45;&gt;9 &#45; Port_Output</title>
<path fill="none" stroke="black" d="M370.748,-370.327C370.639,-362.264 370.509,-352.648 370.388,-343.711"/>
<polygon fill="black" stroke="black" points="373.887,-343.619 370.252,-333.667 366.888,-343.714 373.887,-343.619"/>
</g>
<!-- 16 &#45; __Block_Outport__&#45;&gt;10 &#45; Port_Output -->
<g id="edge46" class="edge"><title>16 &#45; __Block_Outport__&#45;&gt;10 &#45; Port_Output</title>
<path fill="none" stroke="black" d="M1186.79,-370.708C1173.69,-361.209 1157.52,-349.478 1143.4,-339.234"/>
<polygon fill="black" stroke="black" points="1145.07,-336.121 1134.92,-333.082 1140.96,-341.787 1145.07,-336.121"/>
</g>
<!-- 17 &#45; __Block_Outport__&#45;&gt;11 &#45; Port_Output -->
<g id="edge48" class="edge"><title>17 &#45; __Block_Outport__&#45;&gt;11 &#45; Port_Output</title>
<path fill="none" stroke="black" d="M924.869,-370.327C918.253,-361.584 910.255,-351.015 903.029,-341.467"/>
<polygon fill="black" stroke="black" points="905.758,-339.273 896.933,-333.411 900.176,-343.497 905.758,-339.273"/>
</g>
<!-- 18 &#45; __Block_Outport__&#45;&gt;12 &#45; Port_Output -->
<g id="edge50" class="edge"><title>18 &#45; __Block_Outport__&#45;&gt;12 &#45; Port_Output</title>
<path fill="none" stroke="black" d="M1775.6,-370.327C1780.41,-361.849 1786.2,-351.654 1791.48,-342.338"/>
<polygon fill="black" stroke="black" points="1794.66,-343.836 1796.55,-333.411 1788.57,-340.38 1794.66,-343.836"/>
</g>
<!-- 19 &#45; __Block_Outport__&#45;&gt;13 &#45; Port_Output -->
<g id="edge52" class="edge"><title>19 &#45; __Block_Outport__&#45;&gt;13 &#45; Port_Output</title>
<path fill="none" stroke="black" d="M1537.17,-223.087C1516.51,-212.757 1490.39,-199.693 1468.55,-188.773"/>
<polygon fill="black" stroke="black" points="1469.99,-185.581 1459.48,-184.239 1466.86,-191.842 1469.99,-185.581"/>
</g>
<!-- 20 &#45; __Block_Outport__&#45;&gt;14 &#45; Port_Output -->
<g id="edge54" class="edge"><title>20 &#45; __Block_Outport__&#45;&gt;14 &#45; Port_Output</title>
<path fill="none" stroke="black" d="M2039.77,-370.327C2040.53,-362.264 2041.44,-352.648 2042.28,-343.711"/>
<polygon fill="black" stroke="black" points="2045.78,-343.953 2043.23,-333.667 2038.81,-343.293 2045.78,-343.953"/>
</g>
<!-- 21 &#45; Port_Input -->
<g id="node22" class="node"><title>21 &#45; Port_Input</title>
<ellipse fill="lightyellow" stroke="black" cx="202" cy="-167" rx="85.7684" ry="18.3848"/>
<text text-anchor="middle" x="202" y="-163.4" font-family="Times Roman,serif" font-size="14.00">21 &#45; Port_Input</text>
</g>
<!-- 22 &#45; Port_Input -->
<g id="node23" class="node"><title>22 &#45; Port_Input</title>
<ellipse fill="lightyellow" stroke="black" cx="861" cy="-19" rx="85.7684" ry="18.3848"/>
<text text-anchor="middle" x="861" y="-15.4" font-family="Times Roman,serif" font-size="14.00">22 &#45; Port_Input</text>
</g>
<!-- 23 &#45; Port_Input -->
<g id="node24" class="node"><title>23 &#45; Port_Input</title>
<ellipse fill="lightyellow" stroke="black" cx="803" cy="-167" rx="85.0596" ry="18.3848"/>
<text text-anchor="middle" x="803" y="-163.4" font-family="Times Roman,serif" font-size="14.00">23 &#45; Port_Input</text>
</g>
<!-- 24 &#45; Port_Input -->
<g id="node25" class="node"><title>24 &#45; Port_Input</title>
<ellipse fill="lightyellow" stroke="black" cx="1952" cy="-167" rx="85.7684" ry="18.3848"/>
<text text-anchor="middle" x="1952" y="-163.4" font-family="Times Roman,serif" font-size="14.00">24 &#45; Port_Input</text>
</g>
<!-- 25 &#45; Port_Input -->
<g id="node26" class="node"><title>25 &#45; Port_Input</title>
<ellipse fill="lightyellow" stroke="black" cx="1151" cy="-167" rx="85.7684" ry="18.3848"/>
<text text-anchor="middle" x="1151" y="-163.4" font-family="Times Roman,serif" font-size="14.00">25 &#45; Port_Input</text>
</g>
<!-- 26 &#45; Port_Input -->
<g id="node27" class="node"><title>26 &#45; Port_Input</title>
<ellipse fill="lightyellow" stroke="black" cx="2415" cy="-167" rx="85.0596" ry="18.3848"/>
<text text-anchor="middle" x="2415" y="-163.4" font-family="Times Roman,serif" font-size="14.00">26 &#45; Port_Input</text>
</g>
<!-- 27 &#45; Port_Input -->
<g id="node28" class="node"><title>27 &#45; Port_Input</title>
<ellipse fill="lightyellow" stroke="black" cx="537" cy="-167" rx="85.7684" ry="18.3848"/>
<text text-anchor="middle" x="537" y="-163.4" font-family="Times Roman,serif" font-size="14.00">27 &#45; Port_Input</text>
</g>
<!-- 28 &#45; __Block_Inport__&#45;&gt;21 &#45; Port_Input -->
<g id="edge56" class="edge"><title>28 &#45; __Block_Inport__&#45;&gt;21 &#45; Port_Input</title>
<path fill="none" stroke="black" d="M145.799,-296.426C146.219,-277.097 148.686,-246.313 159,-222 163.376,-211.684 170.2,-201.646 177.132,-193.03"/>
<polygon fill="black" stroke="black" points="179.938,-195.134 183.736,-185.243 174.599,-190.606 179.938,-195.134"/>
</g>
<!-- 29 &#45; __Block_Inport__&#45;&gt;22 &#45; Port_Input -->
<g id="edge58" class="edge"><title>29 &#45; __Block_Inport__&#45;&gt;22 &#45; Port_Input</title>
<path fill="none" stroke="black" d="M653.828,-76.8518C696.586,-64.9118 754.748,-48.6702 798.563,-36.4353"/>
<polygon fill="black" stroke="black" points="799.555,-39.7923 808.245,-33.7317 797.672,-33.0503 799.555,-39.7923"/>
</g>
<!-- 30 &#45; __Block_Inport__&#45;&gt;23 &#45; Port_Input -->
<g id="edge60" class="edge"><title>30 &#45; __Block_Inport__&#45;&gt;23 &#45; Port_Input</title>
<path fill="none" stroke="black" d="M694.08,-370.387C703.137,-360.271 713.699,-347.162 721,-334 746.496,-288.033 733.757,-268.107 759,-222 764.575,-211.817 772.066,-201.623 779.286,-192.826"/>
<polygon fill="black" stroke="black" points="781.973,-195.069 785.777,-185.18 776.637,-190.538 781.973,-195.069"/>
</g>
<!-- 31 &#45; __Block_Inport__&#45;&gt;24 &#45; Port_Input -->
<g id="edge62" class="edge"><title>31 &#45; __Block_Inport__&#45;&gt;24 &#45; Port_Input</title>
<path fill="none" stroke="black" d="M1864.38,-222.898C1879.77,-213.078 1898.97,-200.83 1915.47,-190.304"/>
<polygon fill="black" stroke="black" points="1917.77,-192.989 1924.32,-184.66 1914,-187.088 1917.77,-192.989"/>
</g>
<!-- 32 &#45; __Block_Inport__&#45;&gt;25 &#45; Port_Input -->
<g id="edge64" class="edge"><title>32 &#45; __Block_Inport__&#45;&gt;25 &#45; Port_Input</title>
<path fill="none" stroke="black" d="M1272.32,-223.463C1249.62,-212.898 1220.56,-199.374 1196.57,-188.21"/>
<polygon fill="black" stroke="black" points="1197.86,-184.948 1187.32,-183.902 1194.91,-191.294 1197.86,-184.948"/>
</g>
<!-- 33 &#45; __Block_Inport__&#45;&gt;26 &#45; Port_Input -->
<g id="edge66" class="edge"><title>33 &#45; __Block_Inport__&#45;&gt;26 &#45; Port_Input</title>
<path fill="none" stroke="black" d="M2327.38,-222.898C2342.77,-213.078 2361.97,-200.83 2378.47,-190.304"/>
<polygon fill="black" stroke="black" points="2380.77,-192.989 2387.32,-184.66 2377,-187.088 2380.77,-192.989"/>
</g>
<!-- 34 &#45; __Block_Inport__&#45;&gt;27 &#45; Port_Input -->
<g id="edge68" class="edge"><title>34 &#45; __Block_Inport__&#45;&gt;27 &#45; Port_Input</title>
<path fill="none" stroke="black" d="M594.256,-296.402C593.88,-277.054 591.45,-246.255 581,-222 576.527,-211.617 569.546,-201.561 562.452,-192.948"/>
<polygon fill="black" stroke="black" points="564.895,-190.424 555.694,-185.171 559.611,-195.015 564.895,-190.424"/>
</g>
<!-- 35 &#45; __Relation__&#45;&gt;26 &#45; Port_Input -->
<g id="edge84" class="edge"><title>35 &#45; __Relation__&#45;&gt;26 &#45; Port_Input</title>
<path fill="none" stroke="black" d="M2503.22,-223.275C2487.58,-213.298 2467.87,-200.728 2451.05,-189.999"/>
<polygon fill="black" stroke="black" points="2452.87,-187.008 2442.56,-184.58 2449.11,-192.909 2452.87,-187.008"/>
</g>
<!-- 36 &#45; __Relation__&#45;&gt;24 &#45; Port_Input -->
<g id="edge86" class="edge"><title>36 &#45; __Relation__&#45;&gt;24 &#45; Port_Input</title>
<path fill="none" stroke="black" d="M2040.22,-223.275C2024.58,-213.298 2004.87,-200.728 1988.05,-189.999"/>
<polygon fill="black" stroke="black" points="1989.87,-187.008 1979.56,-184.58 1986.11,-192.909 1989.87,-187.008"/>
</g>
<!-- 37 &#45; __Relation__&#45;&gt;25 &#45; Port_Input -->
<g id="edge88" class="edge"><title>37 &#45; __Relation__&#45;&gt;25 &#45; Port_Input</title>
<path fill="none" stroke="black" d="M1095.29,-222.708C1104.36,-213.636 1115.47,-202.527 1125.38,-192.623"/>
<polygon fill="black" stroke="black" points="1128.07,-194.884 1132.66,-185.338 1123.12,-189.934 1128.07,-194.884"/>
</g>
<!-- 38 &#45; __Relation__&#45;&gt;22 &#45; Port_Input -->
<g id="edge90" class="edge"><title>38 &#45; __Relation__&#45;&gt;22 &#45; Port_Input</title>
<path fill="none" stroke="black" d="M1071.41,-77.7569C1028.36,-65.7346 968.286,-48.9592 923.345,-36.4094"/>
<polygon fill="black" stroke="black" points="924.282,-33.0373 913.709,-33.7187 922.399,-39.7794 924.282,-33.0373"/>
</g>
<!-- 39 &#45; __Relation__&#45;&gt;21 &#45; Port_Input -->
<g id="edge92" class="edge"><title>39 &#45; __Relation__&#45;&gt;21 &#45; Port_Input</title>
<path fill="none" stroke="black" d="M248.674,-222.708C241.222,-213.814 232.13,-202.962 223.957,-193.207"/>
<polygon fill="black" stroke="black" points="226.469,-190.756 217.364,-185.338 221.104,-195.251 226.469,-190.756"/>
</g>
<!-- 40 &#45; __Relation__&#45;&gt;27 &#45; Port_Input -->
<g id="edge94" class="edge"><title>40 &#45; __Relation__&#45;&gt;27 &#45; Port_Input</title>
<path fill="none" stroke="black" d="M490.326,-222.708C497.778,-213.814 506.87,-202.962 515.043,-193.207"/>
<polygon fill="black" stroke="black" points="517.896,-195.251 521.636,-185.338 512.531,-190.756 517.896,-195.251"/>
</g>
<!-- 41 &#45; __Relation__&#45;&gt;23 &#45; Port_Input -->
<g id="edge96" class="edge"><title>41 &#45; __Relation__&#45;&gt;23 &#45; Port_Input</title>
<path fill="none" stroke="black" d="M849.674,-222.708C842.222,-213.814 833.13,-202.962 824.957,-193.207"/>
<polygon fill="black" stroke="black" points="827.469,-190.756 818.364,-185.338 822.104,-195.251 827.469,-190.756"/>
</g>
<!-- 42 &#45; __Contains__&#45;&gt;0 &#45; Outport -->
<g id="edge98" class="edge"><title>42 &#45; __Contains__&#45;&gt;0 &#45; Outport</title>
<path fill="none" stroke="black" d="M200.396,-542.339C198.824,-531.07 196.787,-516.474 195.012,-503.754"/>
<polygon fill="black" stroke="black" points="198.447,-503.045 193.599,-493.624 191.514,-504.012 198.447,-503.045"/>
</g>
<!-- 43 &#45; __Contains__&#45;&gt;1 &#45; Product -->
<g id="edge100" class="edge"><title>43 &#45; __Contains__&#45;&gt;1 &#45; Product</title>
<path fill="none" stroke="black" d="M458.58,-542.762C443.652,-530.05 423.58,-512.959 407.329,-499.122"/>
<polygon fill="black" stroke="black" points="409.581,-496.442 399.698,-492.624 405.043,-501.772 409.581,-496.442"/>
</g>
<!-- 44 &#45; __Contains__&#45;&gt;5 &#45; Constant\n Value = 10.0 -->
<g id="edge102" class="edge"><title>44 &#45; __Contains__&#45;&gt;5 &#45; Constant\n Value = 10.0</title>
<path fill="none" stroke="black" d="M1186.08,-542.339C1188.65,-534.42 1191.77,-524.858 1194.83,-515.458"/>
<polygon fill="black" stroke="black" points="1198.21,-516.39 1197.97,-505.797 1191.55,-514.223 1198.21,-516.39"/>
</g>
<!-- 45 &#45; __Contains__&#45;&gt;6 &#45; Inport -->
<g id="edge104" class="edge"><title>45 &#45; __Contains__&#45;&gt;6 &#45; Inport</title>
<path fill="none" stroke="black" d="M953.962,-542.339C952.128,-531.07 949.752,-516.474 947.681,-503.754"/>
<polygon fill="black" stroke="black" points="951.093,-502.932 946.032,-493.624 944.184,-504.057 951.093,-502.932"/>
</g>
<!-- 46 &#45; __Contains__&#45;&gt;7 &#45; Inport -->
<g id="edge106" class="edge"><title>46 &#45; __Contains__&#45;&gt;7 &#45; Inport</title>
<path fill="none" stroke="black" d="M1694.18,-542.762C1705.75,-530.479 1721.17,-514.108 1733.95,-500.534"/>
<polygon fill="black" stroke="black" points="1736.82,-502.596 1741.12,-492.917 1731.72,-497.797 1736.82,-502.596"/>
</g>
<!-- 47 &#45; __Contains__&#45;&gt;2 &#45; Switch -->
<g id="edge108" class="edge"><title>47 &#45; __Contains__&#45;&gt;2 &#45; Switch</title>
<path fill="none" stroke="black" d="M1449.07,-542.51C1472.46,-499.576 1530.54,-392.951 1558.07,-342.41"/>
<polygon fill="black" stroke="black" points="1561.28,-343.825 1562.99,-333.369 1555.14,-340.476 1561.28,-343.825"/>
</g>
<!-- 48 &#45; __Contains__&#45;&gt;3 &#45; Scope -->
<g id="edge110" class="edge"><title>48 &#45; __Contains__&#45;&gt;3 &#45; Scope</title>
<path fill="none" stroke="black" d="M704.793,-542.762C690.146,-530.166 670.499,-513.269 654.488,-499.5"/>
<polygon fill="black" stroke="black" points="656.357,-496.491 646.493,-492.624 651.793,-501.798 656.357,-496.491"/>
</g>
<!-- 49 &#45; __Contains__&#45;&gt;8 &#45; Constant\n Value = 123.7 -->
<g id="edge112" class="edge"><title>49 &#45; __Contains__&#45;&gt;8 &#45; Constant\n Value = 123.7</title>
<path fill="none" stroke="black" d="M1909.29,-542.339C1911.96,-534.42 1915.19,-524.858 1918.36,-515.458"/>
<polygon fill="black" stroke="black" points="1921.74,-516.392 1921.61,-505.797 1915.1,-514.155 1921.74,-516.392"/>
</g>
</g>
</svg>
