<?xml version="1.0" encoding="UTF-8" standalone="no"?>
<!DOCTYPE svg PUBLIC "-//W3C//DTD SVG 1.1//EN"
 "http://www.w3.org/Graphics/SVG/1.1/DTD/svg11.dtd">
<!-- Generated by graphviz version 2.26.3 (20100126.1600)
 -->
<!-- Title: HEasy_opt Pages: 1 -->
<svg width="838pt" height="514pt"
 viewBox="0.00 0.00 838.00 514.00" xmlns="http://www.w3.org/2000/svg" xmlns:xlink="http://www.w3.org/1999/xlink">
<g id="graph1" class="graph" transform="scale(1 1) rotate(0) translate(4 510)">
<title>HEasy_opt</title>
<polygon fill="white" stroke="white" points="-4,5 -4,-510 835,-510 835,5 -4,5"/>
<!-- 0 &#45; SubSystem -->
<g id="node1" class="node"><title>0 &#45; SubSystem</title>
<ellipse fill="lightgreen" stroke="black" cx="392" cy="-487" rx="84.1457" ry="18.3848"/>
<text text-anchor="middle" x="392" y="-483.4" font-family="Times Roman,serif" font-size="14.00">0 &#45; SubSystem</text>
</g>
<!-- 13 &#45; __Contains__ -->
<g id="node14" class="node"><title>13 &#45; __Contains__</title>
<ellipse fill="lightgray" stroke="black" cx="156" cy="-413" rx="99.201" ry="18.3848"/>
<text text-anchor="middle" x="156" y="-409.4" font-family="Times Roman,serif" font-size="14.00">13 &#45; __Contains__</text>
</g>
<!-- 0 &#45; SubSystem&#45;&gt;13 &#45; __Contains__ -->
<g id="edge8" class="edge"><title>0 &#45; SubSystem&#45;&gt;13 &#45; __Contains__</title>
<path fill="none" stroke="black" d="M343.672,-471.846C306.874,-460.308 255.992,-444.354 216.491,-431.968"/>
<polygon fill="black" stroke="black" points="217.299,-428.553 206.709,-428.9 215.204,-435.232 217.299,-428.553"/>
</g>
<!-- 14 &#45; __Contains__ -->
<g id="node15" class="node"><title>14 &#45; __Contains__</title>
<ellipse fill="lightgray" stroke="black" cx="462" cy="-413" rx="99.9096" ry="18.3848"/>
<text text-anchor="middle" x="462" y="-409.4" font-family="Times Roman,serif" font-size="14.00">14 &#45; __Contains__</text>
</g>
<!-- 0 &#45; SubSystem&#45;&gt;14 &#45; __Contains__ -->
<g id="edge6" class="edge"><title>0 &#45; SubSystem&#45;&gt;14 &#45; __Contains__</title>
<path fill="none" stroke="black" d="M409.303,-468.708C417.885,-459.636 428.393,-448.527 437.762,-438.623"/>
<polygon fill="black" stroke="black" points="440.324,-441.008 444.653,-431.338 435.238,-436.198 440.324,-441.008"/>
</g>
<!-- 15 &#45; __Contains__ -->
<g id="node16" class="node"><title>15 &#45; __Contains__</title>
<ellipse fill="lightgray" stroke="black" cx="703" cy="-413" rx="99.9096" ry="18.3848"/>
<text text-anchor="middle" x="703" y="-409.4" font-family="Times Roman,serif" font-size="14.00">15 &#45; __Contains__</text>
</g>
<!-- 0 &#45; SubSystem&#45;&gt;15 &#45; __Contains__ -->
<g id="edge4" class="edge"><title>0 &#45; SubSystem&#45;&gt;15 &#45; __Contains__</title>
<path fill="none" stroke="black" d="M449.405,-473.341C500.708,-461.134 576.089,-443.198 631.333,-430.053"/>
<polygon fill="black" stroke="black" points="632.485,-433.376 641.404,-427.656 630.865,-426.566 632.485,-433.376"/>
</g>
<!-- 16 &#45; __Contains__ -->
<g id="node17" class="node"><title>16 &#45; __Contains__</title>
<ellipse fill="lightgray" stroke="black" cx="318" cy="-327" rx="99.201" ry="18.3848"/>
<text text-anchor="middle" x="318" y="-323.4" font-family="Times Roman,serif" font-size="14.00">16 &#45; __Contains__</text>
</g>
<!-- 0 &#45; SubSystem&#45;&gt;16 &#45; __Contains__ -->
<g id="edge2" class="edge"><title>0 &#45; SubSystem&#45;&gt;16 &#45; __Contains__</title>
<path fill="none" stroke="black" d="M376.822,-468.537C368.92,-458.254 359.564,-444.946 353,-432 340.454,-407.257 330.927,-377.026 325.004,-355.368"/>
<polygon fill="black" stroke="black" points="328.331,-354.257 322.389,-345.485 321.564,-356.048 328.331,-354.257"/>
</g>
<!-- 1 &#45; Scope -->
<g id="node2" class="node"><title>1 &#45; Scope</title>
<ellipse fill="lightblue" stroke="black" cx="493" cy="-327" rx="58.1882" ry="18.3848"/>
<text text-anchor="middle" x="493" y="-323.4" font-family="Times Roman,serif" font-size="14.00">1 &#45; Scope</text>
</g>
<!-- 9 &#45; __Block_Inport__ -->
<g id="node10" class="node"><title>9 &#45; __Block_Inport__</title>
<ellipse fill="#b94a62" stroke="black" cx="486" cy="-93" rx="111.222" ry="18.3848"/>
<text text-anchor="middle" x="486" y="-89.4" font-family="Times Roman,serif" font-size="14.00">9 &#45; __Block_Inport__</text>
</g>
<!-- 1 &#45; Scope&#45;&gt;9 &#45; __Block_Inport__ -->
<g id="edge22" class="edge"><title>1 &#45; Scope&#45;&gt;9 &#45; __Block_Inport__</title>
<path fill="none" stroke="black" d="M492.439,-308.246C491.217,-267.412 488.31,-170.229 486.857,-121.659"/>
<polygon fill="black" stroke="black" points="490.352,-121.409 486.554,-111.518 483.355,-121.618 490.352,-121.409"/>
</g>
<!-- 2 &#45; Scope -->
<g id="node3" class="node"><title>2 &#45; Scope</title>
<ellipse fill="lightblue" stroke="black" cx="331" cy="-241" rx="58.1882" ry="18.3848"/>
<text text-anchor="middle" x="331" y="-237.4" font-family="Times Roman,serif" font-size="14.00">2 &#45; Scope</text>
</g>
<!-- 10 &#45; __Block_Inport__ -->
<g id="node11" class="node"><title>10 &#45; __Block_Inport__</title>
<ellipse fill="#b94a62" stroke="black" cx="344" cy="-167" rx="118.087" ry="18.3848"/>
<text text-anchor="middle" x="344" y="-163.4" font-family="Times Roman,serif" font-size="14.00">10 &#45; __Block_Inport__</text>
</g>
<!-- 2 &#45; Scope&#45;&gt;10 &#45; __Block_Inport__ -->
<g id="edge24" class="edge"><title>2 &#45; Scope&#45;&gt;10 &#45; __Block_Inport__</title>
<path fill="none" stroke="black" d="M334.28,-222.327C335.697,-214.264 337.386,-204.648 338.956,-195.711"/>
<polygon fill="black" stroke="black" points="342.437,-196.122 340.721,-185.667 335.543,-194.911 342.437,-196.122"/>
</g>
<!-- 3 &#45; Port_Output -->
<g id="node4" class="node"><title>3 &#45; Port_Output</title>
<ellipse fill="coral" stroke="black" cx="120" cy="-167" rx="87.889" ry="18.3848"/>
<text text-anchor="middle" x="120" y="-163.4" font-family="Times Roman,serif" font-size="14.00">3 &#45; Port_Output</text>
</g>
<!-- 12 &#45; __Relation__ -->
<g id="node13" class="node"><title>12 &#45; __Relation__</title>
<ellipse fill="#f78465" stroke="black" cx="154" cy="-93" rx="97.0803" ry="18.3848"/>
<text text-anchor="middle" x="154" y="-89.4" font-family="Times Roman,serif" font-size="14.00">12 &#45; __Relation__</text>
</g>
<!-- 3 &#45; Port_Output&#45;&gt;12 &#45; __Relation__ -->
<g id="edge10" class="edge"><title>3 &#45; Port_Output&#45;&gt;12 &#45; __Relation__</title>
<path fill="none" stroke="black" d="M128.58,-148.327C132.405,-140.001 136.991,-130.019 141.209,-120.84"/>
<polygon fill="black" stroke="black" points="144.428,-122.215 145.423,-111.667 138.068,-119.293 144.428,-122.215"/>
</g>
<!-- 4 &#45; Port_Output -->
<g id="node5" class="node"><title>4 &#45; Port_Output</title>
<ellipse fill="coral" stroke="black" cx="713" cy="-167" rx="87.889" ry="18.3848"/>
<text text-anchor="middle" x="713" y="-163.4" font-family="Times Roman,serif" font-size="14.00">4 &#45; Port_Output</text>
</g>
<!-- 11 &#45; __Relation__ -->
<g id="node12" class="node"><title>11 &#45; __Relation__</title>
<ellipse fill="#f78465" stroke="black" cx="713" cy="-93" rx="97.7889" ry="18.3848"/>
<text text-anchor="middle" x="713" y="-89.4" font-family="Times Roman,serif" font-size="14.00">11 &#45; __Relation__</text>
</g>
<!-- 4 &#45; Port_Output&#45;&gt;11 &#45; __Relation__ -->
<g id="edge12" class="edge"><title>4 &#45; Port_Output&#45;&gt;11 &#45; __Relation__</title>
<path fill="none" stroke="black" d="M713,-148.327C713,-140.264 713,-130.648 713,-121.711"/>
<polygon fill="black" stroke="black" points="716.5,-121.667 713,-111.667 709.5,-121.667 716.5,-121.667"/>
</g>
<!-- 5 &#45; __Block_Outport__ -->
<g id="node6" class="node"><title>5 &#45; __Block_Outport__</title>
<ellipse fill="#b94a62" stroke="black" cx="121" cy="-241" rx="120.915" ry="18.3848"/>
<text text-anchor="middle" x="121" y="-237.4" font-family="Times Roman,serif" font-size="14.00">5 &#45; __Block_Outport__</text>
</g>
<!-- 5 &#45; __Block_Outport__&#45;&gt;3 &#45; Port_Output -->
<g id="edge14" class="edge"><title>5 &#45; __Block_Outport__&#45;&gt;3 &#45; Port_Output</title>
<path fill="none" stroke="black" d="M120.748,-222.327C120.639,-214.264 120.509,-204.648 120.388,-195.711"/>
<polygon fill="black" stroke="black" points="123.887,-195.619 120.252,-185.667 116.888,-195.714 123.887,-195.619"/>
</g>
<!-- 6 &#45; __Block_Outport__ -->
<g id="node7" class="node"><title>6 &#45; __Block_Outport__</title>
<ellipse fill="#b94a62" stroke="black" cx="710" cy="-241" rx="120.208" ry="18.3848"/>
<text text-anchor="middle" x="710" y="-237.4" font-family="Times Roman,serif" font-size="14.00">6 &#45; __Block_Outport__</text>
</g>
<!-- 6 &#45; __Block_Outport__&#45;&gt;4 &#45; Port_Output -->
<g id="edge16" class="edge"><title>6 &#45; __Block_Outport__&#45;&gt;4 &#45; Port_Output</title>
<path fill="none" stroke="black" d="M710.757,-222.327C711.084,-214.264 711.474,-204.648 711.836,-195.711"/>
<polygon fill="black" stroke="black" points="715.335,-195.801 712.243,-185.667 708.341,-195.517 715.335,-195.801"/>
</g>
<!-- 7 &#45; Port_Input -->
<g id="node8" class="node"><title>7 &#45; Port_Input</title>
<ellipse fill="lightyellow" stroke="black" cx="534" cy="-19" rx="79.9031" ry="18.3848"/>
<text text-anchor="middle" x="534" y="-15.4" font-family="Times Roman,serif" font-size="14.00">7 &#45; Port_Input</text>
</g>
<!-- 8 &#45; Port_Input -->
<g id="node9" class="node"><title>8 &#45; Port_Input</title>
<ellipse fill="lightyellow" stroke="black" cx="280" cy="-19" rx="79.196" ry="18.3848"/>
<text text-anchor="middle" x="280" y="-15.4" font-family="Times Roman,serif" font-size="14.00">8 &#45; Port_Input</text>
</g>
<!-- 9 &#45; __Block_Inport__&#45;&gt;7 &#45; Port_Input -->
<g id="edge18" class="edge"><title>9 &#45; __Block_Inport__&#45;&gt;7 &#45; Port_Input</title>
<path fill="none" stroke="black" d="M498.112,-74.3267C503.669,-65.7608 510.362,-55.4416 516.456,-46.0472"/>
<polygon fill="black" stroke="black" points="519.552,-47.7053 522.058,-37.411 513.679,-43.896 519.552,-47.7053"/>
</g>
<!-- 10 &#45; __Block_Inport__&#45;&gt;8 &#45; Port_Input -->
<g id="edge20" class="edge"><title>10 &#45; __Block_Inport__&#45;&gt;8 &#45; Port_Input</title>
<path fill="none" stroke="black" d="M335.894,-148.256C324.834,-122.679 304.925,-76.6401 292.096,-46.9725"/>
<polygon fill="black" stroke="black" points="295.222,-45.3815 288.04,-37.5921 288.796,-48.1599 295.222,-45.3815"/>
</g>
<!-- 11 &#45; __Relation__&#45;&gt;7 &#45; Port_Input -->
<g id="edge26" class="edge"><title>11 &#45; __Relation__&#45;&gt;7 &#45; Port_Input</title>
<path fill="none" stroke="black" d="M671.934,-76.0229C645.435,-65.0681 610.83,-50.7621 582.911,-39.2201"/>
<polygon fill="black" stroke="black" points="583.917,-35.8489 573.339,-35.2629 581.243,-42.3179 583.917,-35.8489"/>
</g>
<!-- 12 &#45; __Relation__&#45;&gt;8 &#45; Port_Input -->
<g id="edge28" class="edge"><title>12 &#45; __Relation__&#45;&gt;8 &#45; Port_Input</title>
<path fill="none" stroke="black" d="M184.18,-75.2752C201.448,-65.1334 223.281,-52.3111 241.743,-41.4683"/>
<polygon fill="black" stroke="black" points="243.65,-44.4072 250.501,-36.3249 240.105,-38.3712 243.65,-44.4072"/>
</g>
<!-- 18 &#45; Constant\n Value = 1.0 -->
<g id="node19" class="node"><title>18 &#45; Constant\n Value = 1.0</title>
<ellipse fill="lightblue" stroke="black" cx="121" cy="-327" rx="79.9031" ry="31.1127"/>
<text text-anchor="middle" x="121" y="-332.4" font-family="Times Roman,serif" font-size="14.00">18 &#45; Constant</text>
<text text-anchor="middle" x="121" y="-314.4" font-family="Times Roman,serif" font-size="14.00"> Value = 1.0</text>
</g>
<!-- 13 &#45; __Contains__&#45;&gt;18 &#45; Constant\n Value = 1.0 -->
<g id="edge30" class="edge"><title>13 &#45; __Contains__&#45;&gt;18 &#45; Constant\n Value = 1.0</title>
<path fill="none" stroke="black" d="M148.406,-394.339C145.149,-386.336 141.209,-376.656 137.345,-367.161"/>
<polygon fill="black" stroke="black" points="140.545,-365.74 133.534,-357.797 134.062,-368.379 140.545,-365.74"/>
</g>
<!-- 14 &#45; __Contains__&#45;&gt;1 &#45; Scope -->
<g id="edge32" class="edge"><title>14 &#45; __Contains__&#45;&gt;1 &#45; Scope</title>
<path fill="none" stroke="black" d="M468.727,-394.339C472.829,-382.957 478.155,-368.182 482.773,-355.373"/>
<polygon fill="black" stroke="black" points="486.188,-356.219 486.287,-345.624 479.603,-353.845 486.188,-356.219"/>
</g>
<!-- 17 &#45; Constant\n Value = 1.0 -->
<g id="node18" class="node"><title>17 &#45; Constant\n Value = 1.0</title>
<ellipse fill="lightblue" stroke="black" cx="709" cy="-327" rx="80.1095" ry="31.1127"/>
<text text-anchor="middle" x="709" y="-332.4" font-family="Times Roman,serif" font-size="14.00">17 &#45; Constant</text>
<text text-anchor="middle" x="709" y="-314.4" font-family="Times Roman,serif" font-size="14.00"> Value = 1.0</text>
</g>
<!-- 15 &#45; __Contains__&#45;&gt;17 &#45; Constant\n Value = 1.0 -->
<g id="edge34" class="edge"><title>15 &#45; __Contains__&#45;&gt;17 &#45; Constant\n Value = 1.0</title>
<path fill="none" stroke="black" d="M704.302,-394.339C704.838,-386.658 705.481,-377.432 706.118,-368.308"/>
<polygon fill="black" stroke="black" points="709.623,-368.357 706.828,-358.137 702.64,-367.869 709.623,-368.357"/>
</g>
<!-- 16 &#45; __Contains__&#45;&gt;2 &#45; Scope -->
<g id="edge36" class="edge"><title>16 &#45; __Contains__&#45;&gt;2 &#45; Scope</title>
<path fill="none" stroke="black" d="M320.821,-308.339C322.524,-297.07 324.731,-282.474 326.653,-269.754"/>
<polygon fill="black" stroke="black" points="330.151,-270.035 328.185,-259.624 323.229,-268.989 330.151,-270.035"/>
</g>
<!-- 17 &#45; Constant\n Value = 1.0&#45;&gt;6 &#45; __Block_Outport__ -->
<g id="edge38" class="edge"><title>17 &#45; Constant\n Value = 1.0&#45;&gt;6 &#45; __Block_Outport__</title>
<path fill="none" stroke="black" d="M709.361,-295.952C709.46,-287.427 709.567,-278.221 709.665,-269.827"/>
<polygon fill="black" stroke="black" points="713.165,-269.78 709.782,-259.74 706.166,-269.699 713.165,-269.78"/>
</g>
<!-- 18 &#45; Constant\n Value = 1.0&#45;&gt;5 &#45; __Block_Outport__ -->
<g id="edge40" class="edge"><title>18 &#45; Constant\n Value = 1.0&#45;&gt;5 &#45; __Block_Outport__</title>
<path fill="none" stroke="black" d="M121,-295.952C121,-287.427 121,-278.221 121,-269.827"/>
<polygon fill="black" stroke="black" points="124.5,-269.74 121,-259.74 117.5,-269.74 124.5,-269.74"/>
</g>
</g>
</svg>
