<?xml version="1.0" encoding="UTF-8" standalone="no"?>
<!DOCTYPE svg PUBLIC "-//W3C//DTD SVG 1.1//EN"
 "http://www.w3.org/Graphics/SVG/1.1/DTD/svg11.dtd">
<!-- Generated by graphviz version 2.26.3 (20100126.1600)
 -->
<!-- Title: HEasy Pages: 1 -->
<svg width="1170pt" height="1130pt"
 viewBox="0.00 0.00 1170.00 1130.00" xmlns="http://www.w3.org/2000/svg" xmlns:xlink="http://www.w3.org/1999/xlink">
<g id="graph1" class="graph" transform="scale(1 1) rotate(0) translate(4 1126)">
<title>HEasy</title>
<polygon fill="white" stroke="white" points="-4,5 -4,-1126 1167,-1126 1167,5 -4,5"/>
<!-- 0 &#45; Product -->
<g id="node1" class="node"><title>0 &#45; Product</title>
<ellipse fill="lightblue" stroke="black" cx="383" cy="-475" rx="65.7609" ry="18.3848"/>
<text text-anchor="middle" x="383" y="-471.4" font-family="Times Roman,serif" font-size="14.00">0 &#45; Product</text>
</g>
<!-- 11 &#45; __Block_Outport__ -->
<g id="node12" class="node"><title>11 &#45; __Block_Outport__</title>
<ellipse fill="#b94a62" stroke="black" cx="381" cy="-389" rx="128.193" ry="18.3848"/>
<text text-anchor="middle" x="381" y="-385.4" font-family="Times Roman,serif" font-size="14.00">11 &#45; __Block_Outport__</text>
</g>
<!-- 0 &#45; Product&#45;&gt;11 &#45; __Block_Outport__ -->
<g id="edge2" class="edge"><title>0 &#45; Product&#45;&gt;11 &#45; __Block_Outport__</title>
<path fill="none" stroke="black" d="M382.566,-456.339C382.304,-445.07 381.965,-430.474 381.669,-417.754"/>
<polygon fill="black" stroke="black" points="385.165,-417.54 381.433,-407.624 378.167,-417.703 385.165,-417.54"/>
</g>
<!-- 1 &#45; Gain\n Gain = 1.0 -->
<g id="node2" class="node"><title>1 &#45; Gain\n Gain = 1.0</title>
<ellipse fill="lightblue" stroke="black" cx="908" cy="-475" rx="68.0887" ry="31.1127"/>
<text text-anchor="middle" x="908" y="-480.4" font-family="Times Roman,serif" font-size="14.00">1 &#45; Gain</text>
<text text-anchor="middle" x="908" y="-462.4" font-family="Times Roman,serif" font-size="14.00"> Gain = 1.0</text>
</g>
<!-- 13 &#45; __Block_Outport__ -->
<g id="node14" class="node"><title>13 &#45; __Block_Outport__</title>
<ellipse fill="#b94a62" stroke="black" cx="908" cy="-389" rx="126.78" ry="18.3848"/>
<text text-anchor="middle" x="908" y="-385.4" font-family="Times Roman,serif" font-size="14.00">13 &#45; __Block_Outport__</text>
</g>
<!-- 1 &#45; Gain\n Gain = 1.0&#45;&gt;13 &#45; __Block_Outport__ -->
<g id="edge10" class="edge"><title>1 &#45; Gain\n Gain = 1.0&#45;&gt;13 &#45; __Block_Outport__</title>
<path fill="none" stroke="black" d="M908,-443.952C908,-435.427 908,-426.221 908,-417.827"/>
<polygon fill="black" stroke="black" points="911.5,-417.74 908,-407.74 904.5,-417.74 911.5,-417.74"/>
</g>
<!-- 2 &#45; SubSystem -->
<g id="node3" class="node"><title>2 &#45; SubSystem</title>
<ellipse fill="lightgreen" stroke="black" cx="591" cy="-1103" rx="84.8528" ry="18.3848"/>
<text text-anchor="middle" x="591" y="-1099.4" font-family="Times Roman,serif" font-size="14.00">2 &#45; SubSystem</text>
</g>
<!-- 30 &#45; __Contains__ -->
<g id="node31" class="node"><title>30 &#45; __Contains__</title>
<ellipse fill="lightgray" stroke="black" cx="497" cy="-857" rx="98.9949" ry="18.3848"/>
<text text-anchor="middle" x="497" y="-853.4" font-family="Times Roman,serif" font-size="14.00">30 &#45; __Contains__</text>
</g>
<!-- 2 &#45; SubSystem&#45;&gt;30 &#45; __Contains__ -->
<g id="edge18" class="edge"><title>2 &#45; SubSystem&#45;&gt;30 &#45; __Contains__</title>
<path fill="none" stroke="black" d="M576.935,-1084.44C569.625,-1074.12 560.992,-1060.82 555,-1048 529.249,-992.901 511.547,-923.583 502.96,-885.436"/>
<polygon fill="black" stroke="black" points="506.349,-884.554 500.78,-875.541 499.513,-886.06 506.349,-884.554"/>
</g>
<!-- 31 &#45; __Contains__ -->
<g id="node32" class="node"><title>31 &#45; __Contains__</title>
<ellipse fill="lightgray" stroke="black" cx="1063" cy="-783" rx="99.201" ry="18.3848"/>
<text text-anchor="middle" x="1063" y="-779.4" font-family="Times Roman,serif" font-size="14.00">31 &#45; __Contains__</text>
</g>
<!-- 2 &#45; SubSystem&#45;&gt;31 &#45; __Contains__ -->
<g id="edge22" class="edge"><title>2 &#45; SubSystem&#45;&gt;31 &#45; __Contains__</title>
<path fill="none" stroke="black" d="M671.313,-1096.86C782.198,-1087.66 971.276,-1069.12 995,-1048 1063.68,-986.854 1067.37,-866.641 1065.09,-811.665"/>
<polygon fill="black" stroke="black" points="1068.58,-811.384 1064.57,-801.576 1061.59,-811.743 1068.58,-811.384"/>
</g>
<!-- 32 &#45; __Contains__ -->
<g id="node33" class="node"><title>32 &#45; __Contains__</title>
<ellipse fill="lightgray" stroke="black" cx="358" cy="-1029" rx="98.9949" ry="18.3848"/>
<text text-anchor="middle" x="358" y="-1025.4" font-family="Times Roman,serif" font-size="14.00">32 &#45; __Contains__</text>
</g>
<!-- 2 &#45; SubSystem&#45;&gt;32 &#45; __Contains__ -->
<g id="edge26" class="edge"><title>2 &#45; SubSystem&#45;&gt;32 &#45; __Contains__</title>
<path fill="none" stroke="black" d="M542.722,-1087.67C506.472,-1076.15 456.616,-1060.32 417.834,-1048"/>
<polygon fill="black" stroke="black" points="418.818,-1044.64 408.228,-1044.95 416.7,-1051.32 418.818,-1044.64"/>
</g>
<!-- 33 &#45; __Contains__ -->
<g id="node34" class="node"><title>33 &#45; __Contains__</title>
<ellipse fill="lightgray" stroke="black" cx="887" cy="-1029" rx="98.9949" ry="18.3848"/>
<text text-anchor="middle" x="887" y="-1025.4" font-family="Times Roman,serif" font-size="14.00">33 &#45; __Contains__</text>
</g>
<!-- 2 &#45; SubSystem&#45;&gt;33 &#45; __Contains__ -->
<g id="edge30" class="edge"><title>2 &#45; SubSystem&#45;&gt;33 &#45; __Contains__</title>
<path fill="none" stroke="black" d="M647.023,-1088.99C695.52,-1076.87 765.846,-1059.29 817.84,-1046.29"/>
<polygon fill="black" stroke="black" points="818.801,-1049.66 827.653,-1043.84 817.103,-1042.87 818.801,-1049.66"/>
</g>
<!-- 34 &#45; __Contains__ -->
<g id="node35" class="node"><title>34 &#45; __Contains__</title>
<ellipse fill="lightgray" stroke="black" cx="99" cy="-943" rx="98.9949" ry="18.3848"/>
<text text-anchor="middle" x="99" y="-939.4" font-family="Times Roman,serif" font-size="14.00">34 &#45; __Contains__</text>
</g>
<!-- 2 &#45; SubSystem&#45;&gt;34 &#45; __Contains__ -->
<g id="edge34" class="edge"><title>2 &#45; SubSystem&#45;&gt;34 &#45; __Contains__</title>
<path fill="none" stroke="black" d="M514.759,-1094.7C429.362,-1084.71 296.777,-1066.89 250,-1048 202.368,-1028.77 154.971,-992.242 126.323,-967.752"/>
<polygon fill="black" stroke="black" points="128.603,-965.097 118.755,-961.189 124.017,-970.385 128.603,-965.097"/>
</g>
<!-- 35 &#45; __Contains__ -->
<g id="node36" class="node"><title>35 &#45; __Contains__</title>
<ellipse fill="lightgray" stroke="black" cx="663" cy="-1029" rx="98.9949" ry="18.3848"/>
<text text-anchor="middle" x="663" y="-1025.4" font-family="Times Roman,serif" font-size="14.00">35 &#45; __Contains__</text>
</g>
<!-- 2 &#45; SubSystem&#45;&gt;35 &#45; __Contains__ -->
<g id="edge38" class="edge"><title>2 &#45; SubSystem&#45;&gt;35 &#45; __Contains__</title>
<path fill="none" stroke="black" d="M608.798,-1084.71C617.625,-1075.64 628.433,-1064.53 638.069,-1054.62"/>
<polygon fill="black" stroke="black" points="640.692,-1056.95 645.157,-1047.34 635.675,-1052.06 640.692,-1056.95"/>
</g>
<!-- 3 &#45; Scope -->
<g id="node4" class="node"><title>3 &#45; Scope</title>
<ellipse fill="lightblue" stroke="black" cx="989" cy="-19" rx="57.9828" ry="18.3848"/>
<text text-anchor="middle" x="989" y="-15.4" font-family="Times Roman,serif" font-size="14.00">3 &#45; Scope</text>
</g>
<!-- 4 &#45; Constant\n Value = 1.0 -->
<g id="node5" class="node"><title>4 &#45; Constant\n Value = 1.0</title>
<ellipse fill="lightblue" stroke="black" cx="356" cy="-943" rx="73.0388" ry="31.1127"/>
<text text-anchor="middle" x="356" y="-948.4" font-family="Times Roman,serif" font-size="14.00">4 &#45; Constant</text>
<text text-anchor="middle" x="356" y="-930.4" font-family="Times Roman,serif" font-size="14.00"> Value = 1.0</text>
</g>
<!-- 12 &#45; __Block_Outport__ -->
<g id="node13" class="node"><title>12 &#45; __Block_Outport__</title>
<ellipse fill="#b94a62" stroke="black" cx="252" cy="-857" rx="127.986" ry="18.3848"/>
<text text-anchor="middle" x="252" y="-853.4" font-family="Times Roman,serif" font-size="14.00">12 &#45; __Block_Outport__</text>
</g>
<!-- 4 &#45; Constant\n Value = 1.0&#45;&gt;12 &#45; __Block_Outport__ -->
<g id="edge6" class="edge"><title>4 &#45; Constant\n Value = 1.0&#45;&gt;12 &#45; __Block_Outport__</title>
<path fill="none" stroke="black" d="M322.521,-915.316C309.564,-904.601 294.843,-892.428 282.214,-881.985"/>
<polygon fill="black" stroke="black" points="284.194,-879.08 274.257,-875.405 279.733,-884.475 284.194,-879.08"/>
</g>
<!-- 5 &#45; Scope -->
<g id="node6" class="node"><title>5 &#45; Scope</title>
<ellipse fill="lightblue" stroke="black" cx="171" cy="-19" rx="58.1882" ry="18.3848"/>
<text text-anchor="middle" x="171" y="-15.4" font-family="Times Roman,serif" font-size="14.00">5 &#45; Scope</text>
</g>
<!-- 6 &#45; Constant\n Value = 1.0 -->
<g id="node7" class="node"><title>6 &#45; Constant\n Value = 1.0</title>
<ellipse fill="lightblue" stroke="black" cx="709" cy="-943" rx="73.0388" ry="31.1127"/>
<text text-anchor="middle" x="709" y="-948.4" font-family="Times Roman,serif" font-size="14.00">6 &#45; Constant</text>
<text text-anchor="middle" x="709" y="-930.4" font-family="Times Roman,serif" font-size="14.00"> Value = 1.0</text>
</g>
<!-- 14 &#45; __Block_Outport__ -->
<g id="node15" class="node"><title>14 &#45; __Block_Outport__</title>
<ellipse fill="#b94a62" stroke="black" cx="742" cy="-857" rx="127.986" ry="18.3848"/>
<text text-anchor="middle" x="742" y="-853.4" font-family="Times Roman,serif" font-size="14.00">14 &#45; __Block_Outport__</text>
</g>
<!-- 6 &#45; Constant\n Value = 1.0&#45;&gt;14 &#45; __Block_Outport__ -->
<g id="edge14" class="edge"><title>6 &#45; Constant\n Value = 1.0&#45;&gt;14 &#45; __Block_Outport__</title>
<path fill="none" stroke="black" d="M720.914,-911.952C724.284,-903.168 727.932,-893.662 731.231,-885.065"/>
<polygon fill="black" stroke="black" points="734.591,-886.079 734.905,-875.489 728.055,-883.571 734.591,-886.079"/>
</g>
<!-- 7 &#45; Port_Output -->
<g id="node8" class="node"><title>7 &#45; Port_Output</title>
<ellipse fill="coral" stroke="black" cx="363" cy="-315" rx="89.0955" ry="18.3848"/>
<text text-anchor="middle" x="363" y="-311.4" font-family="Times Roman,serif" font-size="14.00">7 &#45; Port_Output</text>
</g>
<!-- 29 &#45; __Relation__ -->
<g id="node30" class="node"><title>29 &#45; __Relation__</title>
<ellipse fill="#f78465" stroke="black" cx="327" cy="-241" rx="96.8736" ry="18.3848"/>
<text text-anchor="middle" x="327" y="-237.4" font-family="Times Roman,serif" font-size="14.00">29 &#45; __Relation__</text>
</g>
<!-- 7 &#45; Port_Output&#45;&gt;29 &#45; __Relation__ -->
<g id="edge58" class="edge"><title>7 &#45; Port_Output&#45;&gt;29 &#45; __Relation__</title>
<path fill="none" stroke="black" d="M353.916,-296.327C349.865,-288.001 345.009,-278.019 340.544,-268.84"/>
<polygon fill="black" stroke="black" points="343.603,-267.129 336.081,-259.667 337.309,-270.191 343.603,-267.129"/>
</g>
<!-- 8 &#45; Port_Output -->
<g id="node9" class="node"><title>8 &#45; Port_Output</title>
<ellipse fill="coral" stroke="black" cx="250" cy="-783" rx="87.889" ry="18.3848"/>
<text text-anchor="middle" x="250" y="-779.4" font-family="Times Roman,serif" font-size="14.00">8 &#45; Port_Output</text>
</g>
<!-- 28 &#45; __Relation__ -->
<g id="node29" class="node"><title>28 &#45; __Relation__</title>
<ellipse fill="#f78465" stroke="black" cx="248" cy="-709" rx="96.8736" ry="18.3848"/>
<text text-anchor="middle" x="248" y="-705.4" font-family="Times Roman,serif" font-size="14.00">28 &#45; __Relation__</text>
</g>
<!-- 8 &#45; Port_Output&#45;&gt;28 &#45; __Relation__ -->
<g id="edge54" class="edge"><title>8 &#45; Port_Output&#45;&gt;28 &#45; __Relation__</title>
<path fill="none" stroke="black" d="M249.495,-764.327C249.277,-756.264 249.018,-746.648 248.776,-737.711"/>
<polygon fill="black" stroke="black" points="252.274,-737.569 248.505,-727.667 245.276,-737.758 252.274,-737.569"/>
</g>
<!-- 9 &#45; Port_Output -->
<g id="node10" class="node"><title>9 &#45; Port_Output</title>
<ellipse fill="coral" stroke="black" cx="909" cy="-315" rx="87.889" ry="18.3848"/>
<text text-anchor="middle" x="909" y="-311.4" font-family="Times Roman,serif" font-size="14.00">9 &#45; Port_Output</text>
</g>
<!-- 27 &#45; __Relation__ -->
<g id="node28" class="node"><title>27 &#45; __Relation__</title>
<ellipse fill="#f78465" stroke="black" cx="911" cy="-241" rx="97.0803" ry="18.3848"/>
<text text-anchor="middle" x="911" y="-237.4" font-family="Times Roman,serif" font-size="14.00">27 &#45; __Relation__</text>
</g>
<!-- 9 &#45; Port_Output&#45;&gt;27 &#45; __Relation__ -->
<g id="edge50" class="edge"><title>9 &#45; Port_Output&#45;&gt;27 &#45; __Relation__</title>
<path fill="none" stroke="black" d="M909.505,-296.327C909.723,-288.264 909.982,-278.648 910.224,-269.711"/>
<polygon fill="black" stroke="black" points="913.724,-269.758 910.495,-259.667 906.726,-269.569 913.724,-269.758"/>
</g>
<!-- 10 &#45; Port_Output -->
<g id="node11" class="node"><title>10 &#45; Port_Output</title>
<ellipse fill="coral" stroke="black" cx="742" cy="-783" rx="94.7523" ry="18.3848"/>
<text text-anchor="middle" x="742" y="-779.4" font-family="Times Roman,serif" font-size="14.00">10 &#45; Port_Output</text>
</g>
<!-- 25 &#45; __Relation__ -->
<g id="node26" class="node"><title>25 &#45; __Relation__</title>
<ellipse fill="#f78465" stroke="black" cx="549" cy="-709" rx="96.8736" ry="18.3848"/>
<text text-anchor="middle" x="549" y="-705.4" font-family="Times Roman,serif" font-size="14.00">25 &#45; __Relation__</text>
</g>
<!-- 10 &#45; Port_Output&#45;&gt;25 &#45; __Relation__ -->
<g id="edge42" class="edge"><title>10 &#45; Port_Output&#45;&gt;25 &#45; __Relation__</title>
<path fill="none" stroke="black" d="M698.687,-766.393C670.106,-755.434 632.472,-741.005 602.091,-729.356"/>
<polygon fill="black" stroke="black" points="603.092,-725.992 592.502,-725.679 600.586,-732.528 603.092,-725.992"/>
</g>
<!-- 26 &#45; __Relation__ -->
<g id="node27" class="node"><title>26 &#45; __Relation__</title>
<ellipse fill="#f78465" stroke="black" cx="766" cy="-709" rx="96.8736" ry="18.3848"/>
<text text-anchor="middle" x="766" y="-705.4" font-family="Times Roman,serif" font-size="14.00">26 &#45; __Relation__</text>
</g>
<!-- 10 &#45; Port_Output&#45;&gt;26 &#45; __Relation__ -->
<g id="edge46" class="edge"><title>10 &#45; Port_Output&#45;&gt;26 &#45; __Relation__</title>
<path fill="none" stroke="black" d="M748.056,-764.327C750.7,-756.176 753.858,-746.438 756.783,-737.42"/>
<polygon fill="black" stroke="black" points="760.19,-738.259 759.946,-727.667 753.531,-736.1 760.19,-738.259"/>
</g>
<!-- 11 &#45; __Block_Outport__&#45;&gt;7 &#45; Port_Output -->
<g id="edge4" class="edge"><title>11 &#45; __Block_Outport__&#45;&gt;7 &#45; Port_Output</title>
<path fill="none" stroke="black" d="M376.458,-370.327C374.475,-362.176 372.107,-352.438 369.913,-343.42"/>
<polygon fill="black" stroke="black" points="373.305,-342.557 367.541,-333.667 366.503,-344.211 373.305,-342.557"/>
</g>
<!-- 12 &#45; __Block_Outport__&#45;&gt;8 &#45; Port_Output -->
<g id="edge8" class="edge"><title>12 &#45; __Block_Outport__&#45;&gt;8 &#45; Port_Output</title>
<path fill="none" stroke="black" d="M251.495,-838.327C251.277,-830.264 251.018,-820.648 250.776,-811.711"/>
<polygon fill="black" stroke="black" points="254.274,-811.569 250.505,-801.667 247.276,-811.758 254.274,-811.569"/>
</g>
<!-- 13 &#45; __Block_Outport__&#45;&gt;9 &#45; Port_Output -->
<g id="edge12" class="edge"><title>13 &#45; __Block_Outport__&#45;&gt;9 &#45; Port_Output</title>
<path fill="none" stroke="black" d="M908.252,-370.327C908.361,-362.264 908.491,-352.648 908.612,-343.711"/>
<polygon fill="black" stroke="black" points="912.112,-343.714 908.748,-333.667 905.113,-343.619 912.112,-343.714"/>
</g>
<!-- 14 &#45; __Block_Outport__&#45;&gt;10 &#45; Port_Output -->
<g id="edge16" class="edge"><title>14 &#45; __Block_Outport__&#45;&gt;10 &#45; Port_Output</title>
<path fill="none" stroke="black" d="M742,-838.327C742,-830.264 742,-820.648 742,-811.711"/>
<polygon fill="black" stroke="black" points="745.5,-811.667 742,-801.667 738.5,-811.667 745.5,-811.667"/>
</g>
<!-- 15 &#45; Port_Input -->
<g id="node16" class="node"><title>15 &#45; Port_Input</title>
<ellipse fill="lightyellow" stroke="black" cx="247" cy="-635" rx="85.7684" ry="18.3848"/>
<text text-anchor="middle" x="247" y="-631.4" font-family="Times Roman,serif" font-size="14.00">15 &#45; Port_Input</text>
</g>
<!-- 20 &#45; __Block_Inport__ -->
<g id="node21" class="node"><title>20 &#45; __Block_Inport__</title>
<ellipse fill="#b94a62" stroke="black" cx="242" cy="-561" rx="118.087" ry="18.3848"/>
<text text-anchor="middle" x="242" y="-557.4" font-family="Times Roman,serif" font-size="14.00">20 &#45; __Block_Inport__</text>
</g>
<!-- 15 &#45; Port_Input&#45;&gt;20 &#45; __Block_Inport__ -->
<g id="edge64" class="edge"><title>15 &#45; Port_Input&#45;&gt;20 &#45; __Block_Inport__</title>
<path fill="none" stroke="black" d="M245.738,-616.327C245.194,-608.264 244.544,-598.648 243.94,-589.711"/>
<polygon fill="black" stroke="black" points="247.428,-589.409 243.261,-579.667 240.444,-589.881 247.428,-589.409"/>
</g>
<!-- 16 &#45; Port_Input -->
<g id="node17" class="node"><title>16 &#45; Port_Input</title>
<ellipse fill="lightyellow" stroke="black" cx="546" cy="-635" rx="85.7684" ry="18.3848"/>
<text text-anchor="middle" x="546" y="-631.4" font-family="Times Roman,serif" font-size="14.00">16 &#45; Port_Input</text>
</g>
<!-- 21 &#45; __Block_Inport__ -->
<g id="node22" class="node"><title>21 &#45; __Block_Inport__</title>
<ellipse fill="#b94a62" stroke="black" cx="535" cy="-561" rx="118.794" ry="18.3848"/>
<text text-anchor="middle" x="535" y="-557.4" font-family="Times Roman,serif" font-size="14.00">21 &#45; __Block_Inport__</text>
</g>
<!-- 16 &#45; Port_Input&#45;&gt;21 &#45; __Block_Inport__ -->
<g id="edge68" class="edge"><title>16 &#45; Port_Input&#45;&gt;21 &#45; __Block_Inport__</title>
<path fill="none" stroke="black" d="M543.224,-616.327C542.026,-608.264 540.596,-598.648 539.268,-589.711"/>
<polygon fill="black" stroke="black" points="542.707,-589.044 537.775,-579.667 535.783,-590.073 542.707,-589.044"/>
</g>
<!-- 17 &#45; Port_Input -->
<g id="node18" class="node"><title>17 &#45; Port_Input</title>
<ellipse fill="lightyellow" stroke="black" cx="912" cy="-167" rx="86.9741" ry="18.3848"/>
<text text-anchor="middle" x="912" y="-163.4" font-family="Times Roman,serif" font-size="14.00">17 &#45; Port_Input</text>
</g>
<!-- 22 &#45; __Block_Inport__ -->
<g id="node23" class="node"><title>22 &#45; __Block_Inport__</title>
<ellipse fill="#b94a62" stroke="black" cx="916" cy="-93" rx="118.087" ry="18.3848"/>
<text text-anchor="middle" x="916" y="-89.4" font-family="Times Roman,serif" font-size="14.00">22 &#45; __Block_Inport__</text>
</g>
<!-- 17 &#45; Port_Input&#45;&gt;22 &#45; __Block_Inport__ -->
<g id="edge72" class="edge"><title>17 &#45; Port_Input&#45;&gt;22 &#45; __Block_Inport__</title>
<path fill="none" stroke="black" d="M913.009,-148.327C913.445,-140.264 913.965,-130.648 914.448,-121.711"/>
<polygon fill="black" stroke="black" points="917.946,-121.842 914.991,-111.667 910.956,-121.464 917.946,-121.842"/>
</g>
<!-- 18 &#45; Port_Input -->
<g id="node19" class="node"><title>18 &#45; Port_Input</title>
<ellipse fill="lightyellow" stroke="black" cx="787" cy="-635" rx="85.7684" ry="18.3848"/>
<text text-anchor="middle" x="787" y="-631.4" font-family="Times Roman,serif" font-size="14.00">18 &#45; Port_Input</text>
</g>
<!-- 23 &#45; __Block_Inport__ -->
<g id="node24" class="node"><title>23 &#45; __Block_Inport__</title>
<ellipse fill="#b94a62" stroke="black" cx="790" cy="-561" rx="118.087" ry="18.3848"/>
<text text-anchor="middle" x="790" y="-557.4" font-family="Times Roman,serif" font-size="14.00">23 &#45; __Block_Inport__</text>
</g>
<!-- 18 &#45; Port_Input&#45;&gt;23 &#45; __Block_Inport__ -->
<g id="edge76" class="edge"><title>18 &#45; Port_Input&#45;&gt;23 &#45; __Block_Inport__</title>
<path fill="none" stroke="black" d="M787.757,-616.327C788.084,-608.264 788.474,-598.648 788.836,-589.711"/>
<polygon fill="black" stroke="black" points="792.335,-589.801 789.243,-579.667 785.341,-589.517 792.335,-589.801"/>
</g>
<!-- 19 &#45; Port_Input -->
<g id="node20" class="node"><title>19 &#45; Port_Input</title>
<ellipse fill="lightyellow" stroke="black" cx="318" cy="-167" rx="85.7684" ry="18.3848"/>
<text text-anchor="middle" x="318" y="-163.4" font-family="Times Roman,serif" font-size="14.00">19 &#45; Port_Input</text>
</g>
<!-- 24 &#45; __Block_Inport__ -->
<g id="node25" class="node"><title>24 &#45; __Block_Inport__</title>
<ellipse fill="#b94a62" stroke="black" cx="245" cy="-93" rx="118.087" ry="18.3848"/>
<text text-anchor="middle" x="245" y="-89.4" font-family="Times Roman,serif" font-size="14.00">24 &#45; __Block_Inport__</text>
</g>
<!-- 19 &#45; Port_Input&#45;&gt;24 &#45; __Block_Inport__ -->
<g id="edge80" class="edge"><title>19 &#45; Port_Input&#45;&gt;24 &#45; __Block_Inport__</title>
<path fill="none" stroke="black" d="M299.955,-148.708C291.005,-139.636 280.047,-128.527 270.277,-118.623"/>
<polygon fill="black" stroke="black" points="272.605,-115.999 263.09,-111.338 267.622,-120.915 272.605,-115.999"/>
</g>
<!-- 20 &#45; __Block_Inport__&#45;&gt;0 &#45; Product -->
<g id="edge62" class="edge"><title>20 &#45; __Block_Inport__&#45;&gt;0 &#45; Product</title>
<path fill="none" stroke="black" d="M271.558,-542.972C293.47,-529.607 323.455,-511.318 346.804,-497.077"/>
<polygon fill="black" stroke="black" points="348.682,-500.031 355.396,-491.836 345.037,-494.055 348.682,-500.031"/>
</g>
<!-- 21 &#45; __Block_Inport__&#45;&gt;0 &#45; Product -->
<g id="edge66" class="edge"><title>21 &#45; __Block_Inport__&#45;&gt;0 &#45; Product</title>
<path fill="none" stroke="black" d="M503.136,-542.972C479.334,-529.505 446.692,-511.037 421.441,-496.749"/>
<polygon fill="black" stroke="black" points="422.929,-493.57 412.502,-491.692 419.482,-499.663 422.929,-493.57"/>
</g>
<!-- 22 &#45; __Block_Inport__&#45;&gt;3 &#45; Scope -->
<g id="edge70" class="edge"><title>22 &#45; __Block_Inport__&#45;&gt;3 &#45; Scope</title>
<path fill="none" stroke="black" d="M934.045,-74.7079C943.129,-65.4992 954.283,-54.1925 964.163,-44.1772"/>
<polygon fill="black" stroke="black" points="966.883,-46.4034 971.415,-36.8264 961.9,-41.4874 966.883,-46.4034"/>
</g>
<!-- 23 &#45; __Block_Inport__&#45;&gt;1 &#45; Gain\n Gain = 1.0 -->
<g id="edge74" class="edge"><title>23 &#45; __Block_Inport__&#45;&gt;1 &#45; Gain\n Gain = 1.0</title>
<path fill="none" stroke="black" d="M815.025,-542.762C829.082,-532.517 847.042,-519.427 863.422,-507.489"/>
<polygon fill="black" stroke="black" points="865.794,-510.091 871.814,-501.373 861.671,-504.434 865.794,-510.091"/>
</g>
<!-- 24 &#45; __Block_Inport__&#45;&gt;5 &#45; Scope -->
<g id="edge78" class="edge"><title>24 &#45; __Block_Inport__&#45;&gt;5 &#45; Scope</title>
<path fill="none" stroke="black" d="M226.708,-74.7079C217.499,-65.4992 206.193,-54.1925 196.177,-44.1772"/>
<polygon fill="black" stroke="black" points="198.372,-41.4226 188.826,-36.8264 193.423,-46.3724 198.372,-41.4226"/>
</g>
<!-- 25 &#45; __Relation__&#45;&gt;16 &#45; Port_Input -->
<g id="edge44" class="edge"><title>25 &#45; __Relation__&#45;&gt;16 &#45; Port_Input</title>
<path fill="none" stroke="black" d="M548.243,-690.327C547.916,-682.264 547.526,-672.648 547.164,-663.711"/>
<polygon fill="black" stroke="black" points="550.659,-663.517 546.757,-653.667 543.665,-663.801 550.659,-663.517"/>
</g>
<!-- 26 &#45; __Relation__&#45;&gt;18 &#45; Port_Input -->
<g id="edge48" class="edge"><title>26 &#45; __Relation__&#45;&gt;18 &#45; Port_Input</title>
<path fill="none" stroke="black" d="M771.299,-690.327C773.612,-682.176 776.376,-672.438 778.935,-663.42"/>
<polygon fill="black" stroke="black" points="782.339,-664.243 781.703,-653.667 775.605,-662.332 782.339,-664.243"/>
</g>
<!-- 27 &#45; __Relation__&#45;&gt;17 &#45; Port_Input -->
<g id="edge52" class="edge"><title>27 &#45; __Relation__&#45;&gt;17 &#45; Port_Input</title>
<path fill="none" stroke="black" d="M911.252,-222.327C911.361,-214.264 911.491,-204.648 911.612,-195.711"/>
<polygon fill="black" stroke="black" points="915.112,-195.714 911.748,-185.667 908.113,-195.619 915.112,-195.714"/>
</g>
<!-- 28 &#45; __Relation__&#45;&gt;15 &#45; Port_Input -->
<g id="edge56" class="edge"><title>28 &#45; __Relation__&#45;&gt;15 &#45; Port_Input</title>
<path fill="none" stroke="black" d="M247.748,-690.327C247.639,-682.264 247.509,-672.648 247.388,-663.711"/>
<polygon fill="black" stroke="black" points="250.887,-663.619 247.252,-653.667 243.888,-663.714 250.887,-663.619"/>
</g>
<!-- 29 &#45; __Relation__&#45;&gt;19 &#45; Port_Input -->
<g id="edge60" class="edge"><title>29 &#45; __Relation__&#45;&gt;19 &#45; Port_Input</title>
<path fill="none" stroke="black" d="M324.729,-222.327C323.748,-214.264 322.579,-204.648 321.492,-195.711"/>
<polygon fill="black" stroke="black" points="324.952,-195.172 320.27,-185.667 318.003,-196.017 324.952,-195.172"/>
</g>
<!-- 30 &#45; __Contains__&#45;&gt;0 &#45; Product -->
<g id="edge20" class="edge"><title>30 &#45; __Contains__&#45;&gt;0 &#45; Product</title>
<path fill="none" stroke="black" d="M471.444,-838.914C439.227,-813.777 388,-765.004 388,-709 388,-709 388,-709 388,-635 388,-589.057 385.915,-535.731 384.438,-503.714"/>
<polygon fill="black" stroke="black" points="387.933,-503.538 383.964,-493.715 380.941,-503.869 387.933,-503.538"/>
</g>
<!-- 31 &#45; __Contains__&#45;&gt;3 &#45; Scope -->
<g id="edge24" class="edge"><title>31 &#45; __Contains__&#45;&gt;3 &#45; Scope</title>
<path fill="none" stroke="black" d="M1063,-764.309C1063,-736.234 1063,-681.507 1063,-635 1063,-635 1063,-635 1063,-167 1063,-124.722 1063.05,-111.223 1043,-74 1036.85,-62.5866 1027.63,-51.9353 1018.53,-43.1037"/>
<polygon fill="black" stroke="black" points="1020.71,-40.3527 1010.99,-36.1363 1015.96,-45.4937 1020.71,-40.3527"/>
</g>
<!-- 32 &#45; __Contains__&#45;&gt;4 &#45; Constant\n Value = 1.0 -->
<g id="edge28" class="edge"><title>32 &#45; __Contains__&#45;&gt;4 &#45; Constant\n Value = 1.0</title>
<path fill="none" stroke="black" d="M357.566,-1010.34C357.387,-1002.66 357.173,-993.432 356.961,-984.308"/>
<polygon fill="black" stroke="black" points="360.456,-984.053 356.724,-974.137 353.458,-984.216 360.456,-984.053"/>
</g>
<!-- 33 &#45; __Contains__&#45;&gt;1 &#45; Gain\n Gain = 1.0 -->
<g id="edge32" class="edge"><title>33 &#45; __Contains__&#45;&gt;1 &#45; Gain\n Gain = 1.0</title>
<path fill="none" stroke="black" d="M895.987,-1010.41C910.133,-979.38 936,-914.752 936,-857 936,-857 936,-857 936,-635 936,-594.032 926.983,-548.035 919.183,-515.91"/>
<polygon fill="black" stroke="black" points="922.524,-514.845 916.706,-505.991 915.733,-516.541 922.524,-514.845"/>
</g>
<!-- 34 &#45; __Contains__&#45;&gt;5 &#45; Scope -->
<g id="edge36" class="edge"><title>34 &#45; __Contains__&#45;&gt;5 &#45; Scope</title>
<path fill="none" stroke="black" d="M98.4216,-924.281C97.5498,-894.411 96,-834.12 96,-783 96,-783 96,-783 96,-167 96,-124.526 97.6523,-111.283 118,-74 124.154,-62.7239 133.24,-52.106 142.158,-43.2628"/>
<polygon fill="black" stroke="black" points="144.683,-45.6919 149.541,-36.2765 139.872,-40.6073 144.683,-45.6919"/>
</g>
<!-- 35 &#45; __Contains__&#45;&gt;6 &#45; Constant\n Value = 1.0 -->
<g id="edge40" class="edge"><title>35 &#45; __Contains__&#45;&gt;6 &#45; Constant\n Value = 1.0</title>
<path fill="none" stroke="black" d="M672.981,-1010.34C677.392,-1002.09 682.754,-992.068 687.979,-982.299"/>
<polygon fill="black" stroke="black" points="691.078,-983.927 692.708,-973.458 684.905,-980.625 691.078,-983.927"/>
</g>
</g>
</svg>
