<?xml version="1.0" encoding="UTF-8" standalone="no"?>
<!DOCTYPE svg PUBLIC "-//W3C//DTD SVG 1.1//EN"
 "http://www.w3.org/Graphics/SVG/1.1/DTD/svg11.dtd">
<!-- Generated by graphviz version 2.36.0 (20140111.2315)
 -->
<!-- Title: HEasy_opt Pages: 1 -->
<svg width="1064pt" height="1088pt"
 viewBox="0.00 0.00 1064.00 1088.00" xmlns="http://www.w3.org/2000/svg" xmlns:xlink="http://www.w3.org/1999/xlink">
<g id="graph0" class="graph" transform="scale(1 1) rotate(0) translate(4 1084)">
<title>HEasy_opt</title>
<polygon fill="white" stroke="none" points="-4,4 -4,-1084 1060,-1084 1060,4 -4,4"/>
<!-- 0 &#45; Product -->
<g id="node1" class="node"><title>0 &#45; Product</title>
<ellipse fill="lightblue" stroke="black" cx="381" cy="-459" rx="50.0684" ry="18"/>
<text text-anchor="middle" x="381" y="-455.3" font-family="Times,serif" font-size="14.00">0 &#45; Product</text>
</g>
<!-- 11 &#45; __Block_Outport__ -->
<g id="node12" class="node"><title>11 &#45; __Block_Outport__</title>
<ellipse fill="#b94a62" stroke="black" cx="381" cy="-378" rx="97.237" ry="18"/>
<text text-anchor="middle" x="381" y="-374.3" font-family="Times,serif" font-size="14.00">11 &#45; __Block_Outport__</text>
</g>
<!-- 0 &#45; Product&#45;&gt;11 &#45; __Block_Outport__ -->
<g id="edge1" class="edge"><title>0 &#45; Product&#45;&gt;11 &#45; __Block_Outport__</title>
<path fill="none" stroke="black" d="M381,-440.858C381,-430.713 381,-417.634 381,-406.117"/>
<polygon fill="black" stroke="black" points="384.5,-406.108 381,-396.108 377.5,-406.108 384.5,-406.108"/>
</g>
<!-- 1 &#45; Gain\n Gain = 1.0 -->
<g id="node2" class="node"><title>1 &#45; Gain\n Gain = 1.0</title>
<ellipse fill="lightblue" stroke="black" cx="801" cy="-459" rx="56.3526" ry="26.7407"/>
<text text-anchor="middle" x="801" y="-462.8" font-family="Times,serif" font-size="14.00">1 &#45; Gain</text>
<text text-anchor="middle" x="801" y="-447.8" font-family="Times,serif" font-size="14.00"> Gain = 1.0</text>
</g>
<!-- 13 &#45; __Block_Outport__ -->
<g id="node14" class="node"><title>13 &#45; __Block_Outport__</title>
<ellipse fill="#b94a62" stroke="black" cx="918" cy="-378" rx="97.237" ry="18"/>
<text text-anchor="middle" x="918" y="-374.3" font-family="Times,serif" font-size="14.00">13 &#45; __Block_Outport__</text>
</g>
<!-- 1 &#45; Gain\n Gain = 1.0&#45;&gt;13 &#45; __Block_Outport__ -->
<g id="edge2" class="edge"><title>1 &#45; Gain\n Gain = 1.0&#45;&gt;13 &#45; __Block_Outport__</title>
<path fill="none" stroke="black" d="M832.662,-436.621C848.765,-425.749 868.331,-412.537 884.664,-401.509"/>
<polygon fill="black" stroke="black" points="887.034,-404.132 893.363,-395.635 883.116,-398.331 887.034,-404.132"/>
</g>
<!-- 2 &#45; SubSystem -->
<g id="node3" class="node"><title>2 &#45; SubSystem</title>
<ellipse fill="lightgreen" stroke="black" cx="594" cy="-1062" rx="63.0666" ry="18"/>
<text text-anchor="middle" x="594" y="-1058.3" font-family="Times,serif" font-size="14.00">2 &#45; SubSystem</text>
</g>
<!-- 30 &#45; __Contains__ -->
<g id="node31" class="node"><title>30 &#45; __Contains__</title>
<ellipse fill="lightgray" stroke="black" cx="567" cy="-540" rx="76.0649" ry="18"/>
<text text-anchor="middle" x="567" y="-536.3" font-family="Times,serif" font-size="14.00">30 &#45; __Contains__</text>
</g>
<!-- 2 &#45; SubSystem&#45;&gt;30 &#45; __Contains__ -->
<g id="edge8" class="edge"><title>2 &#45; SubSystem&#45;&gt;30 &#45; __Contains__</title>
<path fill="none" stroke="black" d="M604.99,-1044.12C621.554,-1017.01 651,-961.558 651,-910 651,-910 651,-910 651,-683 651,-641.914 647.698,-628.89 626,-594 618.885,-582.56 608.59,-572.122 598.586,-563.592"/>
<polygon fill="black" stroke="black" points="600.659,-560.767 590.69,-557.178 596.245,-566.2 600.659,-560.767"/>
</g>
<!-- 31 &#45; __Contains__ -->
<g id="node32" class="node"><title>31 &#45; __Contains__</title>
<ellipse fill="lightgray" stroke="black" cx="980" cy="-828" rx="76.0649" ry="18"/>
<text text-anchor="middle" x="980" y="-824.3" font-family="Times,serif" font-size="14.00">31 &#45; __Contains__</text>
</g>
<!-- 2 &#45; SubSystem&#45;&gt;31 &#45; __Contains__ -->
<g id="edge7" class="edge"><title>2 &#45; SubSystem&#45;&gt;31 &#45; __Contains__</title>
<path fill="none" stroke="black" d="M655.398,-1057.74C705.068,-1052.71 775.187,-1040 828,-1008 891.914,-969.273 942.23,-894.232 965.652,-854.736"/>
<polygon fill="black" stroke="black" points="968.755,-856.363 970.76,-845.959 962.705,-852.842 968.755,-856.363"/>
</g>
<!-- 32 &#45; __Contains__ -->
<g id="node33" class="node"><title>32 &#45; __Contains__</title>
<ellipse fill="lightgray" stroke="black" cx="327" cy="-990" rx="76.0649" ry="18"/>
<text text-anchor="middle" x="327" y="-986.3" font-family="Times,serif" font-size="14.00">32 &#45; __Contains__</text>
</g>
<!-- 2 &#45; SubSystem&#45;&gt;32 &#45; __Contains__ -->
<g id="edge6" class="edge"><title>2 &#45; SubSystem&#45;&gt;32 &#45; __Contains__</title>
<path fill="none" stroke="black" d="M549.31,-1049.28C504.45,-1037.52 435.105,-1019.34 385.802,-1006.42"/>
<polygon fill="black" stroke="black" points="386.473,-1002.97 375.912,-1003.82 384.698,-1009.75 386.473,-1002.97"/>
</g>
<!-- 33 &#45; __Contains__ -->
<g id="node34" class="node"><title>33 &#45; __Contains__</title>
<ellipse fill="lightgray" stroke="black" cx="939" cy="-540" rx="76.0649" ry="18"/>
<text text-anchor="middle" x="939" y="-536.3" font-family="Times,serif" font-size="14.00">33 &#45; __Contains__</text>
</g>
<!-- 2 &#45; SubSystem&#45;&gt;33 &#45; __Contains__ -->
<g id="edge5" class="edge"><title>2 &#45; SubSystem&#45;&gt;33 &#45; __Contains__</title>
<path fill="none" stroke="black" d="M642.825,-1050.45C707.639,-1033.25 814,-992.459 814,-910 814,-910 814,-910 814,-683 814,-629.333 864.926,-586.324 901.767,-562.232"/>
<polygon fill="black" stroke="black" points="903.752,-565.117 910.322,-556.806 900.003,-559.206 903.752,-565.117"/>
</g>
<!-- 34 &#45; __Contains__ -->
<g id="node35" class="node"><title>34 &#45; __Contains__</title>
<ellipse fill="lightgray" stroke="black" cx="76" cy="-909" rx="76.0649" ry="18"/>
<text text-anchor="middle" x="76" y="-905.3" font-family="Times,serif" font-size="14.00">34 &#45; __Contains__</text>
</g>
<!-- 2 &#45; SubSystem&#45;&gt;34 &#45; __Contains__ -->
<g id="edge4" class="edge"><title>2 &#45; SubSystem&#45;&gt;34 &#45; __Contains__</title>
<path fill="none" stroke="black" d="M531.854,-1058.8C460.134,-1054.65 339.542,-1042.65 242,-1008 190.835,-989.822 137.847,-955.322 105.898,-932.49"/>
<polygon fill="black" stroke="black" points="107.616,-929.413 97.4637,-926.383 103.511,-935.083 107.616,-929.413"/>
</g>
<!-- 35 &#45; __Contains__ -->
<g id="node36" class="node"><title>35 &#45; __Contains__</title>
<ellipse fill="lightgray" stroke="black" cx="537" cy="-990" rx="76.0649" ry="18"/>
<text text-anchor="middle" x="537" y="-986.3" font-family="Times,serif" font-size="14.00">35 &#45; __Contains__</text>
</g>
<!-- 2 &#45; SubSystem&#45;&gt;35 &#45; __Contains__ -->
<g id="edge3" class="edge"><title>2 &#45; SubSystem&#45;&gt;35 &#45; __Contains__</title>
<path fill="none" stroke="black" d="M580.492,-1044.41C573.566,-1035.91 564.989,-1025.37 557.287,-1015.91"/>
<polygon fill="black" stroke="black" points="559.836,-1013.5 550.807,-1007.96 554.407,-1017.92 559.836,-1013.5"/>
</g>
<!-- 3 &#45; Scope -->
<g id="node4" class="node"><title>3 &#45; Scope</title>
<ellipse fill="lightblue" stroke="black" cx="982" cy="-18" rx="44.2946" ry="18"/>
<text text-anchor="middle" x="982" y="-14.3" font-family="Times,serif" font-size="14.00">3 &#45; Scope</text>
</g>
<!-- 4 &#45; Constant\n Value = 1.0 -->
<g id="node5" class="node"><title>4 &#45; Constant\n Value = 1.0</title>
<ellipse fill="lightblue" stroke="black" cx="312" cy="-909" rx="60.2186" ry="26.7407"/>
<text text-anchor="middle" x="312" y="-912.8" font-family="Times,serif" font-size="14.00">4 &#45; Constant</text>
<text text-anchor="middle" x="312" y="-897.8" font-family="Times,serif" font-size="14.00"> Value = 1.0</text>
</g>
<!-- 12 &#45; __Block_Outport__ -->
<g id="node13" class="node"><title>12 &#45; __Block_Outport__</title>
<ellipse fill="#b94a62" stroke="black" cx="286" cy="-828" rx="97.237" ry="18"/>
<text text-anchor="middle" x="286" y="-824.3" font-family="Times,serif" font-size="14.00">12 &#45; __Block_Outport__</text>
</g>
<!-- 4 &#45; Constant\n Value = 1.0&#45;&gt;12 &#45; __Block_Outport__ -->
<g id="edge9" class="edge"><title>4 &#45; Constant\n Value = 1.0&#45;&gt;12 &#45; __Block_Outport__</title>
<path fill="none" stroke="black" d="M303.487,-882.132C300.749,-873.815 297.709,-864.577 294.942,-856.169"/>
<polygon fill="black" stroke="black" points="298.191,-854.845 291.74,-846.441 291.542,-857.034 298.191,-854.845"/>
</g>
<!-- 5 &#45; Scope -->
<g id="node6" class="node"><title>5 &#45; Scope</title>
<ellipse fill="lightblue" stroke="black" cx="127" cy="-18" rx="44.2946" ry="18"/>
<text text-anchor="middle" x="127" y="-14.3" font-family="Times,serif" font-size="14.00">5 &#45; Scope</text>
</g>
<!-- 6 &#45; Constant\n Value = 1.0 -->
<g id="node7" class="node"><title>6 &#45; Constant\n Value = 1.0</title>
<ellipse fill="lightblue" stroke="black" cx="532" cy="-909" rx="60.2186" ry="26.7407"/>
<text text-anchor="middle" x="532" y="-912.8" font-family="Times,serif" font-size="14.00">6 &#45; Constant</text>
<text text-anchor="middle" x="532" y="-897.8" font-family="Times,serif" font-size="14.00"> Value = 1.0</text>
</g>
<!-- 14 &#45; __Block_Outport__ -->
<g id="node15" class="node"><title>14 &#45; __Block_Outport__</title>
<ellipse fill="#b94a62" stroke="black" cx="526" cy="-828" rx="97.237" ry="18"/>
<text text-anchor="middle" x="526" y="-824.3" font-family="Times,serif" font-size="14.00">14 &#45; __Block_Outport__</text>
</g>
<!-- 6 &#45; Constant\n Value = 1.0&#45;&gt;14 &#45; __Block_Outport__ -->
<g id="edge10" class="edge"><title>6 &#45; Constant\n Value = 1.0&#45;&gt;14 &#45; __Block_Outport__</title>
<path fill="none" stroke="black" d="M530.035,-882.132C529.411,-873.906 528.717,-864.78 528.085,-856.446"/>
<polygon fill="black" stroke="black" points="531.572,-856.147 527.325,-846.441 524.592,-856.677 531.572,-856.147"/>
</g>
<!-- 7 &#45; Port_Output -->
<g id="node8" class="node"><title>7 &#45; Port_Output</title>
<ellipse fill="coral" stroke="black" cx="368" cy="-306" rx="65.9423" ry="18"/>
<text text-anchor="middle" x="368" y="-302.3" font-family="Times,serif" font-size="14.00">7 &#45; Port_Output</text>
</g>
<!-- 26 &#45; __Relation__ -->
<g id="node27" class="node"><title>26 &#45; __Relation__</title>
<ellipse fill="#f78465" stroke="black" cx="268" cy="-234" rx="74.6146" ry="18"/>
<text text-anchor="middle" x="268" y="-230.3" font-family="Times,serif" font-size="14.00">26 &#45; __Relation__</text>
</g>
<!-- 7 &#45; Port_Output&#45;&gt;26 &#45; __Relation__ -->
<g id="edge11" class="edge"><title>7 &#45; Port_Output&#45;&gt;26 &#45; __Relation__</title>
<path fill="none" stroke="black" d="M344.807,-288.765C331.302,-279.311 314.093,-267.265 299.389,-256.972"/>
<polygon fill="black" stroke="black" points="301.267,-254.015 291.068,-251.147 297.253,-259.749 301.267,-254.015"/>
</g>
<!-- 8 &#45; Port_Output -->
<g id="node9" class="node"><title>8 &#45; Port_Output</title>
<ellipse fill="coral" stroke="black" cx="233" cy="-756" rx="65.9423" ry="18"/>
<text text-anchor="middle" x="233" y="-752.3" font-family="Times,serif" font-size="14.00">8 &#45; Port_Output</text>
</g>
<!-- 29 &#45; __Relation__ -->
<g id="node30" class="node"><title>29 &#45; __Relation__</title>
<ellipse fill="#f78465" stroke="black" cx="206" cy="-684" rx="74.6146" ry="18"/>
<text text-anchor="middle" x="206" y="-680.3" font-family="Times,serif" font-size="14.00">29 &#45; __Relation__</text>
</g>
<!-- 8 &#45; Port_Output&#45;&gt;29 &#45; __Relation__ -->
<g id="edge12" class="edge"><title>8 &#45; Port_Output&#45;&gt;29 &#45; __Relation__</title>
<path fill="none" stroke="black" d="M226.464,-738.055C223.425,-730.176 219.738,-720.617 216.335,-711.794"/>
<polygon fill="black" stroke="black" points="219.528,-710.346 212.663,-702.275 212.997,-712.865 219.528,-710.346"/>
</g>
<!-- 9 &#45; Port_Output -->
<g id="node10" class="node"><title>9 &#45; Port_Output</title>
<ellipse fill="coral" stroke="black" cx="919" cy="-306" rx="65.9423" ry="18"/>
<text text-anchor="middle" x="919" y="-302.3" font-family="Times,serif" font-size="14.00">9 &#45; Port_Output</text>
</g>
<!-- 25 &#45; __Relation__ -->
<g id="node26" class="node"><title>25 &#45; __Relation__</title>
<ellipse fill="#f78465" stroke="black" cx="921" cy="-234" rx="74.6146" ry="18"/>
<text text-anchor="middle" x="921" y="-230.3" font-family="Times,serif" font-size="14.00">25 &#45; __Relation__</text>
</g>
<!-- 9 &#45; Port_Output&#45;&gt;25 &#45; __Relation__ -->
<g id="edge13" class="edge"><title>9 &#45; Port_Output&#45;&gt;25 &#45; __Relation__</title>
<path fill="none" stroke="black" d="M919.494,-287.697C919.715,-279.983 919.98,-270.712 920.225,-262.112"/>
<polygon fill="black" stroke="black" points="923.724,-262.2 920.511,-252.104 916.727,-262 923.724,-262.2"/>
</g>
<!-- 10 &#45; Port_Output -->
<g id="node11" class="node"><title>10 &#45; Port_Output</title>
<ellipse fill="coral" stroke="black" cx="526" cy="-756" rx="70.2668" ry="18"/>
<text text-anchor="middle" x="526" y="-752.3" font-family="Times,serif" font-size="14.00">10 &#45; Port_Output</text>
</g>
<!-- 27 &#45; __Relation__ -->
<g id="node28" class="node"><title>27 &#45; __Relation__</title>
<ellipse fill="#f78465" stroke="black" cx="381" cy="-684" rx="74.6146" ry="18"/>
<text text-anchor="middle" x="381" y="-680.3" font-family="Times,serif" font-size="14.00">27 &#45; __Relation__</text>
</g>
<!-- 10 &#45; Port_Output&#45;&gt;27 &#45; __Relation__ -->
<g id="edge15" class="edge"><title>10 &#45; Port_Output&#45;&gt;27 &#45; __Relation__</title>
<path fill="none" stroke="black" d="M494.537,-739.811C473.307,-729.562 445.078,-715.934 422.079,-704.831"/>
<polygon fill="black" stroke="black" points="423.429,-701.597 412.902,-700.401 420.386,-707.901 423.429,-701.597"/>
</g>
<!-- 28 &#45; __Relation__ -->
<g id="node29" class="node"><title>28 &#45; __Relation__</title>
<ellipse fill="#f78465" stroke="black" cx="548" cy="-684" rx="74.6146" ry="18"/>
<text text-anchor="middle" x="548" y="-680.3" font-family="Times,serif" font-size="14.00">28 &#45; __Relation__</text>
</g>
<!-- 10 &#45; Port_Output&#45;&gt;28 &#45; __Relation__ -->
<g id="edge14" class="edge"><title>10 &#45; Port_Output&#45;&gt;28 &#45; __Relation__</title>
<path fill="none" stroke="black" d="M531.438,-737.697C533.889,-729.898 536.84,-720.509 539.568,-711.829"/>
<polygon fill="black" stroke="black" points="542.965,-712.694 542.624,-702.104 536.287,-710.595 542.965,-712.694"/>
</g>
<!-- 11 &#45; __Block_Outport__&#45;&gt;7 &#45; Port_Output -->
<g id="edge16" class="edge"><title>11 &#45; __Block_Outport__&#45;&gt;7 &#45; Port_Output</title>
<path fill="none" stroke="black" d="M377.787,-359.697C376.354,-351.983 374.632,-342.712 373.035,-334.112"/>
<polygon fill="black" stroke="black" points="376.444,-333.297 371.177,-324.104 369.561,-334.575 376.444,-333.297"/>
</g>
<!-- 12 &#45; __Block_Outport__&#45;&gt;8 &#45; Port_Output -->
<g id="edge17" class="edge"><title>12 &#45; __Block_Outport__&#45;&gt;8 &#45; Port_Output</title>
<path fill="none" stroke="black" d="M273.17,-810.055C266.79,-801.629 258.955,-791.28 251.903,-781.966"/>
<polygon fill="black" stroke="black" points="254.539,-779.649 245.712,-773.789 248.958,-783.874 254.539,-779.649"/>
</g>
<!-- 13 &#45; __Block_Outport__&#45;&gt;9 &#45; Port_Output -->
<g id="edge18" class="edge"><title>13 &#45; __Block_Outport__&#45;&gt;9 &#45; Port_Output</title>
<path fill="none" stroke="black" d="M918.247,-359.697C918.357,-351.983 918.49,-342.712 918.613,-334.112"/>
<polygon fill="black" stroke="black" points="922.112,-334.153 918.756,-324.104 915.113,-334.053 922.112,-334.153"/>
</g>
<!-- 14 &#45; __Block_Outport__&#45;&gt;10 &#45; Port_Output -->
<g id="edge19" class="edge"><title>14 &#45; __Block_Outport__&#45;&gt;10 &#45; Port_Output</title>
<path fill="none" stroke="black" d="M526,-809.697C526,-801.983 526,-792.712 526,-784.112"/>
<polygon fill="black" stroke="black" points="529.5,-784.104 526,-774.104 522.5,-784.104 529.5,-784.104"/>
</g>
<!-- 15 &#45; Port_Input -->
<g id="node16" class="node"><title>15 &#45; Port_Input</title>
<ellipse fill="lightyellow" stroke="black" cx="197" cy="-612" rx="64.4914" ry="18"/>
<text text-anchor="middle" x="197" y="-608.3" font-family="Times,serif" font-size="14.00">15 &#45; Port_Input</text>
</g>
<!-- 20 &#45; __Block_Inport__ -->
<g id="node21" class="node"><title>20 &#45; __Block_Inport__</title>
<ellipse fill="#b94a62" stroke="black" cx="180" cy="-540" rx="91.4625" ry="18"/>
<text text-anchor="middle" x="180" y="-536.3" font-family="Times,serif" font-size="14.00">20 &#45; __Block_Inport__</text>
</g>
<!-- 15 &#45; Port_Input&#45;&gt;20 &#45; __Block_Inport__ -->
<g id="edge20" class="edge"><title>15 &#45; Port_Input&#45;&gt;20 &#45; __Block_Inport__</title>
<path fill="none" stroke="black" d="M192.798,-593.697C190.904,-585.898 188.623,-576.509 186.516,-567.829"/>
<polygon fill="black" stroke="black" points="189.915,-566.996 184.154,-558.104 183.113,-568.648 189.915,-566.996"/>
</g>
<!-- 16 &#45; Port_Input -->
<g id="node17" class="node"><title>16 &#45; Port_Input</title>
<ellipse fill="lightyellow" stroke="black" cx="381" cy="-612" rx="64.4914" ry="18"/>
<text text-anchor="middle" x="381" y="-608.3" font-family="Times,serif" font-size="14.00">16 &#45; Port_Input</text>
</g>
<!-- 21 &#45; __Block_Inport__ -->
<g id="node22" class="node"><title>21 &#45; __Block_Inport__</title>
<ellipse fill="#b94a62" stroke="black" cx="381" cy="-540" rx="91.4625" ry="18"/>
<text text-anchor="middle" x="381" y="-536.3" font-family="Times,serif" font-size="14.00">21 &#45; __Block_Inport__</text>
</g>
<!-- 16 &#45; Port_Input&#45;&gt;21 &#45; __Block_Inport__ -->
<g id="edge21" class="edge"><title>16 &#45; Port_Input&#45;&gt;21 &#45; __Block_Inport__</title>
<path fill="none" stroke="black" d="M381,-593.697C381,-585.983 381,-576.712 381,-568.112"/>
<polygon fill="black" stroke="black" points="384.5,-568.104 381,-558.104 377.5,-568.104 384.5,-568.104"/>
</g>
<!-- 17 &#45; Port_Input -->
<g id="node18" class="node"><title>17 &#45; Port_Input</title>
<ellipse fill="lightyellow" stroke="black" cx="921" cy="-162" rx="64.4914" ry="18"/>
<text text-anchor="middle" x="921" y="-158.3" font-family="Times,serif" font-size="14.00">17 &#45; Port_Input</text>
</g>
<!-- 22 &#45; __Block_Inport__ -->
<g id="node23" class="node"><title>22 &#45; __Block_Inport__</title>
<ellipse fill="#b94a62" stroke="black" cx="922" cy="-90" rx="91.4625" ry="18"/>
<text text-anchor="middle" x="922" y="-86.3" font-family="Times,serif" font-size="14.00">22 &#45; __Block_Inport__</text>
</g>
<!-- 17 &#45; Port_Input&#45;&gt;22 &#45; __Block_Inport__ -->
<g id="edge22" class="edge"><title>17 &#45; Port_Input&#45;&gt;22 &#45; __Block_Inport__</title>
<path fill="none" stroke="black" d="M921.247,-143.697C921.357,-135.983 921.49,-126.712 921.613,-118.112"/>
<polygon fill="black" stroke="black" points="925.112,-118.153 921.756,-108.104 918.113,-118.053 925.112,-118.153"/>
</g>
<!-- 18 &#45; Port_Input -->
<g id="node19" class="node"><title>18 &#45; Port_Input</title>
<ellipse fill="lightyellow" stroke="black" cx="553" cy="-612" rx="64.4914" ry="18"/>
<text text-anchor="middle" x="553" y="-608.3" font-family="Times,serif" font-size="14.00">18 &#45; Port_Input</text>
</g>
<!-- 23 &#45; __Block_Inport__ -->
<g id="node24" class="node"><title>23 &#45; __Block_Inport__</title>
<ellipse fill="#b94a62" stroke="black" cx="753" cy="-540" rx="91.4625" ry="18"/>
<text text-anchor="middle" x="753" y="-536.3" font-family="Times,serif" font-size="14.00">23 &#45; __Block_Inport__</text>
</g>
<!-- 18 &#45; Port_Input&#45;&gt;23 &#45; __Block_Inport__ -->
<g id="edge23" class="edge"><title>18 &#45; Port_Input&#45;&gt;23 &#45; __Block_Inport__</title>
<path fill="none" stroke="black" d="M591.562,-597.503C622.453,-586.692 666.113,-571.41 700.242,-559.465"/>
<polygon fill="black" stroke="black" points="701.767,-562.64 710.049,-556.033 699.454,-556.033 701.767,-562.64"/>
</g>
<!-- 19 &#45; Port_Input -->
<g id="node20" class="node"><title>19 &#45; Port_Input</title>
<ellipse fill="lightyellow" stroke="black" cx="218" cy="-162" rx="64.4914" ry="18"/>
<text text-anchor="middle" x="218" y="-158.3" font-family="Times,serif" font-size="14.00">19 &#45; Port_Input</text>
</g>
<!-- 24 &#45; __Block_Inport__ -->
<g id="node25" class="node"><title>24 &#45; __Block_Inport__</title>
<ellipse fill="#b94a62" stroke="black" cx="193" cy="-90" rx="91.4625" ry="18"/>
<text text-anchor="middle" x="193" y="-86.3" font-family="Times,serif" font-size="14.00">24 &#45; __Block_Inport__</text>
</g>
<!-- 19 &#45; Port_Input&#45;&gt;24 &#45; __Block_Inport__ -->
<g id="edge24" class="edge"><title>19 &#45; Port_Input&#45;&gt;24 &#45; __Block_Inport__</title>
<path fill="none" stroke="black" d="M211.948,-144.055C209.134,-136.176 205.72,-126.617 202.569,-117.794"/>
<polygon fill="black" stroke="black" points="205.829,-116.516 199.17,-108.275 199.237,-118.87 205.829,-116.516"/>
</g>
<!-- 20 &#45; __Block_Inport__&#45;&gt;0 &#45; Product -->
<g id="edge25" class="edge"><title>20 &#45; __Block_Inport__&#45;&gt;0 &#45; Product</title>
<path fill="none" stroke="black" d="M219.232,-523.58C253.694,-510.036 303.697,-490.383 338.969,-476.52"/>
<polygon fill="black" stroke="black" points="340.475,-479.688 348.502,-472.773 337.914,-473.174 340.475,-479.688"/>
</g>
<!-- 21 &#45; __Block_Inport__&#45;&gt;0 &#45; Product -->
<g id="edge26" class="edge"><title>21 &#45; __Block_Inport__&#45;&gt;0 &#45; Product</title>
<path fill="none" stroke="black" d="M381,-521.858C381,-511.713 381,-498.634 381,-487.117"/>
<polygon fill="black" stroke="black" points="384.5,-487.108 381,-477.108 377.5,-487.108 384.5,-487.108"/>
</g>
<!-- 22 &#45; __Block_Inport__&#45;&gt;3 &#45; Scope -->
<g id="edge27" class="edge"><title>22 &#45; __Block_Inport__&#45;&gt;3 &#45; Scope</title>
<path fill="none" stroke="black" d="M936.524,-72.055C944.003,-63.3303 953.248,-52.5444 961.445,-42.9808"/>
<polygon fill="black" stroke="black" points="964.172,-45.1774 968.023,-35.307 958.857,-40.6218 964.172,-45.1774"/>
</g>
<!-- 23 &#45; __Block_Inport__&#45;&gt;1 &#45; Gain\n Gain = 1.0 -->
<g id="edge28" class="edge"><title>23 &#45; __Block_Inport__&#45;&gt;1 &#45; Gain\n Gain = 1.0</title>
<path fill="none" stroke="black" d="M763.415,-521.858C768.44,-513.589 774.648,-503.371 780.562,-493.638"/>
<polygon fill="black" stroke="black" points="783.666,-495.27 785.867,-484.906 777.683,-491.635 783.666,-495.27"/>
</g>
<!-- 24 &#45; __Block_Inport__&#45;&gt;5 &#45; Scope -->
<g id="edge29" class="edge"><title>24 &#45; __Block_Inport__&#45;&gt;5 &#45; Scope</title>
<path fill="none" stroke="black" d="M177.023,-72.055C168.715,-63.243 158.424,-52.3285 149.34,-42.6943"/>
<polygon fill="black" stroke="black" points="151.782,-40.1819 142.375,-35.307 146.689,-44.984 151.782,-40.1819"/>
</g>
<!-- 25 &#45; __Relation__&#45;&gt;17 &#45; Port_Input -->
<g id="edge30" class="edge"><title>25 &#45; __Relation__&#45;&gt;17 &#45; Port_Input</title>
<path fill="none" stroke="black" d="M921,-215.697C921,-207.983 921,-198.712 921,-190.112"/>
<polygon fill="black" stroke="black" points="924.5,-190.104 921,-180.104 917.5,-190.104 924.5,-190.104"/>
</g>
<!-- 26 &#45; __Relation__&#45;&gt;19 &#45; Port_Input -->
<g id="edge31" class="edge"><title>26 &#45; __Relation__&#45;&gt;19 &#45; Port_Input</title>
<path fill="none" stroke="black" d="M255.896,-216.055C249.878,-207.629 242.486,-197.28 235.833,-187.966"/>
<polygon fill="black" stroke="black" points="238.653,-185.892 229.992,-179.789 232.956,-189.961 238.653,-185.892"/>
</g>
<!-- 27 &#45; __Relation__&#45;&gt;16 &#45; Port_Input -->
<g id="edge32" class="edge"><title>27 &#45; __Relation__&#45;&gt;16 &#45; Port_Input</title>
<path fill="none" stroke="black" d="M381,-665.697C381,-657.983 381,-648.712 381,-640.112"/>
<polygon fill="black" stroke="black" points="384.5,-640.104 381,-630.104 377.5,-640.104 384.5,-640.104"/>
</g>
<!-- 28 &#45; __Relation__&#45;&gt;18 &#45; Port_Input -->
<g id="edge33" class="edge"><title>28 &#45; __Relation__&#45;&gt;18 &#45; Port_Input</title>
<path fill="none" stroke="black" d="M549.236,-665.697C549.787,-657.983 550.449,-648.712 551.063,-640.112"/>
<polygon fill="black" stroke="black" points="554.557,-640.328 551.778,-630.104 547.575,-639.83 554.557,-640.328"/>
</g>
<!-- 29 &#45; __Relation__&#45;&gt;15 &#45; Port_Input -->
<g id="edge34" class="edge"><title>29 &#45; __Relation__&#45;&gt;15 &#45; Port_Input</title>
<path fill="none" stroke="black" d="M203.775,-665.697C202.783,-657.983 201.592,-648.712 200.486,-640.112"/>
<polygon fill="black" stroke="black" points="203.946,-639.576 199.199,-630.104 197.003,-640.469 203.946,-639.576"/>
</g>
<!-- 30 &#45; __Contains__&#45;&gt;0 &#45; Product -->
<g id="edge36" class="edge"><title>30 &#45; __Contains__&#45;&gt;0 &#45; Product</title>
<path fill="none" stroke="black" d="M531.577,-523.955C500.111,-510.59 454.147,-491.068 421.289,-477.112"/>
<polygon fill="black" stroke="black" points="422.541,-473.841 411.969,-473.153 419.805,-480.284 422.541,-473.841"/>
</g>
<!-- 36 &#45; Constant\n Value = 1.0 -->
<g id="node37" class="node"><title>36 &#45; Constant\n Value = 1.0</title>
<ellipse fill="lightblue" stroke="black" cx="540" cy="-459" rx="63.459" ry="26.7407"/>
<text text-anchor="middle" x="540" y="-462.8" font-family="Times,serif" font-size="14.00">36 &#45; Constant</text>
<text text-anchor="middle" x="540" y="-447.8" font-family="Times,serif" font-size="14.00"> Value = 1.0</text>
</g>
<!-- 30 &#45; __Contains__&#45;&gt;36 &#45; Constant\n Value = 1.0 -->
<g id="edge35" class="edge"><title>30 &#45; __Contains__&#45;&gt;36 &#45; Constant\n Value = 1.0</title>
<path fill="none" stroke="black" d="M561.141,-521.858C558.499,-514.127 555.274,-504.691 552.147,-495.541"/>
<polygon fill="black" stroke="black" points="555.37,-494.15 548.824,-485.82 548.747,-496.414 555.37,-494.15"/>
</g>
<!-- 31 &#45; __Contains__&#45;&gt;3 &#45; Scope -->
<g id="edge37" class="edge"><title>31 &#45; __Contains__&#45;&gt;3 &#45; Scope</title>
<path fill="none" stroke="black" d="M993.054,-810.147C1011.51,-784.588 1043,-733.816 1043,-685 1043,-685 1043,-685 1043,-161 1043,-120.358 1039.28,-108.786 1022,-72 1017.17,-61.7207 1010.14,-51.5041 1003.31,-42.8241"/>
<polygon fill="black" stroke="black" points="1005.95,-40.5295 996.901,-35.0211 1000.54,-44.9711 1005.95,-40.5295"/>
</g>
<!-- 32 &#45; __Contains__&#45;&gt;4 &#45; Constant\n Value = 1.0 -->
<g id="edge38" class="edge"><title>32 &#45; __Contains__&#45;&gt;4 &#45; Constant\n Value = 1.0</title>
<path fill="none" stroke="black" d="M323.745,-971.858C322.293,-964.209 320.524,-954.891 318.804,-945.833"/>
<polygon fill="black" stroke="black" points="322.207,-944.991 316.902,-935.82 315.329,-946.297 322.207,-944.991"/>
</g>
<!-- 33 &#45; __Contains__&#45;&gt;1 &#45; Gain\n Gain = 1.0 -->
<g id="edge40" class="edge"><title>33 &#45; __Contains__&#45;&gt;1 &#45; Gain\n Gain = 1.0</title>
<path fill="none" stroke="black" d="M911.405,-523.203C892.394,-512.32 866.728,-497.627 844.928,-485.147"/>
<polygon fill="black" stroke="black" points="846.582,-482.061 836.164,-480.13 843.104,-488.136 846.582,-482.061"/>
</g>
<!-- 37 &#45; Constant\n Value = 1.0 -->
<g id="node38" class="node"><title>37 &#45; Constant\n Value = 1.0</title>
<ellipse fill="lightblue" stroke="black" cx="939" cy="-459" rx="63.459" ry="26.7407"/>
<text text-anchor="middle" x="939" y="-462.8" font-family="Times,serif" font-size="14.00">37 &#45; Constant</text>
<text text-anchor="middle" x="939" y="-447.8" font-family="Times,serif" font-size="14.00"> Value = 1.0</text>
</g>
<!-- 33 &#45; __Contains__&#45;&gt;37 &#45; Constant\n Value = 1.0 -->
<g id="edge39" class="edge"><title>33 &#45; __Contains__&#45;&gt;37 &#45; Constant\n Value = 1.0</title>
<path fill="none" stroke="black" d="M939,-521.858C939,-514.356 939,-505.25 939,-496.358"/>
<polygon fill="black" stroke="black" points="942.5,-496.126 939,-486.126 935.5,-496.126 942.5,-496.126"/>
</g>
<!-- 34 &#45; __Contains__&#45;&gt;5 &#45; Scope -->
<g id="edge41" class="edge"><title>34 &#45; __Contains__&#45;&gt;5 &#45; Scope</title>
<path fill="none" stroke="black" d="M72.9905,-890.852C68.3557,-862.909 60,-805.77 60,-757 60,-757 60,-757 60,-161 60,-116.233 87.5729,-70.4651 107.342,-43.4035"/>
<polygon fill="black" stroke="black" points="110.224,-45.3942 113.442,-35.2996 104.631,-41.1846 110.224,-45.3942"/>
</g>
<!-- 35 &#45; __Contains__&#45;&gt;6 &#45; Constant\n Value = 1.0 -->
<g id="edge42" class="edge"><title>35 &#45; __Contains__&#45;&gt;6 &#45; Constant\n Value = 1.0</title>
<path fill="none" stroke="black" d="M535.915,-971.858C535.44,-964.356 534.864,-955.25 534.301,-946.358"/>
<polygon fill="black" stroke="black" points="537.778,-945.885 533.654,-936.126 530.792,-946.327 537.778,-945.885"/>
</g>
<!-- 36 &#45; Constant\n Value = 1.0&#45;&gt;11 &#45; __Block_Outport__ -->
<g id="edge43" class="edge"><title>36 &#45; Constant\n Value = 1.0&#45;&gt;11 &#45; __Block_Outport__</title>
<path fill="none" stroke="black" d="M499.878,-438.065C476.244,-426.322 446.398,-411.493 422.525,-399.632"/>
<polygon fill="black" stroke="black" points="423.875,-396.394 413.362,-395.079 420.76,-402.663 423.875,-396.394"/>
</g>
<!-- 37 &#45; Constant\n Value = 1.0&#45;&gt;13 &#45; __Block_Outport__ -->
<g id="edge44" class="edge"><title>37 &#45; Constant\n Value = 1.0&#45;&gt;13 &#45; __Block_Outport__</title>
<path fill="none" stroke="black" d="M932.124,-432.132C929.913,-423.815 927.457,-414.577 925.222,-406.169"/>
<polygon fill="black" stroke="black" points="928.588,-405.206 922.636,-396.441 921.823,-407.004 928.588,-405.206"/>
</g>
</g>
</svg>
