<?xml version="1.0" encoding="UTF-8" standalone="no"?>
<!DOCTYPE svg PUBLIC "-//W3C//DTD SVG 1.1//EN"
 "http://www.w3.org/Graphics/SVG/1.1/DTD/svg11.dtd">
<!-- Generated by graphviz version 2.36.0 (20140111.2315)
 -->
<!-- Title: HEasy Pages: 1 -->
<svg width="888pt" height="1088pt"
 viewBox="0.00 0.00 888.00 1088.00" xmlns="http://www.w3.org/2000/svg" xmlns:xlink="http://www.w3.org/1999/xlink">
<g id="graph0" class="graph" transform="scale(1 1) rotate(0) translate(4 1084)">
<title>HEasy</title>
<polygon fill="white" stroke="none" points="-4,4 -4,-1084 884,-1084 884,4 -4,4"/>
<!-- 0 &#45; Product -->
<g id="node1" class="node"><title>0 &#45; Product</title>
<ellipse fill="lightblue" stroke="black" cx="255" cy="-459" rx="50.0684" ry="18"/>
<text text-anchor="middle" x="255" y="-455.3" font-family="Times,serif" font-size="14.00">0 &#45; Product</text>
</g>
<!-- 11 &#45; __Block_Outport__ -->
<g id="node12" class="node"><title>11 &#45; __Block_Outport__</title>
<ellipse fill="#b94a62" stroke="black" cx="253" cy="-378" rx="97.237" ry="18"/>
<text text-anchor="middle" x="253" y="-374.3" font-family="Times,serif" font-size="14.00">11 &#45; __Block_Outport__</text>
</g>
<!-- 0 &#45; Product&#45;&gt;11 &#45; __Block_Outport__ -->
<g id="edge1" class="edge"><title>0 &#45; Product&#45;&gt;11 &#45; __Block_Outport__</title>
<path fill="none" stroke="black" d="M254.566,-440.858C254.309,-430.713 253.978,-417.634 253.687,-406.117"/>
<polygon fill="black" stroke="black" points="257.185,-406.017 253.433,-396.108 250.187,-406.194 257.185,-406.017"/>
</g>
<!-- 1 &#45; Gain\n Gain = 1.0 -->
<g id="node2" class="node"><title>1 &#45; Gain\n Gain = 1.0</title>
<ellipse fill="lightblue" stroke="black" cx="679" cy="-459" rx="56.3526" ry="26.7407"/>
<text text-anchor="middle" x="679" y="-462.8" font-family="Times,serif" font-size="14.00">1 &#45; Gain</text>
<text text-anchor="middle" x="679" y="-447.8" font-family="Times,serif" font-size="14.00"> Gain = 1.0</text>
</g>
<!-- 13 &#45; __Block_Outport__ -->
<g id="node14" class="node"><title>13 &#45; __Block_Outport__</title>
<ellipse fill="#b94a62" stroke="black" cx="679" cy="-378" rx="97.237" ry="18"/>
<text text-anchor="middle" x="679" y="-374.3" font-family="Times,serif" font-size="14.00">13 &#45; __Block_Outport__</text>
</g>
<!-- 1 &#45; Gain\n Gain = 1.0&#45;&gt;13 &#45; __Block_Outport__ -->
<g id="edge5" class="edge"><title>1 &#45; Gain\n Gain = 1.0&#45;&gt;13 &#45; __Block_Outport__</title>
<path fill="none" stroke="black" d="M679,-431.694C679,-423.58 679,-414.626 679,-406.438"/>
<polygon fill="black" stroke="black" points="682.5,-406.248 679,-396.248 675.5,-406.248 682.5,-406.248"/>
</g>
<!-- 2 &#45; SubSystem -->
<g id="node3" class="node"><title>2 &#45; SubSystem</title>
<ellipse fill="lightgreen" stroke="black" cx="434" cy="-1062" rx="63.0666" ry="18"/>
<text text-anchor="middle" x="434" y="-1058.3" font-family="Times,serif" font-size="14.00">2 &#45; SubSystem</text>
</g>
<!-- 30 &#45; __Contains__ -->
<g id="node31" class="node"><title>30 &#45; __Contains__</title>
<ellipse fill="lightgray" stroke="black" cx="336" cy="-828" rx="76.0649" ry="18"/>
<text text-anchor="middle" x="336" y="-824.3" font-family="Times,serif" font-size="14.00">30 &#45; __Contains__</text>
</g>
<!-- 2 &#45; SubSystem&#45;&gt;30 &#45; __Contains__ -->
<g id="edge9" class="edge"><title>2 &#45; SubSystem&#45;&gt;30 &#45; __Contains__</title>
<path fill="none" stroke="black" d="M424.009,-1044.11C418.126,-1033.84 410.737,-1020.37 405,-1008 380.511,-955.202 357.303,-891.078 345.039,-855.692"/>
<polygon fill="black" stroke="black" points="348.299,-854.409 341.736,-846.092 341.68,-856.687 348.299,-854.409"/>
</g>
<!-- 31 &#45; __Contains__ -->
<g id="node32" class="node"><title>31 &#45; __Contains__</title>
<ellipse fill="lightgray" stroke="black" cx="804" cy="-756" rx="76.0649" ry="18"/>
<text text-anchor="middle" x="804" y="-752.3" font-family="Times,serif" font-size="14.00">31 &#45; __Contains__</text>
</g>
<!-- 2 &#45; SubSystem&#45;&gt;31 &#45; __Contains__ -->
<g id="edge11" class="edge"><title>2 &#45; SubSystem&#45;&gt;31 &#45; __Contains__</title>
<path fill="none" stroke="black" d="M496.013,-1058.6C577.252,-1054.15 713.556,-1041.75 749,-1008 811.436,-948.552 810.949,-835.821 806.96,-784.131"/>
<polygon fill="black" stroke="black" points="810.438,-783.724 806.077,-774.068 803.465,-784.336 810.438,-783.724"/>
</g>
<!-- 32 &#45; __Contains__ -->
<g id="node33" class="node"><title>32 &#45; __Contains__</title>
<ellipse fill="lightgray" stroke="black" cx="261" cy="-990" rx="76.0649" ry="18"/>
<text text-anchor="middle" x="261" y="-986.3" font-family="Times,serif" font-size="14.00">32 &#45; __Contains__</text>
</g>
<!-- 2 &#45; SubSystem&#45;&gt;32 &#45; __Contains__ -->
<g id="edge13" class="edge"><title>2 &#45; SubSystem&#45;&gt;32 &#45; __Contains__</title>
<path fill="none" stroke="black" d="M398.991,-1046.83C372.557,-1036.14 336.036,-1021.36 307.205,-1009.7"/>
<polygon fill="black" stroke="black" points="308.331,-1006.38 297.748,-1005.87 305.705,-1012.86 308.331,-1006.38"/>
</g>
<!-- 33 &#45; __Contains__ -->
<g id="node34" class="node"><title>33 &#45; __Contains__</title>
<ellipse fill="lightgray" stroke="black" cx="664" cy="-990" rx="76.0649" ry="18"/>
<text text-anchor="middle" x="664" y="-986.3" font-family="Times,serif" font-size="14.00">33 &#45; __Contains__</text>
</g>
<!-- 2 &#45; SubSystem&#45;&gt;33 &#45; __Contains__ -->
<g id="edge15" class="edge"><title>2 &#45; SubSystem&#45;&gt;33 &#45; __Contains__</title>
<path fill="none" stroke="black" d="M475.385,-1048.4C512.862,-1037 568.333,-1020.12 609.426,-1007.61"/>
<polygon fill="black" stroke="black" points="610.468,-1010.95 619.015,-1004.69 608.429,-1004.25 610.468,-1010.95"/>
</g>
<!-- 34 &#45; __Contains__ -->
<g id="node35" class="node"><title>34 &#45; __Contains__</title>
<ellipse fill="lightgray" stroke="black" cx="76" cy="-909" rx="76.0649" ry="18"/>
<text text-anchor="middle" x="76" y="-905.3" font-family="Times,serif" font-size="14.00">34 &#45; __Contains__</text>
</g>
<!-- 2 &#45; SubSystem&#45;&gt;34 &#45; __Contains__ -->
<g id="edge17" class="edge"><title>2 &#45; SubSystem&#45;&gt;34 &#45; __Contains__</title>
<path fill="none" stroke="black" d="M372.308,-1058.12C317.857,-1053.37 237.765,-1040.86 176,-1008 142.509,-990.182 112.688,-957.668 94.5089,-934.998"/>
<polygon fill="black" stroke="black" points="97.0468,-932.561 88.1282,-926.842 91.5337,-936.875 97.0468,-932.561"/>
</g>
<!-- 35 &#45; __Contains__ -->
<g id="node36" class="node"><title>35 &#45; __Contains__</title>
<ellipse fill="lightgray" stroke="black" cx="490" cy="-990" rx="76.0649" ry="18"/>
<text text-anchor="middle" x="490" y="-986.3" font-family="Times,serif" font-size="14.00">35 &#45; __Contains__</text>
</g>
<!-- 2 &#45; SubSystem&#45;&gt;35 &#45; __Contains__ -->
<g id="edge19" class="edge"><title>2 &#45; SubSystem&#45;&gt;35 &#45; __Contains__</title>
<path fill="none" stroke="black" d="M447.556,-1044.05C454.366,-1035.54 462.745,-1025.07 470.255,-1015.68"/>
<polygon fill="black" stroke="black" points="473.055,-1017.78 476.569,-1007.79 467.589,-1013.41 473.055,-1017.78"/>
</g>
<!-- 3 &#45; Scope -->
<g id="node4" class="node"><title>3 &#45; Scope</title>
<ellipse fill="lightblue" stroke="black" cx="743" cy="-18" rx="44.2946" ry="18"/>
<text text-anchor="middle" x="743" y="-14.3" font-family="Times,serif" font-size="14.00">3 &#45; Scope</text>
</g>
<!-- 4 &#45; Constant\n Value = 1.0 -->
<g id="node5" class="node"><title>4 &#45; Constant\n Value = 1.0</title>
<ellipse fill="lightblue" stroke="black" cx="259" cy="-909" rx="60.2186" ry="26.7407"/>
<text text-anchor="middle" x="259" y="-912.8" font-family="Times,serif" font-size="14.00">4 &#45; Constant</text>
<text text-anchor="middle" x="259" y="-897.8" font-family="Times,serif" font-size="14.00"> Value = 1.0</text>
</g>
<!-- 12 &#45; __Block_Outport__ -->
<g id="node13" class="node"><title>12 &#45; __Block_Outport__</title>
<ellipse fill="#b94a62" stroke="black" cx="144" cy="-828" rx="97.237" ry="18"/>
<text text-anchor="middle" x="144" y="-824.3" font-family="Times,serif" font-size="14.00">12 &#45; __Block_Outport__</text>
</g>
<!-- 4 &#45; Constant\n Value = 1.0&#45;&gt;12 &#45; __Block_Outport__ -->
<g id="edge3" class="edge"><title>4 &#45; Constant\n Value = 1.0&#45;&gt;12 &#45; __Block_Outport__</title>
<path fill="none" stroke="black" d="M226.966,-885.994C211.265,-875.208 192.389,-862.241 176.611,-851.402"/>
<polygon fill="black" stroke="black" points="178.428,-848.405 168.204,-845.627 174.465,-854.174 178.428,-848.405"/>
</g>
<!-- 5 &#45; Scope -->
<g id="node6" class="node"><title>5 &#45; Scope</title>
<ellipse fill="lightblue" stroke="black" cx="80" cy="-18" rx="44.2946" ry="18"/>
<text text-anchor="middle" x="80" y="-14.3" font-family="Times,serif" font-size="14.00">5 &#45; Scope</text>
</g>
<!-- 6 &#45; Constant\n Value = 1.0 -->
<g id="node7" class="node"><title>6 &#45; Constant\n Value = 1.0</title>
<ellipse fill="lightblue" stroke="black" cx="512" cy="-909" rx="60.2186" ry="26.7407"/>
<text text-anchor="middle" x="512" y="-912.8" font-family="Times,serif" font-size="14.00">6 &#45; Constant</text>
<text text-anchor="middle" x="512" y="-897.8" font-family="Times,serif" font-size="14.00"> Value = 1.0</text>
</g>
<!-- 14 &#45; __Block_Outport__ -->
<g id="node15" class="node"><title>14 &#45; __Block_Outport__</title>
<ellipse fill="#b94a62" stroke="black" cx="528" cy="-828" rx="97.237" ry="18"/>
<text text-anchor="middle" x="528" y="-824.3" font-family="Times,serif" font-size="14.00">14 &#45; __Block_Outport__</text>
</g>
<!-- 6 &#45; Constant\n Value = 1.0&#45;&gt;14 &#45; __Block_Outport__ -->
<g id="edge7" class="edge"><title>6 &#45; Constant\n Value = 1.0&#45;&gt;14 &#45; __Block_Outport__</title>
<path fill="none" stroke="black" d="M517.239,-882.132C518.905,-873.906 520.753,-864.78 522.441,-856.446"/>
<polygon fill="black" stroke="black" points="525.913,-856.937 524.468,-846.441 519.052,-855.547 525.913,-856.937"/>
</g>
<!-- 7 &#45; Port_Output -->
<g id="node8" class="node"><title>7 &#45; Port_Output</title>
<ellipse fill="coral" stroke="black" cx="238" cy="-306" rx="65.9423" ry="18"/>
<text text-anchor="middle" x="238" y="-302.3" font-family="Times,serif" font-size="14.00">7 &#45; Port_Output</text>
</g>
<!-- 26 &#45; __Relation__ -->
<g id="node27" class="node"><title>26 &#45; __Relation__</title>
<ellipse fill="#f78465" stroke="black" cx="208" cy="-234" rx="74.6146" ry="18"/>
<text text-anchor="middle" x="208" y="-230.3" font-family="Times,serif" font-size="14.00">26 &#45; __Relation__</text>
</g>
<!-- 7 &#45; Port_Output&#45;&gt;26 &#45; __Relation__ -->
<g id="edge23" class="edge"><title>7 &#45; Port_Output&#45;&gt;26 &#45; __Relation__</title>
<path fill="none" stroke="black" d="M230.738,-288.055C227.325,-280.091 223.176,-270.411 219.361,-261.51"/>
<polygon fill="black" stroke="black" points="222.56,-260.088 215.404,-252.275 216.126,-262.845 222.56,-260.088"/>
</g>
<!-- 8 &#45; Port_Output -->
<g id="node9" class="node"><title>8 &#45; Port_Output</title>
<ellipse fill="coral" stroke="black" cx="143" cy="-756" rx="65.9423" ry="18"/>
<text text-anchor="middle" x="143" y="-752.3" font-family="Times,serif" font-size="14.00">8 &#45; Port_Output</text>
</g>
<!-- 29 &#45; __Relation__ -->
<g id="node30" class="node"><title>29 &#45; __Relation__</title>
<ellipse fill="#f78465" stroke="black" cx="142" cy="-684" rx="74.6146" ry="18"/>
<text text-anchor="middle" x="142" y="-680.3" font-family="Times,serif" font-size="14.00">29 &#45; __Relation__</text>
</g>
<!-- 8 &#45; Port_Output&#45;&gt;29 &#45; __Relation__ -->
<g id="edge29" class="edge"><title>8 &#45; Port_Output&#45;&gt;29 &#45; __Relation__</title>
<path fill="none" stroke="black" d="M142.753,-737.697C142.643,-729.983 142.51,-720.712 142.387,-712.112"/>
<polygon fill="black" stroke="black" points="145.887,-712.053 142.244,-702.104 138.888,-712.153 145.887,-712.053"/>
</g>
<!-- 9 &#45; Port_Output -->
<g id="node10" class="node"><title>9 &#45; Port_Output</title>
<ellipse fill="coral" stroke="black" cx="680" cy="-306" rx="65.9423" ry="18"/>
<text text-anchor="middle" x="680" y="-302.3" font-family="Times,serif" font-size="14.00">9 &#45; Port_Output</text>
</g>
<!-- 25 &#45; __Relation__ -->
<g id="node26" class="node"><title>25 &#45; __Relation__</title>
<ellipse fill="#f78465" stroke="black" cx="681" cy="-234" rx="74.6146" ry="18"/>
<text text-anchor="middle" x="681" y="-230.3" font-family="Times,serif" font-size="14.00">25 &#45; __Relation__</text>
</g>
<!-- 9 &#45; Port_Output&#45;&gt;25 &#45; __Relation__ -->
<g id="edge21" class="edge"><title>9 &#45; Port_Output&#45;&gt;25 &#45; __Relation__</title>
<path fill="none" stroke="black" d="M680.247,-287.697C680.357,-279.983 680.49,-270.712 680.613,-262.112"/>
<polygon fill="black" stroke="black" points="684.112,-262.153 680.756,-252.104 677.113,-262.053 684.112,-262.153"/>
</g>
<!-- 10 &#45; Port_Output -->
<g id="node11" class="node"><title>10 &#45; Port_Output</title>
<ellipse fill="coral" stroke="black" cx="528" cy="-756" rx="70.2668" ry="18"/>
<text text-anchor="middle" x="528" y="-752.3" font-family="Times,serif" font-size="14.00">10 &#45; Port_Output</text>
</g>
<!-- 27 &#45; __Relation__ -->
<g id="node28" class="node"><title>27 &#45; __Relation__</title>
<ellipse fill="#f78465" stroke="black" cx="390" cy="-684" rx="74.6146" ry="18"/>
<text text-anchor="middle" x="390" y="-680.3" font-family="Times,serif" font-size="14.00">27 &#45; __Relation__</text>
</g>
<!-- 10 &#45; Port_Output&#45;&gt;27 &#45; __Relation__ -->
<g id="edge25" class="edge"><title>10 &#45; Port_Output&#45;&gt;27 &#45; __Relation__</title>
<path fill="none" stroke="black" d="M497.715,-739.638C477.721,-729.496 451.315,-716.102 429.652,-705.113"/>
<polygon fill="black" stroke="black" points="431.193,-701.97 420.691,-700.568 428.026,-708.213 431.193,-701.97"/>
</g>
<!-- 28 &#45; __Relation__ -->
<g id="node29" class="node"><title>28 &#45; __Relation__</title>
<ellipse fill="#f78465" stroke="black" cx="561" cy="-684" rx="74.6146" ry="18"/>
<text text-anchor="middle" x="561" y="-680.3" font-family="Times,serif" font-size="14.00">28 &#45; __Relation__</text>
</g>
<!-- 10 &#45; Port_Output&#45;&gt;28 &#45; __Relation__ -->
<g id="edge27" class="edge"><title>10 &#45; Port_Output&#45;&gt;28 &#45; __Relation__</title>
<path fill="none" stroke="black" d="M535.988,-738.055C539.743,-730.091 544.306,-720.411 548.503,-711.51"/>
<polygon fill="black" stroke="black" points="551.758,-712.813 552.856,-702.275 545.426,-709.828 551.758,-712.813"/>
</g>
<!-- 11 &#45; __Block_Outport__&#45;&gt;7 &#45; Port_Output -->
<g id="edge2" class="edge"><title>11 &#45; __Block_Outport__&#45;&gt;7 &#45; Port_Output</title>
<path fill="none" stroke="black" d="M249.292,-359.697C247.639,-351.983 245.653,-342.712 243.81,-334.112"/>
<polygon fill="black" stroke="black" points="247.183,-333.149 241.665,-324.104 240.338,-334.616 247.183,-333.149"/>
</g>
<!-- 12 &#45; __Block_Outport__&#45;&gt;8 &#45; Port_Output -->
<g id="edge4" class="edge"><title>12 &#45; __Block_Outport__&#45;&gt;8 &#45; Port_Output</title>
<path fill="none" stroke="black" d="M143.753,-809.697C143.643,-801.983 143.51,-792.712 143.387,-784.112"/>
<polygon fill="black" stroke="black" points="146.887,-784.053 143.244,-774.104 139.888,-784.153 146.887,-784.053"/>
</g>
<!-- 13 &#45; __Block_Outport__&#45;&gt;9 &#45; Port_Output -->
<g id="edge6" class="edge"><title>13 &#45; __Block_Outport__&#45;&gt;9 &#45; Port_Output</title>
<path fill="none" stroke="black" d="M679.247,-359.697C679.357,-351.983 679.49,-342.712 679.613,-334.112"/>
<polygon fill="black" stroke="black" points="683.112,-334.153 679.756,-324.104 676.113,-334.053 683.112,-334.153"/>
</g>
<!-- 14 &#45; __Block_Outport__&#45;&gt;10 &#45; Port_Output -->
<g id="edge8" class="edge"><title>14 &#45; __Block_Outport__&#45;&gt;10 &#45; Port_Output</title>
<path fill="none" stroke="black" d="M528,-809.697C528,-801.983 528,-792.712 528,-784.112"/>
<polygon fill="black" stroke="black" points="531.5,-784.104 528,-774.104 524.5,-784.104 531.5,-784.104"/>
</g>
<!-- 15 &#45; Port_Input -->
<g id="node16" class="node"><title>15 &#45; Port_Input</title>
<ellipse fill="lightyellow" stroke="black" cx="141" cy="-612" rx="64.4914" ry="18"/>
<text text-anchor="middle" x="141" y="-608.3" font-family="Times,serif" font-size="14.00">15 &#45; Port_Input</text>
</g>
<!-- 20 &#45; __Block_Inport__ -->
<g id="node21" class="node"><title>20 &#45; __Block_Inport__</title>
<ellipse fill="#b94a62" stroke="black" cx="139" cy="-540" rx="91.4625" ry="18"/>
<text text-anchor="middle" x="139" y="-536.3" font-family="Times,serif" font-size="14.00">20 &#45; __Block_Inport__</text>
</g>
<!-- 15 &#45; Port_Input&#45;&gt;20 &#45; __Block_Inport__ -->
<g id="edge32" class="edge"><title>15 &#45; Port_Input&#45;&gt;20 &#45; __Block_Inport__</title>
<path fill="none" stroke="black" d="M140.506,-593.697C140.285,-585.983 140.02,-576.712 139.775,-568.112"/>
<polygon fill="black" stroke="black" points="143.273,-568 139.489,-558.104 136.276,-568.2 143.273,-568"/>
</g>
<!-- 16 &#45; Port_Input -->
<g id="node17" class="node"><title>16 &#45; Port_Input</title>
<ellipse fill="lightyellow" stroke="black" cx="387" cy="-612" rx="64.4914" ry="18"/>
<text text-anchor="middle" x="387" y="-608.3" font-family="Times,serif" font-size="14.00">16 &#45; Port_Input</text>
</g>
<!-- 21 &#45; __Block_Inport__ -->
<g id="node22" class="node"><title>21 &#45; __Block_Inport__</title>
<ellipse fill="#b94a62" stroke="black" cx="379" cy="-540" rx="91.4625" ry="18"/>
<text text-anchor="middle" x="379" y="-536.3" font-family="Times,serif" font-size="14.00">21 &#45; __Block_Inport__</text>
</g>
<!-- 16 &#45; Port_Input&#45;&gt;21 &#45; __Block_Inport__ -->
<g id="edge34" class="edge"><title>16 &#45; Port_Input&#45;&gt;21 &#45; __Block_Inport__</title>
<path fill="none" stroke="black" d="M385.022,-593.697C384.141,-585.983 383.081,-576.712 382.099,-568.112"/>
<polygon fill="black" stroke="black" points="385.568,-567.642 380.955,-558.104 378.613,-568.437 385.568,-567.642"/>
</g>
<!-- 17 &#45; Port_Input -->
<g id="node18" class="node"><title>17 &#45; Port_Input</title>
<ellipse fill="lightyellow" stroke="black" cx="681" cy="-162" rx="64.4914" ry="18"/>
<text text-anchor="middle" x="681" y="-158.3" font-family="Times,serif" font-size="14.00">17 &#45; Port_Input</text>
</g>
<!-- 22 &#45; __Block_Inport__ -->
<g id="node23" class="node"><title>22 &#45; __Block_Inport__</title>
<ellipse fill="#b94a62" stroke="black" cx="683" cy="-90" rx="91.4625" ry="18"/>
<text text-anchor="middle" x="683" y="-86.3" font-family="Times,serif" font-size="14.00">22 &#45; __Block_Inport__</text>
</g>
<!-- 17 &#45; Port_Input&#45;&gt;22 &#45; __Block_Inport__ -->
<g id="edge36" class="edge"><title>17 &#45; Port_Input&#45;&gt;22 &#45; __Block_Inport__</title>
<path fill="none" stroke="black" d="M681.494,-143.697C681.715,-135.983 681.98,-126.712 682.225,-118.112"/>
<polygon fill="black" stroke="black" points="685.724,-118.2 682.511,-108.104 678.727,-118 685.724,-118.2"/>
</g>
<!-- 18 &#45; Port_Input -->
<g id="node19" class="node"><title>18 &#45; Port_Input</title>
<ellipse fill="lightyellow" stroke="black" cx="578" cy="-612" rx="64.4914" ry="18"/>
<text text-anchor="middle" x="578" y="-608.3" font-family="Times,serif" font-size="14.00">18 &#45; Port_Input</text>
</g>
<!-- 23 &#45; __Block_Inport__ -->
<g id="node24" class="node"><title>23 &#45; __Block_Inport__</title>
<ellipse fill="#b94a62" stroke="black" cx="580" cy="-540" rx="91.4625" ry="18"/>
<text text-anchor="middle" x="580" y="-536.3" font-family="Times,serif" font-size="14.00">23 &#45; __Block_Inport__</text>
</g>
<!-- 18 &#45; Port_Input&#45;&gt;23 &#45; __Block_Inport__ -->
<g id="edge38" class="edge"><title>18 &#45; Port_Input&#45;&gt;23 &#45; __Block_Inport__</title>
<path fill="none" stroke="black" d="M578.494,-593.697C578.715,-585.983 578.98,-576.712 579.225,-568.112"/>
<polygon fill="black" stroke="black" points="582.724,-568.2 579.511,-558.104 575.727,-568 582.724,-568.2"/>
</g>
<!-- 19 &#45; Port_Input -->
<g id="node20" class="node"><title>19 &#45; Port_Input</title>
<ellipse fill="lightyellow" stroke="black" cx="201" cy="-162" rx="64.4914" ry="18"/>
<text text-anchor="middle" x="201" y="-158.3" font-family="Times,serif" font-size="14.00">19 &#45; Port_Input</text>
</g>
<!-- 24 &#45; __Block_Inport__ -->
<g id="node25" class="node"><title>24 &#45; __Block_Inport__</title>
<ellipse fill="#b94a62" stroke="black" cx="141" cy="-90" rx="91.4625" ry="18"/>
<text text-anchor="middle" x="141" y="-86.3" font-family="Times,serif" font-size="14.00">24 &#45; __Block_Inport__</text>
</g>
<!-- 19 &#45; Port_Input&#45;&gt;24 &#45; __Block_Inport__ -->
<g id="edge40" class="edge"><title>19 &#45; Port_Input&#45;&gt;24 &#45; __Block_Inport__</title>
<path fill="none" stroke="black" d="M186.781,-144.411C179.417,-135.82 170.279,-125.159 162.109,-115.627"/>
<polygon fill="black" stroke="black" points="164.699,-113.271 155.534,-107.956 159.384,-117.827 164.699,-113.271"/>
</g>
<!-- 20 &#45; __Block_Inport__&#45;&gt;0 &#45; Product -->
<g id="edge31" class="edge"><title>20 &#45; __Block_Inport__&#45;&gt;0 &#45; Product</title>
<path fill="none" stroke="black" d="M163.035,-522.631C180.76,-510.56 205.019,-494.039 224.171,-480.996"/>
<polygon fill="black" stroke="black" points="226.274,-483.798 232.57,-475.276 222.334,-478.012 226.274,-483.798"/>
</g>
<!-- 21 &#45; __Block_Inport__&#45;&gt;0 &#45; Product -->
<g id="edge33" class="edge"><title>21 &#45; __Block_Inport__&#45;&gt;0 &#45; Product</title>
<path fill="none" stroke="black" d="M353.307,-522.631C334.065,-510.372 307.619,-493.524 287.003,-480.389"/>
<polygon fill="black" stroke="black" points="288.877,-477.433 278.563,-475.012 285.116,-483.337 288.877,-477.433"/>
</g>
<!-- 22 &#45; __Block_Inport__&#45;&gt;3 &#45; Scope -->
<g id="edge35" class="edge"><title>22 &#45; __Block_Inport__&#45;&gt;3 &#45; Scope</title>
<path fill="none" stroke="black" d="M697.524,-72.055C705.003,-63.3303 714.248,-52.5444 722.445,-42.9808"/>
<polygon fill="black" stroke="black" points="725.172,-45.1774 729.023,-35.307 719.857,-40.6218 725.172,-45.1774"/>
</g>
<!-- 23 &#45; __Block_Inport__&#45;&gt;1 &#45; Gain\n Gain = 1.0 -->
<g id="edge37" class="edge"><title>23 &#45; __Block_Inport__&#45;&gt;1 &#45; Gain\n Gain = 1.0</title>
<path fill="none" stroke="black" d="M600.995,-522.246C613.142,-512.554 628.762,-500.089 642.83,-488.863"/>
<polygon fill="black" stroke="black" points="645.262,-491.4 650.895,-482.427 640.896,-485.929 645.262,-491.4"/>
</g>
<!-- 24 &#45; __Block_Inport__&#45;&gt;5 &#45; Scope -->
<g id="edge39" class="edge"><title>24 &#45; __Block_Inport__&#45;&gt;5 &#45; Scope</title>
<path fill="none" stroke="black" d="M126.234,-72.055C118.631,-63.3303 109.232,-52.5444 100.898,-42.9808"/>
<polygon fill="black" stroke="black" points="103.419,-40.5467 94.2104,-35.307 98.1415,-45.1456 103.419,-40.5467"/>
</g>
<!-- 25 &#45; __Relation__&#45;&gt;17 &#45; Port_Input -->
<g id="edge22" class="edge"><title>25 &#45; __Relation__&#45;&gt;17 &#45; Port_Input</title>
<path fill="none" stroke="black" d="M681,-215.697C681,-207.983 681,-198.712 681,-190.112"/>
<polygon fill="black" stroke="black" points="684.5,-190.104 681,-180.104 677.5,-190.104 684.5,-190.104"/>
</g>
<!-- 26 &#45; __Relation__&#45;&gt;19 &#45; Port_Input -->
<g id="edge24" class="edge"><title>26 &#45; __Relation__&#45;&gt;19 &#45; Port_Input</title>
<path fill="none" stroke="black" d="M206.27,-215.697C205.498,-207.983 204.571,-198.712 203.711,-190.112"/>
<polygon fill="black" stroke="black" points="207.188,-189.706 202.71,-180.104 200.223,-190.403 207.188,-189.706"/>
</g>
<!-- 27 &#45; __Relation__&#45;&gt;16 &#45; Port_Input -->
<g id="edge26" class="edge"><title>27 &#45; __Relation__&#45;&gt;16 &#45; Port_Input</title>
<path fill="none" stroke="black" d="M389.258,-665.697C388.928,-657.983 388.531,-648.712 388.162,-640.112"/>
<polygon fill="black" stroke="black" points="391.658,-639.945 387.733,-630.104 384.665,-640.245 391.658,-639.945"/>
</g>
<!-- 28 &#45; __Relation__&#45;&gt;18 &#45; Port_Input -->
<g id="edge28" class="edge"><title>28 &#45; __Relation__&#45;&gt;18 &#45; Port_Input</title>
<path fill="none" stroke="black" d="M565.202,-665.697C567.096,-657.898 569.377,-648.509 571.484,-639.829"/>
<polygon fill="black" stroke="black" points="574.887,-640.648 573.846,-630.104 568.085,-638.996 574.887,-640.648"/>
</g>
<!-- 29 &#45; __Relation__&#45;&gt;15 &#45; Port_Input -->
<g id="edge30" class="edge"><title>29 &#45; __Relation__&#45;&gt;15 &#45; Port_Input</title>
<path fill="none" stroke="black" d="M141.753,-665.697C141.643,-657.983 141.51,-648.712 141.387,-640.112"/>
<polygon fill="black" stroke="black" points="144.887,-640.053 141.244,-630.104 137.888,-640.153 144.887,-640.053"/>
</g>
<!-- 30 &#45; __Contains__&#45;&gt;0 &#45; Product -->
<g id="edge10" class="edge"><title>30 &#45; __Contains__&#45;&gt;0 &#45; Product</title>
<path fill="none" stroke="black" d="M319.67,-810.232C297.068,-785.175 259,-735.479 259,-685 259,-685 259,-685 259,-611 259,-567.791 257.343,-517.652 256.162,-487.402"/>
<polygon fill="black" stroke="black" points="259.651,-487.058 255.752,-477.207 252.657,-487.339 259.651,-487.058"/>
</g>
<!-- 31 &#45; __Contains__&#45;&gt;3 &#45; Scope -->
<g id="edge12" class="edge"><title>31 &#45; __Contains__&#45;&gt;3 &#45; Scope</title>
<path fill="none" stroke="black" d="M804,-737.951C804,-711.292 804,-658.115 804,-613 804,-613 804,-613 804,-161 804,-120.358 800.278,-108.786 783,-72 778.172,-61.7207 771.136,-51.5041 764.307,-42.8241"/>
<polygon fill="black" stroke="black" points="766.951,-40.5295 757.901,-35.0211 761.541,-44.9711 766.951,-40.5295"/>
</g>
<!-- 32 &#45; __Contains__&#45;&gt;4 &#45; Constant\n Value = 1.0 -->
<g id="edge14" class="edge"><title>32 &#45; __Contains__&#45;&gt;4 &#45; Constant\n Value = 1.0</title>
<path fill="none" stroke="black" d="M260.566,-971.858C260.376,-964.356 260.146,-955.25 259.92,-946.358"/>
<polygon fill="black" stroke="black" points="263.413,-946.034 259.661,-936.126 256.416,-946.211 263.413,-946.034"/>
</g>
<!-- 33 &#45; __Contains__&#45;&gt;1 &#45; Gain\n Gain = 1.0 -->
<g id="edge16" class="edge"><title>33 &#45; __Contains__&#45;&gt;1 &#45; Gain\n Gain = 1.0</title>
<path fill="none" stroke="black" d="M670.436,-971.999C680.791,-943.075 700,-882.243 700,-829 700,-829 700,-829 700,-611 700,-571.343 692.806,-526.38 686.839,-495.908"/>
<polygon fill="black" stroke="black" points="690.202,-494.877 684.794,-485.766 683.34,-496.261 690.202,-494.877"/>
</g>
<!-- 34 &#45; __Contains__&#45;&gt;5 &#45; Scope -->
<g id="edge18" class="edge"><title>34 &#45; __Contains__&#45;&gt;5 &#45; Scope</title>
<path fill="none" stroke="black" d="M63.5229,-891.198C55.154,-879.174 44.5105,-862.296 38,-846 22.9941,-808.44 19,-797.447 19,-757 19,-757 19,-757 19,-161 19,-120.358 22.7216,-108.786 40,-72 44.8282,-61.7207 51.864,-51.5041 58.6933,-42.8241"/>
<polygon fill="black" stroke="black" points="61.4591,-44.9711 65.099,-35.0211 56.0487,-40.5295 61.4591,-44.9711"/>
</g>
<!-- 35 &#45; __Contains__&#45;&gt;6 &#45; Constant\n Value = 1.0 -->
<g id="edge20" class="edge"><title>35 &#45; __Contains__&#45;&gt;6 &#45; Constant\n Value = 1.0</title>
<path fill="none" stroke="black" d="M494.774,-971.858C496.927,-964.127 499.554,-954.691 502.102,-945.541"/>
<polygon fill="black" stroke="black" points="505.499,-946.392 504.81,-935.82 498.755,-944.514 505.499,-946.392"/>
</g>
</g>
</svg>
