<?xml version="1.0" encoding="UTF-8" standalone="no"?>
<!DOCTYPE svg PUBLIC "-//W3C//DTD SVG 1.1//EN"
 "http://www.w3.org/Graphics/SVG/1.1/DTD/svg11.dtd">
<!-- Generated by graphviz version 2.26.3 (20100126.1600)
 -->
<!-- Title: HEasy_opt Pages: 1 -->
<svg width="1991pt" height="514pt"
 viewBox="0.00 0.00 1991.00 514.00" xmlns="http://www.w3.org/2000/svg" xmlns:xlink="http://www.w3.org/1999/xlink">
<g id="graph1" class="graph" transform="scale(1 1) rotate(0) translate(4 510)">
<title>HEasy_opt</title>
<polygon fill="white" stroke="white" points="-4,5 -4,-510 1988,-510 1988,5 -4,5"/>
<!-- 0 &#45; Product -->
<g id="node1" class="node"><title>0 &#45; Product</title>
<ellipse fill="lightblue" stroke="black" cx="854" cy="-327" rx="65.7609" ry="18.3848"/>
<text text-anchor="middle" x="854" y="-323.4" font-family="Times Roman,serif" font-size="14.00">0 &#45; Product</text>
</g>
<!-- 11 &#45; __Block_Outport__ -->
<g id="node12" class="node"><title>11 &#45; __Block_Outport__</title>
<ellipse fill="#b94a62" stroke="black" cx="542" cy="-241" rx="125.865" ry="18.3848"/>
<text text-anchor="middle" x="542" y="-237.4" font-family="Times Roman,serif" font-size="14.00">11 &#45; __Block_Outport__</text>
</g>
<!-- 0 &#45; Product&#45;&gt;11 &#45; __Block_Outport__ -->
<g id="edge2" class="edge"><title>0 &#45; Product&#45;&gt;11 &#45; __Block_Outport__</title>
<path fill="none" stroke="black" d="M806.614,-313.938C754.536,-299.584 670.399,-276.392 611,-260.019"/>
<polygon fill="black" stroke="black" points="611.891,-256.634 601.32,-257.351 610.03,-263.383 611.891,-256.634"/>
</g>
<!-- 20 &#45; __Block_Inport__ -->
<g id="node21" class="node"><title>20 &#45; __Block_Inport__</title>
<ellipse fill="#b94a62" stroke="black" cx="802" cy="-241" rx="116.172" ry="18.3848"/>
<text text-anchor="middle" x="802" y="-237.4" font-family="Times Roman,serif" font-size="14.00">20 &#45; __Block_Inport__</text>
</g>
<!-- 0 &#45; Product&#45;&gt;20 &#45; __Block_Inport__ -->
<g id="edge50" class="edge"><title>0 &#45; Product&#45;&gt;20 &#45; __Block_Inport__</title>
<path fill="none" stroke="black" d="M842.717,-308.339C835.63,-296.619 826.368,-281.301 818.469,-268.237"/>
<polygon fill="black" stroke="black" points="821.431,-266.371 813.261,-259.624 815.44,-269.993 821.431,-266.371"/>
</g>
<!-- 21 &#45; __Block_Inport__ -->
<g id="node22" class="node"><title>21 &#45; __Block_Inport__</title>
<ellipse fill="#b94a62" stroke="black" cx="1052" cy="-241" rx="116.172" ry="18.3848"/>
<text text-anchor="middle" x="1052" y="-237.4" font-family="Times Roman,serif" font-size="14.00">21 &#45; __Block_Inport__</text>
</g>
<!-- 0 &#45; Product&#45;&gt;21 &#45; __Block_Inport__ -->
<g id="edge52" class="edge"><title>0 &#45; Product&#45;&gt;21 &#45; __Block_Inport__</title>
<path fill="none" stroke="black" d="M889.856,-311.426C921.332,-297.755 967.424,-277.735 1002.43,-262.531"/>
<polygon fill="black" stroke="black" points="1004.21,-265.575 1011.98,-258.38 1001.42,-259.154 1004.21,-265.575"/>
</g>
<!-- 1 &#45; Gain\n Gain = 1.0 -->
<g id="node2" class="node"><title>1 &#45; Gain\n Gain = 1.0</title>
<ellipse fill="lightblue" stroke="black" cx="1491" cy="-327" rx="68.0887" ry="31.1127"/>
<text text-anchor="middle" x="1491" y="-332.4" font-family="Times Roman,serif" font-size="14.00">1 &#45; Gain</text>
<text text-anchor="middle" x="1491" y="-314.4" font-family="Times Roman,serif" font-size="14.00"> Gain = 1.0</text>
</g>
<!-- 13 &#45; __Block_Outport__ -->
<g id="node14" class="node"><title>13 &#45; __Block_Outport__</title>
<ellipse fill="#b94a62" stroke="black" cx="1645" cy="-241" rx="125.865" ry="18.3848"/>
<text text-anchor="middle" x="1645" y="-237.4" font-family="Times Roman,serif" font-size="14.00">13 &#45; __Block_Outport__</text>
</g>
<!-- 1 &#45; Gain\n Gain = 1.0&#45;&gt;13 &#45; __Block_Outport__ -->
<g id="edge4" class="edge"><title>1 &#45; Gain\n Gain = 1.0&#45;&gt;13 &#45; __Block_Outport__</title>
<path fill="none" stroke="black" d="M1534.31,-302.815C1556.1,-290.644 1582.39,-275.966 1603.87,-263.968"/>
<polygon fill="black" stroke="black" points="1605.73,-266.937 1612.76,-259.006 1602.32,-260.825 1605.73,-266.937"/>
</g>
<!-- 23 &#45; __Block_Inport__ -->
<g id="node24" class="node"><title>23 &#45; __Block_Inport__</title>
<ellipse fill="#b94a62" stroke="black" cx="1515" cy="-93" rx="116.172" ry="18.3848"/>
<text text-anchor="middle" x="1515" y="-89.4" font-family="Times Roman,serif" font-size="14.00">23 &#45; __Block_Inport__</text>
</g>
<!-- 1 &#45; Gain\n Gain = 1.0&#45;&gt;23 &#45; __Block_Inport__ -->
<g id="edge56" class="edge"><title>1 &#45; Gain\n Gain = 1.0&#45;&gt;23 &#45; __Block_Inport__</title>
<path fill="none" stroke="black" d="M1494.19,-295.927C1498.86,-250.331 1507.52,-165.931 1512.05,-121.717"/>
<polygon fill="black" stroke="black" points="1515.55,-121.949 1513.09,-111.644 1508.59,-121.234 1515.55,-121.949"/>
</g>
<!-- 2 &#45; SubSystem -->
<g id="node3" class="node"><title>2 &#45; SubSystem</title>
<ellipse fill="lightgreen" stroke="black" cx="1018" cy="-487" rx="82.2301" ry="18.3848"/>
<text text-anchor="middle" x="1018" y="-483.4" font-family="Times Roman,serif" font-size="14.00">2 &#45; SubSystem</text>
</g>
<!-- 30 &#45; __Contains__ -->
<g id="node31" class="node"><title>30 &#45; __Contains__</title>
<ellipse fill="lightgray" stroke="black" cx="897" cy="-413" rx="98.9949" ry="18.3848"/>
<text text-anchor="middle" x="897" y="-409.4" font-family="Times Roman,serif" font-size="14.00">30 &#45; __Contains__</text>
</g>
<!-- 2 &#45; SubSystem&#45;&gt;30 &#45; __Contains__ -->
<g id="edge16" class="edge"><title>2 &#45; SubSystem&#45;&gt;30 &#45; __Contains__</title>
<path fill="none" stroke="black" d="M989.325,-469.463C973.137,-459.563 952.701,-447.065 935.173,-436.346"/>
<polygon fill="black" stroke="black" points="936.667,-433.157 926.31,-430.925 933.015,-439.128 936.667,-433.157"/>
</g>
<!-- 31 &#45; __Contains__ -->
<g id="node32" class="node"><title>31 &#45; __Contains__</title>
<ellipse fill="lightgray" stroke="black" cx="1686" cy="-413" rx="98.9949" ry="18.3848"/>
<text text-anchor="middle" x="1686" y="-409.4" font-family="Times Roman,serif" font-size="14.00">31 &#45; __Contains__</text>
</g>
<!-- 2 &#45; SubSystem&#45;&gt;31 &#45; __Contains__ -->
<g id="edge14" class="edge"><title>2 &#45; SubSystem&#45;&gt;31 &#45; __Contains__</title>
<path fill="none" stroke="black" d="M1092.8,-479.339C1192.73,-469.024 1375.27,-449.892 1531,-432 1551.25,-429.673 1572.98,-427.074 1593.57,-424.563"/>
<polygon fill="black" stroke="black" points="1594.07,-428.028 1603.58,-423.339 1593.22,-421.079 1594.07,-428.028"/>
</g>
<!-- 32 &#45; __Contains__ -->
<g id="node33" class="node"><title>32 &#45; __Contains__</title>
<ellipse fill="lightgray" stroke="black" cx="638" cy="-413" rx="98.9949" ry="18.3848"/>
<text text-anchor="middle" x="638" y="-409.4" font-family="Times Roman,serif" font-size="14.00">32 &#45; __Contains__</text>
</g>
<!-- 2 &#45; SubSystem&#45;&gt;32 &#45; __Contains__ -->
<g id="edge12" class="edge"><title>2 &#45; SubSystem&#45;&gt;32 &#45; __Contains__</title>
<path fill="none" stroke="black" d="M955.676,-474.863C890.453,-462.162 787.87,-442.185 717.007,-428.386"/>
<polygon fill="black" stroke="black" points="717.275,-424.872 706.79,-426.396 715.937,-431.743 717.275,-424.872"/>
</g>
<!-- 33 &#45; __Contains__ -->
<g id="node34" class="node"><title>33 &#45; __Contains__</title>
<ellipse fill="lightgray" stroke="black" cx="1423" cy="-413" rx="98.9949" ry="18.3848"/>
<text text-anchor="middle" x="1423" y="-409.4" font-family="Times Roman,serif" font-size="14.00">33 &#45; __Contains__</text>
</g>
<!-- 2 &#45; SubSystem&#45;&gt;33 &#45; __Contains__ -->
<g id="edge10" class="edge"><title>2 &#45; SubSystem&#45;&gt;33 &#45; __Contains__</title>
<path fill="none" stroke="black" d="M1081.73,-475.356C1152.08,-462.502 1265.49,-441.78 1342.07,-427.787"/>
<polygon fill="black" stroke="black" points="1342.95,-431.185 1352.16,-425.944 1341.69,-424.299 1342.95,-431.185"/>
</g>
<!-- 34 &#45; __Contains__ -->
<g id="node35" class="node"><title>34 &#45; __Contains__</title>
<ellipse fill="lightgray" stroke="black" cx="335" cy="-413" rx="98.9949" ry="18.3848"/>
<text text-anchor="middle" x="335" y="-409.4" font-family="Times Roman,serif" font-size="14.00">34 &#45; __Contains__</text>
</g>
<!-- 2 &#45; SubSystem&#45;&gt;34 &#45; __Contains__ -->
<g id="edge8" class="edge"><title>2 &#45; SubSystem&#45;&gt;34 &#45; __Contains__</title>
<path fill="none" stroke="black" d="M943.933,-478.975C819.529,-465.497 568.742,-438.325 430.998,-423.401"/>
<polygon fill="black" stroke="black" points="431.192,-419.902 420.873,-422.304 430.438,-426.861 431.192,-419.902"/>
</g>
<!-- 35 &#45; __Contains__ -->
<g id="node36" class="node"><title>35 &#45; __Contains__</title>
<ellipse fill="lightgray" stroke="black" cx="1139" cy="-413" rx="98.9949" ry="18.3848"/>
<text text-anchor="middle" x="1139" y="-409.4" font-family="Times Roman,serif" font-size="14.00">35 &#45; __Contains__</text>
</g>
<!-- 2 &#45; SubSystem&#45;&gt;35 &#45; __Contains__ -->
<g id="edge6" class="edge"><title>2 &#45; SubSystem&#45;&gt;35 &#45; __Contains__</title>
<path fill="none" stroke="black" d="M1046.68,-469.463C1062.86,-459.563 1083.3,-447.065 1100.83,-436.346"/>
<polygon fill="black" stroke="black" points="1102.98,-439.128 1109.69,-430.925 1099.33,-433.157 1102.98,-439.128"/>
</g>
<!-- 3 &#45; Scope -->
<g id="node4" class="node"><title>3 &#45; Scope</title>
<ellipse fill="lightblue" stroke="black" cx="1733" cy="-327" rx="56.0679" ry="18.3848"/>
<text text-anchor="middle" x="1733" y="-323.4" font-family="Times Roman,serif" font-size="14.00">3 &#45; Scope</text>
</g>
<!-- 22 &#45; __Block_Inport__ -->
<g id="node23" class="node"><title>22 &#45; __Block_Inport__</title>
<ellipse fill="#b94a62" stroke="black" cx="1867" cy="-167" rx="116.172" ry="18.3848"/>
<text text-anchor="middle" x="1867" y="-163.4" font-family="Times Roman,serif" font-size="14.00">22 &#45; __Block_Inport__</text>
</g>
<!-- 3 &#45; Scope&#45;&gt;22 &#45; __Block_Inport__ -->
<g id="edge54" class="edge"><title>3 &#45; Scope&#45;&gt;22 &#45; __Block_Inport__</title>
<path fill="none" stroke="black" d="M1748.11,-308.957C1771.77,-280.704 1817.68,-225.886 1845.01,-193.257"/>
<polygon fill="black" stroke="black" points="1847.79,-195.383 1851.53,-185.469 1842.43,-190.889 1847.79,-195.383"/>
</g>
<!-- 4 &#45; Constant\n Value = 1.0 -->
<g id="node5" class="node"><title>4 &#45; Constant\n Value = 1.0</title>
<ellipse fill="lightblue" stroke="black" cx="610" cy="-327" rx="72.832" ry="31.1127"/>
<text text-anchor="middle" x="610" y="-332.4" font-family="Times Roman,serif" font-size="14.00">4 &#45; Constant</text>
<text text-anchor="middle" x="610" y="-314.4" font-family="Times Roman,serif" font-size="14.00"> Value = 1.0</text>
</g>
<!-- 12 &#45; __Block_Outport__ -->
<g id="node13" class="node"><title>12 &#45; __Block_Outport__</title>
<ellipse fill="#b94a62" stroke="black" cx="272" cy="-241" rx="125.865" ry="18.3848"/>
<text text-anchor="middle" x="272" y="-237.4" font-family="Times Roman,serif" font-size="14.00">12 &#45; __Block_Outport__</text>
</g>
<!-- 4 &#45; Constant\n Value = 1.0&#45;&gt;12 &#45; __Block_Outport__ -->
<g id="edge18" class="edge"><title>4 &#45; Constant\n Value = 1.0&#45;&gt;12 &#45; __Block_Outport__</title>
<path fill="none" stroke="black" d="M547.217,-311.026C489.889,-296.439 405.139,-274.876 344.852,-259.536"/>
<polygon fill="black" stroke="black" points="345.574,-256.108 335.019,-257.035 343.848,-262.892 345.574,-256.108"/>
</g>
<!-- 5 &#45; Gain\n Gain = 1.0 -->
<g id="node6" class="node"><title>5 &#45; Gain\n Gain = 1.0</title>
<ellipse fill="lightblue" stroke="black" cx="161" cy="-327" rx="68.0887" ry="31.1127"/>
<text text-anchor="middle" x="161" y="-332.4" font-family="Times Roman,serif" font-size="14.00">5 &#45; Gain</text>
<text text-anchor="middle" x="161" y="-314.4" font-family="Times Roman,serif" font-size="14.00"> Gain = 1.0</text>
</g>
<!-- 24 &#45; __Block_Inport__ -->
<g id="node25" class="node"><title>24 &#45; __Block_Inport__</title>
<ellipse fill="#b94a62" stroke="black" cx="116" cy="-167" rx="116.172" ry="18.3848"/>
<text text-anchor="middle" x="116" y="-163.4" font-family="Times Roman,serif" font-size="14.00">24 &#45; __Block_Inport__</text>
</g>
<!-- 5 &#45; Gain\n Gain = 1.0&#45;&gt;24 &#45; __Block_Inport__ -->
<g id="edge58" class="edge"><title>5 &#45; Gain\n Gain = 1.0&#45;&gt;24 &#45; __Block_Inport__</title>
<path fill="none" stroke="black" d="M149.092,-296.236C144.956,-284.939 140.485,-271.983 137,-260 130.789,-238.643 125.312,-214.083 121.51,-195.567"/>
<polygon fill="black" stroke="black" points="124.928,-194.811 119.524,-185.697 118.066,-196.191 124.928,-194.811"/>
</g>
<!-- 6 &#45; Constant\n Value = 1.0 -->
<g id="node7" class="node"><title>6 &#45; Constant\n Value = 1.0</title>
<ellipse fill="lightblue" stroke="black" cx="1286" cy="-327" rx="72.832" ry="31.1127"/>
<text text-anchor="middle" x="1286" y="-332.4" font-family="Times Roman,serif" font-size="14.00">6 &#45; Constant</text>
<text text-anchor="middle" x="1286" y="-314.4" font-family="Times Roman,serif" font-size="14.00"> Value = 1.0</text>
</g>
<!-- 14 &#45; __Block_Outport__ -->
<g id="node15" class="node"><title>14 &#45; __Block_Outport__</title>
<ellipse fill="#b94a62" stroke="black" cx="1312" cy="-241" rx="125.865" ry="18.3848"/>
<text text-anchor="middle" x="1312" y="-237.4" font-family="Times Roman,serif" font-size="14.00">14 &#45; __Block_Outport__</text>
</g>
<!-- 6 &#45; Constant\n Value = 1.0&#45;&gt;14 &#45; __Block_Outport__ -->
<g id="edge20" class="edge"><title>6 &#45; Constant\n Value = 1.0&#45;&gt;14 &#45; __Block_Outport__</title>
<path fill="none" stroke="black" d="M1295.39,-295.952C1298.04,-287.168 1300.92,-277.662 1303.52,-269.065"/>
<polygon fill="black" stroke="black" points="1306.87,-270.074 1306.41,-259.489 1300.17,-268.048 1306.87,-270.074"/>
</g>
<!-- 7 &#45; Port_Output -->
<g id="node8" class="node"><title>7 &#45; Port_Output</title>
<ellipse fill="coral" stroke="black" cx="542" cy="-167" rx="87.889" ry="18.3848"/>
<text text-anchor="middle" x="542" y="-163.4" font-family="Times Roman,serif" font-size="14.00">7 &#45; Port_Output</text>
</g>
<!-- 26 &#45; __Relation__ -->
<g id="node27" class="node"><title>26 &#45; __Relation__</title>
<ellipse fill="#f78465" stroke="black" cx="543" cy="-93" rx="94.9596" ry="18.3848"/>
<text text-anchor="middle" x="543" y="-89.4" font-family="Times Roman,serif" font-size="14.00">26 &#45; __Relation__</text>
</g>
<!-- 7 &#45; Port_Output&#45;&gt;26 &#45; __Relation__ -->
<g id="edge22" class="edge"><title>7 &#45; Port_Output&#45;&gt;26 &#45; __Relation__</title>
<path fill="none" stroke="black" d="M542.252,-148.327C542.361,-140.264 542.491,-130.648 542.612,-121.711"/>
<polygon fill="black" stroke="black" points="546.112,-121.714 542.748,-111.667 539.113,-121.619 546.112,-121.714"/>
</g>
<!-- 8 &#45; Port_Output -->
<g id="node9" class="node"><title>8 &#45; Port_Output</title>
<ellipse fill="coral" stroke="black" cx="338" cy="-167" rx="87.889" ry="18.3848"/>
<text text-anchor="middle" x="338" y="-163.4" font-family="Times Roman,serif" font-size="14.00">8 &#45; Port_Output</text>
</g>
<!-- 29 &#45; __Relation__ -->
<g id="node30" class="node"><title>29 &#45; __Relation__</title>
<ellipse fill="#f78465" stroke="black" cx="335" cy="-93" rx="94.9596" ry="18.3848"/>
<text text-anchor="middle" x="335" y="-89.4" font-family="Times Roman,serif" font-size="14.00">29 &#45; __Relation__</text>
</g>
<!-- 8 &#45; Port_Output&#45;&gt;29 &#45; __Relation__ -->
<g id="edge24" class="edge"><title>8 &#45; Port_Output&#45;&gt;29 &#45; __Relation__</title>
<path fill="none" stroke="black" d="M337.243,-148.327C336.916,-140.264 336.526,-130.648 336.164,-121.711"/>
<polygon fill="black" stroke="black" points="339.659,-121.517 335.757,-111.667 332.665,-121.801 339.659,-121.517"/>
</g>
<!-- 9 &#45; Port_Output -->
<g id="node10" class="node"><title>9 &#45; Port_Output</title>
<ellipse fill="coral" stroke="black" cx="1645" cy="-167" rx="87.889" ry="18.3848"/>
<text text-anchor="middle" x="1645" y="-163.4" font-family="Times Roman,serif" font-size="14.00">9 &#45; Port_Output</text>
</g>
<!-- 25 &#45; __Relation__ -->
<g id="node26" class="node"><title>25 &#45; __Relation__</title>
<ellipse fill="#f78465" stroke="black" cx="1744" cy="-93" rx="94.9596" ry="18.3848"/>
<text text-anchor="middle" x="1744" y="-89.4" font-family="Times Roman,serif" font-size="14.00">25 &#45; __Relation__</text>
</g>
<!-- 9 &#45; Port_Output&#45;&gt;25 &#45; __Relation__ -->
<g id="edge26" class="edge"><title>9 &#45; Port_Output&#45;&gt;25 &#45; __Relation__</title>
<path fill="none" stroke="black" d="M1668.97,-149.087C1681.76,-139.523 1697.69,-127.615 1711.58,-117.236"/>
<polygon fill="black" stroke="black" points="1714,-119.795 1719.91,-111.005 1709.81,-114.189 1714,-119.795"/>
</g>
<!-- 10 &#45; Port_Output -->
<g id="node11" class="node"><title>10 &#45; Port_Output</title>
<ellipse fill="coral" stroke="black" cx="1286" cy="-167" rx="94.7523" ry="18.3848"/>
<text text-anchor="middle" x="1286" y="-163.4" font-family="Times Roman,serif" font-size="14.00">10 &#45; Port_Output</text>
</g>
<!-- 27 &#45; __Relation__ -->
<g id="node28" class="node"><title>27 &#45; __Relation__</title>
<ellipse fill="#f78465" stroke="black" cx="1078" cy="-93" rx="94.9596" ry="18.3848"/>
<text text-anchor="middle" x="1078" y="-89.4" font-family="Times Roman,serif" font-size="14.00">27 &#45; __Relation__</text>
</g>
<!-- 10 &#45; Port_Output&#45;&gt;27 &#45; __Relation__ -->
<g id="edge30" class="edge"><title>10 &#45; Port_Output&#45;&gt;27 &#45; __Relation__</title>
<path fill="none" stroke="black" d="M1240.35,-150.76C1208.9,-139.57 1166.91,-124.632 1133.52,-112.752"/>
<polygon fill="black" stroke="black" points="1134.49,-109.384 1123.9,-109.329 1132.15,-115.979 1134.49,-109.384"/>
</g>
<!-- 28 &#45; __Relation__ -->
<g id="node29" class="node"><title>28 &#45; __Relation__</title>
<ellipse fill="#f78465" stroke="black" cx="1286" cy="-93" rx="94.9596" ry="18.3848"/>
<text text-anchor="middle" x="1286" y="-89.4" font-family="Times Roman,serif" font-size="14.00">28 &#45; __Relation__</text>
</g>
<!-- 10 &#45; Port_Output&#45;&gt;28 &#45; __Relation__ -->
<g id="edge28" class="edge"><title>10 &#45; Port_Output&#45;&gt;28 &#45; __Relation__</title>
<path fill="none" stroke="black" d="M1286,-148.327C1286,-140.264 1286,-130.648 1286,-121.711"/>
<polygon fill="black" stroke="black" points="1289.5,-121.667 1286,-111.667 1282.5,-121.667 1289.5,-121.667"/>
</g>
<!-- 11 &#45; __Block_Outport__&#45;&gt;7 &#45; Port_Output -->
<g id="edge32" class="edge"><title>11 &#45; __Block_Outport__&#45;&gt;7 &#45; Port_Output</title>
<path fill="none" stroke="black" d="M542,-222.327C542,-214.264 542,-204.648 542,-195.711"/>
<polygon fill="black" stroke="black" points="545.5,-195.667 542,-185.667 538.5,-195.667 545.5,-195.667"/>
</g>
<!-- 12 &#45; __Block_Outport__&#45;&gt;8 &#45; Port_Output -->
<g id="edge34" class="edge"><title>12 &#45; __Block_Outport__&#45;&gt;8 &#45; Port_Output</title>
<path fill="none" stroke="black" d="M288.655,-222.327C296.61,-213.408 306.26,-202.588 314.909,-192.89"/>
<polygon fill="black" stroke="black" points="317.535,-195.204 321.579,-185.411 312.311,-190.544 317.535,-195.204"/>
</g>
<!-- 13 &#45; __Block_Outport__&#45;&gt;9 &#45; Port_Output -->
<g id="edge36" class="edge"><title>13 &#45; __Block_Outport__&#45;&gt;9 &#45; Port_Output</title>
<path fill="none" stroke="black" d="M1645,-222.327C1645,-214.264 1645,-204.648 1645,-195.711"/>
<polygon fill="black" stroke="black" points="1648.5,-195.667 1645,-185.667 1641.5,-195.667 1648.5,-195.667"/>
</g>
<!-- 14 &#45; __Block_Outport__&#45;&gt;10 &#45; Port_Output -->
<g id="edge38" class="edge"><title>14 &#45; __Block_Outport__&#45;&gt;10 &#45; Port_Output</title>
<path fill="none" stroke="black" d="M1305.44,-222.327C1302.54,-214.089 1299.08,-204.229 1295.88,-195.13"/>
<polygon fill="black" stroke="black" points="1299.18,-193.942 1292.56,-185.667 1292.57,-196.262 1299.18,-193.942"/>
</g>
<!-- 15 &#45; Port_Input -->
<g id="node16" class="node"><title>15 &#45; Port_Input</title>
<ellipse fill="lightyellow" stroke="black" cx="738" cy="-19" rx="85.7684" ry="18.3848"/>
<text text-anchor="middle" x="738" y="-15.4" font-family="Times Roman,serif" font-size="14.00">15 &#45; Port_Input</text>
</g>
<!-- 16 &#45; Port_Input -->
<g id="node17" class="node"><title>16 &#45; Port_Input</title>
<ellipse fill="lightyellow" stroke="black" cx="1013" cy="-19" rx="85.7684" ry="18.3848"/>
<text text-anchor="middle" x="1013" y="-15.4" font-family="Times Roman,serif" font-size="14.00">16 &#45; Port_Input</text>
</g>
<!-- 17 &#45; Port_Input -->
<g id="node18" class="node"><title>17 &#45; Port_Input</title>
<ellipse fill="lightyellow" stroke="black" cx="1805" cy="-19" rx="85.7684" ry="18.3848"/>
<text text-anchor="middle" x="1805" y="-15.4" font-family="Times Roman,serif" font-size="14.00">17 &#45; Port_Input</text>
</g>
<!-- 18 &#45; Port_Input -->
<g id="node19" class="node"><title>18 &#45; Port_Input</title>
<ellipse fill="lightyellow" stroke="black" cx="1400" cy="-19" rx="85.7684" ry="18.3848"/>
<text text-anchor="middle" x="1400" y="-15.4" font-family="Times Roman,serif" font-size="14.00">18 &#45; Port_Input</text>
</g>
<!-- 19 &#45; Port_Input -->
<g id="node20" class="node"><title>19 &#45; Port_Input</title>
<ellipse fill="lightyellow" stroke="black" cx="378" cy="-19" rx="85.7684" ry="18.3848"/>
<text text-anchor="middle" x="378" y="-15.4" font-family="Times Roman,serif" font-size="14.00">19 &#45; Port_Input</text>
</g>
<!-- 20 &#45; __Block_Inport__&#45;&gt;15 &#45; Port_Input -->
<g id="edge40" class="edge"><title>20 &#45; __Block_Inport__&#45;&gt;15 &#45; Port_Input</title>
<path fill="none" stroke="black" d="M796.653,-222.454C785.454,-183.604 759.467,-93.4631 746.165,-47.3219"/>
<polygon fill="black" stroke="black" points="749.509,-46.2882 743.376,-37.6491 742.783,-48.2273 749.509,-46.2882"/>
</g>
<!-- 21 &#45; __Block_Inport__&#45;&gt;16 &#45; Port_Input -->
<g id="edge42" class="edge"><title>21 &#45; __Block_Inport__&#45;&gt;16 &#45; Port_Input</title>
<path fill="none" stroke="black" d="M1036.22,-222.453C1017.14,-198.688 986.09,-155.361 974,-112 969.464,-95.7316 968.874,-90.0921 974,-74 977.251,-63.7947 983.16,-53.8584 989.412,-45.3024"/>
<polygon fill="black" stroke="black" points="992.304,-47.286 995.693,-37.2477 986.784,-42.9816 992.304,-47.286"/>
</g>
<!-- 22 &#45; __Block_Inport__&#45;&gt;17 &#45; Port_Input -->
<g id="edge44" class="edge"><title>22 &#45; __Block_Inport__&#45;&gt;17 &#45; Port_Input</title>
<path fill="none" stroke="black" d="M1865.72,-148.395C1863.83,-129.042 1859.19,-98.2379 1848,-74 1843.3,-63.8262 1836.39,-53.8275 1829.47,-45.2042"/>
<polygon fill="black" stroke="black" points="1832.03,-42.8025 1822.92,-37.3972 1826.67,-47.3052 1832.03,-42.8025"/>
</g>
<!-- 23 &#45; __Block_Inport__&#45;&gt;18 &#45; Port_Input -->
<g id="edge46" class="edge"><title>23 &#45; __Block_Inport__&#45;&gt;18 &#45; Port_Input</title>
<path fill="none" stroke="black" d="M1486.87,-74.8976C1471.61,-65.0777 1452.57,-52.8301 1436.22,-42.3044"/>
<polygon fill="black" stroke="black" points="1437.75,-39.1282 1427.44,-36.6602 1433.96,-45.0148 1437.75,-39.1282"/>
</g>
<!-- 24 &#45; __Block_Inport__&#45;&gt;19 &#45; Port_Input -->
<g id="edge48" class="edge"><title>24 &#45; __Block_Inport__&#45;&gt;19 &#45; Port_Input</title>
<path fill="none" stroke="black" d="M134.924,-148.438C156.623,-127.97 193.99,-95.1426 231,-74 257.656,-58.7721 289.322,-46.2951 316.424,-37.097"/>
<polygon fill="black" stroke="black" points="317.796,-40.3293 326.185,-33.8576 315.591,-33.6856 317.796,-40.3293"/>
</g>
<!-- 25 &#45; __Relation__&#45;&gt;17 &#45; Port_Input -->
<g id="edge60" class="edge"><title>25 &#45; __Relation__&#45;&gt;17 &#45; Port_Input</title>
<path fill="none" stroke="black" d="M1759.08,-74.7079C1766.41,-65.8135 1775.36,-54.9619 1783.4,-45.2071"/>
<polygon fill="black" stroke="black" points="1786.22,-47.2808 1789.88,-37.3382 1780.82,-42.8282 1786.22,-47.2808"/>
</g>
<!-- 26 &#45; __Relation__&#45;&gt;19 &#45; Port_Input -->
<g id="edge62" class="edge"><title>26 &#45; __Relation__&#45;&gt;19 &#45; Port_Input</title>
<path fill="none" stroke="black" d="M505.146,-76.0229C481.27,-65.3151 450.256,-51.4056 424.836,-40.0051"/>
<polygon fill="black" stroke="black" points="425.95,-36.6691 415.394,-35.7704 423.086,-43.0562 425.95,-36.6691"/>
</g>
<!-- 27 &#45; __Relation__&#45;&gt;16 &#45; Port_Input -->
<g id="edge64" class="edge"><title>27 &#45; __Relation__&#45;&gt;16 &#45; Port_Input</title>
<path fill="none" stroke="black" d="M1061.93,-74.7079C1054.04,-65.7246 1044.4,-54.7447 1035.76,-44.9148"/>
<polygon fill="black" stroke="black" points="1038.34,-42.5416 1029.11,-37.3382 1033.08,-47.1612 1038.34,-42.5416"/>
</g>
<!-- 28 &#45; __Relation__&#45;&gt;18 &#45; Port_Input -->
<g id="edge66" class="edge"><title>28 &#45; __Relation__&#45;&gt;18 &#45; Port_Input</title>
<path fill="none" stroke="black" d="M1313.31,-75.2752C1328.53,-65.39 1347.69,-52.9581 1364.11,-42.2949"/>
<polygon fill="black" stroke="black" points="1366.43,-44.9607 1372.92,-36.5802 1362.62,-39.0892 1366.43,-44.9607"/>
</g>
<!-- 29 &#45; __Relation__&#45;&gt;15 &#45; Port_Input -->
<g id="edge68" class="edge"><title>29 &#45; __Relation__&#45;&gt;15 &#45; Port_Input</title>
<path fill="none" stroke="black" d="M404.278,-80.2789C476.067,-67.0969 587.945,-46.5536 662.091,-32.9387"/>
<polygon fill="black" stroke="black" points="663.091,-36.3136 672.294,-31.065 661.827,-29.4287 663.091,-36.3136"/>
</g>
<!-- 30 &#45; __Contains__&#45;&gt;0 &#45; Product -->
<g id="edge70" class="edge"><title>30 &#45; __Contains__&#45;&gt;0 &#45; Product</title>
<path fill="none" stroke="black" d="M887.67,-394.339C881.826,-382.652 874.194,-367.388 867.674,-354.348"/>
<polygon fill="black" stroke="black" points="870.767,-352.708 863.164,-345.329 864.506,-355.838 870.767,-352.708"/>
</g>
<!-- 31 &#45; __Contains__&#45;&gt;3 &#45; Scope -->
<g id="edge72" class="edge"><title>31 &#45; __Contains__&#45;&gt;3 &#45; Scope</title>
<path fill="none" stroke="black" d="M1696.2,-394.339C1702.59,-382.652 1710.93,-367.388 1718.05,-354.348"/>
<polygon fill="black" stroke="black" points="1721.26,-355.782 1722.98,-345.329 1715.12,-352.425 1721.26,-355.782"/>
</g>
<!-- 32 &#45; __Contains__&#45;&gt;4 &#45; Constant\n Value = 1.0 -->
<g id="edge74" class="edge"><title>32 &#45; __Contains__&#45;&gt;4 &#45; Constant\n Value = 1.0</title>
<path fill="none" stroke="black" d="M631.924,-394.339C629.346,-386.42 626.233,-376.858 623.172,-367.458"/>
<polygon fill="black" stroke="black" points="626.451,-366.223 620.027,-357.797 619.795,-368.39 626.451,-366.223"/>
</g>
<!-- 33 &#45; __Contains__&#45;&gt;1 &#45; Gain\n Gain = 1.0 -->
<g id="edge76" class="edge"><title>33 &#45; __Contains__&#45;&gt;1 &#45; Gain\n Gain = 1.0</title>
<path fill="none" stroke="black" d="M1437.75,-394.339C1444.66,-385.608 1453.14,-374.88 1461.29,-364.574"/>
<polygon fill="black" stroke="black" points="1464.26,-366.461 1467.72,-356.446 1458.77,-362.119 1464.26,-366.461"/>
</g>
<!-- 34 &#45; __Contains__&#45;&gt;5 &#45; Gain\n Gain = 1.0 -->
<g id="edge78" class="edge"><title>34 &#45; __Contains__&#45;&gt;5 &#45; Gain\n Gain = 1.0</title>
<path fill="none" stroke="black" d="M299.789,-395.597C275.878,-383.779 243.762,-367.906 216.447,-354.405"/>
<polygon fill="black" stroke="black" points="217.902,-351.22 207.386,-349.926 214.8,-357.495 217.902,-351.22"/>
</g>
<!-- 35 &#45; __Contains__&#45;&gt;6 &#45; Constant\n Value = 1.0 -->
<g id="edge80" class="edge"><title>35 &#45; __Contains__&#45;&gt;6 &#45; Constant\n Value = 1.0</title>
<path fill="none" stroke="black" d="M1169.46,-395.181C1188.16,-384.241 1212.6,-369.943 1234.26,-357.268"/>
<polygon fill="black" stroke="black" points="1236.17,-360.205 1243.04,-352.134 1232.64,-354.163 1236.17,-360.205"/>
</g>
</g>
</svg>
