<?xml version="1.0" encoding="UTF-8" standalone="no"?>
<!DOCTYPE svg PUBLIC "-//W3C//DTD SVG 1.1//EN"
 "http://www.w3.org/Graphics/SVG/1.1/DTD/svg11.dtd">
<!-- Generated by graphviz version 2.26.3 (20100126.1600)
 -->
<!-- Title: HFlatten1_opt_real Pages: 1 -->
<svg width="1344pt" height="2438pt"
 viewBox="0.00 0.00 1344.00 2438.00" xmlns="http://www.w3.org/2000/svg" xmlns:xlink="http://www.w3.org/1999/xlink">
<g id="graph1" class="graph" transform="scale(1 1) rotate(0) translate(4 2434)">
<title>HFlatten1_opt_real</title>
<polygon fill="white" stroke="white" points="-4,5 -4,-2434 1341,-2434 1341,5 -4,5"/>
<!-- 0 &#45; Outport -->
<g id="node1" class="node"><title>0 &#45; Outport</title>
<ellipse fill="#eedd82" stroke="black" cx="189" cy="-19" rx="67.1751" ry="18.3848"/>
<text text-anchor="middle" x="189" y="-15.4" font-family="Times Roman,serif" font-size="14.00">0 &#45; Outport</text>
</g>
<!-- 1 &#45; Product -->
<g id="node2" class="node"><title>1 &#45; Product</title>
<ellipse fill="lightblue" stroke="black" cx="1048" cy="-1795" rx="67.1751" ry="18.3848"/>
<text text-anchor="middle" x="1048" y="-1791.4" font-family="Times Roman,serif" font-size="14.00">1 &#45; Product</text>
</g>
<!-- 16 &#45; __Block_Outport__ -->
<g id="node17" class="node"><title>16 &#45; __Block_Outport__</title>
<ellipse fill="#b94a62" stroke="black" cx="1038" cy="-1721" rx="126.78" ry="18.3848"/>
<text text-anchor="middle" x="1038" y="-1717.4" font-family="Times Roman,serif" font-size="14.00">16 &#45; __Block_Outport__</text>
</g>
<!-- 1 &#45; Product&#45;&gt;16 &#45; __Block_Outport__ -->
<g id="edge2" class="edge"><title>1 &#45; Product&#45;&gt;16 &#45; __Block_Outport__</title>
<path fill="none" stroke="black" d="M1045.48,-1776.33C1044.39,-1768.26 1043.09,-1758.65 1041.88,-1749.71"/>
<polygon fill="black" stroke="black" points="1045.33,-1749.11 1040.52,-1739.67 1038.39,-1750.05 1045.33,-1749.11"/>
</g>
<!-- 2 &#45; Constant\n Value = 12.34 -->
<g id="node3" class="node"><title>2 &#45; Constant\n Value = 12.34</title>
<ellipse fill="lightblue" stroke="black" cx="678" cy="-2251" rx="85.7684" ry="31.1127"/>
<text text-anchor="middle" x="678" y="-2256.4" font-family="Times Roman,serif" font-size="14.00">2 &#45; Constant</text>
<text text-anchor="middle" x="678" y="-2238.4" font-family="Times Roman,serif" font-size="14.00"> Value = 12.34</text>
</g>
<!-- 17 &#45; __Block_Outport__ -->
<g id="node18" class="node"><title>17 &#45; __Block_Outport__</title>
<ellipse fill="#b94a62" stroke="black" cx="692" cy="-2165" rx="128.193" ry="18.3848"/>
<text text-anchor="middle" x="692" y="-2161.4" font-family="Times Roman,serif" font-size="14.00">17 &#45; __Block_Outport__</text>
</g>
<!-- 2 &#45; Constant\n Value = 12.34&#45;&gt;17 &#45; __Block_Outport__ -->
<g id="edge4" class="edge"><title>2 &#45; Constant\n Value = 12.34&#45;&gt;17 &#45; __Block_Outport__</title>
<path fill="none" stroke="black" d="M683.054,-2219.95C684.442,-2211.43 685.941,-2202.22 687.307,-2193.83"/>
<polygon fill="black" stroke="black" points="690.797,-2194.17 688.949,-2183.74 683.888,-2193.05 690.797,-2194.17"/>
</g>
<!-- 3 &#45; Constant\n Value = 1.0 -->
<g id="node4" class="node"><title>3 &#45; Constant\n Value = 1.0</title>
<ellipse fill="lightblue" stroke="black" cx="388" cy="-2251" rx="73.0388" ry="31.1127"/>
<text text-anchor="middle" x="388" y="-2256.4" font-family="Times Roman,serif" font-size="14.00">3 &#45; Constant</text>
<text text-anchor="middle" x="388" y="-2238.4" font-family="Times Roman,serif" font-size="14.00"> Value = 1.0</text>
</g>
<!-- 18 &#45; __Block_Outport__ -->
<g id="node19" class="node"><title>18 &#45; __Block_Outport__</title>
<ellipse fill="#b94a62" stroke="black" cx="381" cy="-2165" rx="126.78" ry="18.3848"/>
<text text-anchor="middle" x="381" y="-2161.4" font-family="Times Roman,serif" font-size="14.00">18 &#45; __Block_Outport__</text>
</g>
<!-- 3 &#45; Constant\n Value = 1.0&#45;&gt;18 &#45; __Block_Outport__ -->
<g id="edge6" class="edge"><title>3 &#45; Constant\n Value = 1.0&#45;&gt;18 &#45; __Block_Outport__</title>
<path fill="none" stroke="black" d="M385.473,-2219.95C384.779,-2211.43 384.03,-2202.22 383.346,-2193.83"/>
<polygon fill="black" stroke="black" points="386.825,-2193.42 382.525,-2183.74 379.848,-2193.99 386.825,-2193.42"/>
</g>
<!-- 4 &#45; Sum -->
<g id="node5" class="node"><title>4 &#45; Sum</title>
<ellipse fill="lightblue" stroke="black" cx="736" cy="-463" rx="50.2046" ry="18.3848"/>
<text text-anchor="middle" x="736" y="-459.4" font-family="Times Roman,serif" font-size="14.00">4 &#45; Sum</text>
</g>
<!-- 19 &#45; __Block_Outport__ -->
<g id="node20" class="node"><title>19 &#45; __Block_Outport__</title>
<ellipse fill="#b94a62" stroke="black" cx="500" cy="-389" rx="126.78" ry="18.3848"/>
<text text-anchor="middle" x="500" y="-385.4" font-family="Times Roman,serif" font-size="14.00">19 &#45; __Block_Outport__</text>
</g>
<!-- 4 &#45; Sum&#45;&gt;19 &#45; __Block_Outport__ -->
<g id="edge8" class="edge"><title>4 &#45; Sum&#45;&gt;19 &#45; __Block_Outport__</title>
<path fill="none" stroke="black" d="M697.82,-451.028C661.512,-439.644 606.223,-422.307 563.317,-408.854"/>
<polygon fill="black" stroke="black" points="564.12,-405.438 553.531,-405.785 562.026,-412.117 564.12,-405.438"/>
</g>
<!-- 5 &#45; Product -->
<g id="node6" class="node"><title>5 &#45; Product</title>
<ellipse fill="lightblue" stroke="black" cx="514" cy="-1351" rx="65.9683" ry="18.3848"/>
<text text-anchor="middle" x="514" y="-1347.4" font-family="Times Roman,serif" font-size="14.00">5 &#45; Product</text>
</g>
<!-- 21 &#45; __Block_Outport__ -->
<g id="node22" class="node"><title>21 &#45; __Block_Outport__</title>
<ellipse fill="#b94a62" stroke="black" cx="510" cy="-1277" rx="127.986" ry="18.3848"/>
<text text-anchor="middle" x="510" y="-1273.4" font-family="Times Roman,serif" font-size="14.00">21 &#45; __Block_Outport__</text>
</g>
<!-- 5 &#45; Product&#45;&gt;21 &#45; __Block_Outport__ -->
<g id="edge10" class="edge"><title>5 &#45; Product&#45;&gt;21 &#45; __Block_Outport__</title>
<path fill="none" stroke="black" d="M512.991,-1332.33C512.555,-1324.26 512.035,-1314.65 511.552,-1305.71"/>
<polygon fill="black" stroke="black" points="515.044,-1305.46 511.009,-1295.67 508.054,-1305.84 515.044,-1305.46"/>
</g>
<!-- 6 &#45; Sum -->
<g id="node7" class="node"><title>6 &#45; Sum</title>
<ellipse fill="lightblue" stroke="black" cx="553" cy="-907" rx="50.2046" ry="18.3848"/>
<text text-anchor="middle" x="553" y="-903.4" font-family="Times Roman,serif" font-size="14.00">6 &#45; Sum</text>
</g>
<!-- 22 &#45; __Block_Outport__ -->
<g id="node23" class="node"><title>22 &#45; __Block_Outport__</title>
<ellipse fill="#b94a62" stroke="black" cx="621" cy="-833" rx="126.78" ry="18.3848"/>
<text text-anchor="middle" x="621" y="-829.4" font-family="Times Roman,serif" font-size="14.00">22 &#45; __Block_Outport__</text>
</g>
<!-- 6 &#45; Sum&#45;&gt;22 &#45; __Block_Outport__ -->
<g id="edge12" class="edge"><title>6 &#45; Sum&#45;&gt;22 &#45; __Block_Outport__</title>
<path fill="none" stroke="black" d="M569.115,-889.463C577.503,-880.335 587.92,-868.999 597.215,-858.884"/>
<polygon fill="black" stroke="black" points="599.863,-861.175 604.052,-851.444 594.708,-856.439 599.863,-861.175"/>
</g>
<!-- 7 &#45; SubSystem -->
<g id="node8" class="node"><title>7 &#45; SubSystem</title>
<ellipse fill="lightgreen" stroke="black" cx="603" cy="-2411" rx="85.0596" ry="18.3848"/>
<text text-anchor="middle" x="603" y="-2407.4" font-family="Times Roman,serif" font-size="14.00">7 &#45; SubSystem</text>
</g>
<!-- 32 &#45; __Contains__ -->
<g id="node33" class="node"><title>32 &#45; __Contains__</title>
<ellipse fill="lightgray" stroke="black" cx="402" cy="-2337" rx="98.9949" ry="18.3848"/>
<text text-anchor="middle" x="402" y="-2333.4" font-family="Times Roman,serif" font-size="14.00">32 &#45; __Contains__</text>
</g>
<!-- 7 &#45; SubSystem&#45;&gt;32 &#45; __Contains__ -->
<g id="edge14" class="edge"><title>7 &#45; SubSystem&#45;&gt;32 &#45; __Contains__</title>
<path fill="none" stroke="black" d="M559.386,-2394.94C529.251,-2383.85 488.941,-2369.01 456.661,-2357.12"/>
<polygon fill="black" stroke="black" points="457.514,-2353.71 446.921,-2353.54 455.096,-2360.28 457.514,-2353.71"/>
</g>
<!-- 33 &#45; __Contains__ -->
<g id="node34" class="node"><title>33 &#45; __Contains__</title>
<ellipse fill="lightgray" stroke="black" cx="521" cy="-1869" rx="98.9949" ry="18.3848"/>
<text text-anchor="middle" x="521" y="-1865.4" font-family="Times Roman,serif" font-size="14.00">33 &#45; __Contains__</text>
</g>
<!-- 7 &#45; SubSystem&#45;&gt;33 &#45; __Contains__ -->
<g id="edge16" class="edge"><title>7 &#45; SubSystem&#45;&gt;33 &#45; __Contains__</title>
<path fill="none" stroke="black" d="M585.737,-2392.66C577.36,-2382.62 568.039,-2369.49 563,-2356 501.736,-2191.95 511.948,-1975.95 518.214,-1898.34"/>
<polygon fill="black" stroke="black" points="521.74,-1898.17 519.1,-1887.91 514.765,-1897.58 521.74,-1898.17"/>
</g>
<!-- 34 &#45; __Contains__ -->
<g id="node35" class="node"><title>34 &#45; __Contains__</title>
<ellipse fill="lightgray" stroke="black" cx="255" cy="-1277" rx="98.9949" ry="18.3848"/>
<text text-anchor="middle" x="255" y="-1273.4" font-family="Times Roman,serif" font-size="14.00">34 &#45; __Contains__</text>
</g>
<!-- 7 &#45; SubSystem&#45;&gt;34 &#45; __Contains__ -->
<g id="edge18" class="edge"><title>7 &#45; SubSystem&#45;&gt;34 &#45; __Contains__</title>
<path fill="none" stroke="black" d="M523.848,-2404.11C445.094,-2396 330.826,-2380.45 294,-2356 247.682,-2325.25 226,-2306.6 226,-2251 226,-2251 226,-2251 226,-1425 226,-1382.84 237.472,-1335.17 245.986,-1305.59"/>
<polygon fill="black" stroke="black" points="249.365,-1306.51 248.85,-1295.93 242.653,-1304.52 249.365,-1306.51"/>
</g>
<!-- 35 &#45; __Contains__ -->
<g id="node36" class="node"><title>35 &#45; __Contains__</title>
<ellipse fill="lightgray" stroke="black" cx="99" cy="-1795" rx="98.9949" ry="18.3848"/>
<text text-anchor="middle" x="99" y="-1791.4" font-family="Times Roman,serif" font-size="14.00">35 &#45; __Contains__</text>
</g>
<!-- 7 &#45; SubSystem&#45;&gt;35 &#45; __Contains__ -->
<g id="edge28" class="edge"><title>7 &#45; SubSystem&#45;&gt;35 &#45; __Contains__</title>
<path fill="none" stroke="black" d="M519.52,-2407.31C420.193,-2401.56 261.554,-2387.62 212,-2356 165.13,-2326.09 144,-2306.6 144,-2251 144,-2251 144,-2251 144,-1943 144,-1899.57 126.042,-1851.95 112.815,-1822.76"/>
<polygon fill="black" stroke="black" points="115.942,-1821.19 108.543,-1813.61 109.599,-1824.15 115.942,-1821.19"/>
</g>
<!-- 36 &#45; __Contains__ -->
<g id="node37" class="node"><title>36 &#45; __Contains__</title>
<ellipse fill="lightgray" stroke="black" cx="1105" cy="-2251" rx="98.9949" ry="18.3848"/>
<text text-anchor="middle" x="1105" y="-2247.4" font-family="Times Roman,serif" font-size="14.00">36 &#45; __Contains__</text>
</g>
<!-- 7 &#45; SubSystem&#45;&gt;36 &#45; __Contains__ -->
<g id="edge26" class="edge"><title>7 &#45; SubSystem&#45;&gt;36 &#45; __Contains__</title>
<path fill="none" stroke="black" d="M686.659,-2407.67C792.896,-2402.15 969.127,-2388.34 1025,-2356 1055.78,-2338.19 1078.64,-2303.39 1091.87,-2278.74"/>
<polygon fill="black" stroke="black" points="1094.98,-2280.34 1096.47,-2269.85 1088.77,-2277.13 1094.98,-2280.34"/>
</g>
<!-- 37 &#45; __Contains__ -->
<g id="node38" class="node"><title>37 &#45; __Contains__</title>
<ellipse fill="lightgray" stroke="black" cx="671" cy="-2337" rx="99.201" ry="18.3848"/>
<text text-anchor="middle" x="671" y="-2333.4" font-family="Times Roman,serif" font-size="14.00">37 &#45; __Contains__</text>
</g>
<!-- 7 &#45; SubSystem&#45;&gt;37 &#45; __Contains__ -->
<g id="edge24" class="edge"><title>7 &#45; SubSystem&#45;&gt;37 &#45; __Contains__</title>
<path fill="none" stroke="black" d="M619.809,-2392.71C628.064,-2383.72 638.154,-2372.74 647.186,-2362.91"/>
<polygon fill="black" stroke="black" points="649.96,-2365.07 654.149,-2355.34 644.805,-2360.33 649.96,-2365.07"/>
</g>
<!-- 38 &#45; __Contains__ -->
<g id="node39" class="node"><title>38 &#45; __Contains__</title>
<ellipse fill="lightgray" stroke="black" cx="1237" cy="-1647" rx="98.9949" ry="18.3848"/>
<text text-anchor="middle" x="1237" y="-1643.4" font-family="Times Roman,serif" font-size="14.00">38 &#45; __Contains__</text>
</g>
<!-- 7 &#45; SubSystem&#45;&gt;38 &#45; __Contains__ -->
<g id="edge22" class="edge"><title>7 &#45; SubSystem&#45;&gt;38 &#45; __Contains__</title>
<path fill="none" stroke="black" d="M686.536,-2407.35C858.695,-2397.55 1237,-2363.24 1237,-2251 1237,-2251 1237,-2251 1237,-1795 1237,-1753.58 1237,-1705.64 1237,-1675.81"/>
<polygon fill="black" stroke="black" points="1240.5,-1675.69 1237,-1665.69 1233.5,-1675.69 1240.5,-1675.69"/>
</g>
<!-- 39 &#45; __Contains__ -->
<g id="node40" class="node"><title>39 &#45; __Contains__</title>
<ellipse fill="lightgray" stroke="black" cx="917" cy="-2337" rx="98.9949" ry="18.3848"/>
<text text-anchor="middle" x="917" y="-2333.4" font-family="Times Roman,serif" font-size="14.00">39 &#45; __Contains__</text>
</g>
<!-- 7 &#45; SubSystem&#45;&gt;39 &#45; __Contains__ -->
<g id="edge20" class="edge"><title>7 &#45; SubSystem&#45;&gt;39 &#45; __Contains__</title>
<path fill="none" stroke="black" d="M660.958,-2397.34C713.031,-2385.07 789.672,-2367.01 845.527,-2353.84"/>
<polygon fill="black" stroke="black" points="846.423,-2357.23 855.353,-2351.53 844.817,-2350.42 846.423,-2357.23"/>
</g>
<!-- 8 &#45; Inport -->
<g id="node9" class="node"><title>8 &#45; Inport</title>
<ellipse fill="#eedd82" stroke="black" cx="920" cy="-2251" rx="57.9828" ry="18.3848"/>
<text text-anchor="middle" x="920" y="-2247.4" font-family="Times Roman,serif" font-size="14.00">8 &#45; Inport</text>
</g>
<!-- 20 &#45; __Block_Outport__ -->
<g id="node21" class="node"><title>20 &#45; __Block_Outport__</title>
<ellipse fill="#b94a62" stroke="black" cx="1001" cy="-2165" rx="126.072" ry="18.3848"/>
<text text-anchor="middle" x="1001" y="-2161.4" font-family="Times Roman,serif" font-size="14.00">20 &#45; __Block_Outport__</text>
</g>
<!-- 8 &#45; Inport&#45;&gt;20 &#45; __Block_Outport__ -->
<g id="edge30" class="edge"><title>8 &#45; Inport&#45;&gt;20 &#45; __Block_Outport__</title>
<path fill="none" stroke="black" d="M936.783,-2233.18C948.249,-2221.01 963.631,-2204.68 976.466,-2191.05"/>
<polygon fill="black" stroke="black" points="979.371,-2193.07 983.679,-2183.39 974.275,-2188.27 979.371,-2193.07"/>
</g>
<!-- 9 &#45; Port_Output -->
<g id="node10" class="node"><title>9 &#45; Port_Output</title>
<ellipse fill="coral" stroke="black" cx="1032" cy="-1647" rx="87.889" ry="18.3848"/>
<text text-anchor="middle" x="1032" y="-1643.4" font-family="Times Roman,serif" font-size="14.00">9 &#45; Port_Output</text>
</g>
<!-- 52 &#45; __Relation__ -->
<g id="node53" class="node"><title>52 &#45; __Relation__</title>
<ellipse fill="#f78465" stroke="black" cx="904" cy="-1573" rx="96.8736" ry="18.3848"/>
<text text-anchor="middle" x="904" y="-1569.4" font-family="Times Roman,serif" font-size="14.00">52 &#45; __Relation__</text>
</g>
<!-- 9 &#45; Port_Output&#45;&gt;52 &#45; __Relation__ -->
<g id="edge34" class="edge"><title>9 &#45; Port_Output&#45;&gt;52 &#45; __Relation__</title>
<path fill="none" stroke="black" d="M1001.67,-1629.46C984.258,-1619.4 962.205,-1606.65 943.461,-1595.81"/>
<polygon fill="black" stroke="black" points="944.969,-1592.64 934.56,-1590.67 941.466,-1598.7 944.969,-1592.64"/>
</g>
<!-- 53 &#45; __Relation__ -->
<g id="node54" class="node"><title>53 &#45; __Relation__</title>
<ellipse fill="#f78465" stroke="black" cx="1033" cy="-1499" rx="96.8736" ry="18.3848"/>
<text text-anchor="middle" x="1033" y="-1495.4" font-family="Times Roman,serif" font-size="14.00">53 &#45; __Relation__</text>
</g>
<!-- 9 &#45; Port_Output&#45;&gt;53 &#45; __Relation__ -->
<g id="edge32" class="edge"><title>9 &#45; Port_Output&#45;&gt;53 &#45; __Relation__</title>
<path fill="none" stroke="black" d="M1032.13,-1628.26C1032.3,-1602.9 1032.61,-1557.44 1032.81,-1527.75"/>
<polygon fill="black" stroke="black" points="1036.31,-1527.62 1032.87,-1517.59 1029.31,-1527.57 1036.31,-1527.62"/>
</g>
<!-- 10 &#45; Port_Output -->
<g id="node11" class="node"><title>10 &#45; Port_Output</title>
<ellipse fill="coral" stroke="black" cx="692" cy="-2091" rx="94.7523" ry="18.3848"/>
<text text-anchor="middle" x="692" y="-2087.4" font-family="Times Roman,serif" font-size="14.00">10 &#45; Port_Output</text>
</g>
<!-- 55 &#45; __Relation__ -->
<g id="node56" class="node"><title>55 &#45; __Relation__</title>
<ellipse fill="#f78465" stroke="black" cx="650" cy="-2017" rx="96.8736" ry="18.3848"/>
<text text-anchor="middle" x="650" y="-2013.4" font-family="Times Roman,serif" font-size="14.00">55 &#45; __Relation__</text>
</g>
<!-- 10 &#45; Port_Output&#45;&gt;55 &#45; __Relation__ -->
<g id="edge38" class="edge"><title>10 &#45; Port_Output&#45;&gt;55 &#45; __Relation__</title>
<path fill="none" stroke="black" d="M681.402,-2072.33C676.59,-2063.85 670.804,-2053.65 665.516,-2044.34"/>
<polygon fill="black" stroke="black" points="668.429,-2042.38 660.449,-2035.41 662.342,-2045.84 668.429,-2042.38"/>
</g>
<!-- 56 &#45; __Relation__ -->
<g id="node57" class="node"><title>56 &#45; __Relation__</title>
<ellipse fill="#f78465" stroke="black" cx="862" cy="-2017" rx="96.8736" ry="18.3848"/>
<text text-anchor="middle" x="862" y="-2013.4" font-family="Times Roman,serif" font-size="14.00">56 &#45; __Relation__</text>
</g>
<!-- 10 &#45; Port_Output&#45;&gt;56 &#45; __Relation__ -->
<g id="edge36" class="edge"><title>10 &#45; Port_Output&#45;&gt;56 &#45; __Relation__</title>
<path fill="none" stroke="black" d="M731.001,-2074.02C755.534,-2063.34 787.383,-2049.48 813.533,-2038.1"/>
<polygon fill="black" stroke="black" points="815.114,-2041.23 822.886,-2034.03 812.32,-2034.81 815.114,-2041.23"/>
</g>
<!-- 11 &#45; Port_Output -->
<g id="node12" class="node"><title>11 &#45; Port_Output</title>
<ellipse fill="coral" stroke="black" cx="381" cy="-2091" rx="96.1665" ry="18.3848"/>
<text text-anchor="middle" x="381" y="-2087.4" font-family="Times Roman,serif" font-size="14.00">11 &#45; Port_Output</text>
</g>
<!-- 50 &#45; __Relation__ -->
<g id="node51" class="node"><title>50 &#45; __Relation__</title>
<ellipse fill="#f78465" stroke="black" cx="377" cy="-2017" rx="96.8736" ry="18.3848"/>
<text text-anchor="middle" x="377" y="-2013.4" font-family="Times Roman,serif" font-size="14.00">50 &#45; __Relation__</text>
</g>
<!-- 11 &#45; Port_Output&#45;&gt;50 &#45; __Relation__ -->
<g id="edge40" class="edge"><title>11 &#45; Port_Output&#45;&gt;50 &#45; __Relation__</title>
<path fill="none" stroke="black" d="M379.991,-2072.33C379.555,-2064.26 379.035,-2054.65 378.552,-2045.71"/>
<polygon fill="black" stroke="black" points="382.044,-2045.46 378.009,-2035.67 375.054,-2045.84 382.044,-2045.46"/>
</g>
<!-- 12 &#45; Port_Output -->
<g id="node13" class="node"><title>12 &#45; Port_Output</title>
<ellipse fill="coral" stroke="black" cx="484" cy="-315" rx="94.9596" ry="18.3848"/>
<text text-anchor="middle" x="484" y="-311.4" font-family="Times Roman,serif" font-size="14.00">12 &#45; Port_Output</text>
</g>
<!-- 51 &#45; __Relation__ -->
<g id="node52" class="node"><title>51 &#45; __Relation__</title>
<ellipse fill="#f78465" stroke="black" cx="362" cy="-241" rx="97.0803" ry="18.3848"/>
<text text-anchor="middle" x="362" y="-237.4" font-family="Times Roman,serif" font-size="14.00">51 &#45; __Relation__</text>
</g>
<!-- 12 &#45; Port_Output&#45;&gt;51 &#45; __Relation__ -->
<g id="edge42" class="edge"><title>12 &#45; Port_Output&#45;&gt;51 &#45; __Relation__</title>
<path fill="none" stroke="black" d="M454.778,-297.275C438.45,-287.371 417.907,-274.911 400.305,-264.234"/>
<polygon fill="black" stroke="black" points="401.772,-261.03 391.406,-258.837 398.141,-267.015 401.772,-261.03"/>
</g>
<!-- 13 &#45; Port_Output -->
<g id="node14" class="node"><title>13 &#45; Port_Output</title>
<ellipse fill="coral" stroke="black" cx="1034" cy="-2091" rx="94.7523" ry="18.3848"/>
<text text-anchor="middle" x="1034" y="-2087.4" font-family="Times Roman,serif" font-size="14.00">13 &#45; Port_Output</text>
</g>
<!-- 54 &#45; __Relation__ -->
<g id="node55" class="node"><title>54 &#45; __Relation__</title>
<ellipse fill="#f78465" stroke="black" cx="1074" cy="-2017" rx="96.8736" ry="18.3848"/>
<text text-anchor="middle" x="1074" y="-2013.4" font-family="Times Roman,serif" font-size="14.00">54 &#45; __Relation__</text>
</g>
<!-- 13 &#45; Port_Output&#45;&gt;54 &#45; __Relation__ -->
<g id="edge44" class="edge"><title>13 &#45; Port_Output&#45;&gt;54 &#45; __Relation__</title>
<path fill="none" stroke="black" d="M1044.09,-2072.33C1048.68,-2063.85 1054.19,-2053.65 1059.22,-2044.34"/>
<polygon fill="black" stroke="black" points="1062.37,-2045.87 1064.05,-2035.41 1056.21,-2042.54 1062.37,-2045.87"/>
</g>
<!-- 14 &#45; Port_Output -->
<g id="node15" class="node"><title>14 &#45; Port_Output</title>
<ellipse fill="coral" stroke="black" cx="515" cy="-1203" rx="94.9596" ry="18.3848"/>
<text text-anchor="middle" x="515" y="-1199.4" font-family="Times Roman,serif" font-size="14.00">14 &#45; Port_Output</text>
</g>
<!-- 49 &#45; __Relation__ -->
<g id="node50" class="node"><title>49 &#45; __Relation__</title>
<ellipse fill="#f78465" stroke="black" cx="516" cy="-1129" rx="96.8736" ry="18.3848"/>
<text text-anchor="middle" x="516" y="-1125.4" font-family="Times Roman,serif" font-size="14.00">49 &#45; __Relation__</text>
</g>
<!-- 14 &#45; Port_Output&#45;&gt;49 &#45; __Relation__ -->
<g id="edge46" class="edge"><title>14 &#45; Port_Output&#45;&gt;49 &#45; __Relation__</title>
<path fill="none" stroke="black" d="M515.252,-1184.33C515.361,-1176.26 515.491,-1166.65 515.612,-1157.71"/>
<polygon fill="black" stroke="black" points="519.112,-1157.71 515.748,-1147.67 512.113,-1157.62 519.112,-1157.71"/>
</g>
<!-- 15 &#45; Port_Output -->
<g id="node16" class="node"><title>15 &#45; Port_Output</title>
<ellipse fill="coral" stroke="black" cx="632" cy="-759" rx="94.9596" ry="18.3848"/>
<text text-anchor="middle" x="632" y="-755.4" font-family="Times Roman,serif" font-size="14.00">15 &#45; Port_Output</text>
</g>
<!-- 57 &#45; __Relation__ -->
<g id="node58" class="node"><title>57 &#45; __Relation__</title>
<ellipse fill="#f78465" stroke="black" cx="654" cy="-685" rx="97.0803" ry="18.3848"/>
<text text-anchor="middle" x="654" y="-681.4" font-family="Times Roman,serif" font-size="14.00">57 &#45; __Relation__</text>
</g>
<!-- 15 &#45; Port_Output&#45;&gt;57 &#45; __Relation__ -->
<g id="edge48" class="edge"><title>15 &#45; Port_Output&#45;&gt;57 &#45; __Relation__</title>
<path fill="none" stroke="black" d="M637.552,-740.327C639.975,-732.176 642.87,-722.438 645.551,-713.42"/>
<polygon fill="black" stroke="black" points="648.955,-714.25 648.45,-703.667 642.246,-712.255 648.955,-714.25"/>
</g>
<!-- 16 &#45; __Block_Outport__&#45;&gt;9 &#45; Port_Output -->
<g id="edge50" class="edge"><title>16 &#45; __Block_Outport__&#45;&gt;9 &#45; Port_Output</title>
<path fill="none" stroke="black" d="M1036.49,-1702.33C1035.83,-1694.26 1035.05,-1684.65 1034.33,-1675.71"/>
<polygon fill="black" stroke="black" points="1037.81,-1675.35 1033.51,-1665.67 1030.83,-1675.92 1037.81,-1675.35"/>
</g>
<!-- 17 &#45; __Block_Outport__&#45;&gt;10 &#45; Port_Output -->
<g id="edge52" class="edge"><title>17 &#45; __Block_Outport__&#45;&gt;10 &#45; Port_Output</title>
<path fill="none" stroke="black" d="M692,-2146.33C692,-2138.26 692,-2128.65 692,-2119.71"/>
<polygon fill="black" stroke="black" points="695.5,-2119.67 692,-2109.67 688.5,-2119.67 695.5,-2119.67"/>
</g>
<!-- 18 &#45; __Block_Outport__&#45;&gt;11 &#45; Port_Output -->
<g id="edge54" class="edge"><title>18 &#45; __Block_Outport__&#45;&gt;11 &#45; Port_Output</title>
<path fill="none" stroke="black" d="M381,-2146.33C381,-2138.26 381,-2128.65 381,-2119.71"/>
<polygon fill="black" stroke="black" points="384.5,-2119.67 381,-2109.67 377.5,-2119.67 384.5,-2119.67"/>
</g>
<!-- 19 &#45; __Block_Outport__&#45;&gt;12 &#45; Port_Output -->
<g id="edge56" class="edge"><title>19 &#45; __Block_Outport__&#45;&gt;12 &#45; Port_Output</title>
<path fill="none" stroke="black" d="M495.963,-370.327C494.219,-362.264 492.14,-352.648 490.208,-343.711"/>
<polygon fill="black" stroke="black" points="493.571,-342.702 488.036,-333.667 486.729,-344.181 493.571,-342.702"/>
</g>
<!-- 20 &#45; __Block_Outport__&#45;&gt;13 &#45; Port_Output -->
<g id="edge58" class="edge"><title>20 &#45; __Block_Outport__&#45;&gt;13 &#45; Port_Output</title>
<path fill="none" stroke="black" d="M1009.33,-2146.33C1013.04,-2138 1017.49,-2128.02 1021.59,-2118.84"/>
<polygon fill="black" stroke="black" points="1024.8,-2120.23 1025.68,-2109.67 1018.41,-2117.37 1024.8,-2120.23"/>
</g>
<!-- 21 &#45; __Block_Outport__&#45;&gt;14 &#45; Port_Output -->
<g id="edge60" class="edge"><title>21 &#45; __Block_Outport__&#45;&gt;14 &#45; Port_Output</title>
<path fill="none" stroke="black" d="M511.262,-1258.33C511.806,-1250.26 512.456,-1240.65 513.06,-1231.71"/>
<polygon fill="black" stroke="black" points="516.556,-1231.88 513.739,-1221.67 509.572,-1231.41 516.556,-1231.88"/>
</g>
<!-- 22 &#45; __Block_Outport__&#45;&gt;15 &#45; Port_Output -->
<g id="edge62" class="edge"><title>22 &#45; __Block_Outport__&#45;&gt;15 &#45; Port_Output</title>
<path fill="none" stroke="black" d="M623.776,-814.327C624.974,-806.264 626.404,-796.648 627.732,-787.711"/>
<polygon fill="black" stroke="black" points="631.217,-788.073 629.225,-777.667 624.293,-787.044 631.217,-788.073"/>
</g>
<!-- 23 &#45; Port_Input -->
<g id="node24" class="node"><title>23 &#45; Port_Input</title>
<ellipse fill="lightyellow" stroke="black" cx="301" cy="-167" rx="85.0596" ry="18.3848"/>
<text text-anchor="middle" x="301" y="-163.4" font-family="Times Roman,serif" font-size="14.00">23 &#45; Port_Input</text>
</g>
<!-- 40 &#45; __Block_Inport__ -->
<g id="node41" class="node"><title>40 &#45; __Block_Inport__</title>
<ellipse fill="#b94a62" stroke="black" cx="270" cy="-93" rx="118.087" ry="18.3848"/>
<text text-anchor="middle" x="270" y="-89.4" font-family="Times Roman,serif" font-size="14.00">40 &#45; __Block_Inport__</text>
</g>
<!-- 23 &#45; Port_Input&#45;&gt;40 &#45; __Block_Inport__ -->
<g id="edge64" class="edge"><title>23 &#45; Port_Input&#45;&gt;40 &#45; __Block_Inport__</title>
<path fill="none" stroke="black" d="M293.177,-148.327C289.726,-140.089 285.596,-130.229 281.784,-121.13"/>
<polygon fill="black" stroke="black" points="284.912,-119.538 277.82,-111.667 278.456,-122.243 284.912,-119.538"/>
</g>
<!-- 24 &#45; Port_Input -->
<g id="node25" class="node"><title>24 &#45; Port_Input</title>
<ellipse fill="lightyellow" stroke="black" cx="851" cy="-1943" rx="85.7684" ry="18.3848"/>
<text text-anchor="middle" x="851" y="-1939.4" font-family="Times Roman,serif" font-size="14.00">24 &#45; Port_Input</text>
</g>
<!-- 41 &#45; __Block_Inport__ -->
<g id="node42" class="node"><title>41 &#45; __Block_Inport__</title>
<ellipse fill="#b94a62" stroke="black" cx="798" cy="-1869" rx="118.794" ry="18.3848"/>
<text text-anchor="middle" x="798" y="-1865.4" font-family="Times Roman,serif" font-size="14.00">41 &#45; __Block_Inport__</text>
</g>
<!-- 24 &#45; Port_Input&#45;&gt;41 &#45; __Block_Inport__ -->
<g id="edge66" class="edge"><title>24 &#45; Port_Input&#45;&gt;41 &#45; __Block_Inport__</title>
<path fill="none" stroke="black" d="M837.899,-1924.71C831.703,-1916.06 824.181,-1905.55 817.345,-1896.01"/>
<polygon fill="black" stroke="black" points="819.987,-1893.69 811.319,-1887.6 814.296,-1897.76 819.987,-1893.69"/>
</g>
<!-- 25 &#45; Port_Input -->
<g id="node26" class="node"><title>25 &#45; Port_Input</title>
<ellipse fill="lightyellow" stroke="black" cx="1064" cy="-1943" rx="85.7684" ry="18.3848"/>
<text text-anchor="middle" x="1064" y="-1939.4" font-family="Times Roman,serif" font-size="14.00">25 &#45; Port_Input</text>
</g>
<!-- 42 &#45; __Block_Inport__ -->
<g id="node43" class="node"><title>42 &#45; __Block_Inport__</title>
<ellipse fill="#b94a62" stroke="black" cx="1053" cy="-1869" rx="118.087" ry="18.3848"/>
<text text-anchor="middle" x="1053" y="-1865.4" font-family="Times Roman,serif" font-size="14.00">42 &#45; __Block_Inport__</text>
</g>
<!-- 25 &#45; Port_Input&#45;&gt;42 &#45; __Block_Inport__ -->
<g id="edge68" class="edge"><title>25 &#45; Port_Input&#45;&gt;42 &#45; __Block_Inport__</title>
<path fill="none" stroke="black" d="M1061.22,-1924.33C1060.03,-1916.26 1058.6,-1906.65 1057.27,-1897.71"/>
<polygon fill="black" stroke="black" points="1060.71,-1897.04 1055.77,-1887.67 1053.78,-1898.07 1060.71,-1897.04"/>
</g>
<!-- 26 &#45; Port_Input -->
<g id="node27" class="node"><title>26 &#45; Port_Input</title>
<ellipse fill="lightyellow" stroke="black" cx="657" cy="-611" rx="85.0596" ry="18.3848"/>
<text text-anchor="middle" x="657" y="-607.4" font-family="Times Roman,serif" font-size="14.00">26 &#45; Port_Input</text>
</g>
<!-- 43 &#45; __Block_Inport__ -->
<g id="node44" class="node"><title>43 &#45; __Block_Inport__</title>
<ellipse fill="#b94a62" stroke="black" cx="662" cy="-537" rx="118.087" ry="18.3848"/>
<text text-anchor="middle" x="662" y="-533.4" font-family="Times Roman,serif" font-size="14.00">43 &#45; __Block_Inport__</text>
</g>
<!-- 26 &#45; Port_Input&#45;&gt;43 &#45; __Block_Inport__ -->
<g id="edge70" class="edge"><title>26 &#45; Port_Input&#45;&gt;43 &#45; __Block_Inport__</title>
<path fill="none" stroke="black" d="M658.262,-592.327C658.806,-584.264 659.456,-574.648 660.06,-565.711"/>
<polygon fill="black" stroke="black" points="663.556,-565.881 660.739,-555.667 656.572,-565.409 663.556,-565.881"/>
</g>
<!-- 27 &#45; Port_Input -->
<g id="node28" class="node"><title>27 &#45; Port_Input</title>
<ellipse fill="lightyellow" stroke="black" cx="1034" cy="-1425" rx="85.7684" ry="18.3848"/>
<text text-anchor="middle" x="1034" y="-1421.4" font-family="Times Roman,serif" font-size="14.00">27 &#45; Port_Input</text>
</g>
<!-- 44 &#45; __Block_Inport__ -->
<g id="node45" class="node"><title>44 &#45; __Block_Inport__</title>
<ellipse fill="#b94a62" stroke="black" cx="918" cy="-1351" rx="118.087" ry="18.3848"/>
<text text-anchor="middle" x="918" y="-1347.4" font-family="Times Roman,serif" font-size="14.00">44 &#45; __Block_Inport__</text>
</g>
<!-- 27 &#45; Port_Input&#45;&gt;44 &#45; __Block_Inport__ -->
<g id="edge72" class="edge"><title>27 &#45; Port_Input&#45;&gt;44 &#45; __Block_Inport__</title>
<path fill="none" stroke="black" d="M1006.51,-1407.46C991.105,-1397.64 971.687,-1385.25 954.967,-1374.58"/>
<polygon fill="black" stroke="black" points="956.817,-1371.61 946.504,-1369.18 953.053,-1377.51 956.817,-1371.61"/>
</g>
<!-- 28 &#45; Port_Input -->
<g id="node29" class="node"><title>28 &#45; Port_Input</title>
<ellipse fill="lightyellow" stroke="black" cx="822" cy="-1499" rx="85.0596" ry="18.3848"/>
<text text-anchor="middle" x="822" y="-1495.4" font-family="Times Roman,serif" font-size="14.00">28 &#45; Port_Input</text>
</g>
<!-- 45 &#45; __Block_Inport__ -->
<g id="node46" class="node"><title>45 &#45; __Block_Inport__</title>
<ellipse fill="#b94a62" stroke="black" cx="812" cy="-1425" rx="118.087" ry="18.3848"/>
<text text-anchor="middle" x="812" y="-1421.4" font-family="Times Roman,serif" font-size="14.00">45 &#45; __Block_Inport__</text>
</g>
<!-- 28 &#45; Port_Input&#45;&gt;45 &#45; __Block_Inport__ -->
<g id="edge74" class="edge"><title>28 &#45; Port_Input&#45;&gt;45 &#45; __Block_Inport__</title>
<path fill="none" stroke="black" d="M819.477,-1480.33C818.387,-1472.26 817.088,-1462.65 815.88,-1453.71"/>
<polygon fill="black" stroke="black" points="819.33,-1453.11 814.523,-1443.67 812.393,-1454.05 819.33,-1453.11"/>
</g>
<!-- 29 &#45; Port_Input -->
<g id="node30" class="node"><title>29 &#45; Port_Input</title>
<ellipse fill="lightyellow" stroke="black" cx="375" cy="-1943" rx="85.0596" ry="18.3848"/>
<text text-anchor="middle" x="375" y="-1939.4" font-family="Times Roman,serif" font-size="14.00">29 &#45; Port_Input</text>
</g>
<!-- 46 &#45; __Block_Inport__ -->
<g id="node47" class="node"><title>46 &#45; __Block_Inport__</title>
<ellipse fill="#b94a62" stroke="black" cx="373" cy="-1721" rx="118.087" ry="18.3848"/>
<text text-anchor="middle" x="373" y="-1717.4" font-family="Times Roman,serif" font-size="14.00">46 &#45; __Block_Inport__</text>
</g>
<!-- 29 &#45; Port_Input&#45;&gt;46 &#45; __Block_Inport__ -->
<g id="edge76" class="edge"><title>29 &#45; Port_Input&#45;&gt;46 &#45; __Block_Inport__</title>
<path fill="none" stroke="black" d="M374.833,-1924.45C374.484,-1885.77 373.678,-1796.22 373.26,-1749.91"/>
<polygon fill="black" stroke="black" points="376.758,-1749.62 373.168,-1739.65 369.758,-1749.68 376.758,-1749.62"/>
</g>
<!-- 30 &#45; Port_Input -->
<g id="node31" class="node"><title>30 &#45; Port_Input</title>
<ellipse fill="lightyellow" stroke="black" cx="651" cy="-1943" rx="84.8528" ry="18.3848"/>
<text text-anchor="middle" x="651" y="-1939.4" font-family="Times Roman,serif" font-size="14.00">30 &#45; Port_Input</text>
</g>
<!-- 47 &#45; __Block_Inport__ -->
<g id="node48" class="node"><title>47 &#45; __Block_Inport__</title>
<ellipse fill="#b94a62" stroke="black" cx="666" cy="-1573" rx="118.794" ry="18.3848"/>
<text text-anchor="middle" x="666" y="-1569.4" font-family="Times Roman,serif" font-size="14.00">47 &#45; __Block_Inport__</text>
</g>
<!-- 30 &#45; Port_Input&#45;&gt;47 &#45; __Block_Inport__ -->
<g id="edge78" class="edge"><title>30 &#45; Port_Input&#45;&gt;47 &#45; __Block_Inport__</title>
<path fill="none" stroke="black" d="M651,-1924.31C651,-1896.23 651,-1841.51 651,-1795 651,-1795 651,-1795 651,-1721 651,-1679.37 656.948,-1631.48 661.353,-1601.73"/>
<polygon fill="black" stroke="black" points="664.845,-1602.04 662.892,-1591.63 657.925,-1600.99 664.845,-1602.04"/>
</g>
<!-- 31 &#45; Port_Input -->
<g id="node32" class="node"><title>31 &#45; Port_Input</title>
<ellipse fill="lightyellow" stroke="black" cx="517" cy="-1055" rx="85.7684" ry="18.3848"/>
<text text-anchor="middle" x="517" y="-1051.4" font-family="Times Roman,serif" font-size="14.00">31 &#45; Port_Input</text>
</g>
<!-- 48 &#45; __Block_Inport__ -->
<g id="node49" class="node"><title>48 &#45; __Block_Inport__</title>
<ellipse fill="#b94a62" stroke="black" cx="519" cy="-981" rx="118.087" ry="18.3848"/>
<text text-anchor="middle" x="519" y="-977.4" font-family="Times Roman,serif" font-size="14.00">48 &#45; __Block_Inport__</text>
</g>
<!-- 31 &#45; Port_Input&#45;&gt;48 &#45; __Block_Inport__ -->
<g id="edge80" class="edge"><title>31 &#45; Port_Input&#45;&gt;48 &#45; __Block_Inport__</title>
<path fill="none" stroke="black" d="M517.505,-1036.33C517.723,-1028.26 517.982,-1018.65 518.224,-1009.71"/>
<polygon fill="black" stroke="black" points="521.724,-1009.76 518.495,-999.667 514.726,-1009.57 521.724,-1009.76"/>
</g>
<!-- 32 &#45; __Contains__&#45;&gt;3 &#45; Constant\n Value = 1.0 -->
<g id="edge82" class="edge"><title>32 &#45; __Contains__&#45;&gt;3 &#45; Constant\n Value = 1.0</title>
<path fill="none" stroke="black" d="M398.962,-2318.34C397.698,-2310.58 396.178,-2301.23 394.677,-2292.01"/>
<polygon fill="black" stroke="black" points="398.13,-2291.44 393.069,-2282.14 391.221,-2292.57 398.13,-2291.44"/>
</g>
<!-- 33 &#45; __Contains__&#45;&gt;5 &#45; Product -->
<g id="edge84" class="edge"><title>33 &#45; __Contains__&#45;&gt;5 &#45; Product</title>
<path fill="none" stroke="black" d="M520.586,-1850.31C520,-1822.24 519,-1767.51 519,-1721 519,-1721 519,-1721 519,-1499 519,-1457.56 517.017,-1409.62 515.549,-1379.8"/>
<polygon fill="black" stroke="black" points="519.038,-1379.49 515.036,-1369.68 512.047,-1379.85 519.038,-1379.49"/>
</g>
<!-- 34 &#45; __Contains__&#45;&gt;6 &#45; Sum -->
<g id="edge86" class="edge"><title>34 &#45; __Contains__&#45;&gt;6 &#45; Sum</title>
<path fill="none" stroke="black" d="M267.585,-1258.29C284.643,-1231.07 313,-1178.4 313,-1129 313,-1129 313,-1129 313,-1055 313,-969.15 425.633,-931.467 496.579,-916.247"/>
<polygon fill="black" stroke="black" points="497.635,-919.603 506.726,-914.161 496.226,-912.747 497.635,-919.603"/>
</g>
<!-- 35 &#45; __Contains__&#45;&gt;0 &#45; Outport -->
<g id="edge88" class="edge"><title>35 &#45; __Contains__&#45;&gt;0 &#45; Outport</title>
<path fill="none" stroke="black" d="M101.072,-1776.34C104.001,-1748.3 109,-1693.61 109,-1647 109,-1647 109,-1647 109,-167 109,-119.415 141.4,-72.4556 164.962,-44.5976"/>
<polygon fill="black" stroke="black" points="167.716,-46.7647 171.641,-36.924 162.436,-42.1688 167.716,-46.7647"/>
</g>
<!-- 36 &#45; __Contains__&#45;&gt;1 &#45; Product -->
<g id="edge90" class="edge"><title>36 &#45; __Contains__&#45;&gt;1 &#45; Product</title>
<path fill="none" stroke="black" d="M1124.93,-2232.4C1152.53,-2204.53 1199,-2148.99 1199,-2091 1199,-2091 1199,-2091 1199,-1943 1199,-1900.81 1206.81,-1882.57 1180,-1850 1163.14,-1829.53 1137.37,-1816.56 1113.06,-1808.41"/>
<polygon fill="black" stroke="black" points="1114.07,-1805.05 1103.48,-1805.41 1111.98,-1811.73 1114.07,-1805.05"/>
</g>
<!-- 37 &#45; __Contains__&#45;&gt;2 &#45; Constant\n Value = 12.34 -->
<g id="edge92" class="edge"><title>37 &#45; __Contains__&#45;&gt;2 &#45; Constant\n Value = 12.34</title>
<path fill="none" stroke="black" d="M672.519,-2318.34C673.144,-2310.66 673.895,-2301.43 674.638,-2292.31"/>
<polygon fill="black" stroke="black" points="678.143,-2292.39 675.466,-2282.14 671.166,-2291.82 678.143,-2292.39"/>
</g>
<!-- 38 &#45; __Contains__&#45;&gt;4 &#45; Sum -->
<g id="edge94" class="edge"><title>38 &#45; __Contains__&#45;&gt;4 &#45; Sum</title>
<path fill="none" stroke="black" d="M1222.25,-1628.62C1202.25,-1601.81 1169,-1549.62 1169,-1499 1169,-1499 1169,-1499 1169,-611 1169,-532.552 911.299,-487.061 793.51,-470.365"/>
<polygon fill="black" stroke="black" points="793.965,-466.895 783.577,-468.978 792.997,-473.827 793.965,-466.895"/>
</g>
<!-- 39 &#45; __Contains__&#45;&gt;8 &#45; Inport -->
<g id="edge96" class="edge"><title>39 &#45; __Contains__&#45;&gt;8 &#45; Inport</title>
<path fill="none" stroke="black" d="M917.651,-2318.34C918.044,-2307.07 918.553,-2292.47 918.997,-2279.75"/>
<polygon fill="black" stroke="black" points="922.499,-2279.74 919.35,-2269.62 915.504,-2279.5 922.499,-2279.74"/>
</g>
<!-- 40 &#45; __Block_Inport__&#45;&gt;0 &#45; Outport -->
<g id="edge98" class="edge"><title>40 &#45; __Block_Inport__&#45;&gt;0 &#45; Outport</title>
<path fill="none" stroke="black" d="M249.978,-74.7079C239.7,-65.3186 227.035,-53.7483 215.916,-43.5896"/>
<polygon fill="black" stroke="black" points="218.256,-40.9872 208.513,-36.8264 213.535,-46.1553 218.256,-40.9872"/>
</g>
<!-- 41 &#45; __Block_Inport__&#45;&gt;1 &#45; Product -->
<g id="edge100" class="edge"><title>41 &#45; __Block_Inport__&#45;&gt;1 &#45; Product</title>
<path fill="none" stroke="black" d="M853.483,-1852.58C894.901,-1840.32 951.248,-1823.64 992.637,-1811.39"/>
<polygon fill="black" stroke="black" points="993.692,-1814.73 1002.29,-1808.53 991.705,-1808.01 993.692,-1814.73"/>
</g>
<!-- 42 &#45; __Block_Inport__&#45;&gt;1 &#45; Product -->
<g id="edge102" class="edge"><title>42 &#45; __Block_Inport__&#45;&gt;1 &#45; Product</title>
<path fill="none" stroke="black" d="M1051.74,-1850.33C1051.19,-1842.26 1050.54,-1832.65 1049.94,-1823.71"/>
<polygon fill="black" stroke="black" points="1053.43,-1823.41 1049.26,-1813.67 1046.44,-1823.88 1053.43,-1823.41"/>
</g>
<!-- 43 &#45; __Block_Inport__&#45;&gt;4 &#45; Sum -->
<g id="edge104" class="edge"><title>43 &#45; __Block_Inport__&#45;&gt;4 &#45; Sum</title>
<path fill="none" stroke="black" d="M680.292,-518.708C689.66,-509.34 701.199,-497.801 711.341,-487.659"/>
<polygon fill="black" stroke="black" points="713.832,-490.118 718.428,-480.572 708.882,-485.168 713.832,-490.118"/>
</g>
<!-- 44 &#45; __Block_Inport__&#45;&gt;4 &#45; Sum -->
<g id="edge106" class="edge"><title>44 &#45; __Block_Inport__&#45;&gt;4 &#45; Sum</title>
<path fill="none" stroke="black" d="M892.913,-1332.81C861.287,-1307.55 811,-1258.64 811,-1203 811,-1203 811,-1203 811,-611 811,-568.526 809.348,-555.283 789,-518 782.796,-506.633 773.613,-495.935 764.626,-487.049"/>
<polygon fill="black" stroke="black" points="766.869,-484.353 757.193,-480.037 762.065,-489.445 766.869,-484.353"/>
</g>
<!-- 45 &#45; __Block_Inport__&#45;&gt;5 &#45; Product -->
<g id="edge108" class="edge"><title>45 &#45; __Block_Inport__&#45;&gt;5 &#45; Product</title>
<path fill="none" stroke="black" d="M748.802,-1409.31C697.066,-1396.46 624.395,-1378.41 573.649,-1365.81"/>
<polygon fill="black" stroke="black" points="574.354,-1362.38 563.805,-1363.37 572.667,-1369.17 574.354,-1362.38"/>
</g>
<!-- 46 &#45; __Block_Inport__&#45;&gt;5 &#45; Product -->
<g id="edge110" class="edge"><title>46 &#45; __Block_Inport__&#45;&gt;5 &#45; Product</title>
<path fill="none" stroke="black" d="M384.717,-1702.17C400.599,-1674.81 427,-1621.96 427,-1573 427,-1573 427,-1573 427,-1499 427,-1450.51 462.142,-1403.87 487.757,-1376.32"/>
<polygon fill="black" stroke="black" points="490.309,-1378.72 494.692,-1369.07 485.25,-1373.88 490.309,-1378.72"/>
</g>
<!-- 47 &#45; __Block_Inport__&#45;&gt;6 &#45; Sum -->
<g id="edge112" class="edge"><title>47 &#45; __Block_Inport__&#45;&gt;6 &#45; Sum</title>
<path fill="none" stroke="black" d="M666,-1554.31C666,-1526.23 666,-1471.51 666,-1425 666,-1425 666,-1425 666,-1055 666,-1012.72 670.712,-996.304 646,-962 634.159,-945.562 615.756,-933.205 598.437,-924.411"/>
<polygon fill="black" stroke="black" points="599.506,-921.043 588.974,-919.889 596.488,-927.359 599.506,-921.043"/>
</g>
<!-- 48 &#45; __Block_Inport__&#45;&gt;6 &#45; Sum -->
<g id="edge114" class="edge"><title>48 &#45; __Block_Inport__&#45;&gt;6 &#45; Sum</title>
<path fill="none" stroke="black" d="M527.58,-962.327C531.434,-953.937 536.061,-943.866 540.305,-934.629"/>
<polygon fill="black" stroke="black" points="543.546,-935.959 544.541,-925.411 537.185,-933.037 543.546,-935.959"/>
</g>
<!-- 49 &#45; __Relation__&#45;&gt;31 &#45; Port_Input -->
<g id="edge116" class="edge"><title>49 &#45; __Relation__&#45;&gt;31 &#45; Port_Input</title>
<path fill="none" stroke="black" d="M516.252,-1110.33C516.361,-1102.26 516.491,-1092.65 516.612,-1083.71"/>
<polygon fill="black" stroke="black" points="520.112,-1083.71 516.748,-1073.67 513.113,-1083.62 520.112,-1083.71"/>
</g>
<!-- 50 &#45; __Relation__&#45;&gt;29 &#45; Port_Input -->
<g id="edge118" class="edge"><title>50 &#45; __Relation__&#45;&gt;29 &#45; Port_Input</title>
<path fill="none" stroke="black" d="M376.495,-1998.33C376.277,-1990.26 376.018,-1980.65 375.776,-1971.71"/>
<polygon fill="black" stroke="black" points="379.274,-1971.57 375.505,-1961.67 372.276,-1971.76 379.274,-1971.57"/>
</g>
<!-- 51 &#45; __Relation__&#45;&gt;23 &#45; Port_Input -->
<g id="edge120" class="edge"><title>51 &#45; __Relation__&#45;&gt;23 &#45; Port_Input</title>
<path fill="none" stroke="black" d="M346.921,-222.708C339.59,-213.814 330.644,-202.962 322.603,-193.207"/>
<polygon fill="black" stroke="black" points="325.178,-190.828 316.117,-185.338 319.777,-195.281 325.178,-190.828"/>
</g>
<!-- 52 &#45; __Relation__&#45;&gt;28 &#45; Port_Input -->
<g id="edge122" class="edge"><title>52 &#45; __Relation__&#45;&gt;28 &#45; Port_Input</title>
<path fill="none" stroke="black" d="M883.73,-1554.71C873.403,-1545.39 860.695,-1533.92 849.498,-1523.82"/>
<polygon fill="black" stroke="black" points="851.805,-1521.18 842.037,-1517.08 847.116,-1526.38 851.805,-1521.18"/>
</g>
<!-- 53 &#45; __Relation__&#45;&gt;27 &#45; Port_Input -->
<g id="edge124" class="edge"><title>53 &#45; __Relation__&#45;&gt;27 &#45; Port_Input</title>
<path fill="none" stroke="black" d="M1033.25,-1480.33C1033.36,-1472.26 1033.49,-1462.65 1033.61,-1453.71"/>
<polygon fill="black" stroke="black" points="1037.11,-1453.71 1033.75,-1443.67 1030.11,-1453.62 1037.11,-1453.71"/>
</g>
<!-- 54 &#45; __Relation__&#45;&gt;25 &#45; Port_Input -->
<g id="edge126" class="edge"><title>54 &#45; __Relation__&#45;&gt;25 &#45; Port_Input</title>
<path fill="none" stroke="black" d="M1071.48,-1998.33C1070.39,-1990.26 1069.09,-1980.65 1067.88,-1971.71"/>
<polygon fill="black" stroke="black" points="1071.33,-1971.11 1066.52,-1961.67 1064.39,-1972.05 1071.33,-1971.11"/>
</g>
<!-- 55 &#45; __Relation__&#45;&gt;30 &#45; Port_Input -->
<g id="edge128" class="edge"><title>55 &#45; __Relation__&#45;&gt;30 &#45; Port_Input</title>
<path fill="none" stroke="black" d="M650.252,-1998.33C650.361,-1990.26 650.491,-1980.65 650.612,-1971.71"/>
<polygon fill="black" stroke="black" points="654.112,-1971.71 650.748,-1961.67 647.113,-1971.62 654.112,-1971.71"/>
</g>
<!-- 56 &#45; __Relation__&#45;&gt;24 &#45; Port_Input -->
<g id="edge130" class="edge"><title>56 &#45; __Relation__&#45;&gt;24 &#45; Port_Input</title>
<path fill="none" stroke="black" d="M859.224,-1998.33C858.026,-1990.26 856.596,-1980.65 855.268,-1971.71"/>
<polygon fill="black" stroke="black" points="858.707,-1971.04 853.775,-1961.67 851.783,-1972.07 858.707,-1971.04"/>
</g>
<!-- 57 &#45; __Relation__&#45;&gt;26 &#45; Port_Input -->
<g id="edge132" class="edge"><title>57 &#45; __Relation__&#45;&gt;26 &#45; Port_Input</title>
<path fill="none" stroke="black" d="M654.757,-666.327C655.084,-658.264 655.474,-648.648 655.836,-639.711"/>
<polygon fill="black" stroke="black" points="659.335,-639.801 656.243,-629.667 652.341,-639.517 659.335,-639.801"/>
</g>
</g>
</svg>
