<?xml version="1.0" encoding="UTF-8" standalone="no"?>
<!DOCTYPE svg PUBLIC "-//W3C//DTD SVG 1.1//EN"
 "http://www.w3.org/Graphics/SVG/1.1/DTD/svg11.dtd">
<!-- Generated by graphviz version 2.26.3 (20100126.1600)
 -->
<!-- Title: HFlattModel Pages: 1 -->
<svg width="742pt" height="1106pt"
 viewBox="0.00 0.00 742.00 1106.00" xmlns="http://www.w3.org/2000/svg" xmlns:xlink="http://www.w3.org/1999/xlink">
<g id="graph1" class="graph" transform="scale(1 1) rotate(0) translate(4 1102)">
<title>HFlattModel</title>
<polygon fill="white" stroke="white" points="-4,5 -4,-1102 739,-1102 739,5 -4,5"/>
<!-- 0 &#45; Outport -->
<g id="node1" class="node"><title>0 &#45; Outport</title>
<ellipse fill="#eedd82" stroke="black" cx="198" cy="-19" rx="67.1751" ry="18.3848"/>
<text text-anchor="middle" x="198" y="-15.4" font-family="Times Roman,serif" font-size="14.00">0 &#45; Outport</text>
</g>
<!-- 1 &#45; Product -->
<g id="node2" class="node"><title>1 &#45; Product</title>
<ellipse fill="lightblue" stroke="black" cx="306" cy="-463" rx="67.1751" ry="18.3848"/>
<text text-anchor="middle" x="306" y="-459.4" font-family="Times Roman,serif" font-size="14.00">1 &#45; Product</text>
</g>
<!-- 14 &#45; __Block_Outport__ -->
<g id="node15" class="node"><title>14 &#45; __Block_Outport__</title>
<ellipse fill="#b94a62" stroke="black" cx="293" cy="-389" rx="127.986" ry="18.3848"/>
<text text-anchor="middle" x="293" y="-385.4" font-family="Times Roman,serif" font-size="14.00">14 &#45; __Block_Outport__</text>
</g>
<!-- 1 &#45; Product&#45;&gt;14 &#45; __Block_Outport__ -->
<g id="edge2" class="edge"><title>1 &#45; Product&#45;&gt;14 &#45; __Block_Outport__</title>
<path fill="none" stroke="black" d="M302.72,-444.327C301.303,-436.264 299.614,-426.648 298.044,-417.711"/>
<polygon fill="black" stroke="black" points="301.457,-416.911 296.279,-407.667 294.563,-418.122 301.457,-416.911"/>
</g>
<!-- 2 &#45; Constant\n Value = 1.0 -->
<g id="node3" class="node"><title>2 &#45; Constant\n Value = 1.0</title>
<ellipse fill="lightblue" stroke="black" cx="372" cy="-919" rx="73.0388" ry="31.1127"/>
<text text-anchor="middle" x="372" y="-924.4" font-family="Times Roman,serif" font-size="14.00">2 &#45; Constant</text>
<text text-anchor="middle" x="372" y="-906.4" font-family="Times Roman,serif" font-size="14.00"> Value = 1.0</text>
</g>
<!-- 15 &#45; __Block_Outport__ -->
<g id="node16" class="node"><title>15 &#45; __Block_Outport__</title>
<ellipse fill="#b94a62" stroke="black" cx="334" cy="-833" rx="127.986" ry="18.3848"/>
<text text-anchor="middle" x="334" y="-829.4" font-family="Times Roman,serif" font-size="14.00">15 &#45; __Block_Outport__</text>
</g>
<!-- 2 &#45; Constant\n Value = 1.0&#45;&gt;15 &#45; __Block_Outport__ -->
<g id="edge6" class="edge"><title>2 &#45; Constant\n Value = 1.0&#45;&gt;15 &#45; __Block_Outport__</title>
<path fill="none" stroke="black" d="M358.496,-888.437C354.559,-879.528 350.277,-869.838 346.412,-861.089"/>
<polygon fill="black" stroke="black" points="349.507,-859.434 342.264,-851.702 343.104,-862.264 349.507,-859.434"/>
</g>
<!-- 3 &#45; Inport -->
<g id="node4" class="node"><title>3 &#45; Inport</title>
<ellipse fill="#eedd82" stroke="black" cx="564" cy="-919" rx="57.9828" ry="18.3848"/>
<text text-anchor="middle" x="564" y="-915.4" font-family="Times Roman,serif" font-size="14.00">3 &#45; Inport</text>
</g>
<!-- 16 &#45; __Block_Outport__ -->
<g id="node17" class="node"><title>16 &#45; __Block_Outport__</title>
<ellipse fill="#b94a62" stroke="black" cx="607" cy="-833" rx="126.78" ry="18.3848"/>
<text text-anchor="middle" x="607" y="-829.4" font-family="Times Roman,serif" font-size="14.00">16 &#45; __Block_Outport__</text>
</g>
<!-- 3 &#45; Inport&#45;&gt;16 &#45; __Block_Outport__ -->
<g id="edge10" class="edge"><title>3 &#45; Inport&#45;&gt;16 &#45; __Block_Outport__</title>
<path fill="none" stroke="black" d="M573.33,-900.339C579.134,-888.732 586.702,-873.596 593.193,-860.614"/>
<polygon fill="black" stroke="black" points="596.346,-862.134 597.688,-851.624 590.085,-859.003 596.346,-862.134"/>
</g>
<!-- 4 &#45; SubSystem -->
<g id="node5" class="node"><title>4 &#45; SubSystem</title>
<ellipse fill="lightgreen" stroke="black" cx="253" cy="-1079" rx="84.8528" ry="18.3848"/>
<text text-anchor="middle" x="253" y="-1075.4" font-family="Times Roman,serif" font-size="14.00">4 &#45; SubSystem</text>
</g>
<!-- 20 &#45; __Contains__ -->
<g id="node21" class="node"><title>20 &#45; __Contains__</title>
<ellipse fill="lightgray" stroke="black" cx="99" cy="-463" rx="98.9949" ry="18.3848"/>
<text text-anchor="middle" x="99" y="-459.4" font-family="Times Roman,serif" font-size="14.00">20 &#45; __Contains__</text>
</g>
<!-- 4 &#45; SubSystem&#45;&gt;20 &#45; __Contains__ -->
<g id="edge14" class="edge"><title>4 &#45; SubSystem&#45;&gt;20 &#45; __Contains__</title>
<path fill="none" stroke="black" d="M203.818,-1063.8C144.6,-1042.08 53,-996.038 53,-919 53,-919 53,-919 53,-611 53,-567.486 71.3569,-519.888 84.878,-490.73"/>
<polygon fill="black" stroke="black" points="88.0959,-492.114 89.2446,-481.581 81.7785,-489.098 88.0959,-492.114"/>
</g>
<!-- 21 &#45; __Contains__ -->
<g id="node22" class="node"><title>21 &#45; __Contains__</title>
<ellipse fill="lightgray" stroke="black" cx="181" cy="-919" rx="99.9096" ry="18.3848"/>
<text text-anchor="middle" x="181" y="-915.4" font-family="Times Roman,serif" font-size="14.00">21 &#45; __Contains__</text>
</g>
<!-- 4 &#45; SubSystem&#45;&gt;21 &#45; __Contains__ -->
<g id="edge18" class="edge"><title>4 &#45; SubSystem&#45;&gt;21 &#45; __Contains__</title>
<path fill="none" stroke="black" d="M237.733,-1060.58C229.804,-1050.31 220.452,-1037 214,-1024 201.736,-999.288 192.809,-969.054 187.356,-947.385"/>
<polygon fill="black" stroke="black" points="190.717,-946.392 184.959,-937.498 183.914,-948.041 190.717,-946.392"/>
</g>
<!-- 22 &#45; __Contains__ -->
<g id="node23" class="node"><title>22 &#45; __Contains__</title>
<ellipse fill="lightgray" stroke="black" cx="322" cy="-1005" rx="99.201" ry="18.3848"/>
<text text-anchor="middle" x="322" y="-1001.4" font-family="Times Roman,serif" font-size="14.00">22 &#45; __Contains__</text>
</g>
<!-- 4 &#45; SubSystem&#45;&gt;22 &#45; __Contains__ -->
<g id="edge22" class="edge"><title>4 &#45; SubSystem&#45;&gt;22 &#45; __Contains__</title>
<path fill="none" stroke="black" d="M270.056,-1060.71C278.432,-1051.72 288.67,-1040.74 297.836,-1030.91"/>
<polygon fill="black" stroke="black" points="300.641,-1033.04 304.901,-1023.34 295.521,-1028.27 300.641,-1033.04"/>
</g>
<!-- 23 &#45; __Contains__ -->
<g id="node24" class="node"><title>23 &#45; __Contains__</title>
<ellipse fill="lightgray" stroke="black" cx="543" cy="-1005" rx="98.9949" ry="18.3848"/>
<text text-anchor="middle" x="543" y="-1001.4" font-family="Times Roman,serif" font-size="14.00">23 &#45; __Contains__</text>
</g>
<!-- 4 &#45; SubSystem&#45;&gt;23 &#45; __Contains__ -->
<g id="edge26" class="edge"><title>4 &#45; SubSystem&#45;&gt;23 &#45; __Contains__</title>
<path fill="none" stroke="black" d="M308.229,-1064.91C355.528,-1052.84 423.836,-1035.41 474.588,-1022.46"/>
<polygon fill="black" stroke="black" points="475.669,-1025.79 484.493,-1019.93 473.938,-1019.01 475.669,-1025.79"/>
</g>
<!-- 5 &#45; Port_Input -->
<g id="node6" class="node"><title>5 &#45; Port_Input</title>
<ellipse fill="lightyellow" stroke="black" cx="275" cy="-167" rx="79.9031" ry="18.3848"/>
<text text-anchor="middle" x="275" y="-163.4" font-family="Times Roman,serif" font-size="14.00">5 &#45; Port_Input</text>
</g>
<!-- 11 &#45; __Block_Inport__ -->
<g id="node12" class="node"><title>11 &#45; __Block_Inport__</title>
<ellipse fill="#b94a62" stroke="black" cx="272" cy="-93" rx="119.001" ry="18.3848"/>
<text text-anchor="middle" x="272" y="-89.4" font-family="Times Roman,serif" font-size="14.00">11 &#45; __Block_Inport__</text>
</g>
<!-- 5 &#45; Port_Input&#45;&gt;11 &#45; __Block_Inport__ -->
<g id="edge44" class="edge"><title>5 &#45; Port_Input&#45;&gt;11 &#45; __Block_Inport__</title>
<path fill="none" stroke="black" d="M274.243,-148.327C273.916,-140.264 273.526,-130.648 273.164,-121.711"/>
<polygon fill="black" stroke="black" points="276.659,-121.517 272.757,-111.667 269.665,-121.801 276.659,-121.517"/>
</g>
<!-- 6 &#45; Port_Input -->
<g id="node7" class="node"><title>6 &#45; Port_Input</title>
<ellipse fill="lightyellow" stroke="black" cx="600" cy="-611" rx="79.196" ry="18.3848"/>
<text text-anchor="middle" x="600" y="-607.4" font-family="Times Roman,serif" font-size="14.00">6 &#45; Port_Input</text>
</g>
<!-- 12 &#45; __Block_Inport__ -->
<g id="node13" class="node"><title>12 &#45; __Block_Inport__</title>
<ellipse fill="#b94a62" stroke="black" cx="598" cy="-537" rx="118.794" ry="18.3848"/>
<text text-anchor="middle" x="598" y="-533.4" font-family="Times Roman,serif" font-size="14.00">12 &#45; __Block_Inport__</text>
</g>
<!-- 6 &#45; Port_Input&#45;&gt;12 &#45; __Block_Inport__ -->
<g id="edge48" class="edge"><title>6 &#45; Port_Input&#45;&gt;12 &#45; __Block_Inport__</title>
<path fill="none" stroke="black" d="M599.495,-592.327C599.277,-584.264 599.018,-574.648 598.776,-565.711"/>
<polygon fill="black" stroke="black" points="602.274,-565.569 598.505,-555.667 595.276,-565.758 602.274,-565.569"/>
</g>
<!-- 7 &#45; Port_Input -->
<g id="node8" class="node"><title>7 &#45; Port_Input</title>
<ellipse fill="lightyellow" stroke="black" cx="330" cy="-611" rx="79.9031" ry="18.3848"/>
<text text-anchor="middle" x="330" y="-607.4" font-family="Times Roman,serif" font-size="14.00">7 &#45; Port_Input</text>
</g>
<!-- 13 &#45; __Block_Inport__ -->
<g id="node14" class="node"><title>13 &#45; __Block_Inport__</title>
<ellipse fill="#b94a62" stroke="black" cx="329" cy="-537" rx="118.087" ry="18.3848"/>
<text text-anchor="middle" x="329" y="-533.4" font-family="Times Roman,serif" font-size="14.00">13 &#45; __Block_Inport__</text>
</g>
<!-- 7 &#45; Port_Input&#45;&gt;13 &#45; __Block_Inport__ -->
<g id="edge52" class="edge"><title>7 &#45; Port_Input&#45;&gt;13 &#45; __Block_Inport__</title>
<path fill="none" stroke="black" d="M329.748,-592.327C329.639,-584.264 329.509,-574.648 329.388,-565.711"/>
<polygon fill="black" stroke="black" points="332.887,-565.619 329.252,-555.667 325.888,-565.714 332.887,-565.619"/>
</g>
<!-- 8 &#45; Port_Output -->
<g id="node9" class="node"><title>8 &#45; Port_Output</title>
<ellipse fill="coral" stroke="black" cx="291" cy="-315" rx="87.889" ry="18.3848"/>
<text text-anchor="middle" x="291" y="-311.4" font-family="Times Roman,serif" font-size="14.00">8 &#45; Port_Output</text>
</g>
<!-- 19 &#45; __Relation__ -->
<g id="node20" class="node"><title>19 &#45; __Relation__</title>
<ellipse fill="#f78465" stroke="black" cx="280" cy="-241" rx="96.8736" ry="18.3848"/>
<text text-anchor="middle" x="280" y="-237.4" font-family="Times Roman,serif" font-size="14.00">19 &#45; __Relation__</text>
</g>
<!-- 8 &#45; Port_Output&#45;&gt;19 &#45; __Relation__ -->
<g id="edge38" class="edge"><title>8 &#45; Port_Output&#45;&gt;19 &#45; __Relation__</title>
<path fill="none" stroke="black" d="M288.224,-296.327C287.026,-288.264 285.596,-278.648 284.268,-269.711"/>
<polygon fill="black" stroke="black" points="287.707,-269.044 282.775,-259.667 280.783,-270.073 287.707,-269.044"/>
</g>
<!-- 9 &#45; Port_Output -->
<g id="node10" class="node"><title>9 &#45; Port_Output</title>
<ellipse fill="coral" stroke="black" cx="332" cy="-759" rx="87.889" ry="18.3848"/>
<text text-anchor="middle" x="332" y="-755.4" font-family="Times Roman,serif" font-size="14.00">9 &#45; Port_Output</text>
</g>
<!-- 18 &#45; __Relation__ -->
<g id="node19" class="node"><title>18 &#45; __Relation__</title>
<ellipse fill="#f78465" stroke="black" cx="331" cy="-685" rx="96.8736" ry="18.3848"/>
<text text-anchor="middle" x="331" y="-681.4" font-family="Times Roman,serif" font-size="14.00">18 &#45; __Relation__</text>
</g>
<!-- 9 &#45; Port_Output&#45;&gt;18 &#45; __Relation__ -->
<g id="edge34" class="edge"><title>9 &#45; Port_Output&#45;&gt;18 &#45; __Relation__</title>
<path fill="none" stroke="black" d="M331.748,-740.327C331.639,-732.264 331.509,-722.648 331.388,-713.711"/>
<polygon fill="black" stroke="black" points="334.887,-713.619 331.252,-703.667 327.888,-713.714 334.887,-713.619"/>
</g>
<!-- 10 &#45; Port_Output -->
<g id="node11" class="node"><title>10 &#45; Port_Output</title>
<ellipse fill="coral" stroke="black" cx="605" cy="-759" rx="94.7523" ry="18.3848"/>
<text text-anchor="middle" x="605" y="-755.4" font-family="Times Roman,serif" font-size="14.00">10 &#45; Port_Output</text>
</g>
<!-- 17 &#45; __Relation__ -->
<g id="node18" class="node"><title>17 &#45; __Relation__</title>
<ellipse fill="#f78465" stroke="black" cx="604" cy="-685" rx="97.7889" ry="18.3848"/>
<text text-anchor="middle" x="604" y="-681.4" font-family="Times Roman,serif" font-size="14.00">17 &#45; __Relation__</text>
</g>
<!-- 10 &#45; Port_Output&#45;&gt;17 &#45; __Relation__ -->
<g id="edge30" class="edge"><title>10 &#45; Port_Output&#45;&gt;17 &#45; __Relation__</title>
<path fill="none" stroke="black" d="M604.748,-740.327C604.639,-732.264 604.509,-722.648 604.388,-713.711"/>
<polygon fill="black" stroke="black" points="607.887,-713.619 604.252,-703.667 600.888,-713.714 607.887,-713.619"/>
</g>
<!-- 11 &#45; __Block_Inport__&#45;&gt;0 &#45; Outport -->
<g id="edge42" class="edge"><title>11 &#45; __Block_Inport__&#45;&gt;0 &#45; Outport</title>
<path fill="none" stroke="black" d="M253.708,-74.7079C244.567,-65.5674 233.36,-54.3599 223.4,-44.4"/>
<polygon fill="black" stroke="black" points="225.628,-41.6779 216.082,-37.0817 220.678,-46.6277 225.628,-41.6779"/>
</g>
<!-- 12 &#45; __Block_Inport__&#45;&gt;1 &#45; Product -->
<g id="edge46" class="edge"><title>12 &#45; __Block_Inport__&#45;&gt;1 &#45; Product</title>
<path fill="none" stroke="black" d="M535.717,-521.216C485.416,-508.469 415.092,-490.647 365.539,-478.089"/>
<polygon fill="black" stroke="black" points="366.16,-474.636 355.607,-475.572 364.441,-481.421 366.16,-474.636"/>
</g>
<!-- 13 &#45; __Block_Inport__&#45;&gt;1 &#45; Product -->
<g id="edge50" class="edge"><title>13 &#45; __Block_Inport__&#45;&gt;1 &#45; Product</title>
<path fill="none" stroke="black" d="M323.196,-518.327C320.663,-510.176 317.636,-500.438 314.833,-491.42"/>
<polygon fill="black" stroke="black" points="318.112,-490.178 311.802,-481.667 311.428,-492.256 318.112,-490.178"/>
</g>
<!-- 14 &#45; __Block_Outport__&#45;&gt;8 &#45; Port_Output -->
<g id="edge4" class="edge"><title>14 &#45; __Block_Outport__&#45;&gt;8 &#45; Port_Output</title>
<path fill="none" stroke="black" d="M292.495,-370.327C292.277,-362.264 292.018,-352.648 291.776,-343.711"/>
<polygon fill="black" stroke="black" points="295.274,-343.569 291.505,-333.667 288.276,-343.758 295.274,-343.569"/>
</g>
<!-- 15 &#45; __Block_Outport__&#45;&gt;9 &#45; Port_Output -->
<g id="edge8" class="edge"><title>15 &#45; __Block_Outport__&#45;&gt;9 &#45; Port_Output</title>
<path fill="none" stroke="black" d="M333.495,-814.327C333.277,-806.264 333.018,-796.648 332.776,-787.711"/>
<polygon fill="black" stroke="black" points="336.274,-787.569 332.505,-777.667 329.276,-787.758 336.274,-787.569"/>
</g>
<!-- 16 &#45; __Block_Outport__&#45;&gt;10 &#45; Port_Output -->
<g id="edge12" class="edge"><title>16 &#45; __Block_Outport__&#45;&gt;10 &#45; Port_Output</title>
<path fill="none" stroke="black" d="M606.495,-814.327C606.277,-806.264 606.018,-796.648 605.776,-787.711"/>
<polygon fill="black" stroke="black" points="609.274,-787.569 605.505,-777.667 602.276,-787.758 609.274,-787.569"/>
</g>
<!-- 17 &#45; __Relation__&#45;&gt;6 &#45; Port_Input -->
<g id="edge32" class="edge"><title>17 &#45; __Relation__&#45;&gt;6 &#45; Port_Input</title>
<path fill="none" stroke="black" d="M602.991,-666.327C602.555,-658.264 602.035,-648.648 601.552,-639.711"/>
<polygon fill="black" stroke="black" points="605.044,-639.464 601.009,-629.667 598.054,-639.842 605.044,-639.464"/>
</g>
<!-- 18 &#45; __Relation__&#45;&gt;7 &#45; Port_Input -->
<g id="edge36" class="edge"><title>18 &#45; __Relation__&#45;&gt;7 &#45; Port_Input</title>
<path fill="none" stroke="black" d="M330.748,-666.327C330.639,-658.264 330.509,-648.648 330.388,-639.711"/>
<polygon fill="black" stroke="black" points="333.887,-639.619 330.252,-629.667 326.888,-639.714 333.887,-639.619"/>
</g>
<!-- 19 &#45; __Relation__&#45;&gt;5 &#45; Port_Input -->
<g id="edge40" class="edge"><title>19 &#45; __Relation__&#45;&gt;5 &#45; Port_Input</title>
<path fill="none" stroke="black" d="M278.738,-222.327C278.194,-214.264 277.544,-204.648 276.94,-195.711"/>
<polygon fill="black" stroke="black" points="280.428,-195.409 276.261,-185.667 273.444,-195.881 280.428,-195.409"/>
</g>
<!-- 20 &#45; __Contains__&#45;&gt;0 &#45; Outport -->
<g id="edge16" class="edge"><title>20 &#45; __Contains__&#45;&gt;0 &#45; Outport</title>
<path fill="none" stroke="black" d="M104.18,-444.479C111.503,-416.62 124,-362.166 124,-315 124,-315 124,-315 124,-167 124,-124.722 123.953,-111.223 144,-74 150.048,-62.7707 159.078,-52.2791 168.031,-43.5324"/>
<polygon fill="black" stroke="black" points="170.527,-45.9908 175.466,-36.6177 165.76,-40.8648 170.527,-45.9908"/>
</g>
<!-- 21 &#45; __Contains__&#45;&gt;1 &#45; Product -->
<g id="edge20" class="edge"><title>21 &#45; __Contains__&#45;&gt;1 &#45; Product</title>
<path fill="none" stroke="black" d="M180.422,-900.281C179.55,-870.411 178,-810.12 178,-759 178,-759 178,-759 178,-611 178,-568.313 175.544,-551.501 202,-518 214.941,-501.614 234.131,-489.544 252.515,-480.956"/>
<polygon fill="black" stroke="black" points="253.989,-484.131 261.73,-476.898 251.168,-477.725 253.989,-484.131"/>
</g>
<!-- 22 &#45; __Contains__&#45;&gt;2 &#45; Constant\n Value = 1.0 -->
<g id="edge24" class="edge"><title>22 &#45; __Contains__&#45;&gt;2 &#45; Constant\n Value = 1.0</title>
<path fill="none" stroke="black" d="M332.849,-986.339C337.687,-978.018 343.579,-967.884 349.308,-958.031"/>
<polygon fill="black" stroke="black" points="352.488,-959.524 354.488,-949.12 346.436,-956.006 352.488,-959.524"/>
</g>
<!-- 23 &#45; __Contains__&#45;&gt;3 &#45; Inport -->
<g id="edge28" class="edge"><title>23 &#45; __Contains__&#45;&gt;3 &#45; Inport</title>
<path fill="none" stroke="black" d="M547.557,-986.339C550.336,-974.957 553.944,-960.182 557.072,-947.373"/>
<polygon fill="black" stroke="black" points="560.48,-948.169 559.452,-937.624 553.68,-946.509 560.48,-948.169"/>
</g>
</g>
</svg>
