<?xml version="1.0" encoding="UTF-8" standalone="no"?>
<!DOCTYPE svg PUBLIC "-//W3C//DTD SVG 1.1//EN"
 "http://www.w3.org/Graphics/SVG/1.1/DTD/svg11.dtd">
<!-- Generated by graphviz version 2.26.3 (20100126.1600)
 -->
<!-- Title: HFlatten1_opt Pages: 1 -->
<svg width="3299pt" height="514pt"
 viewBox="0.00 0.00 3299.00 514.00" xmlns="http://www.w3.org/2000/svg" xmlns:xlink="http://www.w3.org/1999/xlink">
<g id="graph1" class="graph" transform="scale(1 1) rotate(0) translate(4 510)">
<title>HFlatten1_opt</title>
<polygon fill="white" stroke="white" points="-4,5 -4,-510 3296,-510 3296,5 -4,5"/>
<!-- 0 &#45; Outport -->
<g id="node1" class="node"><title>0 &#45; Outport</title>
<ellipse fill="#eedd82" stroke="black" cx="497" cy="-327" rx="67.1751" ry="18.3848"/>
<text text-anchor="middle" x="497" y="-323.4" font-family="Times Roman,serif" font-size="14.00">0 &#45; Outport</text>
</g>
<!-- 40 &#45; __Block_Inport__ -->
<g id="node41" class="node"><title>40 &#45; __Block_Inport__</title>
<ellipse fill="#b94a62" stroke="black" cx="118" cy="-167" rx="118.087" ry="18.3848"/>
<text text-anchor="middle" x="118" y="-163.4" font-family="Times Roman,serif" font-size="14.00">40 &#45; __Block_Inport__</text>
</g>
<!-- 0 &#45; Outport&#45;&gt;40 &#45; __Block_Inport__ -->
<g id="edge98" class="edge"><title>0 &#45; Outport&#45;&gt;40 &#45; __Block_Inport__</title>
<path fill="none" stroke="black" d="M446.309,-314.762C401.589,-303.169 335.138,-283.985 280,-260 234.605,-240.253 185.747,-210.99 153.696,-190.579"/>
<polygon fill="black" stroke="black" points="155.424,-187.53 145.119,-185.073 151.643,-193.42 155.424,-187.53"/>
</g>
<!-- 1 &#45; Product -->
<g id="node2" class="node"><title>1 &#45; Product</title>
<ellipse fill="lightblue" stroke="black" cx="1724" cy="-327" rx="67.1751" ry="18.3848"/>
<text text-anchor="middle" x="1724" y="-323.4" font-family="Times Roman,serif" font-size="14.00">1 &#45; Product</text>
</g>
<!-- 16 &#45; __Block_Outport__ -->
<g id="node17" class="node"><title>16 &#45; __Block_Outport__</title>
<ellipse fill="#b94a62" stroke="black" cx="1802" cy="-241" rx="126.78" ry="18.3848"/>
<text text-anchor="middle" x="1802" y="-237.4" font-family="Times Roman,serif" font-size="14.00">16 &#45; __Block_Outport__</text>
</g>
<!-- 1 &#45; Product&#45;&gt;16 &#45; __Block_Outport__ -->
<g id="edge2" class="edge"><title>1 &#45; Product&#45;&gt;16 &#45; __Block_Outport__</title>
<path fill="none" stroke="black" d="M1740.54,-308.762C1751.53,-296.644 1766.13,-280.547 1778.34,-267.082"/>
<polygon fill="black" stroke="black" points="1781.09,-269.267 1785.21,-259.509 1775.9,-264.564 1781.09,-269.267"/>
</g>
<!-- 41 &#45; __Block_Inport__ -->
<g id="node42" class="node"><title>41 &#45; __Block_Inport__</title>
<ellipse fill="#b94a62" stroke="black" cx="1546" cy="-93" rx="118.794" ry="18.3848"/>
<text text-anchor="middle" x="1546" y="-89.4" font-family="Times Roman,serif" font-size="14.00">41 &#45; __Block_Inport__</text>
</g>
<!-- 1 &#45; Product&#45;&gt;41 &#45; __Block_Inport__ -->
<g id="edge100" class="edge"><title>1 &#45; Product&#45;&gt;41 &#45; __Block_Inport__</title>
<path fill="none" stroke="black" d="M1707.54,-308.893C1695.67,-295.622 1679.44,-277.026 1666,-260 1628.02,-211.898 1587.02,-153.217 1564.13,-119.772"/>
<polygon fill="black" stroke="black" points="1566.97,-117.723 1558.44,-111.436 1561.18,-121.669 1566.97,-117.723"/>
</g>
<!-- 42 &#45; __Block_Inport__ -->
<g id="node43" class="node"><title>42 &#45; __Block_Inport__</title>
<ellipse fill="#b94a62" stroke="black" cx="2339" cy="-241" rx="118.087" ry="18.3848"/>
<text text-anchor="middle" x="2339" y="-237.4" font-family="Times Roman,serif" font-size="14.00">42 &#45; __Block_Inport__</text>
</g>
<!-- 1 &#45; Product&#45;&gt;42 &#45; __Block_Inport__ -->
<g id="edge102" class="edge"><title>1 &#45; Product&#45;&gt;42 &#45; __Block_Inport__</title>
<path fill="none" stroke="black" d="M1784.51,-318.93C1876.78,-306.573 2058.15,-282.069 2212,-260 2222.39,-258.509 2233.26,-256.924 2244.07,-255.33"/>
<polygon fill="black" stroke="black" points="2244.59,-258.791 2253.97,-253.866 2243.57,-251.867 2244.59,-258.791"/>
</g>
<!-- 2 &#45; Constant\n Value = 12.34 -->
<g id="node3" class="node"><title>2 &#45; Constant\n Value = 12.34</title>
<ellipse fill="lightblue" stroke="black" cx="1272" cy="-327" rx="85.7684" ry="31.1127"/>
<text text-anchor="middle" x="1272" y="-332.4" font-family="Times Roman,serif" font-size="14.00">2 &#45; Constant</text>
<text text-anchor="middle" x="1272" y="-314.4" font-family="Times Roman,serif" font-size="14.00"> Value = 12.34</text>
</g>
<!-- 17 &#45; __Block_Outport__ -->
<g id="node18" class="node"><title>17 &#45; __Block_Outport__</title>
<ellipse fill="#b94a62" stroke="black" cx="1199" cy="-241" rx="128.193" ry="18.3848"/>
<text text-anchor="middle" x="1199" y="-237.4" font-family="Times Roman,serif" font-size="14.00">17 &#45; __Block_Outport__</text>
</g>
<!-- 2 &#45; Constant\n Value = 12.34&#45;&gt;17 &#45; __Block_Outport__ -->
<g id="edge4" class="edge"><title>2 &#45; Constant\n Value = 12.34&#45;&gt;17 &#45; __Block_Outport__</title>
<path fill="none" stroke="black" d="M1246.47,-296.921C1238.26,-287.256 1229.24,-276.63 1221.29,-267.261"/>
<polygon fill="black" stroke="black" points="1223.76,-264.765 1214.62,-259.406 1218.43,-269.295 1223.76,-264.765"/>
</g>
<!-- 3 &#45; Constant\n Value = 1.0 -->
<g id="node4" class="node"><title>3 &#45; Constant\n Value = 1.0</title>
<ellipse fill="lightblue" stroke="black" cx="2674" cy="-327" rx="73.0388" ry="31.1127"/>
<text text-anchor="middle" x="2674" y="-332.4" font-family="Times Roman,serif" font-size="14.00">3 &#45; Constant</text>
<text text-anchor="middle" x="2674" y="-314.4" font-family="Times Roman,serif" font-size="14.00"> Value = 1.0</text>
</g>
<!-- 18 &#45; __Block_Outport__ -->
<g id="node19" class="node"><title>18 &#45; __Block_Outport__</title>
<ellipse fill="#b94a62" stroke="black" cx="3164" cy="-241" rx="126.78" ry="18.3848"/>
<text text-anchor="middle" x="3164" y="-237.4" font-family="Times Roman,serif" font-size="14.00">18 &#45; __Block_Outport__</text>
</g>
<!-- 3 &#45; Constant\n Value = 1.0&#45;&gt;18 &#45; __Block_Outport__ -->
<g id="edge6" class="edge"><title>3 &#45; Constant\n Value = 1.0&#45;&gt;18 &#45; __Block_Outport__</title>
<path fill="none" stroke="black" d="M2741.62,-315.132C2827.7,-300.023 2976.76,-273.862 3072.83,-257.001"/>
<polygon fill="black" stroke="black" points="3073.58,-260.423 3082.82,-255.247 3072.37,-253.529 3073.58,-260.423"/>
</g>
<!-- 4 &#45; Sum -->
<g id="node5" class="node"><title>4 &#45; Sum</title>
<ellipse fill="lightblue" stroke="black" cx="672" cy="-327" rx="50.2046" ry="18.3848"/>
<text text-anchor="middle" x="672" y="-323.4" font-family="Times Roman,serif" font-size="14.00">4 &#45; Sum</text>
</g>
<!-- 19 &#45; __Block_Outport__ -->
<g id="node20" class="node"><title>19 &#45; __Block_Outport__</title>
<ellipse fill="#b94a62" stroke="black" cx="416" cy="-241" rx="126.78" ry="18.3848"/>
<text text-anchor="middle" x="416" y="-237.4" font-family="Times Roman,serif" font-size="14.00">19 &#45; __Block_Outport__</text>
</g>
<!-- 4 &#45; Sum&#45;&gt;19 &#45; __Block_Outport__ -->
<g id="edge8" class="edge"><title>4 &#45; Sum&#45;&gt;19 &#45; __Block_Outport__</title>
<path fill="none" stroke="black" d="M634.775,-314.495C593.303,-300.563 525.638,-277.831 476.527,-261.333"/>
<polygon fill="black" stroke="black" points="477.56,-257.988 466.966,-258.121 475.331,-264.624 477.56,-257.988"/>
</g>
<!-- 43 &#45; __Block_Inport__ -->
<g id="node44" class="node"><title>43 &#45; __Block_Inport__</title>
<ellipse fill="#b94a62" stroke="black" cx="580" cy="-167" rx="118.087" ry="18.3848"/>
<text text-anchor="middle" x="580" y="-163.4" font-family="Times Roman,serif" font-size="14.00">43 &#45; __Block_Inport__</text>
</g>
<!-- 4 &#45; Sum&#45;&gt;43 &#45; __Block_Inport__ -->
<g id="edge104" class="edge"><title>4 &#45; Sum&#45;&gt;43 &#45; __Block_Inport__</title>
<path fill="none" stroke="black" d="M661.446,-308.646C645.38,-280.705 614.677,-227.307 595.9,-194.652"/>
<polygon fill="black" stroke="black" points="598.733,-192.557 590.714,-185.633 592.664,-196.047 598.733,-192.557"/>
</g>
<!-- 44 &#45; __Block_Inport__ -->
<g id="node45" class="node"><title>44 &#45; __Block_Inport__</title>
<ellipse fill="#b94a62" stroke="black" cx="1463" cy="-241" rx="118.087" ry="18.3848"/>
<text text-anchor="middle" x="1463" y="-237.4" font-family="Times Roman,serif" font-size="14.00">44 &#45; __Block_Inport__</text>
</g>
<!-- 4 &#45; Sum&#45;&gt;44 &#45; __Block_Inport__ -->
<g id="edge106" class="edge"><title>4 &#45; Sum&#45;&gt;44 &#45; __Block_Inport__</title>
<path fill="none" stroke="black" d="M720.824,-322.881C830.821,-313.424 1106.36,-288.747 1336,-260 1346.75,-258.654 1358.01,-257.133 1369.17,-255.554"/>
<polygon fill="black" stroke="black" points="1369.99,-258.973 1379.39,-254.09 1369,-252.044 1369.99,-258.973"/>
</g>
<!-- 5 &#45; Product -->
<g id="node6" class="node"><title>5 &#45; Product</title>
<ellipse fill="lightblue" stroke="black" cx="2280" cy="-327" rx="65.9683" ry="18.3848"/>
<text text-anchor="middle" x="2280" y="-323.4" font-family="Times Roman,serif" font-size="14.00">5 &#45; Product</text>
</g>
<!-- 21 &#45; __Block_Outport__ -->
<g id="node22" class="node"><title>21 &#45; __Block_Outport__</title>
<ellipse fill="#b94a62" stroke="black" cx="2075" cy="-241" rx="127.986" ry="18.3848"/>
<text text-anchor="middle" x="2075" y="-237.4" font-family="Times Roman,serif" font-size="14.00">21 &#45; __Block_Outport__</text>
</g>
<!-- 5 &#45; Product&#45;&gt;21 &#45; __Block_Outport__ -->
<g id="edge10" class="edge"><title>5 &#45; Product&#45;&gt;21 &#45; __Block_Outport__</title>
<path fill="none" stroke="black" d="M2242.88,-311.426C2210.25,-297.741 2162.47,-277.694 2126.21,-262.485"/>
<polygon fill="black" stroke="black" points="2127.37,-259.172 2116.79,-258.531 2124.66,-265.627 2127.37,-259.172"/>
</g>
<!-- 45 &#45; __Block_Inport__ -->
<g id="node46" class="node"><title>45 &#45; __Block_Inport__</title>
<ellipse fill="#b94a62" stroke="black" cx="2622" cy="-167" rx="118.087" ry="18.3848"/>
<text text-anchor="middle" x="2622" y="-163.4" font-family="Times Roman,serif" font-size="14.00">45 &#45; __Block_Inport__</text>
</g>
<!-- 5 &#45; Product&#45;&gt;45 &#45; __Block_Inport__ -->
<g id="edge108" class="edge"><title>5 &#45; Product&#45;&gt;45 &#45; __Block_Inport__</title>
<path fill="none" stroke="black" d="M2330.88,-315.177C2369.89,-304.623 2423.98,-286.671 2466,-260 2486.17,-247.2 2484.43,-235.698 2504,-222 2523.11,-208.623 2545.98,-197.094 2566.49,-188.096"/>
<polygon fill="black" stroke="black" points="2567.9,-191.297 2575.72,-184.143 2565.15,-184.862 2567.9,-191.297"/>
</g>
<!-- 46 &#45; __Block_Inport__ -->
<g id="node47" class="node"><title>46 &#45; __Block_Inport__</title>
<ellipse fill="#b94a62" stroke="black" cx="2631" cy="-241" rx="118.087" ry="18.3848"/>
<text text-anchor="middle" x="2631" y="-237.4" font-family="Times Roman,serif" font-size="14.00">46 &#45; __Block_Inport__</text>
</g>
<!-- 5 &#45; Product&#45;&gt;46 &#45; __Block_Inport__ -->
<g id="edge110" class="edge"><title>5 &#45; Product&#45;&gt;46 &#45; __Block_Inport__</title>
<path fill="none" stroke="black" d="M2329.92,-314.77C2389.36,-300.206 2489.16,-275.753 2557.44,-259.023"/>
<polygon fill="black" stroke="black" points="2558.4,-262.391 2567.28,-256.612 2556.73,-255.593 2558.4,-262.391"/>
</g>
<!-- 6 &#45; Sum -->
<g id="node7" class="node"><title>6 &#45; Sum</title>
<ellipse fill="lightblue" stroke="black" cx="1080" cy="-327" rx="50.2046" ry="18.3848"/>
<text text-anchor="middle" x="1080" y="-323.4" font-family="Times Roman,serif" font-size="14.00">6 &#45; Sum</text>
</g>
<!-- 22 &#45; __Block_Outport__ -->
<g id="node23" class="node"><title>22 &#45; __Block_Outport__</title>
<ellipse fill="#b94a62" stroke="black" cx="850" cy="-241" rx="126.78" ry="18.3848"/>
<text text-anchor="middle" x="850" y="-237.4" font-family="Times Roman,serif" font-size="14.00">22 &#45; __Block_Outport__</text>
</g>
<!-- 6 &#45; Sum&#45;&gt;22 &#45; __Block_Outport__ -->
<g id="edge12" class="edge"><title>6 &#45; Sum&#45;&gt;22 &#45; __Block_Outport__</title>
<path fill="none" stroke="black" d="M1044.82,-313.845C1007.85,-300.022 949.163,-278.078 905.855,-261.885"/>
<polygon fill="black" stroke="black" points="906.901,-258.539 896.308,-258.315 904.449,-265.096 906.901,-258.539"/>
</g>
<!-- 47 &#45; __Block_Inport__ -->
<g id="node48" class="node"><title>47 &#45; __Block_Inport__</title>
<ellipse fill="#b94a62" stroke="black" cx="1043" cy="-167" rx="118.794" ry="18.3848"/>
<text text-anchor="middle" x="1043" y="-163.4" font-family="Times Roman,serif" font-size="14.00">47 &#45; __Block_Inport__</text>
</g>
<!-- 6 &#45; Sum&#45;&gt;47 &#45; __Block_Inport__ -->
<g id="edge112" class="edge"><title>6 &#45; Sum&#45;&gt;47 &#45; __Block_Inport__</title>
<path fill="none" stroke="black" d="M1074.73,-308.592C1070.97,-295.174 1065.9,-276.528 1062,-260 1056.91,-238.449 1051.93,-213.899 1048.34,-195.436"/>
<polygon fill="black" stroke="black" points="1051.78,-194.761 1046.45,-185.6 1044.9,-196.081 1051.78,-194.761"/>
</g>
<!-- 48 &#45; __Block_Inport__ -->
<g id="node49" class="node"><title>48 &#45; __Block_Inport__</title>
<ellipse fill="#b94a62" stroke="black" cx="1801" cy="-93" rx="118.087" ry="18.3848"/>
<text text-anchor="middle" x="1801" y="-89.4" font-family="Times Roman,serif" font-size="14.00">48 &#45; __Block_Inport__</text>
</g>
<!-- 6 &#45; Sum&#45;&gt;48 &#45; __Block_Inport__ -->
<g id="edge114" class="edge"><title>6 &#45; Sum&#45;&gt;48 &#45; __Block_Inport__</title>
<path fill="none" stroke="black" d="M1114.98,-313.743C1133.21,-307.367 1156.03,-300.211 1177,-296 1357.65,-259.731 1418.77,-328.04 1590,-260 1668.83,-228.674 1741.99,-157.766 1777.86,-119.189"/>
<polygon fill="black" stroke="black" points="1780.76,-121.209 1784.94,-111.474 1775.6,-116.477 1780.76,-121.209"/>
</g>
<!-- 7 &#45; SubSystem -->
<g id="node8" class="node"><title>7 &#45; SubSystem</title>
<ellipse fill="lightgreen" stroke="black" cx="1569" cy="-487" rx="85.0596" ry="18.3848"/>
<text text-anchor="middle" x="1569" y="-483.4" font-family="Times Roman,serif" font-size="14.00">7 &#45; SubSystem</text>
</g>
<!-- 32 &#45; __Contains__ -->
<g id="node33" class="node"><title>32 &#45; __Contains__</title>
<ellipse fill="lightgray" stroke="black" cx="2587" cy="-413" rx="98.9949" ry="18.3848"/>
<text text-anchor="middle" x="2587" y="-409.4" font-family="Times Roman,serif" font-size="14.00">32 &#45; __Contains__</text>
</g>
<!-- 7 &#45; SubSystem&#45;&gt;32 &#45; __Contains__ -->
<g id="edge14" class="edge"><title>7 &#45; SubSystem&#45;&gt;32 &#45; __Contains__</title>
<path fill="none" stroke="black" d="M1651.95,-482.931C1804.01,-475.181 2137.54,-456.836 2418,-432 2442.56,-429.825 2469.07,-427.048 2493.66,-424.293"/>
<polygon fill="black" stroke="black" points="2494.16,-427.759 2503.7,-423.157 2493.37,-420.803 2494.16,-427.759"/>
</g>
<!-- 33 &#45; __Contains__ -->
<g id="node34" class="node"><title>33 &#45; __Contains__</title>
<ellipse fill="lightgray" stroke="black" cx="1971" cy="-413" rx="98.9949" ry="18.3848"/>
<text text-anchor="middle" x="1971" y="-409.4" font-family="Times Roman,serif" font-size="14.00">33 &#45; __Contains__</text>
</g>
<!-- 7 &#45; SubSystem&#45;&gt;33 &#45; __Contains__ -->
<g id="edge16" class="edge"><title>7 &#45; SubSystem&#45;&gt;33 &#45; __Contains__</title>
<path fill="none" stroke="black" d="M1634.04,-475.028C1703.9,-462.168 1815.01,-441.714 1890.38,-427.841"/>
<polygon fill="black" stroke="black" points="1891.1,-431.266 1900.31,-426.013 1889.84,-424.382 1891.1,-431.266"/>
</g>
<!-- 34 &#45; __Contains__ -->
<g id="node35" class="node"><title>34 &#45; __Contains__</title>
<ellipse fill="lightgray" stroke="black" cx="1166" cy="-413" rx="98.9949" ry="18.3848"/>
<text text-anchor="middle" x="1166" y="-409.4" font-family="Times Roman,serif" font-size="14.00">34 &#45; __Contains__</text>
</g>
<!-- 7 &#45; SubSystem&#45;&gt;34 &#45; __Contains__ -->
<g id="edge18" class="edge"><title>7 &#45; SubSystem&#45;&gt;34 &#45; __Contains__</title>
<path fill="none" stroke="black" d="M1503.8,-475.028C1433.77,-462.168 1322.38,-441.714 1246.82,-427.841"/>
<polygon fill="black" stroke="black" points="1247.34,-424.377 1236.87,-426.013 1246.07,-431.262 1247.34,-424.377"/>
</g>
<!-- 35 &#45; __Contains__ -->
<g id="node36" class="node"><title>35 &#45; __Contains__</title>
<ellipse fill="lightgray" stroke="black" cx="632" cy="-413" rx="98.9949" ry="18.3848"/>
<text text-anchor="middle" x="632" y="-409.4" font-family="Times Roman,serif" font-size="14.00">35 &#45; __Contains__</text>
</g>
<!-- 7 &#45; SubSystem&#45;&gt;35 &#45; __Contains__ -->
<g id="edge28" class="edge"><title>7 &#45; SubSystem&#45;&gt;35 &#45; __Contains__</title>
<path fill="none" stroke="black" d="M1487,-482.028C1347.44,-473.353 1054.87,-454.24 808,-432 781.537,-429.616 752.875,-426.675 726.517,-423.826"/>
<polygon fill="black" stroke="black" points="726.857,-420.342 716.537,-422.739 726.1,-427.301 726.857,-420.342"/>
</g>
<!-- 36 &#45; __Contains__ -->
<g id="node37" class="node"><title>36 &#45; __Contains__</title>
<ellipse fill="lightgray" stroke="black" cx="1693" cy="-413" rx="98.9949" ry="18.3848"/>
<text text-anchor="middle" x="1693" y="-409.4" font-family="Times Roman,serif" font-size="14.00">36 &#45; __Contains__</text>
</g>
<!-- 7 &#45; SubSystem&#45;&gt;36 &#45; __Contains__ -->
<g id="edge26" class="edge"><title>7 &#45; SubSystem&#45;&gt;36 &#45; __Contains__</title>
<path fill="none" stroke="black" d="M1598.39,-469.463C1615.25,-459.399 1636.61,-446.65 1654.77,-435.813"/>
<polygon fill="black" stroke="black" points="1656.6,-438.798 1663.39,-430.668 1653.01,-432.787 1656.6,-438.798"/>
</g>
<!-- 37 &#45; __Contains__ -->
<g id="node38" class="node"><title>37 &#45; __Contains__</title>
<ellipse fill="lightgray" stroke="black" cx="1445" cy="-413" rx="99.201" ry="18.3848"/>
<text text-anchor="middle" x="1445" y="-409.4" font-family="Times Roman,serif" font-size="14.00">37 &#45; __Contains__</text>
</g>
<!-- 7 &#45; SubSystem&#45;&gt;37 &#45; __Contains__ -->
<g id="edge24" class="edge"><title>7 &#45; SubSystem&#45;&gt;37 &#45; __Contains__</title>
<path fill="none" stroke="black" d="M1539.61,-469.463C1522.75,-459.399 1501.39,-446.65 1483.23,-435.813"/>
<polygon fill="black" stroke="black" points="1484.99,-432.787 1474.61,-430.668 1481.4,-438.798 1484.99,-432.787"/>
</g>
<!-- 38 &#45; __Contains__ -->
<g id="node39" class="node"><title>38 &#45; __Contains__</title>
<ellipse fill="lightgray" stroke="black" cx="916" cy="-413" rx="98.9949" ry="18.3848"/>
<text text-anchor="middle" x="916" y="-409.4" font-family="Times Roman,serif" font-size="14.00">38 &#45; __Contains__</text>
</g>
<!-- 7 &#45; SubSystem&#45;&gt;38 &#45; __Contains__ -->
<g id="edge22" class="edge"><title>7 &#45; SubSystem&#45;&gt;38 &#45; __Contains__</title>
<path fill="none" stroke="black" d="M1491.45,-479.281C1391.26,-469.165 1211.47,-450.524 1058,-432 1041.07,-429.957 1023.03,-427.646 1005.68,-425.357"/>
<polygon fill="black" stroke="black" points="1005.94,-421.86 995.563,-424.014 1005.02,-428.799 1005.94,-421.86"/>
</g>
<!-- 39 &#45; __Contains__ -->
<g id="node40" class="node"><title>39 &#45; __Contains__</title>
<ellipse fill="lightgray" stroke="black" cx="2310" cy="-413" rx="98.9949" ry="18.3848"/>
<text text-anchor="middle" x="2310" y="-409.4" font-family="Times Roman,serif" font-size="14.00">39 &#45; __Contains__</text>
</g>
<!-- 7 &#45; SubSystem&#45;&gt;39 &#45; __Contains__ -->
<g id="edge20" class="edge"><title>7 &#45; SubSystem&#45;&gt;39 &#45; __Contains__</title>
<path fill="none" stroke="black" d="M1646.55,-479.255C1782.51,-465.678 2063.55,-437.611 2212.47,-422.74"/>
<polygon fill="black" stroke="black" points="2212.92,-426.213 2222.52,-421.736 2212.22,-419.248 2212.92,-426.213"/>
</g>
<!-- 8 &#45; Inport -->
<g id="node9" class="node"><title>8 &#45; Inport</title>
<ellipse fill="#eedd82" stroke="black" cx="2492" cy="-327" rx="57.9828" ry="18.3848"/>
<text text-anchor="middle" x="2492" y="-323.4" font-family="Times Roman,serif" font-size="14.00">8 &#45; Inport</text>
</g>
<!-- 20 &#45; __Block_Outport__ -->
<g id="node21" class="node"><title>20 &#45; __Block_Outport__</title>
<ellipse fill="#b94a62" stroke="black" cx="2893" cy="-241" rx="126.072" ry="18.3848"/>
<text text-anchor="middle" x="2893" y="-237.4" font-family="Times Roman,serif" font-size="14.00">20 &#45; __Block_Outport__</text>
</g>
<!-- 8 &#45; Inport&#45;&gt;20 &#45; __Block_Outport__ -->
<g id="edge30" class="edge"><title>8 &#45; Inport&#45;&gt;20 &#45; __Block_Outport__</title>
<path fill="none" stroke="black" d="M2532.08,-313.37C2550.23,-307.509 2572.05,-300.896 2592,-296 2659.06,-279.542 2735.62,-265.618 2794.74,-255.897"/>
<polygon fill="black" stroke="black" points="2795.52,-259.317 2804.82,-254.253 2794.39,-252.409 2795.52,-259.317"/>
</g>
<!-- 9 &#45; Port_Output -->
<g id="node10" class="node"><title>9 &#45; Port_Output</title>
<ellipse fill="coral" stroke="black" cx="2034" cy="-167" rx="87.889" ry="18.3848"/>
<text text-anchor="middle" x="2034" y="-163.4" font-family="Times Roman,serif" font-size="14.00">9 &#45; Port_Output</text>
</g>
<!-- 52 &#45; __Relation__ -->
<g id="node53" class="node"><title>52 &#45; __Relation__</title>
<ellipse fill="#f78465" stroke="black" cx="2246" cy="-93" rx="96.8736" ry="18.3848"/>
<text text-anchor="middle" x="2246" y="-89.4" font-family="Times Roman,serif" font-size="14.00">52 &#45; __Relation__</text>
</g>
<!-- 9 &#45; Port_Output&#45;&gt;52 &#45; __Relation__ -->
<g id="edge34" class="edge"><title>9 &#45; Port_Output&#45;&gt;52 &#45; __Relation__</title>
<path fill="none" stroke="black" d="M2079.48,-151.125C2111.73,-139.868 2155.22,-124.687 2189.67,-112.662"/>
<polygon fill="black" stroke="black" points="2190.84,-115.961 2199.13,-109.361 2188.53,-109.352 2190.84,-115.961"/>
</g>
<!-- 53 &#45; __Relation__ -->
<g id="node54" class="node"><title>53 &#45; __Relation__</title>
<ellipse fill="#f78465" stroke="black" cx="2034" cy="-93" rx="96.8736" ry="18.3848"/>
<text text-anchor="middle" x="2034" y="-89.4" font-family="Times Roman,serif" font-size="14.00">53 &#45; __Relation__</text>
</g>
<!-- 9 &#45; Port_Output&#45;&gt;53 &#45; __Relation__ -->
<g id="edge32" class="edge"><title>9 &#45; Port_Output&#45;&gt;53 &#45; __Relation__</title>
<path fill="none" stroke="black" d="M2034,-148.327C2034,-140.264 2034,-130.648 2034,-121.711"/>
<polygon fill="black" stroke="black" points="2037.5,-121.667 2034,-111.667 2030.5,-121.667 2037.5,-121.667"/>
</g>
<!-- 10 &#45; Port_Output -->
<g id="node11" class="node"><title>10 &#45; Port_Output</title>
<ellipse fill="coral" stroke="black" cx="1275" cy="-167" rx="94.7523" ry="18.3848"/>
<text text-anchor="middle" x="1275" y="-163.4" font-family="Times Roman,serif" font-size="14.00">10 &#45; Port_Output</text>
</g>
<!-- 55 &#45; __Relation__ -->
<g id="node56" class="node"><title>55 &#45; __Relation__</title>
<ellipse fill="#f78465" stroke="black" cx="1062" cy="-93" rx="96.8736" ry="18.3848"/>
<text text-anchor="middle" x="1062" y="-89.4" font-family="Times Roman,serif" font-size="14.00">55 &#45; __Relation__</text>
</g>
<!-- 10 &#45; Port_Output&#45;&gt;55 &#45; __Relation__ -->
<g id="edge38" class="edge"><title>10 &#45; Port_Output&#45;&gt;55 &#45; __Relation__</title>
<path fill="none" stroke="black" d="M1228.52,-150.852C1196.21,-139.627 1152.96,-124.601 1118.63,-112.676"/>
<polygon fill="black" stroke="black" points="1119.34,-109.217 1108.75,-109.241 1117.05,-115.829 1119.34,-109.217"/>
</g>
<!-- 56 &#45; __Relation__ -->
<g id="node57" class="node"><title>56 &#45; __Relation__</title>
<ellipse fill="#f78465" stroke="black" cx="1274" cy="-93" rx="96.8736" ry="18.3848"/>
<text text-anchor="middle" x="1274" y="-89.4" font-family="Times Roman,serif" font-size="14.00">56 &#45; __Relation__</text>
</g>
<!-- 10 &#45; Port_Output&#45;&gt;56 &#45; __Relation__ -->
<g id="edge36" class="edge"><title>10 &#45; Port_Output&#45;&gt;56 &#45; __Relation__</title>
<path fill="none" stroke="black" d="M1274.75,-148.327C1274.64,-140.264 1274.51,-130.648 1274.39,-121.711"/>
<polygon fill="black" stroke="black" points="1277.89,-121.619 1274.25,-111.667 1270.89,-121.714 1277.89,-121.619"/>
</g>
<!-- 11 &#45; Port_Output -->
<g id="node12" class="node"><title>11 &#45; Port_Output</title>
<ellipse fill="coral" stroke="black" cx="3149" cy="-167" rx="96.1665" ry="18.3848"/>
<text text-anchor="middle" x="3149" y="-163.4" font-family="Times Roman,serif" font-size="14.00">11 &#45; Port_Output</text>
</g>
<!-- 50 &#45; __Relation__ -->
<g id="node51" class="node"><title>50 &#45; __Relation__</title>
<ellipse fill="#f78465" stroke="black" cx="3120" cy="-93" rx="96.8736" ry="18.3848"/>
<text text-anchor="middle" x="3120" y="-89.4" font-family="Times Roman,serif" font-size="14.00">50 &#45; __Relation__</text>
</g>
<!-- 11 &#45; Port_Output&#45;&gt;50 &#45; __Relation__ -->
<g id="edge40" class="edge"><title>11 &#45; Port_Output&#45;&gt;50 &#45; __Relation__</title>
<path fill="none" stroke="black" d="M3141.68,-148.327C3138.45,-140.089 3134.59,-130.229 3131.02,-121.13"/>
<polygon fill="black" stroke="black" points="3134.22,-119.701 3127.32,-111.667 3127.71,-122.255 3134.22,-119.701"/>
</g>
<!-- 12 &#45; Port_Output -->
<g id="node13" class="node"><title>12 &#45; Port_Output</title>
<ellipse fill="coral" stroke="black" cx="349" cy="-167" rx="94.9596" ry="18.3848"/>
<text text-anchor="middle" x="349" y="-163.4" font-family="Times Roman,serif" font-size="14.00">12 &#45; Port_Output</text>
</g>
<!-- 51 &#45; __Relation__ -->
<g id="node52" class="node"><title>51 &#45; __Relation__</title>
<ellipse fill="#f78465" stroke="black" cx="323" cy="-93" rx="97.0803" ry="18.3848"/>
<text text-anchor="middle" x="323" y="-89.4" font-family="Times Roman,serif" font-size="14.00">51 &#45; __Relation__</text>
</g>
<!-- 12 &#45; Port_Output&#45;&gt;51 &#45; __Relation__ -->
<g id="edge42" class="edge"><title>12 &#45; Port_Output&#45;&gt;51 &#45; __Relation__</title>
<path fill="none" stroke="black" d="M342.439,-148.327C339.545,-140.089 336.08,-130.229 332.883,-121.13"/>
<polygon fill="black" stroke="black" points="336.176,-119.942 329.559,-111.667 329.572,-122.262 336.176,-119.942"/>
</g>
<!-- 13 &#45; Port_Output -->
<g id="node14" class="node"><title>13 &#45; Port_Output</title>
<ellipse fill="coral" stroke="black" cx="2893" cy="-167" rx="94.7523" ry="18.3848"/>
<text text-anchor="middle" x="2893" y="-163.4" font-family="Times Roman,serif" font-size="14.00">13 &#45; Port_Output</text>
</g>
<!-- 54 &#45; __Relation__ -->
<g id="node55" class="node"><title>54 &#45; __Relation__</title>
<ellipse fill="#f78465" stroke="black" cx="2893" cy="-93" rx="96.8736" ry="18.3848"/>
<text text-anchor="middle" x="2893" y="-89.4" font-family="Times Roman,serif" font-size="14.00">54 &#45; __Relation__</text>
</g>
<!-- 13 &#45; Port_Output&#45;&gt;54 &#45; __Relation__ -->
<g id="edge44" class="edge"><title>13 &#45; Port_Output&#45;&gt;54 &#45; __Relation__</title>
<path fill="none" stroke="black" d="M2893,-148.327C2893,-140.264 2893,-130.648 2893,-121.711"/>
<polygon fill="black" stroke="black" points="2896.5,-121.667 2893,-111.667 2889.5,-121.667 2896.5,-121.667"/>
</g>
<!-- 14 &#45; Port_Output -->
<g id="node15" class="node"><title>14 &#45; Port_Output</title>
<ellipse fill="coral" stroke="black" cx="2294" cy="-167" rx="94.9596" ry="18.3848"/>
<text text-anchor="middle" x="2294" y="-163.4" font-family="Times Roman,serif" font-size="14.00">14 &#45; Port_Output</text>
</g>
<!-- 49 &#45; __Relation__ -->
<g id="node50" class="node"><title>49 &#45; __Relation__</title>
<ellipse fill="#f78465" stroke="black" cx="2458" cy="-93" rx="96.8736" ry="18.3848"/>
<text text-anchor="middle" x="2458" y="-89.4" font-family="Times Roman,serif" font-size="14.00">49 &#45; __Relation__</text>
</g>
<!-- 14 &#45; Port_Output&#45;&gt;49 &#45; __Relation__ -->
<g id="edge46" class="edge"><title>14 &#45; Port_Output&#45;&gt;49 &#45; __Relation__</title>
<path fill="none" stroke="black" d="M2332.04,-149.837C2355.53,-139.236 2385.86,-125.551 2410.87,-114.266"/>
<polygon fill="black" stroke="black" points="2412.49,-117.373 2420.17,-110.07 2409.61,-110.993 2412.49,-117.373"/>
</g>
<!-- 15 &#45; Port_Output -->
<g id="node16" class="node"><title>15 &#45; Port_Output</title>
<ellipse fill="coral" stroke="black" cx="811" cy="-167" rx="94.9596" ry="18.3848"/>
<text text-anchor="middle" x="811" y="-163.4" font-family="Times Roman,serif" font-size="14.00">15 &#45; Port_Output</text>
</g>
<!-- 57 &#45; __Relation__ -->
<g id="node58" class="node"><title>57 &#45; __Relation__</title>
<ellipse fill="#f78465" stroke="black" cx="780" cy="-93" rx="97.0803" ry="18.3848"/>
<text text-anchor="middle" x="780" y="-89.4" font-family="Times Roman,serif" font-size="14.00">57 &#45; __Relation__</text>
</g>
<!-- 15 &#45; Port_Output&#45;&gt;57 &#45; __Relation__ -->
<g id="edge48" class="edge"><title>15 &#45; Port_Output&#45;&gt;57 &#45; __Relation__</title>
<path fill="none" stroke="black" d="M803.177,-148.327C799.726,-140.089 795.596,-130.229 791.784,-121.13"/>
<polygon fill="black" stroke="black" points="794.912,-119.538 787.82,-111.667 788.456,-122.243 794.912,-119.538"/>
</g>
<!-- 16 &#45; __Block_Outport__&#45;&gt;9 &#45; Port_Output -->
<g id="edge50" class="edge"><title>16 &#45; __Block_Outport__&#45;&gt;9 &#45; Port_Output</title>
<path fill="none" stroke="black" d="M1854.93,-224.116C1890.9,-212.642 1938.5,-197.462 1975.58,-185.635"/>
<polygon fill="black" stroke="black" points="1976.79,-188.923 1985.25,-182.55 1974.66,-182.254 1976.79,-188.923"/>
</g>
<!-- 17 &#45; __Block_Outport__&#45;&gt;10 &#45; Port_Output -->
<g id="edge52" class="edge"><title>17 &#45; __Block_Outport__&#45;&gt;10 &#45; Port_Output</title>
<path fill="none" stroke="black" d="M1218.18,-222.327C1227.5,-213.251 1238.84,-202.207 1248.93,-192.38"/>
<polygon fill="black" stroke="black" points="1251.63,-194.64 1256.35,-185.156 1246.75,-189.624 1251.63,-194.64"/>
</g>
<!-- 18 &#45; __Block_Outport__&#45;&gt;11 &#45; Port_Output -->
<g id="edge54" class="edge"><title>18 &#45; __Block_Outport__&#45;&gt;11 &#45; Port_Output</title>
<path fill="none" stroke="black" d="M3160.21,-222.327C3158.58,-214.264 3156.63,-204.648 3154.82,-195.711"/>
<polygon fill="black" stroke="black" points="3158.2,-194.773 3152.78,-185.667 3151.34,-196.163 3158.2,-194.773"/>
</g>
<!-- 19 &#45; __Block_Outport__&#45;&gt;12 &#45; Port_Output -->
<g id="edge56" class="edge"><title>19 &#45; __Block_Outport__&#45;&gt;12 &#45; Port_Output</title>
<path fill="none" stroke="black" d="M399.093,-222.327C391.018,-213.408 381.221,-202.588 372.441,-192.89"/>
<polygon fill="black" stroke="black" points="374.976,-190.475 365.669,-185.411 369.787,-195.173 374.976,-190.475"/>
</g>
<!-- 20 &#45; __Block_Outport__&#45;&gt;13 &#45; Port_Output -->
<g id="edge58" class="edge"><title>20 &#45; __Block_Outport__&#45;&gt;13 &#45; Port_Output</title>
<path fill="none" stroke="black" d="M2893,-222.327C2893,-214.264 2893,-204.648 2893,-195.711"/>
<polygon fill="black" stroke="black" points="2896.5,-195.667 2893,-185.667 2889.5,-195.667 2896.5,-195.667"/>
</g>
<!-- 21 &#45; __Block_Outport__&#45;&gt;14 &#45; Port_Output -->
<g id="edge60" class="edge"><title>21 &#45; __Block_Outport__&#45;&gt;14 &#45; Port_Output</title>
<path fill="none" stroke="black" d="M2125.52,-223.93C2158.77,-212.694 2202.37,-197.962 2236.88,-186.299"/>
<polygon fill="black" stroke="black" points="2238.01,-189.614 2246.36,-183.097 2235.77,-182.982 2238.01,-189.614"/>
</g>
<!-- 22 &#45; __Block_Outport__&#45;&gt;15 &#45; Port_Output -->
<g id="edge62" class="edge"><title>22 &#45; __Block_Outport__&#45;&gt;15 &#45; Port_Output</title>
<path fill="none" stroke="black" d="M840.159,-222.327C835.691,-213.849 830.318,-203.654 825.408,-194.338"/>
<polygon fill="black" stroke="black" points="828.462,-192.626 820.703,-185.411 822.269,-195.889 828.462,-192.626"/>
</g>
<!-- 23 &#45; Port_Input -->
<g id="node24" class="node"><title>23 &#45; Port_Input</title>
<ellipse fill="lightyellow" stroke="black" cx="234" cy="-19" rx="85.0596" ry="18.3848"/>
<text text-anchor="middle" x="234" y="-15.4" font-family="Times Roman,serif" font-size="14.00">23 &#45; Port_Input</text>
</g>
<!-- 24 &#45; Port_Input -->
<g id="node25" class="node"><title>24 &#45; Port_Input</title>
<ellipse fill="lightyellow" stroke="black" cx="1404" cy="-19" rx="85.7684" ry="18.3848"/>
<text text-anchor="middle" x="1404" y="-15.4" font-family="Times Roman,serif" font-size="14.00">24 &#45; Port_Input</text>
</g>
<!-- 25 &#45; Port_Input -->
<g id="node26" class="node"><title>25 &#45; Port_Input</title>
<ellipse fill="lightyellow" stroke="black" cx="2670" cy="-19" rx="85.7684" ry="18.3848"/>
<text text-anchor="middle" x="2670" y="-15.4" font-family="Times Roman,serif" font-size="14.00">25 &#45; Port_Input</text>
</g>
<!-- 26 &#45; Port_Input -->
<g id="node27" class="node"><title>26 &#45; Port_Input</title>
<ellipse fill="lightyellow" stroke="black" cx="731" cy="-19" rx="85.0596" ry="18.3848"/>
<text text-anchor="middle" x="731" y="-15.4" font-family="Times Roman,serif" font-size="14.00">26 &#45; Port_Input</text>
</g>
<!-- 27 &#45; Port_Input -->
<g id="node28" class="node"><title>27 &#45; Port_Input</title>
<ellipse fill="lightyellow" stroke="black" cx="1724" cy="-19" rx="85.7684" ry="18.3848"/>
<text text-anchor="middle" x="1724" y="-15.4" font-family="Times Roman,serif" font-size="14.00">27 &#45; Port_Input</text>
</g>
<!-- 28 &#45; Port_Input -->
<g id="node29" class="node"><title>28 &#45; Port_Input</title>
<ellipse fill="lightyellow" stroke="black" cx="2363" cy="-19" rx="85.0596" ry="18.3848"/>
<text text-anchor="middle" x="2363" y="-15.4" font-family="Times Roman,serif" font-size="14.00">28 &#45; Port_Input</text>
</g>
<!-- 29 &#45; Port_Input -->
<g id="node30" class="node"><title>29 &#45; Port_Input</title>
<ellipse fill="lightyellow" stroke="black" cx="3033" cy="-19" rx="85.0596" ry="18.3848"/>
<text text-anchor="middle" x="3033" y="-15.4" font-family="Times Roman,serif" font-size="14.00">29 &#45; Port_Input</text>
</g>
<!-- 30 &#45; Port_Input -->
<g id="node31" class="node"><title>30 &#45; Port_Input</title>
<ellipse fill="lightyellow" stroke="black" cx="985" cy="-19" rx="84.8528" ry="18.3848"/>
<text text-anchor="middle" x="985" y="-15.4" font-family="Times Roman,serif" font-size="14.00">30 &#45; Port_Input</text>
</g>
<!-- 31 &#45; Port_Input -->
<g id="node32" class="node"><title>31 &#45; Port_Input</title>
<ellipse fill="lightyellow" stroke="black" cx="1987" cy="-19" rx="85.7684" ry="18.3848"/>
<text text-anchor="middle" x="1987" y="-15.4" font-family="Times Roman,serif" font-size="14.00">31 &#45; Port_Input</text>
</g>
<!-- 32 &#45; __Contains__&#45;&gt;3 &#45; Constant\n Value = 1.0 -->
<g id="edge82" class="edge"><title>32 &#45; __Contains__&#45;&gt;3 &#45; Constant\n Value = 1.0</title>
<path fill="none" stroke="black" d="M2605.45,-394.762C2614.86,-385.459 2626.64,-373.811 2637.77,-362.809"/>
<polygon fill="black" stroke="black" points="2640.31,-365.223 2644.96,-355.704 2635.39,-360.245 2640.31,-365.223"/>
</g>
<!-- 33 &#45; __Contains__&#45;&gt;5 &#45; Product -->
<g id="edge84" class="edge"><title>33 &#45; __Contains__&#45;&gt;5 &#45; Product</title>
<path fill="none" stroke="black" d="M2026.24,-397.625C2081.76,-382.174 2166.92,-358.472 2223.04,-342.853"/>
<polygon fill="black" stroke="black" points="2224.12,-346.184 2232.82,-340.131 2222.25,-339.44 2224.12,-346.184"/>
</g>
<!-- 34 &#45; __Contains__&#45;&gt;6 &#45; Sum -->
<g id="edge86" class="edge"><title>34 &#45; __Contains__&#45;&gt;6 &#45; Sum</title>
<path fill="none" stroke="black" d="M1147.76,-394.762C1135.28,-382.281 1118.58,-365.579 1104.88,-351.88"/>
<polygon fill="black" stroke="black" points="1107.17,-349.22 1097.62,-344.624 1102.22,-354.17 1107.17,-349.22"/>
</g>
<!-- 35 &#45; __Contains__&#45;&gt;0 &#45; Outport -->
<g id="edge88" class="edge"><title>35 &#45; __Contains__&#45;&gt;0 &#45; Outport</title>
<path fill="none" stroke="black" d="M604.028,-395.181C583.301,-381.977 554.897,-363.882 532.558,-349.652"/>
<polygon fill="black" stroke="black" points="534.33,-346.631 524.015,-344.21 530.569,-352.534 534.33,-346.631"/>
</g>
<!-- 36 &#45; __Contains__&#45;&gt;1 &#45; Product -->
<g id="edge90" class="edge"><title>36 &#45; __Contains__&#45;&gt;1 &#45; Product</title>
<path fill="none" stroke="black" d="M1699.73,-394.339C1703.83,-382.957 1709.16,-368.182 1713.77,-355.373"/>
<polygon fill="black" stroke="black" points="1717.19,-356.219 1717.29,-345.624 1710.6,-353.845 1717.19,-356.219"/>
</g>
<!-- 37 &#45; __Contains__&#45;&gt;2 &#45; Constant\n Value = 12.34 -->
<g id="edge92" class="edge"><title>37 &#45; __Contains__&#45;&gt;2 &#45; Constant\n Value = 12.34</title>
<path fill="none" stroke="black" d="M1409.99,-395.597C1387.56,-384.445 1357.86,-369.682 1331.76,-356.709"/>
<polygon fill="black" stroke="black" points="1333.21,-353.521 1322.7,-352.204 1330.1,-359.789 1333.21,-353.521"/>
</g>
<!-- 38 &#45; __Contains__&#45;&gt;4 &#45; Sum -->
<g id="edge94" class="edge"><title>38 &#45; __Contains__&#45;&gt;4 &#45; Sum</title>
<path fill="none" stroke="black" d="M869.531,-396.622C825.953,-381.262 761.179,-358.432 717.814,-343.148"/>
<polygon fill="black" stroke="black" points="718.956,-339.839 708.361,-339.816 716.629,-346.441 718.956,-339.839"/>
</g>
<!-- 39 &#45; __Contains__&#45;&gt;8 &#45; Inport -->
<g id="edge96" class="edge"><title>39 &#45; __Contains__&#45;&gt;8 &#45; Inport</title>
<path fill="none" stroke="black" d="M2346.83,-395.597C2376.76,-381.452 2418.99,-361.498 2450.19,-346.755"/>
<polygon fill="black" stroke="black" points="2451.95,-349.796 2459.49,-342.36 2448.96,-343.467 2451.95,-349.796"/>
</g>
<!-- 40 &#45; __Block_Inport__&#45;&gt;23 &#45; Port_Input -->
<g id="edge64" class="edge"><title>40 &#45; __Block_Inport__&#45;&gt;23 &#45; Port_Input</title>
<path fill="none" stroke="black" d="M132.457,-148.555C152.775,-122.631 189.895,-75.2723 213.184,-45.5581"/>
<polygon fill="black" stroke="black" points="215.947,-47.7072 219.361,-37.6775 210.437,-43.389 215.947,-47.7072"/>
</g>
<!-- 41 &#45; __Block_Inport__&#45;&gt;24 &#45; Port_Input -->
<g id="edge66" class="edge"><title>41 &#45; __Block_Inport__&#45;&gt;24 &#45; Port_Input</title>
<path fill="none" stroke="black" d="M1511.63,-75.0867C1491.89,-64.8028 1466.96,-51.8099 1446.06,-40.9197"/>
<polygon fill="black" stroke="black" points="1447.57,-37.7564 1437.08,-36.2388 1444.33,-43.9641 1447.57,-37.7564"/>
</g>
<!-- 42 &#45; __Block_Inport__&#45;&gt;25 &#45; Port_Input -->
<g id="edge68" class="edge"><title>42 &#45; __Block_Inport__&#45;&gt;25 &#45; Port_Input</title>
<path fill="none" stroke="black" d="M2368.04,-223.017C2399.15,-203.908 2450.13,-173.056 2495,-148 2525.2,-131.137 2535.46,-131.546 2564,-112 2593.55,-91.7597 2623.95,-64.2779 2644.57,-44.4431"/>
<polygon fill="black" stroke="black" points="2647.24,-46.7266 2651.97,-37.2467 2642.36,-41.7072 2647.24,-46.7266"/>
</g>
<!-- 43 &#45; __Block_Inport__&#45;&gt;26 &#45; Port_Input -->
<g id="edge70" class="edge"><title>43 &#45; __Block_Inport__&#45;&gt;26 &#45; Port_Input</title>
<path fill="none" stroke="black" d="M598.659,-148.404C617.577,-129.58 647.728,-99.6695 674,-74 683.934,-64.2936 694.902,-53.6851 704.542,-44.3972"/>
<polygon fill="black" stroke="black" points="707.165,-46.7305 711.942,-37.2741 702.31,-41.687 707.165,-46.7305"/>
</g>
<!-- 44 &#45; __Block_Inport__&#45;&gt;27 &#45; Port_Input -->
<g id="edge72" class="edge"><title>44 &#45; __Block_Inport__&#45;&gt;27 &#45; Port_Input</title>
<path fill="none" stroke="black" d="M1448.46,-222.415C1424.14,-188.93 1381.3,-117.88 1418,-74 1444.61,-42.1845 1549.54,-28.7469 1629.17,-23.0877"/>
<polygon fill="black" stroke="black" points="1629.5,-26.5734 1639.24,-22.4034 1629.03,-19.5895 1629.5,-26.5734"/>
</g>
<!-- 45 &#45; __Block_Inport__&#45;&gt;28 &#45; Port_Input -->
<g id="edge74" class="edge"><title>45 &#45; __Block_Inport__&#45;&gt;28 &#45; Port_Input</title>
<path fill="none" stroke="black" d="M2615.24,-148.356C2606.61,-127.179 2589.64,-93.0943 2564,-74 2543.71,-58.888 2485.59,-43.8717 2437.04,-33.3572"/>
<polygon fill="black" stroke="black" points="2437.67,-29.9123 2427.16,-31.2497 2436.21,-36.7583 2437.67,-29.9123"/>
</g>
<!-- 46 &#45; __Block_Inport__&#45;&gt;29 &#45; Port_Input -->
<g id="edge76" class="edge"><title>46 &#45; __Block_Inport__&#45;&gt;29 &#45; Port_Input</title>
<path fill="none" stroke="black" d="M2688.89,-224.733C2710.24,-216.217 2733.08,-203.755 2749,-186 2784.09,-146.86 2747.89,-109.125 2787,-74 2810.59,-52.8084 2886.32,-37.9833 2947.59,-29.1083"/>
<polygon fill="black" stroke="black" points="2948.26,-32.5477 2957.67,-27.6813 2947.28,-25.6167 2948.26,-32.5477"/>
</g>
<!-- 47 &#45; __Block_Inport__&#45;&gt;30 &#45; Port_Input -->
<g id="edge78" class="edge"><title>47 &#45; __Block_Inport__&#45;&gt;30 &#45; Port_Input</title>
<path fill="none" stroke="black" d="M998.267,-149.813C981.938,-141.103 965.226,-128.747 956,-112 944.517,-91.1551 954.419,-65.1273 965.667,-45.9122"/>
<polygon fill="black" stroke="black" points="968.692,-47.6762 971.033,-37.3432 962.759,-43.9613 968.692,-47.6762"/>
</g>
<!-- 48 &#45; __Block_Inport__&#45;&gt;31 &#45; Port_Input -->
<g id="edge80" class="edge"><title>48 &#45; __Block_Inport__&#45;&gt;31 &#45; Port_Input</title>
<path fill="none" stroke="black" d="M1844.61,-75.6503C1872.1,-64.7119 1907.71,-50.5456 1936.44,-39.1158"/>
<polygon fill="black" stroke="black" points="1937.9,-42.3019 1945.9,-35.3531 1935.31,-35.7977 1937.9,-42.3019"/>
</g>
<!-- 49 &#45; __Relation__&#45;&gt;31 &#45; Port_Input -->
<g id="edge116" class="edge"><title>49 &#45; __Relation__&#45;&gt;31 &#45; Port_Input</title>
<path fill="none" stroke="black" d="M2387.92,-80.154C2375.94,-78.0408 2363.62,-75.9168 2352,-74 2254.92,-57.9892 2143.01,-41.4008 2068.97,-30.6861"/>
<polygon fill="black" stroke="black" points="2069.17,-27.1798 2058.77,-29.2139 2068.17,-34.1079 2069.17,-27.1798"/>
</g>
<!-- 50 &#45; __Relation__&#45;&gt;29 &#45; Port_Input -->
<g id="edge118" class="edge"><title>50 &#45; __Relation__&#45;&gt;29 &#45; Port_Input</title>
<path fill="none" stroke="black" d="M3098.49,-74.7079C3087.54,-65.3882 3074.05,-53.9196 3062.18,-43.8156"/>
<polygon fill="black" stroke="black" points="3064.14,-40.8947 3054.26,-37.0817 3059.61,-46.2268 3064.14,-40.8947"/>
</g>
<!-- 51 &#45; __Relation__&#45;&gt;23 &#45; Port_Input -->
<g id="edge120" class="edge"><title>51 &#45; __Relation__&#45;&gt;23 &#45; Port_Input</title>
<path fill="none" stroke="black" d="M301,-74.7079C289.683,-65.2986 275.732,-53.6988 263.496,-43.5245"/>
<polygon fill="black" stroke="black" points="265.674,-40.7838 255.747,-37.0817 261.199,-46.1664 265.674,-40.7838"/>
</g>
<!-- 52 &#45; __Relation__&#45;&gt;28 &#45; Port_Input -->
<g id="edge122" class="edge"><title>52 &#45; __Relation__&#45;&gt;28 &#45; Port_Input</title>
<path fill="none" stroke="black" d="M2274.02,-75.2752C2289.8,-65.2984 2309.67,-52.7277 2326.64,-41.9991"/>
<polygon fill="black" stroke="black" points="2328.62,-44.8836 2335.2,-36.5802 2324.88,-38.9676 2328.62,-44.8836"/>
</g>
<!-- 53 &#45; __Relation__&#45;&gt;27 &#45; Port_Input -->
<g id="edge124" class="edge"><title>53 &#45; __Relation__&#45;&gt;27 &#45; Port_Input</title>
<path fill="none" stroke="black" d="M1973.12,-78.4683C1920.83,-65.9864 1845.55,-48.0142 1791.44,-35.0986"/>
<polygon fill="black" stroke="black" points="1792.13,-31.6659 1781.59,-32.7483 1790.51,-38.4746 1792.13,-31.6659"/>
</g>
<!-- 54 &#45; __Relation__&#45;&gt;25 &#45; Port_Input -->
<g id="edge126" class="edge"><title>54 &#45; __Relation__&#45;&gt;25 &#45; Port_Input</title>
<path fill="none" stroke="black" d="M2844.61,-76.9431C2809.92,-65.432 2763.08,-49.8883 2726.65,-37.7979"/>
<polygon fill="black" stroke="black" points="2727.74,-34.4724 2717.15,-34.6447 2725.53,-41.1162 2727.74,-34.4724"/>
</g>
<!-- 55 &#45; __Relation__&#45;&gt;30 &#45; Port_Input -->
<g id="edge128" class="edge"><title>55 &#45; __Relation__&#45;&gt;30 &#45; Port_Input</title>
<path fill="none" stroke="black" d="M1042.97,-74.7079C1033.36,-65.4778 1021.56,-54.1399 1011.13,-44.1074"/>
<polygon fill="black" stroke="black" points="1013.45,-41.4874 1003.81,-37.0817 1008.6,-46.5345 1013.45,-41.4874"/>
</g>
<!-- 56 &#45; __Relation__&#45;&gt;24 &#45; Port_Input -->
<g id="edge130" class="edge"><title>56 &#45; __Relation__&#45;&gt;24 &#45; Port_Input</title>
<path fill="none" stroke="black" d="M1305.14,-75.2752C1323.04,-65.0873 1345.69,-52.1945 1364.79,-41.3206"/>
<polygon fill="black" stroke="black" points="1366.61,-44.3137 1373.56,-36.3249 1363.14,-38.2302 1366.61,-44.3137"/>
</g>
<!-- 57 &#45; __Relation__&#45;&gt;26 &#45; Port_Input -->
<g id="edge132" class="edge"><title>57 &#45; __Relation__&#45;&gt;26 &#45; Port_Input</title>
<path fill="none" stroke="black" d="M767.635,-74.3267C761.905,-65.6725 754.989,-55.2286 748.717,-45.757"/>
<polygon fill="black" stroke="black" points="751.63,-43.8165 743.191,-37.411 745.794,-47.6812 751.63,-43.8165"/>
</g>
</g>
</svg>
