<?xml version="1.0" encoding="UTF-8" standalone="no"?>
<!DOCTYPE svg PUBLIC "-//W3C//DTD SVG 1.1//EN"
 "http://www.w3.org/Graphics/SVG/1.1/DTD/svg11.dtd">
<!-- Generated by graphviz version 2.26.3 (20100126.1600)
 -->
<!-- Title: HFlatten2_export_opt Pages: 1 -->
<svg width="3433pt" height="514pt"
 viewBox="0.00 0.00 3433.00 514.00" xmlns="http://www.w3.org/2000/svg" xmlns:xlink="http://www.w3.org/1999/xlink">
<g id="graph1" class="graph" transform="scale(1 1) rotate(0) translate(4 510)">
<title>HFlatten2_export_opt</title>
<polygon fill="white" stroke="white" points="-4,5 -4,-510 3430,-510 3430,5 -4,5"/>
<!-- 0 &#45; Gain\n Gain = 5.4 -->
<g id="node1" class="node"><title>0 &#45; Gain\n Gain = 5.4</title>
<ellipse fill="lightblue" stroke="black" cx="1536" cy="-327" rx="68.0887" ry="31.1127"/>
<text text-anchor="middle" x="1536" y="-332.4" font-family="Times Roman,serif" font-size="14.00">0 &#45; Gain</text>
<text text-anchor="middle" x="1536" y="-314.4" font-family="Times Roman,serif" font-size="14.00"> Gain = 5.4</text>
</g>
<!-- 19 &#45; __Block_Outport__ -->
<g id="node20" class="node"><title>19 &#45; __Block_Outport__</title>
<ellipse fill="#b94a62" stroke="black" cx="1536" cy="-241" rx="126.78" ry="18.3848"/>
<text text-anchor="middle" x="1536" y="-237.4" font-family="Times Roman,serif" font-size="14.00">19 &#45; __Block_Outport__</text>
</g>
<!-- 0 &#45; Gain\n Gain = 5.4&#45;&gt;19 &#45; __Block_Outport__ -->
<g id="edge2" class="edge"><title>0 &#45; Gain\n Gain = 5.4&#45;&gt;19 &#45; __Block_Outport__</title>
<path fill="none" stroke="black" d="M1536,-295.952C1536,-287.427 1536,-278.221 1536,-269.827"/>
<polygon fill="black" stroke="black" points="1539.5,-269.74 1536,-259.74 1532.5,-269.74 1539.5,-269.74"/>
</g>
<!-- 37 &#45; __Block_Inport__ -->
<g id="node38" class="node"><title>37 &#45; __Block_Inport__</title>
<ellipse fill="#b94a62" stroke="black" cx="1982" cy="-93" rx="118.087" ry="18.3848"/>
<text text-anchor="middle" x="1982" y="-89.4" font-family="Times Roman,serif" font-size="14.00">37 &#45; __Block_Inport__</text>
</g>
<!-- 0 &#45; Gain\n Gain = 5.4&#45;&gt;37 &#45; __Block_Inport__ -->
<g id="edge92" class="edge"><title>0 &#45; Gain\n Gain = 5.4&#45;&gt;37 &#45; __Block_Inport__</title>
<path fill="none" stroke="black" d="M1592.1,-309.306C1609.26,-304.406 1628.28,-299.482 1646,-296 1715.35,-282.37 1911.88,-309.832 1962,-260 1998.19,-224.022 1994.29,-159.346 1988.17,-121.916"/>
<polygon fill="black" stroke="black" points="1991.54,-120.905 1986.33,-111.682 1984.65,-122.144 1991.54,-120.905"/>
</g>
<!-- 1 &#45; Scope -->
<g id="node2" class="node"><title>1 &#45; Scope</title>
<ellipse fill="lightblue" stroke="black" cx="1235" cy="-327" rx="58.1882" ry="18.3848"/>
<text text-anchor="middle" x="1235" y="-323.4" font-family="Times Roman,serif" font-size="14.00">1 &#45; Scope</text>
</g>
<!-- 42 &#45; __Block_Inport__ -->
<g id="node43" class="node"><title>42 &#45; __Block_Inport__</title>
<ellipse fill="#b94a62" stroke="black" cx="1003" cy="-241" rx="118.087" ry="18.3848"/>
<text text-anchor="middle" x="1003" y="-237.4" font-family="Times Roman,serif" font-size="14.00">42 &#45; __Block_Inport__</text>
</g>
<!-- 1 &#45; Scope&#45;&gt;42 &#45; __Block_Inport__ -->
<g id="edge102" class="edge"><title>1 &#45; Scope&#45;&gt;42 &#45; __Block_Inport__</title>
<path fill="none" stroke="black" d="M1196.95,-312.895C1159.3,-298.94 1101.27,-277.428 1058.49,-261.569"/>
<polygon fill="black" stroke="black" points="1059.65,-258.268 1049.06,-258.074 1057.22,-264.831 1059.65,-258.268"/>
</g>
<!-- 2 &#45; Sum -->
<g id="node3" class="node"><title>2 &#45; Sum</title>
<ellipse fill="lightblue" stroke="black" cx="2759" cy="-327" rx="50.2046" ry="18.3848"/>
<text text-anchor="middle" x="2759" y="-323.4" font-family="Times Roman,serif" font-size="14.00">2 &#45; Sum</text>
</g>
<!-- 25 &#45; __Block_Outport__ -->
<g id="node26" class="node"><title>25 &#45; __Block_Outport__</title>
<ellipse fill="#b94a62" stroke="black" cx="2681" cy="-241" rx="126.78" ry="18.3848"/>
<text text-anchor="middle" x="2681" y="-237.4" font-family="Times Roman,serif" font-size="14.00">25 &#45; __Block_Outport__</text>
</g>
<!-- 2 &#45; Sum&#45;&gt;25 &#45; __Block_Outport__ -->
<g id="edge4" class="edge"><title>2 &#45; Sum&#45;&gt;25 &#45; __Block_Outport__</title>
<path fill="none" stroke="black" d="M2742.84,-309.181C2731.8,-297.007 2716.99,-280.676 2704.63,-267.049"/>
<polygon fill="black" stroke="black" points="2706.99,-264.446 2697.68,-259.39 2701.8,-269.148 2706.99,-264.446"/>
</g>
<!-- 43 &#45; __Block_Inport__ -->
<g id="node44" class="node"><title>43 &#45; __Block_Inport__</title>
<ellipse fill="#b94a62" stroke="black" cx="3099" cy="-167" rx="118.087" ry="18.3848"/>
<text text-anchor="middle" x="3099" y="-163.4" font-family="Times Roman,serif" font-size="14.00">43 &#45; __Block_Inport__</text>
</g>
<!-- 2 &#45; Sum&#45;&gt;43 &#45; __Block_Inport__ -->
<g id="edge104" class="edge"><title>2 &#45; Sum&#45;&gt;43 &#45; __Block_Inport__</title>
<path fill="none" stroke="black" d="M2790.07,-312.377C2850.01,-284.174 2981.86,-222.127 3052.36,-188.947"/>
<polygon fill="black" stroke="black" points="3053.92,-192.083 3061.48,-184.658 3050.94,-185.749 3053.92,-192.083"/>
</g>
<!-- 44 &#45; __Block_Inport__ -->
<g id="node45" class="node"><title>44 &#45; __Block_Inport__</title>
<ellipse fill="#b94a62" stroke="black" cx="2845" cy="-167" rx="118.087" ry="18.3848"/>
<text text-anchor="middle" x="2845" y="-163.4" font-family="Times Roman,serif" font-size="14.00">44 &#45; __Block_Inport__</text>
</g>
<!-- 2 &#45; Sum&#45;&gt;44 &#45; __Block_Inport__ -->
<g id="edge106" class="edge"><title>2 &#45; Sum&#45;&gt;44 &#45; __Block_Inport__</title>
<path fill="none" stroke="black" d="M2777.81,-309.549C2790.48,-296.879 2806.69,-278.736 2817,-260 2828.11,-239.807 2835.34,-214.664 2839.66,-195.614"/>
<polygon fill="black" stroke="black" points="2843.11,-196.238 2841.77,-185.728 2836.26,-194.777 2843.11,-196.238"/>
</g>
<!-- 3 &#45; Outport -->
<g id="node4" class="node"><title>3 &#45; Outport</title>
<ellipse fill="#eedd82" stroke="black" cx="950" cy="-327" rx="67.1751" ry="18.3848"/>
<text text-anchor="middle" x="950" y="-323.4" font-family="Times Roman,serif" font-size="14.00">3 &#45; Outport</text>
</g>
<!-- 36 &#45; __Block_Inport__ -->
<g id="node37" class="node"><title>36 &#45; __Block_Inport__</title>
<ellipse fill="#b94a62" stroke="black" cx="855" cy="-167" rx="116.88" ry="18.3848"/>
<text text-anchor="middle" x="855" y="-163.4" font-family="Times Roman,serif" font-size="14.00">36 &#45; __Block_Inport__</text>
</g>
<!-- 3 &#45; Outport&#45;&gt;36 &#45; __Block_Inport__ -->
<g id="edge90" class="edge"><title>3 &#45; Outport&#45;&gt;36 &#45; __Block_Inport__</title>
<path fill="none" stroke="black" d="M923.939,-309.786C907.732,-297.731 887.798,-280.204 876,-260 864.52,-240.342 859.314,-214.964 856.954,-195.686"/>
<polygon fill="black" stroke="black" points="860.429,-195.263 855.914,-185.679 853.467,-195.987 860.429,-195.263"/>
</g>
<!-- 4 &#45; Product -->
<g id="node5" class="node"><title>4 &#45; Product</title>
<ellipse fill="lightblue" stroke="black" cx="1721" cy="-327" rx="65.9683" ry="18.3848"/>
<text text-anchor="middle" x="1721" y="-323.4" font-family="Times Roman,serif" font-size="14.00">4 &#45; Product</text>
</g>
<!-- 22 &#45; __Block_Outport__ -->
<g id="node23" class="node"><title>22 &#45; __Block_Outport__</title>
<ellipse fill="#b94a62" stroke="black" cx="2406" cy="-241" rx="126.78" ry="18.3848"/>
<text text-anchor="middle" x="2406" y="-237.4" font-family="Times Roman,serif" font-size="14.00">22 &#45; __Block_Outport__</text>
</g>
<!-- 4 &#45; Product&#45;&gt;22 &#45; __Block_Outport__ -->
<g id="edge6" class="edge"><title>4 &#45; Product&#45;&gt;22 &#45; __Block_Outport__</title>
<path fill="none" stroke="black" d="M1781.97,-319.909C1883.34,-308.042 2092.91,-283.174 2270,-260 2281.24,-258.529 2293.01,-256.948 2304.7,-255.35"/>
<polygon fill="black" stroke="black" points="2305.52,-258.77 2314.95,-253.943 2304.57,-251.835 2305.52,-258.77"/>
</g>
<!-- 38 &#45; __Block_Inport__ -->
<g id="node39" class="node"><title>38 &#45; __Block_Inport__</title>
<ellipse fill="#b94a62" stroke="black" cx="1836" cy="-241" rx="116.88" ry="18.3848"/>
<text text-anchor="middle" x="1836" y="-237.4" font-family="Times Roman,serif" font-size="14.00">38 &#45; __Block_Inport__</text>
</g>
<!-- 4 &#45; Product&#45;&gt;38 &#45; __Block_Inport__ -->
<g id="edge94" class="edge"><title>4 &#45; Product&#45;&gt;38 &#45; __Block_Inport__</title>
<path fill="none" stroke="black" d="M1744.27,-309.597C1761.31,-296.856 1784.65,-279.401 1803.52,-265.288"/>
<polygon fill="black" stroke="black" points="1805.66,-268.06 1811.57,-259.268 1801.47,-262.454 1805.66,-268.06"/>
</g>
<!-- 39 &#45; __Block_Inport__ -->
<g id="node40" class="node"><title>39 &#45; __Block_Inport__</title>
<ellipse fill="#b94a62" stroke="black" cx="1691" cy="-93" rx="116.88" ry="18.3848"/>
<text text-anchor="middle" x="1691" y="-89.4" font-family="Times Roman,serif" font-size="14.00">39 &#45; __Block_Inport__</text>
</g>
<!-- 4 &#45; Product&#45;&gt;39 &#45; __Block_Inport__ -->
<g id="edge96" class="edge"><title>4 &#45; Product&#45;&gt;39 &#45; __Block_Inport__</title>
<path fill="none" stroke="black" d="M1717.67,-308.266C1715.35,-294.851 1712.27,-276.346 1710,-260 1703.29,-211.701 1697.25,-155.298 1693.86,-121.952"/>
<polygon fill="black" stroke="black" points="1697.29,-121.171 1692.81,-111.572 1690.33,-121.872 1697.29,-121.171"/>
</g>
<!-- 5 &#45; Product -->
<g id="node6" class="node"><title>5 &#45; Product</title>
<ellipse fill="lightblue" stroke="black" cx="746" cy="-327" rx="65.9683" ry="18.3848"/>
<text text-anchor="middle" x="746" y="-323.4" font-family="Times Roman,serif" font-size="14.00">5 &#45; Product</text>
</g>
<!-- 23 &#45; __Block_Outport__ -->
<g id="node24" class="node"><title>23 &#45; __Block_Outport__</title>
<ellipse fill="#b94a62" stroke="black" cx="1265" cy="-241" rx="126.072" ry="18.3848"/>
<text text-anchor="middle" x="1265" y="-237.4" font-family="Times Roman,serif" font-size="14.00">23 &#45; __Block_Outport__</text>
</g>
<!-- 5 &#45; Product&#45;&gt;23 &#45; __Block_Outport__ -->
<g id="edge8" class="edge"><title>5 &#45; Product&#45;&gt;23 &#45; __Block_Outport__</title>
<path fill="none" stroke="black" d="M794.079,-314.175C817.985,-308.101 847.386,-301.081 874,-296 986.859,-274.452 1016.22,-276.006 1130,-260 1140.97,-258.457 1152.44,-256.843 1163.86,-255.236"/>
<polygon fill="black" stroke="black" points="1164.45,-258.687 1173.86,-253.828 1163.47,-251.756 1164.45,-258.687"/>
</g>
<!-- 40 &#45; __Block_Inport__ -->
<g id="node41" class="node"><title>40 &#45; __Block_Inport__</title>
<ellipse fill="#b94a62" stroke="black" cx="564" cy="-167" rx="118.087" ry="18.3848"/>
<text text-anchor="middle" x="564" y="-163.4" font-family="Times Roman,serif" font-size="14.00">40 &#45; __Block_Inport__</text>
</g>
<!-- 5 &#45; Product&#45;&gt;40 &#45; __Block_Inport__ -->
<g id="edge98" class="edge"><title>5 &#45; Product&#45;&gt;40 &#45; __Block_Inport__</title>
<path fill="none" stroke="black" d="M688.371,-317.759C652.503,-308.977 608.336,-292.101 582,-260 567.323,-242.11 563.342,-215.789 562.733,-195.711"/>
<polygon fill="black" stroke="black" points="566.233,-195.56 562.69,-185.576 559.233,-195.591 566.233,-195.56"/>
</g>
<!-- 41 &#45; __Block_Inport__ -->
<g id="node42" class="node"><title>41 &#45; __Block_Inport__</title>
<ellipse fill="#b94a62" stroke="black" cx="710" cy="-241" rx="118.794" ry="18.3848"/>
<text text-anchor="middle" x="710" y="-237.4" font-family="Times Roman,serif" font-size="14.00">41 &#45; __Block_Inport__</text>
</g>
<!-- 5 &#45; Product&#45;&gt;41 &#45; __Block_Inport__ -->
<g id="edge100" class="edge"><title>5 &#45; Product&#45;&gt;41 &#45; __Block_Inport__</title>
<path fill="none" stroke="black" d="M738.189,-308.339C733.377,-296.844 727.116,-281.889 721.718,-268.993"/>
<polygon fill="black" stroke="black" points="724.886,-267.497 717.796,-259.624 718.429,-270.2 724.886,-267.497"/>
</g>
<!-- 6 &#45; SubSystem -->
<g id="node7" class="node"><title>6 &#45; SubSystem</title>
<ellipse fill="lightgreen" stroke="black" cx="1374" cy="-487" rx="84.1457" ry="18.3848"/>
<text text-anchor="middle" x="1374" y="-483.4" font-family="Times Roman,serif" font-size="14.00">6 &#45; SubSystem</text>
</g>
<!-- 54 &#45; __Contains__ -->
<g id="node55" class="node"><title>54 &#45; __Contains__</title>
<ellipse fill="lightgray" stroke="black" cx="1039" cy="-413" rx="99.201" ry="18.3848"/>
<text text-anchor="middle" x="1039" y="-409.4" font-family="Times Roman,serif" font-size="14.00">54 &#45; __Contains__</text>
</g>
<!-- 6 &#45; SubSystem&#45;&gt;54 &#45; __Contains__ -->
<g id="edge28" class="edge"><title>6 &#45; SubSystem&#45;&gt;54 &#45; __Contains__</title>
<path fill="none" stroke="black" d="M1314.49,-473.856C1258.21,-461.423 1173.58,-442.727 1112.98,-429.341"/>
<polygon fill="black" stroke="black" points="1113.61,-425.896 1103.09,-427.156 1112.1,-432.731 1113.61,-425.896"/>
</g>
<!-- 55 &#45; __Contains__ -->
<g id="node56" class="node"><title>55 &#45; __Contains__</title>
<ellipse fill="lightgray" stroke="black" cx="1485" cy="-413" rx="99.201" ry="18.3848"/>
<text text-anchor="middle" x="1485" y="-409.4" font-family="Times Roman,serif" font-size="14.00">55 &#45; __Contains__</text>
</g>
<!-- 6 &#45; SubSystem&#45;&gt;55 &#45; __Contains__ -->
<g id="edge26" class="edge"><title>6 &#45; SubSystem&#45;&gt;55 &#45; __Contains__</title>
<path fill="none" stroke="black" d="M1400.59,-469.275C1415.31,-459.462 1433.79,-447.139 1449.71,-436.529"/>
<polygon fill="black" stroke="black" points="1451.87,-439.296 1458.24,-430.837 1447.98,-433.472 1451.87,-439.296"/>
</g>
<!-- 56 &#45; __Contains__ -->
<g id="node57" class="node"><title>56 &#45; __Contains__</title>
<ellipse fill="lightgray" stroke="black" cx="341" cy="-413" rx="98.9949" ry="18.3848"/>
<text text-anchor="middle" x="341" y="-409.4" font-family="Times Roman,serif" font-size="14.00">56 &#45; __Contains__</text>
</g>
<!-- 6 &#45; SubSystem&#45;&gt;56 &#45; __Contains__ -->
<g id="edge24" class="edge"><title>6 &#45; SubSystem&#45;&gt;56 &#45; __Contains__</title>
<path fill="none" stroke="black" d="M1290.71,-484.275C1131.25,-478.538 771.937,-463.1 471,-432 456.529,-430.504 441.199,-428.575 426.337,-426.52"/>
<polygon fill="black" stroke="black" points="426.529,-423.013 416.139,-425.081 425.552,-429.944 426.529,-423.013"/>
</g>
<!-- 57 &#45; __Contains__ -->
<g id="node58" class="node"><title>57 &#45; __Contains__</title>
<ellipse fill="lightgray" stroke="black" cx="819" cy="-413" rx="99.9096" ry="18.3848"/>
<text text-anchor="middle" x="819" y="-409.4" font-family="Times Roman,serif" font-size="14.00">57 &#45; __Contains__</text>
</g>
<!-- 6 &#45; SubSystem&#45;&gt;57 &#45; __Contains__ -->
<g id="edge22" class="edge"><title>6 &#45; SubSystem&#45;&gt;57 &#45; __Contains__</title>
<path fill="none" stroke="black" d="M1298.61,-478.676C1210.35,-468.69 1059.82,-450.914 931,-432 921.414,-430.593 911.383,-429.026 901.431,-427.412"/>
<polygon fill="black" stroke="black" points="901.958,-423.952 891.524,-425.788 900.825,-430.86 901.958,-423.952"/>
</g>
<!-- 58 &#45; __Contains__ -->
<g id="node59" class="node"><title>58 &#45; __Contains__</title>
<ellipse fill="lightgray" stroke="black" cx="1264" cy="-413" rx="98.9949" ry="18.3848"/>
<text text-anchor="middle" x="1264" y="-409.4" font-family="Times Roman,serif" font-size="14.00">58 &#45; __Contains__</text>
</g>
<!-- 6 &#45; SubSystem&#45;&gt;58 &#45; __Contains__ -->
<g id="edge20" class="edge"><title>6 &#45; SubSystem&#45;&gt;58 &#45; __Contains__</title>
<path fill="none" stroke="black" d="M1347.65,-469.275C1333.07,-459.462 1314.75,-447.139 1298.98,-436.529"/>
<polygon fill="black" stroke="black" points="1300.76,-433.514 1290.51,-430.837 1296.86,-439.323 1300.76,-433.514"/>
</g>
<!-- 59 &#45; __Contains__ -->
<g id="node60" class="node"><title>59 &#45; __Contains__</title>
<ellipse fill="lightgray" stroke="black" cx="579" cy="-413" rx="98.9949" ry="18.3848"/>
<text text-anchor="middle" x="579" y="-409.4" font-family="Times Roman,serif" font-size="14.00">59 &#45; __Contains__</text>
</g>
<!-- 6 &#45; SubSystem&#45;&gt;59 &#45; __Contains__ -->
<g id="edge18" class="edge"><title>6 &#45; SubSystem&#45;&gt;59 &#45; __Contains__</title>
<path fill="none" stroke="black" d="M1293.1,-481.906C1167.89,-473.661 919.748,-455.875 710,-432 695.529,-430.353 680.195,-428.357 665.311,-426.286"/>
<polygon fill="black" stroke="black" points="665.487,-422.776 655.095,-424.843 664.508,-429.707 665.487,-422.776"/>
</g>
<!-- 60 &#45; __Contains__ -->
<g id="node61" class="node"><title>60 &#45; __Contains__</title>
<ellipse fill="lightgray" stroke="black" cx="1970" cy="-413" rx="98.9949" ry="18.3848"/>
<text text-anchor="middle" x="1970" y="-409.4" font-family="Times Roman,serif" font-size="14.00">60 &#45; __Contains__</text>
</g>
<!-- 6 &#45; SubSystem&#45;&gt;60 &#45; __Contains__ -->
<g id="edge16" class="edge"><title>6 &#45; SubSystem&#45;&gt;60 &#45; __Contains__</title>
<path fill="none" stroke="black" d="M1447.38,-477.889C1555.77,-464.432 1758.59,-439.249 1877.17,-424.526"/>
<polygon fill="black" stroke="black" points="1877.83,-427.971 1887.32,-423.266 1876.97,-421.024 1877.83,-427.971"/>
</g>
<!-- 61 &#45; __Contains__ -->
<g id="node62" class="node"><title>61 &#45; __Contains__</title>
<ellipse fill="lightgray" stroke="black" cx="2740" cy="-413" rx="99.201" ry="18.3848"/>
<text text-anchor="middle" x="2740" y="-409.4" font-family="Times Roman,serif" font-size="14.00">61 &#45; __Contains__</text>
</g>
<!-- 6 &#45; SubSystem&#45;&gt;61 &#45; __Contains__ -->
<g id="edge10" class="edge"><title>6 &#45; SubSystem&#45;&gt;61 &#45; __Contains__</title>
<path fill="none" stroke="black" d="M1456.68,-483.334C1638.63,-475.153 2087.42,-454.363 2463,-432 2520.74,-428.562 2585.21,-424.172 2637.42,-420.478"/>
<polygon fill="black" stroke="black" points="2637.97,-423.949 2647.69,-419.749 2637.47,-416.966 2637.97,-423.949"/>
</g>
<!-- 62 &#45; __Contains__ -->
<g id="node63" class="node"><title>62 &#45; __Contains__</title>
<ellipse fill="lightgray" stroke="black" cx="1703" cy="-413" rx="98.9949" ry="18.3848"/>
<text text-anchor="middle" x="1703" y="-409.4" font-family="Times Roman,serif" font-size="14.00">62 &#45; __Contains__</text>
</g>
<!-- 6 &#45; SubSystem&#45;&gt;62 &#45; __Contains__ -->
<g id="edge12" class="edge"><title>6 &#45; SubSystem&#45;&gt;62 &#45; __Contains__</title>
<path fill="none" stroke="black" d="M1432.82,-473.77C1487.86,-461.391 1570.26,-442.856 1629.59,-429.512"/>
<polygon fill="black" stroke="black" points="1630.65,-432.86 1639.64,-427.251 1629.12,-426.031 1630.65,-432.86"/>
</g>
<!-- 63 &#45; __Contains__ -->
<g id="node64" class="node"><title>63 &#45; __Contains__</title>
<ellipse fill="lightgray" stroke="black" cx="2355" cy="-413" rx="98.9949" ry="18.3848"/>
<text text-anchor="middle" x="2355" y="-409.4" font-family="Times Roman,serif" font-size="14.00">63 &#45; __Contains__</text>
</g>
<!-- 6 &#45; SubSystem&#45;&gt;63 &#45; __Contains__ -->
<g id="edge14" class="edge"><title>6 &#45; SubSystem&#45;&gt;63 &#45; __Contains__</title>
<path fill="none" stroke="black" d="M1453.86,-480.976C1631.02,-467.612 2056.7,-435.502 2252.86,-420.705"/>
<polygon fill="black" stroke="black" points="2253.17,-424.191 2262.88,-419.949 2252.65,-417.211 2253.17,-424.191"/>
</g>
<!-- 7 &#45; Constant\n Value = 66598.0 -->
<g id="node8" class="node"><title>7 &#45; Constant\n Value = 66598.0</title>
<ellipse fill="lightblue" stroke="black" cx="2949" cy="-327" rx="96.8736" ry="31.1127"/>
<text text-anchor="middle" x="2949" y="-332.4" font-family="Times Roman,serif" font-size="14.00">7 &#45; Constant</text>
<text text-anchor="middle" x="2949" y="-314.4" font-family="Times Roman,serif" font-size="14.00"> Value = 66598.0</text>
</g>
<!-- 20 &#45; __Block_Outport__ -->
<g id="node21" class="node"><title>20 &#45; __Block_Outport__</title>
<ellipse fill="#b94a62" stroke="black" cx="3235" cy="-241" rx="126.072" ry="18.3848"/>
<text text-anchor="middle" x="3235" y="-237.4" font-family="Times Roman,serif" font-size="14.00">20 &#45; __Block_Outport__</text>
</g>
<!-- 7 &#45; Constant\n Value = 66598.0&#45;&gt;20 &#45; __Block_Outport__ -->
<g id="edge30" class="edge"><title>7 &#45; Constant\n Value = 66598.0&#45;&gt;20 &#45; __Block_Outport__</title>
<path fill="none" stroke="black" d="M3019.7,-305.742C3065.62,-291.932 3125.05,-274.063 3169.83,-260.597"/>
<polygon fill="black" stroke="black" points="3170.87,-263.939 3179.44,-257.708 3168.85,-257.236 3170.87,-263.939"/>
</g>
<!-- 8 &#45; Inport -->
<g id="node9" class="node"><title>8 &#45; Inport</title>
<ellipse fill="#eedd82" stroke="black" cx="296" cy="-327" rx="57.9828" ry="18.3848"/>
<text text-anchor="middle" x="296" y="-323.4" font-family="Times Roman,serif" font-size="14.00">8 &#45; Inport</text>
</g>
<!-- 21 &#45; __Block_Outport__ -->
<g id="node22" class="node"><title>21 &#45; __Block_Outport__</title>
<ellipse fill="#b94a62" stroke="black" cx="128" cy="-241" rx="127.986" ry="18.3848"/>
<text text-anchor="middle" x="128" y="-237.4" font-family="Times Roman,serif" font-size="14.00">21 &#45; __Block_Outport__</text>
</g>
<!-- 8 &#45; Inport&#45;&gt;21 &#45; __Block_Outport__ -->
<g id="edge32" class="edge"><title>8 &#45; Inport&#45;&gt;21 &#45; __Block_Outport__</title>
<path fill="none" stroke="black" d="M265.186,-311.226C239.116,-297.881 201.435,-278.591 172.157,-263.604"/>
<polygon fill="black" stroke="black" points="173.469,-260.344 162.972,-258.902 170.279,-266.575 173.469,-260.344"/>
</g>
<!-- 9 &#45; Constant\n Value = 134.67 -->
<g id="node10" class="node"><title>9 &#45; Constant\n Value = 134.67</title>
<ellipse fill="lightblue" stroke="black" cx="488" cy="-327" rx="92.1303" ry="31.1127"/>
<text text-anchor="middle" x="488" y="-332.4" font-family="Times Roman,serif" font-size="14.00">9 &#45; Constant</text>
<text text-anchor="middle" x="488" y="-314.4" font-family="Times Roman,serif" font-size="14.00"> Value = 134.67</text>
</g>
<!-- 24 &#45; __Block_Outport__ -->
<g id="node25" class="node"><title>24 &#45; __Block_Outport__</title>
<ellipse fill="#b94a62" stroke="black" cx="406" cy="-241" rx="126.78" ry="18.3848"/>
<text text-anchor="middle" x="406" y="-237.4" font-family="Times Roman,serif" font-size="14.00">24 &#45; __Block_Outport__</text>
</g>
<!-- 9 &#45; Constant\n Value = 134.67&#45;&gt;24 &#45; __Block_Outport__ -->
<g id="edge34" class="edge"><title>9 &#45; Constant\n Value = 134.67&#45;&gt;24 &#45; __Block_Outport__</title>
<path fill="none" stroke="black" d="M459.78,-297.404C450.276,-287.436 439.753,-276.4 430.555,-266.753"/>
<polygon fill="black" stroke="black" points="432.94,-264.182 423.506,-259.36 427.874,-269.013 432.94,-264.182"/>
</g>
<!-- 10 &#45; Constant\n Value = 12.34 -->
<g id="node11" class="node"><title>10 &#45; Constant\n Value = 12.34</title>
<ellipse fill="lightblue" stroke="black" cx="2084" cy="-327" rx="85.7684" ry="31.1127"/>
<text text-anchor="middle" x="2084" y="-332.4" font-family="Times Roman,serif" font-size="14.00">10 &#45; Constant</text>
<text text-anchor="middle" x="2084" y="-314.4" font-family="Times Roman,serif" font-size="14.00"> Value = 12.34</text>
</g>
<!-- 26 &#45; __Block_Outport__ -->
<g id="node27" class="node"><title>26 &#45; __Block_Outport__</title>
<ellipse fill="#b94a62" stroke="black" cx="2135" cy="-241" rx="126.072" ry="18.3848"/>
<text text-anchor="middle" x="2135" y="-237.4" font-family="Times Roman,serif" font-size="14.00">26 &#45; __Block_Outport__</text>
</g>
<!-- 10 &#45; Constant\n Value = 12.34&#45;&gt;26 &#45; __Block_Outport__ -->
<g id="edge36" class="edge"><title>10 &#45; Constant\n Value = 12.34&#45;&gt;26 &#45; __Block_Outport__</title>
<path fill="none" stroke="black" d="M2102.12,-296.437C2107.56,-287.264 2113.49,-277.265 2118.8,-268.316"/>
<polygon fill="black" stroke="black" points="2121.97,-269.836 2124.06,-259.449 2115.95,-266.265 2121.97,-269.836"/>
</g>
<!-- 11 &#45; Port_Output -->
<g id="node12" class="node"><title>11 &#45; Port_Output</title>
<ellipse fill="coral" stroke="black" cx="1247" cy="-167" rx="96.1665" ry="18.3848"/>
<text text-anchor="middle" x="1247" y="-163.4" font-family="Times Roman,serif" font-size="14.00">11 &#45; Port_Output</text>
</g>
<!-- 49 &#45; __Relation__ -->
<g id="node50" class="node"><title>49 &#45; __Relation__</title>
<ellipse fill="#f78465" stroke="black" cx="1035" cy="-93" rx="96.8736" ry="18.3848"/>
<text text-anchor="middle" x="1035" y="-89.4" font-family="Times Roman,serif" font-size="14.00">49 &#45; __Relation__</text>
</g>
<!-- 11 &#45; Port_Output&#45;&gt;49 &#45; __Relation__ -->
<g id="edge40" class="edge"><title>11 &#45; Port_Output&#45;&gt;49 &#45; __Relation__</title>
<path fill="none" stroke="black" d="M1200.48,-150.76C1168.42,-139.57 1125.62,-124.632 1091.59,-112.752"/>
<polygon fill="black" stroke="black" points="1092.38,-109.321 1081.78,-109.329 1090.07,-115.93 1092.38,-109.321"/>
</g>
<!-- 50 &#45; __Relation__ -->
<g id="node51" class="node"><title>50 &#45; __Relation__</title>
<ellipse fill="#f78465" stroke="black" cx="1247" cy="-93" rx="96.8736" ry="18.3848"/>
<text text-anchor="middle" x="1247" y="-89.4" font-family="Times Roman,serif" font-size="14.00">50 &#45; __Relation__</text>
</g>
<!-- 11 &#45; Port_Output&#45;&gt;50 &#45; __Relation__ -->
<g id="edge38" class="edge"><title>11 &#45; Port_Output&#45;&gt;50 &#45; __Relation__</title>
<path fill="none" stroke="black" d="M1247,-148.327C1247,-140.264 1247,-130.648 1247,-121.711"/>
<polygon fill="black" stroke="black" points="1250.5,-121.667 1247,-111.667 1243.5,-121.667 1250.5,-121.667"/>
</g>
<!-- 12 &#45; Port_Output -->
<g id="node13" class="node"><title>12 &#45; Port_Output</title>
<ellipse fill="coral" stroke="black" cx="3330" cy="-167" rx="94.9596" ry="18.3848"/>
<text text-anchor="middle" x="3330" y="-163.4" font-family="Times Roman,serif" font-size="14.00">12 &#45; Port_Output</text>
</g>
<!-- 47 &#45; __Relation__ -->
<g id="node48" class="node"><title>47 &#45; __Relation__</title>
<ellipse fill="#f78465" stroke="black" cx="3303" cy="-93" rx="97.0803" ry="18.3848"/>
<text text-anchor="middle" x="3303" y="-89.4" font-family="Times Roman,serif" font-size="14.00">47 &#45; __Relation__</text>
</g>
<!-- 12 &#45; Port_Output&#45;&gt;47 &#45; __Relation__ -->
<g id="edge42" class="edge"><title>12 &#45; Port_Output&#45;&gt;47 &#45; __Relation__</title>
<path fill="none" stroke="black" d="M3323.19,-148.327C3320.18,-140.089 3316.58,-130.229 3313.26,-121.13"/>
<polygon fill="black" stroke="black" points="3316.53,-119.862 3309.81,-111.667 3309.95,-122.261 3316.53,-119.862"/>
</g>
<!-- 13 &#45; Port_Output -->
<g id="node14" class="node"><title>13 &#45; Port_Output</title>
<ellipse fill="coral" stroke="black" cx="125" cy="-167" rx="94.7523" ry="18.3848"/>
<text text-anchor="middle" x="125" y="-163.4" font-family="Times Roman,serif" font-size="14.00">13 &#45; Port_Output</text>
</g>
<!-- 51 &#45; __Relation__ -->
<g id="node52" class="node"><title>51 &#45; __Relation__</title>
<ellipse fill="#f78465" stroke="black" cx="138" cy="-93" rx="97.0803" ry="18.3848"/>
<text text-anchor="middle" x="138" y="-89.4" font-family="Times Roman,serif" font-size="14.00">51 &#45; __Relation__</text>
</g>
<!-- 13 &#45; Port_Output&#45;&gt;51 &#45; __Relation__ -->
<g id="edge44" class="edge"><title>13 &#45; Port_Output&#45;&gt;51 &#45; __Relation__</title>
<path fill="none" stroke="black" d="M128.28,-148.327C129.697,-140.264 131.386,-130.648 132.956,-121.711"/>
<polygon fill="black" stroke="black" points="136.437,-122.122 134.721,-111.667 129.543,-120.911 136.437,-122.122"/>
</g>
<!-- 14 &#45; Port_Output -->
<g id="node15" class="node"><title>14 &#45; Port_Output</title>
<ellipse fill="coral" stroke="black" cx="2404" cy="-167" rx="94.9596" ry="18.3848"/>
<text text-anchor="middle" x="2404" y="-163.4" font-family="Times Roman,serif" font-size="14.00">14 &#45; Port_Output</text>
</g>
<!-- 46 &#45; __Relation__ -->
<g id="node47" class="node"><title>46 &#45; __Relation__</title>
<ellipse fill="#f78465" stroke="black" cx="2427" cy="-93" rx="96.8736" ry="18.3848"/>
<text text-anchor="middle" x="2427" y="-89.4" font-family="Times Roman,serif" font-size="14.00">46 &#45; __Relation__</text>
</g>
<!-- 14 &#45; Port_Output&#45;&gt;46 &#45; __Relation__ -->
<g id="edge46" class="edge"><title>14 &#45; Port_Output&#45;&gt;46 &#45; __Relation__</title>
<path fill="none" stroke="black" d="M2409.8,-148.327C2412.34,-140.176 2415.36,-130.438 2418.17,-121.42"/>
<polygon fill="black" stroke="black" points="2421.57,-122.256 2421.2,-111.667 2414.89,-120.178 2421.57,-122.256"/>
</g>
<!-- 15 &#45; Port_Output -->
<g id="node16" class="node"><title>15 &#45; Port_Output</title>
<ellipse fill="coral" stroke="black" cx="1457" cy="-167" rx="94.9596" ry="18.3848"/>
<text text-anchor="middle" x="1457" y="-163.4" font-family="Times Roman,serif" font-size="14.00">15 &#45; Port_Output</text>
</g>
<!-- 48 &#45; __Relation__ -->
<g id="node49" class="node"><title>48 &#45; __Relation__</title>
<ellipse fill="#f78465" stroke="black" cx="1459" cy="-93" rx="96.8736" ry="18.3848"/>
<text text-anchor="middle" x="1459" y="-89.4" font-family="Times Roman,serif" font-size="14.00">48 &#45; __Relation__</text>
</g>
<!-- 15 &#45; Port_Output&#45;&gt;48 &#45; __Relation__ -->
<g id="edge48" class="edge"><title>15 &#45; Port_Output&#45;&gt;48 &#45; __Relation__</title>
<path fill="none" stroke="black" d="M1457.5,-148.327C1457.72,-140.264 1457.98,-130.648 1458.22,-121.711"/>
<polygon fill="black" stroke="black" points="1461.72,-121.758 1458.5,-111.667 1454.73,-121.569 1461.72,-121.758"/>
</g>
<!-- 16 &#45; Port_Output -->
<g id="node17" class="node"><title>16 &#45; Port_Output</title>
<ellipse fill="coral" stroke="black" cx="333" cy="-167" rx="94.7523" ry="18.3848"/>
<text text-anchor="middle" x="333" y="-163.4" font-family="Times Roman,serif" font-size="14.00">16 &#45; Port_Output</text>
</g>
<!-- 53 &#45; __Relation__ -->
<g id="node54" class="node"><title>53 &#45; __Relation__</title>
<ellipse fill="#f78465" stroke="black" cx="401" cy="-93" rx="96.8736" ry="18.3848"/>
<text text-anchor="middle" x="401" y="-89.4" font-family="Times Roman,serif" font-size="14.00">53 &#45; __Relation__</text>
</g>
<!-- 16 &#45; Port_Output&#45;&gt;53 &#45; __Relation__ -->
<g id="edge50" class="edge"><title>16 &#45; Port_Output&#45;&gt;53 &#45; __Relation__</title>
<path fill="none" stroke="black" d="M349.809,-148.708C358.064,-139.725 368.154,-128.745 377.186,-118.915"/>
<polygon fill="black" stroke="black" points="379.96,-121.07 384.149,-111.338 374.805,-116.333 379.96,-121.07"/>
</g>
<!-- 17 &#45; Port_Output -->
<g id="node18" class="node"><title>17 &#45; Port_Output</title>
<ellipse fill="coral" stroke="black" cx="2613" cy="-167" rx="96.1665" ry="18.3848"/>
<text text-anchor="middle" x="2613" y="-163.4" font-family="Times Roman,serif" font-size="14.00">17 &#45; Port_Output</text>
</g>
<!-- 45 &#45; __Relation__ -->
<g id="node46" class="node"><title>45 &#45; __Relation__</title>
<ellipse fill="#f78465" stroke="black" cx="2639" cy="-93" rx="96.8736" ry="18.3848"/>
<text text-anchor="middle" x="2639" y="-89.4" font-family="Times Roman,serif" font-size="14.00">45 &#45; __Relation__</text>
</g>
<!-- 17 &#45; Port_Output&#45;&gt;45 &#45; __Relation__ -->
<g id="edge52" class="edge"><title>17 &#45; Port_Output&#45;&gt;45 &#45; __Relation__</title>
<path fill="none" stroke="black" d="M2619.56,-148.327C2622.46,-140.089 2625.92,-130.229 2629.12,-121.13"/>
<polygon fill="black" stroke="black" points="2632.43,-122.262 2632.44,-111.667 2625.82,-119.942 2632.43,-122.262"/>
</g>
<!-- 18 &#45; Port_Output -->
<g id="node19" class="node"><title>18 &#45; Port_Output</title>
<ellipse fill="coral" stroke="black" cx="2163" cy="-167" rx="94.7523" ry="18.3848"/>
<text text-anchor="middle" x="2163" y="-163.4" font-family="Times Roman,serif" font-size="14.00">18 &#45; Port_Output</text>
</g>
<!-- 52 &#45; __Relation__ -->
<g id="node53" class="node"><title>52 &#45; __Relation__</title>
<ellipse fill="#f78465" stroke="black" cx="2215" cy="-93" rx="96.8736" ry="18.3848"/>
<text text-anchor="middle" x="2215" y="-89.4" font-family="Times Roman,serif" font-size="14.00">52 &#45; __Relation__</text>
</g>
<!-- 18 &#45; Port_Output&#45;&gt;52 &#45; __Relation__ -->
<g id="edge54" class="edge"><title>18 &#45; Port_Output&#45;&gt;52 &#45; __Relation__</title>
<path fill="none" stroke="black" d="M2176.12,-148.327C2182.2,-139.672 2189.54,-129.229 2196.2,-119.757"/>
<polygon fill="black" stroke="black" points="2199.18,-121.605 2202.06,-111.411 2193.45,-117.581 2199.18,-121.605"/>
</g>
<!-- 19 &#45; __Block_Outport__&#45;&gt;11 &#45; Port_Output -->
<g id="edge56" class="edge"><title>19 &#45; __Block_Outport__&#45;&gt;11 &#45; Port_Output</title>
<path fill="none" stroke="black" d="M1472.93,-224.852C1426.26,-212.901 1362.76,-196.642 1314.97,-184.403"/>
<polygon fill="black" stroke="black" points="1315.57,-180.946 1305.02,-181.856 1313.84,-187.727 1315.57,-180.946"/>
</g>
<!-- 20 &#45; __Block_Outport__&#45;&gt;12 &#45; Port_Output -->
<g id="edge58" class="edge"><title>20 &#45; __Block_Outport__&#45;&gt;12 &#45; Port_Output</title>
<path fill="none" stroke="black" d="M3258.48,-222.708C3270.68,-213.209 3285.74,-201.478 3298.89,-191.234"/>
<polygon fill="black" stroke="black" points="3301.05,-193.988 3306.79,-185.082 3296.75,-188.466 3301.05,-193.988"/>
</g>
<!-- 21 &#45; __Block_Outport__&#45;&gt;13 &#45; Port_Output -->
<g id="edge60" class="edge"><title>21 &#45; __Block_Outport__&#45;&gt;13 &#45; Port_Output</title>
<path fill="none" stroke="black" d="M127.243,-222.327C126.916,-214.264 126.526,-204.648 126.164,-195.711"/>
<polygon fill="black" stroke="black" points="129.659,-195.517 125.757,-185.667 122.665,-195.801 129.659,-195.517"/>
</g>
<!-- 22 &#45; __Block_Outport__&#45;&gt;14 &#45; Port_Output -->
<g id="edge62" class="edge"><title>22 &#45; __Block_Outport__&#45;&gt;14 &#45; Port_Output</title>
<path fill="none" stroke="black" d="M2405.5,-222.327C2405.28,-214.264 2405.02,-204.648 2404.78,-195.711"/>
<polygon fill="black" stroke="black" points="2408.27,-195.569 2404.5,-185.667 2401.28,-195.758 2408.27,-195.569"/>
</g>
<!-- 23 &#45; __Block_Outport__&#45;&gt;15 &#45; Port_Output -->
<g id="edge64" class="edge"><title>23 &#45; __Block_Outport__&#45;&gt;15 &#45; Port_Output</title>
<path fill="none" stroke="black" d="M1310.02,-223.65C1338.32,-212.741 1374.95,-198.622 1404.57,-187.208"/>
<polygon fill="black" stroke="black" points="1405.84,-190.467 1413.92,-183.605 1403.33,-183.936 1405.84,-190.467"/>
</g>
<!-- 24 &#45; __Block_Outport__&#45;&gt;16 &#45; Port_Output -->
<g id="edge66" class="edge"><title>24 &#45; __Block_Outport__&#45;&gt;16 &#45; Port_Output</title>
<path fill="none" stroke="black" d="M387.579,-222.327C378.693,-213.319 367.895,-202.373 358.256,-192.602"/>
<polygon fill="black" stroke="black" points="360.677,-190.072 351.162,-185.411 355.693,-194.988 360.677,-190.072"/>
</g>
<!-- 25 &#45; __Block_Outport__&#45;&gt;17 &#45; Port_Output -->
<g id="edge68" class="edge"><title>25 &#45; __Block_Outport__&#45;&gt;17 &#45; Port_Output</title>
<path fill="none" stroke="black" d="M2663.84,-222.327C2655.64,-213.408 2645.7,-202.588 2636.79,-192.89"/>
<polygon fill="black" stroke="black" points="2639.26,-190.406 2629.92,-185.411 2634.11,-195.143 2639.26,-190.406"/>
</g>
<!-- 26 &#45; __Block_Outport__&#45;&gt;18 &#45; Port_Output -->
<g id="edge70" class="edge"><title>26 &#45; __Block_Outport__&#45;&gt;18 &#45; Port_Output</title>
<path fill="none" stroke="black" d="M2142.07,-222.327C2145.18,-214.089 2148.91,-204.229 2152.36,-195.13"/>
<polygon fill="black" stroke="black" points="2155.67,-196.259 2155.94,-185.667 2149.12,-193.782 2155.67,-196.259"/>
</g>
<!-- 27 &#45; Port_Input -->
<g id="node28" class="node"><title>27 &#45; Port_Input</title>
<ellipse fill="lightyellow" stroke="black" cx="910" cy="-19" rx="85.7684" ry="18.3848"/>
<text text-anchor="middle" x="910" y="-15.4" font-family="Times Roman,serif" font-size="14.00">27 &#45; Port_Input</text>
</g>
<!-- 28 &#45; Port_Input -->
<g id="node29" class="node"><title>28 &#45; Port_Input</title>
<ellipse fill="lightyellow" stroke="black" cx="2335" cy="-19" rx="85.0596" ry="18.3848"/>
<text text-anchor="middle" x="2335" y="-15.4" font-family="Times Roman,serif" font-size="14.00">28 &#45; Port_Input</text>
</g>
<!-- 29 &#45; Port_Input -->
<g id="node30" class="node"><title>29 &#45; Port_Input</title>
<ellipse fill="lightyellow" stroke="black" cx="1991" cy="-19" rx="85.0596" ry="18.3848"/>
<text text-anchor="middle" x="1991" y="-15.4" font-family="Times Roman,serif" font-size="14.00">29 &#45; Port_Input</text>
</g>
<!-- 30 &#45; Port_Input -->
<g id="node31" class="node"><title>30 &#45; Port_Input</title>
<ellipse fill="lightyellow" stroke="black" cx="1575" cy="-19" rx="84.8528" ry="18.3848"/>
<text text-anchor="middle" x="1575" y="-15.4" font-family="Times Roman,serif" font-size="14.00">30 &#45; Port_Input</text>
</g>
<!-- 31 &#45; Port_Input -->
<g id="node32" class="node"><title>31 &#45; Port_Input</title>
<ellipse fill="lightyellow" stroke="black" cx="149" cy="-19" rx="85.7684" ry="18.3848"/>
<text text-anchor="middle" x="149" y="-15.4" font-family="Times Roman,serif" font-size="14.00">31 &#45; Port_Input</text>
</g>
<!-- 32 &#45; Port_Input -->
<g id="node33" class="node"><title>32 &#45; Port_Input</title>
<ellipse fill="lightyellow" stroke="black" cx="537" cy="-19" rx="85.0596" ry="18.3848"/>
<text text-anchor="middle" x="537" y="-15.4" font-family="Times Roman,serif" font-size="14.00">32 &#45; Port_Input</text>
</g>
<!-- 33 &#45; Port_Input -->
<g id="node34" class="node"><title>33 &#45; Port_Input</title>
<ellipse fill="lightyellow" stroke="black" cx="1146" cy="-19" rx="84.8528" ry="18.3848"/>
<text text-anchor="middle" x="1146" y="-15.4" font-family="Times Roman,serif" font-size="14.00">33 &#45; Port_Input</text>
</g>
<!-- 34 &#45; Port_Input -->
<g id="node35" class="node"><title>34 &#45; Port_Input</title>
<ellipse fill="lightyellow" stroke="black" cx="3187" cy="-19" rx="85.0596" ry="18.3848"/>
<text text-anchor="middle" x="3187" y="-15.4" font-family="Times Roman,serif" font-size="14.00">34 &#45; Port_Input</text>
</g>
<!-- 35 &#45; Port_Input -->
<g id="node36" class="node"><title>35 &#45; Port_Input</title>
<ellipse fill="lightyellow" stroke="black" cx="2630" cy="-19" rx="85.0596" ry="18.3848"/>
<text text-anchor="middle" x="2630" y="-15.4" font-family="Times Roman,serif" font-size="14.00">35 &#45; Port_Input</text>
</g>
<!-- 36 &#45; __Block_Inport__&#45;&gt;27 &#45; Port_Input -->
<g id="edge72" class="edge"><title>36 &#45; __Block_Inport__&#45;&gt;27 &#45; Port_Input</title>
<path fill="none" stroke="black" d="M861.966,-148.256C871.471,-122.679 888.58,-76.6401 899.605,-46.9725"/>
<polygon fill="black" stroke="black" points="902.888,-48.185 903.091,-37.5921 896.326,-45.7465 902.888,-48.185"/>
</g>
<!-- 37 &#45; __Block_Inport__&#45;&gt;28 &#45; Port_Input -->
<g id="edge74" class="edge"><title>37 &#45; __Block_Inport__&#45;&gt;28 &#45; Port_Input</title>
<path fill="none" stroke="black" d="M2053.01,-78.114C2114.23,-65.2805 2202.19,-46.8405 2263.54,-33.9798"/>
<polygon fill="black" stroke="black" points="2264.46,-37.363 2273.53,-31.8857 2263.03,-30.5119 2264.46,-37.363"/>
</g>
<!-- 38 &#45; __Block_Inport__&#45;&gt;29 &#45; Port_Input -->
<g id="edge76" class="edge"><title>38 &#45; __Block_Inport__&#45;&gt;29 &#45; Port_Input</title>
<path fill="none" stroke="black" d="M1832.49,-222.489C1827.27,-189.122 1821.36,-118.257 1855,-74 1869.7,-54.6608 1892.32,-42.0976 1914.92,-33.9457"/>
<polygon fill="black" stroke="black" points="1916.21,-37.2055 1924.59,-30.7152 1913.99,-30.5667 1916.21,-37.2055"/>
</g>
<!-- 39 &#45; __Block_Inport__&#45;&gt;30 &#45; Port_Input -->
<g id="edge78" class="edge"><title>39 &#45; __Block_Inport__&#45;&gt;30 &#45; Port_Input</title>
<path fill="none" stroke="black" d="M1662.62,-74.8976C1647.23,-65.0777 1628.03,-52.8301 1611.53,-42.3044"/>
<polygon fill="black" stroke="black" points="1613,-39.0877 1602.68,-36.6602 1609.23,-44.9891 1613,-39.0877"/>
</g>
<!-- 40 &#45; __Block_Inport__&#45;&gt;31 &#45; Port_Input -->
<g id="edge80" class="edge"><title>40 &#45; __Block_Inport__&#45;&gt;31 &#45; Port_Input</title>
<path fill="none" stroke="black" d="M557.959,-148.217C549.956,-126.572 533.652,-91.7176 507,-74 464.791,-45.9403 333.78,-31.4101 242.544,-24.4967"/>
<polygon fill="black" stroke="black" points="242.689,-20.998 232.458,-23.7511 242.173,-27.9789 242.689,-20.998"/>
</g>
<!-- 41 &#45; __Block_Inport__&#45;&gt;32 &#45; Port_Input -->
<g id="edge82" class="edge"><title>41 &#45; __Block_Inport__&#45;&gt;32 &#45; Port_Input</title>
<path fill="none" stroke="black" d="M709.745,-222.232C708.695,-202.467 704.753,-171.073 691,-148 663.261,-101.464 612.485,-63.9064 576.842,-41.5655"/>
<polygon fill="black" stroke="black" points="578.483,-38.4659 568.129,-36.2172 574.82,-44.4316 578.483,-38.4659"/>
</g>
<!-- 42 &#45; __Block_Inport__&#45;&gt;33 &#45; Port_Input -->
<g id="edge84" class="edge"><title>42 &#45; __Block_Inport__&#45;&gt;33 &#45; Port_Input</title>
<path fill="none" stroke="black" d="M1002.46,-222.308C1001.05,-202.322 996.336,-170.476 981,-148 965.157,-124.781 942.046,-136.898 929,-112 921.162,-97.0402 918.628,-87.3288 929,-74 945.571,-52.7046 1008.01,-38.3294 1061.68,-29.6325"/>
<polygon fill="black" stroke="black" points="1062.25,-33.0856 1071.59,-28.0743 1061.17,-26.1706 1062.25,-33.0856"/>
</g>
<!-- 43 &#45; __Block_Inport__&#45;&gt;34 &#45; Port_Input -->
<g id="edge86" class="edge"><title>43 &#45; __Block_Inport__&#45;&gt;34 &#45; Port_Input</title>
<path fill="none" stroke="black" d="M3109.97,-148.555C3125.25,-122.853 3153.06,-76.0803 3170.75,-46.3238"/>
<polygon fill="black" stroke="black" points="3173.79,-48.0617 3175.89,-37.6775 3167.78,-44.4841 3173.79,-48.0617"/>
</g>
<!-- 44 &#45; __Block_Inport__&#45;&gt;35 &#45; Port_Input -->
<g id="edge88" class="edge"><title>44 &#45; __Block_Inport__&#45;&gt;35 &#45; Port_Input</title>
<path fill="none" stroke="black" d="M2828.33,-148.445C2809.53,-128.283 2777.34,-96.0116 2745,-74 2725.17,-60.5014 2701.51,-48.5731 2680.83,-39.3054"/>
<polygon fill="black" stroke="black" points="2682.12,-36.0507 2671.56,-35.2385 2679.31,-42.461 2682.12,-36.0507"/>
</g>
<!-- 45 &#45; __Relation__&#45;&gt;28 &#45; Port_Input -->
<g id="edge108" class="edge"><title>45 &#45; __Relation__&#45;&gt;28 &#45; Port_Input</title>
<path fill="none" stroke="black" d="M2578.94,-78.38C2527.9,-65.9548 2454.69,-48.1361 2401.81,-35.2633"/>
<polygon fill="black" stroke="black" points="2402.4,-31.8033 2391.85,-32.8388 2400.74,-38.6047 2402.4,-31.8033"/>
</g>
<!-- 46 &#45; __Relation__&#45;&gt;35 &#45; Port_Input -->
<g id="edge110" class="edge"><title>46 &#45; __Relation__&#45;&gt;35 &#45; Port_Input</title>
<path fill="none" stroke="black" d="M2472.05,-76.577C2502.86,-65.3478 2543.83,-50.4111 2576.33,-38.5652"/>
<polygon fill="black" stroke="black" points="2577.92,-41.7089 2586.12,-34.9957 2575.53,-35.1323 2577.92,-41.7089"/>
</g>
<!-- 47 &#45; __Relation__&#45;&gt;34 &#45; Port_Input -->
<g id="edge112" class="edge"><title>47 &#45; __Relation__&#45;&gt;34 &#45; Port_Input</title>
<path fill="none" stroke="black" d="M3275.22,-75.2752C3259.58,-65.2984 3239.87,-52.7277 3223.05,-41.9991"/>
<polygon fill="black" stroke="black" points="3224.87,-39.0077 3214.56,-36.5802 3221.11,-44.9091 3224.87,-39.0077"/>
</g>
<!-- 48 &#45; __Relation__&#45;&gt;30 &#45; Port_Input -->
<g id="edge114" class="edge"><title>48 &#45; __Relation__&#45;&gt;30 &#45; Port_Input</title>
<path fill="none" stroke="black" d="M1486.78,-75.2752C1502.42,-65.2984 1522.13,-52.7277 1538.95,-41.9991"/>
<polygon fill="black" stroke="black" points="1540.89,-44.9091 1547.44,-36.5802 1537.13,-39.0077 1540.89,-44.9091"/>
</g>
<!-- 49 &#45; __Relation__&#45;&gt;27 &#45; Port_Input -->
<g id="edge116" class="edge"><title>49 &#45; __Relation__&#45;&gt;27 &#45; Port_Input</title>
<path fill="none" stroke="black" d="M1005.06,-75.2752C988.052,-65.2069 966.582,-52.4968 948.352,-41.7043"/>
<polygon fill="black" stroke="black" points="950.084,-38.6627 939.696,-36.5802 946.518,-44.6863 950.084,-38.6627"/>
</g>
<!-- 50 &#45; __Relation__&#45;&gt;33 &#45; Port_Input -->
<g id="edge118" class="edge"><title>50 &#45; __Relation__&#45;&gt;33 &#45; Port_Input</title>
<path fill="none" stroke="black" d="M1222.55,-75.0867C1209.28,-65.3608 1192.69,-53.212 1178.36,-42.7104"/>
<polygon fill="black" stroke="black" points="1180.36,-39.8353 1170.22,-36.7484 1176.22,-45.4819 1180.36,-39.8353"/>
</g>
<!-- 51 &#45; __Relation__&#45;&gt;31 &#45; Port_Input -->
<g id="edge120" class="edge"><title>51 &#45; __Relation__&#45;&gt;31 &#45; Port_Input</title>
<path fill="none" stroke="black" d="M140.776,-74.3267C141.974,-66.2639 143.404,-56.6477 144.732,-47.7115"/>
<polygon fill="black" stroke="black" points="148.217,-48.0733 146.225,-37.6674 141.293,-47.044 148.217,-48.0733"/>
</g>
<!-- 52 &#45; __Relation__&#45;&gt;29 &#45; Port_Input -->
<g id="edge122" class="edge"><title>52 &#45; __Relation__&#45;&gt;29 &#45; Port_Input</title>
<path fill="none" stroke="black" d="M2166.4,-76.9431C2131.43,-65.3929 2084.18,-49.7828 2047.53,-37.6751"/>
<polygon fill="black" stroke="black" points="2048.57,-34.332 2037.97,-34.5185 2046.37,-40.9787 2048.57,-34.332"/>
</g>
<!-- 53 &#45; __Relation__&#45;&gt;32 &#45; Port_Input -->
<g id="edge124" class="edge"><title>53 &#45; __Relation__&#45;&gt;32 &#45; Port_Input</title>
<path fill="none" stroke="black" d="M433.23,-75.463C452.03,-65.2335 475.93,-52.2293 496.053,-41.2799"/>
<polygon fill="black" stroke="black" points="497.89,-44.265 505.001,-36.4111 494.545,-38.1162 497.89,-44.265"/>
</g>
<!-- 54 &#45; __Contains__&#45;&gt;3 &#45; Outport -->
<g id="edge126" class="edge"><title>54 &#45; __Contains__&#45;&gt;3 &#45; Outport</title>
<path fill="none" stroke="black" d="M1020.13,-394.762C1007.3,-382.364 990.155,-365.801 976.032,-352.154"/>
<polygon fill="black" stroke="black" points="978.166,-349.349 968.542,-344.917 973.301,-354.383 978.166,-349.349"/>
</g>
<!-- 55 &#45; __Contains__&#45;&gt;0 &#45; Gain\n Gain = 5.4 -->
<g id="edge128" class="edge"><title>55 &#45; __Contains__&#45;&gt;0 &#45; Gain\n Gain = 5.4</title>
<path fill="none" stroke="black" d="M1496.07,-394.339C1501.05,-385.933 1507.13,-375.677 1513.03,-365.729"/>
<polygon fill="black" stroke="black" points="1516.05,-367.507 1518.14,-357.12 1510.03,-363.936 1516.05,-367.507"/>
</g>
<!-- 56 &#45; __Contains__&#45;&gt;8 &#45; Inport -->
<g id="edge130" class="edge"><title>56 &#45; __Contains__&#45;&gt;8 &#45; Inport</title>
<path fill="none" stroke="black" d="M331.236,-394.339C325.12,-382.652 317.133,-367.388 310.31,-354.348"/>
<polygon fill="black" stroke="black" points="313.328,-352.567 305.591,-345.329 307.126,-355.812 313.328,-352.567"/>
</g>
<!-- 57 &#45; __Contains__&#45;&gt;5 &#45; Product -->
<g id="edge132" class="edge"><title>57 &#45; __Contains__&#45;&gt;5 &#45; Product</title>
<path fill="none" stroke="black" d="M803.16,-394.339C792.881,-382.23 779.343,-366.281 768.022,-352.944"/>
<polygon fill="black" stroke="black" points="770.448,-350.394 761.309,-345.035 765.112,-354.924 770.448,-350.394"/>
</g>
<!-- 58 &#45; __Contains__&#45;&gt;1 &#45; Scope -->
<g id="edge134" class="edge"><title>58 &#45; __Contains__&#45;&gt;1 &#45; Scope</title>
<path fill="none" stroke="black" d="M1257.71,-394.339C1253.87,-382.957 1248.89,-368.182 1244.57,-355.373"/>
<polygon fill="black" stroke="black" points="1247.79,-353.982 1241.28,-345.624 1241.16,-356.218 1247.79,-353.982"/>
</g>
<!-- 59 &#45; __Contains__&#45;&gt;9 &#45; Constant\n Value = 134.67 -->
<g id="edge136" class="edge"><title>59 &#45; __Contains__&#45;&gt;9 &#45; Constant\n Value = 134.67</title>
<path fill="none" stroke="black" d="M559.701,-394.762C550.029,-385.621 537.96,-374.215 526.499,-363.384"/>
<polygon fill="black" stroke="black" points="528.758,-360.703 519.086,-356.378 523.95,-365.791 528.758,-360.703"/>
</g>
<!-- 60 &#45; __Contains__&#45;&gt;10 &#45; Constant\n Value = 12.34 -->
<g id="edge138" class="edge"><title>60 &#45; __Contains__&#45;&gt;10 &#45; Constant\n Value = 12.34</title>
<path fill="none" stroke="black" d="M1993.9,-394.972C2006.79,-385.247 2023.14,-372.915 2038.36,-361.432"/>
<polygon fill="black" stroke="black" points="2040.79,-363.979 2046.67,-355.162 2036.58,-358.391 2040.79,-363.979"/>
</g>
<!-- 61 &#45; __Contains__&#45;&gt;7 &#45; Constant\n Value = 66598.0 -->
<g id="edge140" class="edge"><title>61 &#45; __Contains__&#45;&gt;7 &#45; Constant\n Value = 66598.0</title>
<path fill="none" stroke="black" d="M2781.29,-396.009C2809.33,-384.47 2847.11,-368.928 2879.7,-355.515"/>
<polygon fill="black" stroke="black" points="2881.27,-358.653 2889.19,-351.611 2878.61,-352.18 2881.27,-358.653"/>
</g>
<!-- 62 &#45; __Contains__&#45;&gt;4 &#45; Product -->
<g id="edge142" class="edge"><title>62 &#45; __Contains__&#45;&gt;4 &#45; Product</title>
<path fill="none" stroke="black" d="M1706.91,-394.339C1709.26,-383.07 1712.32,-368.474 1714.98,-355.754"/>
<polygon fill="black" stroke="black" points="1718.48,-356.129 1717.1,-345.624 1711.63,-354.695 1718.48,-356.129"/>
</g>
<!-- 63 &#45; __Contains__&#45;&gt;2 &#45; Sum -->
<g id="edge144" class="edge"><title>63 &#45; __Contains__&#45;&gt;2 &#45; Sum</title>
<path fill="none" stroke="black" d="M2420.36,-399.087C2499.7,-382.197 2632,-354.036 2705.55,-338.379"/>
<polygon fill="black" stroke="black" points="2706.47,-341.761 2715.52,-336.255 2705.01,-334.914 2706.47,-341.761"/>
</g>
</g>
</svg>
