<?xml version="1.0" encoding="UTF-8" standalone="no"?>
<!DOCTYPE svg PUBLIC "-//W3C//DTD SVG 1.1//EN"
 "http://www.w3.org/Graphics/SVG/1.1/DTD/svg11.dtd">
<!-- Generated by graphviz version 2.26.3 (20100126.1600)
 -->
<!-- Title: HFlattModel_opt Pages: 1 -->
<svg width="1255pt" height="514pt"
 viewBox="0.00 0.00 1255.00 514.00" xmlns="http://www.w3.org/2000/svg" xmlns:xlink="http://www.w3.org/1999/xlink">
<g id="graph1" class="graph" transform="scale(1 1) rotate(0) translate(4 510)">
<title>HFlattModel_opt</title>
<polygon fill="white" stroke="white" points="-4,5 -4,-510 1252,-510 1252,5 -4,5"/>
<!-- 0 &#45; Outport -->
<g id="node1" class="node"><title>0 &#45; Outport</title>
<ellipse fill="#eedd82" stroke="black" cx="253" cy="-327" rx="67.1751" ry="18.3848"/>
<text text-anchor="middle" x="253" y="-323.4" font-family="Times Roman,serif" font-size="14.00">0 &#45; Outport</text>
</g>
<!-- 11 &#45; __Block_Inport__ -->
<g id="node12" class="node"><title>11 &#45; __Block_Inport__</title>
<ellipse fill="#b94a62" stroke="black" cx="119" cy="-167" rx="119.001" ry="18.3848"/>
<text text-anchor="middle" x="119" y="-163.4" font-family="Times Roman,serif" font-size="14.00">11 &#45; __Block_Inport__</text>
</g>
<!-- 0 &#45; Outport&#45;&gt;11 &#45; __Block_Inport__ -->
<g id="edge28" class="edge"><title>0 &#45; Outport&#45;&gt;11 &#45; __Block_Inport__</title>
<path fill="none" stroke="black" d="M212.779,-312.029C188.807,-301.114 159.694,-284.01 142,-260 128.2,-241.273 122.613,-215.25 120.385,-195.492"/>
<polygon fill="black" stroke="black" points="123.87,-195.168 119.481,-185.525 116.899,-195.8 123.87,-195.168"/>
</g>
<!-- 1 &#45; Product -->
<g id="node2" class="node"><title>1 &#45; Product</title>
<ellipse fill="lightblue" stroke="black" cx="808" cy="-327" rx="67.1751" ry="18.3848"/>
<text text-anchor="middle" x="808" y="-323.4" font-family="Times Roman,serif" font-size="14.00">1 &#45; Product</text>
</g>
<!-- 12 &#45; __Block_Inport__ -->
<g id="node13" class="node"><title>12 &#45; __Block_Inport__</title>
<ellipse fill="#b94a62" stroke="black" cx="909" cy="-93" rx="118.794" ry="18.3848"/>
<text text-anchor="middle" x="909" y="-89.4" font-family="Times Roman,serif" font-size="14.00">12 &#45; __Block_Inport__</text>
</g>
<!-- 1 &#45; Product&#45;&gt;12 &#45; __Block_Inport__ -->
<g id="edge30" class="edge"><title>1 &#45; Product&#45;&gt;12 &#45; __Block_Inport__</title>
<path fill="none" stroke="black" d="M860.926,-315.509C890.869,-306.006 925.856,-289.165 944,-260 971.149,-216.361 945.423,-155.168 926.022,-120.258"/>
<polygon fill="black" stroke="black" points="929.037,-118.481 921.015,-111.561 922.971,-121.973 929.037,-118.481"/>
</g>
<!-- 13 &#45; __Block_Inport__ -->
<g id="node14" class="node"><title>13 &#45; __Block_Inport__</title>
<ellipse fill="#b94a62" stroke="black" cx="817" cy="-241" rx="118.087" ry="18.3848"/>
<text text-anchor="middle" x="817" y="-237.4" font-family="Times Roman,serif" font-size="14.00">13 &#45; __Block_Inport__</text>
</g>
<!-- 1 &#45; Product&#45;&gt;13 &#45; __Block_Inport__ -->
<g id="edge32" class="edge"><title>1 &#45; Product&#45;&gt;13 &#45; __Block_Inport__</title>
<path fill="none" stroke="black" d="M809.953,-308.339C811.132,-297.07 812.66,-282.474 813.991,-269.754"/>
<polygon fill="black" stroke="black" points="817.491,-269.934 815.051,-259.624 810.529,-269.206 817.491,-269.934"/>
</g>
<!-- 14 &#45; __Block_Outport__ -->
<g id="node15" class="node"><title>14 &#45; __Block_Outport__</title>
<ellipse fill="#b94a62" stroke="black" cx="553" cy="-241" rx="127.986" ry="18.3848"/>
<text text-anchor="middle" x="553" y="-237.4" font-family="Times Roman,serif" font-size="14.00">14 &#45; __Block_Outport__</text>
</g>
<!-- 1 &#45; Product&#45;&gt;14 &#45; __Block_Outport__ -->
<g id="edge2" class="edge"><title>1 &#45; Product&#45;&gt;14 &#45; __Block_Outport__</title>
<path fill="none" stroke="black" d="M765.319,-312.606C723.756,-298.588 660.185,-277.149 613.432,-261.381"/>
<polygon fill="black" stroke="black" points="614.319,-257.987 603.725,-258.107 612.082,-264.62 614.319,-257.987"/>
</g>
<!-- 2 &#45; Constant\n Value = 1.0 -->
<g id="node3" class="node"><title>2 &#45; Constant\n Value = 1.0</title>
<ellipse fill="lightblue" stroke="black" cx="489" cy="-327" rx="73.0388" ry="31.1127"/>
<text text-anchor="middle" x="489" y="-332.4" font-family="Times Roman,serif" font-size="14.00">2 &#45; Constant</text>
<text text-anchor="middle" x="489" y="-314.4" font-family="Times Roman,serif" font-size="14.00"> Value = 1.0</text>
</g>
<!-- 15 &#45; __Block_Outport__ -->
<g id="node16" class="node"><title>15 &#45; __Block_Outport__</title>
<ellipse fill="#b94a62" stroke="black" cx="279" cy="-241" rx="127.986" ry="18.3848"/>
<text text-anchor="middle" x="279" y="-237.4" font-family="Times Roman,serif" font-size="14.00">15 &#45; __Block_Outport__</text>
</g>
<!-- 2 &#45; Constant\n Value = 1.0&#45;&gt;15 &#45; __Block_Outport__ -->
<g id="edge4" class="edge"><title>2 &#45; Constant\n Value = 1.0&#45;&gt;15 &#45; __Block_Outport__</title>
<path fill="none" stroke="black" d="M436.279,-305.41C404.238,-292.288 363.478,-275.596 331.481,-262.492"/>
<polygon fill="black" stroke="black" points="332.432,-259.099 321.851,-258.549 329.779,-265.577 332.432,-259.099"/>
</g>
<!-- 3 &#45; Inport -->
<g id="node4" class="node"><title>3 &#45; Inport</title>
<ellipse fill="#eedd82" stroke="black" cx="1094" cy="-327" rx="57.9828" ry="18.3848"/>
<text text-anchor="middle" x="1094" y="-323.4" font-family="Times Roman,serif" font-size="14.00">3 &#45; Inport</text>
</g>
<!-- 16 &#45; __Block_Outport__ -->
<g id="node17" class="node"><title>16 &#45; __Block_Outport__</title>
<ellipse fill="#b94a62" stroke="black" cx="1120" cy="-241" rx="126.78" ry="18.3848"/>
<text text-anchor="middle" x="1120" y="-237.4" font-family="Times Roman,serif" font-size="14.00">16 &#45; __Block_Outport__</text>
</g>
<!-- 3 &#45; Inport&#45;&gt;16 &#45; __Block_Outport__ -->
<g id="edge6" class="edge"><title>3 &#45; Inport&#45;&gt;16 &#45; __Block_Outport__</title>
<path fill="none" stroke="black" d="M1099.64,-308.339C1103.08,-296.957 1107.55,-282.182 1111.42,-269.373"/>
<polygon fill="black" stroke="black" points="1114.83,-270.209 1114.37,-259.624 1108.13,-268.184 1114.83,-270.209"/>
</g>
<!-- 4 &#45; SubSystem -->
<g id="node5" class="node"><title>4 &#45; SubSystem</title>
<ellipse fill="lightgreen" stroke="black" cx="630" cy="-487" rx="84.8528" ry="18.3848"/>
<text text-anchor="middle" x="630" y="-483.4" font-family="Times Roman,serif" font-size="14.00">4 &#45; SubSystem</text>
</g>
<!-- 20 &#45; __Contains__ -->
<g id="node21" class="node"><title>20 &#45; __Contains__</title>
<ellipse fill="lightgray" stroke="black" cx="286" cy="-413" rx="98.9949" ry="18.3848"/>
<text text-anchor="middle" x="286" y="-409.4" font-family="Times Roman,serif" font-size="14.00">20 &#45; __Contains__</text>
</g>
<!-- 4 &#45; SubSystem&#45;&gt;20 &#45; __Contains__ -->
<g id="edge14" class="edge"><title>4 &#45; SubSystem&#45;&gt;20 &#45; __Contains__</title>
<path fill="none" stroke="black" d="M569.292,-473.941C511.161,-461.436 423.31,-442.538 360.868,-429.105"/>
<polygon fill="black" stroke="black" points="361.585,-425.68 351.073,-426.998 360.113,-432.523 361.585,-425.68"/>
</g>
<!-- 21 &#45; __Contains__ -->
<g id="node22" class="node"><title>21 &#45; __Contains__</title>
<ellipse fill="lightgray" stroke="black" cx="743" cy="-413" rx="99.9096" ry="18.3848"/>
<text text-anchor="middle" x="743" y="-409.4" font-family="Times Roman,serif" font-size="14.00">21 &#45; __Contains__</text>
</g>
<!-- 4 &#45; SubSystem&#45;&gt;21 &#45; __Contains__ -->
<g id="edge12" class="edge"><title>4 &#45; SubSystem&#45;&gt;21 &#45; __Contains__</title>
<path fill="none" stroke="black" d="M657.066,-469.275C672.051,-459.462 690.868,-447.139 707.071,-436.529"/>
<polygon fill="black" stroke="black" points="709.315,-439.243 715.763,-430.837 705.48,-433.387 709.315,-439.243"/>
</g>
<!-- 22 &#45; __Contains__ -->
<g id="node23" class="node"><title>22 &#45; __Contains__</title>
<ellipse fill="lightgray" stroke="black" cx="518" cy="-413" rx="99.201" ry="18.3848"/>
<text text-anchor="middle" x="518" y="-409.4" font-family="Times Roman,serif" font-size="14.00">22 &#45; __Contains__</text>
</g>
<!-- 4 &#45; SubSystem&#45;&gt;22 &#45; __Contains__ -->
<g id="edge10" class="edge"><title>4 &#45; SubSystem&#45;&gt;22 &#45; __Contains__</title>
<path fill="none" stroke="black" d="M603.173,-469.275C588.321,-459.462 569.671,-447.139 553.611,-436.529"/>
<polygon fill="black" stroke="black" points="555.269,-433.429 544.996,-430.837 551.41,-439.269 555.269,-433.429"/>
</g>
<!-- 23 &#45; __Contains__ -->
<g id="node24" class="node"><title>23 &#45; __Contains__</title>
<ellipse fill="lightgray" stroke="black" cx="986" cy="-413" rx="98.9949" ry="18.3848"/>
<text text-anchor="middle" x="986" y="-409.4" font-family="Times Roman,serif" font-size="14.00">23 &#45; __Contains__</text>
</g>
<!-- 4 &#45; SubSystem&#45;&gt;23 &#45; __Contains__ -->
<g id="edge8" class="edge"><title>4 &#45; SubSystem&#45;&gt;23 &#45; __Contains__</title>
<path fill="none" stroke="black" d="M691.604,-474.195C752.177,-461.604 844.773,-442.356 909.911,-428.816"/>
<polygon fill="black" stroke="black" points="910.639,-432.24 919.717,-426.778 909.214,-425.386 910.639,-432.24"/>
</g>
<!-- 5 &#45; Port_Input -->
<g id="node6" class="node"><title>5 &#45; Port_Input</title>
<ellipse fill="lightyellow" stroke="black" cx="320" cy="-19" rx="79.9031" ry="18.3848"/>
<text text-anchor="middle" x="320" y="-15.4" font-family="Times Roman,serif" font-size="14.00">5 &#45; Port_Input</text>
</g>
<!-- 6 &#45; Port_Input -->
<g id="node7" class="node"><title>6 &#45; Port_Input</title>
<ellipse fill="lightyellow" stroke="black" cx="964" cy="-19" rx="79.196" ry="18.3848"/>
<text text-anchor="middle" x="964" y="-15.4" font-family="Times Roman,serif" font-size="14.00">6 &#45; Port_Input</text>
</g>
<!-- 7 &#45; Port_Input -->
<g id="node8" class="node"><title>7 &#45; Port_Input</title>
<ellipse fill="lightyellow" stroke="black" cx="691" cy="-19" rx="79.9031" ry="18.3848"/>
<text text-anchor="middle" x="691" y="-15.4" font-family="Times Roman,serif" font-size="14.00">7 &#45; Port_Input</text>
</g>
<!-- 8 &#45; Port_Output -->
<g id="node9" class="node"><title>8 &#45; Port_Output</title>
<ellipse fill="coral" stroke="black" cx="554" cy="-167" rx="87.889" ry="18.3848"/>
<text text-anchor="middle" x="554" y="-163.4" font-family="Times Roman,serif" font-size="14.00">8 &#45; Port_Output</text>
</g>
<!-- 19 &#45; __Relation__ -->
<g id="node20" class="node"><title>19 &#45; __Relation__</title>
<ellipse fill="#f78465" stroke="black" cx="555" cy="-93" rx="96.8736" ry="18.3848"/>
<text text-anchor="middle" x="555" y="-89.4" font-family="Times Roman,serif" font-size="14.00">19 &#45; __Relation__</text>
</g>
<!-- 8 &#45; Port_Output&#45;&gt;19 &#45; __Relation__ -->
<g id="edge22" class="edge"><title>8 &#45; Port_Output&#45;&gt;19 &#45; __Relation__</title>
<path fill="none" stroke="black" d="M554.252,-148.327C554.361,-140.264 554.491,-130.648 554.612,-121.711"/>
<polygon fill="black" stroke="black" points="558.112,-121.714 554.748,-111.667 551.113,-121.619 558.112,-121.714"/>
</g>
<!-- 9 &#45; Port_Output -->
<g id="node10" class="node"><title>9 &#45; Port_Output</title>
<ellipse fill="coral" stroke="black" cx="344" cy="-167" rx="87.889" ry="18.3848"/>
<text text-anchor="middle" x="344" y="-163.4" font-family="Times Roman,serif" font-size="14.00">9 &#45; Port_Output</text>
</g>
<!-- 18 &#45; __Relation__ -->
<g id="node19" class="node"><title>18 &#45; __Relation__</title>
<ellipse fill="#f78465" stroke="black" cx="343" cy="-93" rx="96.8736" ry="18.3848"/>
<text text-anchor="middle" x="343" y="-89.4" font-family="Times Roman,serif" font-size="14.00">18 &#45; __Relation__</text>
</g>
<!-- 9 &#45; Port_Output&#45;&gt;18 &#45; __Relation__ -->
<g id="edge24" class="edge"><title>9 &#45; Port_Output&#45;&gt;18 &#45; __Relation__</title>
<path fill="none" stroke="black" d="M343.748,-148.327C343.639,-140.264 343.509,-130.648 343.388,-121.711"/>
<polygon fill="black" stroke="black" points="346.887,-121.619 343.252,-111.667 339.888,-121.714 346.887,-121.619"/>
</g>
<!-- 10 &#45; Port_Output -->
<g id="node11" class="node"><title>10 &#45; Port_Output</title>
<ellipse fill="coral" stroke="black" cx="1136" cy="-167" rx="94.7523" ry="18.3848"/>
<text text-anchor="middle" x="1136" y="-163.4" font-family="Times Roman,serif" font-size="14.00">10 &#45; Port_Output</text>
</g>
<!-- 17 &#45; __Relation__ -->
<g id="node18" class="node"><title>17 &#45; __Relation__</title>
<ellipse fill="#f78465" stroke="black" cx="1144" cy="-93" rx="97.7889" ry="18.3848"/>
<text text-anchor="middle" x="1144" y="-89.4" font-family="Times Roman,serif" font-size="14.00">17 &#45; __Relation__</text>
</g>
<!-- 10 &#45; Port_Output&#45;&gt;17 &#45; __Relation__ -->
<g id="edge26" class="edge"><title>10 &#45; Port_Output&#45;&gt;17 &#45; __Relation__</title>
<path fill="none" stroke="black" d="M1138.02,-148.327C1138.89,-140.264 1139.93,-130.648 1140.9,-121.711"/>
<polygon fill="black" stroke="black" points="1144.39,-121.986 1141.98,-111.667 1137.43,-121.233 1144.39,-121.986"/>
</g>
<!-- 11 &#45; __Block_Inport__&#45;&gt;5 &#45; Port_Input -->
<g id="edge16" class="edge"><title>11 &#45; __Block_Inport__&#45;&gt;5 &#45; Port_Input</title>
<path fill="none" stroke="black" d="M141.198,-148.61C164.606,-129.432 202.765,-98.7697 237,-74 251.961,-63.1752 268.889,-51.8071 283.537,-42.2343"/>
<polygon fill="black" stroke="black" points="285.845,-44.9088 292.325,-36.5267 282.032,-39.0383 285.845,-44.9088"/>
</g>
<!-- 12 &#45; __Block_Inport__&#45;&gt;6 &#45; Port_Input -->
<g id="edge18" class="edge"><title>12 &#45; __Block_Inport__&#45;&gt;6 &#45; Port_Input</title>
<path fill="none" stroke="black" d="M922.879,-74.3267C929.377,-65.5841 937.232,-55.0153 944.328,-45.4673"/>
<polygon fill="black" stroke="black" points="947.16,-47.5248 950.316,-37.411 941.542,-43.3491 947.16,-47.5248"/>
</g>
<!-- 13 &#45; __Block_Inport__&#45;&gt;7 &#45; Port_Input -->
<g id="edge20" class="edge"><title>13 &#45; __Block_Inport__&#45;&gt;7 &#45; Port_Input</title>
<path fill="none" stroke="black" d="M806.474,-222.454C784.285,-183.359 732.617,-92.3248 706.582,-46.4547"/>
<polygon fill="black" stroke="black" points="709.565,-44.6183 701.585,-37.6491 703.477,-48.0736 709.565,-44.6183"/>
</g>
<!-- 14 &#45; __Block_Outport__&#45;&gt;8 &#45; Port_Output -->
<g id="edge34" class="edge"><title>14 &#45; __Block_Outport__&#45;&gt;8 &#45; Port_Output</title>
<path fill="none" stroke="black" d="M553.252,-222.327C553.361,-214.264 553.491,-204.648 553.612,-195.711"/>
<polygon fill="black" stroke="black" points="557.112,-195.714 553.748,-185.667 550.113,-195.619 557.112,-195.714"/>
</g>
<!-- 15 &#45; __Block_Outport__&#45;&gt;9 &#45; Port_Output -->
<g id="edge36" class="edge"><title>15 &#45; __Block_Outport__&#45;&gt;9 &#45; Port_Output</title>
<path fill="none" stroke="black" d="M295.402,-222.327C303.159,-213.496 312.553,-202.802 321.006,-193.178"/>
<polygon fill="black" stroke="black" points="323.858,-195.234 327.828,-185.411 318.599,-190.614 323.858,-195.234"/>
</g>
<!-- 16 &#45; __Block_Outport__&#45;&gt;10 &#45; Port_Output -->
<g id="edge38" class="edge"><title>16 &#45; __Block_Outport__&#45;&gt;10 &#45; Port_Output</title>
<path fill="none" stroke="black" d="M1124.04,-222.327C1125.78,-214.264 1127.86,-204.648 1129.79,-195.711"/>
<polygon fill="black" stroke="black" points="1133.27,-196.181 1131.96,-185.667 1126.43,-194.702 1133.27,-196.181"/>
</g>
<!-- 17 &#45; __Relation__&#45;&gt;6 &#45; Port_Input -->
<g id="edge40" class="edge"><title>17 &#45; __Relation__&#45;&gt;6 &#45; Port_Input</title>
<path fill="none" stroke="black" d="M1102.7,-76.0229C1075.85,-64.9819 1040.71,-50.5369 1012.52,-38.9483"/>
<polygon fill="black" stroke="black" points="1013.83,-35.702 1003.25,-35.1368 1011.17,-42.1763 1013.83,-35.702"/>
</g>
<!-- 18 &#45; __Relation__&#45;&gt;7 &#45; Port_Input -->
<g id="edge42" class="edge"><title>18 &#45; __Relation__&#45;&gt;7 &#45; Port_Input</title>
<path fill="none" stroke="black" d="M408.048,-79.168C468.985,-66.2101 559.754,-46.9086 621.955,-33.682"/>
<polygon fill="black" stroke="black" points="623.014,-37.0351 632.067,-31.5317 621.558,-30.1882 623.014,-37.0351"/>
</g>
<!-- 19 &#45; __Relation__&#45;&gt;5 &#45; Port_Input -->
<g id="edge44" class="edge"><title>19 &#45; __Relation__&#45;&gt;5 &#45; Port_Input</title>
<path fill="none" stroke="black" d="M504.587,-77.1251C467.164,-65.3409 416.087,-49.2572 377.148,-36.9957"/>
<polygon fill="black" stroke="black" points="378.115,-33.6308 367.526,-33.9656 376.013,-40.3076 378.115,-33.6308"/>
</g>
<!-- 20 &#45; __Contains__&#45;&gt;0 &#45; Outport -->
<g id="edge46" class="edge"><title>20 &#45; __Contains__&#45;&gt;0 &#45; Outport</title>
<path fill="none" stroke="black" d="M278.839,-394.339C274.429,-382.844 268.69,-367.889 263.742,-354.993"/>
<polygon fill="black" stroke="black" points="266.997,-353.707 260.147,-345.624 260.461,-356.214 266.997,-353.707"/>
</g>
<!-- 21 &#45; __Contains__&#45;&gt;1 &#45; Product -->
<g id="edge48" class="edge"><title>21 &#45; __Contains__&#45;&gt;1 &#45; Product</title>
<path fill="none" stroke="black" d="M757.104,-394.339C766.109,-382.425 777.923,-366.794 787.902,-353.591"/>
<polygon fill="black" stroke="black" points="790.909,-355.417 794.147,-345.329 785.325,-351.196 790.909,-355.417"/>
</g>
<!-- 22 &#45; __Contains__&#45;&gt;2 &#45; Constant\n Value = 1.0 -->
<g id="edge50" class="edge"><title>22 &#45; __Contains__&#45;&gt;2 &#45; Constant\n Value = 1.0</title>
<path fill="none" stroke="black" d="M511.707,-394.339C509.037,-386.42 505.812,-376.858 502.643,-367.458"/>
<polygon fill="black" stroke="black" points="505.897,-366.155 499.385,-357.797 499.264,-368.392 505.897,-366.155"/>
</g>
<!-- 23 &#45; __Contains__&#45;&gt;3 &#45; Inport -->
<g id="edge52" class="edge"><title>23 &#45; __Contains__&#45;&gt;3 &#45; Inport</title>
<path fill="none" stroke="black" d="M1008.64,-394.972C1024.69,-382.189 1046.4,-364.9 1063.91,-350.958"/>
<polygon fill="black" stroke="black" points="1066.48,-353.384 1072.13,-344.417 1062.12,-347.908 1066.48,-353.384"/>
</g>
</g>
</svg>
