<?xml version="1.0" encoding="UTF-8" standalone="no"?>
<!DOCTYPE svg PUBLIC "-//W3C//DTD SVG 1.1//EN"
 "http://www.w3.org/Graphics/SVG/1.1/DTD/svg11.dtd">
<!-- Generated by graphviz version 2.26.3 (20100126.1600)
 -->
<!-- Title: HSimpleConstDead Pages: 1 -->
<svg width="1293pt" height="1106pt"
 viewBox="0.00 0.00 1293.00 1106.00" xmlns="http://www.w3.org/2000/svg" xmlns:xlink="http://www.w3.org/1999/xlink">
<g id="graph1" class="graph" transform="scale(1 1) rotate(0) translate(4 1102)">
<title>HSimpleConstDead</title>
<polygon fill="white" stroke="white" points="-4,5 -4,-1102 1290,-1102 1290,5 -4,5"/>
<!-- 0 &#45; Outport -->
<g id="node1" class="node"><title>0 &#45; Outport</title>
<ellipse fill="#eedd82" stroke="black" cx="212" cy="-19" rx="67.1751" ry="18.3848"/>
<text text-anchor="middle" x="212" y="-15.4" font-family="Times Roman,serif" font-size="14.00">0 &#45; Outport</text>
</g>
<!-- 1 &#45; Product -->
<g id="node2" class="node"><title>1 &#45; Product</title>
<ellipse fill="lightblue" stroke="black" cx="388" cy="-463" rx="67.1751" ry="18.3848"/>
<text text-anchor="middle" x="388" y="-459.4" font-family="Times Roman,serif" font-size="14.00">1 &#45; Product</text>
</g>
<!-- 20 &#45; __Block_Outport__ -->
<g id="node21" class="node"><title>20 &#45; __Block_Outport__</title>
<ellipse fill="#b94a62" stroke="black" cx="342" cy="-389" rx="126.072" ry="18.3848"/>
<text text-anchor="middle" x="342" y="-385.4" font-family="Times Roman,serif" font-size="14.00">20 &#45; __Block_Outport__</text>
</g>
<!-- 1 &#45; Product&#45;&gt;20 &#45; __Block_Outport__ -->
<g id="edge2" class="edge"><title>1 &#45; Product&#45;&gt;20 &#45; __Block_Outport__</title>
<path fill="none" stroke="black" d="M376.629,-444.708C371.306,-436.145 364.856,-425.769 358.972,-416.303"/>
<polygon fill="black" stroke="black" points="361.811,-414.241 353.559,-407.596 355.866,-417.936 361.811,-414.241"/>
</g>
<!-- 2 &#45; Sum -->
<g id="node3" class="node"><title>2 &#45; Sum</title>
<ellipse fill="lightblue" stroke="black" cx="1056" cy="-463" rx="50.2046" ry="18.3848"/>
<text text-anchor="middle" x="1056" y="-459.4" font-family="Times Roman,serif" font-size="14.00">2 &#45; Sum</text>
</g>
<!-- 23 &#45; __Block_Outport__ -->
<g id="node24" class="node"><title>23 &#45; __Block_Outport__</title>
<ellipse fill="#b94a62" stroke="black" cx="1056" cy="-389" rx="126.072" ry="18.3848"/>
<text text-anchor="middle" x="1056" y="-385.4" font-family="Times Roman,serif" font-size="14.00">23 &#45; __Block_Outport__</text>
</g>
<!-- 2 &#45; Sum&#45;&gt;23 &#45; __Block_Outport__ -->
<g id="edge6" class="edge"><title>2 &#45; Sum&#45;&gt;23 &#45; __Block_Outport__</title>
<path fill="none" stroke="black" d="M1056,-444.327C1056,-436.264 1056,-426.648 1056,-417.711"/>
<polygon fill="black" stroke="black" points="1059.5,-417.667 1056,-407.667 1052.5,-417.667 1059.5,-417.667"/>
</g>
<!-- 3 &#45; Inport -->
<g id="node4" class="node"><title>3 &#45; Inport</title>
<ellipse fill="#eedd82" stroke="black" cx="248" cy="-919" rx="57.9828" ry="18.3848"/>
<text text-anchor="middle" x="248" y="-915.4" font-family="Times Roman,serif" font-size="14.00">3 &#45; Inport</text>
</g>
<!-- 24 &#45; __Block_Outport__ -->
<g id="node25" class="node"><title>24 &#45; __Block_Outport__</title>
<ellipse fill="#b94a62" stroke="black" cx="248" cy="-833" rx="126.78" ry="18.3848"/>
<text text-anchor="middle" x="248" y="-829.4" font-family="Times Roman,serif" font-size="14.00">24 &#45; __Block_Outport__</text>
</g>
<!-- 3 &#45; Inport&#45;&gt;24 &#45; __Block_Outport__ -->
<g id="edge10" class="edge"><title>3 &#45; Inport&#45;&gt;24 &#45; __Block_Outport__</title>
<path fill="none" stroke="black" d="M248,-900.339C248,-889.07 248,-874.474 248,-861.754"/>
<polygon fill="black" stroke="black" points="251.5,-861.624 248,-851.624 244.5,-861.624 251.5,-861.624"/>
</g>
<!-- 4 &#45; SubSystem -->
<g id="node5" class="node"><title>4 &#45; SubSystem</title>
<ellipse fill="lightgreen" stroke="black" cx="500" cy="-1079" rx="84.8528" ry="18.3848"/>
<text text-anchor="middle" x="500" y="-1075.4" font-family="Times Roman,serif" font-size="14.00">4 &#45; SubSystem</text>
</g>
<!-- 32 &#45; __Contains__ -->
<g id="node33" class="node"><title>32 &#45; __Contains__</title>
<ellipse fill="lightgray" stroke="black" cx="99" cy="-241" rx="98.9949" ry="18.3848"/>
<text text-anchor="middle" x="99" y="-237.4" font-family="Times Roman,serif" font-size="14.00">32 &#45; __Contains__</text>
</g>
<!-- 4 &#45; SubSystem&#45;&gt;32 &#45; __Contains__ -->
<g id="edge22" class="edge"><title>4 &#45; SubSystem&#45;&gt;32 &#45; __Contains__</title>
<path fill="none" stroke="black" d="M420.453,-1072.36C337.372,-1064.25 213.596,-1048.51 173,-1024 122.776,-993.677 93,-977.668 93,-919 93,-919 93,-919 93,-389 93,-347.546 95.3791,-299.614 97.1411,-269.8"/>
<polygon fill="black" stroke="black" points="100.643,-269.875 97.7568,-259.681 93.6558,-269.45 100.643,-269.875"/>
</g>
<!-- 33 &#45; __Contains__ -->
<g id="node34" class="node"><title>33 &#45; __Contains__</title>
<ellipse fill="lightgray" stroke="black" cx="423" cy="-919" rx="98.9949" ry="18.3848"/>
<text text-anchor="middle" x="423" y="-915.4" font-family="Times Roman,serif" font-size="14.00">33 &#45; __Contains__</text>
</g>
<!-- 4 &#45; SubSystem&#45;&gt;33 &#45; __Contains__ -->
<g id="edge26" class="edge"><title>4 &#45; SubSystem&#45;&gt;33 &#45; __Contains__</title>
<path fill="none" stroke="black" d="M484.953,-1060.47C477.089,-1050.17 467.729,-1036.86 461,-1024 448.102,-999.348 437.723,-969.337 431.092,-947.723"/>
<polygon fill="black" stroke="black" points="434.358,-946.427 428.143,-937.847 427.651,-948.43 434.358,-946.427"/>
</g>
<!-- 34 &#45; __Contains__ -->
<g id="node35" class="node"><title>34 &#45; __Contains__</title>
<ellipse fill="lightgray" stroke="black" cx="1186" cy="-833" rx="98.9949" ry="18.3848"/>
<text text-anchor="middle" x="1186" y="-829.4" font-family="Times Roman,serif" font-size="14.00">34 &#45; __Contains__</text>
</g>
<!-- 4 &#45; SubSystem&#45;&gt;34 &#45; __Contains__ -->
<g id="edge30" class="edge"><title>4 &#45; SubSystem&#45;&gt;34 &#45; __Contains__</title>
<path fill="none" stroke="black" d="M581.288,-1073.55C687.868,-1065.55 868.509,-1048.85 930,-1024 1026.27,-985.089 1118.68,-900.908 1161.36,-858.504"/>
<polygon fill="black" stroke="black" points="1163.92,-860.891 1168.5,-851.336 1158.96,-855.95 1163.92,-860.891"/>
</g>
<!-- 35 &#45; __Contains__ -->
<g id="node36" class="node"><title>35 &#45; __Contains__</title>
<ellipse fill="lightgray" stroke="black" cx="281" cy="-1005" rx="98.9949" ry="18.3848"/>
<text text-anchor="middle" x="281" y="-1001.4" font-family="Times Roman,serif" font-size="14.00">35 &#45; __Contains__</text>
</g>
<!-- 4 &#45; SubSystem&#45;&gt;35 &#45; __Contains__ -->
<g id="edge34" class="edge"><title>4 &#45; SubSystem&#45;&gt;35 &#45; __Contains__</title>
<path fill="none" stroke="black" d="M453.823,-1063.4C420.329,-1052.08 374.79,-1036.69 338.867,-1024.55"/>
<polygon fill="black" stroke="black" points="339.602,-1021.11 329.008,-1021.22 337.361,-1027.74 339.602,-1021.11"/>
</g>
<!-- 36 &#45; __Contains__ -->
<g id="node37" class="node"><title>36 &#45; __Contains__</title>
<ellipse fill="lightgray" stroke="black" cx="822" cy="-1005" rx="98.9949" ry="18.3848"/>
<text text-anchor="middle" x="822" y="-1001.4" font-family="Times Roman,serif" font-size="14.00">36 &#45; __Contains__</text>
</g>
<!-- 4 &#45; SubSystem&#45;&gt;36 &#45; __Contains__ -->
<g id="edge38" class="edge"><title>4 &#45; SubSystem&#45;&gt;36 &#45; __Contains__</title>
<path fill="none" stroke="black" d="M558.685,-1065.51C612.358,-1053.18 691.934,-1034.89 749.549,-1021.65"/>
<polygon fill="black" stroke="black" points="750.357,-1025.06 759.319,-1019.4 748.789,-1018.23 750.357,-1025.06"/>
</g>
<!-- 37 &#45; __Contains__ -->
<g id="node38" class="node"><title>37 &#45; __Contains__</title>
<ellipse fill="lightgray" stroke="black" cx="569" cy="-1005" rx="99.201" ry="18.3848"/>
<text text-anchor="middle" x="569" y="-1001.4" font-family="Times Roman,serif" font-size="14.00">37 &#45; __Contains__</text>
</g>
<!-- 4 &#45; SubSystem&#45;&gt;37 &#45; __Contains__ -->
<g id="edge42" class="edge"><title>4 &#45; SubSystem&#45;&gt;37 &#45; __Contains__</title>
<path fill="none" stroke="black" d="M517.056,-1060.71C525.432,-1051.72 535.67,-1040.74 544.836,-1030.91"/>
<polygon fill="black" stroke="black" points="547.641,-1033.04 551.901,-1023.34 542.521,-1028.27 547.641,-1033.04"/>
</g>
<!-- 5 &#45; Constant\n Value = 112.32 -->
<g id="node6" class="node"><title>5 &#45; Constant\n Value = 112.32</title>
<ellipse fill="lightblue" stroke="black" cx="844" cy="-919" rx="92.839" ry="31.1127"/>
<text text-anchor="middle" x="844" y="-924.4" font-family="Times Roman,serif" font-size="14.00">5 &#45; Constant</text>
<text text-anchor="middle" x="844" y="-906.4" font-family="Times Roman,serif" font-size="14.00"> Value = 112.32</text>
</g>
<!-- 25 &#45; __Block_Outport__ -->
<g id="node26" class="node"><title>25 &#45; __Block_Outport__</title>
<ellipse fill="#b94a62" stroke="black" cx="929" cy="-833" rx="126.78" ry="18.3848"/>
<text text-anchor="middle" x="929" y="-829.4" font-family="Times Roman,serif" font-size="14.00">25 &#45; __Block_Outport__</text>
</g>
<!-- 5 &#45; Constant\n Value = 112.32&#45;&gt;25 &#45; __Block_Outport__ -->
<g id="edge14" class="edge"><title>5 &#45; Constant\n Value = 112.32&#45;&gt;25 &#45; __Block_Outport__</title>
<path fill="none" stroke="black" d="M873.252,-889.404C883.104,-879.436 894.012,-868.4 903.547,-858.753"/>
<polygon fill="black" stroke="black" points="906.313,-860.933 910.853,-851.36 901.334,-856.012 906.313,-860.933"/>
</g>
<!-- 6 &#45; Constant\n Value = 433.22 -->
<g id="node7" class="node"><title>6 &#45; Constant\n Value = 433.22</title>
<ellipse fill="lightblue" stroke="black" cx="632" cy="-919" rx="91.9239" ry="31.1127"/>
<text text-anchor="middle" x="632" y="-924.4" font-family="Times Roman,serif" font-size="14.00">6 &#45; Constant</text>
<text text-anchor="middle" x="632" y="-906.4" font-family="Times Roman,serif" font-size="14.00"> Value = 433.22</text>
</g>
<!-- 26 &#45; __Block_Outport__ -->
<g id="node27" class="node"><title>26 &#45; __Block_Outport__</title>
<ellipse fill="#b94a62" stroke="black" cx="632" cy="-833" rx="126.072" ry="18.3848"/>
<text text-anchor="middle" x="632" y="-829.4" font-family="Times Roman,serif" font-size="14.00">26 &#45; __Block_Outport__</text>
</g>
<!-- 6 &#45; Constant\n Value = 433.22&#45;&gt;26 &#45; __Block_Outport__ -->
<g id="edge18" class="edge"><title>6 &#45; Constant\n Value = 433.22&#45;&gt;26 &#45; __Block_Outport__</title>
<path fill="none" stroke="black" d="M632,-887.952C632,-879.427 632,-870.221 632,-861.827"/>
<polygon fill="black" stroke="black" points="635.5,-861.74 632,-851.74 628.5,-861.74 635.5,-861.74"/>
</g>
<!-- 7 &#45; Port_Input -->
<g id="node8" class="node"><title>7 &#45; Port_Input</title>
<ellipse fill="lightyellow" stroke="black" cx="307" cy="-167" rx="79.9031" ry="18.3848"/>
<text text-anchor="middle" x="307" y="-163.4" font-family="Times Roman,serif" font-size="14.00">7 &#45; Port_Input</text>
</g>
<!-- 17 &#45; __Block_Inport__ -->
<g id="node18" class="node"><title>17 &#45; __Block_Inport__</title>
<ellipse fill="#b94a62" stroke="black" cx="290" cy="-93" rx="119.001" ry="18.3848"/>
<text text-anchor="middle" x="290" y="-89.4" font-family="Times Roman,serif" font-size="14.00">17 &#45; __Block_Inport__</text>
</g>
<!-- 7 &#45; Port_Input&#45;&gt;17 &#45; __Block_Inport__ -->
<g id="edge68" class="edge"><title>7 &#45; Port_Input&#45;&gt;17 &#45; __Block_Inport__</title>
<path fill="none" stroke="black" d="M302.71,-148.327C300.838,-140.176 298.601,-130.438 296.529,-121.42"/>
<polygon fill="black" stroke="black" points="299.939,-120.63 294.288,-111.667 293.116,-122.197 299.939,-120.63"/>
</g>
<!-- 8 &#45; Port_Input -->
<g id="node9" class="node"><title>8 &#45; Port_Input</title>
<ellipse fill="lightyellow" stroke="black" cx="549" cy="-611" rx="79.196" ry="18.3848"/>
<text text-anchor="middle" x="549" y="-607.4" font-family="Times Roman,serif" font-size="14.00">8 &#45; Port_Input</text>
</g>
<!-- 18 &#45; __Block_Inport__ -->
<g id="node19" class="node"><title>18 &#45; __Block_Inport__</title>
<ellipse fill="#b94a62" stroke="black" cx="546" cy="-537" rx="118.087" ry="18.3848"/>
<text text-anchor="middle" x="546" y="-533.4" font-family="Times Roman,serif" font-size="14.00">18 &#45; __Block_Inport__</text>
</g>
<!-- 8 &#45; Port_Input&#45;&gt;18 &#45; __Block_Inport__ -->
<g id="edge72" class="edge"><title>8 &#45; Port_Input&#45;&gt;18 &#45; __Block_Inport__</title>
<path fill="none" stroke="black" d="M548.243,-592.327C547.916,-584.264 547.526,-574.648 547.164,-565.711"/>
<polygon fill="black" stroke="black" points="550.659,-565.517 546.757,-555.667 543.665,-565.801 550.659,-565.517"/>
</g>
<!-- 9 &#45; Port_Input -->
<g id="node10" class="node"><title>9 &#45; Port_Input</title>
<ellipse fill="lightyellow" stroke="black" cx="252" cy="-611" rx="79.196" ry="18.3848"/>
<text text-anchor="middle" x="252" y="-607.4" font-family="Times Roman,serif" font-size="14.00">9 &#45; Port_Input</text>
</g>
<!-- 19 &#45; __Block_Inport__ -->
<g id="node20" class="node"><title>19 &#45; __Block_Inport__</title>
<ellipse fill="#b94a62" stroke="black" cx="254" cy="-537" rx="118.087" ry="18.3848"/>
<text text-anchor="middle" x="254" y="-533.4" font-family="Times Roman,serif" font-size="14.00">19 &#45; __Block_Inport__</text>
</g>
<!-- 9 &#45; Port_Input&#45;&gt;19 &#45; __Block_Inport__ -->
<g id="edge76" class="edge"><title>9 &#45; Port_Input&#45;&gt;19 &#45; __Block_Inport__</title>
<path fill="none" stroke="black" d="M252.505,-592.327C252.723,-584.264 252.982,-574.648 253.224,-565.711"/>
<polygon fill="black" stroke="black" points="256.724,-565.758 253.495,-555.667 249.726,-565.569 256.724,-565.758"/>
</g>
<!-- 10 &#45; Port_Output -->
<g id="node11" class="node"><title>10 &#45; Port_Output</title>
<ellipse fill="coral" stroke="black" cx="319" cy="-315" rx="94.7523" ry="18.3848"/>
<text text-anchor="middle" x="319" y="-311.4" font-family="Times Roman,serif" font-size="14.00">10 &#45; Port_Output</text>
</g>
<!-- 29 &#45; __Relation__ -->
<g id="node30" class="node"><title>29 &#45; __Relation__</title>
<ellipse fill="#f78465" stroke="black" cx="316" cy="-241" rx="96.8736" ry="18.3848"/>
<text text-anchor="middle" x="316" y="-237.4" font-family="Times Roman,serif" font-size="14.00">29 &#45; __Relation__</text>
</g>
<!-- 10 &#45; Port_Output&#45;&gt;29 &#45; __Relation__ -->
<g id="edge54" class="edge"><title>10 &#45; Port_Output&#45;&gt;29 &#45; __Relation__</title>
<path fill="none" stroke="black" d="M318.243,-296.327C317.916,-288.264 317.526,-278.648 317.164,-269.711"/>
<polygon fill="black" stroke="black" points="320.659,-269.517 316.757,-259.667 313.665,-269.801 320.659,-269.517"/>
</g>
<!-- 11 &#45; Port_Input -->
<g id="node12" class="node"><title>11 &#45; Port_Input</title>
<ellipse fill="lightyellow" stroke="black" cx="780" cy="-611" rx="86.9741" ry="18.3848"/>
<text text-anchor="middle" x="780" y="-607.4" font-family="Times Roman,serif" font-size="14.00">11 &#45; Port_Input</text>
</g>
<!-- 21 &#45; __Block_Inport__ -->
<g id="node22" class="node"><title>21 &#45; __Block_Inport__</title>
<ellipse fill="#b94a62" stroke="black" cx="801" cy="-537" rx="118.794" ry="18.3848"/>
<text text-anchor="middle" x="801" y="-533.4" font-family="Times Roman,serif" font-size="14.00">21 &#45; __Block_Inport__</text>
</g>
<!-- 11 &#45; Port_Input&#45;&gt;21 &#45; __Block_Inport__ -->
<g id="edge80" class="edge"><title>11 &#45; Port_Input&#45;&gt;21 &#45; __Block_Inport__</title>
<path fill="none" stroke="black" d="M785.299,-592.327C787.612,-584.176 790.376,-574.438 792.935,-565.42"/>
<polygon fill="black" stroke="black" points="796.339,-566.243 795.703,-555.667 789.605,-564.332 796.339,-566.243"/>
</g>
<!-- 12 &#45; Port_Input -->
<g id="node13" class="node"><title>12 &#45; Port_Input</title>
<ellipse fill="lightyellow" stroke="black" cx="1035" cy="-611" rx="85.7684" ry="18.3848"/>
<text text-anchor="middle" x="1035" y="-607.4" font-family="Times Roman,serif" font-size="14.00">12 &#45; Port_Input</text>
</g>
<!-- 22 &#45; __Block_Inport__ -->
<g id="node23" class="node"><title>22 &#45; __Block_Inport__</title>
<ellipse fill="#b94a62" stroke="black" cx="1056" cy="-537" rx="118.087" ry="18.3848"/>
<text text-anchor="middle" x="1056" y="-533.4" font-family="Times Roman,serif" font-size="14.00">22 &#45; __Block_Inport__</text>
</g>
<!-- 12 &#45; Port_Input&#45;&gt;22 &#45; __Block_Inport__ -->
<g id="edge84" class="edge"><title>12 &#45; Port_Input&#45;&gt;22 &#45; __Block_Inport__</title>
<path fill="none" stroke="black" d="M1040.3,-592.327C1042.61,-584.176 1045.38,-574.438 1047.93,-565.42"/>
<polygon fill="black" stroke="black" points="1051.34,-566.243 1050.7,-555.667 1044.61,-564.332 1051.34,-566.243"/>
</g>
<!-- 13 &#45; Port_Output -->
<g id="node14" class="node"><title>13 &#45; Port_Output</title>
<ellipse fill="coral" stroke="black" cx="1056" cy="-315" rx="94.7523" ry="18.3848"/>
<text text-anchor="middle" x="1056" y="-311.4" font-family="Times Roman,serif" font-size="14.00">13 &#45; Port_Output</text>
</g>
<!-- 14 &#45; Port_Output -->
<g id="node15" class="node"><title>14 &#45; Port_Output</title>
<ellipse fill="coral" stroke="black" cx="248" cy="-759" rx="94.9596" ry="18.3848"/>
<text text-anchor="middle" x="248" y="-755.4" font-family="Times Roman,serif" font-size="14.00">14 &#45; Port_Output</text>
</g>
<!-- 30 &#45; __Relation__ -->
<g id="node31" class="node"><title>30 &#45; __Relation__</title>
<ellipse fill="#f78465" stroke="black" cx="252" cy="-685" rx="96.1665" ry="18.3848"/>
<text text-anchor="middle" x="252" y="-681.4" font-family="Times Roman,serif" font-size="14.00">30 &#45; __Relation__</text>
</g>
<!-- 14 &#45; Port_Output&#45;&gt;30 &#45; __Relation__ -->
<g id="edge58" class="edge"><title>14 &#45; Port_Output&#45;&gt;30 &#45; __Relation__</title>
<path fill="none" stroke="black" d="M249.009,-740.327C249.445,-732.264 249.965,-722.648 250.448,-713.711"/>
<polygon fill="black" stroke="black" points="253.946,-713.842 250.991,-703.667 246.956,-713.464 253.946,-713.842"/>
</g>
<!-- 15 &#45; Port_Output -->
<g id="node16" class="node"><title>15 &#45; Port_Output</title>
<ellipse fill="coral" stroke="black" cx="992" cy="-759" rx="94.9596" ry="18.3848"/>
<text text-anchor="middle" x="992" y="-755.4" font-family="Times Roman,serif" font-size="14.00">15 &#45; Port_Output</text>
</g>
<!-- 31 &#45; __Relation__ -->
<g id="node32" class="node"><title>31 &#45; __Relation__</title>
<ellipse fill="#f78465" stroke="black" cx="1014" cy="-685" rx="96.8736" ry="18.3848"/>
<text text-anchor="middle" x="1014" y="-681.4" font-family="Times Roman,serif" font-size="14.00">31 &#45; __Relation__</text>
</g>
<!-- 15 &#45; Port_Output&#45;&gt;31 &#45; __Relation__ -->
<g id="edge62" class="edge"><title>15 &#45; Port_Output&#45;&gt;31 &#45; __Relation__</title>
<path fill="none" stroke="black" d="M997.552,-740.327C999.975,-732.176 1002.87,-722.438 1005.55,-713.42"/>
<polygon fill="black" stroke="black" points="1008.96,-714.25 1008.45,-703.667 1002.25,-712.255 1008.96,-714.25"/>
</g>
<!-- 16 &#45; Port_Output -->
<g id="node17" class="node"><title>16 &#45; Port_Output</title>
<ellipse fill="coral" stroke="black" cx="632" cy="-759" rx="94.7523" ry="18.3848"/>
<text text-anchor="middle" x="632" y="-755.4" font-family="Times Roman,serif" font-size="14.00">16 &#45; Port_Output</text>
</g>
<!-- 27 &#45; __Relation__ -->
<g id="node28" class="node"><title>27 &#45; __Relation__</title>
<ellipse fill="#f78465" stroke="black" cx="560" cy="-685" rx="97.0803" ry="18.3848"/>
<text text-anchor="middle" x="560" y="-681.4" font-family="Times Roman,serif" font-size="14.00">27 &#45; __Relation__</text>
</g>
<!-- 16 &#45; Port_Output&#45;&gt;27 &#45; __Relation__ -->
<g id="edge46" class="edge"><title>16 &#45; Port_Output&#45;&gt;27 &#45; __Relation__</title>
<path fill="none" stroke="black" d="M614.202,-740.708C605.375,-731.636 594.567,-720.527 584.931,-710.623"/>
<polygon fill="black" stroke="black" points="587.325,-708.065 577.843,-703.338 582.308,-712.946 587.325,-708.065"/>
</g>
<!-- 28 &#45; __Relation__ -->
<g id="node29" class="node"><title>28 &#45; __Relation__</title>
<ellipse fill="#f78465" stroke="black" cx="775" cy="-685" rx="96.8736" ry="18.3848"/>
<text text-anchor="middle" x="775" y="-681.4" font-family="Times Roman,serif" font-size="14.00">28 &#45; __Relation__</text>
</g>
<!-- 16 &#45; Port_Output&#45;&gt;28 &#45; __Relation__ -->
<g id="edge50" class="edge"><title>16 &#45; Port_Output&#45;&gt;28 &#45; __Relation__</title>
<path fill="none" stroke="black" d="M665.527,-741.65C685.374,-731.38 710.721,-718.263 732.026,-707.238"/>
<polygon fill="black" stroke="black" points="733.915,-710.202 741.187,-702.497 730.698,-703.985 733.915,-710.202"/>
</g>
<!-- 17 &#45; __Block_Inport__&#45;&gt;0 &#45; Outport -->
<g id="edge66" class="edge"><title>17 &#45; __Block_Inport__&#45;&gt;0 &#45; Outport</title>
<path fill="none" stroke="black" d="M270.719,-74.7079C260.918,-65.4089 248.861,-53.9706 238.228,-43.8831"/>
<polygon fill="black" stroke="black" points="240.454,-41.1699 230.79,-36.8264 235.636,-46.2481 240.454,-41.1699"/>
</g>
<!-- 18 &#45; __Block_Inport__&#45;&gt;1 &#45; Product -->
<g id="edge70" class="edge"><title>18 &#45; __Block_Inport__&#45;&gt;1 &#45; Product</title>
<path fill="none" stroke="black" d="M508.155,-519.275C485.024,-508.442 455.362,-494.549 431.297,-483.278"/>
<polygon fill="black" stroke="black" points="432.579,-480.014 422.038,-478.942 429.61,-486.353 432.579,-480.014"/>
</g>
<!-- 19 &#45; __Block_Inport__&#45;&gt;1 &#45; Product -->
<g id="edge74" class="edge"><title>19 &#45; __Block_Inport__&#45;&gt;1 &#45; Product</title>
<path fill="none" stroke="black" d="M286.438,-519.087C305.245,-508.7 329.056,-495.551 348.895,-484.595"/>
<polygon fill="black" stroke="black" points="350.636,-487.632 357.698,-479.734 347.252,-481.504 350.636,-487.632"/>
</g>
<!-- 20 &#45; __Block_Outport__&#45;&gt;10 &#45; Port_Output -->
<g id="edge4" class="edge"><title>20 &#45; __Block_Outport__&#45;&gt;10 &#45; Port_Output</title>
<path fill="none" stroke="black" d="M336.196,-370.327C333.663,-362.176 330.636,-352.438 327.833,-343.42"/>
<polygon fill="black" stroke="black" points="331.112,-342.178 324.802,-333.667 324.428,-344.256 331.112,-342.178"/>
</g>
<!-- 21 &#45; __Block_Inport__&#45;&gt;2 &#45; Sum -->
<g id="edge78" class="edge"><title>21 &#45; __Block_Inport__&#45;&gt;2 &#45; Sum</title>
<path fill="none" stroke="black" d="M857.277,-520.669C902.044,-507.678 964.059,-489.681 1006.85,-477.264"/>
<polygon fill="black" stroke="black" points="1007.85,-480.617 1016.48,-474.468 1005.9,-473.894 1007.85,-480.617"/>
</g>
<!-- 22 &#45; __Block_Inport__&#45;&gt;2 &#45; Sum -->
<g id="edge82" class="edge"><title>22 &#45; __Block_Inport__&#45;&gt;2 &#45; Sum</title>
<path fill="none" stroke="black" d="M1056,-518.327C1056,-510.264 1056,-500.648 1056,-491.711"/>
<polygon fill="black" stroke="black" points="1059.5,-491.667 1056,-481.667 1052.5,-491.667 1059.5,-491.667"/>
</g>
<!-- 23 &#45; __Block_Outport__&#45;&gt;13 &#45; Port_Output -->
<g id="edge8" class="edge"><title>23 &#45; __Block_Outport__&#45;&gt;13 &#45; Port_Output</title>
<path fill="none" stroke="black" d="M1056,-370.327C1056,-362.264 1056,-352.648 1056,-343.711"/>
<polygon fill="black" stroke="black" points="1059.5,-343.667 1056,-333.667 1052.5,-343.667 1059.5,-343.667"/>
</g>
<!-- 24 &#45; __Block_Outport__&#45;&gt;14 &#45; Port_Output -->
<g id="edge12" class="edge"><title>24 &#45; __Block_Outport__&#45;&gt;14 &#45; Port_Output</title>
<path fill="none" stroke="black" d="M248,-814.327C248,-806.264 248,-796.648 248,-787.711"/>
<polygon fill="black" stroke="black" points="251.5,-787.667 248,-777.667 244.5,-787.667 251.5,-787.667"/>
</g>
<!-- 25 &#45; __Block_Outport__&#45;&gt;15 &#45; Port_Output -->
<g id="edge16" class="edge"><title>25 &#45; __Block_Outport__&#45;&gt;15 &#45; Port_Output</title>
<path fill="none" stroke="black" d="M944.898,-814.327C952.416,-805.496 961.52,-794.802 969.713,-785.178"/>
<polygon fill="black" stroke="black" points="972.508,-787.294 976.326,-777.411 967.178,-782.756 972.508,-787.294"/>
</g>
<!-- 26 &#45; __Block_Outport__&#45;&gt;16 &#45; Port_Output -->
<g id="edge20" class="edge"><title>26 &#45; __Block_Outport__&#45;&gt;16 &#45; Port_Output</title>
<path fill="none" stroke="black" d="M632,-814.327C632,-806.264 632,-796.648 632,-787.711"/>
<polygon fill="black" stroke="black" points="635.5,-787.667 632,-777.667 628.5,-787.667 635.5,-787.667"/>
</g>
<!-- 27 &#45; __Relation__&#45;&gt;8 &#45; Port_Input -->
<g id="edge48" class="edge"><title>27 &#45; __Relation__&#45;&gt;8 &#45; Port_Input</title>
<path fill="none" stroke="black" d="M557.224,-666.327C556.026,-658.264 554.596,-648.648 553.268,-639.711"/>
<polygon fill="black" stroke="black" points="556.707,-639.044 551.775,-629.667 549.783,-640.073 556.707,-639.044"/>
</g>
<!-- 28 &#45; __Relation__&#45;&gt;11 &#45; Port_Input -->
<g id="edge52" class="edge"><title>28 &#45; __Relation__&#45;&gt;11 &#45; Port_Input</title>
<path fill="none" stroke="black" d="M776.262,-666.327C776.806,-658.264 777.456,-648.648 778.06,-639.711"/>
<polygon fill="black" stroke="black" points="781.556,-639.881 778.739,-629.667 774.572,-639.409 781.556,-639.881"/>
</g>
<!-- 29 &#45; __Relation__&#45;&gt;7 &#45; Port_Input -->
<g id="edge56" class="edge"><title>29 &#45; __Relation__&#45;&gt;7 &#45; Port_Input</title>
<path fill="none" stroke="black" d="M313.729,-222.327C312.748,-214.264 311.579,-204.648 310.492,-195.711"/>
<polygon fill="black" stroke="black" points="313.952,-195.172 309.27,-185.667 307.003,-196.017 313.952,-195.172"/>
</g>
<!-- 30 &#45; __Relation__&#45;&gt;9 &#45; Port_Input -->
<g id="edge60" class="edge"><title>30 &#45; __Relation__&#45;&gt;9 &#45; Port_Input</title>
<path fill="none" stroke="black" d="M252,-666.327C252,-658.264 252,-648.648 252,-639.711"/>
<polygon fill="black" stroke="black" points="255.5,-639.667 252,-629.667 248.5,-639.667 255.5,-639.667"/>
</g>
<!-- 31 &#45; __Relation__&#45;&gt;12 &#45; Port_Input -->
<g id="edge64" class="edge"><title>31 &#45; __Relation__&#45;&gt;12 &#45; Port_Input</title>
<path fill="none" stroke="black" d="M1019.3,-666.327C1021.61,-658.176 1024.38,-648.438 1026.93,-639.42"/>
<polygon fill="black" stroke="black" points="1030.34,-640.243 1029.7,-629.667 1023.61,-638.332 1030.34,-640.243"/>
</g>
<!-- 32 &#45; __Contains__&#45;&gt;0 &#45; Outport -->
<g id="edge24" class="edge"><title>32 &#45; __Contains__&#45;&gt;0 &#45; Outport</title>
<path fill="none" stroke="black" d="M103.536,-222.428C111.866,-190.461 131.586,-123.687 162,-74 168.461,-63.4442 177.099,-53.0783 185.375,-44.2414"/>
<polygon fill="black" stroke="black" points="188.043,-46.5184 192.492,-36.903 183.017,-41.6453 188.043,-46.5184"/>
</g>
<!-- 33 &#45; __Contains__&#45;&gt;1 &#45; Product -->
<g id="edge28" class="edge"><title>33 &#45; __Contains__&#45;&gt;1 &#45; Product</title>
<path fill="none" stroke="black" d="M421.563,-900.274C416.123,-829.397 396.771,-577.267 390.201,-491.672"/>
<polygon fill="black" stroke="black" points="393.685,-491.333 389.43,-481.63 386.706,-491.869 393.685,-491.333"/>
</g>
<!-- 34 &#45; __Contains__&#45;&gt;2 &#45; Sum -->
<g id="edge32" class="edge"><title>34 &#45; __Contains__&#45;&gt;2 &#45; Sum</title>
<path fill="none" stroke="black" d="M1189.32,-814.379C1194,-786.393 1202,-731.778 1202,-685 1202,-685 1202,-685 1202,-611 1202,-568.813 1209.59,-550.755 1183,-518 1164.87,-495.668 1135.93,-482.195 1110.25,-474.179"/>
<polygon fill="black" stroke="black" points="1111.18,-470.804 1100.6,-471.367 1109.22,-477.524 1111.18,-470.804"/>
</g>
<!-- 35 &#45; __Contains__&#45;&gt;3 &#45; Inport -->
<g id="edge36" class="edge"><title>35 &#45; __Contains__&#45;&gt;3 &#45; Inport</title>
<path fill="none" stroke="black" d="M273.839,-986.339C269.429,-974.844 263.69,-959.889 258.742,-946.993"/>
<polygon fill="black" stroke="black" points="261.997,-945.707 255.147,-937.624 255.461,-948.214 261.997,-945.707"/>
</g>
<!-- 36 &#45; __Contains__&#45;&gt;5 &#45; Constant\n Value = 112.32 -->
<g id="edge40" class="edge"><title>36 &#45; __Contains__&#45;&gt;5 &#45; Constant\n Value = 112.32</title>
<path fill="none" stroke="black" d="M826.774,-986.339C828.76,-978.576 831.15,-969.234 833.508,-960.014"/>
<polygon fill="black" stroke="black" points="836.947,-960.693 836.035,-950.137 830.165,-958.958 836.947,-960.693"/>
</g>
<!-- 37 &#45; __Contains__&#45;&gt;6 &#45; Constant\n Value = 433.22 -->
<g id="edge44" class="edge"><title>37 &#45; __Contains__&#45;&gt;6 &#45; Constant\n Value = 433.22</title>
<path fill="none" stroke="black" d="M582.67,-986.339C588.89,-977.848 596.493,-967.47 603.85,-957.428"/>
<polygon fill="black" stroke="black" points="606.849,-959.256 609.935,-949.12 601.202,-955.119 606.849,-959.256"/>
</g>
</g>
</svg>
