<?xml version="1.0" encoding="UTF-8" standalone="no"?>
<!DOCTYPE svg PUBLIC "-//W3C//DTD SVG 1.1//EN"
 "http://www.w3.org/Graphics/SVG/1.1/DTD/svg11.dtd">
<!-- Generated by graphviz version 2.26.3 (20100126.1600)
 -->
<!-- Title: HSimpleConst Pages: 1 -->
<svg width="979pt" height="1550pt"
 viewBox="0.00 0.00 979.00 1550.00" xmlns="http://www.w3.org/2000/svg" xmlns:xlink="http://www.w3.org/1999/xlink">
<g id="graph1" class="graph" transform="scale(1 1) rotate(0) translate(4 1546)">
<title>HSimpleConst</title>
<polygon fill="white" stroke="white" points="-4,5 -4,-1546 976,-1546 976,5 -4,5"/>
<!-- 0 &#45; Outport -->
<g id="node1" class="node"><title>0 &#45; Outport</title>
<ellipse fill="#eedd82" stroke="black" cx="271" cy="-19" rx="67.1751" ry="18.3848"/>
<text text-anchor="middle" x="271" y="-15.4" font-family="Times Roman,serif" font-size="14.00">0 &#45; Outport</text>
</g>
<!-- 1 &#45; Product -->
<g id="node2" class="node"><title>1 &#45; Product</title>
<ellipse fill="lightblue" stroke="black" cx="590" cy="-463" rx="67.1751" ry="18.3848"/>
<text text-anchor="middle" x="590" y="-459.4" font-family="Times Roman,serif" font-size="14.00">1 &#45; Product</text>
</g>
<!-- 20 &#45; __Block_Outport__ -->
<g id="node21" class="node"><title>20 &#45; __Block_Outport__</title>
<ellipse fill="#b94a62" stroke="black" cx="469" cy="-389" rx="126.072" ry="18.3848"/>
<text text-anchor="middle" x="469" y="-385.4" font-family="Times Roman,serif" font-size="14.00">20 &#45; __Block_Outport__</text>
</g>
<!-- 1 &#45; Product&#45;&gt;20 &#45; __Block_Outport__ -->
<g id="edge2" class="edge"><title>1 &#45; Product&#45;&gt;20 &#45; __Block_Outport__</title>
<path fill="none" stroke="black" d="M562.24,-446.023C546.079,-436.139 525.458,-423.528 507.72,-412.68"/>
<polygon fill="black" stroke="black" points="509.102,-409.423 498.745,-407.191 505.45,-415.395 509.102,-409.423"/>
</g>
<!-- 2 &#45; Sum -->
<g id="node3" class="node"><title>2 &#45; Sum</title>
<ellipse fill="lightblue" stroke="black" cx="436" cy="-907" rx="50.2046" ry="18.3848"/>
<text text-anchor="middle" x="436" y="-903.4" font-family="Times Roman,serif" font-size="14.00">2 &#45; Sum</text>
</g>
<!-- 24 &#45; __Block_Outport__ -->
<g id="node25" class="node"><title>24 &#45; __Block_Outport__</title>
<ellipse fill="#b94a62" stroke="black" cx="439" cy="-833" rx="126.78" ry="18.3848"/>
<text text-anchor="middle" x="439" y="-829.4" font-family="Times Roman,serif" font-size="14.00">24 &#45; __Block_Outport__</text>
</g>
<!-- 2 &#45; Sum&#45;&gt;24 &#45; __Block_Outport__ -->
<g id="edge10" class="edge"><title>2 &#45; Sum&#45;&gt;24 &#45; __Block_Outport__</title>
<path fill="none" stroke="black" d="M436.757,-888.327C437.084,-880.264 437.474,-870.648 437.836,-861.711"/>
<polygon fill="black" stroke="black" points="441.335,-861.801 438.243,-851.667 434.341,-861.517 441.335,-861.801"/>
</g>
<!-- 3 &#45; Inport -->
<g id="node4" class="node"><title>3 &#45; Inport</title>
<ellipse fill="#eedd82" stroke="black" cx="751" cy="-1363" rx="57.9828" ry="18.3848"/>
<text text-anchor="middle" x="751" y="-1359.4" font-family="Times Roman,serif" font-size="14.00">3 &#45; Inport</text>
</g>
<!-- 25 &#45; __Block_Outport__ -->
<g id="node26" class="node"><title>25 &#45; __Block_Outport__</title>
<ellipse fill="#b94a62" stroke="black" cx="737" cy="-1277" rx="126.78" ry="18.3848"/>
<text text-anchor="middle" x="737" y="-1273.4" font-family="Times Roman,serif" font-size="14.00">25 &#45; __Block_Outport__</text>
</g>
<!-- 3 &#45; Inport&#45;&gt;25 &#45; __Block_Outport__ -->
<g id="edge14" class="edge"><title>3 &#45; Inport&#45;&gt;25 &#45; __Block_Outport__</title>
<path fill="none" stroke="black" d="M747.962,-1344.34C746.128,-1333.07 743.752,-1318.47 741.681,-1305.75"/>
<polygon fill="black" stroke="black" points="745.093,-1304.93 740.032,-1295.62 738.184,-1306.06 745.093,-1304.93"/>
</g>
<!-- 4 &#45; SubSystem -->
<g id="node5" class="node"><title>4 &#45; SubSystem</title>
<ellipse fill="lightgreen" stroke="black" cx="471" cy="-1523" rx="84.8528" ry="18.3848"/>
<text text-anchor="middle" x="471" y="-1519.4" font-family="Times Roman,serif" font-size="14.00">4 &#45; SubSystem</text>
</g>
<!-- 32 &#45; __Contains__ -->
<g id="node33" class="node"><title>32 &#45; __Contains__</title>
<ellipse fill="lightgray" stroke="black" cx="100" cy="-907" rx="98.9949" ry="18.3848"/>
<text text-anchor="middle" x="100" y="-903.4" font-family="Times Roman,serif" font-size="14.00">32 &#45; __Contains__</text>
</g>
<!-- 4 &#45; SubSystem&#45;&gt;32 &#45; __Contains__ -->
<g id="edge22" class="edge"><title>4 &#45; SubSystem&#45;&gt;32 &#45; __Contains__</title>
<path fill="none" stroke="black" d="M386.844,-1520.33C282.714,-1515.57 112.807,-1502.61 61,-1468 16.1217,-1438.02 0,-1416.97 0,-1363 0,-1363 0,-1363 0,-1055 0,-1004.9 39.8292,-959.089 69.2148,-932.108"/>
<polygon fill="black" stroke="black" points="71.6737,-934.605 76.8066,-925.337 67.0142,-929.381 71.6737,-934.605"/>
</g>
<!-- 33 &#45; __Contains__ -->
<g id="node34" class="node"><title>33 &#45; __Contains__</title>
<ellipse fill="lightgray" stroke="black" cx="872" cy="-833" rx="98.9949" ry="18.3848"/>
<text text-anchor="middle" x="872" y="-829.4" font-family="Times Roman,serif" font-size="14.00">33 &#45; __Contains__</text>
</g>
<!-- 4 &#45; SubSystem&#45;&gt;33 &#45; __Contains__ -->
<g id="edge26" class="edge"><title>4 &#45; SubSystem&#45;&gt;33 &#45; __Contains__</title>
<path fill="none" stroke="black" d="M554.054,-1518.95C647.17,-1512.97 790.918,-1498.92 835,-1468 878.471,-1437.51 892,-1416.1 892,-1363 892,-1363 892,-1363 892,-981 892,-939.203 884.07,-891.36 878.196,-861.659"/>
<polygon fill="black" stroke="black" points="881.569,-860.682 876.144,-851.582 874.71,-862.079 881.569,-860.682"/>
</g>
<!-- 34 &#45; __Contains__ -->
<g id="node35" class="node"><title>34 &#45; __Contains__</title>
<ellipse fill="lightgray" stroke="black" cx="169" cy="-1449" rx="98.9949" ry="18.3848"/>
<text text-anchor="middle" x="169" y="-1445.4" font-family="Times Roman,serif" font-size="14.00">34 &#45; __Contains__</text>
</g>
<!-- 4 &#45; SubSystem&#45;&gt;34 &#45; __Contains__ -->
<g id="edge30" class="edge"><title>4 &#45; SubSystem&#45;&gt;34 &#45; __Contains__</title>
<path fill="none" stroke="black" d="M414.55,-1509.17C364.808,-1496.98 292.16,-1479.18 238.784,-1466.1"/>
<polygon fill="black" stroke="black" points="239.598,-1462.7 229.052,-1463.71 237.932,-1469.49 239.598,-1462.7"/>
</g>
<!-- 35 &#45; __Contains__ -->
<g id="node36" class="node"><title>35 &#45; __Contains__</title>
<ellipse fill="lightgray" stroke="black" cx="576" cy="-1363" rx="98.9949" ry="18.3848"/>
<text text-anchor="middle" x="576" y="-1359.4" font-family="Times Roman,serif" font-size="14.00">35 &#45; __Contains__</text>
</g>
<!-- 4 &#45; SubSystem&#45;&gt;35 &#45; __Contains__ -->
<g id="edge34" class="edge"><title>4 &#45; SubSystem&#45;&gt;35 &#45; __Contains__</title>
<path fill="none" stroke="black" d="M484.865,-1504.66C492.729,-1494.08 502.638,-1480.45 511,-1468 528.392,-1442.11 547.007,-1411.74 559.839,-1390.34"/>
<polygon fill="black" stroke="black" points="563.012,-1391.85 565.133,-1381.47 557.002,-1388.26 563.012,-1391.85"/>
</g>
<!-- 36 &#45; __Contains__ -->
<g id="node37" class="node"><title>36 &#45; __Contains__</title>
<ellipse fill="lightgray" stroke="black" cx="727" cy="-1449" rx="98.9949" ry="18.3848"/>
<text text-anchor="middle" x="727" y="-1445.4" font-family="Times Roman,serif" font-size="14.00">36 &#45; __Contains__</text>
</g>
<!-- 4 &#45; SubSystem&#45;&gt;36 &#45; __Contains__ -->
<g id="edge38" class="edge"><title>4 &#45; SubSystem&#45;&gt;36 &#45; __Contains__</title>
<path fill="none" stroke="black" d="M522.19,-1508.2C562.886,-1496.44 620.02,-1479.92 663.607,-1467.32"/>
<polygon fill="black" stroke="black" points="664.616,-1470.68 673.251,-1464.54 662.672,-1463.95 664.616,-1470.68"/>
</g>
<!-- 37 &#45; __Contains__ -->
<g id="node38" class="node"><title>37 &#45; __Contains__</title>
<ellipse fill="lightgray" stroke="black" cx="403" cy="-1449" rx="99.201" ry="18.3848"/>
<text text-anchor="middle" x="403" y="-1445.4" font-family="Times Roman,serif" font-size="14.00">37 &#45; __Contains__</text>
</g>
<!-- 4 &#45; SubSystem&#45;&gt;37 &#45; __Contains__ -->
<g id="edge42" class="edge"><title>4 &#45; SubSystem&#45;&gt;37 &#45; __Contains__</title>
<path fill="none" stroke="black" d="M454.191,-1504.71C445.936,-1495.72 435.846,-1484.74 426.814,-1474.91"/>
<polygon fill="black" stroke="black" points="429.195,-1472.33 419.851,-1467.34 424.04,-1477.07 429.195,-1472.33"/>
</g>
<!-- 5 &#45; Constant\n Value = 433.22 -->
<g id="node6" class="node"><title>5 &#45; Constant\n Value = 433.22</title>
<ellipse fill="lightblue" stroke="black" cx="159" cy="-1363" rx="91.9239" ry="31.1127"/>
<text text-anchor="middle" x="159" y="-1368.4" font-family="Times Roman,serif" font-size="14.00">5 &#45; Constant</text>
<text text-anchor="middle" x="159" y="-1350.4" font-family="Times Roman,serif" font-size="14.00"> Value = 433.22</text>
</g>
<!-- 21 &#45; __Block_Outport__ -->
<g id="node22" class="node"><title>21 &#45; __Block_Outport__</title>
<ellipse fill="#b94a62" stroke="black" cx="156" cy="-1277" rx="127.986" ry="18.3848"/>
<text text-anchor="middle" x="156" y="-1273.4" font-family="Times Roman,serif" font-size="14.00">21 &#45; __Block_Outport__</text>
</g>
<!-- 5 &#45; Constant\n Value = 433.22&#45;&gt;21 &#45; __Block_Outport__ -->
<g id="edge6" class="edge"><title>5 &#45; Constant\n Value = 433.22&#45;&gt;21 &#45; __Block_Outport__</title>
<path fill="none" stroke="black" d="M157.917,-1331.95C157.62,-1323.43 157.298,-1314.22 157.006,-1305.83"/>
<polygon fill="black" stroke="black" points="160.5,-1305.61 156.654,-1295.74 153.505,-1305.86 160.5,-1305.61"/>
</g>
<!-- 6 &#45; Constant\n Value = 112.32 -->
<g id="node7" class="node"><title>6 &#45; Constant\n Value = 112.32</title>
<ellipse fill="lightblue" stroke="black" cx="366" cy="-1363" rx="92.839" ry="31.1127"/>
<text text-anchor="middle" x="366" y="-1368.4" font-family="Times Roman,serif" font-size="14.00">6 &#45; Constant</text>
<text text-anchor="middle" x="366" y="-1350.4" font-family="Times Roman,serif" font-size="14.00"> Value = 112.32</text>
</g>
<!-- 26 &#45; __Block_Outport__ -->
<g id="node27" class="node"><title>26 &#45; __Block_Outport__</title>
<ellipse fill="#b94a62" stroke="black" cx="428" cy="-1277" rx="126.072" ry="18.3848"/>
<text text-anchor="middle" x="428" y="-1273.4" font-family="Times Roman,serif" font-size="14.00">26 &#45; __Block_Outport__</text>
</g>
<!-- 6 &#45; Constant\n Value = 112.32&#45;&gt;26 &#45; __Block_Outport__ -->
<g id="edge18" class="edge"><title>6 &#45; Constant\n Value = 112.32&#45;&gt;26 &#45; __Block_Outport__</title>
<path fill="none" stroke="black" d="M388.033,-1332.44C394.786,-1323.07 402.159,-1312.84 408.713,-1303.75"/>
<polygon fill="black" stroke="black" points="411.691,-1305.61 414.699,-1295.45 406.012,-1301.51 411.691,-1305.61"/>
</g>
<!-- 7 &#45; Port_Input -->
<g id="node8" class="node"><title>7 &#45; Port_Input</title>
<ellipse fill="lightyellow" stroke="black" cx="365" cy="-167" rx="79.9031" ry="18.3848"/>
<text text-anchor="middle" x="365" y="-163.4" font-family="Times Roman,serif" font-size="14.00">7 &#45; Port_Input</text>
</g>
<!-- 17 &#45; __Block_Inport__ -->
<g id="node18" class="node"><title>17 &#45; __Block_Inport__</title>
<ellipse fill="#b94a62" stroke="black" cx="349" cy="-93" rx="119.001" ry="18.3848"/>
<text text-anchor="middle" x="349" y="-89.4" font-family="Times Roman,serif" font-size="14.00">17 &#45; __Block_Inport__</text>
</g>
<!-- 7 &#45; Port_Input&#45;&gt;17 &#45; __Block_Inport__ -->
<g id="edge68" class="edge"><title>7 &#45; Port_Input&#45;&gt;17 &#45; __Block_Inport__</title>
<path fill="none" stroke="black" d="M360.963,-148.327C359.219,-140.264 357.14,-130.648 355.208,-121.711"/>
<polygon fill="black" stroke="black" points="358.571,-120.702 353.036,-111.667 351.729,-122.181 358.571,-120.702"/>
</g>
<!-- 8 &#45; Port_Input -->
<g id="node9" class="node"><title>8 &#45; Port_Input</title>
<ellipse fill="lightyellow" stroke="black" cx="493" cy="-611" rx="79.196" ry="18.3848"/>
<text text-anchor="middle" x="493" y="-607.4" font-family="Times Roman,serif" font-size="14.00">8 &#45; Port_Input</text>
</g>
<!-- 18 &#45; __Block_Inport__ -->
<g id="node19" class="node"><title>18 &#45; __Block_Inport__</title>
<ellipse fill="#b94a62" stroke="black" cx="515" cy="-537" rx="118.087" ry="18.3848"/>
<text text-anchor="middle" x="515" y="-533.4" font-family="Times Roman,serif" font-size="14.00">18 &#45; __Block_Inport__</text>
</g>
<!-- 8 &#45; Port_Input&#45;&gt;18 &#45; __Block_Inport__ -->
<g id="edge72" class="edge"><title>8 &#45; Port_Input&#45;&gt;18 &#45; __Block_Inport__</title>
<path fill="none" stroke="black" d="M498.552,-592.327C500.975,-584.176 503.87,-574.438 506.551,-565.42"/>
<polygon fill="black" stroke="black" points="509.955,-566.25 509.45,-555.667 503.246,-564.255 509.955,-566.25"/>
</g>
<!-- 9 &#45; Port_Input -->
<g id="node10" class="node"><title>9 &#45; Port_Input</title>
<ellipse fill="lightyellow" stroke="black" cx="695" cy="-1055" rx="79.196" ry="18.3848"/>
<text text-anchor="middle" x="695" y="-1051.4" font-family="Times Roman,serif" font-size="14.00">9 &#45; Port_Input</text>
</g>
<!-- 19 &#45; __Block_Inport__ -->
<g id="node20" class="node"><title>19 &#45; __Block_Inport__</title>
<ellipse fill="#b94a62" stroke="black" cx="672" cy="-759" rx="118.087" ry="18.3848"/>
<text text-anchor="middle" x="672" y="-755.4" font-family="Times Roman,serif" font-size="14.00">19 &#45; __Block_Inport__</text>
</g>
<!-- 9 &#45; Port_Input&#45;&gt;19 &#45; __Block_Inport__ -->
<g id="edge76" class="edge"><title>9 &#45; Port_Input&#45;&gt;19 &#45; __Block_Inport__</title>
<path fill="none" stroke="black" d="M693.561,-1036.48C689.673,-986.441 678.932,-848.207 674.241,-787.837"/>
<polygon fill="black" stroke="black" points="677.702,-787.208 673.438,-777.509 670.724,-787.75 677.702,-787.208"/>
</g>
<!-- 10 &#45; Port_Output -->
<g id="node11" class="node"><title>10 &#45; Port_Output</title>
<ellipse fill="coral" stroke="black" cx="461" cy="-315" rx="94.7523" ry="18.3848"/>
<text text-anchor="middle" x="461" y="-311.4" font-family="Times Roman,serif" font-size="14.00">10 &#45; Port_Output</text>
</g>
<!-- 29 &#45; __Relation__ -->
<g id="node30" class="node"><title>29 &#45; __Relation__</title>
<ellipse fill="#f78465" stroke="black" cx="397" cy="-241" rx="96.8736" ry="18.3848"/>
<text text-anchor="middle" x="397" y="-237.4" font-family="Times Roman,serif" font-size="14.00">29 &#45; __Relation__</text>
</g>
<!-- 10 &#45; Port_Output&#45;&gt;29 &#45; __Relation__ -->
<g id="edge54" class="edge"><title>10 &#45; Port_Output&#45;&gt;29 &#45; __Relation__</title>
<path fill="none" stroke="black" d="M445.18,-296.708C437.41,-287.725 427.914,-276.745 419.413,-266.915"/>
<polygon fill="black" stroke="black" points="422.049,-264.612 412.86,-259.338 416.754,-269.191 422.049,-264.612"/>
</g>
<!-- 11 &#45; Port_Output -->
<g id="node12" class="node"><title>11 &#45; Port_Output</title>
<ellipse fill="coral" stroke="black" cx="158" cy="-1203" rx="96.1665" ry="18.3848"/>
<text text-anchor="middle" x="158" y="-1199.4" font-family="Times Roman,serif" font-size="14.00">11 &#45; Port_Output</text>
</g>
<!-- 28 &#45; __Relation__ -->
<g id="node29" class="node"><title>28 &#45; __Relation__</title>
<ellipse fill="#f78465" stroke="black" cx="162" cy="-1129" rx="96.8736" ry="18.3848"/>
<text text-anchor="middle" x="162" y="-1125.4" font-family="Times Roman,serif" font-size="14.00">28 &#45; __Relation__</text>
</g>
<!-- 11 &#45; Port_Output&#45;&gt;28 &#45; __Relation__ -->
<g id="edge50" class="edge"><title>11 &#45; Port_Output&#45;&gt;28 &#45; __Relation__</title>
<path fill="none" stroke="black" d="M159.009,-1184.33C159.445,-1176.26 159.965,-1166.65 160.448,-1157.71"/>
<polygon fill="black" stroke="black" points="163.946,-1157.84 160.991,-1147.67 156.956,-1157.46 163.946,-1157.84"/>
</g>
<!-- 12 &#45; Port_Input -->
<g id="node13" class="node"><title>12 &#45; Port_Input</title>
<ellipse fill="lightyellow" stroke="black" cx="173" cy="-1055" rx="85.7684" ry="18.3848"/>
<text text-anchor="middle" x="173" y="-1051.4" font-family="Times Roman,serif" font-size="14.00">12 &#45; Port_Input</text>
</g>
<!-- 22 &#45; __Block_Inport__ -->
<g id="node23" class="node"><title>22 &#45; __Block_Inport__</title>
<ellipse fill="#b94a62" stroke="black" cx="178" cy="-981" rx="118.087" ry="18.3848"/>
<text text-anchor="middle" x="178" y="-977.4" font-family="Times Roman,serif" font-size="14.00">22 &#45; __Block_Inport__</text>
</g>
<!-- 12 &#45; Port_Input&#45;&gt;22 &#45; __Block_Inport__ -->
<g id="edge80" class="edge"><title>12 &#45; Port_Input&#45;&gt;22 &#45; __Block_Inport__</title>
<path fill="none" stroke="black" d="M174.262,-1036.33C174.806,-1028.26 175.456,-1018.65 176.06,-1009.71"/>
<polygon fill="black" stroke="black" points="179.556,-1009.88 176.739,-999.667 172.572,-1009.41 179.556,-1009.88"/>
</g>
<!-- 13 &#45; Port_Input -->
<g id="node14" class="node"><title>13 &#45; Port_Input</title>
<ellipse fill="lightyellow" stroke="black" cx="433" cy="-1055" rx="85.7684" ry="18.3848"/>
<text text-anchor="middle" x="433" y="-1051.4" font-family="Times Roman,serif" font-size="14.00">13 &#45; Port_Input</text>
</g>
<!-- 23 &#45; __Block_Inport__ -->
<g id="node24" class="node"><title>23 &#45; __Block_Inport__</title>
<ellipse fill="#b94a62" stroke="black" cx="435" cy="-981" rx="118.087" ry="18.3848"/>
<text text-anchor="middle" x="435" y="-977.4" font-family="Times Roman,serif" font-size="14.00">23 &#45; __Block_Inport__</text>
</g>
<!-- 13 &#45; Port_Input&#45;&gt;23 &#45; __Block_Inport__ -->
<g id="edge84" class="edge"><title>13 &#45; Port_Input&#45;&gt;23 &#45; __Block_Inport__</title>
<path fill="none" stroke="black" d="M433.505,-1036.33C433.723,-1028.26 433.982,-1018.65 434.224,-1009.71"/>
<polygon fill="black" stroke="black" points="437.724,-1009.76 434.495,-999.667 430.726,-1009.57 437.724,-1009.76"/>
</g>
<!-- 14 &#45; Port_Output -->
<g id="node15" class="node"><title>14 &#45; Port_Output</title>
<ellipse fill="coral" stroke="black" cx="440" cy="-759" rx="94.9596" ry="18.3848"/>
<text text-anchor="middle" x="440" y="-755.4" font-family="Times Roman,serif" font-size="14.00">14 &#45; Port_Output</text>
</g>
<!-- 27 &#45; __Relation__ -->
<g id="node28" class="node"><title>27 &#45; __Relation__</title>
<ellipse fill="#f78465" stroke="black" cx="482" cy="-685" rx="97.0803" ry="18.3848"/>
<text text-anchor="middle" x="482" y="-681.4" font-family="Times Roman,serif" font-size="14.00">27 &#45; __Relation__</text>
</g>
<!-- 14 &#45; Port_Output&#45;&gt;27 &#45; __Relation__ -->
<g id="edge46" class="edge"><title>14 &#45; Port_Output&#45;&gt;27 &#45; __Relation__</title>
<path fill="none" stroke="black" d="M450.598,-740.327C455.41,-731.849 461.196,-721.654 466.484,-712.338"/>
<polygon fill="black" stroke="black" points="469.658,-713.836 471.551,-703.411 463.571,-710.38 469.658,-713.836"/>
</g>
<!-- 15 &#45; Port_Output -->
<g id="node16" class="node"><title>15 &#45; Port_Output</title>
<ellipse fill="coral" stroke="black" cx="725" cy="-1203" rx="94.9596" ry="18.3848"/>
<text text-anchor="middle" x="725" y="-1199.4" font-family="Times Roman,serif" font-size="14.00">15 &#45; Port_Output</text>
</g>
<!-- 30 &#45; __Relation__ -->
<g id="node31" class="node"><title>30 &#45; __Relation__</title>
<ellipse fill="#f78465" stroke="black" cx="719" cy="-1129" rx="96.1665" ry="18.3848"/>
<text text-anchor="middle" x="719" y="-1125.4" font-family="Times Roman,serif" font-size="14.00">30 &#45; __Relation__</text>
</g>
<!-- 15 &#45; Port_Output&#45;&gt;30 &#45; __Relation__ -->
<g id="edge58" class="edge"><title>15 &#45; Port_Output&#45;&gt;30 &#45; __Relation__</title>
<path fill="none" stroke="black" d="M723.486,-1184.33C722.832,-1176.26 722.053,-1166.65 721.328,-1157.71"/>
<polygon fill="black" stroke="black" points="724.81,-1157.35 720.514,-1147.67 717.833,-1157.92 724.81,-1157.35"/>
</g>
<!-- 16 &#45; Port_Output -->
<g id="node17" class="node"><title>16 &#45; Port_Output</title>
<ellipse fill="coral" stroke="black" cx="428" cy="-1203" rx="94.7523" ry="18.3848"/>
<text text-anchor="middle" x="428" y="-1199.4" font-family="Times Roman,serif" font-size="14.00">16 &#45; Port_Output</text>
</g>
<!-- 31 &#45; __Relation__ -->
<g id="node32" class="node"><title>31 &#45; __Relation__</title>
<ellipse fill="#f78465" stroke="black" cx="429" cy="-1129" rx="96.8736" ry="18.3848"/>
<text text-anchor="middle" x="429" y="-1125.4" font-family="Times Roman,serif" font-size="14.00">31 &#45; __Relation__</text>
</g>
<!-- 16 &#45; Port_Output&#45;&gt;31 &#45; __Relation__ -->
<g id="edge62" class="edge"><title>16 &#45; Port_Output&#45;&gt;31 &#45; __Relation__</title>
<path fill="none" stroke="black" d="M428.252,-1184.33C428.361,-1176.26 428.491,-1166.65 428.612,-1157.71"/>
<polygon fill="black" stroke="black" points="432.112,-1157.71 428.748,-1147.67 425.113,-1157.62 432.112,-1157.71"/>
</g>
<!-- 17 &#45; __Block_Inport__&#45;&gt;0 &#45; Outport -->
<g id="edge66" class="edge"><title>17 &#45; __Block_Inport__&#45;&gt;0 &#45; Outport</title>
<path fill="none" stroke="black" d="M329.719,-74.7079C319.918,-65.4089 307.861,-53.9706 297.228,-43.8831"/>
<polygon fill="black" stroke="black" points="299.454,-41.1699 289.79,-36.8264 294.636,-46.2481 299.454,-41.1699"/>
</g>
<!-- 18 &#45; __Block_Inport__&#45;&gt;1 &#45; Product -->
<g id="edge70" class="edge"><title>18 &#45; __Block_Inport__&#45;&gt;1 &#45; Product</title>
<path fill="none" stroke="black" d="M533.539,-518.708C542.964,-509.409 554.557,-497.971 564.781,-487.883"/>
<polygon fill="black" stroke="black" points="567.273,-490.341 571.933,-480.826 562.356,-485.358 567.273,-490.341"/>
</g>
<!-- 19 &#45; __Block_Inport__&#45;&gt;1 &#45; Product -->
<g id="edge74" class="edge"><title>19 &#45; __Block_Inport__&#45;&gt;1 &#45; Product</title>
<path fill="none" stroke="black" d="M673.484,-740.398C676.045,-698.464 677.964,-594.273 642,-518 636.712,-506.785 628.257,-496.365 619.689,-487.678"/>
<polygon fill="black" stroke="black" points="621.85,-484.901 612.207,-480.513 617.009,-489.957 621.85,-484.901"/>
</g>
<!-- 20 &#45; __Block_Outport__&#45;&gt;10 &#45; Port_Output -->
<g id="edge4" class="edge"><title>20 &#45; __Block_Outport__&#45;&gt;10 &#45; Port_Output</title>
<path fill="none" stroke="black" d="M466.981,-370.327C466.11,-362.264 465.07,-352.648 464.104,-343.711"/>
<polygon fill="black" stroke="black" points="467.573,-343.233 463.018,-333.667 460.613,-343.986 467.573,-343.233"/>
</g>
<!-- 21 &#45; __Block_Outport__&#45;&gt;11 &#45; Port_Output -->
<g id="edge8" class="edge"><title>21 &#45; __Block_Outport__&#45;&gt;11 &#45; Port_Output</title>
<path fill="none" stroke="black" d="M156.505,-1258.33C156.723,-1250.26 156.982,-1240.65 157.224,-1231.71"/>
<polygon fill="black" stroke="black" points="160.724,-1231.76 157.495,-1221.67 153.726,-1231.57 160.724,-1231.76"/>
</g>
<!-- 22 &#45; __Block_Inport__&#45;&gt;2 &#45; Sum -->
<g id="edge78" class="edge"><title>22 &#45; __Block_Inport__&#45;&gt;2 &#45; Sum</title>
<path fill="none" stroke="black" d="M234.619,-964.76C280.032,-951.735 343.139,-933.635 386.542,-921.186"/>
<polygon fill="black" stroke="black" points="387.661,-924.506 396.308,-918.385 385.731,-917.777 387.661,-924.506"/>
</g>
<!-- 23 &#45; __Block_Inport__&#45;&gt;2 &#45; Sum -->
<g id="edge82" class="edge"><title>23 &#45; __Block_Inport__&#45;&gt;2 &#45; Sum</title>
<path fill="none" stroke="black" d="M435.252,-962.327C435.361,-954.264 435.491,-944.648 435.612,-935.711"/>
<polygon fill="black" stroke="black" points="439.112,-935.714 435.748,-925.667 432.113,-935.619 439.112,-935.714"/>
</g>
<!-- 24 &#45; __Block_Outport__&#45;&gt;14 &#45; Port_Output -->
<g id="edge12" class="edge"><title>24 &#45; __Block_Outport__&#45;&gt;14 &#45; Port_Output</title>
<path fill="none" stroke="black" d="M439.252,-814.327C439.361,-806.264 439.491,-796.648 439.612,-787.711"/>
<polygon fill="black" stroke="black" points="443.112,-787.714 439.748,-777.667 436.113,-787.619 443.112,-787.714"/>
</g>
<!-- 25 &#45; __Block_Outport__&#45;&gt;15 &#45; Port_Output -->
<g id="edge16" class="edge"><title>25 &#45; __Block_Outport__&#45;&gt;15 &#45; Port_Output</title>
<path fill="none" stroke="black" d="M733.972,-1258.33C732.664,-1250.26 731.105,-1240.65 729.656,-1231.71"/>
<polygon fill="black" stroke="black" points="733.083,-1230.98 728.027,-1221.67 726.173,-1232.1 733.083,-1230.98"/>
</g>
<!-- 26 &#45; __Block_Outport__&#45;&gt;16 &#45; Port_Output -->
<g id="edge20" class="edge"><title>26 &#45; __Block_Outport__&#45;&gt;16 &#45; Port_Output</title>
<path fill="none" stroke="black" d="M428,-1258.33C428,-1250.26 428,-1240.65 428,-1231.71"/>
<polygon fill="black" stroke="black" points="431.5,-1231.67 428,-1221.67 424.5,-1231.67 431.5,-1231.67"/>
</g>
<!-- 27 &#45; __Relation__&#45;&gt;8 &#45; Port_Input -->
<g id="edge48" class="edge"><title>27 &#45; __Relation__&#45;&gt;8 &#45; Port_Input</title>
<path fill="none" stroke="black" d="M484.776,-666.327C485.974,-658.264 487.404,-648.648 488.732,-639.711"/>
<polygon fill="black" stroke="black" points="492.217,-640.073 490.225,-629.667 485.293,-639.044 492.217,-640.073"/>
</g>
<!-- 28 &#45; __Relation__&#45;&gt;12 &#45; Port_Input -->
<g id="edge52" class="edge"><title>28 &#45; __Relation__&#45;&gt;12 &#45; Port_Input</title>
<path fill="none" stroke="black" d="M164.776,-1110.33C165.974,-1102.26 167.404,-1092.65 168.732,-1083.71"/>
<polygon fill="black" stroke="black" points="172.217,-1084.07 170.225,-1073.67 165.293,-1083.04 172.217,-1084.07"/>
</g>
<!-- 29 &#45; __Relation__&#45;&gt;7 &#45; Port_Input -->
<g id="edge56" class="edge"><title>29 &#45; __Relation__&#45;&gt;7 &#45; Port_Input</title>
<path fill="none" stroke="black" d="M388.925,-222.327C385.297,-213.937 380.942,-203.866 376.948,-194.629"/>
<polygon fill="black" stroke="black" points="380.143,-193.2 372.962,-185.411 373.718,-195.979 380.143,-193.2"/>
</g>
<!-- 30 &#45; __Relation__&#45;&gt;9 &#45; Port_Input -->
<g id="edge60" class="edge"><title>30 &#45; __Relation__&#45;&gt;9 &#45; Port_Input</title>
<path fill="none" stroke="black" d="M712.944,-1110.33C710.3,-1102.18 707.142,-1092.44 704.217,-1083.42"/>
<polygon fill="black" stroke="black" points="707.469,-1082.1 701.054,-1073.67 700.81,-1084.26 707.469,-1082.1"/>
</g>
<!-- 31 &#45; __Relation__&#45;&gt;13 &#45; Port_Input -->
<g id="edge64" class="edge"><title>31 &#45; __Relation__&#45;&gt;13 &#45; Port_Input</title>
<path fill="none" stroke="black" d="M430.009,-1110.33C430.445,-1102.26 430.965,-1092.65 431.448,-1083.71"/>
<polygon fill="black" stroke="black" points="434.946,-1083.84 431.991,-1073.67 427.956,-1083.46 434.946,-1083.84"/>
</g>
<!-- 32 &#45; __Contains__&#45;&gt;0 &#45; Outport -->
<g id="edge24" class="edge"><title>32 &#45; __Contains__&#45;&gt;0 &#45; Outport</title>
<path fill="none" stroke="black" d="M121.33,-888.809C149.064,-863.002 194,-812.877 194,-759 194,-759 194,-759 194,-167 194,-123.96 199.982,-111.559 221,-74 226.946,-63.374 235.302,-53.109 243.483,-44.3826"/>
<polygon fill="black" stroke="black" points="246.076,-46.7373 250.563,-37.1395 241.07,-41.8444 246.076,-46.7373"/>
</g>
<!-- 33 &#45; __Contains__&#45;&gt;1 &#45; Product -->
<g id="edge28" class="edge"><title>33 &#45; __Contains__&#45;&gt;1 &#45; Product</title>
<path fill="none" stroke="black" d="M864.789,-814.16C854.809,-786.345 838,-732.455 838,-685 838,-685 838,-685 838,-611 838,-527.317 732.589,-489.842 659.214,-473.894"/>
<polygon fill="black" stroke="black" points="659.591,-470.397 649.087,-471.784 658.163,-477.25 659.591,-470.397"/>
</g>
<!-- 34 &#45; __Contains__&#45;&gt;5 &#45; Constant\n Value = 433.22 -->
<g id="edge32" class="edge"><title>34 &#45; __Contains__&#45;&gt;5 &#45; Constant\n Value = 433.22</title>
<path fill="none" stroke="black" d="M166.83,-1430.34C165.937,-1422.66 164.864,-1413.43 163.803,-1404.31"/>
<polygon fill="black" stroke="black" points="167.252,-1403.67 162.621,-1394.14 160.299,-1404.47 167.252,-1403.67"/>
</g>
<!-- 35 &#45; __Contains__&#45;&gt;2 &#45; Sum -->
<g id="edge36" class="edge"><title>35 &#45; __Contains__&#45;&gt;2 &#45; Sum</title>
<path fill="none" stroke="black" d="M577.157,-1344.29C578.9,-1314.43 582,-1254.15 582,-1203 582,-1203 582,-1203 582,-1055 582,-1012.72 588.765,-994.727 562,-962 544.058,-940.062 515.653,-926.642 490.352,-918.559"/>
<polygon fill="black" stroke="black" points="491.055,-915.116 480.471,-915.614 489.055,-921.825 491.055,-915.116"/>
</g>
<!-- 36 &#45; __Contains__&#45;&gt;3 &#45; Inport -->
<g id="edge40" class="edge"><title>36 &#45; __Contains__&#45;&gt;3 &#45; Inport</title>
<path fill="none" stroke="black" d="M732.208,-1430.34C735.384,-1418.96 739.507,-1404.18 743.082,-1391.37"/>
<polygon fill="black" stroke="black" points="746.486,-1392.2 745.803,-1381.62 739.743,-1390.32 746.486,-1392.2"/>
</g>
<!-- 37 &#45; __Contains__&#45;&gt;6 &#45; Constant\n Value = 112.32 -->
<g id="edge44" class="edge"><title>37 &#45; __Contains__&#45;&gt;6 &#45; Constant\n Value = 112.32</title>
<path fill="none" stroke="black" d="M394.972,-1430.34C391.528,-1422.34 387.364,-1412.66 383.279,-1403.16"/>
<polygon fill="black" stroke="black" points="386.417,-1401.6 379.25,-1393.8 379.987,-1404.37 386.417,-1401.6"/>
</g>
</g>
</svg>
