<?xml version="1.0" encoding="UTF-8" standalone="no"?>
<!DOCTYPE svg PUBLIC "-//W3C//DTD SVG 1.1//EN"
 "http://www.w3.org/Graphics/SVG/1.1/DTD/svg11.dtd">
<!-- Generated by graphviz version 2.26.3 (20100126.1600)
 -->
<!-- Title: HSimpleConstDead_opt Pages: 1 -->
<svg width="1255pt" height="514pt"
 viewBox="0.00 0.00 1255.00 514.00" xmlns="http://www.w3.org/2000/svg" xmlns:xlink="http://www.w3.org/1999/xlink">
<g id="graph1" class="graph" transform="scale(1 1) rotate(0) translate(4 510)">
<title>HSimpleConstDead_opt</title>
<polygon fill="white" stroke="white" points="-4,5 -4,-510 1252,-510 1252,5 -4,5"/>
<!-- 0 &#45; Outport -->
<g id="node1" class="node"><title>0 &#45; Outport</title>
<ellipse fill="#eedd82" stroke="black" cx="129" cy="-327" rx="67.1751" ry="18.3848"/>
<text text-anchor="middle" x="129" y="-323.4" font-family="Times Roman,serif" font-size="14.00">0 &#45; Outport</text>
</g>
<!-- 11 &#45; __Block_Inport__ -->
<g id="node12" class="node"><title>11 &#45; __Block_Inport__</title>
<ellipse fill="#b94a62" stroke="black" cx="119" cy="-167" rx="119.001" ry="18.3848"/>
<text text-anchor="middle" x="119" y="-163.4" font-family="Times Roman,serif" font-size="14.00">11 &#45; __Block_Inport__</text>
</g>
<!-- 0 &#45; Outport&#45;&gt;11 &#45; __Block_Inport__ -->
<g id="edge28" class="edge"><title>0 &#45; Outport&#45;&gt;11 &#45; __Block_Inport__</title>
<path fill="none" stroke="black" d="M127.833,-308.333C126.102,-280.634 122.839,-228.419 120.8,-195.797"/>
<polygon fill="black" stroke="black" points="124.276,-195.31 120.159,-185.548 117.29,-195.747 124.276,-195.31"/>
</g>
<!-- 1 &#45; Product -->
<g id="node2" class="node"><title>1 &#45; Product</title>
<ellipse fill="lightblue" stroke="black" cx="798" cy="-327" rx="67.1751" ry="18.3848"/>
<text text-anchor="middle" x="798" y="-323.4" font-family="Times Roman,serif" font-size="14.00">1 &#45; Product</text>
</g>
<!-- 12 &#45; __Block_Inport__ -->
<g id="node13" class="node"><title>12 &#45; __Block_Inport__</title>
<ellipse fill="#b94a62" stroke="black" cx="909" cy="-93" rx="118.794" ry="18.3848"/>
<text text-anchor="middle" x="909" y="-89.4" font-family="Times Roman,serif" font-size="14.00">12 &#45; __Block_Inport__</text>
</g>
<!-- 1 &#45; Product&#45;&gt;12 &#45; __Block_Inport__ -->
<g id="edge30" class="edge"><title>1 &#45; Product&#45;&gt;12 &#45; __Block_Inport__</title>
<path fill="none" stroke="black" d="M853.958,-316.777C886.219,-307.705 924.201,-290.87 944,-260 971.746,-216.739 945.809,-155.412 926.208,-120.376"/>
<polygon fill="black" stroke="black" points="929.191,-118.542 921.148,-111.645 923.134,-122.052 929.191,-118.542"/>
</g>
<!-- 13 &#45; __Block_Inport__ -->
<g id="node14" class="node"><title>13 &#45; __Block_Inport__</title>
<ellipse fill="#b94a62" stroke="black" cx="817" cy="-241" rx="118.087" ry="18.3848"/>
<text text-anchor="middle" x="817" y="-237.4" font-family="Times Roman,serif" font-size="14.00">13 &#45; __Block_Inport__</text>
</g>
<!-- 1 &#45; Product&#45;&gt;13 &#45; __Block_Inport__ -->
<g id="edge32" class="edge"><title>1 &#45; Product&#45;&gt;13 &#45; __Block_Inport__</title>
<path fill="none" stroke="black" d="M802.123,-308.339C804.613,-297.07 807.837,-282.474 810.647,-269.754"/>
<polygon fill="black" stroke="black" points="814.146,-270.144 812.885,-259.624 807.31,-268.634 814.146,-270.144"/>
</g>
<!-- 14 &#45; __Block_Outport__ -->
<g id="node15" class="node"><title>14 &#45; __Block_Outport__</title>
<ellipse fill="#b94a62" stroke="black" cx="553" cy="-241" rx="127.986" ry="18.3848"/>
<text text-anchor="middle" x="553" y="-237.4" font-family="Times Roman,serif" font-size="14.00">14 &#45; __Block_Outport__</text>
</g>
<!-- 1 &#45; Product&#45;&gt;14 &#45; __Block_Outport__ -->
<g id="edge2" class="edge"><title>1 &#45; Product&#45;&gt;14 &#45; __Block_Outport__</title>
<path fill="none" stroke="black" d="M756.439,-312.411C716.629,-298.437 656.175,-277.217 611.506,-261.537"/>
<polygon fill="black" stroke="black" points="612.537,-258.189 601.942,-258.18 610.219,-264.794 612.537,-258.189"/>
</g>
<!-- 2 &#45; Inport -->
<g id="node3" class="node"><title>2 &#45; Inport</title>
<ellipse fill="#eedd82" stroke="black" cx="312" cy="-327" rx="58.1882" ry="18.3848"/>
<text text-anchor="middle" x="312" y="-323.4" font-family="Times Roman,serif" font-size="14.00">2 &#45; Inport</text>
</g>
<!-- 15 &#45; __Block_Outport__ -->
<g id="node16" class="node"><title>15 &#45; __Block_Outport__</title>
<ellipse fill="#b94a62" stroke="black" cx="279" cy="-241" rx="127.986" ry="18.3848"/>
<text text-anchor="middle" x="279" y="-237.4" font-family="Times Roman,serif" font-size="14.00">15 &#45; __Block_Outport__</text>
</g>
<!-- 2 &#45; Inport&#45;&gt;15 &#45; __Block_Outport__ -->
<g id="edge4" class="edge"><title>2 &#45; Inport&#45;&gt;15 &#45; __Block_Outport__</title>
<path fill="none" stroke="black" d="M304.839,-308.339C300.429,-296.844 294.69,-281.889 289.742,-268.993"/>
<polygon fill="black" stroke="black" points="292.997,-267.707 286.147,-259.624 286.461,-270.214 292.997,-267.707"/>
</g>
<!-- 3 &#45; SubSystem -->
<g id="node4" class="node"><title>3 &#45; SubSystem</title>
<ellipse fill="lightgreen" stroke="black" cx="575" cy="-487" rx="84.1457" ry="18.3848"/>
<text text-anchor="middle" x="575" y="-483.4" font-family="Times Roman,serif" font-size="14.00">3 &#45; SubSystem</text>
</g>
<!-- 20 &#45; __Contains__ -->
<g id="node21" class="node"><title>20 &#45; __Contains__</title>
<ellipse fill="lightgray" stroke="black" cx="204" cy="-413" rx="98.9949" ry="18.3848"/>
<text text-anchor="middle" x="204" y="-409.4" font-family="Times Roman,serif" font-size="14.00">20 &#45; __Contains__</text>
</g>
<!-- 3 &#45; SubSystem&#45;&gt;20 &#45; __Contains__ -->
<g id="edge12" class="edge"><title>3 &#45; SubSystem&#45;&gt;20 &#45; __Contains__</title>
<path fill="none" stroke="black" d="M512.484,-474.531C448.909,-461.85 350.256,-442.172 281.695,-428.497"/>
<polygon fill="black" stroke="black" points="282.297,-425.048 271.805,-426.524 280.927,-431.913 282.297,-425.048"/>
</g>
<!-- 21 &#45; __Contains__ -->
<g id="node22" class="node"><title>21 &#45; __Contains__</title>
<ellipse fill="lightgray" stroke="black" cx="693" cy="-413" rx="99.9096" ry="18.3848"/>
<text text-anchor="middle" x="693" y="-409.4" font-family="Times Roman,serif" font-size="14.00">21 &#45; __Contains__</text>
</g>
<!-- 3 &#45; SubSystem&#45;&gt;21 &#45; __Contains__ -->
<g id="edge10" class="edge"><title>3 &#45; SubSystem&#45;&gt;21 &#45; __Contains__</title>
<path fill="none" stroke="black" d="M602.964,-469.463C618.75,-459.563 638.68,-447.065 655.773,-436.346"/>
<polygon fill="black" stroke="black" points="657.804,-439.203 664.417,-430.925 654.085,-433.273 657.804,-439.203"/>
</g>
<!-- 22 &#45; __Contains__ -->
<g id="node23" class="node"><title>22 &#45; __Contains__</title>
<ellipse fill="lightgray" stroke="black" cx="457" cy="-413" rx="99.201" ry="18.3848"/>
<text text-anchor="middle" x="457" y="-409.4" font-family="Times Roman,serif" font-size="14.00">22 &#45; __Contains__</text>
</g>
<!-- 3 &#45; SubSystem&#45;&gt;22 &#45; __Contains__ -->
<g id="edge8" class="edge"><title>3 &#45; SubSystem&#45;&gt;22 &#45; __Contains__</title>
<path fill="none" stroke="black" d="M547.036,-469.463C531.25,-459.563 511.32,-447.065 494.227,-436.346"/>
<polygon fill="black" stroke="black" points="495.915,-433.273 485.583,-430.925 492.196,-439.203 495.915,-433.273"/>
</g>
<!-- 23 &#45; __Contains__ -->
<g id="node24" class="node"><title>23 &#45; __Contains__</title>
<ellipse fill="lightgray" stroke="black" cx="930" cy="-413" rx="98.9949" ry="18.3848"/>
<text text-anchor="middle" x="930" y="-409.4" font-family="Times Roman,serif" font-size="14.00">23 &#45; __Contains__</text>
</g>
<!-- 3 &#45; SubSystem&#45;&gt;23 &#45; __Contains__ -->
<g id="edge6" class="edge"><title>3 &#45; SubSystem&#45;&gt;23 &#45; __Contains__</title>
<path fill="none" stroke="black" d="M636.027,-474.279C696.366,-461.701 788.857,-442.421 853.948,-428.853"/>
<polygon fill="black" stroke="black" points="854.672,-432.277 863.748,-426.81 853.244,-425.425 854.672,-432.277"/>
</g>
<!-- 4 &#45; Constant\n Value = 433.22 -->
<g id="node5" class="node"><title>4 &#45; Constant\n Value = 433.22</title>
<ellipse fill="lightblue" stroke="black" cx="1100" cy="-327" rx="91.9239" ry="31.1127"/>
<text text-anchor="middle" x="1100" y="-332.4" font-family="Times Roman,serif" font-size="14.00">4 &#45; Constant</text>
<text text-anchor="middle" x="1100" y="-314.4" font-family="Times Roman,serif" font-size="14.00"> Value = 433.22</text>
</g>
<!-- 16 &#45; __Block_Outport__ -->
<g id="node17" class="node"><title>16 &#45; __Block_Outport__</title>
<ellipse fill="#b94a62" stroke="black" cx="1120" cy="-241" rx="126.78" ry="18.3848"/>
<text text-anchor="middle" x="1120" y="-237.4" font-family="Times Roman,serif" font-size="14.00">16 &#45; __Block_Outport__</text>
</g>
<!-- 4 &#45; Constant\n Value = 433.22&#45;&gt;16 &#45; __Block_Outport__ -->
<g id="edge14" class="edge"><title>4 &#45; Constant\n Value = 433.22&#45;&gt;16 &#45; __Block_Outport__</title>
<path fill="none" stroke="black" d="M1107.22,-295.952C1109.23,-287.332 1111.39,-278.017 1113.36,-269.547"/>
<polygon fill="black" stroke="black" points="1116.79,-270.273 1115.64,-259.74 1109.97,-268.688 1116.79,-270.273"/>
</g>
<!-- 5 &#45; Port_Input -->
<g id="node6" class="node"><title>5 &#45; Port_Input</title>
<ellipse fill="lightyellow" stroke="black" cx="320" cy="-19" rx="79.9031" ry="18.3848"/>
<text text-anchor="middle" x="320" y="-15.4" font-family="Times Roman,serif" font-size="14.00">5 &#45; Port_Input</text>
</g>
<!-- 6 &#45; Port_Input -->
<g id="node7" class="node"><title>6 &#45; Port_Input</title>
<ellipse fill="lightyellow" stroke="black" cx="964" cy="-19" rx="79.196" ry="18.3848"/>
<text text-anchor="middle" x="964" y="-15.4" font-family="Times Roman,serif" font-size="14.00">6 &#45; Port_Input</text>
</g>
<!-- 7 &#45; Port_Input -->
<g id="node8" class="node"><title>7 &#45; Port_Input</title>
<ellipse fill="lightyellow" stroke="black" cx="691" cy="-19" rx="79.9031" ry="18.3848"/>
<text text-anchor="middle" x="691" y="-15.4" font-family="Times Roman,serif" font-size="14.00">7 &#45; Port_Input</text>
</g>
<!-- 8 &#45; Port_Output -->
<g id="node9" class="node"><title>8 &#45; Port_Output</title>
<ellipse fill="coral" stroke="black" cx="554" cy="-167" rx="87.889" ry="18.3848"/>
<text text-anchor="middle" x="554" y="-163.4" font-family="Times Roman,serif" font-size="14.00">8 &#45; Port_Output</text>
</g>
<!-- 18 &#45; __Relation__ -->
<g id="node19" class="node"><title>18 &#45; __Relation__</title>
<ellipse fill="#f78465" stroke="black" cx="555" cy="-93" rx="96.8736" ry="18.3848"/>
<text text-anchor="middle" x="555" y="-89.4" font-family="Times Roman,serif" font-size="14.00">18 &#45; __Relation__</text>
</g>
<!-- 8 &#45; Port_Output&#45;&gt;18 &#45; __Relation__ -->
<g id="edge22" class="edge"><title>8 &#45; Port_Output&#45;&gt;18 &#45; __Relation__</title>
<path fill="none" stroke="black" d="M554.252,-148.327C554.361,-140.264 554.491,-130.648 554.612,-121.711"/>
<polygon fill="black" stroke="black" points="558.112,-121.714 554.748,-111.667 551.113,-121.619 558.112,-121.714"/>
</g>
<!-- 9 &#45; Port_Output -->
<g id="node10" class="node"><title>9 &#45; Port_Output</title>
<ellipse fill="coral" stroke="black" cx="344" cy="-167" rx="87.889" ry="18.3848"/>
<text text-anchor="middle" x="344" y="-163.4" font-family="Times Roman,serif" font-size="14.00">9 &#45; Port_Output</text>
</g>
<!-- 19 &#45; __Relation__ -->
<g id="node20" class="node"><title>19 &#45; __Relation__</title>
<ellipse fill="#f78465" stroke="black" cx="343" cy="-93" rx="96.8736" ry="18.3848"/>
<text text-anchor="middle" x="343" y="-89.4" font-family="Times Roman,serif" font-size="14.00">19 &#45; __Relation__</text>
</g>
<!-- 9 &#45; Port_Output&#45;&gt;19 &#45; __Relation__ -->
<g id="edge24" class="edge"><title>9 &#45; Port_Output&#45;&gt;19 &#45; __Relation__</title>
<path fill="none" stroke="black" d="M343.748,-148.327C343.639,-140.264 343.509,-130.648 343.388,-121.711"/>
<polygon fill="black" stroke="black" points="346.887,-121.619 343.252,-111.667 339.888,-121.714 346.887,-121.619"/>
</g>
<!-- 10 &#45; Port_Output -->
<g id="node11" class="node"><title>10 &#45; Port_Output</title>
<ellipse fill="coral" stroke="black" cx="1136" cy="-167" rx="94.7523" ry="18.3848"/>
<text text-anchor="middle" x="1136" y="-163.4" font-family="Times Roman,serif" font-size="14.00">10 &#45; Port_Output</text>
</g>
<!-- 17 &#45; __Relation__ -->
<g id="node18" class="node"><title>17 &#45; __Relation__</title>
<ellipse fill="#f78465" stroke="black" cx="1144" cy="-93" rx="97.7889" ry="18.3848"/>
<text text-anchor="middle" x="1144" y="-89.4" font-family="Times Roman,serif" font-size="14.00">17 &#45; __Relation__</text>
</g>
<!-- 10 &#45; Port_Output&#45;&gt;17 &#45; __Relation__ -->
<g id="edge26" class="edge"><title>10 &#45; Port_Output&#45;&gt;17 &#45; __Relation__</title>
<path fill="none" stroke="black" d="M1138.02,-148.327C1138.89,-140.264 1139.93,-130.648 1140.9,-121.711"/>
<polygon fill="black" stroke="black" points="1144.39,-121.986 1141.98,-111.667 1137.43,-121.233 1144.39,-121.986"/>
</g>
<!-- 11 &#45; __Block_Inport__&#45;&gt;5 &#45; Port_Input -->
<g id="edge16" class="edge"><title>11 &#45; __Block_Inport__&#45;&gt;5 &#45; Port_Input</title>
<path fill="none" stroke="black" d="M141.198,-148.61C164.606,-129.432 202.765,-98.7697 237,-74 251.961,-63.1752 268.889,-51.8071 283.537,-42.2343"/>
<polygon fill="black" stroke="black" points="285.845,-44.9088 292.325,-36.5267 282.032,-39.0383 285.845,-44.9088"/>
</g>
<!-- 12 &#45; __Block_Inport__&#45;&gt;6 &#45; Port_Input -->
<g id="edge18" class="edge"><title>12 &#45; __Block_Inport__&#45;&gt;6 &#45; Port_Input</title>
<path fill="none" stroke="black" d="M922.879,-74.3267C929.377,-65.5841 937.232,-55.0153 944.328,-45.4673"/>
<polygon fill="black" stroke="black" points="947.16,-47.5248 950.316,-37.411 941.542,-43.3491 947.16,-47.5248"/>
</g>
<!-- 13 &#45; __Block_Inport__&#45;&gt;7 &#45; Port_Input -->
<g id="edge20" class="edge"><title>13 &#45; __Block_Inport__&#45;&gt;7 &#45; Port_Input</title>
<path fill="none" stroke="black" d="M806.474,-222.454C784.285,-183.359 732.617,-92.3248 706.582,-46.4547"/>
<polygon fill="black" stroke="black" points="709.565,-44.6183 701.585,-37.6491 703.477,-48.0736 709.565,-44.6183"/>
</g>
<!-- 14 &#45; __Block_Outport__&#45;&gt;8 &#45; Port_Output -->
<g id="edge34" class="edge"><title>14 &#45; __Block_Outport__&#45;&gt;8 &#45; Port_Output</title>
<path fill="none" stroke="black" d="M553.252,-222.327C553.361,-214.264 553.491,-204.648 553.612,-195.711"/>
<polygon fill="black" stroke="black" points="557.112,-195.714 553.748,-185.667 550.113,-195.619 557.112,-195.714"/>
</g>
<!-- 15 &#45; __Block_Outport__&#45;&gt;9 &#45; Port_Output -->
<g id="edge36" class="edge"><title>15 &#45; __Block_Outport__&#45;&gt;9 &#45; Port_Output</title>
<path fill="none" stroke="black" d="M295.402,-222.327C303.159,-213.496 312.553,-202.802 321.006,-193.178"/>
<polygon fill="black" stroke="black" points="323.858,-195.234 327.828,-185.411 318.599,-190.614 323.858,-195.234"/>
</g>
<!-- 16 &#45; __Block_Outport__&#45;&gt;10 &#45; Port_Output -->
<g id="edge38" class="edge"><title>16 &#45; __Block_Outport__&#45;&gt;10 &#45; Port_Output</title>
<path fill="none" stroke="black" d="M1124.04,-222.327C1125.78,-214.264 1127.86,-204.648 1129.79,-195.711"/>
<polygon fill="black" stroke="black" points="1133.27,-196.181 1131.96,-185.667 1126.43,-194.702 1133.27,-196.181"/>
</g>
<!-- 17 &#45; __Relation__&#45;&gt;6 &#45; Port_Input -->
<g id="edge40" class="edge"><title>17 &#45; __Relation__&#45;&gt;6 &#45; Port_Input</title>
<path fill="none" stroke="black" d="M1102.7,-76.0229C1075.85,-64.9819 1040.71,-50.5369 1012.52,-38.9483"/>
<polygon fill="black" stroke="black" points="1013.83,-35.702 1003.25,-35.1368 1011.17,-42.1763 1013.83,-35.702"/>
</g>
<!-- 18 &#45; __Relation__&#45;&gt;5 &#45; Port_Input -->
<g id="edge42" class="edge"><title>18 &#45; __Relation__&#45;&gt;5 &#45; Port_Input</title>
<path fill="none" stroke="black" d="M504.587,-77.1251C467.164,-65.3409 416.087,-49.2572 377.148,-36.9957"/>
<polygon fill="black" stroke="black" points="378.115,-33.6308 367.526,-33.9656 376.013,-40.3076 378.115,-33.6308"/>
</g>
<!-- 19 &#45; __Relation__&#45;&gt;7 &#45; Port_Input -->
<g id="edge44" class="edge"><title>19 &#45; __Relation__&#45;&gt;7 &#45; Port_Input</title>
<path fill="none" stroke="black" d="M408.048,-79.168C468.985,-66.2101 559.754,-46.9086 621.955,-33.682"/>
<polygon fill="black" stroke="black" points="623.014,-37.0351 632.067,-31.5317 621.558,-30.1882 623.014,-37.0351"/>
</g>
<!-- 20 &#45; __Contains__&#45;&gt;0 &#45; Outport -->
<g id="edge46" class="edge"><title>20 &#45; __Contains__&#45;&gt;0 &#45; Outport</title>
<path fill="none" stroke="black" d="M187.726,-394.339C177.166,-382.23 163.256,-366.281 151.625,-352.944"/>
<polygon fill="black" stroke="black" points="153.939,-350.271 144.728,-345.035 148.663,-354.872 153.939,-350.271"/>
</g>
<!-- 21 &#45; __Contains__&#45;&gt;1 &#45; Product -->
<g id="edge48" class="edge"><title>21 &#45; __Contains__&#45;&gt;1 &#45; Product</title>
<path fill="none" stroke="black" d="M715.268,-394.762C730.788,-382.05 751.655,-364.959 768.549,-351.122"/>
<polygon fill="black" stroke="black" points="770.964,-353.668 776.482,-344.624 766.528,-348.253 770.964,-353.668"/>
</g>
<!-- 22 &#45; __Contains__&#45;&gt;2 &#45; Inport -->
<g id="edge50" class="edge"><title>22 &#45; __Contains__&#45;&gt;2 &#45; Inport</title>
<path fill="none" stroke="black" d="M426.956,-395.181C404.154,-381.657 372.701,-363.002 348.458,-348.624"/>
<polygon fill="black" stroke="black" points="349.94,-345.433 339.553,-343.342 346.369,-351.454 349.94,-345.433"/>
</g>
<!-- 23 &#45; __Contains__&#45;&gt;4 &#45; Constant\n Value = 433.22 -->
<g id="edge52" class="edge"><title>23 &#45; __Contains__&#45;&gt;4 &#45; Constant\n Value = 433.22</title>
<path fill="none" stroke="black" d="M964.402,-395.597C986.004,-384.668 1014.46,-370.272 1039.73,-357.491"/>
<polygon fill="black" stroke="black" points="1041.53,-360.502 1048.87,-352.865 1038.37,-354.256 1041.53,-360.502"/>
</g>
</g>
</svg>
