<?xml version="1.0" encoding="UTF-8" standalone="no"?>
<!DOCTYPE svg PUBLIC "-//W3C//DTD SVG 1.1//EN"
 "http://www.w3.org/Graphics/SVG/1.1/DTD/svg11.dtd">
<!-- Generated by graphviz version 2.26.3 (20100126.1600)
 -->
<!-- Title: HSimpleConst_opt Pages: 1 -->
<svg width="1256pt" height="514pt"
 viewBox="0.00 0.00 1256.00 514.00" xmlns="http://www.w3.org/2000/svg" xmlns:xlink="http://www.w3.org/1999/xlink">
<g id="graph1" class="graph" transform="scale(1 1) rotate(0) translate(4 510)">
<title>HSimpleConst_opt</title>
<polygon fill="white" stroke="white" points="-4,5 -4,-510 1253,-510 1253,5 -4,5"/>
<!-- 0 &#45; Outport -->
<g id="node1" class="node"><title>0 &#45; Outport</title>
<ellipse fill="#eedd82" stroke="black" cx="129" cy="-327" rx="67.1751" ry="18.3848"/>
<text text-anchor="middle" x="129" y="-323.4" font-family="Times Roman,serif" font-size="14.00">0 &#45; Outport</text>
</g>
<!-- 10 &#45; __Block_Inport__ -->
<g id="node11" class="node"><title>10 &#45; __Block_Inport__</title>
<ellipse fill="#b94a62" stroke="black" cx="118" cy="-167" rx="118.087" ry="18.3848"/>
<text text-anchor="middle" x="118" y="-163.4" font-family="Times Roman,serif" font-size="14.00">10 &#45; __Block_Inport__</text>
</g>
<!-- 0 &#45; Outport&#45;&gt;10 &#45; __Block_Inport__ -->
<g id="edge26" class="edge"><title>0 &#45; Outport&#45;&gt;10 &#45; __Block_Inport__</title>
<path fill="none" stroke="black" d="M127.717,-308.333C125.812,-280.634 122.223,-228.419 119.98,-195.797"/>
<polygon fill="black" stroke="black" points="123.453,-195.285 119.275,-185.548 116.469,-195.765 123.453,-195.285"/>
</g>
<!-- 1 &#45; Product -->
<g id="node2" class="node"><title>1 &#45; Product</title>
<ellipse fill="lightblue" stroke="black" cx="797" cy="-327" rx="67.1751" ry="18.3848"/>
<text text-anchor="middle" x="797" y="-323.4" font-family="Times Roman,serif" font-size="14.00">1 &#45; Product</text>
</g>
<!-- 11 &#45; __Block_Inport__ -->
<g id="node12" class="node"><title>11 &#45; __Block_Inport__</title>
<ellipse fill="#b94a62" stroke="black" cx="907" cy="-93" rx="119.001" ry="18.3848"/>
<text text-anchor="middle" x="907" y="-89.4" font-family="Times Roman,serif" font-size="14.00">11 &#45; __Block_Inport__</text>
</g>
<!-- 1 &#45; Product&#45;&gt;11 &#45; __Block_Inport__ -->
<g id="edge28" class="edge"><title>1 &#45; Product&#45;&gt;11 &#45; __Block_Inport__</title>
<path fill="none" stroke="black" d="M853.33,-316.883C885.807,-307.849 924.049,-291.019 944,-260 971.871,-216.668 944.97,-155.366 924.736,-120.354"/>
<polygon fill="black" stroke="black" points="927.654,-118.413 919.516,-111.629 921.647,-122.007 927.654,-118.413"/>
</g>
<!-- 12 &#45; __Block_Inport__ -->
<g id="node13" class="node"><title>12 &#45; __Block_Inport__</title>
<ellipse fill="#b94a62" stroke="black" cx="816" cy="-241" rx="118.794" ry="18.3848"/>
<text text-anchor="middle" x="816" y="-237.4" font-family="Times Roman,serif" font-size="14.00">12 &#45; __Block_Inport__</text>
</g>
<!-- 1 &#45; Product&#45;&gt;12 &#45; __Block_Inport__ -->
<g id="edge30" class="edge"><title>1 &#45; Product&#45;&gt;12 &#45; __Block_Inport__</title>
<path fill="none" stroke="black" d="M801.123,-308.339C803.613,-297.07 806.837,-282.474 809.647,-269.754"/>
<polygon fill="black" stroke="black" points="813.146,-270.144 811.885,-259.624 806.31,-268.634 813.146,-270.144"/>
</g>
<!-- 13 &#45; __Block_Outport__ -->
<g id="node14" class="node"><title>13 &#45; __Block_Outport__</title>
<ellipse fill="#b94a62" stroke="black" cx="552" cy="-241" rx="126.78" ry="18.3848"/>
<text text-anchor="middle" x="552" y="-237.4" font-family="Times Roman,serif" font-size="14.00">13 &#45; __Block_Outport__</text>
</g>
<!-- 1 &#45; Product&#45;&gt;13 &#45; __Block_Outport__ -->
<g id="edge2" class="edge"><title>1 &#45; Product&#45;&gt;13 &#45; __Block_Outport__</title>
<path fill="none" stroke="black" d="M755.439,-312.411C715.629,-298.437 655.175,-277.217 610.506,-261.537"/>
<polygon fill="black" stroke="black" points="611.537,-258.189 600.942,-258.18 609.219,-264.794 611.537,-258.189"/>
</g>
<!-- 2 &#45; Inport -->
<g id="node3" class="node"><title>2 &#45; Inport</title>
<ellipse fill="#eedd82" stroke="black" cx="312" cy="-327" rx="58.1882" ry="18.3848"/>
<text text-anchor="middle" x="312" y="-323.4" font-family="Times Roman,serif" font-size="14.00">2 &#45; Inport</text>
</g>
<!-- 15 &#45; __Block_Outport__ -->
<g id="node16" class="node"><title>15 &#45; __Block_Outport__</title>
<ellipse fill="#b94a62" stroke="black" cx="279" cy="-241" rx="127.986" ry="18.3848"/>
<text text-anchor="middle" x="279" y="-237.4" font-family="Times Roman,serif" font-size="14.00">15 &#45; __Block_Outport__</text>
</g>
<!-- 2 &#45; Inport&#45;&gt;15 &#45; __Block_Outport__ -->
<g id="edge4" class="edge"><title>2 &#45; Inport&#45;&gt;15 &#45; __Block_Outport__</title>
<path fill="none" stroke="black" d="M304.839,-308.339C300.429,-296.844 294.69,-281.889 289.742,-268.993"/>
<polygon fill="black" stroke="black" points="292.997,-267.707 286.147,-259.624 286.461,-270.214 292.997,-267.707"/>
</g>
<!-- 3 &#45; SubSystem -->
<g id="node4" class="node"><title>3 &#45; SubSystem</title>
<ellipse fill="lightgreen" stroke="black" cx="574" cy="-487" rx="84.1457" ry="18.3848"/>
<text text-anchor="middle" x="574" y="-483.4" font-family="Times Roman,serif" font-size="14.00">3 &#45; SubSystem</text>
</g>
<!-- 19 &#45; __Contains__ -->
<g id="node20" class="node"><title>19 &#45; __Contains__</title>
<ellipse fill="lightgray" stroke="black" cx="204" cy="-413" rx="99.201" ry="18.3848"/>
<text text-anchor="middle" x="204" y="-409.4" font-family="Times Roman,serif" font-size="14.00">19 &#45; __Contains__</text>
</g>
<!-- 3 &#45; SubSystem&#45;&gt;19 &#45; __Contains__ -->
<g id="edge12" class="edge"><title>3 &#45; SubSystem&#45;&gt;19 &#45; __Contains__</title>
<path fill="none" stroke="black" d="M511.653,-474.531C448.249,-461.85 349.862,-442.172 281.485,-428.497"/>
<polygon fill="black" stroke="black" points="282.115,-425.054 271.622,-426.524 280.742,-431.918 282.115,-425.054"/>
</g>
<!-- 20 &#45; __Contains__ -->
<g id="node21" class="node"><title>20 &#45; __Contains__</title>
<ellipse fill="lightgray" stroke="black" cx="692" cy="-413" rx="98.9949" ry="18.3848"/>
<text text-anchor="middle" x="692" y="-409.4" font-family="Times Roman,serif" font-size="14.00">20 &#45; __Contains__</text>
</g>
<!-- 3 &#45; SubSystem&#45;&gt;20 &#45; __Contains__ -->
<g id="edge10" class="edge"><title>3 &#45; SubSystem&#45;&gt;20 &#45; __Contains__</title>
<path fill="none" stroke="black" d="M601.964,-469.463C617.75,-459.563 637.68,-447.065 654.773,-436.346"/>
<polygon fill="black" stroke="black" points="656.804,-439.203 663.417,-430.925 653.085,-433.273 656.804,-439.203"/>
</g>
<!-- 21 &#45; __Contains__ -->
<g id="node22" class="node"><title>21 &#45; __Contains__</title>
<ellipse fill="lightgray" stroke="black" cx="929" cy="-413" rx="99.9096" ry="18.3848"/>
<text text-anchor="middle" x="929" y="-409.4" font-family="Times Roman,serif" font-size="14.00">21 &#45; __Contains__</text>
</g>
<!-- 3 &#45; SubSystem&#45;&gt;21 &#45; __Contains__ -->
<g id="edge8" class="edge"><title>3 &#45; SubSystem&#45;&gt;21 &#45; __Contains__</title>
<path fill="none" stroke="black" d="M635.027,-474.279C695.272,-461.721 787.568,-442.482 852.643,-428.917"/>
<polygon fill="black" stroke="black" points="853.366,-432.341 862.441,-426.874 851.937,-425.489 853.366,-432.341"/>
</g>
<!-- 22 &#45; __Contains__ -->
<g id="node23" class="node"><title>22 &#45; __Contains__</title>
<ellipse fill="lightgray" stroke="black" cx="457" cy="-413" rx="99.201" ry="18.3848"/>
<text text-anchor="middle" x="457" y="-409.4" font-family="Times Roman,serif" font-size="14.00">22 &#45; __Contains__</text>
</g>
<!-- 3 &#45; SubSystem&#45;&gt;22 &#45; __Contains__ -->
<g id="edge6" class="edge"><title>3 &#45; SubSystem&#45;&gt;22 &#45; __Contains__</title>
<path fill="none" stroke="black" d="M546.273,-469.463C530.621,-459.563 510.86,-447.065 493.911,-436.346"/>
<polygon fill="black" stroke="black" points="495.663,-433.313 485.341,-430.925 491.922,-439.229 495.663,-433.313"/>
</g>
<!-- 4 &#45; Port_Input -->
<g id="node5" class="node"><title>4 &#45; Port_Input</title>
<ellipse fill="lightyellow" stroke="black" cx="319" cy="-19" rx="79.9031" ry="18.3848"/>
<text text-anchor="middle" x="319" y="-15.4" font-family="Times Roman,serif" font-size="14.00">4 &#45; Port_Input</text>
</g>
<!-- 5 &#45; Port_Input -->
<g id="node6" class="node"><title>5 &#45; Port_Input</title>
<ellipse fill="lightyellow" stroke="black" cx="962" cy="-19" rx="79.9031" ry="18.3848"/>
<text text-anchor="middle" x="962" y="-15.4" font-family="Times Roman,serif" font-size="14.00">5 &#45; Port_Input</text>
</g>
<!-- 6 &#45; Port_Input -->
<g id="node7" class="node"><title>6 &#45; Port_Input</title>
<ellipse fill="lightyellow" stroke="black" cx="689" cy="-19" rx="79.196" ry="18.3848"/>
<text text-anchor="middle" x="689" y="-15.4" font-family="Times Roman,serif" font-size="14.00">6 &#45; Port_Input</text>
</g>
<!-- 7 &#45; Port_Output -->
<g id="node8" class="node"><title>7 &#45; Port_Output</title>
<ellipse fill="coral" stroke="black" cx="553" cy="-167" rx="89.0955" ry="18.3848"/>
<text text-anchor="middle" x="553" y="-163.4" font-family="Times Roman,serif" font-size="14.00">7 &#45; Port_Output</text>
</g>
<!-- 17 &#45; __Relation__ -->
<g id="node18" class="node"><title>17 &#45; __Relation__</title>
<ellipse fill="#f78465" stroke="black" cx="554" cy="-93" rx="97.7889" ry="18.3848"/>
<text text-anchor="middle" x="554" y="-89.4" font-family="Times Roman,serif" font-size="14.00">17 &#45; __Relation__</text>
</g>
<!-- 7 &#45; Port_Output&#45;&gt;17 &#45; __Relation__ -->
<g id="edge20" class="edge"><title>7 &#45; Port_Output&#45;&gt;17 &#45; __Relation__</title>
<path fill="none" stroke="black" d="M553.252,-148.327C553.361,-140.264 553.491,-130.648 553.612,-121.711"/>
<polygon fill="black" stroke="black" points="557.112,-121.714 553.748,-111.667 550.113,-121.619 557.112,-121.714"/>
</g>
<!-- 8 &#45; Port_Output -->
<g id="node9" class="node"><title>8 &#45; Port_Output</title>
<ellipse fill="coral" stroke="black" cx="1134" cy="-167" rx="87.889" ry="18.3848"/>
<text text-anchor="middle" x="1134" y="-163.4" font-family="Times Roman,serif" font-size="14.00">8 &#45; Port_Output</text>
</g>
<!-- 16 &#45; __Relation__ -->
<g id="node17" class="node"><title>16 &#45; __Relation__</title>
<ellipse fill="#f78465" stroke="black" cx="1141" cy="-93" rx="96.8736" ry="18.3848"/>
<text text-anchor="middle" x="1141" y="-89.4" font-family="Times Roman,serif" font-size="14.00">16 &#45; __Relation__</text>
</g>
<!-- 8 &#45; Port_Output&#45;&gt;16 &#45; __Relation__ -->
<g id="edge22" class="edge"><title>8 &#45; Port_Output&#45;&gt;16 &#45; __Relation__</title>
<path fill="none" stroke="black" d="M1135.77,-148.327C1136.53,-140.264 1137.44,-130.648 1138.28,-121.711"/>
<polygon fill="black" stroke="black" points="1141.78,-121.953 1139.23,-111.667 1134.81,-121.293 1141.78,-121.953"/>
</g>
<!-- 9 &#45; Port_Output -->
<g id="node10" class="node"><title>9 &#45; Port_Output</title>
<ellipse fill="coral" stroke="black" cx="342" cy="-167" rx="87.889" ry="18.3848"/>
<text text-anchor="middle" x="342" y="-163.4" font-family="Times Roman,serif" font-size="14.00">9 &#45; Port_Output</text>
</g>
<!-- 18 &#45; __Relation__ -->
<g id="node19" class="node"><title>18 &#45; __Relation__</title>
<ellipse fill="#f78465" stroke="black" cx="341" cy="-93" rx="96.8736" ry="18.3848"/>
<text text-anchor="middle" x="341" y="-89.4" font-family="Times Roman,serif" font-size="14.00">18 &#45; __Relation__</text>
</g>
<!-- 9 &#45; Port_Output&#45;&gt;18 &#45; __Relation__ -->
<g id="edge24" class="edge"><title>9 &#45; Port_Output&#45;&gt;18 &#45; __Relation__</title>
<path fill="none" stroke="black" d="M341.748,-148.327C341.639,-140.264 341.509,-130.648 341.388,-121.711"/>
<polygon fill="black" stroke="black" points="344.887,-121.619 341.252,-111.667 337.888,-121.714 344.887,-121.619"/>
</g>
<!-- 10 &#45; __Block_Inport__&#45;&gt;4 &#45; Port_Input -->
<g id="edge14" class="edge"><title>10 &#45; __Block_Inport__&#45;&gt;4 &#45; Port_Input</title>
<path fill="none" stroke="black" d="M139.958,-148.549C163.125,-129.32 200.927,-98.6173 235,-74 250.237,-62.9917 267.542,-51.4985 282.469,-41.8821"/>
<polygon fill="black" stroke="black" points="284.413,-44.7932 290.95,-36.4549 280.64,-38.8972 284.413,-44.7932"/>
</g>
<!-- 11 &#45; __Block_Inport__&#45;&gt;5 &#45; Port_Input -->
<g id="edge16" class="edge"><title>11 &#45; __Block_Inport__&#45;&gt;5 &#45; Port_Input</title>
<path fill="none" stroke="black" d="M920.879,-74.3267C927.377,-65.5841 935.232,-55.0153 942.328,-45.4673"/>
<polygon fill="black" stroke="black" points="945.16,-47.5248 948.316,-37.411 939.542,-43.3491 945.16,-47.5248"/>
</g>
<!-- 12 &#45; __Block_Inport__&#45;&gt;6 &#45; Port_Input -->
<g id="edge18" class="edge"><title>12 &#45; __Block_Inport__&#45;&gt;6 &#45; Port_Input</title>
<path fill="none" stroke="black" d="M805.39,-222.454C782.97,-183.262 730.687,-91.8704 704.51,-46.1124"/>
<polygon fill="black" stroke="black" points="707.494,-44.2789 699.49,-37.3368 701.418,-47.7549 707.494,-44.2789"/>
</g>
<!-- 13 &#45; __Block_Outport__&#45;&gt;7 &#45; Port_Output -->
<g id="edge32" class="edge"><title>13 &#45; __Block_Outport__&#45;&gt;7 &#45; Port_Output</title>
<path fill="none" stroke="black" d="M552.252,-222.327C552.361,-214.264 552.491,-204.648 552.612,-195.711"/>
<polygon fill="black" stroke="black" points="556.112,-195.714 552.748,-185.667 549.113,-195.619 556.112,-195.714"/>
</g>
<!-- 14 &#45; __Block_Outport__ -->
<g id="node15" class="node"><title>14 &#45; __Block_Outport__</title>
<ellipse fill="#b94a62" stroke="black" cx="1120" cy="-241" rx="127.986" ry="18.3848"/>
<text text-anchor="middle" x="1120" y="-237.4" font-family="Times Roman,serif" font-size="14.00">14 &#45; __Block_Outport__</text>
</g>
<!-- 14 &#45; __Block_Outport__&#45;&gt;8 &#45; Port_Output -->
<g id="edge34" class="edge"><title>14 &#45; __Block_Outport__&#45;&gt;8 &#45; Port_Output</title>
<path fill="none" stroke="black" d="M1123.53,-222.327C1125.06,-214.264 1126.88,-204.648 1128.57,-195.711"/>
<polygon fill="black" stroke="black" points="1132.05,-196.144 1130.47,-185.667 1125.17,-194.842 1132.05,-196.144"/>
</g>
<!-- 15 &#45; __Block_Outport__&#45;&gt;9 &#45; Port_Output -->
<g id="edge36" class="edge"><title>15 &#45; __Block_Outport__&#45;&gt;9 &#45; Port_Output</title>
<path fill="none" stroke="black" d="M294.898,-222.327C302.416,-213.496 311.52,-202.802 319.713,-193.178"/>
<polygon fill="black" stroke="black" points="322.508,-195.294 326.326,-185.411 317.178,-190.756 322.508,-195.294"/>
</g>
<!-- 16 &#45; __Relation__&#45;&gt;5 &#45; Port_Input -->
<g id="edge38" class="edge"><title>16 &#45; __Relation__&#45;&gt;5 &#45; Port_Input</title>
<path fill="none" stroke="black" d="M1099.93,-76.0229C1073.43,-65.0681 1038.83,-50.7621 1010.91,-39.2201"/>
<polygon fill="black" stroke="black" points="1011.92,-35.8489 1001.34,-35.2629 1009.24,-42.3179 1011.92,-35.8489"/>
</g>
<!-- 17 &#45; __Relation__&#45;&gt;4 &#45; Port_Input -->
<g id="edge40" class="edge"><title>17 &#45; __Relation__&#45;&gt;4 &#45; Port_Input</title>
<path fill="none" stroke="black" d="M503.587,-77.1251C466.164,-65.3409 415.087,-49.2572 376.148,-36.9957"/>
<polygon fill="black" stroke="black" points="377.115,-33.6308 366.526,-33.9656 375.013,-40.3076 377.115,-33.6308"/>
</g>
<!-- 18 &#45; __Relation__&#45;&gt;6 &#45; Port_Input -->
<g id="edge42" class="edge"><title>18 &#45; __Relation__&#45;&gt;6 &#45; Port_Input</title>
<path fill="none" stroke="black" d="M406.048,-79.168C467.078,-66.1903 558.032,-46.8496 620.24,-33.6214"/>
<polygon fill="black" stroke="black" points="621.299,-36.9746 630.352,-31.4711 619.843,-30.1277 621.299,-36.9746"/>
</g>
<!-- 19 &#45; __Contains__&#45;&gt;0 &#45; Outport -->
<g id="edge44" class="edge"><title>19 &#45; __Contains__&#45;&gt;0 &#45; Outport</title>
<path fill="none" stroke="black" d="M187.726,-394.339C177.166,-382.23 163.256,-366.281 151.625,-352.944"/>
<polygon fill="black" stroke="black" points="153.939,-350.271 144.728,-345.035 148.663,-354.872 153.939,-350.271"/>
</g>
<!-- 20 &#45; __Contains__&#45;&gt;1 &#45; Product -->
<g id="edge46" class="edge"><title>20 &#45; __Contains__&#45;&gt;1 &#45; Product</title>
<path fill="none" stroke="black" d="M714.268,-394.762C729.788,-382.05 750.655,-364.959 767.549,-351.122"/>
<polygon fill="black" stroke="black" points="769.964,-353.668 775.482,-344.624 765.528,-348.253 769.964,-353.668"/>
</g>
<!-- 23 &#45; Constant\n Value = 545.54 -->
<g id="node24" class="node"><title>23 &#45; Constant\n Value = 545.54</title>
<ellipse fill="lightblue" stroke="black" cx="1100" cy="-327" rx="92.1303" ry="31.1127"/>
<text text-anchor="middle" x="1100" y="-332.4" font-family="Times Roman,serif" font-size="14.00">23 &#45; Constant</text>
<text text-anchor="middle" x="1100" y="-314.4" font-family="Times Roman,serif" font-size="14.00"> Value = 545.54</text>
</g>
<!-- 21 &#45; __Contains__&#45;&gt;23 &#45; Constant\n Value = 545.54 -->
<g id="edge48" class="edge"><title>21 &#45; __Contains__&#45;&gt;23 &#45; Constant\n Value = 545.54</title>
<path fill="none" stroke="black" d="M963.604,-395.597C985.334,-384.668 1013.96,-370.272 1039.37,-357.491"/>
<polygon fill="black" stroke="black" points="1041.21,-360.485 1048.57,-352.865 1038.06,-354.231 1041.21,-360.485"/>
</g>
<!-- 22 &#45; __Contains__&#45;&gt;2 &#45; Inport -->
<g id="edge50" class="edge"><title>22 &#45; __Contains__&#45;&gt;2 &#45; Inport</title>
<path fill="none" stroke="black" d="M426.956,-395.181C404.154,-381.657 372.701,-363.002 348.458,-348.624"/>
<polygon fill="black" stroke="black" points="349.94,-345.433 339.553,-343.342 346.369,-351.454 349.94,-345.433"/>
</g>
<!-- 23 &#45; Constant\n Value = 545.54&#45;&gt;14 &#45; __Block_Outport__ -->
<g id="edge52" class="edge"><title>23 &#45; Constant\n Value = 545.54&#45;&gt;14 &#45; __Block_Outport__</title>
<path fill="none" stroke="black" d="M1107.22,-295.952C1109.23,-287.332 1111.39,-278.017 1113.36,-269.547"/>
<polygon fill="black" stroke="black" points="1116.79,-270.273 1115.64,-259.74 1109.97,-268.688 1116.79,-270.273"/>
</g>
</g>
</svg>
