<?xml version="1.0" encoding="UTF-8" standalone="no"?>
<!DOCTYPE svg PUBLIC "-//W3C//DTD SVG 1.1//EN"
 "http://www.w3.org/Graphics/SVG/1.1/DTD/svg11.dtd">
<!-- Generated by graphviz version 2.26.3 (20100126.1600)
 -->
<!-- Title: HSimpleConst_opt_real Pages: 1 -->
<svg width="769pt" height="1106pt"
 viewBox="0.00 0.00 769.00 1106.00" xmlns="http://www.w3.org/2000/svg" xmlns:xlink="http://www.w3.org/1999/xlink">
<g id="graph1" class="graph" transform="scale(1 1) rotate(0) translate(4 1102)">
<title>HSimpleConst_opt_real</title>
<polygon fill="white" stroke="white" points="-4,5 -4,-1102 766,-1102 766,5 -4,5"/>
<!-- 0 &#45; Outport -->
<g id="node1" class="node"><title>0 &#45; Outport</title>
<ellipse fill="#eedd82" stroke="black" cx="195" cy="-19" rx="67.1751" ry="18.3848"/>
<text text-anchor="middle" x="195" y="-15.4" font-family="Times Roman,serif" font-size="14.00">0 &#45; Outport</text>
</g>
<!-- 1 &#45; Product -->
<g id="node2" class="node"><title>1 &#45; Product</title>
<ellipse fill="lightblue" stroke="black" cx="301" cy="-463" rx="67.1751" ry="18.3848"/>
<text text-anchor="middle" x="301" y="-459.4" font-family="Times Roman,serif" font-size="14.00">1 &#45; Product</text>
</g>
<!-- 13 &#45; __Block_Outport__ -->
<g id="node14" class="node"><title>13 &#45; __Block_Outport__</title>
<ellipse fill="#b94a62" stroke="black" cx="289" cy="-389" rx="126.78" ry="18.3848"/>
<text text-anchor="middle" x="289" y="-385.4" font-family="Times Roman,serif" font-size="14.00">13 &#45; __Block_Outport__</text>
</g>
<!-- 1 &#45; Product&#45;&gt;13 &#45; __Block_Outport__ -->
<g id="edge2" class="edge"><title>1 &#45; Product&#45;&gt;13 &#45; __Block_Outport__</title>
<path fill="none" stroke="black" d="M297.972,-444.327C296.664,-436.264 295.105,-426.648 293.656,-417.711"/>
<polygon fill="black" stroke="black" points="297.083,-416.978 292.027,-407.667 290.173,-418.099 297.083,-416.978"/>
</g>
<!-- 2 &#45; Inport -->
<g id="node3" class="node"><title>2 &#45; Inport</title>
<ellipse fill="#eedd82" stroke="black" cx="607" cy="-919" rx="58.1882" ry="18.3848"/>
<text text-anchor="middle" x="607" y="-915.4" font-family="Times Roman,serif" font-size="14.00">2 &#45; Inport</text>
</g>
<!-- 15 &#45; __Block_Outport__ -->
<g id="node16" class="node"><title>15 &#45; __Block_Outport__</title>
<ellipse fill="#b94a62" stroke="black" cx="633" cy="-833" rx="127.986" ry="18.3848"/>
<text text-anchor="middle" x="633" y="-829.4" font-family="Times Roman,serif" font-size="14.00">15 &#45; __Block_Outport__</text>
</g>
<!-- 2 &#45; Inport&#45;&gt;15 &#45; __Block_Outport__ -->
<g id="edge4" class="edge"><title>2 &#45; Inport&#45;&gt;15 &#45; __Block_Outport__</title>
<path fill="none" stroke="black" d="M612.642,-900.339C616.083,-888.957 620.55,-874.182 624.422,-861.373"/>
<polygon fill="black" stroke="black" points="627.826,-862.209 627.369,-851.624 621.125,-860.184 627.826,-862.209"/>
</g>
<!-- 3 &#45; SubSystem -->
<g id="node4" class="node"><title>3 &#45; SubSystem</title>
<ellipse fill="lightgreen" stroke="black" cx="298" cy="-1079" rx="84.1457" ry="18.3848"/>
<text text-anchor="middle" x="298" y="-1075.4" font-family="Times Roman,serif" font-size="14.00">3 &#45; SubSystem</text>
</g>
<!-- 19 &#45; __Contains__ -->
<g id="node20" class="node"><title>19 &#45; __Contains__</title>
<ellipse fill="lightgray" stroke="black" cx="99" cy="-463" rx="99.201" ry="18.3848"/>
<text text-anchor="middle" x="99" y="-459.4" font-family="Times Roman,serif" font-size="14.00">19 &#45; __Contains__</text>
</g>
<!-- 3 &#45; SubSystem&#45;&gt;19 &#45; __Contains__ -->
<g id="edge12" class="edge"><title>3 &#45; SubSystem&#45;&gt;19 &#45; __Contains__</title>
<path fill="none" stroke="black" d="M246.584,-1064.3C184.99,-1043.18 90,-997.817 90,-919 90,-919 90,-919 90,-611 90,-569.503 93.5687,-521.582 96.2117,-491.782"/>
<polygon fill="black" stroke="black" points="99.7112,-491.945 97.1352,-481.668 92.7402,-491.309 99.7112,-491.945"/>
</g>
<!-- 20 &#45; __Contains__ -->
<g id="node21" class="node"><title>20 &#45; __Contains__</title>
<ellipse fill="lightgray" stroke="black" cx="217" cy="-919" rx="98.9949" ry="18.3848"/>
<text text-anchor="middle" x="217" y="-915.4" font-family="Times Roman,serif" font-size="14.00">20 &#45; __Contains__</text>
</g>
<!-- 3 &#45; SubSystem&#45;&gt;20 &#45; __Contains__ -->
<g id="edge10" class="edge"><title>3 &#45; SubSystem&#45;&gt;20 &#45; __Contains__</title>
<path fill="none" stroke="black" d="M285.725,-1060.52C278.963,-1050.02 270.623,-1036.5 264,-1024 250.518,-998.558 237.315,-968.471 228.353,-947.04"/>
<polygon fill="black" stroke="black" points="231.488,-945.463 224.43,-937.562 225.02,-948.141 231.488,-945.463"/>
</g>
<!-- 21 &#45; __Contains__ -->
<g id="node22" class="node"><title>21 &#45; __Contains__</title>
<ellipse fill="lightgray" stroke="black" cx="373" cy="-1005" rx="99.9096" ry="18.3848"/>
<text text-anchor="middle" x="373" y="-1001.4" font-family="Times Roman,serif" font-size="14.00">21 &#45; __Contains__</text>
</g>
<!-- 3 &#45; SubSystem&#45;&gt;21 &#45; __Contains__ -->
<g id="edge8" class="edge"><title>3 &#45; SubSystem&#45;&gt;21 &#45; __Contains__</title>
<path fill="none" stroke="black" d="M316.539,-1060.71C325.734,-1051.64 336.993,-1040.53 347.031,-1030.62"/>
<polygon fill="black" stroke="black" points="349.754,-1032.85 354.414,-1023.34 344.837,-1027.87 349.754,-1032.85"/>
</g>
<!-- 22 &#45; __Contains__ -->
<g id="node23" class="node"><title>22 &#45; __Contains__</title>
<ellipse fill="lightgray" stroke="black" cx="601" cy="-1005" rx="99.201" ry="18.3848"/>
<text text-anchor="middle" x="601" y="-1001.4" font-family="Times Roman,serif" font-size="14.00">22 &#45; __Contains__</text>
</g>
<!-- 3 &#45; SubSystem&#45;&gt;22 &#45; __Contains__ -->
<g id="edge6" class="edge"><title>3 &#45; SubSystem&#45;&gt;22 &#45; __Contains__</title>
<path fill="none" stroke="black" d="M354.282,-1065.25C404.147,-1053.08 477.157,-1035.25 530.82,-1022.14"/>
<polygon fill="black" stroke="black" points="531.721,-1025.52 540.605,-1019.75 530.06,-1018.72 531.721,-1025.52"/>
</g>
<!-- 4 &#45; Port_Input -->
<g id="node5" class="node"><title>4 &#45; Port_Input</title>
<ellipse fill="lightyellow" stroke="black" cx="272" cy="-167" rx="79.9031" ry="18.3848"/>
<text text-anchor="middle" x="272" y="-163.4" font-family="Times Roman,serif" font-size="14.00">4 &#45; Port_Input</text>
</g>
<!-- 10 &#45; __Block_Inport__ -->
<g id="node11" class="node"><title>10 &#45; __Block_Inport__</title>
<ellipse fill="#b94a62" stroke="black" cx="269" cy="-93" rx="118.087" ry="18.3848"/>
<text text-anchor="middle" x="269" y="-89.4" font-family="Times Roman,serif" font-size="14.00">10 &#45; __Block_Inport__</text>
</g>
<!-- 4 &#45; Port_Input&#45;&gt;10 &#45; __Block_Inport__ -->
<g id="edge14" class="edge"><title>4 &#45; Port_Input&#45;&gt;10 &#45; __Block_Inport__</title>
<path fill="none" stroke="black" d="M271.243,-148.327C270.916,-140.264 270.526,-130.648 270.164,-121.711"/>
<polygon fill="black" stroke="black" points="273.659,-121.517 269.757,-111.667 266.665,-121.801 273.659,-121.517"/>
</g>
<!-- 5 &#45; Port_Input -->
<g id="node6" class="node"><title>5 &#45; Port_Input</title>
<ellipse fill="lightyellow" stroke="black" cx="355" cy="-611" rx="79.9031" ry="18.3848"/>
<text text-anchor="middle" x="355" y="-607.4" font-family="Times Roman,serif" font-size="14.00">5 &#45; Port_Input</text>
</g>
<!-- 11 &#45; __Block_Inport__ -->
<g id="node12" class="node"><title>11 &#45; __Block_Inport__</title>
<ellipse fill="#b94a62" stroke="black" cx="354" cy="-537" rx="119.001" ry="18.3848"/>
<text text-anchor="middle" x="354" y="-533.4" font-family="Times Roman,serif" font-size="14.00">11 &#45; __Block_Inport__</text>
</g>
<!-- 5 &#45; Port_Input&#45;&gt;11 &#45; __Block_Inport__ -->
<g id="edge16" class="edge"><title>5 &#45; Port_Input&#45;&gt;11 &#45; __Block_Inport__</title>
<path fill="none" stroke="black" d="M354.748,-592.327C354.639,-584.264 354.509,-574.648 354.388,-565.711"/>
<polygon fill="black" stroke="black" points="357.887,-565.619 354.252,-555.667 350.888,-565.714 357.887,-565.619"/>
</g>
<!-- 6 &#45; Port_Input -->
<g id="node7" class="node"><title>6 &#45; Port_Input</title>
<ellipse fill="lightyellow" stroke="black" cx="624" cy="-611" rx="79.196" ry="18.3848"/>
<text text-anchor="middle" x="624" y="-607.4" font-family="Times Roman,serif" font-size="14.00">6 &#45; Port_Input</text>
</g>
<!-- 12 &#45; __Block_Inport__ -->
<g id="node13" class="node"><title>12 &#45; __Block_Inport__</title>
<ellipse fill="#b94a62" stroke="black" cx="621" cy="-537" rx="118.794" ry="18.3848"/>
<text text-anchor="middle" x="621" y="-533.4" font-family="Times Roman,serif" font-size="14.00">12 &#45; __Block_Inport__</text>
</g>
<!-- 6 &#45; Port_Input&#45;&gt;12 &#45; __Block_Inport__ -->
<g id="edge18" class="edge"><title>6 &#45; Port_Input&#45;&gt;12 &#45; __Block_Inport__</title>
<path fill="none" stroke="black" d="M623.243,-592.327C622.916,-584.264 622.526,-574.648 622.164,-565.711"/>
<polygon fill="black" stroke="black" points="625.659,-565.517 621.757,-555.667 618.665,-565.801 625.659,-565.517"/>
</g>
<!-- 7 &#45; Port_Output -->
<g id="node8" class="node"><title>7 &#45; Port_Output</title>
<ellipse fill="coral" stroke="black" cx="287" cy="-315" rx="89.0955" ry="18.3848"/>
<text text-anchor="middle" x="287" y="-311.4" font-family="Times Roman,serif" font-size="14.00">7 &#45; Port_Output</text>
</g>
<!-- 17 &#45; __Relation__ -->
<g id="node18" class="node"><title>17 &#45; __Relation__</title>
<ellipse fill="#f78465" stroke="black" cx="277" cy="-241" rx="97.7889" ry="18.3848"/>
<text text-anchor="middle" x="277" y="-237.4" font-family="Times Roman,serif" font-size="14.00">17 &#45; __Relation__</text>
</g>
<!-- 7 &#45; Port_Output&#45;&gt;17 &#45; __Relation__ -->
<g id="edge20" class="edge"><title>7 &#45; Port_Output&#45;&gt;17 &#45; __Relation__</title>
<path fill="none" stroke="black" d="M284.477,-296.327C283.387,-288.264 282.088,-278.648 280.88,-269.711"/>
<polygon fill="black" stroke="black" points="284.33,-269.109 279.523,-259.667 277.393,-270.046 284.33,-269.109"/>
</g>
<!-- 8 &#45; Port_Output -->
<g id="node9" class="node"><title>8 &#45; Port_Output</title>
<ellipse fill="coral" stroke="black" cx="357" cy="-759" rx="87.889" ry="18.3848"/>
<text text-anchor="middle" x="357" y="-755.4" font-family="Times Roman,serif" font-size="14.00">8 &#45; Port_Output</text>
</g>
<!-- 16 &#45; __Relation__ -->
<g id="node17" class="node"><title>16 &#45; __Relation__</title>
<ellipse fill="#f78465" stroke="black" cx="356" cy="-685" rx="96.8736" ry="18.3848"/>
<text text-anchor="middle" x="356" y="-681.4" font-family="Times Roman,serif" font-size="14.00">16 &#45; __Relation__</text>
</g>
<!-- 8 &#45; Port_Output&#45;&gt;16 &#45; __Relation__ -->
<g id="edge22" class="edge"><title>8 &#45; Port_Output&#45;&gt;16 &#45; __Relation__</title>
<path fill="none" stroke="black" d="M356.748,-740.327C356.639,-732.264 356.509,-722.648 356.388,-713.711"/>
<polygon fill="black" stroke="black" points="359.887,-713.619 356.252,-703.667 352.888,-713.714 359.887,-713.619"/>
</g>
<!-- 9 &#45; Port_Output -->
<g id="node10" class="node"><title>9 &#45; Port_Output</title>
<ellipse fill="coral" stroke="black" cx="631" cy="-759" rx="87.889" ry="18.3848"/>
<text text-anchor="middle" x="631" y="-755.4" font-family="Times Roman,serif" font-size="14.00">9 &#45; Port_Output</text>
</g>
<!-- 18 &#45; __Relation__ -->
<g id="node19" class="node"><title>18 &#45; __Relation__</title>
<ellipse fill="#f78465" stroke="black" cx="630" cy="-685" rx="96.8736" ry="18.3848"/>
<text text-anchor="middle" x="630" y="-681.4" font-family="Times Roman,serif" font-size="14.00">18 &#45; __Relation__</text>
</g>
<!-- 9 &#45; Port_Output&#45;&gt;18 &#45; __Relation__ -->
<g id="edge24" class="edge"><title>9 &#45; Port_Output&#45;&gt;18 &#45; __Relation__</title>
<path fill="none" stroke="black" d="M630.748,-740.327C630.639,-732.264 630.509,-722.648 630.388,-713.711"/>
<polygon fill="black" stroke="black" points="633.887,-713.619 630.252,-703.667 626.888,-713.714 633.887,-713.619"/>
</g>
<!-- 10 &#45; __Block_Inport__&#45;&gt;0 &#45; Outport -->
<g id="edge26" class="edge"><title>10 &#45; __Block_Inport__&#45;&gt;0 &#45; Outport</title>
<path fill="none" stroke="black" d="M250.708,-74.7079C241.567,-65.5674 230.36,-54.3599 220.4,-44.4"/>
<polygon fill="black" stroke="black" points="222.628,-41.6779 213.082,-37.0817 217.678,-46.6277 222.628,-41.6779"/>
</g>
<!-- 11 &#45; __Block_Inport__&#45;&gt;1 &#45; Product -->
<g id="edge28" class="edge"><title>11 &#45; __Block_Inport__&#45;&gt;1 &#45; Product</title>
<path fill="none" stroke="black" d="M340.626,-518.327C334.381,-509.607 326.834,-499.07 320.01,-489.542"/>
<polygon fill="black" stroke="black" points="322.672,-487.248 314.003,-481.156 316.981,-491.324 322.672,-487.248"/>
</g>
<!-- 12 &#45; __Block_Inport__&#45;&gt;1 &#45; Product -->
<g id="edge30" class="edge"><title>12 &#45; __Block_Inport__&#45;&gt;1 &#45; Product</title>
<path fill="none" stroke="black" d="M554.307,-521.577C497.834,-508.518 417.522,-489.946 362.56,-477.236"/>
<polygon fill="black" stroke="black" points="363.135,-473.776 352.603,-474.933 361.558,-480.596 363.135,-473.776"/>
</g>
<!-- 13 &#45; __Block_Outport__&#45;&gt;7 &#45; Port_Output -->
<g id="edge32" class="edge"><title>13 &#45; __Block_Outport__&#45;&gt;7 &#45; Port_Output</title>
<path fill="none" stroke="black" d="M288.495,-370.327C288.277,-362.264 288.018,-352.648 287.776,-343.711"/>
<polygon fill="black" stroke="black" points="291.274,-343.569 287.505,-333.667 284.276,-343.758 291.274,-343.569"/>
</g>
<!-- 14 &#45; __Block_Outport__ -->
<g id="node15" class="node"><title>14 &#45; __Block_Outport__</title>
<ellipse fill="#b94a62" stroke="black" cx="359" cy="-833" rx="127.986" ry="18.3848"/>
<text text-anchor="middle" x="359" y="-829.4" font-family="Times Roman,serif" font-size="14.00">14 &#45; __Block_Outport__</text>
</g>
<!-- 14 &#45; __Block_Outport__&#45;&gt;8 &#45; Port_Output -->
<g id="edge34" class="edge"><title>14 &#45; __Block_Outport__&#45;&gt;8 &#45; Port_Output</title>
<path fill="none" stroke="black" d="M358.495,-814.327C358.277,-806.264 358.018,-796.648 357.776,-787.711"/>
<polygon fill="black" stroke="black" points="361.274,-787.569 357.505,-777.667 354.276,-787.758 361.274,-787.569"/>
</g>
<!-- 15 &#45; __Block_Outport__&#45;&gt;9 &#45; Port_Output -->
<g id="edge36" class="edge"><title>15 &#45; __Block_Outport__&#45;&gt;9 &#45; Port_Output</title>
<path fill="none" stroke="black" d="M632.495,-814.327C632.277,-806.264 632.018,-796.648 631.776,-787.711"/>
<polygon fill="black" stroke="black" points="635.274,-787.569 631.505,-777.667 628.276,-787.758 635.274,-787.569"/>
</g>
<!-- 16 &#45; __Relation__&#45;&gt;5 &#45; Port_Input -->
<g id="edge38" class="edge"><title>16 &#45; __Relation__&#45;&gt;5 &#45; Port_Input</title>
<path fill="none" stroke="black" d="M355.748,-666.327C355.639,-658.264 355.509,-648.648 355.388,-639.711"/>
<polygon fill="black" stroke="black" points="358.887,-639.619 355.252,-629.667 351.888,-639.714 358.887,-639.619"/>
</g>
<!-- 17 &#45; __Relation__&#45;&gt;4 &#45; Port_Input -->
<g id="edge40" class="edge"><title>17 &#45; __Relation__&#45;&gt;4 &#45; Port_Input</title>
<path fill="none" stroke="black" d="M275.738,-222.327C275.194,-214.264 274.544,-204.648 273.94,-195.711"/>
<polygon fill="black" stroke="black" points="277.428,-195.409 273.261,-185.667 270.444,-195.881 277.428,-195.409"/>
</g>
<!-- 18 &#45; __Relation__&#45;&gt;6 &#45; Port_Input -->
<g id="edge42" class="edge"><title>18 &#45; __Relation__&#45;&gt;6 &#45; Port_Input</title>
<path fill="none" stroke="black" d="M628.486,-666.327C627.832,-658.264 627.053,-648.648 626.328,-639.711"/>
<polygon fill="black" stroke="black" points="629.81,-639.352 625.514,-629.667 622.833,-639.918 629.81,-639.352"/>
</g>
<!-- 19 &#45; __Contains__&#45;&gt;0 &#45; Outport -->
<g id="edge44" class="edge"><title>19 &#45; __Contains__&#45;&gt;0 &#45; Outport</title>
<path fill="none" stroke="black" d="M103.766,-444.453C110.502,-416.561 122,-362.065 122,-315 122,-315 122,-315 122,-167 122,-124.722 122.127,-111.316 142,-74 147.941,-62.8444 156.805,-52.3716 165.592,-43.6195"/>
<polygon fill="black" stroke="black" points="168.044,-46.1176 172.889,-36.6953 163.226,-41.0398 168.044,-46.1176"/>
</g>
<!-- 20 &#45; __Contains__&#45;&gt;1 &#45; Product -->
<g id="edge46" class="edge"><title>20 &#45; __Contains__&#45;&gt;1 &#45; Product</title>
<path fill="none" stroke="black" d="M214.301,-900.326C210.232,-870.516 203,-810.306 203,-759 203,-759 203,-759 203,-611 203,-568.421 202.302,-553.374 226,-518 234.762,-504.921 247.729,-493.826 260.427,-485.102"/>
<polygon fill="black" stroke="black" points="262.647,-487.833 269.12,-479.445 258.829,-481.966 262.647,-487.833"/>
</g>
<!-- 23 &#45; Constant\n Value = 545.54 -->
<g id="node24" class="node"><title>23 &#45; Constant\n Value = 545.54</title>
<ellipse fill="lightblue" stroke="black" cx="426" cy="-919" rx="92.1303" ry="31.1127"/>
<text text-anchor="middle" x="426" y="-924.4" font-family="Times Roman,serif" font-size="14.00">23 &#45; Constant</text>
<text text-anchor="middle" x="426" y="-906.4" font-family="Times Roman,serif" font-size="14.00"> Value = 545.54</text>
</g>
<!-- 21 &#45; __Contains__&#45;&gt;23 &#45; Constant\n Value = 545.54 -->
<g id="edge48" class="edge"><title>21 &#45; __Contains__&#45;&gt;23 &#45; Constant\n Value = 545.54</title>
<path fill="none" stroke="black" d="M384.5,-986.339C389.633,-978.01 395.886,-967.864 401.965,-958"/>
<polygon fill="black" stroke="black" points="404.962,-959.808 407.229,-949.458 399.003,-956.135 404.962,-959.808"/>
</g>
<!-- 22 &#45; __Contains__&#45;&gt;2 &#45; Inport -->
<g id="edge50" class="edge"><title>22 &#45; __Contains__&#45;&gt;2 &#45; Inport</title>
<path fill="none" stroke="black" d="M602.302,-986.339C603.088,-975.07 604.106,-960.474 604.994,-947.754"/>
<polygon fill="black" stroke="black" points="608.496,-947.844 605.701,-937.624 601.513,-947.356 608.496,-947.844"/>
</g>
<!-- 23 &#45; Constant\n Value = 545.54&#45;&gt;14 &#45; __Block_Outport__ -->
<g id="edge52" class="edge"><title>23 &#45; Constant\n Value = 545.54&#45;&gt;14 &#45; __Block_Outport__</title>
<path fill="none" stroke="black" d="M402.567,-888.921C395.113,-879.353 386.926,-868.845 379.68,-859.545"/>
<polygon fill="black" stroke="black" points="382.247,-857.144 373.34,-851.406 376.725,-861.446 382.247,-857.144"/>
</g>
</g>
</svg>
