<?xml version="1.0" encoding="UTF-8" standalone="no"?>
<!DOCTYPE svg PUBLIC "-//W3C//DTD SVG 1.1//EN"
 "http://www.w3.org/Graphics/SVG/1.1/DTD/svg11.dtd">
<!-- Generated by graphviz version 2.26.3 (20100126.1600)
 -->
<!-- Title: HSimpleConstDead_opt_real Pages: 1 -->
<svg width="733pt" height="1106pt"
 viewBox="0.00 0.00 733.00 1106.00" xmlns="http://www.w3.org/2000/svg" xmlns:xlink="http://www.w3.org/1999/xlink">
<g id="graph1" class="graph" transform="scale(1 1) rotate(0) translate(4 1102)">
<title>HSimpleConstDead_opt_real</title>
<polygon fill="white" stroke="white" points="-4,5 -4,-1102 730,-1102 730,5 -4,5"/>
<!-- 0 &#45; Outport -->
<g id="node1" class="node"><title>0 &#45; Outport</title>
<ellipse fill="#eedd82" stroke="black" cx="196" cy="-19" rx="67.1751" ry="18.3848"/>
<text text-anchor="middle" x="196" y="-15.4" font-family="Times Roman,serif" font-size="14.00">0 &#45; Outport</text>
</g>
<!-- 1 &#45; Product -->
<g id="node2" class="node"><title>1 &#45; Product</title>
<ellipse fill="lightblue" stroke="black" cx="301" cy="-463" rx="67.1751" ry="18.3848"/>
<text text-anchor="middle" x="301" y="-459.4" font-family="Times Roman,serif" font-size="14.00">1 &#45; Product</text>
</g>
<!-- 14 &#45; __Block_Outport__ -->
<g id="node15" class="node"><title>14 &#45; __Block_Outport__</title>
<ellipse fill="#b94a62" stroke="black" cx="289" cy="-389" rx="127.986" ry="18.3848"/>
<text text-anchor="middle" x="289" y="-385.4" font-family="Times Roman,serif" font-size="14.00">14 &#45; __Block_Outport__</text>
</g>
<!-- 1 &#45; Product&#45;&gt;14 &#45; __Block_Outport__ -->
<g id="edge2" class="edge"><title>1 &#45; Product&#45;&gt;14 &#45; __Block_Outport__</title>
<path fill="none" stroke="black" d="M297.972,-444.327C296.664,-436.264 295.105,-426.648 293.656,-417.711"/>
<polygon fill="black" stroke="black" points="297.083,-416.978 292.027,-407.667 290.173,-418.099 297.083,-416.978"/>
</g>
<!-- 2 &#45; Inport -->
<g id="node3" class="node"><title>2 &#45; Inport</title>
<ellipse fill="#eedd82" stroke="black" cx="367" cy="-919" rx="58.1882" ry="18.3848"/>
<text text-anchor="middle" x="367" y="-915.4" font-family="Times Roman,serif" font-size="14.00">2 &#45; Inport</text>
</g>
<!-- 15 &#45; __Block_Outport__ -->
<g id="node16" class="node"><title>15 &#45; __Block_Outport__</title>
<ellipse fill="#b94a62" stroke="black" cx="325" cy="-833" rx="127.986" ry="18.3848"/>
<text text-anchor="middle" x="325" y="-829.4" font-family="Times Roman,serif" font-size="14.00">15 &#45; __Block_Outport__</text>
</g>
<!-- 2 &#45; Inport&#45;&gt;15 &#45; __Block_Outport__ -->
<g id="edge4" class="edge"><title>2 &#45; Inport&#45;&gt;15 &#45; __Block_Outport__</title>
<path fill="none" stroke="black" d="M357.887,-900.339C352.218,-888.732 344.826,-873.596 338.486,-860.614"/>
<polygon fill="black" stroke="black" points="341.629,-859.074 334.096,-851.624 335.339,-862.146 341.629,-859.074"/>
</g>
<!-- 3 &#45; SubSystem -->
<g id="node4" class="node"><title>3 &#45; SubSystem</title>
<ellipse fill="lightgreen" stroke="black" cx="263" cy="-1079" rx="84.1457" ry="18.3848"/>
<text text-anchor="middle" x="263" y="-1075.4" font-family="Times Roman,serif" font-size="14.00">3 &#45; SubSystem</text>
</g>
<!-- 20 &#45; __Contains__ -->
<g id="node21" class="node"><title>20 &#45; __Contains__</title>
<ellipse fill="lightgray" stroke="black" cx="99" cy="-463" rx="98.9949" ry="18.3848"/>
<text text-anchor="middle" x="99" y="-459.4" font-family="Times Roman,serif" font-size="14.00">20 &#45; __Contains__</text>
</g>
<!-- 3 &#45; SubSystem&#45;&gt;20 &#45; __Contains__ -->
<g id="edge12" class="edge"><title>3 &#45; SubSystem&#45;&gt;20 &#45; __Contains__</title>
<path fill="none" stroke="black" d="M214.074,-1063.9C154.865,-1042.22 63,-996.149 63,-919 63,-919 63,-919 63,-611 63,-568.422 77.2416,-520.855 87.8098,-491.419"/>
<polygon fill="black" stroke="black" points="91.1806,-492.395 91.3653,-481.802 84.6149,-489.968 91.1806,-492.395"/>
</g>
<!-- 21 &#45; __Contains__ -->
<g id="node22" class="node"><title>21 &#45; __Contains__</title>
<ellipse fill="lightgray" stroke="black" cx="191" cy="-919" rx="99.9096" ry="18.3848"/>
<text text-anchor="middle" x="191" y="-915.4" font-family="Times Roman,serif" font-size="14.00">21 &#45; __Contains__</text>
</g>
<!-- 3 &#45; SubSystem&#45;&gt;21 &#45; __Contains__ -->
<g id="edge10" class="edge"><title>3 &#45; SubSystem&#45;&gt;21 &#45; __Contains__</title>
<path fill="none" stroke="black" d="M247.733,-1060.58C239.804,-1050.31 230.452,-1037 224,-1024 211.736,-999.288 202.809,-969.054 197.356,-947.385"/>
<polygon fill="black" stroke="black" points="200.717,-946.392 194.959,-937.498 193.914,-948.041 200.717,-946.392"/>
</g>
<!-- 22 &#45; __Contains__ -->
<g id="node23" class="node"><title>22 &#45; __Contains__</title>
<ellipse fill="lightgray" stroke="black" cx="332" cy="-1005" rx="99.201" ry="18.3848"/>
<text text-anchor="middle" x="332" y="-1001.4" font-family="Times Roman,serif" font-size="14.00">22 &#45; __Contains__</text>
</g>
<!-- 3 &#45; SubSystem&#45;&gt;22 &#45; __Contains__ -->
<g id="edge8" class="edge"><title>3 &#45; SubSystem&#45;&gt;22 &#45; __Contains__</title>
<path fill="none" stroke="black" d="M280.056,-1060.71C288.432,-1051.72 298.67,-1040.74 307.836,-1030.91"/>
<polygon fill="black" stroke="black" points="310.641,-1033.04 314.901,-1023.34 305.521,-1028.27 310.641,-1033.04"/>
</g>
<!-- 23 &#45; __Contains__ -->
<g id="node24" class="node"><title>23 &#45; __Contains__</title>
<ellipse fill="lightgray" stroke="black" cx="553" cy="-1005" rx="98.9949" ry="18.3848"/>
<text text-anchor="middle" x="553" y="-1001.4" font-family="Times Roman,serif" font-size="14.00">23 &#45; __Contains__</text>
</g>
<!-- 3 &#45; SubSystem&#45;&gt;23 &#45; __Contains__ -->
<g id="edge6" class="edge"><title>3 &#45; SubSystem&#45;&gt;23 &#45; __Contains__</title>
<path fill="none" stroke="black" d="M317.888,-1064.99C365.149,-1052.93 433.57,-1035.48 484.427,-1022.5"/>
<polygon fill="black" stroke="black" points="485.529,-1025.83 494.353,-1019.97 483.798,-1019.05 485.529,-1025.83"/>
</g>
<!-- 4 &#45; Constant\n Value = 433.22 -->
<g id="node5" class="node"><title>4 &#45; Constant\n Value = 433.22</title>
<ellipse fill="lightblue" stroke="black" cx="556" cy="-919" rx="91.9239" ry="31.1127"/>
<text text-anchor="middle" x="556" y="-924.4" font-family="Times Roman,serif" font-size="14.00">4 &#45; Constant</text>
<text text-anchor="middle" x="556" y="-906.4" font-family="Times Roman,serif" font-size="14.00"> Value = 433.22</text>
</g>
<!-- 16 &#45; __Block_Outport__ -->
<g id="node17" class="node"><title>16 &#45; __Block_Outport__</title>
<ellipse fill="#b94a62" stroke="black" cx="598" cy="-833" rx="126.78" ry="18.3848"/>
<text text-anchor="middle" x="598" y="-829.4" font-family="Times Roman,serif" font-size="14.00">16 &#45; __Block_Outport__</text>
</g>
<!-- 4 &#45; Constant\n Value = 433.22&#45;&gt;16 &#45; __Block_Outport__ -->
<g id="edge14" class="edge"><title>4 &#45; Constant\n Value = 433.22&#45;&gt;16 &#45; __Block_Outport__</title>
<path fill="none" stroke="black" d="M571.163,-887.952C575.546,-878.978 580.297,-869.248 584.567,-860.506"/>
<polygon fill="black" stroke="black" points="587.727,-862.01 588.971,-851.489 581.437,-858.939 587.727,-862.01"/>
</g>
<!-- 5 &#45; Port_Input -->
<g id="node6" class="node"><title>5 &#45; Port_Input</title>
<ellipse fill="lightyellow" stroke="black" cx="272" cy="-167" rx="79.9031" ry="18.3848"/>
<text text-anchor="middle" x="272" y="-163.4" font-family="Times Roman,serif" font-size="14.00">5 &#45; Port_Input</text>
</g>
<!-- 11 &#45; __Block_Inport__ -->
<g id="node12" class="node"><title>11 &#45; __Block_Inport__</title>
<ellipse fill="#b94a62" stroke="black" cx="270" cy="-93" rx="119.001" ry="18.3848"/>
<text text-anchor="middle" x="270" y="-89.4" font-family="Times Roman,serif" font-size="14.00">11 &#45; __Block_Inport__</text>
</g>
<!-- 5 &#45; Port_Input&#45;&gt;11 &#45; __Block_Inport__ -->
<g id="edge16" class="edge"><title>5 &#45; Port_Input&#45;&gt;11 &#45; __Block_Inport__</title>
<path fill="none" stroke="black" d="M271.495,-148.327C271.277,-140.264 271.018,-130.648 270.776,-121.711"/>
<polygon fill="black" stroke="black" points="274.274,-121.569 270.505,-111.667 267.276,-121.758 274.274,-121.569"/>
</g>
<!-- 6 &#45; Port_Input -->
<g id="node7" class="node"><title>6 &#45; Port_Input</title>
<ellipse fill="lightyellow" stroke="black" cx="591" cy="-611" rx="79.196" ry="18.3848"/>
<text text-anchor="middle" x="591" y="-607.4" font-family="Times Roman,serif" font-size="14.00">6 &#45; Port_Input</text>
</g>
<!-- 12 &#45; __Block_Inport__ -->
<g id="node13" class="node"><title>12 &#45; __Block_Inport__</title>
<ellipse fill="#b94a62" stroke="black" cx="589" cy="-537" rx="118.794" ry="18.3848"/>
<text text-anchor="middle" x="589" y="-533.4" font-family="Times Roman,serif" font-size="14.00">12 &#45; __Block_Inport__</text>
</g>
<!-- 6 &#45; Port_Input&#45;&gt;12 &#45; __Block_Inport__ -->
<g id="edge18" class="edge"><title>6 &#45; Port_Input&#45;&gt;12 &#45; __Block_Inport__</title>
<path fill="none" stroke="black" d="M590.495,-592.327C590.277,-584.264 590.018,-574.648 589.776,-565.711"/>
<polygon fill="black" stroke="black" points="593.274,-565.569 589.505,-555.667 586.276,-565.758 593.274,-565.569"/>
</g>
<!-- 7 &#45; Port_Input -->
<g id="node8" class="node"><title>7 &#45; Port_Input</title>
<ellipse fill="lightyellow" stroke="black" cx="321" cy="-611" rx="79.9031" ry="18.3848"/>
<text text-anchor="middle" x="321" y="-607.4" font-family="Times Roman,serif" font-size="14.00">7 &#45; Port_Input</text>
</g>
<!-- 13 &#45; __Block_Inport__ -->
<g id="node14" class="node"><title>13 &#45; __Block_Inport__</title>
<ellipse fill="#b94a62" stroke="black" cx="320" cy="-537" rx="118.087" ry="18.3848"/>
<text text-anchor="middle" x="320" y="-533.4" font-family="Times Roman,serif" font-size="14.00">13 &#45; __Block_Inport__</text>
</g>
<!-- 7 &#45; Port_Input&#45;&gt;13 &#45; __Block_Inport__ -->
<g id="edge20" class="edge"><title>7 &#45; Port_Input&#45;&gt;13 &#45; __Block_Inport__</title>
<path fill="none" stroke="black" d="M320.748,-592.327C320.639,-584.264 320.509,-574.648 320.388,-565.711"/>
<polygon fill="black" stroke="black" points="323.887,-565.619 320.252,-555.667 316.888,-565.714 323.887,-565.619"/>
</g>
<!-- 8 &#45; Port_Output -->
<g id="node9" class="node"><title>8 &#45; Port_Output</title>
<ellipse fill="coral" stroke="black" cx="287" cy="-315" rx="87.889" ry="18.3848"/>
<text text-anchor="middle" x="287" y="-311.4" font-family="Times Roman,serif" font-size="14.00">8 &#45; Port_Output</text>
</g>
<!-- 18 &#45; __Relation__ -->
<g id="node19" class="node"><title>18 &#45; __Relation__</title>
<ellipse fill="#f78465" stroke="black" cx="277" cy="-241" rx="96.8736" ry="18.3848"/>
<text text-anchor="middle" x="277" y="-237.4" font-family="Times Roman,serif" font-size="14.00">18 &#45; __Relation__</text>
</g>
<!-- 8 &#45; Port_Output&#45;&gt;18 &#45; __Relation__ -->
<g id="edge22" class="edge"><title>8 &#45; Port_Output&#45;&gt;18 &#45; __Relation__</title>
<path fill="none" stroke="black" d="M284.477,-296.327C283.387,-288.264 282.088,-278.648 280.88,-269.711"/>
<polygon fill="black" stroke="black" points="284.33,-269.109 279.523,-259.667 277.393,-270.046 284.33,-269.109"/>
</g>
<!-- 9 &#45; Port_Output -->
<g id="node10" class="node"><title>9 &#45; Port_Output</title>
<ellipse fill="coral" stroke="black" cx="323" cy="-759" rx="87.889" ry="18.3848"/>
<text text-anchor="middle" x="323" y="-755.4" font-family="Times Roman,serif" font-size="14.00">9 &#45; Port_Output</text>
</g>
<!-- 19 &#45; __Relation__ -->
<g id="node20" class="node"><title>19 &#45; __Relation__</title>
<ellipse fill="#f78465" stroke="black" cx="322" cy="-685" rx="96.8736" ry="18.3848"/>
<text text-anchor="middle" x="322" y="-681.4" font-family="Times Roman,serif" font-size="14.00">19 &#45; __Relation__</text>
</g>
<!-- 9 &#45; Port_Output&#45;&gt;19 &#45; __Relation__ -->
<g id="edge24" class="edge"><title>9 &#45; Port_Output&#45;&gt;19 &#45; __Relation__</title>
<path fill="none" stroke="black" d="M322.748,-740.327C322.639,-732.264 322.509,-722.648 322.388,-713.711"/>
<polygon fill="black" stroke="black" points="325.887,-713.619 322.252,-703.667 318.888,-713.714 325.887,-713.619"/>
</g>
<!-- 10 &#45; Port_Output -->
<g id="node11" class="node"><title>10 &#45; Port_Output</title>
<ellipse fill="coral" stroke="black" cx="596" cy="-759" rx="94.7523" ry="18.3848"/>
<text text-anchor="middle" x="596" y="-755.4" font-family="Times Roman,serif" font-size="14.00">10 &#45; Port_Output</text>
</g>
<!-- 17 &#45; __Relation__ -->
<g id="node18" class="node"><title>17 &#45; __Relation__</title>
<ellipse fill="#f78465" stroke="black" cx="595" cy="-685" rx="97.7889" ry="18.3848"/>
<text text-anchor="middle" x="595" y="-681.4" font-family="Times Roman,serif" font-size="14.00">17 &#45; __Relation__</text>
</g>
<!-- 10 &#45; Port_Output&#45;&gt;17 &#45; __Relation__ -->
<g id="edge26" class="edge"><title>10 &#45; Port_Output&#45;&gt;17 &#45; __Relation__</title>
<path fill="none" stroke="black" d="M595.748,-740.327C595.639,-732.264 595.509,-722.648 595.388,-713.711"/>
<polygon fill="black" stroke="black" points="598.887,-713.619 595.252,-703.667 591.888,-713.714 598.887,-713.619"/>
</g>
<!-- 11 &#45; __Block_Inport__&#45;&gt;0 &#45; Outport -->
<g id="edge28" class="edge"><title>11 &#45; __Block_Inport__&#45;&gt;0 &#45; Outport</title>
<path fill="none" stroke="black" d="M251.708,-74.7079C242.567,-65.5674 231.36,-54.3599 221.4,-44.4"/>
<polygon fill="black" stroke="black" points="223.628,-41.6779 214.082,-37.0817 218.678,-46.6277 223.628,-41.6779"/>
</g>
<!-- 12 &#45; __Block_Inport__&#45;&gt;1 &#45; Product -->
<g id="edge30" class="edge"><title>12 &#45; __Block_Inport__&#45;&gt;1 &#45; Product</title>
<path fill="none" stroke="black" d="M527.217,-521.125C477.736,-508.411 408.777,-490.693 360.036,-478.169"/>
<polygon fill="black" stroke="black" points="360.82,-474.757 350.263,-475.658 359.078,-481.537 360.82,-474.757"/>
</g>
<!-- 13 &#45; __Block_Inport__&#45;&gt;1 &#45; Product -->
<g id="edge32" class="edge"><title>13 &#45; __Block_Inport__&#45;&gt;1 &#45; Product</title>
<path fill="none" stroke="black" d="M315.205,-518.327C313.113,-510.176 310.613,-500.438 308.297,-491.42"/>
<polygon fill="black" stroke="black" points="311.67,-490.483 305.793,-481.667 304.89,-492.224 311.67,-490.483"/>
</g>
<!-- 14 &#45; __Block_Outport__&#45;&gt;8 &#45; Port_Output -->
<g id="edge34" class="edge"><title>14 &#45; __Block_Outport__&#45;&gt;8 &#45; Port_Output</title>
<path fill="none" stroke="black" d="M288.495,-370.327C288.277,-362.264 288.018,-352.648 287.776,-343.711"/>
<polygon fill="black" stroke="black" points="291.274,-343.569 287.505,-333.667 284.276,-343.758 291.274,-343.569"/>
</g>
<!-- 15 &#45; __Block_Outport__&#45;&gt;9 &#45; Port_Output -->
<g id="edge36" class="edge"><title>15 &#45; __Block_Outport__&#45;&gt;9 &#45; Port_Output</title>
<path fill="none" stroke="black" d="M324.495,-814.327C324.277,-806.264 324.018,-796.648 323.776,-787.711"/>
<polygon fill="black" stroke="black" points="327.274,-787.569 323.505,-777.667 320.276,-787.758 327.274,-787.569"/>
</g>
<!-- 16 &#45; __Block_Outport__&#45;&gt;10 &#45; Port_Output -->
<g id="edge38" class="edge"><title>16 &#45; __Block_Outport__&#45;&gt;10 &#45; Port_Output</title>
<path fill="none" stroke="black" d="M597.495,-814.327C597.277,-806.264 597.018,-796.648 596.776,-787.711"/>
<polygon fill="black" stroke="black" points="600.274,-787.569 596.505,-777.667 593.276,-787.758 600.274,-787.569"/>
</g>
<!-- 17 &#45; __Relation__&#45;&gt;6 &#45; Port_Input -->
<g id="edge40" class="edge"><title>17 &#45; __Relation__&#45;&gt;6 &#45; Port_Input</title>
<path fill="none" stroke="black" d="M593.991,-666.327C593.555,-658.264 593.035,-648.648 592.552,-639.711"/>
<polygon fill="black" stroke="black" points="596.044,-639.464 592.009,-629.667 589.054,-639.842 596.044,-639.464"/>
</g>
<!-- 18 &#45; __Relation__&#45;&gt;5 &#45; Port_Input -->
<g id="edge42" class="edge"><title>18 &#45; __Relation__&#45;&gt;5 &#45; Port_Input</title>
<path fill="none" stroke="black" d="M275.738,-222.327C275.194,-214.264 274.544,-204.648 273.94,-195.711"/>
<polygon fill="black" stroke="black" points="277.428,-195.409 273.261,-185.667 270.444,-195.881 277.428,-195.409"/>
</g>
<!-- 19 &#45; __Relation__&#45;&gt;7 &#45; Port_Input -->
<g id="edge44" class="edge"><title>19 &#45; __Relation__&#45;&gt;7 &#45; Port_Input</title>
<path fill="none" stroke="black" d="M321.748,-666.327C321.639,-658.264 321.509,-648.648 321.388,-639.711"/>
<polygon fill="black" stroke="black" points="324.887,-639.619 321.252,-629.667 317.888,-639.714 324.887,-639.619"/>
</g>
<!-- 20 &#45; __Contains__&#45;&gt;0 &#45; Outport -->
<g id="edge46" class="edge"><title>20 &#45; __Contains__&#45;&gt;0 &#45; Outport</title>
<path fill="none" stroke="black" d="M103.766,-444.453C110.502,-416.561 122,-362.065 122,-315 122,-315 122,-315 122,-167 122,-124.722 121.953,-111.223 142,-74 148.048,-62.7707 157.078,-52.2791 166.031,-43.5324"/>
<polygon fill="black" stroke="black" points="168.527,-45.9908 173.466,-36.6177 163.76,-40.8648 168.527,-45.9908"/>
</g>
<!-- 21 &#45; __Contains__&#45;&gt;1 &#45; Product -->
<g id="edge48" class="edge"><title>21 &#45; __Contains__&#45;&gt;1 &#45; Product</title>
<path fill="none" stroke="black" d="M186.758,-900.393C180.365,-870.677 169,-810.592 169,-759 169,-759 169,-759 169,-611 169,-568.313 166.286,-551.295 193,-518 206.523,-501.146 226.576,-488.963 245.744,-480.416"/>
<polygon fill="black" stroke="black" points="247.185,-483.607 255.05,-476.508 244.475,-477.153 247.185,-483.607"/>
</g>
<!-- 22 &#45; __Contains__&#45;&gt;2 &#45; Inport -->
<g id="edge50" class="edge"><title>22 &#45; __Contains__&#45;&gt;2 &#45; Inport</title>
<path fill="none" stroke="black" d="M339.594,-986.339C344.273,-974.844 350.359,-959.889 355.607,-946.993"/>
<polygon fill="black" stroke="black" points="358.893,-948.206 359.42,-937.624 352.409,-945.567 358.893,-948.206"/>
</g>
<!-- 23 &#45; __Contains__&#45;&gt;4 &#45; Constant\n Value = 433.22 -->
<g id="edge52" class="edge"><title>23 &#45; __Contains__&#45;&gt;4 &#45; Constant\n Value = 433.22</title>
<path fill="none" stroke="black" d="M553.651,-986.339C553.919,-978.658 554.241,-969.432 554.559,-960.308"/>
<polygon fill="black" stroke="black" points="558.063,-960.253 554.914,-950.137 551.067,-960.009 558.063,-960.253"/>
</g>
</g>
</svg>
